<svg xmlns="http://www.w3.org/2000/svg" xmlns:xlink="http://www.w3.org/1999/xlink" xmlns:inkscape="http://www.inkscape.org/namespaces/inkscape" version="1.1" width="161" height="15" viewBox="0 0 161 15">
<defs>
<path id="font_1_1" d="M.33399964 .30233766C.33999635 .32835389 .36299134 .42037965 .43299867 .42037965 .43798829 .42037965 .46199037 .42037965 .48298646 .40734864 .45498658 .402359 .43499757 .37734986 .43499757 .35334779 .43499757 .33735658 .44599916 .31835938 .47299195 .31835938 .49499513 .31835938 .5269928 .3363495 .5269928 .37635804 .5269928 .42837525 .46798707 .4423828 .43399049 .4423828 .37599183 .4423828 .34098817 .38935853 .32899476 .36634828 .3039856 .43237306 .25 .4423828 .22099304 .4423828 .116989139 .4423828 .05999756 .3133545 .05999756 .28834535 .05999756 .27833558 .069992069 .27833558 .07199097 .27833558 .07998657 .27833558 .08299255 .28033448 .084991458 .28933717 .11898804 .39535523 .18499756 .42037965 .21899414 .42037965 .23799134 .42037965 .272995 .4113617 .272995 .35334779 .272995 .32235719 .2559967 .25532533 .21899414 .11528015 .20298767 .053268434 .16799927 .011245728 .12399292 .011245728 .117996219 .011245728 .09498596 .011245728 .07398987 .024276734 .09899902 .029266358 .12098694 .05027771 .12098694 .07827759 .12098694 .105270389 .09899902 .11328125 .083999637 .11328125 .053985597 .11328125 .0289917 .08728027 .0289917 .055267335 .0289917 .009246826 .07899475-.0107421879 .12298584-.0107421879 .18899536-.0107421879 .22499085 .059280397 .22799683 .0652771 .23999024 .028274537 .27598573-.0107421879 .33599855-.0107421879 .43899537-.0107421879 .49598695 .118270877 .49598695 .14328003 .49598695 .1532898 .4869995 .1532898 .48399354 .1532898 .47499085 .1532898 .47299195 .14929199 .47099305 .14228821 .43798829 .03527832 .36999513 .011245728 .33799745 .011245728 .29899598 .011245728 .2829895 .043273927 .2829895 .07727051 .2829895 .09927368 .2889862 .121276859 .2999878 .16529846L.33399964 .30233766Z"/>
<path id="font_2_1" d="M.5159912 .31925965C.5159912 .42918397 .5029907 .50813296 .45700074 .5780945 .42599488 .62405398 .3639984 .6640625 .28399659 .6640625 .051986696 .6640625 .051986696 .39120484 .051986696 .31925965 .051986696 .2472992 .051986696-.01953125 .28399659-.01953125 .5159912-.01953125 .5159912 .2472992 .5159912 .31925965M.28399659 .008468628C.23799134 .008468628 .1769867 .035446168 .15699768 .117385867 .14299011 .17634583 .14299011 .25830079 .14299011 .33224488 .14299011 .40519715 .14299011 .4811554 .1579895 .53611758 .1789856 .6150665 .24299622 .63604739 .28399659 .63604739 .33799745 .63604739 .3899994 .6030731 .4079895 .545105 .42399598 .4911499 .4249878 .41918946 .4249878 .33224488 .4249878 .25830079 .4249878 .18434143 .4119873 .12138367 .3919983 .030441285 .32398988 .008468628 .28399659 .008468628Z"/>
<path id="font_3_1" d="M.30599977 .52500918C.269989 .477005 .25498963 .42999269 .24899292 .39300538L.2789917 .4019928C.28599549 .44299317 .3039856 .4900055 .34399415 .5339966 .3659973 .55700686 .37098695 .55799868 .37998963 .55799868 .3899994 .55799868 .40098573 .55900576 .40098573 .5700073 .40098573 .5830078 .3880005 .5830078 .37998963 .5830078 .3639984 .5830078 .33599855 .57899478 .33299256 .57899478 .32998658 .57899478 .2630005 .59295657 .20599365 .65475466 .19898987 .65275576 .18199158 .64775088 .1769867 .64675906 .22200012 .5949402 .28199769 .56900027 .28599549 .56700137 .12599182 .5110016 .055999757 .37199403 .055999757 .25 .055999757 .06498718 .20698548-.08300781 .3880005-.08300781 .57299807-.08300781 .72099307 .067993167 .72099307 .25 .72099307 .45500184 .54499819 .55101016 .5269928 .55101016 .5159912 .55101016 .5149994 .54100039 .5149994 .53900149 .5149994 .5319977 .519989 .52900698 .5279999 .52500918 .66999819 .44700624 .69599917 .31900025 .69599917 .25 .69599917 .07899475 .55599978-.058013917 .3889923-.058013917 .21798706-.058013917 .08099365 .08099365 .08099365 .25 .08099365 .3809967 .16499329 .5039978 .30099488 .54499819L.30599977 .52500918Z"/>
<path id="font_2_2" d="M.33499146 .63612368C.33499146 .6630554 .33299256 .6640625 .30499269 .6640625 .24099732 .6014404 .1499939 .6004486 .10899353 .6004486V.5644531C.1329956 .5644531 .19898987 .5644531 .2539978 .592453V.08203125C.2539978 .04899597 .2539978 .035995485 .1539917 .035995485H.115997318V0C.13398743 .0009918213 .25698854 .0039978029 .2939911 .0039978029 .32499696 .0039978029 .45098878 .0009918213 .47299195 0V.035995485H.43499757C.33499146 .035995485 .33499146 .04899597 .33499146 .08203125V.63612368Z"/>
<path id="font_2_3" d="M.5049896 .18203736H.47099305C.46798707 .16001892 .45799256 .100997928 .44499208 .09098816 .43699647 .084991458 .3600006 .084991458 .34599305 .084991458H.1619873C.2669983 .17803955 .3019867 .20603943 .3619995 .25306703 .43598939 .312088 .5049896 .374115 .5049896 .46914674 .5049896 .5900879 .39898683 .6640625 .2709961 .6640625 .14698792 .6640625 .06298828 .57710269 .06298828 .4851532 .06298828 .43414308 .10598755 .42915345 .115997318 .42915345 .13999939 .42915345 .16899109 .44615174 .16899109 .48214723 .16899109 .5001526 .1619873 .53515627 .10998535 .53515627 .14099121 .6060791 .20899964 .62805178 .2559967 .62805178 .35598756 .62805178 .4079895 .5501404 .4079895 .46914674 .4079895 .38212586 .34599305 .3130951 .31399537 .27708436L.07299805 .038986207C.06298828 .02999878 .06298828 .027999878 .06298828 0H.47499085L.5049896 .18203736Z"/>
</defs>
<use data-text="x" xlink:href="#font_1_1" transform="matrix(9.963197,0,0,-9.9626,1.2171707,9.000999)"/>
<use data-text="0" xlink:href="#font_2_1" transform="matrix(6.9742186,0,0,-6.9738,6.9115145,10.494999)"/>
<use data-text="&#x27f3;" xlink:href="#font_3_1" transform="matrix(9.963197,0,0,-9.9626,14.147942,9.000999)"/>
<use data-text="x" xlink:href="#font_1_1" transform="matrix(9.963197,0,0,-9.9626,57.914575,9.000999)"/>
<use data-text="1" xlink:href="#font_2_2" transform="matrix(6.9742186,0,0,-6.9738,63.608919,10.494999)"/>
<use data-text="&#x27f3;" xlink:href="#font_3_1" transform="matrix(9.963197,0,0,-9.9626,70.845348,9.000999)"/>
<use data-text="x" xlink:href="#font_1_1" transform="matrix(9.963197,0,0,-9.9626,114.61097,9.000999)"/>
<use data-text="2" xlink:href="#font_2_3" transform="matrix(6.9742186,0,0,-6.9738,120.30531,10.494999)"/>
<use data-text="&#x27f3;" xlink:href="#font_3_1" transform="matrix(9.963197,0,0,-9.9626,127.54174,9.000999)"/>
<path transform="matrix(1.00006,0,0,-1,11.557793,63.543)" stroke-width=".3985" stroke-linecap="butt" stroke-miterlimit="10" stroke-linejoin="miter" fill="none" stroke="#000000" d="M13.8596 56.69362H40.84145"/>
<path transform="matrix(1.00006,0,0,-1,52.40169,6.8493807)" d="M1.99252 0-1.19551 1.59401 0 0-1.19551-1.59401"/>
<path transform="matrix(1.00006,0,0,-1,11.557793,63.543)" stroke-width=".3985" stroke-linecap="butt" stroke-miterlimit="10" stroke-linejoin="miter" fill="none" stroke="#000000" d="M70.55322 56.69362H97.53506"/>
<path transform="matrix(1.00006,0,0,-1,109.0987,6.8493807)" d="M1.99252 0-1.19551 1.59401 0 0-1.19551-1.59401"/>
<path transform="matrix(1.00006,0,0,-1,11.557793,63.543)" stroke-width=".3985" stroke-linecap="butt" stroke-miterlimit="10" stroke-linejoin="miter" fill="none" stroke="#000000" d="M127.24684 60.40678C154.62776 67.74432 154.62776 45.6429 128.67375 52.5981"/>
<path transform="matrix(-.96596798,-.25882,-.25883553,.96591,140.23926,10.9449009)" stroke-width=".3985" stroke-linecap="round" stroke-miterlimit="10" stroke-linejoin="miter" fill="none" stroke="#000000" d="M-2.19177-2.39102 .19925 0-2.19177 2.39102"/>
</svg>
