<svg xmlns="http://www.w3.org/2000/svg" xmlns:xlink="http://www.w3.org/1999/xlink" xmlns:inkscape="http://www.inkscape.org/namespaces/inkscape" version="1.1" width="145" height="11" viewBox="0 0 145 11">
<defs>
<path id="font_1_1" d="M.44400025 .24998474C.44400025 .35688783 .35499574 .44381715 .25 .44381715 .14199829 .44381715 .054992677 .35488893 .054992677 .24998474 .054992677 .14407349 .14199829 .056137086 .25 .056137086 .35499574 .056137086 .44400025 .14308167 .44400025 .24998474Z"/>
</defs>
<use data-text="&#x2022;" xlink:href="#font_1_1" transform="matrix(9.962799,0,0,-9.9626,1.2167282,6.9589998)"/>
<use data-text="&#x2022;" xlink:href="#font_1_1" transform="matrix(9.962799,0,0,-9.9626,57.911867,6.9589998)"/>
<use data-text="&#x2022;" xlink:href="#font_1_1" transform="matrix(9.962799,0,0,-9.9626,114.607,6.9589998)"/>
<path transform="matrix(1.00002,0,0,-1,3.707779,61.439)" stroke-width=".3985" stroke-linecap="butt" stroke-miterlimit="10" stroke-linejoin="miter" fill="none" stroke="#000000" d="M6.01048 56.69362H48.69057"/>
<path transform="matrix(1.00002,0,0,-1,52.399328,4.7453806)" d="M1.99252 0-1.19551 1.59401 0 0-1.19551-1.59401"/>
<path transform="matrix(1.00002,0,0,-1,3.707779,61.439)" stroke-width=".3985" stroke-linecap="butt" stroke-miterlimit="10" stroke-linejoin="miter" fill="none" stroke="#000000" d="M62.70412 56.69362H105.38419"/>
<path transform="matrix(1.00002,0,0,-1,109.094089,4.7453806)" d="M1.99252 0-1.19551 1.59401 0 0-1.19551-1.59401"/>
<path transform="matrix(1.00002,0,0,-1,3.707779,61.439)" stroke-width=".3985" stroke-linecap="butt" stroke-miterlimit="10" stroke-linejoin="miter" fill="none" stroke="#000000" d="M119.39774 58.3038C146.77866 65.64095 146.77866 47.74625 120.82463 54.70108"/>
<path transform="matrix(-.9659294,-.25882,-.25882519,.96591,124.53483,6.737919)" stroke-width=".3985" stroke-linecap="round" stroke-miterlimit="10" stroke-linejoin="miter" fill="none" stroke="#000000" d="M-2.19177-2.39102 .19925 0-2.19177 2.39102"/>
</svg>
