<svg xmlns="http://www.w3.org/2000/svg" xmlns:xlink="http://www.w3.org/1999/xlink" xmlns:inkscape="http://www.inkscape.org/namespaces/inkscape" version="1.1" width="136" height="128" viewBox="0 0 136 128">
<defs>
<path id="font_1_1" d="M.11199951 .5946045V.10694885C.11199951 .053985597 .10398865 .035995485 .052993776 .034988405 .041992189 .034988405 .024993897 .033996583 .024993897 .017990113 .024993897 0 .040985109 0 .05899048 0H.21398926C.23199463 0 .24699402 0 .24699402 .017990113 .24699402 .033996583 .23098755 .034988405 .21699524 .034988405 .1619873 .035995485 .1539917 .05697632 .1539917 .108947757V.5666199L.58599856-.0035552979C.59498599-.015563965 .59999087-.018554688 .6069946-.018554688 .6239929-.018554688 .6239929-.0025634766 .6239929 .014419556V.57865908C.6239929 .6345825 .6329956 .6485596 .67900088 .64956668 .68499758 .64956668 .70199587 .6505585 .70199587 .66656497 .70199587 .6845703 .68699648 .6845703 .6689911 .6845703H.522995C.5049896 .6845703 .4889984 .6845703 .4889984 .66656497 .4889984 .64956668 .5069885 .64956668 .5179901 .64956668 .57398989 .6485596 .58200076 .6285858 .58200076 .5756531V.26307679L.27999879 .67056277C.269989 .6845703 .2669983 .6845703 .24398804 .6845703H.069992069C.051986696 .6845703 .036987306 .6845703 .036987306 .66656497 .036987306 .65156558 .051986696 .64956668 .057998659 .64956668 .084991458 .64656069 .10398865 .6305847 .11399841 .61860659 .11199951 .6105957 .11199951 .6085968 .11199951 .5946045M.58898928 .050979616 .1539917 .62557986C.14399719 .63757327 .14399719 .63957217 .1329956 .64956668H.2519989L.58898928 .19488526V.050979616Z"/>
<path id="font_2_1" d="M.36099244 .5739441C.29299928 .5139618 .27398683 .43096925 .27398683 .41996766 .27398683 .41096498 .2809906 .40596009 .28799439 .40596009 .29699708 .40596009 .30599977 .4099579 .30899049 .42095948 .34498597 .552948 .43899537 .58496096 .44198609 .58496096 .44898988 .58595278 .46299745 .58695986 .46299745 .6019592 .46299745 .6189575 .44499208 .6189575 .43699647 .6189575 .4229889 .6189575 .4019928 .6169586 .3880005 .61395266 .3849945 .61395266 .3809967 .6129608 .37799073 .6129608 .375 .6129608 .33999635 .61595156 .2979889 .63694766 .2669983 .6529541 .25099183 .6679535 .23498535 .68196108 .23098755 .68595889 .22799683 .6889496 .22299195 .6889496 .21899414 .6889496 .20098877 .6869507 .20098877 .6729584 .20098877 .6589508 .25 .6189575 .31098939 .59295657 .18598938 .5459595 .07798767 .41596986 .07798767 .25097657 .07798767 .04399109 .24398804-.117996219 .44599916-.117996219 .6499939-.117996219 .81399539 .04699707 .81399539 .24998474 .81399539 .48095704 .6179962 .58395388 .598999 .58395388 .59098818 .58395388 .58200076 .575943 .58200076 .56695559 .58200076 .5569458 .58699038 .5539551 .60398867 .5459595 .71798709 .48495484 .7799988 .3659668 .7799988 .25097657 .7799988 .06500244 .6299896-.083984378 .44599916-.083984378 .2599945-.083984378 .11199951 .06700134 .11199951 .24998474 .11199951 .3829651 .19299317 .526947 .36099244 .5739441Z"/>
<path id="font_3_1" d="M.35499574 .75C.16499329 .61598208 .114990238 .40397645 .114990238 .25097657 .114990238 .10997009 .15699768-.10902405 .35499574-.24902344 .36299134-.24902344 .375-.24902344 .375-.23703003 .375-.23103333 .37199403-.22903443 .36499024-.22203064 .23199463-.10203552 .18299866 .067977908 .18299866 .24996948 .18299866 .519989 .28599549 .65197756 .36799623 .72598269 .37199403 .7299957 .375 .73298647 .375 .73799136 .375 .75 .36299134 .75 .35499574 .75Z"/>
<path id="font_3_2" d="M.08999634 .75C.08299255 .75 .070999149 .75 .070999149 .73799136 .070999149 .73298647 .07398987 .7299957 .07998657 .72299197 .1659851 .64398196 .2619934 .5089874 .2619934 .25097657 .2619934 .04197693 .19699097-.11602783 .08898926-.21403504 .07199097-.23103333 .070999149-.23202515 .070999149-.23703003 .070999149-.24203491 .07398987-.24902344 .083999637-.24902344 .09599304-.24902344 .19099427-.18302918 .25698854-.058029176 .30099488 .024978638 .32998658 .13298035 .32998658 .24996948 .32998658 .39097596 .28799439 .60998538 .08999634 .75Z"/>
<path id="font_3_3" d="M.46299745 .2263794H.7689972C.7819977 .2263794 .80599978 .2263794 .80599978 .25038148 .80599978 .27539063 .7829895 .27539063 .7689972 .27539063H.46299745V.5821533C.46299745 .59513857 .46299745 .6191406 .43899537 .6191406 .4139862 .6191406 .4139862 .5961304 .4139862 .5821533V.27539063H.10699463C.09399414 .27539063 .069992069 .27539063 .069992069 .25138856 .069992069 .2263794 .09298706 .2263794 .10699463 .2263794H.4139862V-.08114624C.4139862-.09416199 .4139862-.11816406 .43798829-.11816406 .46299745-.11816406 .46299745-.09516907 .46299745-.08114624V.2263794Z"/>
<path id="font_3_4" d="M.33499146 .63612368C.33499146 .6630554 .33299256 .6640625 .30499269 .6640625 .24099732 .6014404 .1499939 .6004486 .10899353 .6004486V.5644531C.1329956 .5644531 .19898987 .5644531 .2539978 .592453V.08203125C.2539978 .04899597 .2539978 .035995485 .1539917 .035995485H.115997318V0C.13398743 .0009918213 .25698854 .0039978029 .2939911 .0039978029 .32499696 .0039978029 .45098878 .0009918213 .47299195 0V.035995485H.43499757C.33499146 .035995485 .33499146 .04899597 .33499146 .08203125V.63612368Z"/>
<path id="font_4_1" d="M.7599945 .69506838C.7599945 .69807437 .7579956 .7050781 .7489929 .7050781 .74598696 .7050781 .7449951 .70407107 .73399356 .69306948L.6639862 .61602786C.6549988 .6300354 .60899356 .7050781 .49798585 .7050781 .2749939 .7050781 .049987794 .48391725 .049987794 .25172425 .049987794 .08659363 .16799927-.022460938 .32099916-.022460938 .4079895-.022460938 .48399354 .017532349 .5369873 .063583377 .6299896 .14564514 .6469879 .2367096 .6469879 .23971558 .6469879 .24972534 .6369934 .24972534 .6349945 .24972534 .6289978 .24972534 .6239929 .24772644 .621994 .23971558 .61299136 .21069336 .58999636 .13963318 .5209961 .081588748 .45199586 .025543213 .3889923 .008529663 .33699037 .008529663 .24699402 .008529663 .14099121 .060577394 .14099121 .21670532 .14099121 .27374269 .1619873 .43588258 .2619934 .55296328 .32299806 .62402346 .4169922 .67407229 .5059967 .67407229 .60798647 .67407229 .6669922 .5970001 .6669922 .48091126 .6669922 .44088746 .6639862 .43988038 .6639862 .4298706 .6639862 .41986085 .6749878 .41986085 .67900088 .41986085 .69200137 .41986085 .69200137 .42185975 .69699099 .43988038L.7599945 .69506838Z"/>
<path id="font_5_4" d="M.58499148 .36265565C.60198977 .36265565 .61099246 .36265565 .621994 .37065126 .6349945 .38165284 .6380005 .3956604 .6380005 .40264894 .6380005 .43066407 .6119995 .43066407 .59498599 .43066407H.33898927C.1789856 .43066407 .05899048 .2728119 .05899048 .15299988 .05899048 .060150148 .12799073-.009765625 .22999573-.009765625 .35598756-.009765625 .5 .1040802 .5 .25683595 .5 .2728119 .5 .31773377 .46998597 .36265565H.58499148M.23098755 .018234253C.1769867 .018234253 .13198853 .0541687 .13198853 .12504578 .13198853 .15499878 .1499939 .36265565 .32199098 .36265565 .37298585 .36265565 .4249878 .34368897 .4249878 .267807 .4249878 .24984741 .41600038 .1599884 .36698915 .09310913 .32499696 .03819275 .2689972 .018234253 .23098755 .018234253Z"/>
<path id="font_3_5" d="M.5049896 .18203736H.47099305C.46798707 .16001892 .45799256 .100997928 .44499208 .09098816 .43699647 .084991458 .3600006 .084991458 .34599305 .084991458H.1619873C.2669983 .17803955 .3019867 .20603943 .3619995 .25306703 .43598939 .312088 .5049896 .374115 .5049896 .46914674 .5049896 .5900879 .39898683 .6640625 .2709961 .6640625 .14698792 .6640625 .06298828 .57710269 .06298828 .4851532 .06298828 .43414308 .10598755 .42915345 .115997318 .42915345 .13999939 .42915345 .16899109 .44615174 .16899109 .48214723 .16899109 .5001526 .1619873 .53515627 .10998535 .53515627 .14099121 .6060791 .20899964 .62805178 .2559967 .62805178 .35598756 .62805178 .4079895 .5501404 .4079895 .46914674 .4079895 .38212586 .34599305 .3130951 .31399537 .27708436L.07299805 .038986207C.06298828 .02999878 .06298828 .027999878 .06298828 0H.47499085L.5049896 .18203736Z"/>
<path id="font_3_7" d="M.5289917 .1640625V.20005799H.41799928V.64582827C.41799928 .66682437 .41799928 .6738281 .3959961 .6738281 .38398744 .6738281 .37998963 .6738281 .36999513 .65982058L.038986207 .20005799V.1640625H.33299256V.08201599C.33299256 .04800415 .33299256 .035995485 .2519989 .035995485H.22499085V0C.2749939 .0019989014 .33898927 .0039978029 .375 .0039978029 .4119873 .0039978029 .47599793 .0019989014 .526001 0V.035995485H.49899293C.41799928 .035995485 .41799928 .04800415 .41799928 .08201599V.1640625H.5289917M.33999635 .5658722V.20005799H.07598877L.33999635 .5658722Z"/>
<path id="font_5_1" d="M.5469971 .14128113C.6389923 .23632813 .6759949 .36938478 .6759949 .38038636 .6759949 .39338685 .6639862 .39338685 .6589966 .39338685 .644989 .39338685 .644989 .39038087 .6380005 .3683777 .6199951 .3023529 .58699038 .24131775 .54499819 .18730164 .5439911 .20230103 .5419922 .2693329 .5399933 .27833558 .5249939 .37738038 .44999696 .44140626 .34999085 .44140626 .20298767 .44140626 .06199646 .3043518 .06199646 .16429138 .06199646 .072250369 .1289978-.009765625 .24499512-.009765625 .33699037-.009765625 .41999818 .032226564 .47599793 .07525635 .49899293 .0022277833 .5499878-.009765625 .5799866-.009765625 .6380005-.009765625 .673996 .039230348 .673996 .0602417 .673996 .072250369 .6619873 .072250369 .6569977 .072250369 .6439972 .072250369 .6419983 .06825256 .6399994 .0622406 .6259918 .024230957 .59498599 .018234253 .58299258 .018234253 .56900027 .018234253 .5519867 .018234253 .5469971 .14128113M.46899415 .10726929C.37098695 .027236939 .28599549 .018234253 .24798584 .018234253 .18199158 .018234253 .14498902 .0622406 .14498902 .12927246 .14498902 .15829468 .15899658 .26733399 .21099854 .33636476 .25698854 .39639283 .31399537 .4133911 .34899903 .4133911 .42900086 .4133911 .45199586 .33636476 .45999146 .27433778 .46598817 .23132324 .46398927 .16029358 .46899415 .10726929Z"/>
<path id="font_3_8" d="M.35499574 .36123658C.43299867 .3992157 .48298646 .44618226 .48298646 .5151367 .48298646 .6120758 .38198854 .6640625 .2849884 .6640625 .1749878 .6640625 .084991458 .5920868 .084991458 .4971466 .084991458 .45018006 .10699463 .41619874 .125 .39620973 .14299011 .37522889 .1499939 .37123109 .20899964 .33624269 .15299988 .31227113 .053985597 .25830079 .053985597 .15336609 .053985597 .042434694 .16899109-.01953125 .2829895-.01953125 .4099884-.01953125 .5139923 .061431886 .5139923 .1693573 .5139923 .23532105 .47499085 .29127503 .4169922 .32525636 .4039917 .33325196 .36898805 .35324098 .35499574 .36123658M.19198609 .45617677C.1659851 .4711609 .13798523 .49813844 .13798523 .53512576 .13798523 .5980835 .21099854 .63505557 .2829895 .63505557 .36099244 .63505557 .42999269 .5860901 .42999269 .5151367 .42999269 .42619325 .32598878 .3812256 .32398988 .3812256 .32199098 .3812256 .31999208 .3822174 .31298829 .3862152L.19198609 .45617677M.24099732 .31726075 .37799073 .23831177C.4039917 .22332764 .45399476 .19334412 .45399476 .13438416 .45399476 .059432985 .37098695 .012466431 .2849884 .012466431 .19299317 .012466431 .11399841 .07142639 .11399841 .15336609 .11399841 .22732544 .16899109 .2842865 .24099732 .31726075Z"/>
<path id="font_4_2" d="M.30299378 .3157959H.47299195C.61499026 .3157959 .7539978 .41973878 .7539978 .53167727 .7539978 .6086273 .6879883 .6826172 .5569916 .6826172H.23298645C.21398926 .6826172 .20298767 .6826172 .20298767 .66360476 .20298767 .6516113 .21199036 .6516113 .23199463 .6516113 .24499512 .6516113 .2630005 .65060427 .2749939 .6496124 .29100038 .6476135 .29699708 .64460757 .29699708 .6336212 .29699708 .6296234 .29599 .62661746 .29299928 .614624L.15899658 .07795715C.14898682 .038986207 .14698792 .0309906 .067993167 .0309906 .050994874 .0309906 .039993287 .0309906 .039993287 .011993408 .039993287 0 .051986696 0 .054992677 0 .08299255 0 .1539917 .0029907227 .18199158 .0029907227 .20298767 .0029907227 .22499085 .0019989014 .24598694 .0019989014 .2679901 .0019989014 .2899933 0 .31098939 0 .31799317 0 .33099366 0 .33099366 .019989014 .33099366 .0309906 .32199098 .0309906 .30299378 .0309906 .2659912 .0309906 .23799134 .0309906 .23799134 .048980714 .23799134 .054977418 .23999024 .05996704 .24099732 .065963748L.30299378 .3157959M.375 .6136322C.38398744 .64860537 .38598634 .6516113 .42900086 .6516113H.5249939C.60798647 .6516113 .6609955 .62461856 .6609955 .55566409 .6609955 .5166931 .6409912 .43074037 .60198977 .39476014 .5519867 .34977723 .49198915 .34179688 .44799806 .34179688H.30699159L.375 .6136322Z"/>
<path id="font_5_3" d="M.44699098 .1402893C.44198609 .19831848 .4079895 .44140626 .24499512 .44140626 .18598938 .44140626 .1349945 .4093933 .10699463 .38339234 .04598999 .3283844 .033996583 .26435853 .033996583 .26135255 .033996583 .24934387 .04699707 .24934387 .049987794 .24934387 .06298828 .24934387 .06399536 .25134278 .068984989 .26635743 .08999634 .32537843 .1639862 .36140443 .23098755 .36140443 .3919983 .36140443 .41299439 .20031739 .41299439 .0982666 .41299439 .04824829 .4099884 .037231447 .4059906 .026229859 .3829956-.048797609 .35299684-.15985108 .35299684-.18988037 .35299684-.20088196 .35699464-.21386719 .36999513-.21386719 .3769989-.21386719 .3880005-.21386719 .4039917-.16186524 .41600038-.12283325 .43499757-.048797609 .44299317 .023239136 .44699098 .058242799 .5029907 .1933136 .5239868 .24133301 .5379944 .27235414 .5589905 .3193817 .60598757 .4064026 .60899356 .4113922 .61099246 .41540528 .61099246 .41940309 .61099246 .43139649 .59799197 .43139649 .59498599 .43139649 .59199526 .43139649 .58299258 .43139649 .5799866 .4263916 .56799319 .4053955 .49198915 .26234437 .44699098 .1402893Z"/>
<path id="font_5_2" d="M.6329956 .5659027C.6329956 .65405276 .5569916 .7050934 .46899415 .7050934 .33198548 .7050934 .23098755 .5488739 .20599365 .44769288L.04899597-.18234253C.04699707-.18934632 .056991579-.19433594 .06298828-.19433594 .07199097-.19433594 .07998657-.19334412 .08198547-.18734741L.14898682 .08015442C.16999817 .034240724 .21798706-.008728027 .29899598-.008728027 .43899537-.008728027 .5970001 .09213257 .5970001 .24482727 .5970001 .30371095 .56999209 .36358644 .5189972 .3966217 .56799319 .42765809 .6329956 .48475648 .6329956 .5659027M.43499757 .39762879C.41999818 .39460755 .41299439 .39059449 .38398744 .39059449 .36799623 .39059449 .34399415 .39160157 .33699037 .39561463 .34700013 .4016571 .375 .40264894 .38398744 .40264894 .39898683 .40264894 .42099 .4016571 .43499757 .39762879M.5669861 .58392336C.5669861 .530838 .54100039 .45269776 .47898866 .41766358 .45999146 .42366029 .44099427 .43066407 .3849945 .43066407 .34999085 .43066407 .2999878 .4286499 .2999878 .39259339 .2999878 .3675995 .33099366 .36358644 .38198854 .36358644 .41600038 .36358644 .44599916 .3685913 .47698976 .377594 .5069885 .35661317 .522995 .3156891 .522995 .2717743 .522995 .12705994 .42399598 .01927185 .3019867 .01927185 .22499085 .01927185 .16999817 .06617737 .16999817 .14501953 .16999817 .15499878 .17098999 .16497803 .17298889 .17396546L.23899842 .43966676C.2630005 .5348358 .35099793 .6770935 .46699525 .6770935 .526001 .6770935 .5669861 .6450348 .5669861 .58392336Z"/>
<path id="font_3_6" d="M.272995 .33428956C.35099793 .33428956 .40699769 .2803192 .40699769 .1733551 .40699769 .04940796 .33499146 .012466431 .2769928 .012466431 .23699951 .012466431 .14898682 .0234375 .10699463 .082351688 .1539917 .084350589 .16499329 .11735535 .16499329 .13835144 .16499329 .17034912 .14099121 .19335938 .10998535 .19335938 .08198547 .19335938 .053985597 .17634583 .053985597 .13534546 .053985597 .041412355 .1579895-.01953125 .2789917-.01953125 .41799928-.01953125 .5139923 .07336426 .5139923 .1733551 .5139923 .2513275 .44999696 .32929994 .33999635 .35229493 .44499208 .39024354 .48298646 .4650879 .48298646 .5260773 .48298646 .60505679 .3919983 .6640625 .2809906 .6640625 .16999817 .6640625 .084991458 .61006167 .084991458 .5300751 .084991458 .49606324 .10699463 .47706605 .13699341 .47706605 .16799927 .47706605 .18798828 .5000763 .18798828 .5280762 .18798828 .5570679 .16799927 .57806399 .13699341 .5800781 .17199707 .62405398 .24099732 .63505557 .27799989 .63505557 .32299806 .63505557 .38598634 .6130676 .38598634 .5260773 .38598634 .48406983 .37199403 .43814088 .34599305 .4072113 .31298829 .36927796 .2849884 .3672943 .23498535 .36428834 .20999146 .3623047 .20799256 .3623047 .20298767 .3612976 .20098877 .3612976 .19299317 .3592987 .19299317 .34829713 .19299317 .33428956 .20199585 .33428956 .21899414 .33428956H.272995Z"/>
<path id="font_4_4" d="M.08799744 .059265138C.084991458 .044265748 .07899475 .021255494 .07899475 .01625061 .07899475-.0017547608 .09298706-.0107421879 .10798645-.0107421879 .11999512-.0107421879 .13798523-.002746582 .14498902 .01725769 .1459961 .019256592 .1579895 .06626892 .1639862 .091278079L.18598938 .18130493C.19198609 .2033081 .19799805 .22531128 .20298767 .24832154 .20698548 .26531983 .21499634 .29434205 .21598816 .29833985 .23098755 .3293457 .28399659 .42037965 .3789978 .42037965 .42399598 .42037965 .43299867 .38336183 .43299867 .35035707 .43299867 .3253479 .42599488 .29733277 .41799928 .26733399L.3899994 .1512909 .36999513 .07527161C.3659973 .055267335 .35699464 .021255494 .35699464 .01625061 .35699464-.0017547608 .37098695-.0107421879 .38598634-.0107421879 .4169922-.0107421879 .4229889 .014251709 .43099977 .04626465 .44499208 .10227966 .48199464 .24832154 .4909973 .28733827 .49398805 .30033876 .5469971 .42037965 .6559906 .42037965 .69898989 .42037965 .70999148 .3863678 .70999148 .35035707 .70999148 .29333497 .66799929 .17930603 .647995 .12628174 .6389923 .10227966 .6349945 .091278079 .6349945 .0712738 .6349945 .024261475 .66999819-.0107421879 .71699526-.0107421879 .8109894-.0107421879 .84799197 .13528443 .84799197 .14329529 .84799197 .1532898 .83898928 .1532898 .83599856 .1532898 .82598879 .1532898 .82598879 .15029907 .82099917 .13528443 .80599978 .08227539 .7739868 .011245728 .71899417 .011245728 .70199587 .011245728 .69499209 .021255494 .69499209 .044265748 .69499209 .0692749 .70399478 .09327698 .71299746 .11528015 .7319946 .16729737 .7739868 .27833558 .7739868 .3353424 .7739868 .4003601 .73399356 .4423828 .6589966 .4423828 .58399966 .4423828 .5329895 .3983612 .49598695 .34535218 .49499513 .35835267 .49198915 .3923645 .46398927 .41636659 .43899537 .43737794 .40699769 .4423828 .38198854 .4423828 .2919922 .4423828 .24299622 .37835694 .22599793 .35534669 .22099304 .41236878 .1789856 .4423828 .13398743 .4423828 .08799744 .4423828 .068984989 .4033661 .05999756 .38536073 .041992189 .35035707 .0289917 .29133607 .0289917 .28833009 .0289917 .27833558 .038986207 .27833558 .040985109 .27833558 .050994874 .27833558 .051986696 .2793274 .057998659 .30133058 .07499695 .37236024 .09498596 .42037965 .1309967 .42037965 .14698792 .42037965 .1619873 .41236878 .1619873 .37435914 .1619873 .35334779 .15899658 .3423462 .1459961 .29032899L.08799744 .059265138Z"/>
<path id="font_4_5" d="M.46899415 .2733307C.46899415 .3773651 .39898683 .4423828 .30899049 .4423828 .1749878 .4423828 .040985109 .30033876 .040985109 .15829468 .040985109 .059265138 .10798645-.0107421879 .20098877-.0107421879 .33399964-.0107421879 .46899415 .12728882 .46899415 .2733307M.20199585 .011245728C.15899658 .011245728 .114990238 .042266847 .114990238 .120285037 .114990238 .16929627 .14099121 .2773285 .17298889 .32833863 .22299195 .405365 .27999879 .42037965 .30799867 .42037965 .3659973 .42037965 .3959961 .37236024 .3959961 .3123474 .3959961 .2733307 .37599183 .16830445 .33799745 .103271488 .30299378 .04525757 .24798584 .011245728 .20199585 .011245728Z"/>
<path id="font_4_3" d="M.5159912 .68333438C.5159912 .6843262 .5159912 .69433596 .5029907 .69433596 .48799134 .69433596 .3929901 .68533328 .37599183 .68333438 .36799623 .6823273 .3619995 .6773224 .3619995 .6643219 .3619995 .6523285 .37098695 .6523285 .38598634 .6523285 .43399049 .6523285 .43598939 .6453247 .43598939 .6353302L.43299867 .6153412 .37298585 .37835694C.35499574 .41537477 .32598878 .4423828 .2809906 .4423828 .1639862 .4423828 .039993287 .29533387 .039993287 .14929199 .039993287 .055267335 .09498596-.0107421879 .17298889-.0107421879 .19299317-.0107421879 .24299622-.0067443849 .30299378 .06427002 .31098939 .022247315 .34599305-.0107421879 .3939972-.0107421879 .42900086-.0107421879 .45199586 .012252808 .46798707 .044265748 .4850006 .08027649 .49798585 .14129639 .49798585 .14329529 .49798585 .1532898 .4889984 .1532898 .48599244 .1532898 .47599793 .1532898 .47499085 .14929199 .47200013 .13528443 .45498658 .07026672 .43699647 .011245728 .3959961 .011245728 .36898805 .011245728 .3659973 .037261964 .3659973 .057266237 .3659973 .08126831 .36799623 .088272098 .37199403 .105285648L.5159912 .68333438M.30799867 .119277957C.30299378 .10127258 .30299378 .09927368 .28799439 .08227539 .24398804 .027252198 .20298767 .011245728 .1749878 .011245728 .125 .011245728 .11099243 .06626892 .11099243 .105285648 .11099243 .1552887 .14299011 .27833558 .1659851 .32434083 .19699097 .38336183 .24198914 .42037965 .28199769 .42037965 .34700013 .42037965 .36099244 .3383484 .36099244 .33235169 .36099244 .32633973 .35899354 .32034303 .35798646 .31533814L.30799867 .119277957Z"/>
</defs>
<use data-text="N" xlink:href="#font_1_1" transform="matrix(9.963397,0,0,-9.962899,53.03505,10.765938)"/>
<use data-text="&#x27f3;" xlink:href="#font_2_1" transform="matrix(6.974358,0,0,-6.9740097,60.230638,7.150833)"/>
<use data-text="(" xlink:href="#font_3_1" transform="matrix(6.974358,0,0,-6.9740097,66.45813,7.150833)"/>
<use data-text=")" xlink:href="#font_3_2" transform="matrix(6.974358,0,0,-6.9740097,69.568698,7.150833)"/>
<use data-text="+" xlink:href="#font_3_3" transform="matrix(6.974358,0,0,-6.9740097,72.679279,7.150833)"/>
<use data-text="1" xlink:href="#font_3_4" transform="matrix(6.974358,0,0,-6.9740097,78.79579,7.150833)"/>
<use data-text="C" xlink:href="#font_4_1" transform="matrix(9.963397,0,0,-9.962899,58.439485,65.987598)"/>
<use data-text="&#x27f3;" xlink:href="#font_2_1" transform="matrix(6.974358,0,0,-6.9740097,66.27312,61.694467)"/>
<use data-text="&#x03c3;" xlink:href="#font_5_4" transform="matrix(6.974358,0,0,-6.9740097,72.500629,61.694467)"/>
<use data-text="2" xlink:href="#font_3_5" transform="matrix(6.974358,0,0,-6.9740097,65.56006,68.64468)"/>
<use data-text="4" xlink:href="#font_3_7" transform="matrix(6.974358,0,0,-6.9740097,69.52847,68.64468)"/>
<use data-text="C" xlink:href="#font_4_1" transform="matrix(9.963397,0,0,-9.962899,1.5859375,122.6833)"/>
<use data-text="&#x27f3;" xlink:href="#font_2_1" transform="matrix(6.974358,0,0,-6.9740097,9.419571,118.39017)"/>
<use data-text="&#x03b1;" xlink:href="#font_5_1" transform="matrix(6.974358,0,0,-6.9740097,15.647079,118.39017)"/>
<use data-text="8" xlink:href="#font_3_8" transform="matrix(6.974358,0,0,-6.9740097,8.706512,125.34038)"/>
<use data-text="P" xlink:href="#font_4_2" transform="matrix(9.963397,0,0,-9.962899,58.59349,123.672328)"/>
<use data-text="&#x27f3;" xlink:href="#font_2_1" transform="matrix(6.974358,0,0,-6.9740097,66.374118,120.05722)"/>
<use data-text="&#x03b3;" xlink:href="#font_5_3" transform="matrix(6.974358,0,0,-6.9740097,72.6006,120.05722)"/>
<use data-text="C" xlink:href="#font_4_1" transform="matrix(9.963397,0,0,-9.962899,115.13402,123.220317)"/>
<use data-text="&#x27f3;" xlink:href="#font_2_1" transform="matrix(6.974358,0,0,-6.9740097,122.96765,118.43317)"/>
<use data-text="&#x03b2;" xlink:href="#font_5_2" transform="matrix(6.974358,0,0,-6.9740097,129.19516,118.43317)"/>
<use data-text="3" xlink:href="#font_3_6" transform="matrix(6.974358,0,0,-6.9740097,122.25459,125.877399)"/>
<path transform="matrix(1.00008,0,0,-1.00003,68.15326,119.73321)" stroke-width=".3985" stroke-linecap="butt" stroke-miterlimit="10" stroke-linejoin="miter" fill="none" stroke="#000000" d="M0 105.44449V67.81248"/>
<path transform="matrix(0,1.00003,1.00008,0,68.15326,51.918695)" d="M1.99252 0-1.19551 1.59401 0 0-1.19551-1.59401"/>
<use data-text="m" xlink:href="#font_4_4" transform="matrix(9.963397,0,0,-9.962899,71.67354,36.810724)"/>
<use data-text="o" xlink:href="#font_4_5" transform="matrix(9.963397,0,0,-9.962899,80.4214,36.810724)"/>
<use data-text="d" xlink:href="#font_4_3" transform="matrix(9.963397,0,0,-9.962899,85.24368,36.810724)"/>
<use data-text="2" xlink:href="#font_3_5" transform="matrix(6.974358,0,0,-6.9740097,90.43703,38.30577)"/>
<use data-text="4" xlink:href="#font_3_7" transform="matrix(6.974358,0,0,-6.9740097,94.40544,38.30577)"/>
<path transform="matrix(1.00008,0,0,-1.00003,68.15326,119.73321)" stroke-width=".3985" stroke-linecap="butt" stroke-miterlimit="10" stroke-linejoin="miter" fill="none" stroke="#000000" d="M0 47.56726V9.45183"/>
<path transform="matrix(0,1.00003,1.00008,0,68.15326,110.2811)" d="M1.99252 0-1.19551 1.59401 0 0-1.19551-1.59401"/>
<path transform="matrix(1.00008,0,0,-1.00003,68.15326,119.73321)" stroke-width=".3985" stroke-linecap="butt" stroke-miterlimit="10" stroke-linejoin="miter" fill="none" stroke="#000000" d="M-13.23232 53.1485C-35.67189 46.27782-48.9789 31.99493-53.80116 11.06795"/>
<path transform="matrix(-.22454795,.97446927,.97451797,.22453675,14.347805,108.664928)" d="M1.99252 0-1.19551 1.59401 0 0-1.19551-1.59401"/>
<use data-text="m" xlink:href="#font_4_4" transform="matrix(9.963397,0,0,-9.962899,1.2179108,85.307178)"/>
<use data-text="o" xlink:href="#font_4_5" transform="matrix(9.963397,0,0,-9.962899,9.965775,85.307178)"/>
<use data-text="d" xlink:href="#font_4_3" transform="matrix(9.963397,0,0,-9.962899,14.788055,85.307178)"/>
<use data-text="8" xlink:href="#font_3_8" transform="matrix(6.974358,0,0,-6.9740097,19.9814,86.80222)"/>
<path transform="matrix(1.00008,0,0,-1.00003,68.15326,119.73321)" stroke-width=".3985" stroke-linecap="butt" stroke-miterlimit="10" stroke-linejoin="miter" fill="none" stroke="#000000" d="M13.23232 53.1485C35.54553 46.42252 48.77284 32.35028 53.64883 11.60306"/>
<path transform="matrix(.2287783,.97345927,.9735078,-.22876688,121.80638,108.1298)" d="M1.99252 0-1.19551 1.59401 0 0-1.19551-1.59401"/>
<use data-text="m" xlink:href="#font_4_4" transform="matrix(9.963397,0,0,-9.962899,111.71274,85.05316)"/>
<use data-text="o" xlink:href="#font_4_5" transform="matrix(9.963397,0,0,-9.962899,120.4606,85.05316)"/>
<use data-text="d" xlink:href="#font_4_3" transform="matrix(9.963397,0,0,-9.962899,125.28288,85.05316)"/>
<use data-text="3" xlink:href="#font_3_6" transform="matrix(6.974358,0,0,-6.9740097,130.47623,86.54822)"/>
<path transform="matrix(1.00008,0,0,-1.00003,68.15326,119.73321)" stroke-width=".3985" stroke-linecap="butt" stroke-miterlimit="10" stroke-linejoin="miter" fill="none" stroke="#000000" d="M-13.07915 0H-41.31253"/>
<path transform="matrix(-1.00008,-0,0,1.00003,26.837426,119.73321)" d="M1.99252 0-1.19551 1.59401 0 0-1.19551-1.59401"/>
<path transform="matrix(1.00008,0,0,-1.00003,68.15326,119.73321)" stroke-width=".3985" stroke-linecap="butt" stroke-miterlimit="10" stroke-linejoin="miter" fill="none" stroke="#000000" d="M13.07915 0H41.46426"/>
<path transform="matrix(1.00008,0,0,-1.00003,109.620838,119.73321)" d="M1.99252 0-1.19551 1.59401 0 0-1.19551-1.59401"/>
</svg>
