<svg xmlns="http://www.w3.org/2000/svg" xmlns:xlink="http://www.w3.org/1999/xlink" xmlns:inkscape="http://www.inkscape.org/namespaces/inkscape" version="1.1" width="122" height="223" viewBox="0 0 122 223">
<defs>
<path id="font_1_1" d="M.48599244 .38136292C.48999024 .39537049 .48999024 .39736939 .48999024 .40437318 .48999024 .42237855 .47599793 .43138124 .46099855 .43138124 .45098878 .43138124 .43499757 .42536927 .42599488 .41036988 .42399598 .405365 .41600038 .37435914 .4119873 .35635377 .40499879 .33035279 .397995 .30334474 .3919983 .27633668L.34700013 .09628296C.34298707 .08126831 .2999878 .011245728 .23399353 .011245728 .18299866 .011245728 .17199707 .055267335 .17199707 .0922699 .17199707 .1382904 .18899536 .20030213 .22299195 .28833009 .23899842 .3293457 .24299622 .3403473 .24299622 .36035157 .24299622 .405365 .21099854 .4423828 .16099549 .4423828 .06599426 .4423828 .0289917 .29733277 .0289917 .28833009 .0289917 .27833558 .038986207 .27833558 .040985109 .27833558 .050994874 .27833558 .051986696 .28033448 .056991579 .29634095 .083999637 .3903656 .12399292 .42037965 .1579895 .42037965 .1659851 .42037965 .18299866 .42037965 .18299866 .3883667 .18299866 .36335755 .17298889 .3373413 .1659851 .31834413 .12599182 .21231079 .10798645 .1552887 .10798645 .10827637 .10798645 .019256592 .17098999-.0107421879 .22999573-.0107421879 .2689972-.0107421879 .30299378 .0062561037 .33099366 .03425598 .31799317-.017745972 .30599977-.06674194 .2659912-.11973572 .23999024-.15385437 .20199585-.18309021 .1559906-.18309021 .14199829-.18309021 .09700012-.18005371 .07998657-.14074707 .09599304-.14074707 .10899353-.14074707 .12298584-.1287384 .1329956-.11973572 .14299011-.10673523 .14299011-.08773804 .14299011-.056747438 .115997318-.052734376 .10598755-.052734376 .08299255-.052734376 .049987794-.068740848 .049987794-.11773682 .049987794-.16796875 .09399414-.20507813 .1559906-.20507813 .25898744-.20507813 .3619995-.11373901 .3899994-.00074768069L.48599244 .38136292Z"/>
<path id="font_2_1" d="M.44400025 .24998474C.44400025 .35688783 .35499574 .44381715 .25 .44381715 .14199829 .44381715 .054992677 .35488893 .054992677 .24998474 .054992677 .14407349 .14199829 .056137086 .25 .056137086 .35499574 .056137086 .44400025 .14308167 .44400025 .24998474Z"/>
</defs>
<use data-text="y" xlink:href="#font_1_1" transform="matrix(9.9626,0,0,-9.963098,115.951999,66.93869)"/>
<use data-text="&#x2022;" xlink:href="#font_2_1" transform="matrix(9.9626,0,0,-9.963098,112.662998,146.78568)"/>
<use data-text="&#x2022;" xlink:href="#font_2_1" transform="matrix(9.9626,0,0,-9.963098,15.959,129.73383)"/>
<use data-text="&#x2022;" xlink:href="#font_2_1" transform="matrix(9.9626,0,0,-9.963098,49.544,222.01343)"/>
<use data-text="&#x2022;" xlink:href="#font_2_1" transform="matrix(9.9626,0,0,-9.963098,39.698999,54.506059)"/>
<use data-text="&#x2022;" xlink:href="#font_2_1" transform="matrix(9.9626,0,0,-9.963098,1.2160034,6.3446657)"/>
<path transform="matrix(1,0,0,-1.00005,61.878999,163.96353)" stroke-width=".3985" stroke-linecap="butt" stroke-dasharray="2.98883,2.98883" stroke-miterlimit="10" stroke-linejoin="miter" fill="none" stroke="#000000" d="M56.40605 91.56334 53.65613 28.1853"/>
<path transform="matrix(-.04333,.9990599,.99901,.043332165,115.60957,134.06026)" d="M4.21463 0 .64343 1.34572 1.8178 0 .64343-1.34572Z"/>
<path transform="matrix(-.04333,.9990599,.99901,.043332165,115.60957,134.06026)" stroke-width=".3985" stroke-linecap="butt" stroke-miterlimit="10" stroke-linejoin="miter" fill="none" stroke="#000000" d="M4.21463 0 .64343 1.34572 1.8178 0 .64343-1.34572Z"/>
<path transform="matrix(1,0,0,-1.00005,61.878999,163.96353)" stroke-width=".3985" stroke-linecap="butt" stroke-miterlimit="10" stroke-linejoin="miter" fill="none" stroke="#000000" d="M47.26428 24.42827C21.38744 45.7729-5.99544 50.36554-34.5488 39.7"/>
<path transform="matrix(-.93674,.34991748,.3499,.9367868,28.939698,123.66032)" d="M4.21463 0 .64343 1.34572 1.8178 0 .64343-1.34572Z"/>
<path transform="matrix(-.93674,.34991748,.3499,.9367868,28.939698,123.66032)" stroke-width=".3985" stroke-linecap="butt" stroke-miterlimit="10" stroke-linejoin="miter" fill="none" stroke="#000000" d="M4.21463 0 .64343 1.34572 1.8178 0 .64343-1.34572Z"/>
<path transform="matrix(1,0,0,-1.00005,61.878999,163.96353)" stroke-width=".3985" stroke-linecap="butt" stroke-miterlimit="10" stroke-linejoin="miter" fill="none" stroke="#000000" d="M-44.44016 30.70842C-50.69154-2.46004-41.454-28.79695-18.17868-48.79832"/>
<path transform="matrix(.75839,.65175256,.65172,-.7584279,42.397249,211.64446)" d="M4.21463 0 .64343 1.34572 1.8178 0 .64343-1.34572Z"/>
<path transform="matrix(.75839,.65175256,.65172,-.7584279,42.397249,211.64446)" stroke-width=".3985" stroke-linecap="butt" stroke-miterlimit="10" stroke-linejoin="miter" fill="none" stroke="#000000" d="M4.21463 0 .64343 1.34572 1.8178 0 .64343-1.34572Z"/>
<path transform="matrix(1,0,0,-1.00005,61.878999,163.96353)" stroke-width=".3985" stroke-linecap="butt" stroke-miterlimit="10" stroke-linejoin="miter" fill="none" stroke="#000000" d="M-3.83403-53.64705C28.30139-41.83122 46.42914-20.08107 51.7421 10.63788"/>
<path transform="matrix(.17038,-.98539927,-.98535,-.1703885,113.328357,155.01824)" d="M4.21463 0 .64343 1.34572 1.8178 0 .64343-1.34572Z"/>
<path transform="matrix(.17038,-.98539927,-.98535,-.1703885,113.328357,155.01824)" stroke-width=".3985" stroke-linecap="butt" stroke-miterlimit="10" stroke-linejoin="miter" fill="none" stroke="#000000" d="M4.21463 0 .64343 1.34572 1.8178 0 .64343-1.34572Z"/>
<path transform="matrix(1,0,0,-1.00005,61.878999,163.96353)" stroke-width=".3985" stroke-linecap="butt" stroke-miterlimit="10" stroke-linejoin="miter" fill="none" stroke="#929292" d="M-53.59293 154.09075-26.18098 119.79277"/>
<path transform="matrix(.62428,.781149,.78111,-.62431117,34.625368,42.82261)" d="M4.21463 0 .64343 1.34572 1.8178 0 .64343-1.34572Z" fill="#929292"/>
<path transform="matrix(.62428,.781149,.78111,-.62431117,34.625368,42.82261)" stroke-width=".3985" stroke-linecap="butt" stroke-miterlimit="10" stroke-linejoin="miter" fill="none" stroke="#929292" d="M4.21463 0 .64343 1.34572 1.8178 0 .64343-1.34572Z"/>
<path transform="matrix(1,0,0,-1.00005,61.878999,163.96353)" stroke-width=".3985" stroke-linecap="butt" stroke-miterlimit="10" stroke-linejoin="miter" fill="none" stroke="#929292" d="M-21.49759 105.93199-40.69978 45.09758"/>
<path transform="matrix(-.30098,.95361766,.95357,.30099503,21.69637,117.22522)" d="M4.21463 0 .64343 1.34572 1.8178 0 .64343-1.34572Z" fill="#929292"/>
<path transform="matrix(-.30098,.95361766,.95357,.30099503,21.69637,117.22522)" stroke-width=".3985" stroke-linecap="butt" stroke-miterlimit="10" stroke-linejoin="miter" fill="none" stroke="#929292" d="M4.21463 0 .64343 1.34572 1.8178 0 .64343-1.34572Z"/>
</svg>
