<svg xmlns="http://www.w3.org/2000/svg" xmlns:xlink="http://www.w3.org/1999/xlink" xmlns:inkscape="http://www.inkscape.org/namespaces/inkscape" version="1.1" width="89" height="65" viewBox="0 0 89 65">
<defs>
<path id="font_1_2" d="M.4850006 .41075135 .40098573 .6096344C.397995 .61763 .3959961 .6216278 .3959961 .6226196 .3959961 .62861636 .41299439 .6476135 .45498658 .6516113 .46499635 .65260317 .47499085 .6536102 .47499085 .6706085 .47499085 .6826172 .46299745 .6826172 .45999146 .6826172 .4189911 .6826172 .37599183 .6796112 .33399964 .6796112 .30899049 .6796112 .24699402 .6826172 .22200012 .6826172 .21598816 .6826172 .20399475 .6826172 .20399475 .6626129 .20399475 .6516113 .21398926 .6516113 .22698975 .6516113 .2869873 .6516113 .29299928 .6416168 .3019867 .6196289L.41999818 .34080506 .20899964 .11393738 .19599915 .10295105C.14698792 .049987794 .099990848 .033996583 .04899597 .0309906 .035995485 .02999878 .026992798 .02999878 .026992798 .010986328 .026992798 .009994507 .026992798 0 .039993287 0 .069992069 0 .102996829 .0029907227 .13398743 .0029907227 .17098999 .0029907227 .20999146 0 .24598694 0 .2519989 0 .2639923 0 .2639923 .019989014 .2639923 .02999878 .2539978 .0309906 .2519989 .0309906 .24299622 .03199768 .21199036 .033996583 .21199036 .061965944 .21199036 .07795715 .22698975 .093948367 .23899842 .10694885L.34098817 .21487427 .43099977 .31282044 .5319977 .07395935C.5359955 .06297302 .5369873 .061965944 .5369873 .05996704 .5369873 .051986696 .5179901 .034988405 .47898866 .0309906 .46798707 .02999878 .45899964 .0289917 .45899964 .011993408 .45899964 0 .46998597 0 .47399903 0 .5019989 0 .57199099 .0029907227 .59999087 .0029907227 .625 .0029907227 .6859894 0 .71099856 0 .71798709 0 .7299957 0 .7299957 .018997193 .7299957 .0309906 .7200012 .0309906 .71199038 .0309906 .644989 .03199768 .6429901 .034988405 .6259918 .07496643 .58699038 .16790772 .519989 .32380677 .49699403 .3837738 .5649872 .45373536 .66999819 .5726471 .70199587 .6006317 .73098757 .62461856 .7689972 .64860537 .82899478 .6516113 .84199526 .65260317 .8509979 .65260317 .8509979 .6716156 .8509979 .6726074 .8509979 .6826172 .83799746 .6826172 .80799868 .6826172 .7749939 .6796112 .74398806 .6796112 .70700076 .6796112 .6689911 .6826172 .6329956 .6826172 .6269989 .6826172 .6139984 .6826172 .6139984 .6626129 .6139984 .65560916 .61898806 .65260317 .6259918 .6516113 .6349945 .65060427 .66600039 .64860537 .66600039 .6206207 .66600039 .6066284 .6549988 .5936432 .6469879 .5846405L.4850006 .41075135Z"/>
<path id="font_1_1" d="M.30299378 .3157959H.47299195C.61499026 .3157959 .7539978 .41973878 .7539978 .53167727 .7539978 .6086273 .6879883 .6826172 .5569916 .6826172H.23298645C.21398926 .6826172 .20298767 .6826172 .20298767 .66360476 .20298767 .6516113 .21199036 .6516113 .23199463 .6516113 .24499512 .6516113 .2630005 .65060427 .2749939 .6496124 .29100038 .6476135 .29699708 .64460757 .29699708 .6336212 .29699708 .6296234 .29599 .62661746 .29299928 .614624L.15899658 .07795715C.14898682 .038986207 .14698792 .0309906 .067993167 .0309906 .050994874 .0309906 .039993287 .0309906 .039993287 .011993408 .039993287 0 .051986696 0 .054992677 0 .08299255 0 .1539917 .0029907227 .18199158 .0029907227 .20298767 .0029907227 .22499085 .0019989014 .24598694 .0019989014 .2679901 .0019989014 .2899933 0 .31098939 0 .31799317 0 .33099366 0 .33099366 .019989014 .33099366 .0309906 .32199098 .0309906 .30299378 .0309906 .2659912 .0309906 .23799134 .0309906 .23799134 .048980714 .23799134 .054977418 .23999024 .05996704 .24099732 .065963748L.30299378 .3157959M.375 .6136322C.38398744 .64860537 .38598634 .6516113 .42900086 .6516113H.5249939C.60798647 .6516113 .6609955 .62461856 .6609955 .55566409 .6609955 .5166931 .6409912 .43074037 .60198977 .39476014 .5519867 .34977723 .49198915 .34179688 .44799806 .34179688H.30699159L.375 .6136322Z"/>
<path id="font_2_3" d="M.43099977 .37594605C.40499879 .36994935 .3889923 .348938 .3889923 .32894898 .3889923 .30593873 .40899659 .2969513 .42199708 .2969513 .43199159 .2969513 .46998597 .302948 .46998597 .35394288 .46998597 .41940309 .397995 .44140626 .33699037 .44140626 .18099976 .44140626 .15299988 .325943 .15299988 .2949524 .15299988 .25804139 .17399597 .23410034 .18798828 .22212219 .21398926 .20217896 .23199463 .19818115 .30099488 .18621826 .32199098 .18222046 .38598634 .17025757 .38598634 .120285037 .38598634 .10328674 .375 .06529236 .33299256 .040252687 .2939911 .018234253 .24499512 .018234253 .23298645 .018234253 .19299317 .018234253 .13598633 .027236939 .11299133 .060287477 .1459961 .06428528 .16799927 .08929443 .16799927 .11729431 .16799927 .14228821 .1499939 .15429688 .1289978 .15429688 .099990848 .15429688 .070999149 .13128662 .070999149 .08729553 .070999149 .027236939 .1349945-.009765625 .23199463-.009765625 .41600038-.009765625 .44999696 .11628723 .44999696 .1552887 .44999696 .24707031 .34899903 .26501466 .31199647 .27200318 .30299378 .27400209 .27799989 .27798463 .27198792 .27998353 .23498535 .28697206 .21699524 .30795289 .21699524 .3299408 .21699524 .35295106 .23498535 .37998963 .25698854 .39416505 .28399659 .41137696 .31900025 .4133911 .33599855 .4133911 .35699464 .4133911 .40899659 .4103546 .43099977 .37594605Z"/>
<path id="font_2_4" d="M.24598694 .39465333H.34799195C.36698915 .39465333 .37998963 .39465333 .37998963 .4166565 .37998963 .43066407 .36698915 .43066407 .34999085 .43066407H.25498963L.2919922 .57850649C.29299928 .58351138 .29499818 .588501 .29499818 .5924988 .29499818 .6104889 .2809906 .6244812 .26098634 .6244812 .23599243 .6244812 .22099304 .6074829 .21398926 .58151248 .20698548 .5565338 .21998596 .6044922 .17599488 .43066407H.07398987C.054992677 .43066407 .041992189 .43066407 .041992189 .4086609 .041992189 .39465333 .053985597 .39465333 .07199097 .39465333H.16699219L.10798645 .15901184C.101989749 .13404846 .09298706 .098098758 .09298706 .085128787 .09298706 .0262146 .14299011-.009765625 .19999695-.009765625 .31098939-.009765625 .37399293 .13005066 .37399293 .14303589 .37399293 .15602112 .36099244 .15602112 .35798646 .15602112 .34599305 .15602112 .34498597 .15402222 .33699037 .13703919 .30899049 .074142459 .2579956 .018234253 .20298767 .018234253 .18199158 .018234253 .16799927 .031204224 .16799927 .06715393 .16799927 .07713318 .17199707 .098098758 .17399597 .10809326L.24598694 .39465333Z"/>
<path id="font_2_2" d="M.32398988 .6253052C.32398988 .64131167 .31199647 .66329959 .28399659 .66329959 .25698854 .66329959 .22799683 .6372986 .22799683 .6083069 .22799683 .5913086 .24099732 .5703125 .2679901 .5703125 .29699708 .5703125 .32398988 .5983124 .32398988 .6253052M.11999512 .117263797C.115997318 .104263309 .11099243 .09225464 .11099243 .07525635 .11099243 .02822876 .15098572-.009765625 .20599365-.009765625 .30599977-.009765625 .34999085 .12828064 .34999085 .14328003 .34999085 .15628052 .33699037 .15628052 .33399964 .15628052 .31999208 .15628052 .31900025 .15028382 .31498719 .13928223 .2919922 .059249879 .24798584 .018234253 .20899964 .018234253 .18899536 .018234253 .18399048 .031234742 .18399048 .053237916 .18399048 .07624817 .19099427 .09526062 .19999695 .117263797 .20999146 .14428711 .22099304 .17129517 .23199463 .1973114 .24099732 .22131348 .2769928 .3123474 .2809906 .32435609 .28399659 .33436585 .2869873 .3463745 .2869873 .35636903 .2869873 .4033966 .24699402 .44140626 .19198609 .44140626 .09298706 .44140626 .04699707 .3053589 .04699707 .28834535 .04699707 .27534486 .06098938 .27534486 .06399536 .27534486 .07798767 .27534486 .07899475 .28033448 .08198547 .29135133 .10798645 .37738038 .1519928 .4133911 .18899536 .4133911 .20498657 .4133911 .21398926 .4053955 .21398926 .37838746 .21398926 .3553772 .20799256 .34036256 .18299866 .27833558L.11999512 .117263797Z"/>
<path id="font_1_4" d="M.3909912 .37405396C.36299134 .37304688 .34298707 .3510437 .34298707 .32904054 .34298707 .31503297 .35198976 .30003358 .37399293 .30003358 .3959961 .30003358 .41999818 .31703187 .41999818 .35603334 .41999818 .40124513 .3769989 .4423828 .30099488 .4423828 .16899109 .4423828 .13198853 .3400421 .13198853 .29605104 .13198853 .21820069 .20599365 .20323181 .23498535 .19725037 .2869873 .18727112 .33898927 .17628479 .33898927 .12133789 .33898927 .095336917 .31599427 .011245728 .19599915 .011245728 .18199158 .011245728 .10499573 .011245728 .08198547 .064331058 .11999512 .059326173 .14498902 .08934021 .14498902 .11734009 .14498902 .14033509 .1289978 .15234375 .10798645 .15234375 .08198547 .15234375 .051986696 .1313324 .051986696 .08633423 .051986696 .029281617 .10899353-.0107421879 .19499207-.0107421879 .35699464-.0107421879 .3959961 .1103363 .3959961 .15533448 .3959961 .19125366 .3769989 .21620178 .36499024 .22817993 .33799745 .25613404 .30899049 .26112367 .2649994 .27009584 .22898865 .27807618 .18899536 .2850647 .18899536 .33003236 .18899536 .3590393 .21299744 .42037965 .30099488 .42037965 .32598878 .42037965 .37599183 .41333009 .3909912 .37405396Z"/>
<path id="font_1_3" d="M.28399659 .6252594C.28399659 .6452637 .269989 .6612549 .24699402 .6612549 .21998596 .6612549 .19299317 .6352539 .19299317 .6082611 .19299317 .5892639 .20698548 .5722656 .23098755 .5722656 .2539978 .5722656 .28399659 .5952606 .28399659 .6252594M.20799256 .24932862C.21998596 .27833558 .21998596 .28033448 .22999573 .30734254 .23799134 .3273468 .24299622 .34135438 .24299622 .36035157 .24299622 .405365 .21099854 .4423828 .16099549 .4423828 .066986087 .4423828 .0289917 .29733277 .0289917 .28833009 .0289917 .27833558 .038986207 .27833558 .040985109 .27833558 .050994874 .27833558 .051986696 .28033448 .056991579 .29634095 .083999637 .3903656 .12399292 .42037965 .1579895 .42037965 .1659851 .42037965 .18299866 .42037965 .18299866 .3883667 .18299866 .36735536 .17599488 .346344 .17199707 .3363495 .1639862 .31033326 .11898804 .19430542 .102996829 .1512909 .09298706 .12528992 .07998657 .0922699 .07998657 .0712738 .07998657 .024261475 .11399841-.0107421879 .1619873-.0107421879 .2559967-.0107421879 .29299928 .1342926 .29299928 .14329529 .29299928 .1532898 .28399659 .1532898 .2809906 .1532898 .2709961 .1532898 .2709961 .15029907 .2659912 .13528443 .24798584 .072265628 .21499634 .011245728 .1639862 .011245728 .14698792 .011245728 .13999939 .021255494 .13999939 .044265748 .13999939 .0692749 .1459961 .08326721 .16899109 .14428711L.20799256 .24932862Z"/>
<path id="font_3_2" d="M.68699648 .32714845C.70199587 .32714845 .72099307 .32714845 .72099307 .34713746 .72099307 .36714173 .70199587 .36714173 .6879883 .36714173H.08898926C.07499695 .36714173 .055999757 .36714173 .055999757 .34713746 .055999757 .32714845 .07499695 .32714845 .08999634 .32714845H.68699648M.6879883 .13284302C.70199587 .13284302 .72099307 .13284302 .72099307 .15284729 .72099307 .17285156 .70199587 .17285156 .68699648 .17285156H.08999634C.07499695 .17285156 .055999757 .17285156 .055999757 .15284729 .055999757 .13284302 .07499695 .13284302 .08898926 .13284302H.6879883Z"/>
<path id="font_3_1" d="M.2939911 .64004519C.2939911 .66400149 .2939911 .6660156 .2709961 .6660156 .20899964 .60227969 .12098694 .60227969 .08898926 .60227969V.57128909C.10899353 .57128909 .16799927 .57128909 .21998596 .5972748V.07902527C.21998596 .042999269 .21699524 .0309906 .1269989 .0309906H.09498596V0C.12998963 .0029907227 .21699524 .0029907227 .25698854 .0029907227 .29699708 .0029907227 .38398744 .0029907227 .4189911 0V.0309906H.3869934C.29699708 .0309906 .2939911 .041992189 .2939911 .07902527V.64004519Z"/>
<path id="font_2_1" d="M.34098817 .30978395H.5219879C.69099429 .30978395 .83399966 .41773988 .83399966 .52667239 .83399966 .6106262 .7519989 .6826172 .61499026 .6826172H.2649994C.24499512 .6826172 .23298645 .6826172 .23298645 .660614 .23298645 .64660647 .24398804 .64660647 .2659912 .64660647 .28199769 .64660647 .28599549 .64660647 .3039856 .64460757 .32398988 .64260867 .32598878 .64060977 .32598878 .63061526 .32598878 .62861636 .32598878 .6236267 .32199098 .6086273L.18998719 .081954959C.17999268 .04298401 .1789856 .035995485 .100997928 .035995485 .08299255 .035995485 .070999149 .035995485 .070999149 .01399231 .070999149 .0129852299 .070999149 0 .08699036 0 .115997318 0 .18798828 .0039978029 .21699524 .0039978029 .23399353 .0039978029 .2689972 .0039978029 .28599549 .0029907227 .30599977 .0019989014 .33099366 0 .34999085 0 .35598756 0 .37098695 0 .37098695 .021987915 .37098695 .035995485 .35899354 .035995485 .33898927 .035995485 .33799745 .035995485 .31900025 .035995485 .30099488 .037994386 .27799989 .039993287 .27799989 .04298401 .27799989 .052978517 .27799989 .053985597 .27799989 .05996704 .28199769 .07496643L.34098817 .30978395M.41299439 .6126251C.42099 .6436157 .42199708 .64660647 .46398927 .64660647H.58099368C.673996 .64660647 .7319946 .6186218 .7319946 .54766848 .7319946 .51667788 .7200012 .43772889 .66999819 .39276124 .6339874 .3607788 .57699587 .34179688 .5049896 .34179688H.34498597L.41299439 .6126251Z"/>
<path id="font_1_5" d="M.20599365 .3996582H.2999878C.31999208 .3996582 .32998658 .3996582 .32998658 .41966249 .32998658 .43066407 .31999208 .43066407 .3019867 .43066407H.21398926C.25 .5724945 .25498963 .59246829 .25498963 .59846499 .25498963 .61546328 .24299622 .62545779 .22599793 .62545779 .22299195 .62545779 .19499207 .62446597 .18598938 .58947756L.14698792 .43066407H.052993776C.032989503 .43066407 .022994996 .43066407 .022994996 .4116516 .022994996 .3996582 .0309906 .3996582 .050994874 .3996582H.13899231C.066986087 .11608887 .06298828 .099121097 .06298828 .08114624 .06298828 .02722168 .100997928-.0107421879 .15499878-.0107421879 .25698854-.0107421879 .31399537 .13505554 .31399537 .14305115 .31399537 .1530304 .30599977 .1530304 .3019867 .1530304 .29299928 .1530304 .2919922 .15003968 .2869873 .13905335 .24398804 .035217287 .19099427 .011245728 .15699768 .011245728 .13598633 .011245728 .12599182 .024230957 .12599182 .057174684 .12599182 .08114624 .12799073 .088134769 .13198853 .10510254L.20599365 .3996582Z"/>
</defs>
<use data-text="X" xlink:href="#font_1_2" transform="matrix(9.962799,0,0,-9.963397,11.702934,7.728657)"/>
<use data-text="P" xlink:href="#font_1_1" transform="matrix(9.962799,0,0,-9.963397,12.330948,64.42719)"/>
<path transform="matrix(1.00002,0,0,-1.00008,30.39431,61.02292)" stroke-width=".3985" stroke-linecap="butt" stroke-miterlimit="10" stroke-linejoin="miter" fill="none" stroke="#000000" d="M-22.21104 49.76985-21.62807 9.98724"/>
<path transform="matrix(.014650294,.99994,.99988,-.014651172,8.740667,49.316804)" d="M4.21463 0 .64343 1.34572 1.8178 0 .64343-1.34572Z"/>
<path transform="matrix(.014650294,.99994,.99988,-.014651172,8.740667,49.316804)" stroke-width=".3985" stroke-linecap="butt" stroke-miterlimit="10" stroke-linejoin="miter" fill="none" stroke="#000000" d="M4.21463 0 .64343 1.34572 1.8178 0 .64343-1.34572Z"/>
<use data-text="s" xlink:href="#font_2_3" transform="matrix(6.97394,0,0,-6.974358,1.2167282,34.175775)"/>
<path transform="matrix(1.00002,0,0,-1.00008,30.39431,61.02292)" stroke-width=".3985" stroke-linecap="butt" stroke-miterlimit="10" stroke-linejoin="miter" fill="none" stroke="#000000" d="M-6.13574 49.76985-6.71872 9.98724"/>
<path transform="matrix(-.014650294,.99994,.99988,.014651172,23.700615,49.316804)" d="M4.21463 0 .64343 1.34572 1.8178 0 .64343-1.34572Z"/>
<path transform="matrix(-.014650294,.99994,.99988,.014651172,23.700615,49.316804)" stroke-width=".3985" stroke-linecap="butt" stroke-miterlimit="10" stroke-linejoin="miter" fill="none" stroke="#000000" d="M4.21463 0 .64343 1.34572 1.8178 0 .64343-1.34572Z"/>
<use data-text="t" xlink:href="#font_2_4" transform="matrix(6.97394,0,0,-6.974358,27.464249,34.818826)"/>
<path transform="matrix(1.00002,0,0,-1.00008,30.39431,61.02292)" stroke-width=".3985" stroke-linecap="butt" stroke-miterlimit="10" stroke-linejoin="miter" fill="none" stroke="#000000" d="M-14.17339 6.92375V46.70595"/>
<path transform="matrix(0,-1.00008,-1.00002,-0,16.220635,16.03157)" d="M4.21463 0 .64343 1.34572 1.8178 0 .64343-1.34572Z"/>
<path transform="matrix(0,-1.00008,-1.00002,-0,16.220635,16.03157)" stroke-width=".3985" stroke-linecap="butt" stroke-miterlimit="10" stroke-linejoin="miter" fill="none" stroke="#000000" d="M4.21463 0 .64343 1.34572 1.8178 0 .64343-1.34572Z"/>
<use data-text="i" xlink:href="#font_2_2" transform="matrix(6.97394,0,0,-6.974358,18.379067,34.981836)"/>
<path transform="matrix(1.00002,0,0,-1.00008,30.39431,61.02292)" stroke-width=".3985" stroke-linecap="butt" stroke-miterlimit="10" stroke-linejoin="miter" fill="none" stroke="#000000" d="M14.17339 14.17339V42.5202H56.69362V14.17339ZM56.69362 42.5202"/>
<use data-text="s" xlink:href="#font_1_4" transform="matrix(9.962799,0,0,-9.963397,49.322687,28.125287)"/>
<use data-text="i" xlink:href="#font_1_3" transform="matrix(9.962799,0,0,-9.963397,53.985277,28.125287)"/>
<use data-text="=" xlink:href="#font_3_2" transform="matrix(9.962799,0,0,-9.963397,60.1929,28.125287)"/>
<use data-text="1" xlink:href="#font_3_1" transform="matrix(9.962799,0,0,-9.963397,70.69371,28.125287)"/>
<use data-text="P" xlink:href="#font_2_1" transform="matrix(6.97394,0,0,-6.974358,75.690219,29.619404)"/>
<use data-text="t" xlink:href="#font_1_5" transform="matrix(9.962799,0,0,-9.963397,49.859704,42.299425)"/>
<use data-text="i" xlink:href="#font_1_3" transform="matrix(9.962799,0,0,-9.963397,53.45627,42.299425)"/>
<use data-text="=" xlink:href="#font_3_2" transform="matrix(9.962799,0,0,-9.963397,59.6569,42.299425)"/>
<use data-text="1" xlink:href="#font_3_1" transform="matrix(9.962799,0,0,-9.963397,70.157688,42.299425)"/>
<use data-text="P" xlink:href="#font_2_1" transform="matrix(6.97394,0,0,-6.974358,75.15521,43.79354)"/>
</svg>
