<svg xmlns="http://www.w3.org/2000/svg" xmlns:xlink="http://www.w3.org/1999/xlink" xmlns:inkscape="http://www.inkscape.org/namespaces/inkscape" version="1.1" width="175" height="78" viewBox="0 0 175 78">
<defs>
<path id="font_1_1" d="M.47698976 .23631287C.47698976 .39337159 .38398744 .4423828 .30999757 .4423828 .17298889 .4423828 .040985109 .29933167 .040985109 .15829468 .040985109 .06526184 .100997928-.0107421879 .20298767-.0107421879 .2659912-.0107421879 .33799745 .012252808 .4139862 .073272708 .4269867 .020248414 .45999146-.0107421879 .5049896-.0107421879 .55799868-.0107421879 .58898928 .044265748 .58898928 .060272218 .58898928 .06726074 .58299258 .07026672 .57699587 .07026672 .56999209 .07026672 .5669861 .06726074 .56399539 .060272218 .54599 .011245728 .5099945 .011245728 .5079956 .011245728 .47698976 .011245728 .47698976 .089279178 .47698976 .11328125 .47698976 .1342926 .47698976 .1362915 .4869995 .14828491 .58099368 .2663269 .60198977 .38235475 .60198977 .38336183 .60198977 .38536073 .6009979 .39337159 .58999636 .39337159 .5799866 .39337159 .5799866 .3903656 .57499697 .37236024 .5569916 .30934144 .5239868 .23332215 .47698976 .17430115V.23631287M.4099884 .09927368C.32199098 .022247315 .24499512 .011245728 .20498657 .011245728 .14498902 .011245728 .114990238 .056259157 .114990238 .120285037 .114990238 .16929627 .14099121 .2773285 .17298889 .32833863 .21998596 .4013672 .27398683 .42037965 .30899049 .42037965 .4079895 .42037965 .4079895 .28933717 .4079895 .21130371 .4079895 .17430115 .4079895 .11628723 .4099884 .09927368Z"/>
<path id="font_2_4" d="M.6779938 .56266787C.69699099 .58265689 .71699526 .600647 .7389984 .6156311 .7799988 .6436157 .81700137 .6456146 .8299866 .64660647 .84098818 .6476135 .8529968 .6476135 .8529968 .6686096 .8529968 .6756134 .8470001 .6826172 .83898928 .6826172 .81399539 .6826172 .7839966 .6786041 .7579956 .6786041 .7259979 .6786041 .6839905 .6826172 .6539917 .6826172 .6489868 .6826172 .6339874 .6826172 .6339874 .660614 .6339874 .6476135 .6469879 .64660647 .6519928 .64660647 .68099978 .64460757 .68099978 .6336212 .68099978 .6276245 .68099978 .6186218 .6749878 .6106262 .66799929 .6016388 .6619873 .59265139 .6569977 .5856476 .651001 .5796509L.40098573 .31881715 .2689972 .6116333C.2619934 .6256256 .2619934 .6276245 .2619934 .62861636 .2619934 .64660647 .30999757 .64660647 .31599427 .64660647 .32899476 .64660647 .34199525 .64660647 .34199525 .6686096 .34199525 .6696167 .34199525 .6826172 .32598878 .6826172 .29599 .6826172 .22200012 .6786041 .19198609 .6786041 .16699219 .6786041 .102996829 .6826172 .07798767 .6826172 .069992069 .6826172 .057998659 .6796112 .057998659 .660614 .057998659 .64660647 .070999149 .64660647 .084991458 .64660647 .14299011 .64660647 .14698792 .637619 .15699768 .6156311L.31199647 .2738495 .2669983 .09095764C.2539978 .039993287 .25299073 .036987306 .1749878 .035995485 .1579895 .035995485 .14498902 .035995485 .14498902 .01499939 .14498902 .004989624 .1519928 0 .16099549 0 .17999268 0 .20298767 .0029907227 .22299195 .0029907227 .24198914 .0029907227 .2709961 .0039978029 .2889862 .0039978029 .30899049 .0039978029 .33198548 .0029907227 .35299684 .0029907227 .37399293 .0029907227 .39898683 0 .41999818 0 .42599488 0 .44198609 0 .44198609 .021987915 .44198609 .035995485 .42999269 .035995485 .4079895 .035995485 .3919983 .035995485 .3880005 .035995485 .36999513 .037994386 .35099793 .039993287 .34799195 .041992189 .34799195 .051986696 .34799195 .0579834 .3600006 .10594177 .36698915 .13293457 .375 .16491699 .3959961 .25186158 .397995 .25585938 .4019928 .2708435 .4019928 .2728424 .4119873 .2828369L.6779938 .56266787Z"/>
<path id="font_1_6" d="M.36698915 .3996582H.45298768C.47299195 .3996582 .48298646 .3996582 .48298646 .41966249 .48298646 .43066407 .47299195 .43066407 .45599366 .43066407H.37298585L.3939972 .5449524C.397995 .5660095 .4119873 .6370239 .41799928 .6490326 .4269867 .66804507 .44400025 .68307498 .46499635 .68307498 .46899415 .68307498 .49499513 .68307498 .5139923 .66503909 .46998597 .661026 .45999146 .6260376 .45999146 .6110382 .45999146 .58802798 .47799684 .57603457 .49699403 .57603457 .522995 .57603457 .5519867 .5980377 .5519867 .6360321 .5519867 .6820679 .5059967 .7050781 .46499635 .7050781 .43099977 .7050781 .36799623 .68707278 .33799745 .58802798 .33198548 .56700137 .32899476 .5569763 .30499269 .43066407H.23599243C.21699524 .43066407 .20599365 .43066407 .20599365 .4116516 .20599365 .3996582 .21499634 .3996582 .23399353 .3996582H.2999878L.22499085 .0048828127C.20698548-.09207153 .18998719-.18309021 .13798523-.18309021 .13398743-.18309021 .10899353-.18309021 .08999634-.16506958 .13598633-.1620636 .14498902-.12606812 .14498902-.111068729 .14498902-.08807373 .1269989-.07606506 .10798645-.07606506 .08198547-.07606506 .052993776-.09806824 .052993776-.13606262 .052993776-.18109131 .09700012-.20507813 .13798523-.20507813 .19299317-.20507813 .23298645-.14607239 .25099183-.108062747 .2829895-.04508972 .30599977 .07583618 .30699159 .082839969L.36698915 .3996582Z"/>
<path id="font_2_2" d="M.20599365 .11984253C.17098999 .06594849 .13899231 .039978029 .07998657 .035995485 .069992069 .034988405 .056991579 .034988405 .056991579 .01499939 .056991579 .0039978029 .06599426 0 .070999149 0 .09700012 0 .12998963 .0039978029 .15699768 .0039978029 .18899536 .0039978029 .22999573 0 .2599945 0 .2649994 0 .27999879 0 .27999879 .021987915 .27999879 .034988405 .2669983 .035995485 .2630005 .035995485 .25498963 .036987306 .21899414 .038986207 .21899414 .06594849 .21899414 .077926639 .22898865 .09489441 .23399353 .103881839L.31399537 .22766114H.59999087L.6239929 .061950685C.6199951 .051971437 .6139984 .035995485 .5549927 .035995485 .54299929 .035995485 .5289917 .035995485 .5289917 .01399231 .5289917 .009994507 .5319977 0 .54499819 0 .57398989 0 .644989 .0039978029 .673996 .0039978029 .69200137 .0039978029 .71499636 .0029907227 .73298647 .0029907227 .7509918 .0019989014 .7719879 0 .7899933 0 .8029938 0 .80999758 .0079956059 .80999758 .020996094 .80999758 .035995485 .7979889 .035995485 .7819977 .035995485 .723999 .035995485 .7220001 .04397583 .71899417 .06793213L.6309967 .6848755C.6279907 .70588687 .6259918 .7128906 .6069946 .7128906 .58799746 .7128906 .58200076 .70388796 .57299807 .6898804L.20599365 .11984253M.33799745 .26367188 .5479889 .5908356 .59498599 .26367188H.33799745Z"/>
<path id="font_3_3" d="M.68699648 .32714845C.70199587 .32714845 .72099307 .32714845 .72099307 .34713746 .72099307 .36714173 .70199587 .36714173 .6879883 .36714173H.08898926C.07499695 .36714173 .055999757 .36714173 .055999757 .34713746 .055999757 .32714845 .07499695 .32714845 .08999634 .32714845H.68699648M.6879883 .13284302C.70199587 .13284302 .72099307 .13284302 .72099307 .15284729 .72099307 .17285156 .70199587 .17285156 .68699648 .17285156H.08999634C.07499695 .17285156 .055999757 .17285156 .055999757 .15284729 .055999757 .13284302 .07499695 .13284302 .08898926 .13284302H.6879883Z"/>
<path id="font_2_3" d="M.18998719 .07797241C.18099976 .04399109 .1789856 .035995485 .101989749 .035995485 .084991458 .035995485 .07199097 .035995485 .07199097 .01499939 .07199097 0 .083999637 0 .101989749 0H.4889984C.6569977 0 .7859955 .11494446 .7859955 .21388245 .7859955 .28485108 .72099307 .34580995 .61499026 .35681153 .73599246 .37879945 .83699038 .4547577 .83699038 .54067996 .83699038 .6166382 .7599945 .6826172 .6299896 .6826172H.2659912C.24699402 .6826172 .23399353 .6826172 .23399353 .660614 .23399353 .64660647 .24598694 .64660647 .2659912 .64660647 .2669983 .64660647 .28599549 .64660647 .3039856 .64460757 .32499696 .64260867 .32699586 .64060977 .32699586 .63061526 .32699586 .62861636 .32699586 .6236267 .32299806 .6086426L.18998719 .07797241M.34999085 .3688202 .41099549 .6126404C.4189911 .6436157 .41999818 .64660647 .46199037 .64660647H.6139984C.71598818 .64660647 .7389984 .57966616 .7389984 .541687 .7389984 .46073915 .647995 .3688202 .5139923 .3688202H.34999085M.3019867 .035995485C.2709961 .035995485 .269989 .036987306 .269989 .04598999 .269989 .04698181 .269989 .051986696 .27398683 .066970828L.34298707 .3408203H.5549927C.6489868 .3408203 .68499758 .27885438 .68499758 .22088623 .68499758 .12194824 .58399966 .035995485 .46299745 .035995485H.3019867Z"/>
<path id="font_1_4" d="M.4850006 .41075135 .40098573 .6096344C.397995 .61763 .3959961 .6216278 .3959961 .6226196 .3959961 .62861636 .41299439 .6476135 .45498658 .6516113 .46499635 .65260317 .47499085 .6536102 .47499085 .6706085 .47499085 .6826172 .46299745 .6826172 .45999146 .6826172 .4189911 .6826172 .37599183 .6796112 .33399964 .6796112 .30899049 .6796112 .24699402 .6826172 .22200012 .6826172 .21598816 .6826172 .20399475 .6826172 .20399475 .6626129 .20399475 .6516113 .21398926 .6516113 .22698975 .6516113 .2869873 .6516113 .29299928 .6416168 .3019867 .6196289L.41999818 .34080506 .20899964 .11393738 .19599915 .10295105C.14698792 .049987794 .099990848 .033996583 .04899597 .0309906 .035995485 .02999878 .026992798 .02999878 .026992798 .010986328 .026992798 .009994507 .026992798 0 .039993287 0 .069992069 0 .102996829 .0029907227 .13398743 .0029907227 .17098999 .0029907227 .20999146 0 .24598694 0 .2519989 0 .2639923 0 .2639923 .019989014 .2639923 .02999878 .2539978 .0309906 .2519989 .0309906 .24299622 .03199768 .21199036 .033996583 .21199036 .061965944 .21199036 .07795715 .22698975 .093948367 .23899842 .10694885L.34098817 .21487427 .43099977 .31282044 .5319977 .07395935C.5359955 .06297302 .5369873 .061965944 .5369873 .05996704 .5369873 .051986696 .5179901 .034988405 .47898866 .0309906 .46798707 .02999878 .45899964 .0289917 .45899964 .011993408 .45899964 0 .46998597 0 .47399903 0 .5019989 0 .57199099 .0029907227 .59999087 .0029907227 .625 .0029907227 .6859894 0 .71099856 0 .71798709 0 .7299957 0 .7299957 .018997193 .7299957 .0309906 .7200012 .0309906 .71199038 .0309906 .644989 .03199768 .6429901 .034988405 .6259918 .07496643 .58699038 .16790772 .519989 .32380677 .49699403 .3837738 .5649872 .45373536 .66999819 .5726471 .70199587 .6006317 .73098757 .62461856 .7689972 .64860537 .82899478 .6516113 .84199526 .65260317 .8509979 .65260317 .8509979 .6716156 .8509979 .6726074 .8509979 .6826172 .83799746 .6826172 .80799868 .6826172 .7749939 .6796112 .74398806 .6796112 .70700076 .6796112 .6689911 .6826172 .6329956 .6826172 .6269989 .6826172 .6139984 .6826172 .6139984 .6626129 .6139984 .65560916 .61898806 .65260317 .6259918 .6516113 .6349945 .65060427 .66600039 .64860537 .66600039 .6206207 .66600039 .6066284 .6549988 .5936432 .6469879 .5846405L.4850006 .41075135Z"/>
<path id="font_3_1" d="M.33099366-.2400055C.33099366-.23701477 .33099366-.23500061 .31399537-.21800232 .18899536-.0920105 .15699768 .09700012 .15699768 .25 .15699768 .42399598 .19499207 .59799197 .31799317 .72299197 .33099366 .73498538 .33099366 .7369995 .33099366 .73999026 .33099366 .746994 .32699586 .75 .32099916 .75 .31098939 .75 .22099304 .6819916 .1619873 .5549927 .11099243 .44499208 .09899902 .33399964 .09899902 .25 .09899902 .17199707 .10998535 .050994874 .16499329-.06201172 .22499085-.18501282 .31098939-.25 .32099916-.25 .32699586-.25 .33099366-.24700928 .33099366-.2400055Z"/>
<path id="font_1_2" d="M.1789856 .114868167C.13899231 .047973634 .099990848 .033981325 .055999757 .0309906 .04399109 .02999878 .034988405 .02999878 .034988405 .010986328 .034988405 .004989624 .039993287 0 .04798889 0 .07499695 0 .10598755 .0029907227 .13398743 .0029907227 .16699219 .0029907227 .20199585 0 .23399353 0 .23999024 0 .25299073 0 .25299073 .018997193 .25299073 .02999878 .24398804 .0309906 .23699951 .0309906 .21398926 .032989503 .18998719 .04096985 .18998719 .06593323 .18998719 .077926639 .19599915 .088897708 .20399475 .102890018L.27999879 .23068238H.5309906C.5329895 .2097168 .5469971 .07392883 .5469971 .063949588 .5469971 .033981325 .49499513 .0309906 .47499085 .0309906 .46099855 .0309906 .45098878 .0309906 .45098878 .010986328 .45098878 0 .46299745 0 .46499635 0 .5059967 0 .548996 .0029907227 .58999636 .0029907227 .61499026 .0029907227 .6779938 0 .7029877 0 .70899966 0 .72099307 0 .72099307 .019989014 .72099307 .0309906 .71099856 .0309906 .69799807 .0309906 .6359863 .0309906 .6359863 .037979127 .6329956 .06694031L.57199099 .691803C.56999209 .71180728 .56999209 .7158203 .5529938 .7158203 .5369873 .7158203 .5329895 .7088165 .5269928 .69880679L.1789856 .114868167M.29899598 .26168824 .49598695 .5917816 .5279999 .26168824H.29899598Z"/>
<path id="font_3_2" d="M.2889862 .25C.2889862 .32798768 .27799989 .44898988 .22299195 .56199648 .16299439 .68499758 .07699585 .75 .066986087 .75 .06098938 .75 .056991579 .74598696 .056991579 .73999026 .056991579 .7369995 .056991579 .73498538 .07598877 .71699526 .17399597 .6179962 .23098755 .45899964 .23098755 .25 .23098755 .07899475 .19400025-.09700012 .069992069-.2230072 .056991579-.23500061 .056991579-.23701477 .056991579-.2400055 .056991579-.2460022 .06098938-.25 .066986087-.25 .07699585-.25 .16699219-.18200684 .22599793-.055007936 .2769928 .054992677 .2889862 .16600037 .2889862 .25Z"/>
<path id="font_1_3" d="M.1599884 .07795715C.1499939 .038986207 .147995 .0309906 .068984989 .0309906 .051986696 .0309906 .041992189 .0309906 .041992189 .010986328 .041992189 0 .050994874 0 .068984989 0H.42599488C.58399966 0 .70199587 .11791992 .70199587 .21585083 .70199587 .28778077 .6439972 .3457489 .5469971 .35673524 .651001 .37573243 .7559967 .44970704 .7559967 .5446625 .7559967 .6186218 .6899872 .6826172 .56999209 .6826172H.23399353C.21499634 .6826172 .20498657 .6826172 .20498657 .6626129 .20498657 .6516113 .21398926 .6516113 .23298645 .6516113 .23498535 .6516113 .2539978 .6516113 .2709961 .6496124 .2889862 .6476135 .2979889 .64660647 .2979889 .6336212 .2979889 .6296234 .29699708 .62661746 .2939911 .614624L.1599884 .07795715M.31098939 .36573792 .37298585 .6136322C.38198854 .64860537 .38398744 .6516113 .4269867 .6516113H.55599978C.6439972 .6516113 .6649933 .5926361 .6649933 .5486603 .6649933 .46069337 .57899478 .36573792 .45700074 .36573792H.31098939M.2659912 .0309906C.2519989 .0309906 .25 .0309906 .24398804 .03199768 .23399353 .032989503 .23098755 .033996583 .23098755 .04197693 .23098755 .04498291 .23098755 .04698181 .23599243 .064971927L.30499269 .34375H.49398805C.58999636 .34375 .60899356 .2698059 .60899356 .22683716 .60899356 .12791443 .519989 .0309906 .4019928 .0309906H.2659912Z"/>
<path id="font_1_5" d="M.5970001 .5686493 .61099246 .5826416C.6409912 .6126251 .673996 .64660647 .74198916 .6516113 .7529907 .65260317 .7619934 .65260317 .7619934 .6706085 .7619934 .6786041 .7569885 .6826172 .7489929 .6826172 .72299197 .6826172 .69400027 .6796112 .6669922 .6796112 .6339874 .6796112 .598999 .6826172 .5669861 .6826172 .5609894 .6826172 .5479889 .6826172 .5479889 .66360476 .5479889 .65260317 .55799868 .6516113 .5629883 .6516113 .56999209 .6516113 .598999 .6496124 .598999 .62861636 .598999 .6116333 .57598879 .5856476 .57199099 .5806427L.33999635 .31381227 .22999573 .6106262C.22399903 .62461856 .22399903 .62661746 .22399903 .6276245 .22399903 .6516113 .272995 .6516113 .2829895 .6516113 .29699708 .6516113 .30699159 .6516113 .30699159 .6716156 .30699159 .6826172 .29499818 .6826172 .2919922 .6826172 .2639923 .6826172 .19400025 .6796112 .1659851 .6796112 .14099121 .6796112 .07899475 .6826172 .053985597 .6826172 .04798889 .6826172 .034988405 .6826172 .034988405 .6626129 .034988405 .6516113 .04499817 .6516113 .057998659 .6516113 .117996219 .6516113 .12199402 .64260867 .1309967 .61763L.2539978 .28883363C.25498963 .28582765 .2579956 .2748413 .2579956 .27183534 .2579956 .2688446 .21798706 .107940677 .21299744 .08995056 .19999695 .034988405 .19898987 .03199768 .11898804 .0309906 .099990848 .0309906 .09199524 .0309906 .09199524 .010986328 .09199524 0 .10398865 0 .10598755 0 .13398743 0 .20399475 .0029907227 .23199463 .0029907227 .2599945 .0029907227 .33198548 0 .3600006 0 .36698915 0 .3789978 0 .3789978 .019989014 .3789978 .0309906 .36999513 .0309906 .35099793 .0309906 .34899903 .0309906 .32998658 .0309906 .31298829 .032989503 .2919922 .034988405 .28599549 .036987306 .28599549 .048980714 .28599549 .05596924 .29499818 .09095764 .2999878 .11193848L.33499146 .2528534C.33999635 .27183534 .34098817 .2748413 .34899903 .28382875L.5970001 .5686493Z"/>
<path id="font_2_5" d="M.40699769 .39465333H.5049896C.5249939 .39465333 .5379944 .39465333 .5379944 .4166565 .5379944 .43066407 .5249939 .43066407 .5069885 .43066407H.4139862C.43699647 .5580139 .44499208 .6040497 .45298768 .63305667 .45799256 .6550598 .47999574 .6760864 .5039978 .6760864 .5049896 .6760864 .5319977 .6760864 .5509949 .6640625 .5099945 .651062 .5069885 .61505129 .5069885 .60905459 .5069885 .5870514 .5239868 .572052 .5469971 .572052 .57398989 .572052 .60398867 .59506228 .60398867 .63305667 .60398867 .6790924 .5549927 .70410159 .5039978 .70410159 .45999146 .70410159 .41099549 .6790924 .38398744 .62905886 .3639984 .5920563 .35598756 .5469818 .33499146 .43066407H.2559967C.23599243 .43066407 .22299195 .43066407 .22299195 .4086609 .22299195 .39465333 .23599243 .39465333 .2539978 .39465333H.32798768C.32699586 .38865663 .2639923 .028869629 .23999024-.078063968 .23498535-.10006714 .21798706-.17610169 .16999817-.17610169 .16899109-.17610169 .14498902-.17610169 .12599182-.1640625 .16699219-.15107727 .16999817-.11506653 .16999817-.109069827 .16999817-.08706665 .15299988-.07206726 .12998963-.07206726 .102996829-.07206726 .07299805-.095077518 .07299805-.1330719 .07299805-.17811585 .11999512-.20410156 .16999817-.20410156 .23399353-.20410156 .27799989-.13807678 .2899933-.11607361 .32598878-.049087526 .34899903 .07385254 .35099793 .08584595L.40699769 .39465333Z"/>
<path id="font_4_1" d="M.72698977 .68881228C.72299197 .70980837 .71899417 .7158203 .69699099 .7158203 .6729889 .7158203 .6669922 .70780947 .6569977 .69281008L.2649994 .124816898C.22299195 .063949588 .18798828 .04798889 .12298584 .04498291 .10398865 .04399109 .10398865 .017990113 .10398865 .016998291 .10398865 .0029907227 .115997318 0 .11999512 0 .13398743 0 .15098572 .0029907227 .16499329 .0029907227 .18199158 .0029907227 .19898987 .0039978029 .21598816 .0039978029 .23498535 .0039978029 .25299073 .0029907227 .2709961 .0029907227 .2889862 .0029907227 .30999757 0 .32798768 0 .33499146 0 .35198976 0 .35198976 .027999878 .35198976 .04399109 .33699037 .04498291 .33299256 .04498291 .32499696 .04498291 .28599549 .04698181 .28599549 .07093811 .28599549 .082901 .2979889 .099868778 .30499269 .10984802L.37799073 .21661377C.3829956 .22261048 .38398744 .2236023 .40299989 .2236023H.70599368C.70799258 .21162415 .70899966 .20663452 .71199038 .19467163 .71499636 .17671204 .7350006 .076919559 .7350006 .06694031 .7350006 .04498291 .6719971 .04498291 .6669922 .04498291 .6519928 .04498291 .6359863 .04498291 .6359863 .016998291 .6359863 .0069885256 .6429901 0 .6539917 0 .6749878 0 .69898989 .0029907227 .72099307 .0029907227 .7449951 .0029907227 .7679901 .0039978029 .7919922 .0039978029 .8129883 .0039978029 .83499148 .0029907227 .85598757 .0029907227 .8759918 .0029907227 .8989868 0 .9189911 0 .9359894 0 .94299319 .011993408 .94299319 .027999878 .94299319 .04498291 .9269867 .04498291 .9129944 .04498291 .8470001 .04498291 .84599307 .051971437 .84199526 .07392883L.72698977 .68881228M.6369934 .5927582 .69799807 .26860047H.4139862L.6369934 .5927582Z"/>
<path id="font_4_2" d="M.24798584 .082977298C.23999024 .052993776 .23899842 .04499817 .16299439 .04499817 .13699341 .04499817 .12098694 .04499817 .12098694 .016998291 .12098694 0 .13699341 0 .1539917 0H.58898928C.7689972 0 .9149933 .111968997 .9149933 .21191406 .9149933 .27389527 .8569946 .3408661 .72099307 .35786439 .81999209 .37086488 .96099856 .4367981 .96099856 .53671267 .96099856 .6206207 .8619995 .6826172 .7259979 .6826172H.31599427C.29699708 .6826172 .2809906 .6826172 .2809906 .65460208 .2809906 .63760378 .2939911 .63760378 .31799317 .63760378 .32798768 .63760378 .36099244 .63760378 .38198854 .6316223 .38198854 .6196289 .38198854 .61763 .3789978 .6066437L.24798584 .082977298M.4169922 .3718567 .47499085 .6046448C.48298646 .63560488 .48298646 .63760378 .5249939 .63760378H.70799258C.8069916 .63760378 .85398867 .58665469 .85398867 .53370669 .85398867 .4527893 .74598696 .3718567 .60598757 .3718567H.4169922M.36898805 .04499817C.36099244 .04499817 .34700013 .04499817 .33699037 .04699707 .33799745 .054992677 .33799745 .056991579 .33999635 .06498718L.4079895 .3378601H.6519928C.7539978 .3378601 .8049927 .2788849 .8049927 .21591187 .8049927 .11895752 .6859894 .04499817 .56199648 .04499817H.36898805Z"/>
<path id="font_2_1" d="M.5469971 .14128113C.6389923 .23632813 .6759949 .36938478 .6759949 .38038636 .6759949 .39338685 .6639862 .39338685 .6589966 .39338685 .644989 .39338685 .644989 .39038087 .6380005 .3683777 .6199951 .3023529 .58699038 .24131775 .54499819 .18730164 .5439911 .20230103 .5419922 .2693329 .5399933 .27833558 .5249939 .37738038 .44999696 .44140626 .34999085 .44140626 .20298767 .44140626 .06199646 .3043518 .06199646 .16429138 .06199646 .072250369 .1289978-.009765625 .24499512-.009765625 .33699037-.009765625 .41999818 .032226564 .47599793 .07525635 .49899293 .0022277833 .5499878-.009765625 .5799866-.009765625 .6380005-.009765625 .673996 .039230348 .673996 .0602417 .673996 .072250369 .6619873 .072250369 .6569977 .072250369 .6439972 .072250369 .6419983 .06825256 .6399994 .0622406 .6259918 .024230957 .59498599 .018234253 .58299258 .018234253 .56900027 .018234253 .5519867 .018234253 .5469971 .14128113M.46899415 .10726929C.37098695 .027236939 .28599549 .018234253 .24798584 .018234253 .18199158 .018234253 .14498902 .0622406 .14498902 .12927246 .14498902 .15829468 .15899658 .26733399 .21099854 .33636476 .25698854 .39639283 .31399537 .4133911 .34899903 .4133911 .42900086 .4133911 .45199586 .33636476 .45999146 .27433778 .46598817 .23132324 .46398927 .16029358 .46899415 .10726929Z"/>
<path id="font_4_3" d="M.651001 .38078309 .86499026 .57066348C.9249878 .62461856 .9779968 .6356201 1.0379944 .637619 1.052002 .63861086 1.0579987 .65560916 1.0579987 .66560366 1.0579987 .6746063 1.0499878 .6826172 1.0410004 .6826172 1.0249939 .6826172 1.0049896 .6796112 .98799136 .6796112 .97099307 .6796112 .9529877 .6786041 .9359894 .6786041 .91400149 .6786041 .8929901 .6796112 .871994 .6796112 .8529968 .6796112 .8299866 .6826172 .8109894 .6826172 .80400088 .6826172 .7869873 .6826172 .7869873 .65460208 .7869873 .64060977 .7979889 .637619 .80599978 .637619 .81999209 .63661196 .83799746 .63261416 .83799746 .61763 .83799746 .6036377 .82899478 .5956421 .7969971 .56666567L.6299896 .41575624 .5079956 .6196289C.5239868 .63261416 .5439911 .63661196 .56199648 .637619 .56799319 .637619 .58499148 .63861086 .58499148 .66560366 .58499148 .6776123 .57499697 .6826172 .5669861 .6826172 .5439911 .6826172 .5179901 .6796112 .49499513 .6796112 .47200013 .6796112 .44799806 .6786041 .4249878 .6786041 .4039917 .6786041 .38198854 .6796112 .36099244 .6796112 .33999635 .6796112 .31799317 .6826172 .2979889 .6826172 .2809906 .6826172 .27398683 .6706085 .27398683 .65460208 .27398683 .637619 .2889862 .637619 .30699159 .637619 .37298585 .637619 .3789978 .62661746 .3880005 .6116333L.548996 .34280396 .30699159 .12394714C.3039856 .12094116 .29499818 .11494446 .29100038 .11294556 .25 .07896423 .21099854 .04798889 .115997318 .04499817 .09799194 .04399109 .09700012 .018997193 .09700012 .016998291 .09700012 .005996704 .10598755 0 .11299133 0 .12998963 0 .14898682 .0029907227 .1659851 .0029907227 .18299866 .0029907227 .20098877 .0039978029 .21798706 .0039978029 .23999024 .0039978029 .26098634 .0029907227 .28199769 .0029907227 .3019867 .0029907227 .32398988 0 .34399415 0 .35798646 0 .36799623 .0069885256 .36799623 .027999878 .36799623 .04399109 .35299684 .04499817 .34899903 .04499817 .32099916 .04699707 .31698609 .05899048 .31698609 .064971927 .31698609 .07597351 .33099366 .09196472 .33299256 .094955448 .33799745 .09996033 .5309906 .2718506 .56900027 .3078308L.70899966 .07597351C.71099856 .07197571 .71499636 .065979007 .71499636 .0639801 .71499636 .0599823 .69799807 .04699707 .6619873 .04499817 .6559906 .04499817 .6389923 .04399109 .6389923 .016998291 .6389923 .005996704 .6469879 0 .6569977 0 .6799927 0 .70599368 .0029907227 .72898867 .0029907227 .7519989 .0029907227 .776001 .0039978029 .798996 .0039978029 .81999209 .0039978029 .84199526 .0029907227 .86299136 .0029907227 .8829956 .0029907227 .9059906 0 .9259949 0 .94299319 0 .94999697 .011993408 .94999697 .027999878 .94999697 .04499817 .93499758 .04499817 .9169922 .04499817 .85198977 .04499817 .84599307 .055984498 .83699038 .06997681L.651001 .38078309Z"/>
<path id="font_4_4" d="M.7969971 .55766299 .82499697 .5806427C.85198977 .6026306 .8909912 .6336212 .96099856 .637619 .97499087 .63861086 .9889984 .63861086 .9889984 .66560366 .9889984 .6796112 .97698977 .6826172 .97299197 .6826172 .95899966 .6826172 .94299319 .6796112 .9279938 .6796112 .9129944 .6796112 .8969879 .6786041 .8809967 .6786041L.82199099 .6796112C.8049927 .6796112 .7849884 .6826172 .7679901 .6826172 .7549896 .6826172 .74398806 .6756134 .74398806 .65460208 .74398806 .64060977 .7559967 .637619 .7630005 .637619 .7879944 .63661196 .7939911 .63061526 .7939911 .6236267 .7939911 .6096344 .769989 .5876465 .7619934 .5796509L.49798585 .32681275 .34298707 .6116333C.33699037 .6216278 .33699037 .6236267 .33699037 .62461856 .33699037 .637619 .37998963 .637619 .3880005 .637619 .40299989 .637619 .4189911 .637619 .4189911 .66560366 .4189911 .6776123 .40899659 .6826172 .40098573 .6826172 .37799073 .6826172 .35198976 .6796112 .32899476 .6796112 .30499269 .6796112 .2809906 .6786041 .25698854 .6786041 .23599243 .6786041 .21398926 .6796112 .19299317 .6796112 .17999268 .6796112 .12998963 .6826172 .1289978 .6826172 .114990238 .6826172 .10499573 .6756134 .10499573 .65460208 .10499573 .637619 .11898804 .637619 .13699341 .637619 .20098877 .637619 .20498657 .63061526 .21699524 .6086273L.3999939 .2738495 .35499574 .09095764C.34298707 .04598999 .33799745 .04499817 .2639923 .04499817 .24099732 .04499817 .22499085 .04499817 .22499085 .016998291 .22499085 .008987427 .23199463 0 .24299622 0 .2639923 0 .28799439 .0029907227 .30999757 .0029907227 .33399964 .0029907227 .35798646 .0039978029 .38198854 .0039978029 .40699769 .0039978029 .43099977 .0029907227 .45599366 .0029907227 .47799684 .0029907227 .5029907 0 .5239868 0 .5309906 0 .548996 0 .548996 .027999878 .548996 .04499817 .5349884 .04499817 .5159912 .04499817 .5139923 .04499817 .48999024 .04499817 .47299195 .04699707 .44799806 .04899597 .44699098 .049987794 .44699098 .0579834 .44699098 .064971927 .44699098 .066970828 .45899964 .111953739L.49899293 .2728424 .7969971 .55766299Z"/>
</defs>
<use data-text="&#x03b1;" xlink:href="#font_1_1" transform="matrix(9.963098,0,0,-9.962899,1.2163086,41.477888)"/>
<use data-text="Y" xlink:href="#font_2_4" transform="matrix(6.9741489,0,0,-6.9740097,7.58963,42.97193)"/>
<use data-text="f" xlink:href="#font_1_6" transform="matrix(9.963098,0,0,-9.962899,14.486969,41.477888)"/>
<use data-text="A" xlink:href="#font_2_2" transform="matrix(6.9741489,0,0,-6.9740097,19.364212,42.97193)"/>
<use data-text="=" xlink:href="#font_3_3" transform="matrix(9.963098,0,0,-9.962899,28.621689,41.477888)"/>
<use data-text="f" xlink:href="#font_1_6" transform="matrix(9.963098,0,0,-9.962899,39.138216,41.477888)"/>
<use data-text="B" xlink:href="#font_2_3" transform="matrix(6.9741489,0,0,-6.9740097,44.016466,42.97193)"/>
<use data-text="&#x03b1;" xlink:href="#font_1_1" transform="matrix(9.963098,0,0,-9.962899,50.873796,41.477888)"/>
<use data-text="B" xlink:href="#font_2_3" transform="matrix(6.9741489,0,0,-6.9740097,57.247117,42.97193)"/>
<use data-text="X" xlink:href="#font_1_4" transform="matrix(9.963098,0,0,-9.962899,91.40282,13.130035)"/>
<use data-text="(" xlink:href="#font_3_1" transform="matrix(9.963098,0,0,-9.962899,100.43826,13.130035)"/>
<use data-text="A" xlink:href="#font_1_2" transform="matrix(9.963098,0,0,-9.962899,104.31346,13.130035)"/>
<use data-text=")" xlink:href="#font_3_2" transform="matrix(9.963098,0,0,-9.962899,111.78584,13.130035)"/>
<use data-text="X" xlink:href="#font_1_4" transform="matrix(9.963098,0,0,-9.962899,91.1108,69.82574)"/>
<use data-text="(" xlink:href="#font_3_1" transform="matrix(9.963098,0,0,-9.962899,100.14625,69.82574)"/>
<use data-text="B" xlink:href="#font_1_3" transform="matrix(9.963098,0,0,-9.962899,104.02145,69.82574)"/>
<use data-text=")" xlink:href="#font_3_2" transform="matrix(9.963098,0,0,-9.962899,112.07786,69.82574)"/>
<use data-text="Y" xlink:href="#font_1_5" transform="matrix(9.963098,0,0,-9.962899,148.61768,13.130035)"/>
<use data-text="(" xlink:href="#font_3_1" transform="matrix(9.963098,0,0,-9.962899,156.61608,13.130035)"/>
<use data-text="A" xlink:href="#font_1_2" transform="matrix(9.963098,0,0,-9.962899,160.49027,13.130035)"/>
<use data-text=")" xlink:href="#font_3_2" transform="matrix(9.963098,0,0,-9.962899,167.96263,13.130035)"/>
<use data-text="Y" xlink:href="#font_1_5" transform="matrix(9.963098,0,0,-9.962899,148.32566,69.82574)"/>
<use data-text="(" xlink:href="#font_3_1" transform="matrix(9.963098,0,0,-9.962899,156.32407,69.82574)"/>
<use data-text="B" xlink:href="#font_1_3" transform="matrix(9.963098,0,0,-9.962899,160.19824,69.82574)"/>
<use data-text=")" xlink:href="#font_3_2" transform="matrix(9.963098,0,0,-9.962899,168.25464,69.82574)"/>
<path transform="matrix(1.00005,0,0,-1.00003,131.87984,67.33466)" stroke-width=".3985" stroke-linecap="butt" stroke-miterlimit="10" stroke-linejoin="miter" fill="none" stroke="#000000" d="M-12.69868 56.69362H10.15366"/>
<path transform="matrix(1.00005,0,0,-1.00003,140.31574,10.639343)" d="M4.21463 0 .64343 1.34572 1.8178 0 .64343-1.34572Z"/>
<path transform="matrix(1.00005,0,0,-1.00003,140.31574,10.639343)" stroke-width=".3985" stroke-linecap="butt" stroke-miterlimit="10" stroke-linejoin="miter" fill="none" stroke="#000000" d="M4.21463 0 .64343 1.34572 1.8178 0 .64343-1.34572Z"/>
<use data-text="f" xlink:href="#font_2_5" transform="matrix(6.9741489,0,0,-6.9740097,127.36661,5.763813)"/>
<use data-text="A" xlink:href="#font_4_1" transform="matrix(4.981549,0,0,-4.9814498,131.25081,6.764843)"/>
<path transform="matrix(1.00005,0,0,-1.00003,131.87984,67.33466)" stroke-width=".3985" stroke-linecap="butt" stroke-miterlimit="10" stroke-linejoin="miter" fill="none" stroke="#000000" d="M-12.40639 0H9.86134"/>
<path transform="matrix(1.00005,0,0,-1.00003,140.0234,67.33466)" d="M4.21463 0 .64343 1.34572 1.8178 0 .64343-1.34572Z"/>
<path transform="matrix(1.00005,0,0,-1.00003,140.0234,67.33466)" stroke-width=".3985" stroke-linecap="butt" stroke-miterlimit="10" stroke-linejoin="miter" fill="none" stroke="#000000" d="M4.21463 0 .64343 1.34572 1.8178 0 .64343-1.34572Z"/>
<use data-text="f" xlink:href="#font_2_5" transform="matrix(6.9741489,0,0,-6.9740097,127.248607,75.697917)"/>
<use data-text="B" xlink:href="#font_4_2" transform="matrix(4.981549,0,0,-4.9814498,131.13282,76.698947)"/>
<path transform="matrix(1.00005,0,0,-1.00003,131.87984,67.33466)" stroke-width=".3985" stroke-linecap="butt" stroke-miterlimit="10" stroke-linejoin="miter" fill="none" stroke="#000000" d="M-28.3468 48.19241V11.56511"/>
<path transform="matrix(0,1.00003,1.00005,0,103.531627,54.050966)" d="M4.21463 0 .64343 1.34572 1.8178 0 .64343-1.34572Z"/>
<path transform="matrix(0,1.00003,1.00005,0,103.531627,54.050966)" stroke-width=".3985" stroke-linecap="butt" stroke-miterlimit="10" stroke-linejoin="miter" fill="none" stroke="#000000" d="M4.21463 0 .64343 1.34572 1.8178 0 .64343-1.34572Z"/>
<use data-text="&#x03b1;" xlink:href="#font_2_1" transform="matrix(6.9741489,0,0,-6.9740097,88.40767,39.98784)"/>
<use data-text="X" xlink:href="#font_4_3" transform="matrix(4.981549,0,0,-4.9814498,93.58693,40.98887)"/>
<path transform="matrix(1.00005,0,0,-1.00003,131.87984,67.33466)" stroke-width=".3985" stroke-linecap="butt" stroke-miterlimit="10" stroke-linejoin="miter" fill="none" stroke="#000000" d="M28.3468 48.19241V11.56511"/>
<path transform="matrix(0,1.00003,1.00005,0,160.22806,54.050966)" d="M4.21463 0 .64343 1.34572 1.8178 0 .64343-1.34572Z"/>
<path transform="matrix(0,1.00003,1.00005,0,160.22806,54.050966)" stroke-width=".3985" stroke-linecap="butt" stroke-miterlimit="10" stroke-linejoin="miter" fill="none" stroke="#000000" d="M4.21463 0 .64343 1.34572 1.8178 0 .64343-1.34572Z"/>
<use data-text="&#x03b1;" xlink:href="#font_2_1" transform="matrix(6.9741489,0,0,-6.9740097,163.74843,39.98784)"/>
<use data-text="Y" xlink:href="#font_4_4" transform="matrix(4.981549,0,0,-4.9814498,168.92769,40.98887)"/>
</svg>
