<svg xmlns="http://www.w3.org/2000/svg" xmlns:xlink="http://www.w3.org/1999/xlink" xmlns:inkscape="http://www.inkscape.org/namespaces/inkscape" version="1.1" width="130" height="93" viewBox="0 0 130 93">
<defs>
<path id="font_1_1" d="M.37399293 .6056366C.3829956 .6416168 .38598634 .6516113 .46499635 .6516113 .4889984 .6516113 .49699403 .6516113 .49699403 .6706085 .49699403 .6826172 .48599244 .6826172 .48199464 .6826172 .45298768 .6826172 .3789978 .6796112 .34999085 .6796112 .31999208 .6796112 .24699402 .6826172 .21699524 .6826172 .20999146 .6826172 .19699097 .6826172 .19699097 .6626129 .19699097 .6516113 .20599365 .6516113 .22499085 .6516113 .2669983 .6516113 .2939911 .6516113 .2939911 .63261416 .2939911 .6276245 .2939911 .6256256 .2919922 .6166229L.15699768 .07795715C.147995 .040985109 .14498902 .0309906 .06599426 .0309906 .042999269 .0309906 .033996583 .0309906 .033996583 .010986328 .033996583 0 .04598999 0 .04899597 0 .07798767 0 .15098572 .0029907227 .17999268 .0029907227 .20999146 .0029907227 .28399659 0 .31399537 0 .32199098 0 .33399964 0 .33399964 .018997193 .33399964 .0309906 .32598878 .0309906 .3039856 .0309906 .28599549 .0309906 .2809906 .0309906 .26098634 .032989503 .23999024 .034988405 .23599243 .038986207 .23599243 .049987794 .23599243 .05796814 .23799134 .065963748 .23999024 .07296753L.37399293 .6056366Z"/>
<path id="font_2_1" d="M.3880005 .7514801C.3880005 .7624817 .37998963 .7714844 .36799623 .7714844 .35299684 .7714844 .34999085 .7604828 .34399415 .7394409 .33198548 .6993561 .34199525 .7344208 .33099366 .6943512 .31900025 .7003479 .2869873 .7153473 .25 .7153473 .19299317 .7153473 .12799073 .6853485 .09098816 .6083679 .051986696 .5273895 .04699707 .43740846 .04699707 .34443666 .04699707 .28146363 .04699707 .101501468 .13398743 .023529053 .11099243-.053604127 .11099243-.055618287 .11099243-.058624269 .11099243-.069625858 .11898804-.07862854 .1309967-.07862854 .1459961-.07862854 .14898682-.068618778 .15499878-.046569826 .16699219-.0064697267 .15699768-.041549684 .16799927-.0014648438 .19198609-.014465332 .22200012-.022460938 .24899292-.022460938 .36099244-.022460938 .40499879 .071517948 .4229889 .119506839 .44898988 .18948365 .45199586 .27246095 .45199586 .34443666 .45199586 .4184265 .45199586 .5843811 .36499024 .6673584L.3880005 .7514801M.14698792 .06951904C.11399841 .13848877 .11399841 .26145936 .11399841 .35643006 .11399841 .43740846 .11399841 .50639346 .12799073 .57037356 .14698792 .6633606 .20498657 .6933594 .25 .6933594 .269989 .6933594 .29599 .6873474 .32199098 .6653595L.14698792 .06951904M.35198976 .6253662C.3849945 .5673828 .3849945 .45141603 .3849945 .35643006 .3849945 .28346253 .3849945 .20947266 .37298585 .14248657 .35499574 .037521364 .3019867-.00047302247 .24899292-.00047302247 .22599793-.00047302247 .20199585 .007522583 .17799378 .028518677L.35198976 .6253662Z"/>
<path id="font_3_1" d="M.40899659 .23046875H.6879883C.70199587 .23046875 .72099307 .23046875 .72099307 .25045777 .72099307 .27046205 .70199587 .27046205 .6879883 .27046205H.40899659V.5500183C.40899659 .56399539 .40899659 .5830078 .3889923 .5830078 .36898805 .5830078 .36898805 .56399539 .36898805 .5500183V.27046205H.08898926C.07499695 .27046205 .055999757 .27046205 .055999757 .25045777 .055999757 .23046875 .07499695 .23046875 .08898926 .23046875H.36898805V-.05000305C.36898805-.06401062 .36898805-.08300781 .3889923-.08300781 .40899659-.08300781 .40899659-.06401062 .40899659-.05000305V.23046875Z"/>
<path id="font_4_1" d="M.35398866 .62316897C.35398866 .6452637 .35398866 .65527346 .32798768 .65527346 .31698609 .65527346 .31498719 .65527346 .30599977 .64826968 .22898865 .5909424 .12599182 .5909424 .10499573 .5909424H.084991458V.5439453H.10499573C.12098694 .5439453 .17599488 .54493716 .23498535 .5639343V.04699707H.09599304V0C.13999939 .0029907227 .24598694 .0029907227 .29499818 .0029907227 .34399415 .0029907227 .44999696 .0029907227 .49398805 0V.04699707H.35398866V.62316897Z"/>
<path id="font_1_2" d="M.28399659 .6252594C.28399659 .6452637 .269989 .6612549 .24699402 .6612549 .21998596 .6612549 .19299317 .6352539 .19299317 .6082611 .19299317 .5892639 .20698548 .5722656 .23098755 .5722656 .2539978 .5722656 .28399659 .5952606 .28399659 .6252594M.20799256 .24932862C.21998596 .27833558 .21998596 .28033448 .22999573 .30734254 .23799134 .3273468 .24299622 .34135438 .24299622 .36035157 .24299622 .405365 .21099854 .4423828 .16099549 .4423828 .066986087 .4423828 .0289917 .29733277 .0289917 .28833009 .0289917 .27833558 .038986207 .27833558 .040985109 .27833558 .050994874 .27833558 .051986696 .28033448 .056991579 .29634095 .083999637 .3903656 .12399292 .42037965 .1579895 .42037965 .1659851 .42037965 .18299866 .42037965 .18299866 .3883667 .18299866 .36735536 .17599488 .346344 .17199707 .3363495 .1639862 .31033326 .11898804 .19430542 .102996829 .1512909 .09298706 .12528992 .07998657 .0922699 .07998657 .0712738 .07998657 .024261475 .11399841-.0107421879 .1619873-.0107421879 .2559967-.0107421879 .29299928 .1342926 .29299928 .14329529 .29299928 .1532898 .28399659 .1532898 .2809906 .1532898 .2709961 .1532898 .2709961 .15029907 .2659912 .13528443 .24798584 .072265628 .21499634 .011245728 .1639862 .011245728 .14698792 .011245728 .13999939 .021255494 .13999939 .044265748 .13999939 .0692749 .1459961 .08326721 .16899109 .14428711L.20799256 .24932862Z"/>
<path id="font_5_2" d="M.33499146 .63612368C.33499146 .6630554 .33299256 .6640625 .30499269 .6640625 .24099732 .6014404 .1499939 .6004486 .10899353 .6004486V.5644531C.1329956 .5644531 .19898987 .5644531 .2539978 .592453V.08203125C.2539978 .04899597 .2539978 .035995485 .1539917 .035995485H.115997318V0C.13398743 .0009918213 .25698854 .0039978029 .2939911 .0039978029 .32499696 .0039978029 .45098878 .0009918213 .47299195 0V.035995485H.43499757C.33499146 .035995485 .33499146 .04899597 .33499146 .08203125V.63612368Z"/>
<path id="font_5_3" d="M.5049896 .18203736H.47099305C.46798707 .16001892 .45799256 .100997928 .44499208 .09098816 .43699647 .084991458 .3600006 .084991458 .34599305 .084991458H.1619873C.2669983 .17803955 .3019867 .20603943 .3619995 .25306703 .43598939 .312088 .5049896 .374115 .5049896 .46914674 .5049896 .5900879 .39898683 .6640625 .2709961 .6640625 .14698792 .6640625 .06298828 .57710269 .06298828 .4851532 .06298828 .43414308 .10598755 .42915345 .115997318 .42915345 .13999939 .42915345 .16899109 .44615174 .16899109 .48214723 .16899109 .5001526 .1619873 .53515627 .10998535 .53515627 .14099121 .6060791 .20899964 .62805178 .2559967 .62805178 .35598756 .62805178 .4079895 .5501404 .4079895 .46914674 .4079895 .38212586 .34599305 .3130951 .31399537 .27708436L.07299805 .038986207C.06298828 .02999878 .06298828 .027999878 .06298828 0H.47499085L.5049896 .18203736Z"/>
<path id="font_5_1" d="M.5159912 .31925965C.5159912 .42918397 .5029907 .50813296 .45700074 .5780945 .42599488 .62405398 .3639984 .6640625 .28399659 .6640625 .051986696 .6640625 .051986696 .39120484 .051986696 .31925965 .051986696 .2472992 .051986696-.01953125 .28399659-.01953125 .5159912-.01953125 .5159912 .2472992 .5159912 .31925965M.28399659 .008468628C.23799134 .008468628 .1769867 .035446168 .15699768 .117385867 .14299011 .17634583 .14299011 .25830079 .14299011 .33224488 .14299011 .40519715 .14299011 .4811554 .1579895 .53611758 .1789856 .6150665 .24299622 .63604739 .28399659 .63604739 .33799745 .63604739 .3899994 .6030731 .4079895 .545105 .42399598 .4911499 .4249878 .41918946 .4249878 .33224488 .4249878 .25830079 .4249878 .18434143 .4119873 .12138367 .3919983 .030441285 .32398988 .008468628 .28399659 .008468628Z"/>
<path id="font_1_3" d="M.39698792 .6252594C.39698792 .6442566 .3829956 .6612549 .35899354 .6612549 .33599855 .6612549 .30599977 .6382599 .30599977 .6082611 .30599977 .58825686 .31999208 .5722656 .34298707 .5722656 .36999513 .5722656 .39698792 .59825137 .39698792 .6252594M.19599915-.049926759C.1769867-.12594605 .1289978-.18309021 .07299805-.18309021 .066986087-.18309021 .051986696-.18309021 .033996583-.17396546 .06399536-.16694641 .07899475-.14094544 .07899475-.12094116 .07899475-.10494995 .067993167-.0859375 .040985109-.0859375 .015991211-.0859375-.013000488-.10694885-.013000488-.14294434-.013000488-.18309021 .026992798-.20507813 .07499695-.20507813 .14498902-.20507813 .23799134-.15194702 .2630005-.05291748L.35499574 .31330873C.3600006 .333313 .3600006 .34732057 .3600006 .35032655 .3600006 .4073639 .31799317 .4423828 .2679901 .4423828 .1659851 .4423828 .10899353 .29730226 .10899353 .2882843 .10899353 .2782898 .11898804 .2782898 .12098694 .2782898 .12998963 .2782898 .1309967 .27928163 .13899231 .29829408 .1639862 .35932923 .20999146 .42037965 .2649994 .42037965 .2789917 .42037965 .29699708 .41636659 .29699708 .37434388 .29699708 .35133363 .2939911 .34031678 .2899933 .32331849L.19599915-.049926759Z"/>
</defs>
<use data-text="I" xlink:href="#font_1_1" transform="matrix(9.962799,0,0,-9.963197,123.44817,50.20523)"/>
<use data-text="&#x2205;" xlink:href="#font_2_1" transform="matrix(9.962799,0,0,-9.963197,57.889863,50.122224)"/>
<use data-text="+" xlink:href="#font_3_1" transform="matrix(9.962799,0,0,-9.963197,65.08501,50.122224)"/>
<use data-text="1" xlink:href="#font_4_1" transform="matrix(9.962799,0,0,-9.963197,75.0472,50.122224)"/>
<use data-text="&#x2205;" xlink:href="#font_2_1" transform="matrix(9.962799,0,0,-9.963197,10.147903,21.912535)"/>
<use data-text="1" xlink:href="#font_4_1" transform="matrix(9.962799,0,0,-9.963197,9.774895,78.35992)"/>
<path transform="matrix(1.00002,0,0,-1.00006,12.638954,46.801027)" stroke-width=".3985" stroke-linecap="butt" stroke-miterlimit="10" stroke-linejoin="miter" fill="none" stroke="#000000" d="M6.0105 25.3421 39.94853 8.36842"/>
<path transform="matrix(.8943479,.4473068,.44728897,-.89438369,52.588285,38.432107)" d="M1.99252 0-1.19551 1.59401 0 0-1.19551-1.59401"/>
<use data-text="i" xlink:href="#font_1_2" transform="matrix(9.962799,0,0,-9.963197,32.55935,25.37574)"/>
<use data-text="1" xlink:href="#font_5_2" transform="matrix(6.97394,0,0,-6.9742186,35.991418,26.869832)"/>
<path transform="matrix(1.00002,0,0,-1.00006,12.638954,46.801027)" stroke-width=".3985" stroke-linecap="butt" stroke-miterlimit="10" stroke-linejoin="miter" fill="none" stroke="#000000" d="M6.3841-25.15535 39.94856-8.36845"/>
<path transform="matrix(.8943379,-.4473268,-.44730897,-.89437368,52.588308,55.169977)" d="M1.99252 0-1.19551 1.59401 0 0-1.19551-1.59401"/>
<use data-text="i" xlink:href="#font_1_2" transform="matrix(9.962799,0,0,-9.963197,32.745355,73.20961)"/>
<use data-text="2" xlink:href="#font_5_3" transform="matrix(6.97394,0,0,-6.9742186,36.17742,74.7037)"/>
<path transform="matrix(1.00002,0,0,-1.00006,12.638954,46.801027)" stroke-width=".3985" stroke-linecap="butt" stroke-miterlimit="10" stroke-linejoin="miter" fill="none" stroke="#000000" d="M0 20.81421V-19.62424"/>
<path transform="matrix(0,1.00006,1.00002,0,12.638954,66.426448)" d="M1.99252 0-1.19551 1.59401 0 0-1.19551-1.59401"/>
<use data-text="i" xlink:href="#font_1_2" transform="matrix(9.962799,0,0,-9.963197,1.2167282,49.740205)"/>
<use data-text="0" xlink:href="#font_5_1" transform="matrix(6.97394,0,0,-6.9742186,4.648796,51.23429)"/>
<path transform="matrix(1.00002,0,0,-1.00006,12.638954,46.801027)" stroke-width=".3985" stroke-linecap="butt" stroke-miterlimit="10" stroke-linejoin="miter" fill="none" stroke="#000000" d="M71.65672 0H105.29427"/>
<path transform="matrix(1.00002,0,0,-1.00006,117.93533,46.801027)" d="M1.99252 0-1.19551 1.59401 0 0-1.19551-1.59401"/>
<use data-text="j" xlink:href="#font_1_3" transform="matrix(9.962799,0,0,-9.963197,99.7757,41.343698)"/>
<path transform="matrix(1.00002,0,0,-1.00006,12.638954,46.801027)" stroke-width=".3985" stroke-linecap="butt" stroke-miterlimit="10" stroke-linejoin="miter" fill="none" stroke="#000000" d="M6.0105 30.06596C45.0775 41.69696 77.68047 33.91539 105.83965 7.26746"/>
<path transform="matrix(.72630456,.6873612,.68733379,-.72633358,118.480709,39.53312)" d="M1.99252 0-1.19551 1.59401 0 0-1.19551-1.59401"/>
<use data-text="j" xlink:href="#font_1_3" transform="matrix(9.962799,0,0,-9.963197,68.55008,8.49173)"/>
<use data-text="1" xlink:href="#font_5_2" transform="matrix(6.97394,0,0,-6.9742186,72.65216,9.985821)"/>
<path transform="matrix(1.00002,0,0,-1.00006,12.638954,46.801027)" stroke-width=".3985" stroke-linecap="butt" stroke-miterlimit="10" stroke-linejoin="miter" fill="none" stroke="#000000" d="M6.3841-30.17282C45.32791-41.68999 77.84064-33.86565 105.84216-7.27007"/>
<path transform="matrix(.72503456,-.6886713,-.68864378,-.72506347,118.48324,54.071535)" d="M1.99252 0-1.19551 1.59401 0 0-1.19551-1.59401"/>
<use data-text="j" xlink:href="#font_1_3" transform="matrix(9.962799,0,0,-9.963197,68.75108,89.7366)"/>
<use data-text="2" xlink:href="#font_5_3" transform="matrix(6.97394,0,0,-6.9742186,72.853168,91.23069)"/>
</svg>
