<svg xmlns="http://www.w3.org/2000/svg" xmlns:xlink="http://www.w3.org/1999/xlink" xmlns:inkscape="http://www.inkscape.org/namespaces/inkscape" version="1.1" width="131" height="77" viewBox="0 0 131 77">
<defs>
<path id="font_1_1" d="M.44400025 .24998474C.44400025 .35688783 .35499574 .44381715 .25 .44381715 .14199829 .44381715 .054992677 .35488893 .054992677 .24998474 .054992677 .14407349 .14199829 .056137086 .25 .056137086 .35499574 .056137086 .44400025 .14308167 .44400025 .24998474Z"/>
</defs>
<use data-text="&#x2022;" xlink:href="#font_1_1" transform="matrix(9.963397,0,0,-9.9626,36.690217,40.816)"/>
<use data-text="&#x2022;" xlink:href="#font_1_1" transform="matrix(9.963397,0,0,-9.9626,121.738018,40.816)"/>
<path transform="matrix(1.00008,0,0,-1,39.18141,123.642)" stroke-width=".3985" stroke-linecap="butt" stroke-miterlimit="10" stroke-linejoin="miter" fill="none" stroke="#000000" d="M-6.01039 83.4294C-47.08179 72.42345-47.08179 97.6548-8.89731 87.422"/>
<path transform="matrix(.96598729,.25882,.2588407,-.96591,30.28339,36.22)" d="M1.99252 0-1.19551 1.59401 0 0-1.19551-1.59401"/>
<path transform="matrix(1.00008,0,0,-1,39.18141,123.642)" stroke-width=".3985" stroke-linecap="butt" stroke-miterlimit="10" stroke-linejoin="miter" fill="none" stroke="#000000" d="M6.01039 88.50679C30.67044 102.74423 54.36865 102.74423 77.30315 89.50302"/>
<path transform="matrix(.8660793,.49998,.50001999,-.86601,116.49072,34.138978)" d="M1.99252 0-1.19551 1.59401 0 0-1.19551-1.59401"/>
<path transform="matrix(1.00008,0,0,-1,39.18141,123.642)" stroke-width=".3985" stroke-linecap="butt" stroke-miterlimit="10" stroke-linejoin="miter" fill="none" stroke="#000000" d="M79.02869 81.57114C54.36865 67.3337 30.67044 67.3337 7.73595 80.5749"/>
<path transform="matrix(-.8660793,-.49998,-.50001999,.86601,46.91799,43.0671)" d="M1.99252 0-1.19551 1.59401 0 0-1.19551-1.59401"/>
<path transform="matrix(1.00008,0,0,-1,39.18141,123.642)" stroke-width=".3985" stroke-linecap="butt" stroke-miterlimit="10" stroke-linejoin="miter" fill="none" stroke="#000000" d="M83.50264 90.77277C72.4976 131.84415 97.5806 131.84415 87.3488 93.65968"/>
<path transform="matrix(-.2588407,.96591,.96598729,.25882,126.5372,29.982316)" d="M1.99252 0-1.19551 1.59401 0 0-1.19551-1.59401"/>
<path transform="matrix(1.00008,0,0,-1,39.18141,123.642)" stroke-width=".3985" stroke-linecap="butt" stroke-miterlimit="10" stroke-linejoin="miter" fill="none" stroke="#000000" d="M86.57419 79.30544C97.5806 38.23405 72.4976 38.23405 82.73013 76.41852"/>
<path transform="matrix(.2588407,-.96591,-.96598729,-.25882,121.91816,47.22348)" d="M1.99252 0-1.19551 1.59401 0 0-1.19551-1.59401"/>
</svg>
