<svg xmlns="http://www.w3.org/2000/svg" xmlns:xlink="http://www.w3.org/1999/xlink" xmlns:inkscape="http://www.inkscape.org/namespaces/inkscape" version="1.1" width="259" height="135" viewBox="0 0 259 135">
<defs>
<path id="font_1_1" d="M.37298585 .37835694C.35499574 .41537477 .32598878 .4423828 .2809906 .4423828 .1639862 .4423828 .039993287 .29533387 .039993287 .14929199 .039993287 .055267335 .09498596-.0107421879 .17298889-.0107421879 .19299317-.0107421879 .24299622-.0067443849 .30299378 .06427002 .31098939 .022247315 .34599305-.0107421879 .3939972-.0107421879 .42900086-.0107421879 .45199586 .012252808 .46798707 .044265748 .4850006 .08027649 .49798585 .14129639 .49798585 .14329529 .49798585 .1532898 .4889984 .1532898 .48599244 .1532898 .47599793 .1532898 .47499085 .14929199 .47200013 .13528443 .45498658 .07026672 .43699647 .011245728 .3959961 .011245728 .36898805 .011245728 .3659973 .037261964 .3659973 .057266237 .3659973 .07926941 .36799623 .08728027 .3789978 .13128662 .3899994 .17329407 .3919983 .18330384 .40098573 .22131348L.43699647 .36135865C.44400025 .38935853 .44400025 .39135743 .44400025 .39537049 .44400025 .41236878 .43199159 .42237855 .4149933 .42237855 .3909912 .42237855 .37599183 .4003601 .37298585 .37835694M.30799867 .119277957C.30299378 .10127258 .30299378 .09927368 .28799439 .08227539 .24398804 .027252198 .20298767 .011245728 .1749878 .011245728 .125 .011245728 .11099243 .06626892 .11099243 .105285648 .11099243 .1552887 .14299011 .27833558 .1659851 .32434083 .19699097 .38336183 .24198914 .42037965 .28199769 .42037965 .34700013 .42037965 .36099244 .3383484 .36099244 .33235169 .36099244 .32633973 .35899354 .32034303 .35798646 .31533814L.30799867 .119277957Z"/>
<path id="font_2_1" d="M.5159912 .31925965C.5159912 .42918397 .5029907 .50813296 .45700074 .5780945 .42599488 .62405398 .3639984 .6640625 .28399659 .6640625 .051986696 .6640625 .051986696 .39120484 .051986696 .31925965 .051986696 .2472992 .051986696-.01953125 .28399659-.01953125 .5159912-.01953125 .5159912 .2472992 .5159912 .31925965M.28399659 .008468628C.23799134 .008468628 .1769867 .035446168 .15699768 .117385867 .14299011 .17634583 .14299011 .25830079 .14299011 .33224488 .14299011 .40519715 .14299011 .4811554 .1579895 .53611758 .1789856 .6150665 .24299622 .63604739 .28399659 .63604739 .33799745 .63604739 .3899994 .6030731 .4079895 .545105 .42399598 .4911499 .4249878 .41918946 .4249878 .33224488 .4249878 .25830079 .4249878 .18434143 .4119873 .12138367 .3919983 .030441285 .32398988 .008468628 .28399659 .008468628Z"/>
<path id="font_2_2" d="M.33499146 .63612368C.33499146 .6630554 .33299256 .6640625 .30499269 .6640625 .24099732 .6014404 .1499939 .6004486 .10899353 .6004486V.5644531C.1329956 .5644531 .19898987 .5644531 .2539978 .592453V.08203125C.2539978 .04899597 .2539978 .035995485 .1539917 .035995485H.115997318V0C.13398743 .0009918213 .25698854 .0039978029 .2939911 .0039978029 .32499696 .0039978029 .45098878 .0009918213 .47299195 0V.035995485H.43499757C.33499146 .035995485 .33499146 .04899597 .33499146 .08203125V.63612368Z"/>
<path id="font_2_3" d="M.5049896 .18203736H.47099305C.46798707 .16001892 .45799256 .100997928 .44499208 .09098816 .43699647 .084991458 .3600006 .084991458 .34599305 .084991458H.1619873C.2669983 .17803955 .3019867 .20603943 .3619995 .25306703 .43598939 .312088 .5049896 .374115 .5049896 .46914674 .5049896 .5900879 .39898683 .6640625 .2709961 .6640625 .14698792 .6640625 .06298828 .57710269 .06298828 .4851532 .06298828 .43414308 .10598755 .42915345 .115997318 .42915345 .13999939 .42915345 .16899109 .44615174 .16899109 .48214723 .16899109 .5001526 .1619873 .53515627 .10998535 .53515627 .14099121 .6060791 .20899964 .62805178 .2559967 .62805178 .35598756 .62805178 .4079895 .5501404 .4079895 .46914674 .4079895 .38212586 .34599305 .3130951 .31399537 .27708436L.07299805 .038986207C.06298828 .02999878 .06298828 .027999878 .06298828 0H.47499085L.5049896 .18203736Z"/>
<path id="font_2_4" d="M.272995 .33428956C.35099793 .33428956 .40699769 .2803192 .40699769 .1733551 .40699769 .04940796 .33499146 .012466431 .2769928 .012466431 .23699951 .012466431 .14898682 .0234375 .10699463 .082351688 .1539917 .084350589 .16499329 .11735535 .16499329 .13835144 .16499329 .17034912 .14099121 .19335938 .10998535 .19335938 .08198547 .19335938 .053985597 .17634583 .053985597 .13534546 .053985597 .041412355 .1579895-.01953125 .2789917-.01953125 .41799928-.01953125 .5139923 .07336426 .5139923 .1733551 .5139923 .2513275 .44999696 .32929994 .33999635 .35229493 .44499208 .39024354 .48298646 .4650879 .48298646 .5260773 .48298646 .60505679 .3919983 .6640625 .2809906 .6640625 .16999817 .6640625 .084991458 .61006167 .084991458 .5300751 .084991458 .49606324 .10699463 .47706605 .13699341 .47706605 .16799927 .47706605 .18798828 .5000763 .18798828 .5280762 .18798828 .5570679 .16799927 .57806399 .13699341 .5800781 .17199707 .62405398 .24099732 .63505557 .27799989 .63505557 .32299806 .63505557 .38598634 .6130676 .38598634 .5260773 .38598634 .48406983 .37199403 .43814088 .34599305 .4072113 .31298829 .36927796 .2849884 .3672943 .23498535 .36428834 .20999146 .3623047 .20799256 .3623047 .20298767 .3612976 .20098877 .3612976 .19299317 .3592987 .19299317 .34829713 .19299317 .33428956 .20199585 .33428956 .21899414 .33428956H.272995Z"/>
<path id="font_2_5" d="M.5289917 .1640625V.20005799H.41799928V.64582827C.41799928 .66682437 .41799928 .6738281 .3959961 .6738281 .38398744 .6738281 .37998963 .6738281 .36999513 .65982058L.038986207 .20005799V.1640625H.33299256V.08201599C.33299256 .04800415 .33299256 .035995485 .2519989 .035995485H.22499085V0C.2749939 .0019989014 .33898927 .0039978029 .375 .0039978029 .4119873 .0039978029 .47599793 .0019989014 .526001 0V.035995485H.49899293C.41799928 .035995485 .41799928 .04800415 .41799928 .08201599V.1640625H.5289917M.33999635 .5658722V.20005799H.07598877L.33999635 .5658722Z"/>
<path id="font_1_2" d="M.23899842 .68333438C.23899842 .6843262 .23899842 .69433596 .22599793 .69433596 .20298767 .69433596 .12998963 .6863251 .10398865 .6843262 .09599304 .68333438 .084991458 .6823273 .084991458 .6643219 .084991458 .6523285 .09399414 .6523285 .10899353 .6523285 .15699768 .6523285 .15899658 .6453247 .15899658 .6353302 .15899658 .6283264 .1499939 .5943451 .14498902 .573349L.06298828 .24731446C.050994874 .1973114 .04699707 .18130493 .04699707 .14628601 .04699707 .05126953 .099990848-.0107421879 .17399597-.0107421879 .2919922-.0107421879 .4149933 .1382904 .4149933 .28233338 .4149933 .37335206 .3619995 .4423828 .28199769 .4423828 .23599243 .4423828 .19499207 .41337586 .16499329 .38235475L.23899842 .68333438M.14498902 .30534364C.15098572 .3273468 .15098572 .3293457 .1599884 .3403473 .20899964 .405365 .2539978 .42037965 .27999879 .42037965 .31599427 .42037965 .34298707 .3903656 .34298707 .32633973 .34298707 .26733399 .30999757 .15229798 .2919922 .11428833 .25898744 .04725647 .21299744 .011245728 .17399597 .011245728 .13999939 .011245728 .10699463 .038253786 .10699463 .11227417 .10699463 .13128662 .10699463 .15029907 .12298584 .21331787L.14498902 .30534364Z"/>
<path id="font_3_107" d="M.5049896 .18203736H.47099305C.46798707 .16001892 .45799256 .100997928 .44499208 .09098816 .43699647 .084991458 .3600006 .084991458 .34599305 .084991458H.1619873C.2669983 .17803955 .3019867 .20603943 .3619995 .25306703 .43598939 .312088 .5049896 .374115 .5049896 .46914674 .5049896 .5900879 .39898683 .6640625 .2709961 .6640625 .14698792 .6640625 .06298828 .57710269 .06298828 .4851532 .06298828 .43414308 .10598755 .42915345 .115997318 .42915345 .13999939 .42915345 .16899109 .44615174 .16899109 .48214723 .16899109 .5001526 .1619873 .53515627 .10998535 .53515627 .14099121 .6060791 .20899964 .62805178 .2559967 .62805178 .35598756 .62805178 .4079895 .5501404 .4079895 .46914674 .4079895 .38212586 .34599305 .3130951 .31399537 .27708436L.07299805 .038986207C.06298828 .02999878 .06298828 .027999878 .06298828 0H.47499085L.5049896 .18203736Z"/>
<path id="font_3_66" d="M.27398683 0V.035995485C.21598816 .035995485 .20599365 .035995485 .20599365 .07803345V.44140626L.05899048 .43052674V.39453126C.12199402 .39453126 .1309967 .3885193 .1309967 .33952333V.07952881C.1309967 .035995485 .12098694 .035995485 .055999757 .035995485V0C.055999757 0 .12799073 .0039978029 .16799927 .0039978029 .20298767 .0039978029 .23899842 .0029907227 .27398683 0M.21899414 .60214236C.21899414 .6341553 .19400025 .66015627 .1619873 .66015627 .12799073 .66015627 .10499573 .6321411 .10499573 .6031494 .10499573 .57115176 .12998963 .54515078 .1619873 .54515078 .19599915 .54515078 .21899414 .57315066 .21899414 .60214236Z"/>
<path id="font_3_45" d="M.23098755 .005996704C.23098755 .06599426 .20799256 .114990238 .16099549 .114990238 .12599182 .114990238 .10398865 .08799744 .10398865 .056991579 .10398865 .032989503 .11999512 0 .1619873 0 .18699646 0 .20298767 .015991211 .20298767 .015991211 .20298767-.012023926 .20298767-.09617615 .125-.16729737 .12098694-.17131043 .117996219-.1743164 .117996219-.17932129 .117996219-.18533325 .125-.19433594 .13198853-.19433594 .14498902-.19433594 .23098755-.11520386 .23098755 .005996704Z"/>
<path id="font_3_82" d="M.47299195 0V.035995485H.43499757C.33499146 .035995485 .33499146 .048980714 .33499146 .081970218V.6357422C.33499146 .66304019 .33299256 .6640625 .30499269 .6640625 .24099732 .6007385 .1499939 .59973147 .10899353 .59973147V.5644531C.1329956 .5644531 .19898987 .5644531 .2539978 .592453V.08203125C.2539978 .04899597 .2539978 .035995485 .1539917 .035995485H.115997318V0L.2939911 .0039978029 .47299195 0Z"/>
<path id="font_3_81" d="M.5289917 .21325684C.5289917 .3382721 .42199708 .44628907 .28399659 .44628907 .1459961 .44628907 .038986207 .3382721 .038986207 .21325684 .038986207 .0892334 .14898682-.009765625 .28399659-.009765625 .4189911-.009765625 .5289917 .0892334 .5289917 .21325684M.43798829 .22225952C.43798829 .17424011 .43499757 .12124634 .4059906 .08023071 .3789978 .042236329 .33299256 .022232056 .28399659 .022232056 .24699402 .022232056 .19299317 .034225465 .1599884 .083236698 .1329956 .12423706 .12998963 .17625427 .12998963 .22225952 .12998963 .2652588 .1309967 .32426454 .1659851 .36727906 .19099427 .39627076 .23298645 .41827394 .28399659 .41827394 .34298707 .41827394 .3849945 .39027406 .40699769 .3592682 .43499757 .32026673 .43798829 .27026368 .43798829 .22225952Z"/>
<path id="font_4_27" d="M.71699526 0V.0309906H.69898989C.6389923 .0309906 .625 .037979127 .6139984 .07095337L.397995 .6958008C.3929901 .7088165 .3909912 .7158203 .375 .7158203 .35899354 .7158203 .35598756 .70980837 .35099793 .6958008L.14399719 .09791565C.12599182 .04698181 .085998538 .03199768 .03199768 .0309906V0L.13398743 .0029907227 .24899292 0V.0309906C.19898987 .0309906 .17399597 .05596924 .17399597 .0819397 .17399597 .08493042 .1749878 .09492493 .17599488 .09692383L.22200012 .2277832H.46899415L.5219879 .07495117C.522995 .07095337 .5249939 .064956668 .5249939 .060958864 .5249939 .0309906 .46899415 .0309906 .44198609 .0309906V0C.47799684 .0029907227 .5479889 .0029907227 .58599856 .0029907227L.71699526 0M.45799256 .25878907H.23298645L.34498597 .58380129 .45799256 .25878907Z"/>
<path id="font_4_34" d="M.651001 .18289185C.651001 .26983644 .56900027 .34480287 .45799256 .35679627 .5549927 .3757782 .6239929 .43974305 .6239929 .51368716 .6239929 .6006317 .5319977 .6826172 .4019928 .6826172H.035995485V.6516113H.05999756C.13699341 .6516113 .13899231 .64060977 .13899231 .6046295V.07795715C.13899231 .041992189 .13699341 .0309906 .05999756 .0309906H.035995485V0H.42799378C.5609894-.0002593994 .651001 .08874512 .651001 .18273926V.18289185M.5269928 .5136719C.5269928 .44970704 .47799684 .36573792 .36698915 .36573792H.22200012V.6116333C.22200012 .64460757 .22399903 .6516113 .2709961 .6516113H.394989C.49198915 .65174868 .5269928 .56674197 .5269928 .51374819V.5136719M.5509949 .18386841C.5509949 .1129303 .49899293 .0309906 .3959961 .0309906H.2709961C.22399903 .0309906 .22200012 .037994386 .22200012 .07095337V.34375H.4099884C.5089874 .34399415 .5509949 .25099183 .5509949 .18399048V.18386841Z"/>
</defs>
<path transform="matrix(1.00003,0,0,-1.00006,58.7912,76.3578)" stroke-width=".3985" stroke-linecap="butt" stroke-miterlimit="10" stroke-linejoin="miter" fill="none" stroke="#000000" d="M56.69363 0C56.69363 31.31142 31.31142 56.69363 0 56.69363-31.31142 56.69363-56.69363 31.31142-56.69363 0-56.69363-31.31142-31.31142-56.69363 0-56.69363 31.31142-56.69363 56.69363-31.31142 56.69363 0ZM0 0"/>
<path transform="matrix(1.00003,0,0,-1.00006,58.7912,76.3578)" stroke-width=".3985" stroke-linecap="butt" stroke-miterlimit="10" stroke-linejoin="miter" fill="none" stroke="#000000" d="M198.42768 0C198.42768 31.31142 173.04547 56.69363 141.73404 56.69363 110.42262 56.69363 85.0404 31.31142 85.0404 0 85.0404-31.31142 110.42262-56.69363 141.73404-56.69363 173.04547-56.69363 198.42768-31.31142 198.42768 0ZM141.73404 0"/>
<use data-text="a" xlink:href="#font_1_1" transform="matrix(9.962899,0,0,-9.963197,53.92305,49.40719)"/>
<use data-text="0" xlink:href="#font_2_1" transform="matrix(6.9740097,0,0,-6.9742186,59.189226,50.902284)"/>
<use data-text="a" xlink:href="#font_1_1" transform="matrix(9.962899,0,0,-9.963197,82.270908,77.75589)"/>
<use data-text="1" xlink:href="#font_2_2" transform="matrix(6.9740097,0,0,-6.9742186,87.53708,79.250988)"/>
<use data-text="a" xlink:href="#font_1_1" transform="matrix(9.962899,0,0,-9.963197,53.92305,106.103588)"/>
<use data-text="2" xlink:href="#font_2_3" transform="matrix(6.9740097,0,0,-6.9742186,59.189226,107.59868)"/>
<use data-text="a" xlink:href="#font_1_1" transform="matrix(9.962899,0,0,-9.963197,25.575196,77.75589)"/>
<use data-text="3" xlink:href="#font_2_4" transform="matrix(6.9740097,0,0,-6.9742186,30.84137,79.250988)"/>
<use data-text="a" xlink:href="#font_1_1" transform="matrix(9.962899,0,0,-9.963197,53.92305,77.75589)"/>
<use data-text="4" xlink:href="#font_2_5" transform="matrix(6.9740097,0,0,-6.9742186,59.189226,79.250988)"/>
<path transform="matrix(1.00003,0,0,-1.00006,58.7912,76.3578)" stroke-width=".3985" stroke-linecap="butt" stroke-miterlimit="10" stroke-linejoin="miter" fill="none" stroke="#000000" d="M198.42768 0C198.42768 31.31142 173.04547 56.69363 141.73404 56.69363 110.42262 56.69363 85.0404 31.31142 85.0404 0 85.0404-31.31142 110.42262-56.69363 141.73404-56.69363 173.04547-56.69363 198.42768-31.31142 198.42768 0ZM141.73404 0"/>
<use data-text="b" xlink:href="#font_1_2" transform="matrix(9.962899,0,0,-9.963197,196.15732,50.721269)"/>
<use data-text="0" xlink:href="#font_2_1" transform="matrix(6.9740097,0,0,-6.9742186,200.43245,52.216363)"/>
<use data-text="b" xlink:href="#font_1_2" transform="matrix(9.962899,0,0,-9.963197,224.50417,79.06996)"/>
<use data-text="1" xlink:href="#font_2_2" transform="matrix(6.9740097,0,0,-6.9742186,228.7793,80.56506)"/>
<use data-text="b" xlink:href="#font_1_2" transform="matrix(9.962899,0,0,-9.963197,196.15732,107.41866)"/>
<use data-text="2" xlink:href="#font_2_3" transform="matrix(6.9740097,0,0,-6.9742186,200.43245,108.91376)"/>
<use data-text="b" xlink:href="#font_1_2" transform="matrix(9.962899,0,0,-9.963197,167.80948,79.06996)"/>
<use data-text="3" xlink:href="#font_2_4" transform="matrix(6.9740097,0,0,-6.9742186,172.0846,80.56506)"/>
<use data-text="b" xlink:href="#font_1_2" transform="matrix(9.962899,0,0,-9.963197,196.15732,79.06996)"/>
<use data-text="4" xlink:href="#font_2_5" transform="matrix(6.9740097,0,0,-6.9742186,200.43245,80.56506)"/>
<path transform="matrix(1.00003,0,0,-1.00006,58.7912,76.3578)" stroke-width=".3985" stroke-linecap="butt" stroke-miterlimit="10" stroke-linejoin="miter" fill="none" stroke="#000000" d="M8.38762 26.09964C18.4144 22.99889 24.30095 16.64557 25.94948 9.39919"/>
<path transform="matrix(.22179666,.9750985,.9750693,-.2218033,84.36037,65.28266)" d="M4.21463 0 .64343 1.34572 1.8178 0 .64343-1.34572Z"/>
<path transform="matrix(.22179666,.9750985,.9750693,-.2218033,84.36037,65.28266)" stroke-width=".3985" stroke-linecap="butt" stroke-miterlimit="10" stroke-linejoin="miter" fill="none" stroke="#000000" d="M4.21463 0 .64343 1.34572 1.8178 0 .64343-1.34572Z"/>
<path transform="matrix(1.00003,0,0,-1.00006,58.7912,76.3578)" stroke-width=".3985" stroke-linecap="butt" stroke-miterlimit="10" stroke-linejoin="miter" fill="none" stroke="#000000" d="M26.62901-6.41176C24.30095-16.64557 18.4144-22.99889 11.31464-25.19453"/>
<path transform="matrix(-.9553487,.2954277,.2954189,.9553773,71.747638,101.04625)" d="M4.21463 0 .64343 1.34572 1.8178 0 .64343-1.34572Z"/>
<path transform="matrix(-.9553487,.2954277,.2954189,.9553773,71.747638,101.04625)" stroke-width=".3985" stroke-linecap="butt" stroke-miterlimit="10" stroke-linejoin="miter" fill="none" stroke="#000000" d="M4.21463 0 .64343 1.34572 1.8178 0 .64343-1.34572Z"/>
<path transform="matrix(1.00003,0,0,-1.00006,58.7912,76.3578)" stroke-width=".3985" stroke-linecap="butt" stroke-miterlimit="10" stroke-linejoin="miter" fill="none" stroke="#000000" d="M-8.38762-26.09964C-18.4144-22.99889-24.30095-16.64557-25.94948-9.39919"/>
<path transform="matrix(-.22179666,-.9750985,-.9750693,.2218033,33.22203,87.432949)" d="M4.21463 0 .64343 1.34572 1.8178 0 .64343-1.34572Z"/>
<path transform="matrix(-.22179666,-.9750985,-.9750693,.2218033,33.22203,87.432949)" stroke-width=".3985" stroke-linecap="butt" stroke-miterlimit="10" stroke-linejoin="miter" fill="none" stroke="#000000" d="M4.21463 0 .64343 1.34572 1.8178 0 .64343-1.34572Z"/>
<path transform="matrix(1.00003,0,0,-1.00006,58.7912,76.3578)" stroke-width=".3985" stroke-linecap="butt" stroke-miterlimit="10" stroke-linejoin="miter" fill="none" stroke="#000000" d="M-26.62901 6.41176C-24.30095 16.64557-18.4144 22.99889-11.31464 25.19453"/>
<path transform="matrix(.9553487,-.2954277,-.2954189,-.9553773,45.83476,51.669355)" d="M4.21463 0 .64343 1.34572 1.8178 0 .64343-1.34572Z"/>
<path transform="matrix(.9553487,-.2954277,-.2954189,-.9553773,45.83476,51.669355)" stroke-width=".3985" stroke-linecap="butt" stroke-miterlimit="10" stroke-linejoin="miter" fill="none" stroke="#000000" d="M4.21463 0 .64343 1.34572 1.8178 0 .64343-1.34572Z"/>
<path transform="matrix(1.00003,0,0,-1.00006,58.7912,76.3578)" stroke-width=".3985" stroke-linecap="butt" stroke-miterlimit="10" stroke-linejoin="miter" fill="none" stroke="#000000" d="M0-21.93503V-9.47568"/>
<path transform="matrix(0,-1.00006,-1.00003,-0,58.7912,87.55234)" d="M4.21463 0 .64343 1.34572 1.8178 0 .64343-1.34572Z"/>
<path transform="matrix(0,-1.00006,-1.00003,-0,58.7912,87.55234)" stroke-width=".3985" stroke-linecap="butt" stroke-miterlimit="10" stroke-linejoin="miter" fill="none" stroke="#000000" d="M4.21463 0 .64343 1.34572 1.8178 0 .64343-1.34572Z"/>
<path transform="matrix(1.00003,0,0,-1.00006,58.7912,76.3578)" stroke-width=".3985" stroke-linecap="butt" stroke-miterlimit="10" stroke-linejoin="miter" fill="none" stroke="#000000" d="M0 6.41176V18.87112"/>
<path transform="matrix(0,-1.00006,-1.00003,-0,58.7912,59.203836)" d="M4.21463 0 .64343 1.34572 1.8178 0 .64343-1.34572Z"/>
<path transform="matrix(0,-1.00006,-1.00003,-0,58.7912,59.203836)" stroke-width=".3985" stroke-linecap="butt" stroke-miterlimit="10" stroke-linejoin="miter" fill="none" stroke="#000000" d="M4.21463 0 .64343 1.34572 1.8178 0 .64343-1.34572Z"/>
<path transform="matrix(1.00003,0,0,-1.00006,58.7912,76.3578)" stroke-width=".3985" stroke-linecap="butt" stroke-miterlimit="10" stroke-linejoin="miter" fill="none" stroke="#000000" d="M149.6264 26.23233C159.4608 23.56236 165.40592 17.57811 167.22774 10.68834"/>
<path transform="matrix(.2556077,.966808,.96677908,-.25561533,225.58478,64.00766)" d="M4.21463 0 .64343 1.34572 1.8178 0 .64343-1.34572Z"/>
<path transform="matrix(.2556077,.966808,.96677908,-.25561533,225.58478,64.00766)" stroke-width=".3985" stroke-linecap="butt" stroke-miterlimit="10" stroke-linejoin="miter" fill="none" stroke="#000000" d="M4.21463 0 .64343 1.34572 1.8178 0 .64343-1.34572Z"/>
<path transform="matrix(1.00003,0,0,-1.00006,58.7912,76.3578)" stroke-width=".3985" stroke-linecap="butt" stroke-miterlimit="10" stroke-linejoin="miter" fill="none" stroke="#000000" d="M133.84168 26.23233C124.0073 23.56236 118.06218 17.57811 116.24034 10.68834"/>
<path transform="matrix(-.2556077,.966808,.96677908,.25561533,175.4742,64.00766)" d="M4.21463 0 .64343 1.34572 1.8178 0 .64343-1.34572Z"/>
<path transform="matrix(-.2556077,.966808,.96677908,.25561533,175.4742,64.00766)" stroke-width=".3985" stroke-linecap="butt" stroke-miterlimit="10" stroke-linejoin="miter" fill="none" stroke="#000000" d="M4.21463 0 .64343 1.34572 1.8178 0 .64343-1.34572Z"/>
<path transform="matrix(1.00003,0,0,-1.00006,58.7912,76.3578)" stroke-width=".3985" stroke-linecap="butt" stroke-miterlimit="10" stroke-linejoin="miter" fill="none" stroke="#000000" d="M168.01088-7.7263C165.40592-17.57811 159.4608-23.56236 152.5832-25.42966"/>
<path transform="matrix(-.965069,.2619957,.26198787,.9650979,213.03717,101.33884)" d="M4.21463 0 .64343 1.34572 1.8178 0 .64343-1.34572Z"/>
<path transform="matrix(-.965069,.2619957,.26198787,.9650979,213.03717,101.33884)" stroke-width=".3985" stroke-linecap="butt" stroke-miterlimit="10" stroke-linejoin="miter" fill="none" stroke="#000000" d="M4.21463 0 .64343 1.34572 1.8178 0 .64343-1.34572Z"/>
<path transform="matrix(1.00003,0,0,-1.00006,58.7912,76.3578)" stroke-width=".3985" stroke-linecap="butt" stroke-miterlimit="10" stroke-linejoin="miter" fill="none" stroke="#000000" d="M115.45721-7.7263C118.06218-17.57811 124.0073-23.56236 130.88488-25.42966"/>
<path transform="matrix(.965069,.2619957,.26198787,-.9650979,188.02182,101.33884)" d="M4.21463 0 .64343 1.34572 1.8178 0 .64343-1.34572Z"/>
<path transform="matrix(.965069,.2619957,.26198787,-.9650979,188.02182,101.33884)" stroke-width=".3985" stroke-linecap="butt" stroke-miterlimit="10" stroke-linejoin="miter" fill="none" stroke="#000000" d="M4.21463 0 .64343 1.34572 1.8178 0 .64343-1.34572Z"/>
<path transform="matrix(1.00003,0,0,-1.00006,58.7912,76.3578)" stroke-width=".3985" stroke-linecap="butt" stroke-miterlimit="10" stroke-linejoin="miter" fill="none" stroke="#000000" d="M141.73404-20.62048V-10.79022"/>
<path transform="matrix(0,-1.00006,-1.00003,-0,200.5295,88.86695)" d="M4.21463 0 .64343 1.34572 1.8178 0 .64343-1.34572Z"/>
<path transform="matrix(0,-1.00006,-1.00003,-0,200.5295,88.86695)" stroke-width=".3985" stroke-linecap="butt" stroke-miterlimit="10" stroke-linejoin="miter" fill="none" stroke="#000000" d="M4.21463 0 .64343 1.34572 1.8178 0 .64343-1.34572Z"/>
<path transform="matrix(1.00003,0,0,-1.00006,58.7912,76.3578)" stroke-width=".3985" stroke-linecap="butt" stroke-miterlimit="10" stroke-linejoin="miter" fill="none" stroke="#000000" d="M141.73404 7.7263V17.55658"/>
<path transform="matrix(0,-1.00006,-1.00003,-0,200.5295,60.518476)" d="M4.21463 0 .64343 1.34572 1.8178 0 .64343-1.34572Z"/>
<path transform="matrix(0,-1.00006,-1.00003,-0,200.5295,60.518476)" stroke-width=".3985" stroke-linecap="butt" stroke-miterlimit="10" stroke-linejoin="miter" fill="none" stroke="#000000" d="M4.21463 0 .64343 1.34572 1.8178 0 .64343-1.34572Z"/>
<use data-text="2" xlink:href="#font_3_107" transform="matrix(6.9740097,0,0,-6.9742186,56.25512,41.143693)" fill="#ff0000"/>
<use data-text="i" xlink:href="#font_3_66" transform="matrix(6.9740097,0,0,-6.9742186,60.223337,41.143693)" fill="#ff0000"/>
<use data-text="," xlink:href="#font_3_45" transform="matrix(6.9740097,0,0,-6.9742186,62.47593,41.143693)" fill="#ff0000"/>
<use data-text="1" xlink:href="#font_3_82" transform="matrix(6.9740097,0,0,-6.9742186,64.72854,41.143693)" fill="#ff0000"/>
<use data-text="o" xlink:href="#font_3_81" transform="matrix(6.9740097,0,0,-6.9742186,68.696758,41.143693)" fill="#ff0000"/>
<use data-text="1" xlink:href="#font_3_82" transform="matrix(6.9740097,0,0,-6.9742186,87.43806,72.32756)" fill="#ff0000"/>
<use data-text="i" xlink:href="#font_3_66" transform="matrix(6.9740097,0,0,-6.9742186,91.40627,72.32756)" fill="#ff0000"/>
<use data-text="," xlink:href="#font_3_45" transform="matrix(6.9740097,0,0,-6.9742186,93.65887,72.32756)" fill="#ff0000"/>
<use data-text="1" xlink:href="#font_3_82" transform="matrix(6.9740097,0,0,-6.9742186,95.911479,72.32756)" fill="#ff0000"/>
<use data-text="o" xlink:href="#font_3_81" transform="matrix(6.9740097,0,0,-6.9742186,99.87969,72.32756)" fill="#ff0000"/>
<use data-text="1" xlink:href="#font_3_82" transform="matrix(6.9740097,0,0,-6.9742186,44.91678,114.85011)" fill="#ff0000"/>
<use data-text="i" xlink:href="#font_3_66" transform="matrix(6.9740097,0,0,-6.9742186,48.884996,114.85011)" fill="#ff0000"/>
<use data-text="," xlink:href="#font_3_45" transform="matrix(6.9740097,0,0,-6.9742186,51.13759,114.85011)" fill="#ff0000"/>
<use data-text="2" xlink:href="#font_3_107" transform="matrix(6.9740097,0,0,-6.9742186,53.390199,114.85011)" fill="#ff0000"/>
<use data-text="o" xlink:href="#font_3_81" transform="matrix(6.9740097,0,0,-6.9742186,57.358415,114.85011)" fill="#ff0000"/>
<use data-text="1" xlink:href="#font_3_82" transform="matrix(6.9740097,0,0,-6.9742186,13.733841,83.666248)" fill="#ff0000"/>
<use data-text="i" xlink:href="#font_3_66" transform="matrix(6.9740097,0,0,-6.9742186,17.702057,83.666248)" fill="#ff0000"/>
<use data-text="," xlink:href="#font_3_45" transform="matrix(6.9740097,0,0,-6.9742186,19.95465,83.666248)" fill="#ff0000"/>
<use data-text="1" xlink:href="#font_3_82" transform="matrix(6.9740097,0,0,-6.9742186,22.20726,83.666248)" fill="#ff0000"/>
<use data-text="o" xlink:href="#font_3_81" transform="matrix(6.9740097,0,0,-6.9742186,26.175477,83.666248)" fill="#ff0000"/>
<use data-text="1" xlink:href="#font_3_82" transform="matrix(6.9740097,0,0,-6.9742186,59.09021,72.32756)" fill="#ff0000"/>
<use data-text="i" xlink:href="#font_3_66" transform="matrix(6.9740097,0,0,-6.9742186,63.058427,72.32756)" fill="#ff0000"/>
<use data-text="," xlink:href="#font_3_45" transform="matrix(6.9740097,0,0,-6.9742186,65.31102,72.32756)" fill="#ff0000"/>
<use data-text="1" xlink:href="#font_3_82" transform="matrix(6.9740097,0,0,-6.9742186,67.56363,72.32756)" fill="#ff0000"/>
<use data-text="o" xlink:href="#font_3_81" transform="matrix(6.9740097,0,0,-6.9742186,71.531848,72.32756)" fill="#ff0000"/>
<use data-text="1" xlink:href="#font_3_82" transform="matrix(6.9740097,0,0,-6.9742186,197.99338,41.143693)" fill="#ff0000"/>
<use data-text="i" xlink:href="#font_3_66" transform="matrix(6.9740097,0,0,-6.9742186,201.9616,41.143693)" fill="#ff0000"/>
<use data-text="," xlink:href="#font_3_45" transform="matrix(6.9740097,0,0,-6.9742186,204.21419,41.143693)" fill="#ff0000"/>
<use data-text="2" xlink:href="#font_3_107" transform="matrix(6.9740097,0,0,-6.9742186,206.4668,41.143693)" fill="#ff0000"/>
<use data-text="o" xlink:href="#font_3_81" transform="matrix(6.9740097,0,0,-6.9742186,210.43502,41.143693)" fill="#ff0000"/>
<use data-text="1" xlink:href="#font_3_82" transform="matrix(6.9740097,0,0,-6.9742186,229.17632,72.32756)" fill="#ff0000"/>
<use data-text="i" xlink:href="#font_3_66" transform="matrix(6.9740097,0,0,-6.9742186,233.14453,72.32756)" fill="#ff0000"/>
<use data-text="," xlink:href="#font_3_45" transform="matrix(6.9740097,0,0,-6.9742186,235.39713,72.32756)" fill="#ff0000"/>
<use data-text="1" xlink:href="#font_3_82" transform="matrix(6.9740097,0,0,-6.9742186,237.64974,72.32756)" fill="#ff0000"/>
<use data-text="o" xlink:href="#font_3_81" transform="matrix(6.9740097,0,0,-6.9742186,241.61795,72.32756)" fill="#ff0000"/>
<use data-text="2" xlink:href="#font_3_107" transform="matrix(6.9740097,0,0,-6.9742186,186.65503,114.85011)" fill="#ff0000"/>
<use data-text="i" xlink:href="#font_3_66" transform="matrix(6.9740097,0,0,-6.9742186,190.62326,114.85011)" fill="#ff0000"/>
<use data-text="," xlink:href="#font_3_45" transform="matrix(6.9740097,0,0,-6.9742186,192.87586,114.85011)" fill="#ff0000"/>
<use data-text="1" xlink:href="#font_3_82" transform="matrix(6.9740097,0,0,-6.9742186,195.12845,114.85011)" fill="#ff0000"/>
<use data-text="o" xlink:href="#font_3_81" transform="matrix(6.9740097,0,0,-6.9742186,199.09668,114.85011)" fill="#ff0000"/>
<use data-text="1" xlink:href="#font_3_82" transform="matrix(6.9740097,0,0,-6.9742186,155.4721,83.666248)" fill="#ff0000"/>
<use data-text="i" xlink:href="#font_3_66" transform="matrix(6.9740097,0,0,-6.9742186,159.44033,83.666248)" fill="#ff0000"/>
<use data-text="," xlink:href="#font_3_45" transform="matrix(6.9740097,0,0,-6.9742186,161.69292,83.666248)" fill="#ff0000"/>
<use data-text="1" xlink:href="#font_3_82" transform="matrix(6.9740097,0,0,-6.9742186,163.94553,83.666248)" fill="#ff0000"/>
<use data-text="o" xlink:href="#font_3_81" transform="matrix(6.9740097,0,0,-6.9742186,167.91374,83.666248)" fill="#ff0000"/>
<use data-text="1" xlink:href="#font_3_82" transform="matrix(6.9740097,0,0,-6.9742186,200.82848,72.32756)" fill="#ff0000"/>
<use data-text="i" xlink:href="#font_3_66" transform="matrix(6.9740097,0,0,-6.9742186,204.79669,72.32756)" fill="#ff0000"/>
<use data-text="," xlink:href="#font_3_45" transform="matrix(6.9740097,0,0,-6.9742186,207.04929,72.32756)" fill="#ff0000"/>
<use data-text="1" xlink:href="#font_3_82" transform="matrix(6.9740097,0,0,-6.9742186,209.3019,72.32756)" fill="#ff0000"/>
<use data-text="o" xlink:href="#font_3_81" transform="matrix(6.9740097,0,0,-6.9742186,213.27011,72.32756)" fill="#ff0000"/>
<path transform="matrix(1.00003,0,0,-1.00006,58.7912,76.3578)" stroke-width=".3985" stroke-linecap="butt" stroke-miterlimit="10" stroke-linejoin="miter" fill="none" stroke="#ff0000" d="M17.18205 30.3393 121.8886-28.83199"/>
<path transform="matrix(.8705662,.4919895,.49197478,-.87059226,179.18764,104.34619)" d="M4.21463 0 .64343 1.34572 1.8178 0 .64343-1.34572Z" fill="#ff0000"/>
<path transform="matrix(.8705662,.4919895,.49197478,-.87059226,179.18764,104.34619)" stroke-width=".3985" stroke-linecap="butt" stroke-miterlimit="10" stroke-linejoin="miter" fill="none" stroke="#ff0000" d="M4.21463 0 .64343 1.34572 1.8178 0 .64343-1.34572Z"/>
<path transform="matrix(1.00003,0,0,-1.00006,58.7912,76.3578)" stroke-width=".3985" stroke-linecap="butt" stroke-miterlimit="10" stroke-linejoin="miter" fill="none" stroke="#ff0000" d="M6.05537-31.21652 132.91835 29.88353"/>
<path transform="matrix(.9009371,-.43392603,-.43391303,-.900964,190.16558,47.218057)" d="M4.21463 0 .64343 1.34572 1.8178 0 .64343-1.34572Z" fill="#ff0000"/>
<path transform="matrix(.9009371,-.43392603,-.43391303,-.900964,190.16558,47.218057)" stroke-width=".3985" stroke-linecap="butt" stroke-miterlimit="10" stroke-linejoin="miter" fill="none" stroke="#ff0000" d="M4.21463 0 .64343 1.34572 1.8178 0 .64343-1.34572Z"/>
<use data-text="A" xlink:href="#font_4_27" transform="matrix(9.962899,0,0,-9.963197,55.055086,9.053764)"/>
<use data-text="B" xlink:href="#font_4_34" transform="matrix(9.962899,0,0,-9.963197,197.00235,8.888763)"/>
</svg>
