<svg xmlns="http://www.w3.org/2000/svg" xmlns:xlink="http://www.w3.org/1999/xlink" xmlns:inkscape="http://www.inkscape.org/namespaces/inkscape" version="1.1" width="429" height="372" viewBox="0 0 429 372">
<defs>
<path id="font_1_1" d="M.33399964 .30233766C.33999635 .32835389 .36299134 .42037965 .43299867 .42037965 .43798829 .42037965 .46199037 .42037965 .48298646 .40734864 .45498658 .402359 .43499757 .37734986 .43499757 .35334779 .43499757 .33735658 .44599916 .31835938 .47299195 .31835938 .49499513 .31835938 .5269928 .3363495 .5269928 .37635804 .5269928 .42837525 .46798707 .4423828 .43399049 .4423828 .37599183 .4423828 .34098817 .38935853 .32899476 .36634828 .3039856 .43237306 .25 .4423828 .22099304 .4423828 .116989139 .4423828 .05999756 .3133545 .05999756 .28834535 .05999756 .27833558 .069992069 .27833558 .07199097 .27833558 .07998657 .27833558 .08299255 .28033448 .084991458 .28933717 .11898804 .39535523 .18499756 .42037965 .21899414 .42037965 .23799134 .42037965 .272995 .4113617 .272995 .35334779 .272995 .32235719 .2559967 .25532533 .21899414 .11528015 .20298767 .053268434 .16799927 .011245728 .12399292 .011245728 .117996219 .011245728 .09498596 .011245728 .07398987 .024276734 .09899902 .029266358 .12098694 .05027771 .12098694 .07827759 .12098694 .105270389 .09899902 .11328125 .083999637 .11328125 .053985597 .11328125 .0289917 .08728027 .0289917 .055267335 .0289917 .009246826 .07899475-.0107421879 .12298584-.0107421879 .18899536-.0107421879 .22499085 .059280397 .22799683 .0652771 .23999024 .028274537 .27598573-.0107421879 .33599855-.0107421879 .43899537-.0107421879 .49598695 .118270877 .49598695 .14328003 .49598695 .1532898 .4869995 .1532898 .48399354 .1532898 .47499085 .1532898 .47299195 .14929199 .47099305 .14228821 .43798829 .03527832 .36999513 .011245728 .33799745 .011245728 .29899598 .011245728 .2829895 .043273927 .2829895 .07727051 .2829895 .09927368 .2889862 .121276859 .2999878 .16529846L.33399964 .30233766Z"/>
<path id="font_2_1" d="M.33499146 .63612368C.33499146 .6630554 .33299256 .6640625 .30499269 .6640625 .24099732 .6014404 .1499939 .6004486 .10899353 .6004486V.5644531C.1329956 .5644531 .19898987 .5644531 .2539978 .592453V.08203125C.2539978 .04899597 .2539978 .035995485 .1539917 .035995485H.115997318V0C.13398743 .0009918213 .25698854 .0039978029 .2939911 .0039978029 .32499696 .0039978029 .45098878 .0009918213 .47299195 0V.035995485H.43499757C.33499146 .035995485 .33499146 .04899597 .33499146 .08203125V.63612368Z"/>
<path id="font_2_2" d="M.5049896 .18203736H.47099305C.46798707 .16001892 .45799256 .100997928 .44499208 .09098816 .43699647 .084991458 .3600006 .084991458 .34599305 .084991458H.1619873C.2669983 .17803955 .3019867 .20603943 .3619995 .25306703 .43598939 .312088 .5049896 .374115 .5049896 .46914674 .5049896 .5900879 .39898683 .6640625 .2709961 .6640625 .14698792 .6640625 .06298828 .57710269 .06298828 .4851532 .06298828 .43414308 .10598755 .42915345 .115997318 .42915345 .13999939 .42915345 .16899109 .44615174 .16899109 .48214723 .16899109 .5001526 .1619873 .53515627 .10998535 .53515627 .14099121 .6060791 .20899964 .62805178 .2559967 .62805178 .35598756 .62805178 .4079895 .5501404 .4079895 .46914674 .4079895 .38212586 .34599305 .3130951 .31399537 .27708436L.07299805 .038986207C.06298828 .02999878 .06298828 .027999878 .06298828 0H.47499085L.5049896 .18203736Z"/>
<path id="font_2_3" d="M.272995 .33428956C.35099793 .33428956 .40699769 .2803192 .40699769 .1733551 .40699769 .04940796 .33499146 .012466431 .2769928 .012466431 .23699951 .012466431 .14898682 .0234375 .10699463 .082351688 .1539917 .084350589 .16499329 .11735535 .16499329 .13835144 .16499329 .17034912 .14099121 .19335938 .10998535 .19335938 .08198547 .19335938 .053985597 .17634583 .053985597 .13534546 .053985597 .041412355 .1579895-.01953125 .2789917-.01953125 .41799928-.01953125 .5139923 .07336426 .5139923 .1733551 .5139923 .2513275 .44999696 .32929994 .33999635 .35229493 .44499208 .39024354 .48298646 .4650879 .48298646 .5260773 .48298646 .60505679 .3919983 .6640625 .2809906 .6640625 .16999817 .6640625 .084991458 .61006167 .084991458 .5300751 .084991458 .49606324 .10699463 .47706605 .13699341 .47706605 .16799927 .47706605 .18798828 .5000763 .18798828 .5280762 .18798828 .5570679 .16799927 .57806399 .13699341 .5800781 .17199707 .62405398 .24099732 .63505557 .27799989 .63505557 .32299806 .63505557 .38598634 .6130676 .38598634 .5260773 .38598634 .48406983 .37199403 .43814088 .34599305 .4072113 .31298829 .36927796 .2849884 .3672943 .23498535 .36428834 .20999146 .3623047 .20799256 .3623047 .20298767 .3612976 .20098877 .3612976 .19299317 .3592987 .19299317 .34829713 .19299317 .33428956 .20199585 .33428956 .21899414 .33428956H.272995Z"/>
<path id="font_2_4" d="M.5289917 .1640625V.20005799H.41799928V.64582827C.41799928 .66682437 .41799928 .6738281 .3959961 .6738281 .38398744 .6738281 .37998963 .6738281 .36999513 .65982058L.038986207 .20005799V.1640625H.33299256V.08201599C.33299256 .04800415 .33299256 .035995485 .2519989 .035995485H.22499085V0C.2749939 .0019989014 .33898927 .0039978029 .375 .0039978029 .4119873 .0039978029 .47599793 .0019989014 .526001 0V.035995485H.49899293C.41799928 .035995485 .41799928 .04800415 .41799928 .08201599V.1640625H.5289917M.33999635 .5658722V.20005799H.07598877L.33999635 .5658722Z"/>
<path id="font_2_5" d="M.15499878 .5588074C.20599365 .5458069 .23599243 .5458069 .2519989 .5458069 .38398744 .5458069 .46199037 .6358032 .46199037 .6508026 .46199037 .6618042 .45498658 .6648102 .44999696 .6648102 .44799806 .6648102 .44599916 .6648102 .44198609 .6618042 .41799928 .6528015 .36499024 .6328125 .29100038 .6328125 .2630005 .6328125 .20999146 .6348114 .14498902 .6598053 .1349945 .6648102 .1329956 .6648102 .13198853 .6648102 .11898804 .6648102 .11898804 .6538086 .11898804 .6378021V.34251405C.11898804 .32548524 .11898804 .3134613 .1349945 .3134613 .14399719 .3134613 .14498902 .3154602 .15499878 .32748414 .19799805 .38259889 .25898744 .390625 .2939911 .390625 .35398866 .390625 .3809967 .34251405 .38598634 .33450318 .4039917 .30143739 .4099884 .26335145 .4099884 .20524597 .4099884 .17524719 .4099884 .116256717 .37998963 .07234192 .35499574 .03640747 .31199647 .012466431 .2630005 .012466431 .19799805 .012466431 .1309967 .04838562 .10598755 .11425781 .14399719 .11125183 .16299439 .13624573 .16299439 .16325379 .16299439 .20625305 .12599182 .21424866 .11299133 .21424866 .11099243 .21424866 .06298828 .21424866 .06298828 .1602478 .06298828 .07034302 .14498902-.01953125 .2649994-.01953125 .3929901-.01953125 .5049896 .07533264 .5049896 .20124817 .5049896 .31445313 .4189911 .41862489 .29499818 .41862489 .25099183 .41862489 .19898987 .4076233 .15499878 .36956788V.5588074Z"/>
<path id="font_2_6" d="M.1499939 .3274536C.1499939 .40945436 .15699768 .48303224 .19499207 .543869 .22898865 .5978699 .2829895 .63505557 .34700013 .63505557 .3769989 .63505557 .4169922 .62701418 .43699647 .5998688 .4119873 .5978699 .3909912 .5808716 .3909912 .5518799 .3909912 .5268707 .4079895 .5048828 .43798829 .5048828 .46798707 .5048828 .48599244 .5248718 .48599244 .5538788 .48599244 .6119385 .44400025 .6640625 .34498597 .6640625 .20098877 .6640625 .053985597 .5318756 .053985597 .3174591 .053985597 .05845642 .17599488-.01953125 .28599549-.01953125 .4079895-.01953125 .5139923 .07345581 .5139923 .20445252 .5139923 .33145143 .41299439 .42546083 .29599 .42546083 .21598816 .42546083 .17199707 .37245179 .1499939 .3274536M.28599549 .012466431C.23599243 .012466431 .19699097 .04145813 .17599488 .08546448 .16099549 .11546326 .15299988 .16545105 .15299988 .22544861 .15299988 .32244874 .21099854 .39746095 .29100038 .39746095 .33699037 .39746095 .36799623 .37945558 .3929901 .342453 .4169922 .30445863 .41799928 .26245118 .41799928 .20445252 .41799928 .14746094 .41799928 .10545349 .3909912 .066467288 .36698915 .031463624 .33499146 .012466431 .28599549 .012466431Z"/>
<path id="font_2_7" d="M.5349884 .6045227C.54499819 .6165161 .54499819 .6185303 .54499819 .64453127H.2829895C.24299622 .64453127 .23199463 .6455078 .19599915 .6484375 .14399719 .65234377 .14199829 .6592407 .13899231 .676239H.10499573L.069992069 .46250917H.10398865C.10598755 .47750855 .115997318 .54351809 .13198853 .5535126 .13999939 .55952456 .22099304 .55952456 .23599243 .55952456H.45399476C.42199708 .5175171 .37098695 .45550538 .34999085 .4275055 .21899414 .25549317 .20698548 .096466068 .20698548 .037460329 .20698548 .02645874 .20698548-.01953125 .2539978-.01953125 .3019867-.01953125 .3019867 .025466919 .3019867 .038467409V.07847595C.3019867 .27249146 .34199525 .36149598 .3849945 .41551209L.5349884 .6045227Z"/>
<path id="font_2_8" d="M.35499574 .36123658C.43299867 .3992157 .48298646 .44618226 .48298646 .5151367 .48298646 .6120758 .38198854 .6640625 .2849884 .6640625 .1749878 .6640625 .084991458 .5920868 .084991458 .4971466 .084991458 .45018006 .10699463 .41619874 .125 .39620973 .14299011 .37522889 .1499939 .37123109 .20899964 .33624269 .15299988 .31227113 .053985597 .25830079 .053985597 .15336609 .053985597 .042434694 .16899109-.01953125 .2829895-.01953125 .4099884-.01953125 .5139923 .061431886 .5139923 .1693573 .5139923 .23532105 .47499085 .29127503 .4169922 .32525636 .4039917 .33325196 .36898805 .35324098 .35499574 .36123658M.19198609 .45617677C.1659851 .4711609 .13798523 .49813844 .13798523 .53512576 .13798523 .5980835 .21099854 .63505557 .2829895 .63505557 .36099244 .63505557 .42999269 .5860901 .42999269 .5151367 .42999269 .42619325 .32598878 .3812256 .32398988 .3812256 .32199098 .3812256 .31999208 .3822174 .31298829 .3862152L.19198609 .45617677M.24099732 .31726075 .37799073 .23831177C.4039917 .22332764 .45399476 .19334412 .45399476 .13438416 .45399476 .059432985 .37098695 .012466431 .2849884 .012466431 .19299317 .012466431 .11399841 .07142639 .11399841 .15336609 .11399841 .22732544 .16899109 .2842865 .24099732 .31726075Z"/>
<path id="font_2_9" d="M.41799928 .29803468C.41799928 .05064392 .29499818 .012466431 .23498535 .012466431 .21299744 .012466431 .1599884 .014465332 .1329956 .045639039 .17399597 .04963684 .1769867 .08363342 .1769867 .09263611 .1769867 .11764526 .1599884 .13964844 .12998963 .13964844 .099990848 .13964844 .08198547 .119644168 .08198547 .09063721 .08198547 .022521973 .13899231-.01953125 .23599243-.01953125 .3789978-.01953125 .5139923 .11564636 .5139923 .32904054 .5139923 .5770569 .4039917 .6640625 .2869873 .6640625 .2539978 .6640625 .18499756 .6590576 .12799073 .60305789 .09399414 .5700531 .053985597 .53105166 .053985597 .4410553 .053985597 .31404115 .15499878 .22003174 .27198792 .22003174 .35198976 .22003174 .394989 .27304078 .41799928 .31803895V.29803468M.2769928 .24804688C.23799134 .24804688 .20098877 .26104737 .17298889 .30703736 .1499939 .34403993 .1499939 .38604737 .1499939 .4410553 .1499939 .49905396 .1499939 .53904727 .1789856 .5790558 .20298767 .61405947 .23599243 .63505557 .28799439 .63505557 .33898927 .63505557 .36898805 .60305789 .3849945 .5770569 .4119873 .53504946 .4149933 .4650421 .4149933 .4300537 .4149933 .30004884 .33999635 .24804688 .2769928 .24804688Z"/>
<path id="font_3_1" d="M.44400025 .24998474C.44400025 .35688783 .35499574 .44381715 .25 .44381715 .14199829 .44381715 .054992677 .35488893 .054992677 .24998474 .054992677 .14407349 .14199829 .056137086 .25 .056137086 .35499574 .056137086 .44400025 .14308167 .44400025 .24998474Z"/>
</defs>
<path transform="matrix(1.00002,0,0,-1,143.8305,30.146)" stroke-width=".3985" stroke-linecap="butt" stroke-miterlimit="10" stroke-linejoin="miter" fill="none" stroke="#000000" d="M-141.73404 28.3468V-255.12128H-85.04042V28.3468ZM-85.04042-255.12128"/>
<path transform="matrix(1.00002,0,0,-1,143.8305,30.146)" stroke-width=".3985" stroke-linecap="butt" stroke-miterlimit="10" stroke-linejoin="miter" fill="none" stroke="#000000" d="M0-283.4681V-340.1617H283.4681V-283.4681ZM283.4681-340.1617"/>
<path transform="matrix(1.00002,0,0,-1,143.8305,30.146)" stroke-width=".3985" stroke-linecap="butt" stroke-miterlimit="10" stroke-linejoin="miter" fill="none" stroke="#000000" d="M0 28.3468V-255.12128H283.4681V28.3468ZM283.4681-255.12128"/>
<use data-text="x" xlink:href="#font_1_1" transform="matrix(9.962799,0,0,-9.9626,167.09598,343.358)"/>
<use data-text="1" xlink:href="#font_2_1" transform="matrix(6.97394,0,0,-6.9738,172.7901,344.852)"/>
<use data-text="x" xlink:href="#font_1_1" transform="matrix(9.962799,0,0,-9.9626,195.44355,343.358)"/>
<use data-text="2" xlink:href="#font_2_2" transform="matrix(6.97394,0,0,-6.9738,201.13767,344.852)"/>
<use data-text="x" xlink:href="#font_1_1" transform="matrix(9.962799,0,0,-9.9626,223.7911,343.358)"/>
<use data-text="3" xlink:href="#font_2_3" transform="matrix(6.97394,0,0,-6.9738,229.48523,344.852)"/>
<use data-text="x" xlink:href="#font_1_1" transform="matrix(9.962799,0,0,-9.9626,252.13867,343.358)"/>
<use data-text="4" xlink:href="#font_2_4" transform="matrix(6.97394,0,0,-6.9738,257.8328,344.852)"/>
<use data-text="x" xlink:href="#font_1_1" transform="matrix(9.962799,0,0,-9.9626,280.48524,343.358)"/>
<use data-text="5" xlink:href="#font_2_5" transform="matrix(6.97394,0,0,-6.9738,286.17936,344.852)"/>
<use data-text="x" xlink:href="#font_1_1" transform="matrix(9.962799,0,0,-9.9626,308.83283,343.358)"/>
<use data-text="6" xlink:href="#font_2_6" transform="matrix(6.97394,0,0,-6.9738,314.52693,344.852)"/>
<use data-text="x" xlink:href="#font_1_1" transform="matrix(9.962799,0,0,-9.9626,337.18037,343.358)"/>
<use data-text="7" xlink:href="#font_2_7" transform="matrix(6.97394,0,0,-6.9738,342.8745,344.852)"/>
<use data-text="x" xlink:href="#font_1_1" transform="matrix(9.962799,0,0,-9.9626,365.52796,343.358)"/>
<use data-text="8" xlink:href="#font_2_8" transform="matrix(6.97394,0,0,-6.9738,371.22206,344.852)"/>
<use data-text="x" xlink:href="#font_1_1" transform="matrix(9.962799,0,0,-9.9626,393.8755,343.358)"/>
<use data-text="9" xlink:href="#font_2_9" transform="matrix(6.97394,0,0,-6.9738,399.56965,344.852)"/>
<use data-text="x" xlink:href="#font_1_1" transform="matrix(9.962799,0,0,-9.9626,25.35913,31.544)"/>
<use data-text="1" xlink:href="#font_2_1" transform="matrix(6.97394,0,0,-6.9738,31.053254,33.038003)"/>
<use data-text="x" xlink:href="#font_1_1" transform="matrix(9.962799,0,0,-9.9626,25.35913,59.89)"/>
<use data-text="2" xlink:href="#font_2_2" transform="matrix(6.97394,0,0,-6.9738,31.053254,61.384)"/>
<use data-text="x" xlink:href="#font_1_1" transform="matrix(9.962799,0,0,-9.9626,25.35913,88.237)"/>
<use data-text="3" xlink:href="#font_2_3" transform="matrix(6.97394,0,0,-6.9738,31.053254,89.731)"/>
<use data-text="x" xlink:href="#font_1_1" transform="matrix(9.962799,0,0,-9.9626,25.35913,116.584)"/>
<use data-text="4" xlink:href="#font_2_4" transform="matrix(6.97394,0,0,-6.9738,31.053254,118.078)"/>
<use data-text="x" xlink:href="#font_1_1" transform="matrix(9.962799,0,0,-9.9626,25.35913,144.931)"/>
<use data-text="5" xlink:href="#font_2_5" transform="matrix(6.97394,0,0,-6.9738,31.053254,146.425)"/>
<use data-text="x" xlink:href="#font_1_1" transform="matrix(9.962799,0,0,-9.9626,25.35913,173.278)"/>
<use data-text="6" xlink:href="#font_2_6" transform="matrix(6.97394,0,0,-6.9738,31.053254,174.772)"/>
<use data-text="x" xlink:href="#font_1_1" transform="matrix(9.962799,0,0,-9.9626,25.35913,201.624)"/>
<use data-text="7" xlink:href="#font_2_7" transform="matrix(6.97394,0,0,-6.9738,31.053254,203.118)"/>
<use data-text="x" xlink:href="#font_1_1" transform="matrix(9.962799,0,0,-9.9626,25.35913,229.971)"/>
<use data-text="8" xlink:href="#font_2_8" transform="matrix(6.97394,0,0,-6.9738,31.053254,231.465)"/>
<use data-text="x" xlink:href="#font_1_1" transform="matrix(9.962799,0,0,-9.9626,25.35913,258.318)"/>
<use data-text="9" xlink:href="#font_2_9" transform="matrix(6.97394,0,0,-6.9738,31.053254,259.812)"/>
<path transform="matrix(1.00002,0,0,-1,143.8305,30.146)" stroke-width=".3985" stroke-linecap="butt" stroke-miterlimit="10" stroke-linejoin="miter" fill="none" stroke="#000000" d="M-117.08806-6.41176C-120.11484-11.65431-120.11484-16.69247-118.08429-20.20949"/>
<path transform="matrix(.49999003,.86601,.86602738,-.49998,25.74385,50.35547)" d="M1.99252 0-1.19551 1.59401 0 0-1.19551-1.59401"/>
<path transform="matrix(1.00002,0,0,-1,143.8305,30.146)" stroke-width=".3985" stroke-linecap="butt" stroke-miterlimit="10" stroke-linejoin="miter" fill="none" stroke="#000000" d="M-117.08806-34.75858C-120.11484-40.00113-120.11484-45.03929-118.08429-48.55629"/>
<path transform="matrix(.49999003,.86601,.86602738,-.49998,25.74385,78.70227)" d="M1.99252 0-1.19551 1.59401 0 0-1.19551-1.59401"/>
<path transform="matrix(1.00002,0,0,-1,143.8305,30.146)" stroke-width=".3985" stroke-linecap="butt" stroke-miterlimit="10" stroke-linejoin="miter" fill="none" stroke="#000000" d="M-117.08806-63.10538C-120.11484-68.34793-120.11484-73.3861-118.08429-76.9031"/>
<path transform="matrix(.49999003,.86601,.86602738,-.49998,25.74385,107.04909)" d="M1.99252 0-1.19551 1.59401 0 0-1.19551-1.59401"/>
<path transform="matrix(1.00002,0,0,-1,143.8305,30.146)" stroke-width=".3985" stroke-linecap="butt" stroke-miterlimit="10" stroke-linejoin="miter" fill="none" stroke="#000000" d="M-117.08806-91.4522C-120.11484-96.69475-120.11484-101.73291-118.08429-105.24992"/>
<path transform="matrix(.49999003,.86601,.86602738,-.49998,25.74385,135.3959)" d="M1.99252 0-1.19551 1.59401 0 0-1.19551-1.59401"/>
<path transform="matrix(1.00002,0,0,-1,143.8305,30.146)" stroke-width=".3985" stroke-linecap="butt" stroke-miterlimit="10" stroke-linejoin="miter" fill="none" stroke="#000000" d="M-109.68777-106.97546C-101.13377-92.15945-101.13377-77.9214-108.69154-64.83093"/>
<path transform="matrix(-.49999003,-.86601,-.86602738,.49998,35.136789,94.976947)" d="M1.99252 0-1.19551 1.59401 0 0-1.19551-1.59401"/>
<path transform="matrix(1.00002,0,0,-1,143.8305,30.146)" stroke-width=".3985" stroke-linecap="butt" stroke-miterlimit="10" stroke-linejoin="miter" fill="none" stroke="#000000" d="M-109.68777-135.32227C-95.60654-110.9328-95.60654-87.49486-108.69154-64.83093"/>
<path transform="matrix(-.49999003,-.86601,-.86602738,.49998,35.136789,94.976947)" d="M1.99252 0-1.19551 1.59401 0 0-1.19551-1.59401"/>
<path transform="matrix(1.00002,0,0,-1,143.8305,30.146)" stroke-width=".3985" stroke-linecap="butt" stroke-miterlimit="10" stroke-linejoin="miter" fill="none" stroke="#000000" d="M-109.68777-163.66909C-95.60654-139.2796-95.60654-115.84167-108.69154-93.17773"/>
<path transform="matrix(-.49999003,-.86601,-.86602738,.49998,35.136789,123.323749)" d="M1.99252 0-1.19551 1.59401 0 0-1.19551-1.59401"/>
<path transform="matrix(1.00002,0,0,-1,143.8305,30.146)" stroke-width=".3985" stroke-linecap="butt" stroke-miterlimit="10" stroke-linejoin="miter" fill="none" stroke="#000000" d="M-117.08806-204.83943C-120.11484-210.08199-120.11484-215.12015-118.08429-218.63716"/>
<path transform="matrix(.49999003,.86601,.86602738,-.49998,25.74385,248.78314)" d="M1.99252 0-1.19551 1.59401 0 0-1.19551-1.59401"/>
<path transform="matrix(1.00002,0,0,-1,143.8305,30.146)" stroke-width=".3985" stroke-linecap="butt" stroke-miterlimit="10" stroke-linejoin="miter" fill="none" stroke="#000000" d="M-109.6864-220.3627C-106.65962-215.12015-106.65962-210.08199-108.69017-206.56497"/>
<path transform="matrix(-.49999003,-.86601,-.86602738,.49998,35.13816,236.71099)" d="M1.99252 0-1.19551 1.59401 0 0-1.19551-1.59401"/>
<path transform="matrix(1.00002,0,0,-1,143.8305,30.146)" stroke-width=".3985" stroke-linecap="butt" stroke-miterlimit="10" stroke-linejoin="miter" fill="none" stroke="#000000" d="M36.94832-316.77964C40.71184-318.9525 44.32858-318.9525 46.36652-317.77583"/>
<path transform="matrix(.8660473,-.49997,-.49998,-.86603,190.19795,347.9218)" d="M1.99252 0-1.19551 1.59401 0 0-1.19551-1.59401"/>
<path transform="matrix(1.00002,0,0,-1,143.8305,30.146)" stroke-width=".3985" stroke-linecap="butt" stroke-miterlimit="10" stroke-linejoin="miter" fill="none" stroke="#000000" d="M65.29514-316.77964C69.05864-318.9525 72.67538-318.9525 74.71332-317.77583"/>
<path transform="matrix(.8660473,-.49997,-.49998,-.86603,218.54532,347.9218)" d="M1.99252 0-1.19551 1.59401 0 0-1.19551-1.59401"/>
<path transform="matrix(1.00002,0,0,-1,143.8305,30.146)" stroke-width=".3985" stroke-linecap="butt" stroke-miterlimit="10" stroke-linejoin="miter" fill="none" stroke="#000000" d="M93.64194-316.77964C97.40546-318.9525 101.0222-318.9525 103.06013-317.77583"/>
<path transform="matrix(.8660473,-.49997,-.49998,-.86603,246.8927,347.9218)" d="M1.99252 0-1.19551 1.59401 0 0-1.19551-1.59401"/>
<path transform="matrix(1.00002,0,0,-1,143.8305,30.146)" stroke-width=".3985" stroke-linecap="butt" stroke-miterlimit="10" stroke-linejoin="miter" fill="none" stroke="#000000" d="M121.98875-316.77964C125.75226-318.9525 129.369-318.9525 131.40694-317.77583"/>
<path transform="matrix(.8660473,-.49997,-.49998,-.86603,275.24006,347.9218)" d="M1.99252 0-1.19551 1.59401 0 0-1.19551-1.59401"/>
<path transform="matrix(1.00002,0,0,-1,143.8305,30.146)" stroke-width=".3985" stroke-linecap="butt" stroke-miterlimit="10" stroke-linejoin="miter" fill="none" stroke="#000000" d="M133.13253-306.852C119.79553-299.15193 106.97893-299.15193 95.3675-305.85578"/>
<path transform="matrix(-.86602738,.49998,.49999003,.86601,239.19992,336.00178)" d="M1.99252 0-1.19551 1.59401 0 0-1.19551-1.59401"/>
<path transform="matrix(1.00002,0,0,-1,143.8305,30.146)" stroke-width=".3985" stroke-linecap="butt" stroke-miterlimit="10" stroke-linejoin="miter" fill="none" stroke="#000000" d="M161.47933-306.852C138.5689-293.6247 116.55237-293.6247 95.3675-305.85578"/>
<path transform="matrix(-.86602738,.49998,.49999003,.86601,239.19992,336.00178)" d="M1.99252 0-1.19551 1.59401 0 0-1.19551-1.59401"/>
<path transform="matrix(1.00002,0,0,-1,143.8305,30.146)" stroke-width=".3985" stroke-linecap="butt" stroke-miterlimit="10" stroke-linejoin="miter" fill="none" stroke="#000000" d="M189.82614-306.852C166.91571-293.6247 144.89919-293.6247 123.7143-305.85578"/>
<path transform="matrix(-.86602738,.49998,.49999003,.86601,267.5473,336.00178)" d="M1.99252 0-1.19551 1.59401 0 0-1.19551-1.59401"/>
<path transform="matrix(1.00002,0,0,-1,143.8305,30.146)" stroke-width=".3985" stroke-linecap="butt" stroke-miterlimit="10" stroke-linejoin="miter" fill="none" stroke="#000000" d="M235.37599-316.77964C239.1395-318.9525 242.75626-318.9525 244.79419-317.77583"/>
<path transform="matrix(.8660473,-.49997,-.49998,-.86603,388.62959,347.9218)" d="M1.99252 0-1.19551 1.59401 0 0-1.19551-1.59401"/>
<path transform="matrix(1.00002,0,0,-1,143.8305,30.146)" stroke-width=".3985" stroke-linecap="butt" stroke-miterlimit="10" stroke-linejoin="miter" fill="none" stroke="#000000" d="M246.51976-306.85017C242.75626-304.67729 239.1395-304.67729 237.10158-305.85398"/>
<path transform="matrix(-.8660473,.49997,.49998,.86603,380.93684,335.99998)" d="M1.99252 0-1.19551 1.59401 0 0-1.19551-1.59401"/>
<use data-text="&#x2022;" xlink:href="#font_3_1" transform="matrix(9.962799,0,0,-9.9626,169.68703,32.36)"/>
<use data-text="&#x2022;" xlink:href="#font_3_1" transform="matrix(9.962799,0,0,-9.9626,169.68703,60.707)"/>
<use data-text="&#x2022;" xlink:href="#font_3_1" transform="matrix(9.962799,0,0,-9.9626,169.68703,89.054)"/>
<use data-text="&#x2022;" xlink:href="#font_3_1" transform="matrix(9.962799,0,0,-9.9626,169.68703,117.399997)"/>
<use data-text="&#x2022;" xlink:href="#font_3_1" transform="matrix(9.962799,0,0,-9.9626,169.68703,145.747)"/>
<use data-text="&#x2022;" xlink:href="#font_3_1" transform="matrix(9.962799,0,0,-9.9626,169.68703,174.094)"/>
<use data-text="&#x2022;" xlink:href="#font_3_1" transform="matrix(9.962799,0,0,-9.9626,169.68703,202.441)"/>
<use data-text="&#x2022;" xlink:href="#font_3_1" transform="matrix(9.962799,0,0,-9.9626,169.68703,230.788)"/>
<use data-text="&#x2022;" xlink:href="#font_3_1" transform="matrix(9.962799,0,0,-9.9626,169.68703,259.134)"/>
<use data-text="&#x2022;" xlink:href="#font_3_1" transform="matrix(9.962799,0,0,-9.9626,198.03459,32.36)"/>
<use data-text="&#x2022;" xlink:href="#font_3_1" transform="matrix(9.962799,0,0,-9.9626,198.03459,60.707)"/>
<use data-text="&#x2022;" xlink:href="#font_3_1" transform="matrix(9.962799,0,0,-9.9626,198.03459,89.054)"/>
<use data-text="&#x2022;" xlink:href="#font_3_1" transform="matrix(9.962799,0,0,-9.9626,198.03459,117.399997)"/>
<use data-text="&#x2022;" xlink:href="#font_3_1" transform="matrix(9.962799,0,0,-9.9626,198.03459,145.747)"/>
<use data-text="&#x2022;" xlink:href="#font_3_1" transform="matrix(9.962799,0,0,-9.9626,198.03459,174.094)"/>
<use data-text="&#x2022;" xlink:href="#font_3_1" transform="matrix(9.962799,0,0,-9.9626,198.03459,202.441)"/>
<use data-text="&#x2022;" xlink:href="#font_3_1" transform="matrix(9.962799,0,0,-9.9626,198.03459,230.788)"/>
<use data-text="&#x2022;" xlink:href="#font_3_1" transform="matrix(9.962799,0,0,-9.9626,198.03459,259.134)"/>
<use data-text="&#x2022;" xlink:href="#font_3_1" transform="matrix(9.962799,0,0,-9.9626,226.38217,32.36)"/>
<use data-text="&#x2022;" xlink:href="#font_3_1" transform="matrix(9.962799,0,0,-9.9626,226.38217,60.707)"/>
<use data-text="&#x2022;" xlink:href="#font_3_1" transform="matrix(9.962799,0,0,-9.9626,226.38217,89.054)"/>
<use data-text="&#x2022;" xlink:href="#font_3_1" transform="matrix(9.962799,0,0,-9.9626,226.38217,117.399997)"/>
<use data-text="&#x2022;" xlink:href="#font_3_1" transform="matrix(9.962799,0,0,-9.9626,226.38217,145.747)"/>
<use data-text="&#x2022;" xlink:href="#font_3_1" transform="matrix(9.962799,0,0,-9.9626,226.38217,174.094)"/>
<use data-text="&#x2022;" xlink:href="#font_3_1" transform="matrix(9.962799,0,0,-9.9626,226.38217,202.441)"/>
<use data-text="&#x2022;" xlink:href="#font_3_1" transform="matrix(9.962799,0,0,-9.9626,226.38217,230.788)"/>
<use data-text="&#x2022;" xlink:href="#font_3_1" transform="matrix(9.962799,0,0,-9.9626,226.38217,259.134)"/>
<use data-text="&#x2022;" xlink:href="#font_3_1" transform="matrix(9.962799,0,0,-9.9626,254.72974,32.36)"/>
<use data-text="&#x2022;" xlink:href="#font_3_1" transform="matrix(9.962799,0,0,-9.9626,254.72974,60.707)"/>
<use data-text="&#x2022;" xlink:href="#font_3_1" transform="matrix(9.962799,0,0,-9.9626,254.72974,89.054)"/>
<use data-text="&#x2022;" xlink:href="#font_3_1" transform="matrix(9.962799,0,0,-9.9626,254.72974,117.399997)"/>
<use data-text="&#x2022;" xlink:href="#font_3_1" transform="matrix(9.962799,0,0,-9.9626,254.72974,145.747)"/>
<use data-text="&#x2022;" xlink:href="#font_3_1" transform="matrix(9.962799,0,0,-9.9626,254.72974,174.094)"/>
<use data-text="&#x2022;" xlink:href="#font_3_1" transform="matrix(9.962799,0,0,-9.9626,254.72974,202.441)"/>
<use data-text="&#x2022;" xlink:href="#font_3_1" transform="matrix(9.962799,0,0,-9.9626,254.72974,230.788)"/>
<use data-text="&#x2022;" xlink:href="#font_3_1" transform="matrix(9.962799,0,0,-9.9626,254.72974,259.134)"/>
<use data-text="&#x2022;" xlink:href="#font_3_1" transform="matrix(9.962799,0,0,-9.9626,283.0763,32.36)"/>
<use data-text="&#x2022;" xlink:href="#font_3_1" transform="matrix(9.962799,0,0,-9.9626,283.0763,60.707)"/>
<use data-text="&#x2022;" xlink:href="#font_3_1" transform="matrix(9.962799,0,0,-9.9626,283.0763,89.054)"/>
<use data-text="&#x2022;" xlink:href="#font_3_1" transform="matrix(9.962799,0,0,-9.9626,283.0763,117.399997)"/>
<use data-text="&#x2022;" xlink:href="#font_3_1" transform="matrix(9.962799,0,0,-9.9626,283.0763,145.747)"/>
<use data-text="&#x2022;" xlink:href="#font_3_1" transform="matrix(9.962799,0,0,-9.9626,283.0763,174.094)"/>
<use data-text="&#x2022;" xlink:href="#font_3_1" transform="matrix(9.962799,0,0,-9.9626,283.0763,202.441)"/>
<use data-text="&#x2022;" xlink:href="#font_3_1" transform="matrix(9.962799,0,0,-9.9626,283.0763,230.788)"/>
<use data-text="&#x2022;" xlink:href="#font_3_1" transform="matrix(9.962799,0,0,-9.9626,283.0763,259.134)"/>
<use data-text="&#x2022;" xlink:href="#font_3_1" transform="matrix(9.962799,0,0,-9.9626,311.42387,32.36)"/>
<use data-text="&#x2022;" xlink:href="#font_3_1" transform="matrix(9.962799,0,0,-9.9626,311.42387,60.707)"/>
<use data-text="&#x2022;" xlink:href="#font_3_1" transform="matrix(9.962799,0,0,-9.9626,311.42387,89.054)"/>
<use data-text="&#x2022;" xlink:href="#font_3_1" transform="matrix(9.962799,0,0,-9.9626,311.42387,117.399997)"/>
<use data-text="&#x2022;" xlink:href="#font_3_1" transform="matrix(9.962799,0,0,-9.9626,311.42387,145.747)"/>
<use data-text="&#x2022;" xlink:href="#font_3_1" transform="matrix(9.962799,0,0,-9.9626,311.42387,174.094)"/>
<use data-text="&#x2022;" xlink:href="#font_3_1" transform="matrix(9.962799,0,0,-9.9626,311.42387,202.441)"/>
<use data-text="&#x2022;" xlink:href="#font_3_1" transform="matrix(9.962799,0,0,-9.9626,311.42387,230.788)"/>
<use data-text="&#x2022;" xlink:href="#font_3_1" transform="matrix(9.962799,0,0,-9.9626,311.42387,259.134)"/>
<use data-text="&#x2022;" xlink:href="#font_3_1" transform="matrix(9.962799,0,0,-9.9626,339.77143,32.36)"/>
<use data-text="&#x2022;" xlink:href="#font_3_1" transform="matrix(9.962799,0,0,-9.9626,339.77143,60.707)"/>
<use data-text="&#x2022;" xlink:href="#font_3_1" transform="matrix(9.962799,0,0,-9.9626,339.77143,89.054)"/>
<use data-text="&#x2022;" xlink:href="#font_3_1" transform="matrix(9.962799,0,0,-9.9626,339.77143,117.399997)"/>
<use data-text="&#x2022;" xlink:href="#font_3_1" transform="matrix(9.962799,0,0,-9.9626,339.77143,145.747)"/>
<use data-text="&#x2022;" xlink:href="#font_3_1" transform="matrix(9.962799,0,0,-9.9626,339.77143,174.094)"/>
<use data-text="&#x2022;" xlink:href="#font_3_1" transform="matrix(9.962799,0,0,-9.9626,339.77143,202.441)"/>
<use data-text="&#x2022;" xlink:href="#font_3_1" transform="matrix(9.962799,0,0,-9.9626,339.77143,230.788)"/>
<use data-text="&#x2022;" xlink:href="#font_3_1" transform="matrix(9.962799,0,0,-9.9626,339.77143,259.134)"/>
<use data-text="&#x2022;" xlink:href="#font_3_1" transform="matrix(9.962799,0,0,-9.9626,368.119,32.36)"/>
<use data-text="&#x2022;" xlink:href="#font_3_1" transform="matrix(9.962799,0,0,-9.9626,368.119,60.707)"/>
<use data-text="&#x2022;" xlink:href="#font_3_1" transform="matrix(9.962799,0,0,-9.9626,368.119,89.054)"/>
<use data-text="&#x2022;" xlink:href="#font_3_1" transform="matrix(9.962799,0,0,-9.9626,368.119,117.399997)"/>
<use data-text="&#x2022;" xlink:href="#font_3_1" transform="matrix(9.962799,0,0,-9.9626,368.119,145.747)"/>
<use data-text="&#x2022;" xlink:href="#font_3_1" transform="matrix(9.962799,0,0,-9.9626,368.119,174.094)"/>
<use data-text="&#x2022;" xlink:href="#font_3_1" transform="matrix(9.962799,0,0,-9.9626,368.119,202.441)"/>
<use data-text="&#x2022;" xlink:href="#font_3_1" transform="matrix(9.962799,0,0,-9.9626,368.119,230.788)"/>
<use data-text="&#x2022;" xlink:href="#font_3_1" transform="matrix(9.962799,0,0,-9.9626,368.119,259.134)"/>
<use data-text="&#x2022;" xlink:href="#font_3_1" transform="matrix(9.962799,0,0,-9.9626,396.46656,32.36)"/>
<use data-text="&#x2022;" xlink:href="#font_3_1" transform="matrix(9.962799,0,0,-9.9626,396.46656,60.707)"/>
<use data-text="&#x2022;" xlink:href="#font_3_1" transform="matrix(9.962799,0,0,-9.9626,396.46656,89.054)"/>
<use data-text="&#x2022;" xlink:href="#font_3_1" transform="matrix(9.962799,0,0,-9.9626,396.46656,117.399997)"/>
<use data-text="&#x2022;" xlink:href="#font_3_1" transform="matrix(9.962799,0,0,-9.9626,396.46656,145.747)"/>
<use data-text="&#x2022;" xlink:href="#font_3_1" transform="matrix(9.962799,0,0,-9.9626,396.46656,174.094)"/>
<use data-text="&#x2022;" xlink:href="#font_3_1" transform="matrix(9.962799,0,0,-9.9626,396.46656,202.441)"/>
<use data-text="&#x2022;" xlink:href="#font_3_1" transform="matrix(9.962799,0,0,-9.9626,396.46656,230.788)"/>
<use data-text="&#x2022;" xlink:href="#font_3_1" transform="matrix(9.962799,0,0,-9.9626,396.46656,259.134)"/>
<path transform="matrix(1.00002,0,0,-1,143.8305,30.146)" stroke-width=".3985" stroke-linecap="butt" stroke-miterlimit="10" stroke-linejoin="miter" fill="none" stroke="#000000" d="M34.35732-1.61028C45.5135-4.6576 52.21841-11.42787 54.65117-20.686"/>
<path transform="matrix(.2541051,.96713,.9671494,-.2541,198.48278,50.832)" d="M1.99252 0-1.19551 1.59401 0 0-1.19551-1.59401"/>
<path transform="matrix(1.00002,0,0,-1,143.8305,30.146)" stroke-width=".3985" stroke-linecap="butt" stroke-miterlimit="10" stroke-linejoin="miter" fill="none" stroke="#000000" d="M62.70413-1.61028C73.8603-4.6576 80.56522-11.42787 82.99797-20.686"/>
<path transform="matrix(.2541051,.96713,.9671494,-.2541,226.83014,50.832)" d="M1.99252 0-1.19551 1.59401 0 0-1.19551-1.59401"/>
<path transform="matrix(1.00002,0,0,-1,143.8305,30.146)" stroke-width=".3985" stroke-linecap="butt" stroke-miterlimit="10" stroke-linejoin="miter" fill="none" stroke="#000000" d="M91.05093-1.61028C102.20712-4.6576 108.91203-11.42787 111.34479-20.686"/>
<path transform="matrix(.2541051,.96713,.9671494,-.2541,255.17752,50.832)" d="M1.99252 0-1.19551 1.59401 0 0-1.19551-1.59401"/>
<path transform="matrix(1.00002,0,0,-1,143.8305,30.146)" stroke-width=".3985" stroke-linecap="butt" stroke-miterlimit="10" stroke-linejoin="miter" fill="none" stroke="#000000" d="M119.39775-1.61028C130.55393-4.6576 137.25884-11.42787 139.69159-20.686"/>
<path transform="matrix(.2541051,.96713,.9671494,-.2541,283.5249,50.832)" d="M1.99252 0-1.19551 1.59401 0 0-1.19551-1.59401"/>
<path transform="matrix(1.00002,0,0,-1,143.8305,30.146)" stroke-width=".3985" stroke-linecap="butt" stroke-miterlimit="10" stroke-linejoin="miter" fill="none" stroke="#000000" d="M137.9494-5.73375C126.551-22.69466 111.43874-30.09802 93.03877-28.84279"/>
<path transform="matrix(-.99767,-.06804,-.06804136,.99765,236.87114,58.9888)" d="M1.99252 0-1.19551 1.59401 0 0-1.19551-1.59401"/>
<path transform="matrix(1.00002,0,0,-1,143.8305,30.146)" stroke-width=".3985" stroke-linecap="butt" stroke-miterlimit="10" stroke-linejoin="miter" fill="none" stroke="#000000" d="M164.99907-5.73375C144.62448-28.25926 120.74591-35.95801 92.99892-29.99454"/>
<path transform="matrix(-.97766956,-.2101,-.2101042,.97765,236.83129,60.14055)" d="M1.99252 0-1.19551 1.59401 0 0-1.19551-1.59401"/>
<path transform="matrix(1.00002,0,0,-1,143.8305,30.146)" stroke-width=".3985" stroke-linecap="butt" stroke-miterlimit="10" stroke-linejoin="miter" fill="none" stroke="#000000" d="M193.34589-5.73375C172.9713-28.25926 149.09273-35.95801 121.34572-29.99454"/>
<path transform="matrix(-.97766956,-.2101,-.2101042,.97765,265.17866,60.14055)" d="M1.99252 0-1.19551 1.59401 0 0-1.19551-1.59401"/>
<path transform="matrix(1.00002,0,0,-1,143.8305,30.146)" stroke-width=".3985" stroke-linecap="butt" stroke-miterlimit="10" stroke-linejoin="miter" fill="none" stroke="#000000" d="M232.78499-1.61028C243.94116-4.6576 250.64608-11.42787 253.07883-20.686"/>
<path transform="matrix(.2541051,.96713,.9671494,-.2541,396.9144,50.832)" d="M1.99252 0-1.19551 1.59401 0 0-1.19551-1.59401"/>
<path transform="matrix(1.00002,0,0,-1,143.8305,30.146)" stroke-width=".3985" stroke-linecap="butt" stroke-miterlimit="10" stroke-linejoin="miter" fill="none" stroke="#000000" d="M253.58513-5.73375C250.64608-16.91893 243.94116-23.68921 234.707-26.21155"/>
<path transform="matrix(-.9646293,.26347,.26347528,.96461,378.5422,56.35755)" d="M1.99252 0-1.19551 1.59401 0 0-1.19551-1.59401"/>
<path transform="matrix(1.00002,0,0,-1,143.8305,30.146)" stroke-width=".3985" stroke-linecap="butt" stroke-miterlimit="10" stroke-linejoin="miter" fill="none" stroke="#000000" d="M34.35732-29.95709C45.5135-33.0044 52.21841-39.77467 54.65117-49.03282"/>
<path transform="matrix(.2541051,.96713,.9671494,-.2541,198.48278,79.17882)" d="M1.99252 0-1.19551 1.59401 0 0-1.19551-1.59401"/>
<path transform="matrix(1.00002,0,0,-1,143.8305,30.146)" stroke-width=".3985" stroke-linecap="butt" stroke-miterlimit="10" stroke-linejoin="miter" fill="none" stroke="#000000" d="M62.70413-29.95709C73.8603-33.0044 80.56522-39.77467 82.99797-49.03282"/>
<path transform="matrix(.2541051,.96713,.9671494,-.2541,226.83014,79.17882)" d="M1.99252 0-1.19551 1.59401 0 0-1.19551-1.59401"/>
<path transform="matrix(1.00002,0,0,-1,143.8305,30.146)" stroke-width=".3985" stroke-linecap="butt" stroke-miterlimit="10" stroke-linejoin="miter" fill="none" stroke="#000000" d="M91.05093-29.95709C102.20712-33.0044 108.91203-39.77467 111.34479-49.03282"/>
<path transform="matrix(.2541051,.96713,.9671494,-.2541,255.17752,79.17882)" d="M1.99252 0-1.19551 1.59401 0 0-1.19551-1.59401"/>
<path transform="matrix(1.00002,0,0,-1,143.8305,30.146)" stroke-width=".3985" stroke-linecap="butt" stroke-miterlimit="10" stroke-linejoin="miter" fill="none" stroke="#000000" d="M119.39775-29.95709C130.55393-33.0044 137.25884-39.77467 139.69159-49.03282"/>
<path transform="matrix(.2541051,.96713,.9671494,-.2541,283.5249,79.17882)" d="M1.99252 0-1.19551 1.59401 0 0-1.19551-1.59401"/>
<path transform="matrix(1.00002,0,0,-1,143.8305,30.146)" stroke-width=".3985" stroke-linecap="butt" stroke-miterlimit="10" stroke-linejoin="miter" fill="none" stroke="#000000" d="M137.9494-34.08057C126.551-51.04147 111.43874-58.44484 93.03877-57.18959"/>
<path transform="matrix(-.99767,-.06804,-.06804136,.99765,236.87114,87.3356)" d="M1.99252 0-1.19551 1.59401 0 0-1.19551-1.59401"/>
<path transform="matrix(1.00002,0,0,-1,143.8305,30.146)" stroke-width=".3985" stroke-linecap="butt" stroke-miterlimit="10" stroke-linejoin="miter" fill="none" stroke="#000000" d="M164.99907-34.08057C144.62448-56.60608 120.74591-64.30481 92.99892-58.34135"/>
<path transform="matrix(-.97766956,-.2101,-.2101042,.97765,236.83129,88.487369)" d="M1.99252 0-1.19551 1.59401 0 0-1.19551-1.59401"/>
<path transform="matrix(1.00002,0,0,-1,143.8305,30.146)" stroke-width=".3985" stroke-linecap="butt" stroke-miterlimit="10" stroke-linejoin="miter" fill="none" stroke="#000000" d="M193.34589-34.08057C172.9713-56.60608 149.09273-64.30481 121.34572-58.34135"/>
<path transform="matrix(-.97766956,-.2101,-.2101042,.97765,265.17866,88.487369)" d="M1.99252 0-1.19551 1.59401 0 0-1.19551-1.59401"/>
<path transform="matrix(1.00002,0,0,-1,143.8305,30.146)" stroke-width=".3985" stroke-linecap="butt" stroke-miterlimit="10" stroke-linejoin="miter" fill="none" stroke="#000000" d="M232.78499-29.95709C243.94116-33.0044 250.64608-39.77467 253.07883-49.03282"/>
<path transform="matrix(.2541051,.96713,.9671494,-.2541,396.9144,79.17882)" d="M1.99252 0-1.19551 1.59401 0 0-1.19551-1.59401"/>
<path transform="matrix(1.00002,0,0,-1,143.8305,30.146)" stroke-width=".3985" stroke-linecap="butt" stroke-miterlimit="10" stroke-linejoin="miter" fill="none" stroke="#000000" d="M253.58513-34.08057C250.64608-45.26573 243.94116-52.03601 234.707-54.55836"/>
<path transform="matrix(-.9646293,.26347,.26347528,.96461,378.5422,84.70436)" d="M1.99252 0-1.19551 1.59401 0 0-1.19551-1.59401"/>
<path transform="matrix(1.00002,0,0,-1,143.8305,30.146)" stroke-width=".3985" stroke-linecap="butt" stroke-miterlimit="10" stroke-linejoin="miter" fill="none" stroke="#000000" d="M34.35732-58.3039C45.5135-61.35121 52.21841-68.12149 54.65117-77.37962"/>
<path transform="matrix(.2541051,.96713,.9671494,-.2541,198.48278,107.52562)" d="M1.99252 0-1.19551 1.59401 0 0-1.19551-1.59401"/>
<path transform="matrix(1.00002,0,0,-1,143.8305,30.146)" stroke-width=".3985" stroke-linecap="butt" stroke-miterlimit="10" stroke-linejoin="miter" fill="none" stroke="#000000" d="M62.70413-58.3039C73.8603-61.35121 80.56522-68.12149 82.99797-77.37962"/>
<path transform="matrix(.2541051,.96713,.9671494,-.2541,226.83014,107.52562)" d="M1.99252 0-1.19551 1.59401 0 0-1.19551-1.59401"/>
<path transform="matrix(1.00002,0,0,-1,143.8305,30.146)" stroke-width=".3985" stroke-linecap="butt" stroke-miterlimit="10" stroke-linejoin="miter" fill="none" stroke="#0000ff" d="M91.05093-58.3039C102.20712-61.35121 108.91203-68.12149 111.34479-77.37962"/>
<path transform="matrix(.2541051,.96713,.9671494,-.2541,255.17752,107.52562)" d="M1.99252 0-1.19551 1.59401 0 0-1.19551-1.59401" fill="#0000ff"/>
<path transform="matrix(1.00002,0,0,-1,143.8305,30.146)" stroke-width=".3985" stroke-linecap="butt" stroke-dasharray="2.98883,2.98883" stroke-miterlimit="10" stroke-linejoin="miter" fill="none" stroke="#0000ff" d="M119.39775-58.3039C130.55393-61.35121 137.25884-68.12149 139.69159-77.37962"/>
<path transform="matrix(.2541051,.96713,.9671494,-.2541,283.5249,107.52562)" d="M1.99252 0-1.19551 1.59401 0 0-1.19551-1.59401" fill="#0000ff"/>
<path transform="matrix(1.00002,0,0,-1,143.8305,30.146)" stroke-width=".3985" stroke-linecap="butt" stroke-dasharray=".3985,1.99255" stroke-miterlimit="10" stroke-linejoin="miter" fill="none" stroke="#0000ff" d="M137.9494-62.42737C126.551-79.38828 111.43874-86.79164 93.03877-85.5364"/>
<path transform="matrix(-.99767,-.06804,-.06804136,.99765,236.87114,115.68242)" d="M1.99252 0-1.19551 1.59401 0 0-1.19551-1.59401" fill="#0000ff"/>
<path transform="matrix(1.00002,0,0,-1,143.8305,30.146)" stroke-width=".3985" stroke-linecap="butt" stroke-miterlimit="10" stroke-linejoin="miter" fill="none" stroke="#000000" d="M164.99907-62.42737C144.62448-84.9529 120.74591-92.65163 92.99892-86.68817"/>
<path transform="matrix(-.97766956,-.2101,-.2101042,.97765,236.83129,116.83418)" d="M1.99252 0-1.19551 1.59401 0 0-1.19551-1.59401"/>
<path transform="matrix(1.00002,0,0,-1,143.8305,30.146)" stroke-width=".3985" stroke-linecap="butt" stroke-miterlimit="10" stroke-linejoin="miter" fill="none" stroke="#000000" d="M193.34589-62.42737C172.9713-84.9529 149.09273-92.65163 121.34572-86.68817"/>
<path transform="matrix(-.97766956,-.2101,-.2101042,.97765,265.17866,116.83418)" d="M1.99252 0-1.19551 1.59401 0 0-1.19551-1.59401"/>
<path transform="matrix(1.00002,0,0,-1,143.8305,30.146)" stroke-width=".3985" stroke-linecap="butt" stroke-miterlimit="10" stroke-linejoin="miter" fill="none" stroke="#bf0040" d="M232.78499-58.3039C243.94116-61.35121 250.64608-68.12149 253.07883-77.37962"/>
<path transform="matrix(.2541051,.96713,.9671494,-.2541,396.9144,107.52562)" d="M1.99252 0-1.19551 1.59401 0 0-1.19551-1.59401" fill="#bf0040"/>
<path transform="matrix(1.00002,0,0,-1,143.8305,30.146)" stroke-width=".3985" stroke-linecap="butt" stroke-miterlimit="10" stroke-linejoin="miter" fill="none" stroke="#bf0040" d="M253.58513-62.42737C250.64608-73.61255 243.94116-80.38283 234.707-82.90517"/>
<path transform="matrix(-.9646293,.26347,.26347528,.96461,378.5422,113.05116)" d="M1.99252 0-1.19551 1.59401 0 0-1.19551-1.59401" fill="#bf0040"/>
<path transform="matrix(1.00002,0,0,-1,143.8305,30.146)" stroke-width=".3985" stroke-linecap="butt" stroke-miterlimit="10" stroke-linejoin="miter" fill="none" stroke="#000000" d="M34.35732-86.65071C45.5135-89.69801 52.21841-96.46829 54.65117-105.72644"/>
<path transform="matrix(.2541051,.96713,.9671494,-.2541,198.48278,135.87244)" d="M1.99252 0-1.19551 1.59401 0 0-1.19551-1.59401"/>
<path transform="matrix(1.00002,0,0,-1,143.8305,30.146)" stroke-width=".3985" stroke-linecap="butt" stroke-miterlimit="10" stroke-linejoin="miter" fill="none" stroke="#000000" d="M62.70413-86.65071C73.8603-89.69801 80.56522-96.46829 82.99797-105.72644"/>
<path transform="matrix(.2541051,.96713,.9671494,-.2541,226.83014,135.87244)" d="M1.99252 0-1.19551 1.59401 0 0-1.19551-1.59401"/>
<path transform="matrix(1.00002,0,0,-1,143.8305,30.146)" stroke-width=".3985" stroke-linecap="butt" stroke-dasharray=".3985,1.99255" stroke-miterlimit="10" stroke-linejoin="miter" fill="none" stroke="#0000ff" d="M91.05093-86.65071C102.20712-89.69801 108.91203-96.46829 111.34479-105.72644"/>
<path transform="matrix(.2541051,.96713,.9671494,-.2541,255.17752,135.87244)" d="M1.99252 0-1.19551 1.59401 0 0-1.19551-1.59401" fill="#0000ff"/>
<path transform="matrix(1.00002,0,0,-1,143.8305,30.146)" stroke-width=".3985" stroke-linecap="butt" stroke-miterlimit="10" stroke-linejoin="miter" fill="none" stroke="#0000ff" d="M119.39775-86.65071C130.55393-89.69801 137.25884-96.46829 139.69159-105.72644"/>
<path transform="matrix(.2541051,.96713,.9671494,-.2541,283.5249,135.87244)" d="M1.99252 0-1.19551 1.59401 0 0-1.19551-1.59401" fill="#0000ff"/>
<path transform="matrix(1.00002,0,0,-1,143.8305,30.146)" stroke-width=".3985" stroke-linecap="butt" stroke-dasharray="2.98883,2.98883" stroke-miterlimit="10" stroke-linejoin="miter" fill="none" stroke="#0000ff" d="M137.9494-90.77419C126.551-107.73509 111.43874-115.13846 93.03877-113.88321"/>
<path transform="matrix(-.99767,-.06804,-.06804136,.99765,236.87114,144.02922)" d="M1.99252 0-1.19551 1.59401 0 0-1.19551-1.59401" fill="#0000ff"/>
<path transform="matrix(1.00002,0,0,-1,143.8305,30.146)" stroke-width=".3985" stroke-linecap="butt" stroke-miterlimit="10" stroke-linejoin="miter" fill="none" stroke="#000000" d="M164.99907-90.77419C144.62448-113.2997 120.74591-120.99844 92.99892-115.03497"/>
<path transform="matrix(-.97766956,-.2101,-.2101042,.97765,236.83129,145.18099)" d="M1.99252 0-1.19551 1.59401 0 0-1.19551-1.59401"/>
<path transform="matrix(1.00002,0,0,-1,143.8305,30.146)" stroke-width=".3985" stroke-linecap="butt" stroke-miterlimit="10" stroke-linejoin="miter" fill="none" stroke="#000000" d="M193.34589-90.77419C172.9713-113.2997 149.09273-120.99844 121.34572-115.03497"/>
<path transform="matrix(-.97766956,-.2101,-.2101042,.97765,265.17866,145.18099)" d="M1.99252 0-1.19551 1.59401 0 0-1.19551-1.59401"/>
<path transform="matrix(1.00002,0,0,-1,143.8305,30.146)" stroke-width=".3985" stroke-linecap="butt" stroke-miterlimit="10" stroke-linejoin="miter" fill="none" stroke="#bf0040" d="M232.78499-86.65071C243.94116-89.69801 250.64608-96.46829 253.07883-105.72644"/>
<path transform="matrix(.2541051,.96713,.9671494,-.2541,396.9144,135.87244)" d="M1.99252 0-1.19551 1.59401 0 0-1.19551-1.59401" fill="#bf0040"/>
<path transform="matrix(1.00002,0,0,-1,143.8305,30.146)" stroke-width=".3985" stroke-linecap="butt" stroke-miterlimit="10" stroke-linejoin="miter" fill="none" stroke="#bf0040" d="M253.58513-90.77419C250.64608-101.95935 243.94116-108.72963 234.707-111.25198"/>
<path transform="matrix(-.9646293,.26347,.26347528,.96461,378.5422,141.39798)" d="M1.99252 0-1.19551 1.59401 0 0-1.19551-1.59401" fill="#bf0040"/>
<path transform="matrix(1.00002,0,0,-1,143.8305,30.146)" stroke-width=".3985" stroke-linecap="butt" stroke-miterlimit="10" stroke-linejoin="miter" fill="none" stroke="#000000" d="M28.00298-107.65347C26.49718-87.32191 33.82838-72.1308 49.0359-61.78183"/>
<path transform="matrix(.8267066,-.56256,-.5625713,-.82669,192.86739,91.92785)" d="M1.99252 0-1.19551 1.59401 0 0-1.19551-1.59401"/>
<path transform="matrix(1.00002,0,0,-1,143.8305,30.146)" stroke-width=".3985" stroke-linecap="butt" stroke-miterlimit="10" stroke-linejoin="miter" fill="none" stroke="#000000" d="M56.3498-107.65347C54.844-87.32191 62.17519-72.1308 77.38272-61.78183"/>
<path transform="matrix(.8267066,-.56256,-.5625713,-.82669,221.21479,91.92785)" d="M1.99252 0-1.19551 1.59401 0 0-1.19551-1.59401"/>
<path transform="matrix(1.00002,0,0,-1,143.8305,30.146)" stroke-width=".3985" stroke-linecap="butt" stroke-dasharray="2.98883,2.98883" stroke-miterlimit="10" stroke-linejoin="miter" fill="none" stroke="#0000ff" d="M84.6966-107.65347C83.1908-87.32191 90.522-72.1308 105.72952-61.78183"/>
<path transform="matrix(.8267066,-.56256,-.5625713,-.82669,249.56215,91.92785)" d="M1.99252 0-1.19551 1.59401 0 0-1.19551-1.59401" fill="#0000ff"/>
<path transform="matrix(1.00002,0,0,-1,143.8305,30.146)" stroke-width=".3985" stroke-linecap="butt" stroke-dasharray=".3985,1.99255" stroke-miterlimit="10" stroke-linejoin="miter" fill="none" stroke="#0000ff" d="M113.04341-107.65347C111.53761-87.32191 118.8688-72.1308 134.07634-61.78183"/>
<path transform="matrix(.8267066,-.56256,-.5625713,-.82669,277.90956,91.92785)" d="M1.99252 0-1.19551 1.59401 0 0-1.19551-1.59401" fill="#0000ff"/>
<path transform="matrix(1.00002,0,0,-1,143.8305,30.146)" stroke-width=".3985" stroke-linecap="butt" stroke-miterlimit="10" stroke-linejoin="miter" fill="none" stroke="#0000ff" d="M135.72353-111.77695C109.48935-104.6895 93.55583-88.69054 87.08826-64.35301"/>
<path transform="matrix(-.25680516,-.96643,-.9664494,.2568,230.92053,94.49901)" d="M1.99252 0-1.19551 1.59401 0 0-1.19551-1.59401" fill="#0000ff"/>
<path transform="matrix(1.00002,0,0,-1,143.8305,30.146)" stroke-width=".3985" stroke-linecap="butt" stroke-miterlimit="10" stroke-linejoin="miter" fill="none" stroke="#000000" d="M164.07035-112.99976C128.45589-110.77621 103.7545-94.38211 88.75957-64.21156"/>
<path transform="matrix(-.4450489,-.89545,-.89546796,.44504,232.59186,94.35756)" d="M1.99252 0-1.19551 1.59401 0 0-1.19551-1.59401"/>
<path transform="matrix(1.00002,0,0,-1,143.8305,30.146)" stroke-width=".3985" stroke-linecap="butt" stroke-miterlimit="10" stroke-linejoin="miter" fill="none" stroke="#000000" d="M192.41715-112.99976C156.8027-110.77621 132.1013-94.38211 117.10638-64.21156"/>
<path transform="matrix(-.4450489,-.89545,-.89546796,.44504,260.9392,94.35756)" d="M1.99252 0-1.19551 1.59401 0 0-1.19551-1.59401"/>
<path transform="matrix(1.00002,0,0,-1,143.8305,30.146)" stroke-width=".3985" stroke-linecap="butt" stroke-miterlimit="10" stroke-linejoin="miter" fill="none" stroke="#bf0040" d="M226.43065-107.65347C224.92485-87.32191 232.25605-72.1308 247.46358-61.78183"/>
<path transform="matrix(.8267066,-.56256,-.5625713,-.82669,391.29905,91.92785)" d="M1.99252 0-1.19551 1.59401 0 0-1.19551-1.59401" fill="#bf0040"/>
<path transform="matrix(1.00002,0,0,-1,143.8305,30.146)" stroke-width=".3985" stroke-linecap="butt" stroke-miterlimit="10" stroke-linejoin="miter" fill="none" stroke="#bf0040" d="M249.11077-109.4199C232.25605-97.95004 224.92485-82.75893 226.28351-64.41434"/>
<path transform="matrix(.07385148,-.99721,-.99723,-.07385,370.11854,94.56033)" d="M1.99252 0-1.19551 1.59401 0 0-1.19551-1.59401" fill="#bf0040"/>
<path transform="matrix(1.00002,0,0,-1,143.8305,30.146)" stroke-width=".3985" stroke-linecap="butt" stroke-miterlimit="10" stroke-linejoin="miter" fill="none" stroke="#000000" d="M27.17426-136.00028C20.66397-106.32011 28.23451-82.4989 49.21115-63.36343"/>
<path transform="matrix(.7387548,-.6739,-.6739135,-.73874,193.04264,93.50943)" d="M1.99252 0-1.19551 1.59401 0 0-1.19551-1.59401"/>
<path transform="matrix(1.00002,0,0,-1,143.8305,30.146)" stroke-width=".3985" stroke-linecap="butt" stroke-miterlimit="10" stroke-linejoin="miter" fill="none" stroke="#000000" d="M55.52107-136.00028C49.01077-106.32011 56.58131-82.4989 77.55797-63.36343"/>
<path transform="matrix(.7387548,-.6739,-.6739135,-.73874,221.39002,93.50943)" d="M1.99252 0-1.19551 1.59401 0 0-1.19551-1.59401"/>
<path transform="matrix(1.00002,0,0,-1,143.8305,30.146)" stroke-width=".3985" stroke-linecap="butt" stroke-miterlimit="10" stroke-linejoin="miter" fill="none" stroke="#000000" d="M83.86787-136.00028C77.35759-106.32011 84.92813-82.4989 105.90477-63.36343"/>
<path transform="matrix(.7387548,-.6739,-.6739135,-.73874,249.73737,93.50943)" d="M1.99252 0-1.19551 1.59401 0 0-1.19551-1.59401"/>
<path transform="matrix(1.00002,0,0,-1,143.8305,30.146)" stroke-width=".3985" stroke-linecap="butt" stroke-miterlimit="10" stroke-linejoin="miter" fill="none" stroke="#000000" d="M112.21469-136.00028C105.70439-106.32011 113.27493-82.4989 134.25159-63.36343"/>
<path transform="matrix(.7387548,-.6739,-.6739135,-.73874,278.08479,93.50943)" d="M1.99252 0-1.19551 1.59401 0 0-1.19551-1.59401"/>
<path transform="matrix(1.00002,0,0,-1,143.8305,30.146)" stroke-width=".3985" stroke-linecap="butt" stroke-miterlimit="10" stroke-linejoin="miter" fill="none" stroke="#000000" d="M135.72353-138.76493C103.76155-122.75124 87.52289-98.11409 85.52777-64.41628"/>
<path transform="matrix(-.059081187,-.99818,-.99819996,.05908,229.36002,94.56229)" d="M1.99252 0-1.19551 1.59401 0 0-1.19551-1.59401"/>
<path transform="matrix(1.00002,0,0,-1,143.8305,30.146)" stroke-width=".3985" stroke-linecap="butt" stroke-miterlimit="10" stroke-linejoin="miter" fill="none" stroke="#000000" d="M164.07035-140.12377C122.53036-128.93494 97.65688-103.99641 87.08974-64.35262"/>
<path transform="matrix(-.25755517,-.96623,-.96624937,.25755,230.922,94.49863)" d="M1.99252 0-1.19551 1.59401 0 0-1.19551-1.59401"/>
<path transform="matrix(1.00002,0,0,-1,143.8305,30.146)" stroke-width=".3985" stroke-linecap="butt" stroke-miterlimit="10" stroke-linejoin="miter" fill="none" stroke="#000000" d="M192.41715-140.12377C150.87718-128.93494 126.0037-103.99641 115.43655-64.35262"/>
<path transform="matrix(-.25755517,-.96623,-.96624937,.25755,259.26936,94.49863)" d="M1.99252 0-1.19551 1.59401 0 0-1.19551-1.59401"/>
<path transform="matrix(1.00002,0,0,-1,143.8305,30.146)" stroke-width=".3985" stroke-linecap="butt" stroke-miterlimit="10" stroke-linejoin="miter" fill="none" stroke="#000000" d="M225.60193-136.00028C219.09163-106.32011 226.66217-82.4989 247.63883-63.36343"/>
<path transform="matrix(.7387548,-.6739,-.6739135,-.73874,391.47428,93.50943)" d="M1.99252 0-1.19551 1.59401 0 0-1.19551-1.59401"/>
<path transform="matrix(1.00002,0,0,-1,143.8305,30.146)" stroke-width=".3985" stroke-linecap="butt" stroke-miterlimit="10" stroke-linejoin="miter" fill="none" stroke="#000000" d="M249.11077-136.40699C226.66217-115.92876 219.09163-92.10753 225.17507-64.37354"/>
<path transform="matrix(.21423429,-.97673,-.97674956,-.21423,369.01008,94.51955)" d="M1.99252 0-1.19551 1.59401 0 0-1.19551-1.59401"/>
<path transform="matrix(1.00002,0,0,-1,143.8305,30.146)" stroke-width=".3985" stroke-linecap="butt" stroke-miterlimit="10" stroke-linejoin="miter" fill="none" stroke="#000000" d="M27.17426-164.34709C20.66397-134.66693 28.23451-110.8457 49.21115-91.71025"/>
<path transform="matrix(.7387548,-.6739,-.6739135,-.73874,193.04264,121.85625)" d="M1.99252 0-1.19551 1.59401 0 0-1.19551-1.59401"/>
<path transform="matrix(1.00002,0,0,-1,143.8305,30.146)" stroke-width=".3985" stroke-linecap="butt" stroke-miterlimit="10" stroke-linejoin="miter" fill="none" stroke="#000000" d="M55.52107-164.34709C49.01077-134.66693 56.58131-110.8457 77.55797-91.71025"/>
<path transform="matrix(.7387548,-.6739,-.6739135,-.73874,221.39002,121.85625)" d="M1.99252 0-1.19551 1.59401 0 0-1.19551-1.59401"/>
<path transform="matrix(1.00002,0,0,-1,143.8305,30.146)" stroke-width=".3985" stroke-linecap="butt" stroke-miterlimit="10" stroke-linejoin="miter" fill="none" stroke="#000000" d="M83.86787-164.34709C77.35759-134.66693 84.92813-110.8457 105.90477-91.71025"/>
<path transform="matrix(.7387548,-.6739,-.6739135,-.73874,249.73737,121.85625)" d="M1.99252 0-1.19551 1.59401 0 0-1.19551-1.59401"/>
<path transform="matrix(1.00002,0,0,-1,143.8305,30.146)" stroke-width=".3985" stroke-linecap="butt" stroke-miterlimit="10" stroke-linejoin="miter" fill="none" stroke="#000000" d="M112.21469-164.34709C105.70439-134.66693 113.27493-110.8457 134.25159-91.71025"/>
<path transform="matrix(.7387548,-.6739,-.6739135,-.73874,278.08479,121.85625)" d="M1.99252 0-1.19551 1.59401 0 0-1.19551-1.59401"/>
<path transform="matrix(1.00002,0,0,-1,143.8305,30.146)" stroke-width=".3985" stroke-linecap="butt" stroke-miterlimit="10" stroke-linejoin="miter" fill="none" stroke="#000000" d="M135.72353-167.11174C103.76155-151.09806 87.52289-126.4609 85.52777-92.76309"/>
<path transform="matrix(-.059081187,-.99818,-.99819996,.05908,229.36002,122.90909)" d="M1.99252 0-1.19551 1.59401 0 0-1.19551-1.59401"/>
<path transform="matrix(1.00002,0,0,-1,143.8305,30.146)" stroke-width=".3985" stroke-linecap="butt" stroke-miterlimit="10" stroke-linejoin="miter" fill="none" stroke="#000000" d="M164.07035-168.47057C122.53036-157.28174 97.65688-132.34322 87.08974-92.69942"/>
<path transform="matrix(-.25755517,-.96623,-.96624937,.25755,230.922,122.84541)" d="M1.99252 0-1.19551 1.59401 0 0-1.19551-1.59401"/>
<path transform="matrix(1.00002,0,0,-1,143.8305,30.146)" stroke-width=".3985" stroke-linecap="butt" stroke-miterlimit="10" stroke-linejoin="miter" fill="none" stroke="#000000" d="M192.41715-168.47057C150.87718-157.28174 126.0037-132.34322 115.43655-92.69942"/>
<path transform="matrix(-.25755517,-.96623,-.96624937,.25755,259.26936,122.84541)" d="M1.99252 0-1.19551 1.59401 0 0-1.19551-1.59401"/>
<path transform="matrix(1.00002,0,0,-1,143.8305,30.146)" stroke-width=".3985" stroke-linecap="butt" stroke-miterlimit="10" stroke-linejoin="miter" fill="none" stroke="#000000" d="M225.60193-164.34709C219.09163-134.66693 226.66217-110.8457 247.63883-91.71025"/>
<path transform="matrix(.7387548,-.6739,-.6739135,-.73874,391.47428,121.85625)" d="M1.99252 0-1.19551 1.59401 0 0-1.19551-1.59401"/>
<path transform="matrix(1.00002,0,0,-1,143.8305,30.146)" stroke-width=".3985" stroke-linecap="butt" stroke-miterlimit="10" stroke-linejoin="miter" fill="none" stroke="#000000" d="M249.11077-164.75379C226.66217-144.27558 219.09163-120.45435 225.17507-92.72034"/>
<path transform="matrix(.21423429,-.97673,-.97674956,-.21423,369.01008,122.86633)" d="M1.99252 0-1.19551 1.59401 0 0-1.19551-1.59401"/>
<path transform="matrix(1.00002,0,0,-1,143.8305,30.146)" stroke-width=".3985" stroke-linecap="butt" stroke-miterlimit="10" stroke-linejoin="miter" fill="none" stroke="#000000" d="M34.35732-200.03795C45.5135-203.08527 52.21841-209.85553 54.65117-219.11368"/>
<path transform="matrix(.2541051,.96713,.9671494,-.2541,198.48278,249.25968)" d="M1.99252 0-1.19551 1.59401 0 0-1.19551-1.59401"/>
<path transform="matrix(1.00002,0,0,-1,143.8305,30.146)" stroke-width=".3985" stroke-linecap="butt" stroke-miterlimit="10" stroke-linejoin="miter" fill="none" stroke="#000000" d="M62.70413-200.03795C73.8603-203.08527 80.56522-209.85553 82.99797-219.11368"/>
<path transform="matrix(.2541051,.96713,.9671494,-.2541,226.83014,249.25968)" d="M1.99252 0-1.19551 1.59401 0 0-1.19551-1.59401"/>
<path transform="matrix(1.00002,0,0,-1,143.8305,30.146)" stroke-width=".3985" stroke-linecap="butt" stroke-dasharray="2.98883,2.98883" stroke-miterlimit="10" stroke-linejoin="miter" fill="none" stroke="#bf0040" d="M91.05093-200.03795C102.20712-203.08527 108.91203-209.85553 111.34479-219.11368"/>
<path transform="matrix(.2541051,.96713,.9671494,-.2541,255.17752,249.25968)" d="M1.99252 0-1.19551 1.59401 0 0-1.19551-1.59401" fill="#bf0040"/>
<path transform="matrix(1.00002,0,0,-1,143.8305,30.146)" stroke-width=".3985" stroke-linecap="butt" stroke-dasharray="2.98883,2.98883" stroke-miterlimit="10" stroke-linejoin="miter" fill="none" stroke="#bf0040" d="M119.39775-200.03795C130.55393-203.08527 137.25884-209.85553 139.69159-219.11368"/>
<path transform="matrix(.2541051,.96713,.9671494,-.2541,283.5249,249.25968)" d="M1.99252 0-1.19551 1.59401 0 0-1.19551-1.59401" fill="#bf0040"/>
<path transform="matrix(1.00002,0,0,-1,143.8305,30.146)" stroke-width=".3985" stroke-linecap="butt" stroke-dasharray="2.98883,2.98883" stroke-miterlimit="10" stroke-linejoin="miter" fill="none" stroke="#bf0040" d="M137.9494-204.16143C126.551-221.12233 111.43874-228.5257 93.03877-227.27045"/>
<path transform="matrix(-.99767,-.06804,-.06804136,.99765,236.87114,257.41648)" d="M1.99252 0-1.19551 1.59401 0 0-1.19551-1.59401" fill="#bf0040"/>
<path transform="matrix(1.00002,0,0,-1,143.8305,30.146)" stroke-width=".3985" stroke-linecap="butt" stroke-miterlimit="10" stroke-linejoin="miter" fill="none" stroke="#000000" d="M164.99907-204.16143C144.62448-226.68694 120.74591-234.38568 92.99892-228.42221"/>
<path transform="matrix(-.97766956,-.2101,-.2101042,.97765,236.83129,258.56825)" d="M1.99252 0-1.19551 1.59401 0 0-1.19551-1.59401"/>
<path transform="matrix(1.00002,0,0,-1,143.8305,30.146)" stroke-width=".3985" stroke-linecap="butt" stroke-miterlimit="10" stroke-linejoin="miter" fill="none" stroke="#000000" d="M193.34589-204.16143C172.9713-226.68694 149.09273-234.38568 121.34572-228.42221"/>
<path transform="matrix(-.97766956,-.2101,-.2101042,.97765,265.17866,258.56825)" d="M1.99252 0-1.19551 1.59401 0 0-1.19551-1.59401"/>
<path transform="matrix(1.00002,0,0,-1,143.8305,30.146)" stroke-width=".3985" stroke-linecap="butt" stroke-dasharray="2.98883,2.98883" stroke-miterlimit="10" stroke-linejoin="miter" fill="none" stroke="#ff0000" d="M232.78499-200.03795C243.94116-203.08527 250.64608-209.85553 253.07883-219.11368"/>
<path transform="matrix(.2541051,.96713,.9671494,-.2541,396.9144,249.25968)" d="M1.99252 0-1.19551 1.59401 0 0-1.19551-1.59401" fill="#ff0000"/>
<path transform="matrix(1.00002,0,0,-1,143.8305,30.146)" stroke-width=".3985" stroke-linecap="butt" stroke-miterlimit="10" stroke-linejoin="miter" fill="none" stroke="#ff0000" d="M253.58513-204.16143C250.64608-215.3466 243.94116-222.11687 234.707-224.63922"/>
<path transform="matrix(-.9646293,.26347,.26347528,.96461,378.5422,254.78522)" d="M1.99252 0-1.19551 1.59401 0 0-1.19551-1.59401" fill="#ff0000"/>
<path transform="matrix(1.00002,0,0,-1,143.8305,30.146)" stroke-width=".3985" stroke-linecap="butt" stroke-miterlimit="10" stroke-linejoin="miter" fill="none" stroke="#000000" d="M34.35732-225.16419C45.5135-222.11687 52.21841-215.3466 54.65117-206.08846"/>
<path transform="matrix(.2541051,-.96713,-.9671494,-.2541,198.48278,236.23445)" d="M1.99252 0-1.19551 1.59401 0 0-1.19551-1.59401"/>
<path transform="matrix(1.00002,0,0,-1,143.8305,30.146)" stroke-width=".3985" stroke-linecap="butt" stroke-miterlimit="10" stroke-linejoin="miter" fill="none" stroke="#000000" d="M62.70413-225.16419C73.8603-222.11687 80.56522-215.3466 82.99797-206.08846"/>
<path transform="matrix(.2541051,-.96713,-.9671494,-.2541,226.83014,236.23445)" d="M1.99252 0-1.19551 1.59401 0 0-1.19551-1.59401"/>
<path transform="matrix(1.00002,0,0,-1,143.8305,30.146)" stroke-width=".3985" stroke-linecap="butt" stroke-dasharray="2.98883,2.98883" stroke-miterlimit="10" stroke-linejoin="miter" fill="none" stroke="#bf0040" d="M91.05093-225.16419C102.20712-222.11687 108.91203-215.3466 111.34479-206.08846"/>
<path transform="matrix(.2541051,-.96713,-.9671494,-.2541,255.17752,236.23445)" d="M1.99252 0-1.19551 1.59401 0 0-1.19551-1.59401" fill="#bf0040"/>
<path transform="matrix(1.00002,0,0,-1,143.8305,30.146)" stroke-width=".3985" stroke-linecap="butt" stroke-dasharray="2.98883,2.98883" stroke-miterlimit="10" stroke-linejoin="miter" fill="none" stroke="#bf0040" d="M119.39775-225.16419C130.55393-222.11687 137.25884-215.3466 139.69159-206.08846"/>
<path transform="matrix(.2541051,-.96713,-.9671494,-.2541,283.5249,236.23445)" d="M1.99252 0-1.19551 1.59401 0 0-1.19551-1.59401" fill="#bf0040"/>
<path transform="matrix(1.00002,0,0,-1,143.8305,30.146)" stroke-width=".3985" stroke-linecap="butt" stroke-dasharray="2.98883,2.98883" stroke-miterlimit="10" stroke-linejoin="miter" fill="none" stroke="#bf0040" d="M135.72353-227.13489C115.33572-228.5257 100.22348-221.12233 89.93639-205.81513"/>
<path transform="matrix(-.55776116,-.82996,-.8299766,.55775,233.7687,235.96112)" d="M1.99252 0-1.19551 1.59401 0 0-1.19551-1.59401" fill="#bf0040"/>
<path transform="matrix(1.00002,0,0,-1,143.8305,30.146)" stroke-width=".3985" stroke-linecap="butt" stroke-miterlimit="10" stroke-linejoin="miter" fill="none" stroke="#000000" d="M164.07035-228.0036C134.37535-234.38568 110.4968-226.68694 91.45876-205.63906"/>
<path transform="matrix(-.6708034,-.7416,-.7416148,.67079,235.2911,235.78505)" d="M1.99252 0-1.19551 1.59401 0 0-1.19551-1.59401"/>
<path transform="matrix(1.00002,0,0,-1,143.8305,30.146)" stroke-width=".3985" stroke-linecap="butt" stroke-miterlimit="10" stroke-linejoin="miter" fill="none" stroke="#000000" d="M192.41715-228.0036C162.72217-234.38568 138.8436-226.68694 119.80557-205.63906"/>
<path transform="matrix(-.6708034,-.7416,-.7416148,.67079,263.6385,235.78505)" d="M1.99252 0-1.19551 1.59401 0 0-1.19551-1.59401"/>
<path transform="matrix(1.00002,0,0,-1,143.8305,30.146)" stroke-width=".3985" stroke-linecap="butt" stroke-miterlimit="10" stroke-linejoin="miter" fill="none" stroke="#ff0000" d="M228.31063-221.04071C231.24968-209.85553 237.95459-203.08527 247.18875-200.56291"/>
<path transform="matrix(.9646293,-.26347,-.26347528,-.96461,391.0242,230.70891)" d="M1.99252 0-1.19551 1.59401 0 0-1.19551-1.59401" fill="#ff0000"/>
<path transform="matrix(1.00002,0,0,-1,143.8305,30.146)" stroke-width=".3985" stroke-linecap="butt" stroke-dasharray="2.98883,2.98883" stroke-miterlimit="10" stroke-linejoin="miter" fill="none" stroke="#ff0000" d="M249.11077-225.16419C237.95459-222.11687 231.24968-215.3466 228.81693-206.08846"/>
<path transform="matrix(-.2541051,-.96713,-.9671494,.2541,372.652,236.23445)" d="M1.99252 0-1.19551 1.59401 0 0-1.19551-1.59401" fill="#ff0000"/>
<path transform="matrix(1.00002,0,0,-1,143.8305,30.146)" stroke-width=".3985" stroke-linecap="butt" stroke-miterlimit="10" stroke-linejoin="miter" fill="none" stroke="#000000" d="M0-141.73404H-83.0479"/>
<path transform="matrix(-1.00002,-0,0,1,60.780946,171.88004)" d="M1.99252 0-1.19551 1.59401 0 0-1.19551-1.59401"/>
<path transform="matrix(1.00002,0,0,-1,143.8305,30.146)" stroke-width=".3985" stroke-linecap="butt" stroke-miterlimit="10" stroke-linejoin="miter" fill="none" stroke="#000000" d="M141.73404-255.12128V-281.47557"/>
<path transform="matrix(0,1,1.00002,0,285.56739,311.62156)" d="M1.99252 0-1.19551 1.59401 0 0-1.19551-1.59401"/>
</svg>
