<svg xmlns="http://www.w3.org/2000/svg" xmlns:xlink="http://www.w3.org/1999/xlink" xmlns:inkscape="http://www.inkscape.org/namespaces/inkscape" version="1.1" width="236" height="124" viewBox="0 0 236 124">
<defs>
<path id="font_1_1" d="M.5289917 .31925965C.5289917 .41625978 .5279999 .65527346 .2869873 .65527346 .04598999 .65527346 .04499817 .41726686 .04499817 .31925965 .04499817 .22026062 .04598999-.0107421879 .2869873-.0107421879 .5269928-.0107421879 .5289917 .21925354 .5289917 .31925965M.2869873 .025253296C.25099183 .025253296 .19499207 .04725647 .18199158 .12025452 .17298889 .17225647 .17298889 .27626039 .17298889 .33125306 .17298889 .40325929 .17298889 .46826173 .18099976 .5202637 .19299317 .6092682 .2630005 .6192627 .2869873 .6192627 .32398988 .6192627 .36499024 .6002655 .38398744 .5562744 .40098573 .51927188 .40098573 .41326905 .40098573 .33125306 .40098573 .2752533 .40098573 .18424988 .3939972 .13224793 .37998963 .039245607 .31698609 .025253296 .2869873 .025253296Z"/>
<path id="font_1_2" d="M.35398866 .62316897C.35398866 .6452637 .35398866 .65527346 .32798768 .65527346 .31698609 .65527346 .31498719 .65527346 .30599977 .64826968 .22898865 .5909424 .12599182 .5909424 .10499573 .5909424H.084991458V.5439453H.10499573C.12098694 .5439453 .17599488 .54493716 .23498535 .5639343V.04699707H.09599304V0C.13999939 .0029907227 .24598694 .0029907227 .29499818 .0029907227 .34399415 .0029907227 .44999696 .0029907227 .49398805 0V.04699707H.35398866V.62316897Z"/>
<path id="font_2_1" d="M.1599884 .07795715C.1499939 .038986207 .147995 .0309906 .068984989 .0309906 .051986696 .0309906 .041992189 .0309906 .041992189 .010986328 .041992189 0 .050994874 0 .068984989 0H.42599488C.58399966 0 .70199587 .11791992 .70199587 .21585083 .70199587 .28778077 .6439972 .3457489 .5469971 .35673524 .651001 .37573243 .7559967 .44970704 .7559967 .5446625 .7559967 .6186218 .6899872 .6826172 .56999209 .6826172H.23399353C.21499634 .6826172 .20498657 .6826172 .20498657 .6626129 .20498657 .6516113 .21398926 .6516113 .23298645 .6516113 .23498535 .6516113 .2539978 .6516113 .2709961 .6496124 .2889862 .6476135 .2979889 .64660647 .2979889 .6336212 .2979889 .6296234 .29699708 .62661746 .2939911 .614624L.1599884 .07795715M.31098939 .36573792 .37298585 .6136322C.38198854 .64860537 .38398744 .6516113 .4269867 .6516113H.55599978C.6439972 .6516113 .6649933 .5926361 .6649933 .5486603 .6649933 .46069337 .57899478 .36573792 .45700074 .36573792H.31098939M.2659912 .0309906C.2519989 .0309906 .25 .0309906 .24398804 .03199768 .23399353 .032989503 .23098755 .033996583 .23098755 .04197693 .23098755 .04498291 .23098755 .04698181 .23599243 .064971927L.30499269 .34375H.49398805C.58999636 .34375 .60899356 .2698059 .60899356 .22683716 .60899356 .12791443 .519989 .0309906 .4019928 .0309906H.2659912Z"/>
<path id="font_3_1" d="M.33499146 .63612368C.33499146 .6630554 .33299256 .6640625 .30499269 .6640625 .24099732 .6014404 .1499939 .6004486 .10899353 .6004486V.5644531C.1329956 .5644531 .19898987 .5644531 .2539978 .592453V.08203125C.2539978 .04899597 .2539978 .035995485 .1539917 .035995485H.115997318V0C.13398743 .0009918213 .25698854 .0039978029 .2939911 .0039978029 .32499696 .0039978029 .45098878 .0009918213 .47299195 0V.035995485H.43499757C.33499146 .035995485 .33499146 .04899597 .33499146 .08203125V.63612368Z"/>
<path id="font_3_2" d="M.5049896 .18203736H.47099305C.46798707 .16001892 .45799256 .100997928 .44499208 .09098816 .43699647 .084991458 .3600006 .084991458 .34599305 .084991458H.1619873C.2669983 .17803955 .3019867 .20603943 .3619995 .25306703 .43598939 .312088 .5049896 .374115 .5049896 .46914674 .5049896 .5900879 .39898683 .6640625 .2709961 .6640625 .14698792 .6640625 .06298828 .57710269 .06298828 .4851532 .06298828 .43414308 .10598755 .42915345 .115997318 .42915345 .13999939 .42915345 .16899109 .44615174 .16899109 .48214723 .16899109 .5001526 .1619873 .53515627 .10998535 .53515627 .14099121 .6060791 .20899964 .62805178 .2559967 .62805178 .35598756 .62805178 .4079895 .5501404 .4079895 .46914674 .4079895 .38212586 .34599305 .3130951 .31399537 .27708436L.07299805 .038986207C.06298828 .02999878 .06298828 .027999878 .06298828 0H.47499085L.5049896 .18203736Z"/>
<path id="font_2_2" d="M.644989 .69506838C.644989 .69807437 .6429901 .7050781 .6339874 .7050781 .6289978 .7050781 .6279907 .70407107 .6159973 .6900635L.56799319 .6330414C.5419922 .68006899 .48999024 .7050781 .4249878 .7050781 .2979889 .7050781 .17799378 .58999636 .17799378 .4689026 .17799378 .38783265 .23098755 .34179688 .28199769 .32678224L.3889923 .2987671C.42599488 .2897644 .48098756 .27474977 .48098756 .19267273 .48098756 .1026001 .39898683 .008529663 .30099488 .008529663 .23699951 .008529663 .12599182 .030548096 .12599182 .15464783 .12599182 .17866516 .1309967 .2026825 .13198853 .20869446 .1329956 .21269226 .13398743 .21369934 .13398743 .21569824 .13398743 .22570801 .1269989 .22669983 .12199402 .22669983 .116989139 .22669983 .114990238 .22570801 .11199951 .22270203 .10798645 .21870423 .051986696-.009475708 .051986696-.012466431 .051986696-.018463135 .056991579-.022460938 .06298828-.022460938 .067993167-.022460938 .068984989-.021469117 .08099365-.007461548L.12998963 .049560548C.17298889-.008468628 .24099732-.022460938 .29899598-.022460938 .43499757-.022460938 .5529938 .11061096 .5529938 .2347107 .5529938 .30377198 .5189972 .33779908 .5039978 .35180665 .48098756 .37483216 .46598817 .37882997 .3769989 .40185548 .35499574 .40785218 .31900025 .41786195 .30999757 .41986085 .2829895 .42886354 .24899292 .457901 .24899292 .51094058 .24899292 .59199526 .32899476 .677063 .42399598 .677063 .5069885 .677063 .56799319 .6340332 .56799319 .52194216 .56799319 .48991395 .56399539 .47190858 .56399539 .4658966 .56399539 .4649048 .56399539 .45588685 .57598879 .45588685 .58599856 .45588685 .58699038 .45889283 .59098818 .47590638L.644989 .69506838Z"/>
<path id="font_2_3" d="M.5970001 .5686493 .61099246 .5826416C.6409912 .6126251 .673996 .64660647 .74198916 .6516113 .7529907 .65260317 .7619934 .65260317 .7619934 .6706085 .7619934 .6786041 .7569885 .6826172 .7489929 .6826172 .72299197 .6826172 .69400027 .6796112 .6669922 .6796112 .6339874 .6796112 .598999 .6826172 .5669861 .6826172 .5609894 .6826172 .5479889 .6826172 .5479889 .66360476 .5479889 .65260317 .55799868 .6516113 .5629883 .6516113 .56999209 .6516113 .598999 .6496124 .598999 .62861636 .598999 .6116333 .57598879 .5856476 .57199099 .5806427L.33999635 .31381227 .22999573 .6106262C.22399903 .62461856 .22399903 .62661746 .22399903 .6276245 .22399903 .6516113 .272995 .6516113 .2829895 .6516113 .29699708 .6516113 .30699159 .6516113 .30699159 .6716156 .30699159 .6826172 .29499818 .6826172 .2919922 .6826172 .2639923 .6826172 .19400025 .6796112 .1659851 .6796112 .14099121 .6796112 .07899475 .6826172 .053985597 .6826172 .04798889 .6826172 .034988405 .6826172 .034988405 .6626129 .034988405 .6516113 .04499817 .6516113 .057998659 .6516113 .117996219 .6516113 .12199402 .64260867 .1309967 .61763L.2539978 .28883363C.25498963 .28582765 .2579956 .2748413 .2579956 .27183534 .2579956 .2688446 .21798706 .107940677 .21299744 .08995056 .19999695 .034988405 .19898987 .03199768 .11898804 .0309906 .099990848 .0309906 .09199524 .0309906 .09199524 .010986328 .09199524 0 .10398865 0 .10598755 0 .13398743 0 .20399475 .0029907227 .23199463 .0029907227 .2599945 .0029907227 .33198548 0 .3600006 0 .36698915 0 .3789978 0 .3789978 .019989014 .3789978 .0309906 .36999513 .0309906 .35099793 .0309906 .34899903 .0309906 .32998658 .0309906 .31298829 .032989503 .2919922 .034988405 .28599549 .036987306 .28599549 .048980714 .28599549 .05596924 .29499818 .09095764 .2999878 .11193848L.33499146 .2528534C.33999635 .27183534 .34098817 .2748413 .34899903 .28382875L.5970001 .5686493Z"/>
<path id="font_2_5" d="M.47099305 .3773346C.47200013 .3833313 .47399903 .38833619 .47399903 .39535523 .47399903 .41236878 .46199037 .42237855 .44499208 .42237855 .43499757 .42237855 .4079895 .41537477 .4039917 .3793335 .38598634 .41636659 .35099793 .4423828 .31098939 .4423828 .19699097 .4423828 .07299805 .30226136 .07299805 .15812683 .07299805 .059020997 .13398743 0 .20599365 0 .2649994 0 .31199647 .04701233 .32199098 .058029176L.32299806 .057022096C.3019867-.031982423 .2899933-.07295227 .2899933-.07495117 .28599549-.08395386 .2519989-.18309021 .1459961-.18309021 .1269989-.18309021 .09399414-.18206787 .06599426-.17297364 .09599304-.16394043 .10699463-.13793946 .10699463-.12094116 .10699463-.10494995 .09599304-.0859375 .068984989-.0859375 .04699707-.0859375 .01499939-.10394287 .01499939-.14395142 .01499939-.18508911 .051986696-.20507813 .147995-.20507813 .272995-.20507813 .34498597-.12693787 .3600006-.06695557L.47099305 .3773346M.34098817 .12809754C.33499146 .10206604 .31199647 .077041629 .2899933 .058029176 .2689972 .040008546 .23799134 .021987915 .20899964 .021987915 .15899658 .021987915 .14399719 .074035648 .14399719 .11407471 .14399719 .16212464 .17298889 .28024293 .19999695 .33128358 .22698975 .38034059 .269989 .42037965 .31199647 .42037965 .37799073 .42037965 .3919983 .33929444 .3919983 .33428956 .3919983 .32928468 .3899994 .3232727 .3889923 .3192749L.34098817 .12809754Z"/>
<path id="font_2_6" d="M.39698792 .6252594C.39698792 .6442566 .3829956 .6612549 .35899354 .6612549 .33599855 .6612549 .30599977 .6382599 .30599977 .6082611 .30599977 .58825686 .31999208 .5722656 .34298707 .5722656 .36999513 .5722656 .39698792 .59825137 .39698792 .6252594M.19599915-.049926759C.1769867-.12594605 .1289978-.18309021 .07299805-.18309021 .066986087-.18309021 .051986696-.18309021 .033996583-.17396546 .06399536-.16694641 .07899475-.14094544 .07899475-.12094116 .07899475-.10494995 .067993167-.0859375 .040985109-.0859375 .015991211-.0859375-.013000488-.10694885-.013000488-.14294434-.013000488-.18309021 .026992798-.20507813 .07499695-.20507813 .14498902-.20507813 .23799134-.15194702 .2630005-.05291748L.35499574 .31330873C.3600006 .333313 .3600006 .34732057 .3600006 .35032655 .3600006 .4073639 .31799317 .4423828 .2679901 .4423828 .1659851 .4423828 .10899353 .29730226 .10899353 .2882843 .10899353 .2782898 .11898804 .2782898 .12098694 .2782898 .12998963 .2782898 .1309967 .27928163 .13899231 .29829408 .1639862 .35932923 .20999146 .42037965 .2649994 .42037965 .2789917 .42037965 .29699708 .41636659 .29699708 .37434388 .29699708 .35133363 .2939911 .34031678 .2899933 .32331849L.19599915-.049926759Z"/>
<path id="font_2_4" d="M.23899842 .68333438C.23899842 .6843262 .23899842 .69433596 .22599793 .69433596 .20298767 .69433596 .12998963 .6863251 .10398865 .6843262 .09599304 .68333438 .084991458 .6823273 .084991458 .6643219 .084991458 .6523285 .09399414 .6523285 .10899353 .6523285 .15699768 .6523285 .15899658 .6453247 .15899658 .6353302 .15899658 .6283264 .1499939 .5943451 .14498902 .573349L.06298828 .24731446C.050994874 .1973114 .04699707 .18130493 .04699707 .14628601 .04699707 .05126953 .099990848-.0107421879 .17399597-.0107421879 .2919922-.0107421879 .4149933 .1382904 .4149933 .28233338 .4149933 .37335206 .3619995 .4423828 .28199769 .4423828 .23599243 .4423828 .19499207 .41337586 .16499329 .38235475L.23899842 .68333438M.14498902 .30534364C.15098572 .3273468 .15098572 .3293457 .1599884 .3403473 .20899964 .405365 .2539978 .42037965 .27999879 .42037965 .31599427 .42037965 .34298707 .3903656 .34298707 .32633973 .34298707 .26733399 .30999757 .15229798 .2919922 .11428833 .25898744 .04725647 .21299744 .011245728 .17399597 .011245728 .13999939 .011245728 .10699463 .038253786 .10699463 .11227417 .10699463 .13128662 .10699463 .15029907 .12298584 .21331787L.14498902 .30534364Z"/>
<path id="font_2_7" d="M.3909912 .37405396C.36299134 .37304688 .34298707 .3510437 .34298707 .32904054 .34298707 .31503297 .35198976 .30003358 .37399293 .30003358 .3959961 .30003358 .41999818 .31703187 .41999818 .35603334 .41999818 .40124513 .3769989 .4423828 .30099488 .4423828 .16899109 .4423828 .13198853 .3400421 .13198853 .29605104 .13198853 .21820069 .20599365 .20323181 .23498535 .19725037 .2869873 .18727112 .33898927 .17628479 .33898927 .12133789 .33898927 .095336917 .31599427 .011245728 .19599915 .011245728 .18199158 .011245728 .10499573 .011245728 .08198547 .064331058 .11999512 .059326173 .14498902 .08934021 .14498902 .11734009 .14498902 .14033509 .1289978 .15234375 .10798645 .15234375 .08198547 .15234375 .051986696 .1313324 .051986696 .08633423 .051986696 .029281617 .10899353-.0107421879 .19499207-.0107421879 .35699464-.0107421879 .3959961 .1103363 .3959961 .15533448 .3959961 .19125366 .3769989 .21620178 .36499024 .22817993 .33799745 .25613404 .30899049 .26112367 .2649994 .27009584 .22898865 .27807618 .18899536 .2850647 .18899536 .33003236 .18899536 .3590393 .21299744 .42037965 .30099488 .42037965 .32598878 .42037965 .37599183 .41333009 .3909912 .37405396Z"/>
</defs>
<use data-text="0" xlink:href="#font_1_1" transform="matrix(9.962899,0,0,-9.963496,1.2185898,64.97977)"/>
<use data-text="1" xlink:href="#font_1_2" transform="matrix(9.962899,0,0,-9.963496,57.9133,64.97977)"/>
<use data-text="B" xlink:href="#font_2_1" transform="matrix(9.962899,0,0,-9.963496,111.45989,7.7276155)"/>
<use data-text="1" xlink:href="#font_3_1" transform="matrix(6.9740097,0,0,-6.9744279,119.01712,9.221756)"/>
<use data-text="B" xlink:href="#font_2_1" transform="matrix(9.962899,0,0,-9.963496,111.45989,121.124828)"/>
<use data-text="2" xlink:href="#font_3_2" transform="matrix(6.9740097,0,0,-6.9744279,119.01712,122.618968)"/>
<use data-text="S" xlink:href="#font_2_2" transform="matrix(9.962899,0,0,-9.963496,170.82669,65.17379)"/>
<use data-text="Y" xlink:href="#font_2_3" transform="matrix(9.962899,0,0,-9.963496,226.86435,65.17379)"/>
<path transform="matrix(1.00003,0,0,-1.00009,-24.265175,175.16669)" stroke-width=".3985" stroke-linecap="butt" stroke-miterlimit="10" stroke-linejoin="miter" fill="none" stroke="#000000" d="M34.7309 113.38724H76.6638"/>
<path transform="matrix(1.00003,0,0,-1.00009,52.400934,61.76924)" d="M1.99252 0-1.19551 1.59401 0 0-1.19551-1.59401"/>
<path transform="matrix(1.00003,0,0,-1.00009,-24.265175,175.16669)" stroke-width=".3985" stroke-linecap="butt" stroke-miterlimit="10" stroke-linejoin="miter" fill="none" stroke="#000000" d="M151.26699 170.65193C194.65354 173.01192 226.814 156.7048 249.46266 121.97983"/>
<path transform="matrix(.5463164,.8376254,.83757516,-.54634919,225.20496,53.175867)" d="M1.99252 0-1.19551 1.59401 0 0-1.19551-1.59401"/>
<use data-text="g" xlink:href="#font_2_5" transform="matrix(9.962899,0,0,-9.963496,179.40796,9.680801)"/>
<use data-text="1" xlink:href="#font_3_1" transform="matrix(6.9740097,0,0,-6.9744279,184.1601,11.174942)"/>
<path transform="matrix(1.00003,0,0,-1.00009,-24.265175,175.16669)" stroke-width=".3985" stroke-linecap="butt" stroke-miterlimit="10" stroke-linejoin="miter" fill="none" stroke="#000000" d="M151.26699 56.12253C194.65354 53.76254 226.814 70.06967 249.46266 104.79463"/>
<path transform="matrix(.5463164,-.8376254,-.83757516,-.54634919,225.20496,70.36264)" d="M1.99252 0-1.19551 1.59401 0 0-1.19551-1.59401"/>
<use data-text="g" xlink:href="#font_2_5" transform="matrix(9.962899,0,0,-9.963496,179.40796,116.21038)"/>
<use data-text="2" xlink:href="#font_3_2" transform="matrix(6.9740097,0,0,-6.9744279,184.1601,117.70452)"/>
<path transform="matrix(1.00003,0,0,-1.00009,-24.265175,175.16669)" stroke-width=".3985" stroke-linecap="butt" stroke-miterlimit="10" stroke-linejoin="miter" fill="none" stroke="#000000" d="M205.28916 113.38724H245.61"/>
<path transform="matrix(1.00003,0,0,-1.00009,221.3522,61.76924)" d="M1.99252 0-1.19551 1.59401 0 0-1.19551-1.59401"/>
<use data-text="g" xlink:href="#font_2_5" transform="matrix(9.962899,0,0,-9.963496,199.63257,56.31199)"/>
<path transform="matrix(1.00003,0,0,-1.00009,-24.265175,175.16669)" stroke-width=".3985" stroke-linecap="butt" stroke-miterlimit="10" stroke-linejoin="miter" fill="none" stroke="#000000" d="M149.40358 162.4099 190.15732 121.65369"/>
<path transform="matrix(.7071012,.70718368,.7071412,-.70714369,165.89783,53.502038)" d="M1.99252 0-1.19551 1.59401 0 0-1.19551-1.59401"/>
<use data-text="j" xlink:href="#font_2_6" transform="matrix(9.962899,0,0,-9.963496,141.93881,43.917879)"/>
<use data-text="1" xlink:href="#font_3_1" transform="matrix(6.9740097,0,0,-6.9744279,146.04193,45.412019)"/>
<path transform="matrix(1.00003,0,0,-1.00009,-24.265175,175.16669)" stroke-width=".3985" stroke-linecap="butt" stroke-miterlimit="10" stroke-linejoin="miter" fill="none" stroke="#000000" d="M149.40358 64.36456 190.15732 105.12077"/>
<path transform="matrix(.7071012,-.70718368,-.7071412,-.70714369,165.89783,70.03647)" d="M1.99252 0-1.19551 1.59401 0 0-1.19551-1.59401"/>
<use data-text="j" xlink:href="#font_2_6" transform="matrix(9.962899,0,0,-9.963496,141.93881,84.25451)"/>
<use data-text="2" xlink:href="#font_3_2" transform="matrix(6.9740097,0,0,-6.9744279,146.04193,85.74865)"/>
<path transform="matrix(1.00003,0,0,-1.00009,-24.265175,175.16669)" stroke-width=".3985" stroke-linecap="butt" stroke-miterlimit="10" stroke-linejoin="miter" fill="none" stroke="#000000" d="M247.60253 109.04906C194.52532 78.70128 144.24518 78.91156 93.14584 108.70032"/>
<path transform="matrix(-.8639159,-.5036453,-.50361517,.8639677,68.88347,66.456607)" d="M1.99252 0-1.19551 1.59401 0 0-1.19551-1.59401"/>
<path transform="matrix(1.00003,0,0,-1.00009,-24.265175,175.16669)" stroke-width=".3985" stroke-linecap="butt" stroke-miterlimit="10" stroke-linejoin="miter" fill="none" stroke="#000000" d="M92.83344 121.17606 132.65863 161.00098"/>
<path transform="matrix(-.7071212,.70716366,.7071212,.70716366,68.57106,53.97972)" d="M1.99252 0-1.19551 1.59401 0 0-1.19551-1.59401"/>
<path transform="matrix(.7071212,-.70716366,-.7071212,-.70716366,108.39744,14.151215)" d="M1.99252 0-1.19551 1.59401 0 0-1.19551-1.59401"/>
<use data-text="b" xlink:href="#font_2_4" transform="matrix(9.962899,0,0,-9.963496,84.111087,29.050538)"/>
<use data-text="1" xlink:href="#font_3_1" transform="matrix(6.9740097,0,0,-6.9744279,88.387218,30.544678)"/>
<path transform="matrix(1.00003,0,0,-1.00009,-24.265175,175.16669)" stroke-width=".3985" stroke-linecap="butt" stroke-miterlimit="10" stroke-linejoin="miter" fill="none" stroke="#000000" d="M92.83344 105.5984 132.65863 65.77348"/>
<path transform="matrix(-.7071212,-.70716366,-.7071212,.70716366,68.57106,69.558788)" d="M1.99252 0-1.19551 1.59401 0 0-1.19551-1.59401"/>
<path transform="matrix(.7071212,.70716366,.7071212,-.70716366,108.39744,109.38728)" d="M1.99252 0-1.19551 1.59401 0 0-1.19551-1.59401"/>
<use data-text="b" xlink:href="#font_2_4" transform="matrix(9.962899,0,0,-9.963496,84.111087,99.91191)"/>
<use data-text="2" xlink:href="#font_3_2" transform="matrix(6.9740097,0,0,-6.9744279,88.387218,101.40605)"/>
<path transform="matrix(1.00003,0,0,-1.00009,-24.265175,175.16669)" stroke-width=".3985" stroke-linecap="butt" stroke-miterlimit="10" stroke-linejoin="miter" fill="none" stroke="#000000" d="M93.41705 113.38724H189.57366"/>
<path transform="matrix(-1.00003,-0,0,1.00009,69.154689,61.76924)" d="M1.99252 0-1.19551 1.59401 0 0-1.19551-1.59401"/>
<path transform="matrix(1.00003,0,0,-1.00009,165.31418,61.76924)" d="M1.99252 0-1.19551 1.59401 0 0-1.19551-1.59401"/>
<use data-text="s" xlink:href="#font_2_7" transform="matrix(9.962899,0,0,-9.963496,114.89901,58.24917)"/>
</svg>
