<svg xmlns="http://www.w3.org/2000/svg" xmlns:xlink="http://www.w3.org/1999/xlink" xmlns:inkscape="http://www.inkscape.org/namespaces/inkscape" version="1.1" width="217" height="178" viewBox="0 0 217 178">
<defs>
<path id="font_1_1" d="M.6589966 .23046875C.6759949 .23046875 .69400027 .23046875 .69400027 .25045777 .69400027 .27046205 .6759949 .27046205 .6589966 .27046205H.117996219C.100997928 .27046205 .08299255 .27046205 .08299255 .25045777 .08299255 .23046875 .100997928 .23046875 .117996219 .23046875H.6589966Z"/>
<path id="font_2_3" d="M.1269989 .07699585 .23298645 .18003845C.3889923 .31811524 .44898988 .3721466 .44898988 .47216798 .44898988 .5860901 .35899354 .6660156 .23699951 .6660156 .12399292 .6660156 .049987794 .57411196 .049987794 .48516847 .049987794 .4291687 .099990848 .4291687 .102996829 .4291687 .11999512 .4291687 .15499878 .44117738 .15499878 .48217774 .15499878 .5081787 .13699341 .5341797 .101989749 .5341797 .09399414 .5341797 .09199524 .5341797 .08898926 .5331726 .11199951 .59806826 .1659851 .63500979 .22399903 .63500979 .31498719 .63500979 .35798646 .5541382 .35798646 .47216798 .35798646 .39215089 .30799867 .31311036 .25299073 .25108338L.06098938 .036987306C.049987794 .025985718 .049987794 .023986817 .049987794 0H.42099L.44898988 .17404175H.42399598C.4189911 .14402771 .4119873 .1000061 .4019928 .084991458 .394989 .07699585 .32899476 .07699585 .30699159 .07699585H.1269989Z"/>
<path id="font_2_1" d="M.45999146 .31976319C.45999146 .39982606 .45498658 .47988893 .41999818 .5539398 .37399293 .65000918 .2919922 .6660156 .25 .6660156 .18998719 .6660156 .116989139 .64001467 .07598877 .54693606 .04399109 .47789 .038986207 .39982606 .038986207 .31976319 .038986207 .24472046 .042999269 .15464783 .083999637 .07859802 .1269989-.0024719239 .19999695-.022460938 .24899292-.022460938 .30299378-.022460938 .3789978-.0014648438 .4229889 .09359741 .45498658 .16265869 .45999146 .2407074 .45999146 .31976319M.24899292-.00047302247C.20999146-.00047302247 .15098572 .024551392 .1329956 .12062073 .12199402 .18066406 .12199402 .2727356 .12199402 .3317871 .12199402 .39582826 .12199402 .46188355 .12998963 .5159149 .14898682 .63500979 .22399903 .64401248 .24899292 .64401248 .28199769 .64401248 .34799195 .6259918 .36698915 .52693179 .3769989 .47088624 .3769989 .39482118 .3769989 .3317871 .3769989 .25672914 .3769989 .18867493 .3659973 .12461853 .35099793 .029556275 .2939911-.00047302247 .24899292-.00047302247Z"/>
<path id="font_2_4" d="M.2939911 .16503906V.07800293C.2939911 .041992189 .2919922 .0309906 .21798706 .0309906H.19699097V0C.23799134 .0029907227 .2899933 .0029907227 .33198548 .0029907227 .37399293 .0029907227 .4269867 .0029907227 .46798707 0V.0309906H.44699098C.37298585 .0309906 .37098695 .041992189 .37098695 .07800293V.16503906H.47099305V.19602967H.37098695V.65075686C.37098695 .67074587 .37098695 .6767578 .35499574 .6767578 .34599305 .6767578 .34298707 .6767578 .33499146 .66474917L.027999878 .19602967V.16503906H.2939911M.2999878 .19602967H.055999757L.2999878 .5688019V.19602967Z"/>
<path id="font_2_5" d="M.13198853 .327713V.35173036C.13198853 .6047821 .2559967 .64100649 .30699159 .64100649 .33099366 .64100649 .37298585 .634964 .394989 .6007538 .37998963 .6007538 .33999635 .6007538 .33999635 .5557556 .33999635 .524765 .3639984 .5097656 .38598634 .5097656 .4019928 .5097656 .43199159 .51875308 .43199159 .5577545 .43199159 .6178589 .3880005 .6660156 .30499269 .6660156 .1769867 .6660156 .041992189 .5367584 .041992189 .31570436 .041992189 .048553468 .1579895-.022460938 .25099183-.022460938 .3619995-.022460938 .45700074 .07156372 .45700074 .2036438 .45700074 .33070375 .36799623 .4267578 .25698854 .4267578 .18899536 .4267578 .1519928 .37573243 .13198853 .327713M.25099183 .0055389406C.18798828 .0055389406 .1579895 .06556702 .1519928 .080566409 .13398743 .127594 .13398743 .2076416 .13398743 .22564698 .13398743 .30369569 .1659851 .40374757 .2559967 .40374757 .27198792 .40374757 .31799317 .40374757 .34899903 .34172059 .36698915 .30470277 .36698915 .2536621 .36698915 .20463562 .36698915 .15661621 .36698915 .10658264 .34999085 .0705719 .31999208 .010528564 .27398683 .0055389406 .25099183 .0055389406Z"/>
<path id="font_2_6" d="M.16299439 .4569702C.116989139 .486969 .11299133 .52098086 .11299133 .5379791 .11299133 .598999 .17799378 .64100649 .24899292 .64100649 .32199098 .64100649 .38598634 .58898928 .38598634 .51698306 .38598634 .45996095 .34700013 .4119568 .2869873 .37695313L.16299439 .4569702M.30899049 .36193849C.3809967 .3989563 .42999269 .45095826 .42999269 .51698306 .42999269 .6090088 .34098817 .6660156 .25 .6660156 .1499939 .6660156 .068984989 .59199526 .068984989 .49897767 .068984989 .4809723 .070999149 .43595887 .11299133 .38894654 .12399292 .37695313 .16099549 .35194398 .18598938 .33494569 .12799073 .30592347 .041992189 .24984741 .041992189 .15072632 .041992189 .04458618 .14399719-.022460938 .24899292-.022460938 .3619995-.022460938 .45700074 .06060791 .45700074 .16773987 .45700074 .20379639 .44599916 .24885559 .4079895 .2909088 .3889923 .31193543 .37298585 .3219452 .30899049 .36193849M.20899964 .3199463 .33198548 .24183655C.3600006 .2228241 .40699769 .19277954 .40699769 .13169861 .40699769 .05760193 .33198548 .0055389406 .25 .0055389406 .1639862 .0055389406 .09199524 .067611698 .09199524 .15072632 .09199524 .20880127 .12399292 .27288819 .20899964 .3199463Z"/>
<path id="font_2_2" d="M.2939911 .64004519C.2939911 .66400149 .2939911 .6660156 .2709961 .6660156 .20899964 .60227969 .12098694 .60227969 .08898926 .60227969V.57128909C.10899353 .57128909 .16799927 .57128909 .21998596 .5972748V.07902527C.21998596 .042999269 .21699524 .0309906 .1269989 .0309906H.09498596V0C.12998963 .0029907227 .21699524 .0029907227 .25698854 .0029907227 .29699708 .0029907227 .38398744 .0029907227 .4189911 0V.0309906H.3869934C.29699708 .0309906 .2939911 .041992189 .2939911 .07902527V.64004519Z"/>
<clipPath id="clip_3">
<path transform="matrix(1.00005,0,0,-1.00006,21.449372,166.53722)" d="M0 0H194.2676V161.39849H0Z"/>
</clipPath>
<path id="font_4_1" d="M.08799744 .059265138C.084991458 .044265748 .07899475 .021255494 .07899475 .01625061 .07899475-.0017547608 .09298706-.0107421879 .10798645-.0107421879 .11999512-.0107421879 .13798523-.002746582 .14498902 .01725769 .1459961 .019256592 .1579895 .06626892 .1639862 .091278079L.18598938 .18130493C.19198609 .2033081 .19799805 .22531128 .20298767 .24832154 .20698548 .26531983 .21499634 .29434205 .21598816 .29833985 .23098755 .3293457 .28399659 .42037965 .3789978 .42037965 .42399598 .42037965 .43299867 .38336183 .43299867 .35035707 .43299867 .3253479 .42599488 .29733277 .41799928 .26733399L.3899994 .1512909 .36999513 .07527161C.3659973 .055267335 .35699464 .021255494 .35699464 .01625061 .35699464-.0017547608 .37098695-.0107421879 .38598634-.0107421879 .4169922-.0107421879 .4229889 .014251709 .43099977 .04626465 .44499208 .10227966 .48199464 .24832154 .4909973 .28733827 .49398805 .30033876 .5469971 .42037965 .6559906 .42037965 .69898989 .42037965 .70999148 .3863678 .70999148 .35035707 .70999148 .29333497 .66799929 .17930603 .647995 .12628174 .6389923 .10227966 .6349945 .091278079 .6349945 .0712738 .6349945 .024261475 .66999819-.0107421879 .71699526-.0107421879 .8109894-.0107421879 .84799197 .13528443 .84799197 .14329529 .84799197 .1532898 .83898928 .1532898 .83599856 .1532898 .82598879 .1532898 .82598879 .15029907 .82099917 .13528443 .80599978 .08227539 .7739868 .011245728 .71899417 .011245728 .70199587 .011245728 .69499209 .021255494 .69499209 .044265748 .69499209 .0692749 .70399478 .09327698 .71299746 .11528015 .7319946 .16729737 .7739868 .27833558 .7739868 .3353424 .7739868 .4003601 .73399356 .4423828 .6589966 .4423828 .58399966 .4423828 .5329895 .3983612 .49598695 .34535218 .49499513 .35835267 .49198915 .3923645 .46398927 .41636659 .43899537 .43737794 .40699769 .4423828 .38198854 .4423828 .2919922 .4423828 .24299622 .37835694 .22599793 .35534669 .22099304 .41236878 .1789856 .4423828 .13398743 .4423828 .08799744 .4423828 .068984989 .4033661 .05999756 .38536073 .041992189 .35035707 .0289917 .29133607 .0289917 .28833009 .0289917 .27833558 .038986207 .27833558 .040985109 .27833558 .050994874 .27833558 .051986696 .2793274 .057998659 .30133058 .07499695 .37236024 .09498596 .42037965 .1309967 .42037965 .14698792 .42037965 .1619873 .41236878 .1619873 .37435914 .1619873 .35334779 .15899658 .3423462 .1459961 .29032899L.08799744 .059265138Z"/>
<path id="font_4_2" d="M.48599244 .38136292C.48999024 .39537049 .48999024 .39736939 .48999024 .40437318 .48999024 .42237855 .47599793 .43138124 .46099855 .43138124 .45098878 .43138124 .43499757 .42536927 .42599488 .41036988 .42399598 .405365 .41600038 .37435914 .4119873 .35635377 .40499879 .33035279 .397995 .30334474 .3919983 .27633668L.34700013 .09628296C.34298707 .08126831 .2999878 .011245728 .23399353 .011245728 .18299866 .011245728 .17199707 .055267335 .17199707 .0922699 .17199707 .1382904 .18899536 .20030213 .22299195 .28833009 .23899842 .3293457 .24299622 .3403473 .24299622 .36035157 .24299622 .405365 .21099854 .4423828 .16099549 .4423828 .06599426 .4423828 .0289917 .29733277 .0289917 .28833009 .0289917 .27833558 .038986207 .27833558 .040985109 .27833558 .050994874 .27833558 .051986696 .28033448 .056991579 .29634095 .083999637 .3903656 .12399292 .42037965 .1579895 .42037965 .1659851 .42037965 .18299866 .42037965 .18299866 .3883667 .18299866 .36335755 .17298889 .3373413 .1659851 .31834413 .12599182 .21231079 .10798645 .1552887 .10798645 .10827637 .10798645 .019256592 .17098999-.0107421879 .22999573-.0107421879 .2689972-.0107421879 .30299378 .0062561037 .33099366 .03425598 .31799317-.017745972 .30599977-.06674194 .2659912-.11973572 .23999024-.15385437 .20199585-.18309021 .1559906-.18309021 .14199829-.18309021 .09700012-.18005371 .07998657-.14074707 .09599304-.14074707 .10899353-.14074707 .12298584-.1287384 .1329956-.11973572 .14299011-.10673523 .14299011-.08773804 .14299011-.056747438 .115997318-.052734376 .10598755-.052734376 .08299255-.052734376 .049987794-.068740848 .049987794-.11773682 .049987794-.16796875 .09399414-.20507813 .1559906-.20507813 .25898744-.20507813 .3619995-.11373901 .3899994-.00074768069L.48599244 .38136292Z"/>
</defs>
<path transform="matrix(1.00005,0,0,-1.00006,21.449372,166.53722)" stroke-width=".19925" stroke-linecap="butt" stroke-miterlimit="10" stroke-linejoin="miter" fill="none" stroke="#929292" d="M0 0V4.25269M43.17058 0V4.25269M86.34116 0V4.25269M129.51174 0V4.25269M172.68231 0V4.25269M0 161.39849V157.14579M43.17058 161.39849V157.14579M86.34116 161.39849V157.14579M129.51174 161.39849V157.14579M172.68231 161.39849V157.14579"/>
<path transform="matrix(1.00005,0,0,-1.00006,21.449372,166.53722)" stroke-width=".19925" stroke-linecap="butt" stroke-miterlimit="10" stroke-linejoin="miter" fill="none" stroke="#929292" d="M0 17.93315H4.25192M0 41.84404H4.25192M0 65.75493H4.25192M0 89.66582H4.25192M0 113.5767H4.25192M0 137.4876H4.25192M0 161.39849H4.25192M194.2676 17.93315H190.01564M194.2676 41.84404H190.01564M194.2676 65.75493H190.01564M194.2676 89.66582H190.01564M194.2676 113.5767H190.01564M194.2676 137.4876H190.01564M194.2676 161.39849H190.01564"/>
<path transform="matrix(1.00005,0,0,-1.00006,21.449372,166.53722)" stroke-width=".3985" stroke-linecap="butt" stroke-miterlimit="10" stroke-linejoin="miter" fill="none" stroke="#000000" d="M0 0V161.39849H194.2676V0H0Z"/>
<use data-text="&#x2212;" xlink:href="#font_1_1" transform="matrix(9.963098,0,0,-9.963197,15.084053,176.47782)"/>
<use data-text="2" xlink:href="#font_2_3" transform="matrix(9.963098,0,0,-9.963197,22.833428,176.47782)"/>
<use data-text="0" xlink:href="#font_2_1" transform="matrix(9.963098,0,0,-9.963197,62.13141,176.47782)"/>
<use data-text="2" xlink:href="#font_2_3" transform="matrix(9.963098,0,0,-9.963197,105.30356,176.47782)"/>
<use data-text="4" xlink:href="#font_2_4" transform="matrix(9.963098,0,0,-9.963197,148.47672,176.47782)"/>
<use data-text="6" xlink:href="#font_2_5" transform="matrix(9.963098,0,0,-9.963197,191.64987,176.47782)"/>
<use data-text="&#x2212;" xlink:href="#font_1_1" transform="matrix(9.963098,0,0,-9.963197,.21731568,151.39832)"/>
<use data-text="2" xlink:href="#font_2_3" transform="matrix(9.963098,0,0,-9.963197,7.96669,151.39832)"/>
<use data-text="0" xlink:href="#font_2_1" transform="matrix(9.963098,0,0,-9.963197,12.948242,151.39832)"/>
<use data-text="0" xlink:href="#font_2_1" transform="matrix(9.963098,0,0,-9.963197,12.947945,127.9009)"/>
<use data-text="2" xlink:href="#font_2_3" transform="matrix(9.963098,0,0,-9.963197,7.9656984,103.988468)"/>
<use data-text="0" xlink:href="#font_2_1" transform="matrix(9.963098,0,0,-9.963197,12.947235,103.988468)"/>
<use data-text="4" xlink:href="#font_2_4" transform="matrix(9.963098,0,0,-9.963197,7.9656984,80.076038)"/>
<use data-text="0" xlink:href="#font_2_1" transform="matrix(9.963098,0,0,-9.963197,12.947235,80.076038)"/>
<use data-text="6" xlink:href="#font_2_5" transform="matrix(9.963098,0,0,-9.963197,7.9656984,56.164606)"/>
<use data-text="0" xlink:href="#font_2_1" transform="matrix(9.963098,0,0,-9.963197,12.947235,56.164606)"/>
<use data-text="8" xlink:href="#font_2_6" transform="matrix(9.963098,0,0,-9.963197,7.9656984,32.252168)"/>
<use data-text="0" xlink:href="#font_2_1" transform="matrix(9.963098,0,0,-9.963197,12.947235,32.252168)"/>
<use data-text="1" xlink:href="#font_2_2" transform="matrix(9.963098,0,0,-9.963197,2.9844514,8.339722)"/>
<use data-text="0" xlink:href="#font_2_1" transform="matrix(9.963098,0,0,-9.963197,7.965988,8.339722)"/>
<use data-text="0" xlink:href="#font_2_1" transform="matrix(9.963098,0,0,-9.963197,12.94754,8.339722)"/>
<g clip-path="url(#clip_3)">
<path transform="matrix(1.00005,0,0,-1.00006,21.449372,166.53722)" stroke-width=".79701" stroke-linecap="butt" stroke-miterlimit="10" stroke-linejoin="miter" fill="none" stroke="#000000" d="M0 41.84404H1.96228 3.92458 5.88687 7.84917 9.81148 11.77377 13.73605 15.69836 17.66064 19.62296 21.58525 23.54755 25.50984 27.47214 29.43445 31.39673 33.35902 35.32133 37.28363 39.24593 41.20822 43.17052L45.13281 45.10454 47.09511 48.36511 49.05742 49.99556 51.0197 46.735 52.98201 43.47441 54.9443 41.84404H56.90659 58.8689L60.83119 40.99641 62.79349 36.7577 64.75578 32.51894 66.71808 32.51878 68.68037 32.51877 70.64267 32.51881H72.60498L74.56728 32.51875 76.52957 32.51877H78.49187L80.45416 32.5188H82.41646 84.37875L86.34106 32.51881 88.30334 33.11157 90.26564 34.89001 92.22795 37.85411 94.19023 42.00388 96.15254 47.33931 98.11484 53.56403 100.07712 58.89952 102.03943 63.04947 104.00172 66.01366 105.96402 67.79228 107.92632 68.38504 109.88861 68.38521 111.8509 68.38522 113.8132 67.62651 115.77551 65.70543 117.73781 65.51572 119.7001 65.51585 121.6624 65.51604 123.6247 65.51564 125.58699 65.51563 127.54929 65.5162 129.5116 65.51595 131.47388 71.51492 133.43618 77.51416 135.39849 83.51385 137.36077 89.5133 139.32308 95.5128 141.28537 101.51189 143.24767 107.51163 145.20996 113.51105 147.17226 119.5109 149.13455 125.50949 151.09685 131.50925 153.05915 131.50988H155.02146 156.98374 158.94605 160.90834 162.87064 164.83293 166.79523 168.75753 170.71982 172.68213 174.64441 176.6067 178.56902 180.5313 182.4936 184.4559 186.4182 188.3805 190.34279 192.3051 194.26738"/>
<path transform="matrix(1.00005,0,0,-1.00006,21.449372,166.53722)" stroke-width=".79701" stroke-linecap="butt" stroke-miterlimit="10" stroke-linejoin="miter" fill="none" stroke="#ff0000" d="M0 87.2633C0 87.2633 1.41776 88.60802 1.96228 88.93845 2.5068 89.26888 3.38007 89.58894 3.92458 89.64482 4.4691 89.70071 5.34235 89.56328 5.88687 89.34123 6.43138 89.11917 7.30466 88.53166 7.84917 88.0443 8.39369 87.55695 9.26695 86.55383 9.81148 85.82866 10.35599 85.10349 11.22925 83.7399 11.77377 82.81767 12.3183 81.89546 13.19154 80.24905 13.73605 79.1819 14.28058 78.11475 15.15384 76.27826 15.69836 75.12631 16.24287 73.97437 17.11613 72.05118 17.66064 70.87938 18.20517 69.70758 19.07843 67.80635 19.62296 66.68071 20.16747 65.55505 21.04073 63.78246 21.58525 62.76643 22.12978 61.75041 23.00304 60.20688 23.54755 59.35786 24.09207 58.50885 24.96532 57.28159 25.50984 56.64728 26.05435 56.01297 26.92763 55.16985 27.47214 54.78618 28.01666 54.40251 28.88992 53.99344 29.43445 53.88197 29.97896 53.77051 30.8522 53.81589 31.39673 53.98276 31.94125 54.14964 32.81451 54.64868 33.35902 55.08475 33.90355 55.5208 34.77681 56.44507 35.32133 57.12555 35.86586 57.80602 36.73912 59.10251 37.28363 59.9891 37.82816 60.87572 38.7014 62.47282 39.24593 63.51567 39.79044 64.5585 40.6637 66.36517 41.20822 67.50526 41.75275 68.64534 42.62599 70.55962 43.17052 71.73265 43.71503 72.9057 44.58829 74.8198 45.13281 75.95985 45.67734 77.09991 46.5506 78.90657 47.09511 79.94945 47.63963 80.99232 48.5129 82.58954 49.05742 83.47618 49.60193 84.36282 50.47519 85.65929 51.0197 86.33975 51.56422 87.02022 52.43748 87.9445 52.98201 88.38055 53.52652 88.8166 54.39978 89.31566 54.9443 89.48253 55.48883 89.6494 56.36208 89.69476 56.90659 89.58331 57.45111 89.47188 58.32437 89.06293 58.8689 88.6793 59.4134 88.29568 60.28668 87.45271 60.83119 86.81839 61.37572 86.18405 62.24896 84.95645 62.79349 84.10744 63.338 83.25842 64.21126 81.71523 64.75578 80.69923 65.30031 79.68324 66.17357 77.91048 66.71808 76.78477 67.2626 75.65907 68.13585 73.75769 68.68037 72.5859 69.2249 71.41412 70.09816 69.49127 70.64267 68.33932 71.1872 67.1874 72.06046 65.35057 72.60498 64.2834 73.14949 63.21622 74.02275 61.56996 74.56728 60.6478 75.1118 59.72563 75.98505 58.3622 76.52957 57.63701 77.07408 56.9118 77.94734 55.9084 78.49187 55.42099 79.03639 54.9336 79.90965 54.34612 80.45416 54.12407 80.99869 53.90201 81.87193 53.76459 82.41646 53.82047 82.96097 53.87636 83.83424 54.19641 84.37875 54.52684 84.92328 54.85727 85.79654 55.61543 86.34106 56.202 86.88557 56.78856 87.75882 57.94475 88.30334 58.75443 88.84787 59.5641 89.72113 61.0507 90.26564 62.03763 90.81017 63.02454 91.68343 64.75877 92.22795 65.86743 92.77246 66.97607 93.64572 68.86028 94.19023 70.0281 94.73476 71.19594 95.60802 73.12325 96.15254 74.28436 96.69705 75.4455 97.57031 77.30768 98.11484 78.39677 98.65936 79.48587 99.53261 81.17815 100.07712 82.13388 100.62164 83.08961 101.4949 84.51674 102.03943 85.2851 102.58394 86.05345 103.45721 87.1341 104.00172 87.67165 104.54625 88.20918 105.4195 88.88275 105.96402 89.15938 106.50853 89.43602 107.38179 89.66542 107.92632 89.66544 108.47084 89.66545 109.3441 89.4362 109.88861 89.15956 110.43314 88.88293 111.30638 88.20915 111.8509 87.67165 112.39543 87.13412 113.26869 86.05374 113.8132 85.28546 114.35773 84.51718 115.23099 83.09009 115.77551 82.13443 116.32002 81.17877 117.19328 79.48679 117.73781 78.39769 118.28233 77.3086 119.15558 75.44608 119.7001 74.28488 120.24461 73.1237 121.11787 71.19655 121.6624 70.02866 122.20692 68.86076 123.08018 66.9761 123.6247 65.86743 124.16922 64.75874 125.04247 63.0249 125.58699 62.038 126.1315 61.05107 127.00478 59.5641 127.54929 58.75443 128.09381 57.94475 128.96707 56.7889 129.5116 56.20236 130.0561 55.61583 130.92935 54.8575 131.47388 54.52702 132.0184 54.19655 132.89167 53.87637 133.43618 53.82047 133.9807 53.76457 134.85396 53.90202 135.39849 54.12407 135.943 54.3461 136.81626 54.93347 137.36077 55.42082 137.90529 55.90819 138.77855 56.91148 139.32308 57.63664 139.86759 58.36179 140.74085 59.72507 141.28537 60.64726 141.8299 61.56946 142.70316 63.216 143.24767 64.28322 143.79219 65.35042 144.66544 67.18709 145.20996 68.33897 145.75449 69.49088 146.62775 71.41357 147.17226 72.58536 147.71678 73.75714 148.59003 75.6587 149.13455 76.78441 149.67906 77.91011 150.55233 79.68268 151.09685 80.69867 151.64138 81.71468 152.51464 83.25803 153.05915 84.10707 153.60367 84.95612 154.47693 86.18365 155.02146 86.81802 155.56598 87.45238 156.43923 88.29546 156.98374 88.67912 157.52826 89.06279 158.40152 89.47183 158.94605 89.58331 159.49056 89.69481 160.36382 89.64957 160.90834 89.48271 161.45287 89.31586 162.32611 88.81677 162.87064 88.38072 163.41515 87.94467 164.2884 87.02037 164.83293 86.33992 165.37746 85.65945 166.25072 84.36295 166.79523 83.47636 167.33975 82.58978 168.213 80.99278 168.75753 79.95 169.30204 78.9072 170.17531 77.10068 170.71982 75.96059 171.26435 74.8205 172.1376 72.90614 172.68213 71.73302 173.22664 70.5599 174.09989 68.64554 174.64441 67.50545 175.18894 66.36534 176.0622 64.55867 176.6067 63.51585 177.15123 62.47302 178.02449 60.87605 178.56902 59.98947 179.11353 59.10289 179.98679 57.80643 180.5313 57.12592 181.07582 56.44539 181.94908 55.52084 182.4936 55.08475 183.03812 54.64864 183.91138 54.14969 184.4559 53.98276 185.00043 53.81584 185.87369 53.77017 186.4182 53.8816 186.96273 53.99306 187.83597 54.40234 188.3805 54.786 188.92502 55.16965 189.79828 56.01242 190.34279 56.64673 190.88732 57.28104 191.76058 58.5087 192.3051 59.35768 192.84961 60.20667 194.26738 62.76569 194.26738 62.76569"/>
</g>
<path transform="matrix(1.00005,0,0,-1.00006,21.449372,166.53722)" d="M153.6667 134.44751H190.18215V157.97055H153.6667Z" fill="#ffffff"/>
<path transform="matrix(1.00005,0,0,-1.00006,21.449372,166.53722)" stroke-width=".3985" stroke-linecap="butt" stroke-miterlimit="10" stroke-linejoin="miter" fill="none" stroke="#000000" d="M153.6667 134.44751H190.18215V157.97055H153.6667Z"/>
<path transform="matrix(1.00005,0,0,-1.00006,178.51222,15.434158)" stroke-width=".79701" stroke-linecap="butt" stroke-miterlimit="10" stroke-linejoin="miter" fill="none" stroke="#000000" d="M0 0H8.50412 17.00826"/>
<use data-text="m" xlink:href="#font_4_1" transform="matrix(9.963098,0,0,-9.963197,197.9112,16.832245)"/>
<path transform="matrix(1.00005,0,0,-1.00006,178.51222,25.20375)" stroke-width=".79701" stroke-linecap="butt" stroke-miterlimit="10" stroke-linejoin="miter" fill="none" stroke="#ff0000" d="M0 0C0 0 6.14426 0 8.50412 0 10.86398 0 17.00826 0 17.00826 0"/>
<use data-text="y" xlink:href="#font_4_2" transform="matrix(9.963098,0,0,-9.963197,199.66428,26.601838)"/>
</svg>
