<svg xmlns="http://www.w3.org/2000/svg" xmlns:xlink="http://www.w3.org/1999/xlink" xmlns:inkscape="http://www.inkscape.org/namespaces/inkscape" version="1.1" width="334" height="135" viewBox="0 0 334 135">
<defs>
<path id="font_1_3" d="M.4850006 .41075135 .40098573 .6096344C.397995 .61763 .3959961 .6216278 .3959961 .6226196 .3959961 .62861636 .41299439 .6476135 .45498658 .6516113 .46499635 .65260317 .47499085 .6536102 .47499085 .6706085 .47499085 .6826172 .46299745 .6826172 .45999146 .6826172 .4189911 .6826172 .37599183 .6796112 .33399964 .6796112 .30899049 .6796112 .24699402 .6826172 .22200012 .6826172 .21598816 .6826172 .20399475 .6826172 .20399475 .6626129 .20399475 .6516113 .21398926 .6516113 .22698975 .6516113 .2869873 .6516113 .29299928 .6416168 .3019867 .6196289L.41999818 .34080506 .20899964 .11393738 .19599915 .10295105C.14698792 .049987794 .099990848 .033996583 .04899597 .0309906 .035995485 .02999878 .026992798 .02999878 .026992798 .010986328 .026992798 .009994507 .026992798 0 .039993287 0 .069992069 0 .102996829 .0029907227 .13398743 .0029907227 .17098999 .0029907227 .20999146 0 .24598694 0 .2519989 0 .2639923 0 .2639923 .019989014 .2639923 .02999878 .2539978 .0309906 .2519989 .0309906 .24299622 .03199768 .21199036 .033996583 .21199036 .061965944 .21199036 .07795715 .22698975 .093948367 .23899842 .10694885L.34098817 .21487427 .43099977 .31282044 .5319977 .07395935C.5359955 .06297302 .5369873 .061965944 .5369873 .05996704 .5369873 .051986696 .5179901 .034988405 .47898866 .0309906 .46798707 .02999878 .45899964 .0289917 .45899964 .011993408 .45899964 0 .46998597 0 .47399903 0 .5019989 0 .57199099 .0029907227 .59999087 .0029907227 .625 .0029907227 .6859894 0 .71099856 0 .71798709 0 .7299957 0 .7299957 .018997193 .7299957 .0309906 .7200012 .0309906 .71199038 .0309906 .644989 .03199768 .6429901 .034988405 .6259918 .07496643 .58699038 .16790772 .519989 .32380677 .49699403 .3837738 .5649872 .45373536 .66999819 .5726471 .70199587 .6006317 .73098757 .62461856 .7689972 .64860537 .82899478 .6516113 .84199526 .65260317 .8509979 .65260317 .8509979 .6716156 .8509979 .6726074 .8509979 .6826172 .83799746 .6826172 .80799868 .6826172 .7749939 .6796112 .74398806 .6796112 .70700076 .6796112 .6689911 .6826172 .6329956 .6826172 .6269989 .6826172 .6139984 .6826172 .6139984 .6626129 .6139984 .65560916 .61898806 .65260317 .6259918 .6516113 .6349945 .65060427 .66600039 .64860537 .66600039 .6206207 .66600039 .6066284 .6549988 .5936432 .6469879 .5846405L.4850006 .41075135Z"/>
<path id="font_2_1" d="M.33099366-.2400055C.33099366-.23701477 .33099366-.23500061 .31399537-.21800232 .18899536-.0920105 .15699768 .09700012 .15699768 .25 .15699768 .42399598 .19499207 .59799197 .31799317 .72299197 .33099366 .73498538 .33099366 .7369995 .33099366 .73999026 .33099366 .746994 .32699586 .75 .32099916 .75 .31098939 .75 .22099304 .6819916 .1619873 .5549927 .11099243 .44499208 .09899902 .33399964 .09899902 .25 .09899902 .17199707 .10998535 .050994874 .16499329-.06201172 .22499085-.18501282 .31098939-.25 .32099916-.25 .32699586-.25 .33099366-.24700928 .33099366-.2400055Z"/>
<path id="font_1_1" d="M.1789856 .114868167C.13899231 .047973634 .099990848 .033981325 .055999757 .0309906 .04399109 .02999878 .034988405 .02999878 .034988405 .010986328 .034988405 .004989624 .039993287 0 .04798889 0 .07499695 0 .10598755 .0029907227 .13398743 .0029907227 .16699219 .0029907227 .20199585 0 .23399353 0 .23999024 0 .25299073 0 .25299073 .018997193 .25299073 .02999878 .24398804 .0309906 .23699951 .0309906 .21398926 .032989503 .18998719 .04096985 .18998719 .06593323 .18998719 .077926639 .19599915 .088897708 .20399475 .102890018L.27999879 .23068238H.5309906C.5329895 .2097168 .5469971 .07392883 .5469971 .063949588 .5469971 .033981325 .49499513 .0309906 .47499085 .0309906 .46099855 .0309906 .45098878 .0309906 .45098878 .010986328 .45098878 0 .46299745 0 .46499635 0 .5059967 0 .548996 .0029907227 .58999636 .0029907227 .61499026 .0029907227 .6779938 0 .7029877 0 .70899966 0 .72099307 0 .72099307 .019989014 .72099307 .0309906 .71099856 .0309906 .69799807 .0309906 .6359863 .0309906 .6359863 .037979127 .6329956 .06694031L.57199099 .691803C.56999209 .71180728 .56999209 .7158203 .5529938 .7158203 .5369873 .7158203 .5329895 .7088165 .5269928 .69880679L.1789856 .114868167M.29899598 .26168824 .49598695 .5917816 .5279999 .26168824H.29899598Z"/>
<path id="font_2_2" d="M.2889862 .25C.2889862 .32798768 .27799989 .44898988 .22299195 .56199648 .16299439 .68499758 .07699585 .75 .066986087 .75 .06098938 .75 .056991579 .74598696 .056991579 .73999026 .056991579 .7369995 .056991579 .73498538 .07598877 .71699526 .17399597 .6179962 .23098755 .45899964 .23098755 .25 .23098755 .07899475 .19400025-.09700012 .069992069-.2230072 .056991579-.23500061 .056991579-.23701477 .056991579-.2400055 .056991579-.2460022 .06098938-.25 .066986087-.25 .07699585-.25 .16699219-.18200684 .22599793-.055007936 .2769928 .054992677 .2889862 .16600037 .2889862 .25Z"/>
<path id="font_1_2" d="M.1599884 .07795715C.1499939 .038986207 .147995 .0309906 .068984989 .0309906 .051986696 .0309906 .041992189 .0309906 .041992189 .010986328 .041992189 0 .050994874 0 .068984989 0H.42599488C.58399966 0 .70199587 .11791992 .70199587 .21585083 .70199587 .28778077 .6439972 .3457489 .5469971 .35673524 .651001 .37573243 .7559967 .44970704 .7559967 .5446625 .7559967 .6186218 .6899872 .6826172 .56999209 .6826172H.23399353C.21499634 .6826172 .20498657 .6826172 .20498657 .6626129 .20498657 .6516113 .21398926 .6516113 .23298645 .6516113 .23498535 .6516113 .2539978 .6516113 .2709961 .6496124 .2889862 .6476135 .2979889 .64660647 .2979889 .6336212 .2979889 .6296234 .29699708 .62661746 .2939911 .614624L.1599884 .07795715M.31098939 .36573792 .37298585 .6136322C.38198854 .64860537 .38398744 .6516113 .4269867 .6516113H.55599978C.6439972 .6516113 .6649933 .5926361 .6649933 .5486603 .6649933 .46069337 .57899478 .36573792 .45700074 .36573792H.31098939M.2659912 .0309906C.2519989 .0309906 .25 .0309906 .24398804 .03199768 .23399353 .032989503 .23098755 .033996583 .23098755 .04197693 .23098755 .04498291 .23098755 .04698181 .23599243 .064971927L.30499269 .34375H.49398805C.58999636 .34375 .60899356 .2698059 .60899356 .22683716 .60899356 .12791443 .519989 .0309906 .4019928 .0309906H.2659912Z"/>
<path id="font_1_4" d="M.5970001 .5686493 .61099246 .5826416C.6409912 .6126251 .673996 .64660647 .74198916 .6516113 .7529907 .65260317 .7619934 .65260317 .7619934 .6706085 .7619934 .6786041 .7569885 .6826172 .7489929 .6826172 .72299197 .6826172 .69400027 .6796112 .6669922 .6796112 .6339874 .6796112 .598999 .6826172 .5669861 .6826172 .5609894 .6826172 .5479889 .6826172 .5479889 .66360476 .5479889 .65260317 .55799868 .6516113 .5629883 .6516113 .56999209 .6516113 .598999 .6496124 .598999 .62861636 .598999 .6116333 .57598879 .5856476 .57199099 .5806427L.33999635 .31381227 .22999573 .6106262C.22399903 .62461856 .22399903 .62661746 .22399903 .6276245 .22399903 .6516113 .272995 .6516113 .2829895 .6516113 .29699708 .6516113 .30699159 .6516113 .30699159 .6716156 .30699159 .6826172 .29499818 .6826172 .2919922 .6826172 .2639923 .6826172 .19400025 .6796112 .1659851 .6796112 .14099121 .6796112 .07899475 .6826172 .053985597 .6826172 .04798889 .6826172 .034988405 .6826172 .034988405 .6626129 .034988405 .6516113 .04499817 .6516113 .057998659 .6516113 .117996219 .6516113 .12199402 .64260867 .1309967 .61763L.2539978 .28883363C.25498963 .28582765 .2579956 .2748413 .2579956 .27183534 .2579956 .2688446 .21798706 .107940677 .21299744 .08995056 .19999695 .034988405 .19898987 .03199768 .11898804 .0309906 .099990848 .0309906 .09199524 .0309906 .09199524 .010986328 .09199524 0 .10398865 0 .10598755 0 .13398743 0 .20399475 .0029907227 .23199463 .0029907227 .2599945 .0029907227 .33198548 0 .3600006 0 .36698915 0 .3789978 0 .3789978 .019989014 .3789978 .0309906 .36999513 .0309906 .35099793 .0309906 .34899903 .0309906 .32998658 .0309906 .31298829 .032989503 .2919922 .034988405 .28599549 .036987306 .28599549 .048980714 .28599549 .05596924 .29499818 .09095764 .2999878 .11193848L.33499146 .2528534C.33999635 .27183534 .34098817 .2748413 .34899903 .28382875L.5970001 .5686493Z"/>
<path id="font_3_3" d="M.40699769 .39465333H.5049896C.5249939 .39465333 .5379944 .39465333 .5379944 .4166565 .5379944 .43066407 .5249939 .43066407 .5069885 .43066407H.4139862C.43699647 .5580139 .44499208 .6040497 .45298768 .63305667 .45799256 .6550598 .47999574 .6760864 .5039978 .6760864 .5049896 .6760864 .5319977 .6760864 .5509949 .6640625 .5099945 .651062 .5069885 .61505129 .5069885 .60905459 .5069885 .5870514 .5239868 .572052 .5469971 .572052 .57398989 .572052 .60398867 .59506228 .60398867 .63305667 .60398867 .6790924 .5549927 .70410159 .5039978 .70410159 .45999146 .70410159 .41099549 .6790924 .38398744 .62905886 .3639984 .5920563 .35598756 .5469818 .33499146 .43066407H.2559967C.23599243 .43066407 .22299195 .43066407 .22299195 .4086609 .22299195 .39465333 .23599243 .39465333 .2539978 .39465333H.32798768C.32699586 .38865663 .2639923 .028869629 .23999024-.078063968 .23498535-.10006714 .21798706-.17610169 .16999817-.17610169 .16899109-.17610169 .14498902-.17610169 .12599182-.1640625 .16699219-.15107727 .16999817-.11506653 .16999817-.109069827 .16999817-.08706665 .15299988-.07206726 .12998963-.07206726 .102996829-.07206726 .07299805-.095077518 .07299805-.1330719 .07299805-.17811585 .11999512-.20410156 .16999817-.20410156 .23399353-.20410156 .27799989-.13807678 .2899933-.11607361 .32598878-.049087526 .34899903 .07385254 .35099793 .08584595L.40699769 .39465333Z"/>
<path id="font_4_1" d="M.72698977 .68881228C.72299197 .70980837 .71899417 .7158203 .69699099 .7158203 .6729889 .7158203 .6669922 .70780947 .6569977 .69281008L.2649994 .124816898C.22299195 .063949588 .18798828 .04798889 .12298584 .04498291 .10398865 .04399109 .10398865 .017990113 .10398865 .016998291 .10398865 .0029907227 .115997318 0 .11999512 0 .13398743 0 .15098572 .0029907227 .16499329 .0029907227 .18199158 .0029907227 .19898987 .0039978029 .21598816 .0039978029 .23498535 .0039978029 .25299073 .0029907227 .2709961 .0029907227 .2889862 .0029907227 .30999757 0 .32798768 0 .33499146 0 .35198976 0 .35198976 .027999878 .35198976 .04399109 .33699037 .04498291 .33299256 .04498291 .32499696 .04498291 .28599549 .04698181 .28599549 .07093811 .28599549 .082901 .2979889 .099868778 .30499269 .10984802L.37799073 .21661377C.3829956 .22261048 .38398744 .2236023 .40299989 .2236023H.70599368C.70799258 .21162415 .70899966 .20663452 .71199038 .19467163 .71499636 .17671204 .7350006 .076919559 .7350006 .06694031 .7350006 .04498291 .6719971 .04498291 .6669922 .04498291 .6519928 .04498291 .6359863 .04498291 .6359863 .016998291 .6359863 .0069885256 .6429901 0 .6539917 0 .6749878 0 .69898989 .0029907227 .72099307 .0029907227 .7449951 .0029907227 .7679901 .0039978029 .7919922 .0039978029 .8129883 .0039978029 .83499148 .0029907227 .85598757 .0029907227 .8759918 .0029907227 .8989868 0 .9189911 0 .9359894 0 .94299319 .011993408 .94299319 .027999878 .94299319 .04498291 .9269867 .04498291 .9129944 .04498291 .8470001 .04498291 .84599307 .051971437 .84199526 .07392883L.72698977 .68881228M.6369934 .5927582 .69799807 .26860047H.4139862L.6369934 .5927582Z"/>
<path id="font_4_2" d="M.24798584 .082977298C.23999024 .052993776 .23899842 .04499817 .16299439 .04499817 .13699341 .04499817 .12098694 .04499817 .12098694 .016998291 .12098694 0 .13699341 0 .1539917 0H.58898928C.7689972 0 .9149933 .111968997 .9149933 .21191406 .9149933 .27389527 .8569946 .3408661 .72099307 .35786439 .81999209 .37086488 .96099856 .4367981 .96099856 .53671267 .96099856 .6206207 .8619995 .6826172 .7259979 .6826172H.31599427C.29699708 .6826172 .2809906 .6826172 .2809906 .65460208 .2809906 .63760378 .2939911 .63760378 .31799317 .63760378 .32798768 .63760378 .36099244 .63760378 .38198854 .6316223 .38198854 .6196289 .38198854 .61763 .3789978 .6066437L.24798584 .082977298M.4169922 .3718567 .47499085 .6046448C.48298646 .63560488 .48298646 .63760378 .5249939 .63760378H.70799258C.8069916 .63760378 .85398867 .58665469 .85398867 .53370669 .85398867 .4527893 .74598696 .3718567 .60598757 .3718567H.4169922M.36898805 .04499817C.36099244 .04499817 .34700013 .04499817 .33699037 .04699707 .33799745 .054992677 .33799745 .056991579 .33999635 .06498718L.4079895 .3378601H.6519928C.7539978 .3378601 .8049927 .2788849 .8049927 .21591187 .8049927 .11895752 .6859894 .04499817 .56199648 .04499817H.36898805Z"/>
<path id="font_3_4" d="M.43099977 .37594605C.40499879 .36994935 .3889923 .348938 .3889923 .32894898 .3889923 .30593873 .40899659 .2969513 .42199708 .2969513 .43199159 .2969513 .46998597 .302948 .46998597 .35394288 .46998597 .41940309 .397995 .44140626 .33699037 .44140626 .18099976 .44140626 .15299988 .325943 .15299988 .2949524 .15299988 .25804139 .17399597 .23410034 .18798828 .22212219 .21398926 .20217896 .23199463 .19818115 .30099488 .18621826 .32199098 .18222046 .38598634 .17025757 .38598634 .120285037 .38598634 .10328674 .375 .06529236 .33299256 .040252687 .2939911 .018234253 .24499512 .018234253 .23298645 .018234253 .19299317 .018234253 .13598633 .027236939 .11299133 .060287477 .1459961 .06428528 .16799927 .08929443 .16799927 .11729431 .16799927 .14228821 .1499939 .15429688 .1289978 .15429688 .099990848 .15429688 .070999149 .13128662 .070999149 .08729553 .070999149 .027236939 .1349945-.009765625 .23199463-.009765625 .41600038-.009765625 .44999696 .11628723 .44999696 .1552887 .44999696 .24707031 .34899903 .26501466 .31199647 .27200318 .30299378 .27400209 .27799989 .27798463 .27198792 .27998353 .23498535 .28697206 .21699524 .30795289 .21699524 .3299408 .21699524 .35295106 .23498535 .37998963 .25698854 .39416505 .28399659 .41137696 .31900025 .4133911 .33599855 .4133911 .35699464 .4133911 .40899659 .4103546 .43099977 .37594605Z"/>
<path id="font_3_5" d="M.24598694 .39465333H.34799195C.36698915 .39465333 .37998963 .39465333 .37998963 .4166565 .37998963 .43066407 .36698915 .43066407 .34999085 .43066407H.25498963L.2919922 .57850649C.29299928 .58351138 .29499818 .588501 .29499818 .5924988 .29499818 .6104889 .2809906 .6244812 .26098634 .6244812 .23599243 .6244812 .22099304 .6074829 .21398926 .58151248 .20698548 .5565338 .21998596 .6044922 .17599488 .43066407H.07398987C.054992677 .43066407 .041992189 .43066407 .041992189 .4086609 .041992189 .39465333 .053985597 .39465333 .07199097 .39465333H.16699219L.10798645 .15901184C.101989749 .13404846 .09298706 .098098758 .09298706 .085128787 .09298706 .0262146 .14299011-.009765625 .19999695-.009765625 .31098939-.009765625 .37399293 .13005066 .37399293 .14303589 .37399293 .15602112 .36099244 .15602112 .35798646 .15602112 .34599305 .15602112 .34498597 .15402222 .33699037 .13703919 .30899049 .074142459 .2579956 .018234253 .20298767 .018234253 .18199158 .018234253 .16799927 .031204224 .16799927 .06715393 .16799927 .07713318 .17199707 .098098758 .17399597 .10809326L.24598694 .39465333Z"/>
<path id="font_3_1" d="M.5469971 .14128113C.6389923 .23632813 .6759949 .36938478 .6759949 .38038636 .6759949 .39338685 .6639862 .39338685 .6589966 .39338685 .644989 .39338685 .644989 .39038087 .6380005 .3683777 .6199951 .3023529 .58699038 .24131775 .54499819 .18730164 .5439911 .20230103 .5419922 .2693329 .5399933 .27833558 .5249939 .37738038 .44999696 .44140626 .34999085 .44140626 .20298767 .44140626 .06199646 .3043518 .06199646 .16429138 .06199646 .072250369 .1289978-.009765625 .24499512-.009765625 .33699037-.009765625 .41999818 .032226564 .47599793 .07525635 .49899293 .0022277833 .5499878-.009765625 .5799866-.009765625 .6380005-.009765625 .673996 .039230348 .673996 .0602417 .673996 .072250369 .6619873 .072250369 .6569977 .072250369 .6439972 .072250369 .6419983 .06825256 .6399994 .0622406 .6259918 .024230957 .59498599 .018234253 .58299258 .018234253 .56900027 .018234253 .5519867 .018234253 .5469971 .14128113M.46899415 .10726929C.37098695 .027236939 .28599549 .018234253 .24798584 .018234253 .18199158 .018234253 .14498902 .0622406 .14498902 .12927246 .14498902 .15829468 .15899658 .26733399 .21099854 .33636476 .25698854 .39639283 .31399537 .4133911 .34899903 .4133911 .42900086 .4133911 .45199586 .33636476 .45999146 .27433778 .46598817 .23132324 .46398927 .16029358 .46899415 .10726929Z"/>
<path id="font_5_1" d="M.6009979 .31976319C.6009979 .3918152 .6009979 .6660156 .33999635 .6660156 .07899475 .6660156 .07899475 .3918152 .07899475 .31976319 .07899475 .2467041 .07899475-.022460938 .33999635-.022460938 .6009979-.022460938 .6009979 .2467041 .6009979 .31976319M.33999635 .010528564C.30299378 .010528564 .21899414 .023544312 .19400025 .12461853 .17999268 .17866516 .1789856 .24971009 .1789856 .33177186 .1789856 .405838 .1789856 .47488404 .19499207 .5319214 .21998596 .6159973 .29699708 .63301089 .33999635 .63301089 .4139862 .63301089 .46699525 .5949707 .4869995 .5249176 .5009918 .47387696 .5009918 .39082337 .5009918 .33177186 .5009918 .26371766 .5009918 .18266297 .48599244 .12261963 .45999146 .025543213 .37998963 .010528564 .33999635 .010528564Z"/>
<path id="font_5_2" d="M.397995 .63591006C.397995 .6660156 .394989 .6660156 .3619995 .6660156 .29100038 .6016083 .17999268 .6016083 .1599884 .6016083H.14299011V.5576172H.1599884C.18299866 .5576172 .24798584 .5606079 .30599977 .58561709V.08596802C.30599977 .054977418 .30599977 .04399109 .19999695 .04399109H.1499939V0C.20498657 .0039978029 .2939911 .0039978029 .35198976 .0039978029 .4099884 .0039978029 .49899293 .0039978029 .55400088 0V.04399109H.5039978C.397995 .04399109 .397995 .054977418 .397995 .08596802V.63591006Z"/>
<path id="font_3_2" d="M.42199708 .38238526C.40098573 .41540528 .36698915 .44140626 .31900025 .44140626 .19099427 .44140626 .06098938 .300354 .06098938 .15628052 .06098938 .059249879 .12599182-.009765625 .21199036-.009765625 .2659912-.009765625 .31399537 .021224976 .35398866 .0602417 .37298585 .00022888184 .43099977-.009765625 .45700074-.009765625 .49299623-.009765625 .5179901 .01222229 .5359955 .04324341 .55799868 .08226013 .57099917 .13928223 .57099917 .14328003 .57099917 .15628052 .55799868 .15628052 .5549927 .15628052 .54100039 .15628052 .5399933 .15228272 .5329895 .12527466 .5209961 .07725525 .5019989 .018234253 .45999146 .018234253 .43399049 .018234253 .4269867 .040237428 .4269867 .06724548 .4269867 .08425903 .43499757 .120269779 .44198609 .14628601 .44898988 .17329407 .45899964 .21430969 .46398927 .23632813L.48399354 .3123474C.48999024 .33836366 .5019989 .38539125 .5019989 .39038087 .5019989 .4123993 .48399354 .4223938 .46798707 .4223938 .45098878 .4223938 .42799378 .4104004 .42199708 .38238526M.35798646 .12527466C.35099793 .09725952 .32899476 .07725525 .30699159 .058242799 .2979889 .050247194 .2579956 .018234253 .21499634 .018234253 .17799378 .018234253 .14199829 .04423523 .14199829 .11526489 .14199829 .16828919 .17098999 .27833558 .19400025 .31835938 .23999024 .39839173 .29100038 .4133911 .31900025 .4133911 .3889923 .4133911 .4079895 .33737184 .4079895 .32635499 .4079895 .32235719 .4059906 .3153534 .40499879 .3123474L.35798646 .12527466Z"/>
<path id="font_4_3" d="M.19499207 .09828186C.18899536 .073272708 .17799378 .029251099 .17799378 .024246216 .17799378 .002243042 .19599915-.0107421879 .21499634-.0107421879 .22999573-.0107421879 .2519989-.002746582 .2630005 .022247315 .2639923 .027252198 .27598573 .07426453 .28199769 .10028076 .31599427 .23532105 .31599427 .23731995 .31799317 .24131775 .33099366 .2683258 .40299989 .40837098 .5249939 .40837098 .57398989 .40837098 .59498599 .38136292 .59498599 .3363495 .59498599 .27934266 .5529938 .17630005 .5299988 .119277957 .5249939 .107284549 .519989 .0942688 .519989 .07727051 .519989 .025253296 .56999209-.0107421879 .6289978-.0107421879 .73599246-.0107421879 .79100039 .119277957 .79100039 .14428711 .79100039 .15829468 .7739868 .15829468 .769989 .15829468 .7529907 .15829468 .7519989 .15429688 .74598696 .13528443 .72698977 .07527161 .68099978 .023254395 .6329956 .023254395 .6100006 .023254395 .6029968 .039260866 .6029968 .061264039 .6029968 .08227539 .6069946 .0922699 .6159973 .11427307 .6329956 .15429688 .67900088 .2683258 .67900088 .323349 .67900088 .39736939 .6259918 .4423828 .5309906 .4423828 .43998719 .4423828 .3769989 .38737489 .34199525 .34335328 .33699037 .42536927 .25698854 .4423828 .21998596 .4423828 .11999512 .4423828 .09098816 .28933717 .09098816 .28733827 .09098816 .2733307 .10699463 .2733307 .11199951 .2733307 .1289978 .2733307 .1309967 .27934266 .1349945 .29234315 .1499939 .35035707 .17298889 .40837098 .21499634 .40837098 .24899292 .40837098 .2559967 .3763733 .2559967 .35536195 .2559967 .34135438 .24598694 .30334474 .23999024 .2773285 .23298645 .25032044 .22299195 .20930481 .21798706 .18730164L.19499207 .09828186Z"/>
<path id="font_6_1" d="M.3849945 .27598573C.3869934 .29595948 .40299989 .42385865 .40299989 .43284608 .40299989 .45083619 .3880005 .46484376 .36799623 .46484376 .34700013 .46484376 .33299256 .44883729 .33299256 .4338379 .33299256 .42385865 .34799195 .29696656 .35099793 .27598573L.19599915 .36889649C.18598938 .3748932 .18199158 .37789918 .17298889 .37789918 .15699768 .37789918 .13899231 .36289979 .13899231 .34092713 .13899231 .3249359 .14898682 .3149414 .1599884 .31095887 .21499634 .28897096 .27198792 .26898194 .32798768 .25 .27198792 .22901917 .17999268 .19604492 .16299439 .1890564 .1559906 .18606568 .13899231 .18006897 .13899231 .15808106 .13899231 .1361084 .15699768 .12110901 .17298889 .12110901 .18399048 .12110901 .21499634 .1401062 .35099793 .22302246 .34799195 .20204163 .33299256 .075149539 .33299256 .06517029 .33299256 .0501709 .34700013 .034179689 .36799623 .034179689 .3880005 .034179689 .40299989 .048171998 .40299989 .06616211 .40299989 .075149539 .3869934 .2030487 .3849945 .22302246L.54299929 .1281128C.5499878 .12411499 .55400088 .12110901 .5629883 .12110901 .57899478 .12110901 .5970001 .1361084 .5970001 .15808106 .5970001 .17407227 .58699038 .18406677 .57598879 .18806458 .5209961 .21003723 .46398927 .23002625 .4079895 .24900818 .46398927 .269989 .55599978 .30296327 .57299807 .30995179 .5799866 .3129425 .5970001 .3189392 .5970001 .34092713 .5970001 .36289979 .57899478 .37789918 .5629883 .37789918 .55400088 .37789918 .5499878 .3748932 .5399933 .36889649L.3849945 .27598573Z"/>
</defs>
<use data-text="X" xlink:href="#font_1_3" transform="matrix(9.962899,0,0,-9.962799,53.062135,13.127022)"/>
<use data-text="(" xlink:href="#font_2_1" transform="matrix(9.962899,0,0,-9.962799,62.097414,13.127022)"/>
<use data-text="A" xlink:href="#font_1_1" transform="matrix(9.962899,0,0,-9.962799,65.972537,13.127022)"/>
<use data-text=")" xlink:href="#font_2_2" transform="matrix(9.962899,0,0,-9.962799,73.44479,13.127022)"/>
<use data-text="X" xlink:href="#font_1_3" transform="matrix(9.962899,0,0,-9.962799,52.77011,126.517299)"/>
<use data-text="(" xlink:href="#font_2_1" transform="matrix(9.962899,0,0,-9.962799,61.80539,126.517299)"/>
<use data-text="B" xlink:href="#font_1_2" transform="matrix(9.962899,0,0,-9.962799,65.68051,126.517299)"/>
<use data-text=")" xlink:href="#font_2_2" transform="matrix(9.962899,0,0,-9.962799,73.736759,126.517299)"/>
<use data-text="Y" xlink:href="#font_1_4" transform="matrix(9.962899,0,0,-9.962799,280.36296,13.127022)"/>
<use data-text="(" xlink:href="#font_2_1" transform="matrix(9.962899,0,0,-9.962799,288.36119,13.127022)"/>
<use data-text="A" xlink:href="#font_1_1" transform="matrix(9.962899,0,0,-9.962799,292.2353,13.127022)"/>
<use data-text=")" xlink:href="#font_2_2" transform="matrix(9.962899,0,0,-9.962799,299.70753,13.127022)"/>
<use data-text="Y" xlink:href="#font_1_4" transform="matrix(9.962899,0,0,-9.962799,280.07096,126.517299)"/>
<use data-text="(" xlink:href="#font_2_1" transform="matrix(9.962899,0,0,-9.962799,288.06919,126.517299)"/>
<use data-text="B" xlink:href="#font_1_2" transform="matrix(9.962899,0,0,-9.962799,291.9433,126.517299)"/>
<use data-text=")" xlink:href="#font_2_2" transform="matrix(9.962899,0,0,-9.962799,300.00056,126.517299)"/>
<path transform="matrix(1.00003,0,0,-1.00002,178.5819,124.026248)" stroke-width=".3985" stroke-linecap="butt" stroke-miterlimit="10" stroke-linejoin="miter" fill="none" stroke="#000000" d="M-97.73912 113.38724H95.19408"/>
<path transform="matrix(1.00003,0,0,-1.00002,272.0606,10.636734)" d="M4.21463 0 .64343 1.34572 1.8178 0 .64343-1.34572Z"/>
<path transform="matrix(1.00003,0,0,-1.00002,272.0606,10.636734)" stroke-width=".3985" stroke-linecap="butt" stroke-miterlimit="10" stroke-linejoin="miter" fill="none" stroke="#000000" d="M4.21463 0 .64343 1.34572 1.8178 0 .64343-1.34572Z"/>
<use data-text="f" xlink:href="#font_3_3" transform="matrix(6.9740097,0,0,-6.97394,174.06876,5.7608797)"/>
<use data-text="A" xlink:href="#font_4_1" transform="matrix(4.9814498,0,0,-4.9813997,177.95389,6.7629015)"/>
<path transform="matrix(1.00003,0,0,-1.00002,178.5819,124.026248)" stroke-width=".3985" stroke-linecap="butt" stroke-miterlimit="10" stroke-linejoin="miter" fill="none" stroke="#000000" d="M-97.44682 0H94.90178"/>
<path transform="matrix(1.00003,0,0,-1.00002,271.7683,124.026248)" d="M4.21463 0 .64343 1.34572 1.8178 0 .64343-1.34572Z"/>
<path transform="matrix(1.00003,0,0,-1.00002,271.7683,124.026248)" stroke-width=".3985" stroke-linecap="butt" stroke-miterlimit="10" stroke-linejoin="miter" fill="none" stroke="#000000" d="M4.21463 0 .64343 1.34572 1.8178 0 .64343-1.34572Z"/>
<use data-text="f" xlink:href="#font_3_3" transform="matrix(6.9740097,0,0,-6.97394,173.95075,132.3894)"/>
<use data-text="B" xlink:href="#font_4_2" transform="matrix(4.9814498,0,0,-4.9813997,177.83588,133.39144)"/>
<path transform="matrix(1.00003,0,0,-1.00002,178.5819,124.026248)" stroke-width=".3985" stroke-linecap="butt" stroke-miterlimit="10" stroke-linejoin="miter" fill="none" stroke="#000000" d="M-170.08086 85.04042V31.41072"/>
<path transform="matrix(0,1.00002,1.00003,0,8.495926,90.89668)" d="M4.21463 0 .64343 1.34572 1.8178 0 .64343-1.34572Z"/>
<path transform="matrix(0,1.00002,1.00003,0,8.495926,90.89668)" stroke-width=".3985" stroke-linecap="butt" stroke-miterlimit="10" stroke-linejoin="miter" fill="none" stroke="#000000" d="M4.21463 0 .64343 1.34572 1.8178 0 .64343-1.34572Z"/>
<use data-text="s" xlink:href="#font_3_4" transform="matrix(6.9740097,0,0,-6.97394,1.2155762,68.83314)"/>
<path transform="matrix(1.00003,0,0,-1.00002,178.5819,124.026248)" stroke-width=".3985" stroke-linecap="butt" stroke-miterlimit="10" stroke-linejoin="miter" fill="none" stroke="#000000" d="M-153.0726 85.04042V31.41072"/>
<path transform="matrix(0,1.00002,1.00003,0,25.5047,90.89668)" d="M4.21463 0 .64343 1.34572 1.8178 0 .64343-1.34572Z"/>
<path transform="matrix(0,1.00002,1.00003,0,25.5047,90.89668)" stroke-width=".3985" stroke-linecap="butt" stroke-miterlimit="10" stroke-linejoin="miter" fill="none" stroke="#000000" d="M4.21463 0 .64343 1.34572 1.8178 0 .64343-1.34572Z"/>
<use data-text="t" xlink:href="#font_3_5" transform="matrix(6.9740097,0,0,-6.97394,18.975098,69.47615)"/>
<path transform="matrix(1.00003,0,0,-1.00002,178.5819,124.026248)" stroke-width=".3985" stroke-linecap="butt" stroke-miterlimit="10" stroke-linejoin="miter" fill="none" stroke="#000000" d="M-136.06436 85.04042V31.41072"/>
<path transform="matrix(0,1.00002,1.00003,0,42.513444,90.89668)" d="M4.21463 0 .64343 1.34572 1.8178 0 .64343-1.34572Z"/>
<path transform="matrix(0,1.00002,1.00003,0,42.513444,90.89668)" stroke-width=".3985" stroke-linecap="butt" stroke-miterlimit="10" stroke-linejoin="miter" fill="none" stroke="#000000" d="M4.21463 0 .64343 1.34572 1.8178 0 .64343-1.34572Z"/>
<use data-text="&#x03b1;" xlink:href="#font_3_1" transform="matrix(6.9740097,0,0,-6.97394,46.032915,68.33513)"/>
<use data-text="0" xlink:href="#font_5_1" transform="matrix(4.9814498,0,0,-4.9813997,51.212083,69.33116)"/>
<path transform="matrix(1.00003,0,0,-1.00002,178.5819,124.026248)" stroke-width=".3985" stroke-linecap="butt" stroke-miterlimit="10" stroke-linejoin="miter" fill="none" stroke="#000000" d="M-119.0561 85.04042V31.41072"/>
<path transform="matrix(0,1.00002,1.00003,0,59.522218,90.89668)" d="M4.21463 0 .64343 1.34572 1.8178 0 .64343-1.34572Z"/>
<path transform="matrix(0,1.00002,1.00003,0,59.522218,90.89668)" stroke-width=".3985" stroke-linecap="butt" stroke-miterlimit="10" stroke-linejoin="miter" fill="none" stroke="#000000" d="M4.21463 0 .64343 1.34572 1.8178 0 .64343-1.34572Z"/>
<use data-text="&#x03b1;" xlink:href="#font_3_1" transform="matrix(6.9740097,0,0,-6.97394,63.04242,68.33513)"/>
<use data-text="1" xlink:href="#font_5_2" transform="matrix(4.9814498,0,0,-4.9813997,68.22159,69.33116)"/>
<path transform="matrix(1.00003,0,0,-1.00002,178.5819,124.026248)" stroke-width=".3985" stroke-linecap="butt" stroke-dasharray="2.98883,2.98883" stroke-miterlimit="10" stroke-linejoin="miter" fill="none" stroke="#000000" d="M-102.04787 85.04042V31.41072"/>
<path transform="matrix(0,1.00002,1.00003,0,76.53096,90.89668)" d="M4.21463 0 .64343 1.34572 1.8178 0 .64343-1.34572Z"/>
<path transform="matrix(0,1.00002,1.00003,0,76.53096,90.89668)" stroke-width=".3985" stroke-linecap="butt" stroke-miterlimit="10" stroke-linejoin="miter" fill="none" stroke="#000000" d="M4.21463 0 .64343 1.34572 1.8178 0 .64343-1.34572Z"/>
<path transform="matrix(1.00003,0,0,-1.00002,178.5819,124.026248)" stroke-width=".3985" stroke-linecap="butt" stroke-miterlimit="10" stroke-linejoin="miter" fill="none" stroke="#000000" d="M-85.03961 85.04042V31.41072"/>
<path transform="matrix(0,1.00002,1.00003,0,93.53973,90.89668)" d="M4.21463 0 .64343 1.34572 1.8178 0 .64343-1.34572Z"/>
<path transform="matrix(0,1.00002,1.00003,0,93.53973,90.89668)" stroke-width=".3985" stroke-linecap="butt" stroke-miterlimit="10" stroke-linejoin="miter" fill="none" stroke="#000000" d="M4.21463 0 .64343 1.34572 1.8178 0 .64343-1.34572Z"/>
<use data-text="a" xlink:href="#font_3_2" transform="matrix(6.9740097,0,0,-6.97394,97.05945,68.33513)"/>
<use data-text="n" xlink:href="#font_4_3" transform="matrix(4.9814498,0,0,-4.9813997,101.380619,69.33116)"/>
<path transform="matrix(1.00003,0,0,-1.00002,178.5819,124.026248)" stroke-width=".3985" stroke-linecap="butt" stroke-miterlimit="10" stroke-linejoin="miter" fill="none" stroke="#000000" d="M56.69362 85.04042V31.41072"/>
<path transform="matrix(0,1.00002,1.00003,0,235.27722,90.89668)" d="M4.21463 0 .64343 1.34572 1.8178 0 .64343-1.34572Z"/>
<path transform="matrix(0,1.00002,1.00003,0,235.27722,90.89668)" stroke-width=".3985" stroke-linecap="butt" stroke-miterlimit="10" stroke-linejoin="miter" fill="none" stroke="#000000" d="M4.21463 0 .64343 1.34572 1.8178 0 .64343-1.34572Z"/>
<use data-text="s" xlink:href="#font_3_4" transform="matrix(6.9740097,0,0,-6.97394,223.83225,69.993167)"/>
<use data-text="&#x2217;" xlink:href="#font_6_1" transform="matrix(4.9814498,0,0,-4.9813997,227.59238,66.98711)"/>
<path transform="matrix(1.00003,0,0,-1.00002,178.5819,124.026248)" stroke-width=".3985" stroke-linecap="butt" stroke-miterlimit="10" stroke-linejoin="miter" fill="none" stroke="#000000" d="M73.70186 85.04042V31.41072"/>
<path transform="matrix(0,1.00002,1.00003,0,252.28597,90.89668)" d="M4.21463 0 .64343 1.34572 1.8178 0 .64343-1.34572Z"/>
<path transform="matrix(0,1.00002,1.00003,0,252.28597,90.89668)" stroke-width=".3985" stroke-linecap="butt" stroke-miterlimit="10" stroke-linejoin="miter" fill="none" stroke="#000000" d="M4.21463 0 .64343 1.34572 1.8178 0 .64343-1.34572Z"/>
<use data-text="t" xlink:href="#font_3_5" transform="matrix(6.9740097,0,0,-6.97394,241.59079,69.993167)"/>
<use data-text="&#x2217;" xlink:href="#font_6_1" transform="matrix(4.9814498,0,0,-4.9813997,244.59989,66.98711)"/>
<path transform="matrix(1.00003,0,0,-1.00002,178.5819,124.026248)" stroke-width=".3985" stroke-linecap="butt" stroke-miterlimit="10" stroke-linejoin="miter" fill="none" stroke="#000000" d="M90.71011 85.04042V31.41072"/>
<path transform="matrix(0,1.00002,1.00003,0,269.29475,90.89668)" d="M4.21463 0 .64343 1.34572 1.8178 0 .64343-1.34572Z"/>
<path transform="matrix(0,1.00002,1.00003,0,269.29475,90.89668)" stroke-width=".3985" stroke-linecap="butt" stroke-miterlimit="10" stroke-linejoin="miter" fill="none" stroke="#000000" d="M4.21463 0 .64343 1.34572 1.8178 0 .64343-1.34572Z"/>
<use data-text="&#x03b1;" xlink:href="#font_3_1" transform="matrix(6.9740097,0,0,-6.97394,272.81474,68.99715)"/>
<use data-text="&#x2217;" xlink:href="#font_6_1" transform="matrix(4.9814498,0,0,-4.9813997,277.9939,65.99109)"/>
<use data-text="0" xlink:href="#font_5_1" transform="matrix(4.9814498,0,0,-4.9813997,277.9939,70.99019)"/>
<path transform="matrix(1.00003,0,0,-1.00002,178.5819,124.026248)" stroke-width=".3985" stroke-linecap="butt" stroke-miterlimit="10" stroke-linejoin="miter" fill="none" stroke="#000000" d="M107.71835 85.04042V31.41072"/>
<path transform="matrix(0,1.00002,1.00003,0,286.30348,90.89668)" d="M4.21463 0 .64343 1.34572 1.8178 0 .64343-1.34572Z"/>
<path transform="matrix(0,1.00002,1.00003,0,286.30348,90.89668)" stroke-width=".3985" stroke-linecap="butt" stroke-miterlimit="10" stroke-linejoin="miter" fill="none" stroke="#000000" d="M4.21463 0 .64343 1.34572 1.8178 0 .64343-1.34572Z"/>
<use data-text="&#x03b1;" xlink:href="#font_3_1" transform="matrix(6.9740097,0,0,-6.97394,289.82325,68.99715)"/>
<use data-text="&#x2217;" xlink:href="#font_6_1" transform="matrix(4.9814498,0,0,-4.9813997,295.0024,65.99109)"/>
<use data-text="1" xlink:href="#font_5_2" transform="matrix(4.9814498,0,0,-4.9813997,295.0024,70.99019)"/>
<path transform="matrix(1.00003,0,0,-1.00002,178.5819,124.026248)" stroke-width=".3985" stroke-linecap="butt" stroke-dasharray="2.98883,2.98883" stroke-miterlimit="10" stroke-linejoin="miter" fill="none" stroke="#000000" d="M124.7266 85.04042V31.41072"/>
<path transform="matrix(0,1.00002,1.00003,0,303.31227,90.89668)" d="M4.21463 0 .64343 1.34572 1.8178 0 .64343-1.34572Z"/>
<path transform="matrix(0,1.00002,1.00003,0,303.31227,90.89668)" stroke-width=".3985" stroke-linecap="butt" stroke-miterlimit="10" stroke-linejoin="miter" fill="none" stroke="#000000" d="M4.21463 0 .64343 1.34572 1.8178 0 .64343-1.34572Z"/>
<path transform="matrix(1.00003,0,0,-1.00002,178.5819,124.026248)" stroke-width=".3985" stroke-linecap="butt" stroke-miterlimit="10" stroke-linejoin="miter" fill="none" stroke="#000000" d="M141.73485 85.04042V31.41072"/>
<path transform="matrix(0,1.00002,1.00003,0,320.32099,90.89668)" d="M4.21463 0 .64343 1.34572 1.8178 0 .64343-1.34572Z"/>
<path transform="matrix(0,1.00002,1.00003,0,320.32099,90.89668)" stroke-width=".3985" stroke-linecap="butt" stroke-miterlimit="10" stroke-linejoin="miter" fill="none" stroke="#000000" d="M4.21463 0 .64343 1.34572 1.8178 0 .64343-1.34572Z"/>
<use data-text="a" xlink:href="#font_3_2" transform="matrix(6.9740097,0,0,-6.97394,323.84126,68.99715)"/>
<use data-text="&#x2217;" xlink:href="#font_6_1" transform="matrix(4.9814498,0,0,-4.9813997,328.1624,65.99109)"/>
<use data-text="n" xlink:href="#font_4_3" transform="matrix(4.9814498,0,0,-4.9813997,328.1624,70.99019)"/>
</svg>
