<?xml version="1.0" encoding="UTF-8"?>
<svg xmlns="http://www.w3.org/2000/svg" xmlns:xlink="http://www.w3.org/1999/xlink" width="144pt" height="145pt" viewBox="0 0 144 145" version="1.1">
<g id="surface1">
<path style="fill:none;stroke-width:0.3985;stroke-linecap:butt;stroke-linejoin:miter;stroke:rgb(0%,0%,0%);stroke-opacity:1;stroke-miterlimit:10;" d="M 28.347581 -0.00172981 C 28.347581 15.657643 15.656937 28.348415 0.00162588 28.348415 C -15.657591 28.348415 -28.348236 15.657643 -28.348236 -0.00172981 C -28.348236 -15.657197 -15.657591 -28.347969 0.00162588 -28.347969 C 15.656937 -28.347969 28.347581 -15.657197 28.347581 -0.00172981 Z M 28.347581 -0.00172981 " transform="matrix(1.00006,0,0,-1.00005,29.443687,30.146708)"/>
<path style="fill-rule:nonzero;fill:rgb(0%,0%,0%);fill-opacity:1;stroke-width:0.3985;stroke-linecap:butt;stroke-linejoin:miter;stroke:rgb(0%,0%,0%);stroke-opacity:1;stroke-miterlimit:10;" d="M 1.493724 14.173343 C 1.493724 14.99752 0.825795 15.669362 0.00162588 15.669362 C -0.826449 15.669362 -1.494378 14.99752 -1.494378 14.173343 C -1.494378 13.349165 -0.826449 12.677324 0.00162588 12.677324 C 0.825795 12.677324 1.493724 13.349165 1.493724 14.173343 Z M 1.493724 14.173343 " transform="matrix(1.00006,0,0,-1.00005,29.443687,30.146708)"/>
<path style="fill-rule:nonzero;fill:rgb(0%,0%,0%);fill-opacity:1;stroke-width:0.3985;stroke-linecap:butt;stroke-linejoin:miter;stroke:rgb(0%,0%,0%);stroke-opacity:1;stroke-miterlimit:10;" d="M 1.493724 -14.172896 C 1.493724 -13.348719 0.825795 -12.680783 0.00162588 -12.680783 C -0.826449 -12.680783 -1.494378 -13.348719 -1.494378 -14.172896 C -1.494378 -14.997074 -0.826449 -15.668915 0.00162588 -15.668915 C 0.825795 -15.668915 1.493724 -14.997074 1.493724 -14.172896 Z M 1.493724 -14.172896 " transform="matrix(1.00006,0,0,-1.00005,29.443687,30.146708)"/>
<path style="fill:none;stroke-width:0.3985;stroke-linecap:butt;stroke-linejoin:miter;stroke:rgb(0%,0%,0%);stroke-opacity:1;stroke-miterlimit:10;" d="M 0.00162588 -14.172896 C 5.528638 -4.599156 5.528638 4.599603 1.532784 11.521132 " transform="matrix(1.00006,0,0,-1.00005,29.443687,30.146708)"/>
<path style="fill-rule:nonzero;fill:rgb(0%,0%,0%);fill-opacity:1;stroke-width:0.3985;stroke-linecap:butt;stroke-linejoin:miter;stroke:rgb(0%,0%,0%);stroke-opacity:1;stroke-miterlimit:10;" d="M 4.214397 0.00113968 L 0.642808 1.346004 L 1.818531 -0.000317469 L 0.643935 -1.34733 Z M 4.214397 0.00113968 " transform="matrix(-0.50001,-0.866053,-0.866062,0.500005,31.83479,20.114166)"/>
<path style="fill:none;stroke-width:0.3985;stroke-linecap:butt;stroke-linejoin:miter;stroke:rgb(0%,0%,0%);stroke-opacity:1;stroke-miterlimit:10;" d="M 0.00162588 14.173343 C -5.525386 4.599603 -5.525386 -4.599156 -1.533438 -11.520685 " transform="matrix(1.00006,0,0,-1.00005,29.443687,30.146708)"/>
<path style="fill-rule:nonzero;fill:rgb(0%,0%,0%);fill-opacity:1;stroke-width:0.3985;stroke-linecap:butt;stroke-linejoin:miter;stroke:rgb(0%,0%,0%);stroke-opacity:1;stroke-miterlimit:10;" d="M 4.213683 0.000796281 L 0.642094 1.345661 L 1.817817 -0.000660868 L 0.643221 -1.347673 Z M 4.213683 0.000796281 " transform="matrix(0.50001,0.866053,0.866062,-0.500005,27.052583,40.179249)"/>
<path style="fill:none;stroke-width:0.3985;stroke-linecap:butt;stroke-linejoin:miter;stroke:rgb(0%,0%,0%);stroke-opacity:1;stroke-miterlimit:10;" d="M 113.385448 -0.00172981 C 113.385448 15.657643 100.694803 28.348415 85.039492 28.348415 C 69.384182 28.348415 56.693537 15.657643 56.693537 -0.00172981 C 56.693537 -15.657197 69.384182 -28.347969 85.039492 -28.347969 C 100.694803 -28.347969 113.385448 -15.657197 113.385448 -0.00172981 Z M 113.385448 -0.00172981 " transform="matrix(1.00006,0,0,-1.00005,29.443687,30.146708)"/>
<path style="fill-rule:nonzero;fill:rgb(0%,0%,0%);fill-opacity:1;stroke-width:0.3985;stroke-linecap:butt;stroke-linejoin:miter;stroke:rgb(0%,0%,0%);stroke-opacity:1;stroke-miterlimit:10;" d="M 86.535496 14.173343 C 86.535496 14.99752 85.867568 15.669362 85.039492 15.669362 C 84.215323 15.669362 83.547394 14.99752 83.547394 14.173343 C 83.547394 13.349165 84.215323 12.677324 85.039492 12.677324 C 85.867568 12.677324 86.535496 13.349165 86.535496 14.173343 Z M 86.535496 14.173343 " transform="matrix(1.00006,0,0,-1.00005,29.443687,30.146708)"/>
<path style="fill-rule:nonzero;fill:rgb(0%,0%,0%);fill-opacity:1;stroke-width:0.3985;stroke-linecap:butt;stroke-linejoin:miter;stroke:rgb(0%,0%,0%);stroke-opacity:1;stroke-miterlimit:10;" d="M 86.535496 -14.172896 C 86.535496 -13.348719 85.867568 -12.680783 85.039492 -12.680783 C 84.215323 -12.680783 83.547394 -13.348719 83.547394 -14.172896 C 83.547394 -14.997074 84.215323 -15.668915 85.039492 -15.668915 C 85.867568 -15.668915 86.535496 -14.997074 86.535496 -14.172896 Z M 86.535496 -14.172896 " transform="matrix(1.00006,0,0,-1.00005,29.443687,30.146708)"/>
<path style="fill:none;stroke-width:0.3985;stroke-linecap:butt;stroke-linejoin:miter;stroke:rgb(0%,0%,0%);stroke-opacity:1;stroke-miterlimit:10;" d="M 85.039492 14.173343 C 95.062328 24.196279 75.016656 24.196279 82.168571 17.044293 " transform="matrix(1.00006,0,0,-1.00005,29.443687,30.146708)"/>
<path style="fill-rule:nonzero;fill:rgb(0%,0%,0%);fill-opacity:1;stroke-width:0.3985;stroke-linecap:butt;stroke-linejoin:miter;stroke:rgb(0%,0%,0%);stroke-opacity:1;stroke-miterlimit:10;" d="M 4.214506 -0.00068866 L 0.643219 1.344428 L 1.817081 -0.000676674 L 0.643233 -1.34577 Z M 4.214506 -0.00068866 " transform="matrix(0.707142,0.707135,0.707142,-0.707135,110.403044,11.886475)"/>
<path style="fill:none;stroke-width:0.3985;stroke-linecap:butt;stroke-linejoin:miter;stroke:rgb(0%,0%,0%);stroke-opacity:1;stroke-miterlimit:10;" d="M 85.039492 -14.172896 C 95.062328 -24.195833 75.016656 -24.195833 82.168571 -17.043846 " transform="matrix(1.00006,0,0,-1.00005,29.443687,30.146708)"/>
<path style="fill-rule:nonzero;fill:rgb(0%,0%,0%);fill-opacity:1;stroke-width:0.3985;stroke-linecap:butt;stroke-linejoin:miter;stroke:rgb(0%,0%,0%);stroke-opacity:1;stroke-miterlimit:10;" d="M 4.214821 0.00100434 L 0.643548 1.346086 L 1.817396 0.000992349 L 0.643535 -1.344113 Z M 4.214821 0.00100434 " transform="matrix(0.707142,-0.707135,-0.707142,-0.707135,110.403044,48.406941)"/>
<path style="fill:none;stroke-width:0.3985;stroke-linecap:butt;stroke-linejoin:miter;stroke:rgb(0%,0%,0%);stroke-opacity:1;stroke-miterlimit:10;" d="M 28.347581 -85.040447 C 28.347581 -69.384979 15.656937 -56.694208 0.00162588 -56.694208 C -15.657591 -56.694208 -28.348236 -69.384979 -28.348236 -85.040447 C -28.348236 -100.695914 -15.657591 -113.386686 0.00162588 -113.386686 C 15.656937 -113.386686 28.347581 -100.695914 28.347581 -85.040447 Z M 28.347581 -85.040447 " transform="matrix(1.00006,0,0,-1.00005,29.443687,30.146708)"/>
<path style="fill-rule:nonzero;fill:rgb(0%,0%,0%);fill-opacity:1;stroke-width:0.3985;stroke-linecap:butt;stroke-linejoin:miter;stroke:rgb(0%,0%,0%);stroke-opacity:1;stroke-miterlimit:10;" d="M 1.493724 -70.865374 C 1.493724 -70.041197 0.825795 -69.373261 0.00162588 -69.373261 C -0.826449 -69.373261 -1.494378 -70.041197 -1.494378 -70.865374 C -1.494378 -71.693458 -0.826449 -72.361393 0.00162588 -72.361393 C 0.825795 -72.361393 1.493724 -71.693458 1.493724 -70.865374 Z M 1.493724 -70.865374 " transform="matrix(1.00006,0,0,-1.00005,29.443687,30.146708)"/>
<path style="fill-rule:nonzero;fill:rgb(0%,0%,0%);fill-opacity:1;stroke-width:0.3985;stroke-linecap:butt;stroke-linejoin:miter;stroke:rgb(0%,0%,0%);stroke-opacity:1;stroke-miterlimit:10;" d="M 1.493724 -99.215519 C 1.493724 -98.387436 0.825795 -97.7195 0.00162588 -97.7195 C -0.826449 -97.7195 -1.494378 -98.387436 -1.494378 -99.215519 C -1.494378 -100.039697 -0.826449 -100.707632 0.00162588 -100.707632 C 0.825795 -100.707632 1.493724 -100.039697 1.493724 -99.215519 Z M 1.493724 -99.215519 " transform="matrix(1.00006,0,0,-1.00005,29.443687,30.146708)"/>
<path style="fill:none;stroke-width:0.3985;stroke-linecap:butt;stroke-linejoin:miter;stroke:rgb(0%,0%,0%);stroke-opacity:1;stroke-miterlimit:10;" d="M 0.00162588 -99.215519 C 10.020556 -109.234549 -10.02121 -109.234549 -2.869296 -102.086469 " transform="matrix(1.00006,0,0,-1.00005,29.443687,30.146708)"/>
<path style="fill-rule:nonzero;fill:rgb(0%,0%,0%);fill-opacity:1;stroke-width:0.3985;stroke-linecap:butt;stroke-linejoin:miter;stroke:rgb(0%,0%,0%);stroke-opacity:1;stroke-miterlimit:10;" d="M 4.212307 0.000403023 L 0.641034 1.345484 L 1.817644 -0.00237096 L 0.643783 -1.347476 Z M 4.212307 0.000403023 " transform="matrix(0.707142,-0.707135,-0.707142,-0.707135,25.357521,133.451613)"/>
<path style="fill:none;stroke-width:0.3985;stroke-linecap:butt;stroke-linejoin:miter;stroke:rgb(0%,0%,0%);stroke-opacity:1;stroke-miterlimit:10;" d="M 0.00162588 -70.865374 L 0.00162588 -96.149266 " transform="matrix(1.00006,0,0,-1.00005,29.443687,30.146708)"/>
<path style="fill-rule:nonzero;fill:rgb(0%,0%,0%);fill-opacity:1;stroke-width:0.3985;stroke-linecap:butt;stroke-linejoin:miter;stroke:rgb(0%,0%,0%);stroke-opacity:1;stroke-miterlimit:10;" d="M 4.213515 0.00162588 L 0.643381 1.345295 L 1.819104 0.00162588 L 0.643381 -1.34595 Z M 4.213515 0.00162588 " transform="matrix(0,1.00005,1.00006,0,29.443687,124.583149)"/>
<path style="fill:none;stroke-width:0.3985;stroke-linecap:butt;stroke-linejoin:miter;stroke:rgb(0%,0%,0%);stroke-opacity:1;stroke-miterlimit:10;" d="M 113.385448 -85.040447 C 113.385448 -69.384979 100.694803 -56.694208 85.039492 -56.694208 C 69.384182 -56.694208 56.693537 -69.384979 56.693537 -85.040447 C 56.693537 -100.695914 69.384182 -113.386686 85.039492 -113.386686 C 100.694803 -113.386686 113.385448 -100.695914 113.385448 -85.040447 Z M 113.385448 -85.040447 " transform="matrix(1.00006,0,0,-1.00005,29.443687,30.146708)"/>
<path style="fill-rule:nonzero;fill:rgb(0%,0%,0%);fill-opacity:1;stroke-width:0.3985;stroke-linecap:butt;stroke-linejoin:miter;stroke:rgb(0%,0%,0%);stroke-opacity:1;stroke-miterlimit:10;" d="M 86.535496 -70.865374 C 86.535496 -70.041197 85.867568 -69.373261 85.039492 -69.373261 C 84.215323 -69.373261 83.547394 -70.041197 83.547394 -70.865374 C 83.547394 -71.693458 84.215323 -72.361393 85.039492 -72.361393 C 85.867568 -72.361393 86.535496 -71.693458 86.535496 -70.865374 Z M 86.535496 -70.865374 " transform="matrix(1.00006,0,0,-1.00005,29.443687,30.146708)"/>
<path style="fill-rule:nonzero;fill:rgb(0%,0%,0%);fill-opacity:1;stroke-width:0.3985;stroke-linecap:butt;stroke-linejoin:miter;stroke:rgb(0%,0%,0%);stroke-opacity:1;stroke-miterlimit:10;" d="M 86.535496 -99.215519 C 86.535496 -98.387436 85.867568 -97.7195 85.039492 -97.7195 C 84.215323 -97.7195 83.547394 -98.387436 83.547394 -99.215519 C 83.547394 -100.039697 84.215323 -100.707632 85.039492 -100.707632 C 85.867568 -100.707632 86.535496 -100.039697 86.535496 -99.215519 Z M 86.535496 -99.215519 " transform="matrix(1.00006,0,0,-1.00005,29.443687,30.146708)"/>
<path style="fill:none;stroke-width:0.3985;stroke-linecap:butt;stroke-linejoin:miter;stroke:rgb(0%,0%,0%);stroke-opacity:1;stroke-miterlimit:10;" d="M 85.039492 -70.865374 C 95.062328 -60.846344 75.016656 -60.846344 82.168571 -67.994424 " transform="matrix(1.00006,0,0,-1.00005,29.443687,30.146708)"/>
<path style="fill-rule:nonzero;fill:rgb(0%,0%,0%);fill-opacity:1;stroke-width:0.3985;stroke-linecap:butt;stroke-linejoin:miter;stroke:rgb(0%,0%,0%);stroke-opacity:1;stroke-miterlimit:10;" d="M 4.213315 0.000501543 L 0.642029 1.345618 L 1.81589 0.00051353 L 0.642043 -1.34458 Z M 4.213315 0.000501543 " transform="matrix(0.707142,0.707135,0.707142,-0.707135,110.403044,96.931127)"/>
<path style="fill:none;stroke-width:0.3985;stroke-linecap:butt;stroke-linejoin:miter;stroke:rgb(0%,0%,0%);stroke-opacity:1;stroke-miterlimit:10;" d="M 85.039492 -99.215519 L 85.039492 -73.931627 " transform="matrix(1.00006,0,0,-1.00005,29.443687,30.146708)"/>
<path style="fill-rule:nonzero;fill:rgb(0%,0%,0%);fill-opacity:1;stroke-width:0.3985;stroke-linecap:butt;stroke-linejoin:miter;stroke:rgb(0%,0%,0%);stroke-opacity:1;stroke-miterlimit:10;" d="M 4.213452 0.00092764 L 0.643318 1.344597 L 1.81904 0.00092764 L 0.643318 -1.346648 Z M 4.213452 0.00092764 " transform="matrix(0,-1.00005,-1.00006,0,114.489209,105.7996)"/>
</g>
</svg>
