<svg xmlns="http://www.w3.org/2000/svg" xmlns:xlink="http://www.w3.org/1999/xlink" xmlns:inkscape="http://www.inkscape.org/namespaces/inkscape" version="1.1" width="160" height="140" viewBox="0 0 160 140">
<defs>
<path id="font_1_2" d="M.4850006 .41075135 .40098573 .6096344C.397995 .61763 .3959961 .6216278 .3959961 .6226196 .3959961 .62861636 .41299439 .6476135 .45498658 .6516113 .46499635 .65260317 .47499085 .6536102 .47499085 .6706085 .47499085 .6826172 .46299745 .6826172 .45999146 .6826172 .4189911 .6826172 .37599183 .6796112 .33399964 .6796112 .30899049 .6796112 .24699402 .6826172 .22200012 .6826172 .21598816 .6826172 .20399475 .6826172 .20399475 .6626129 .20399475 .6516113 .21398926 .6516113 .22698975 .6516113 .2869873 .6516113 .29299928 .6416168 .3019867 .6196289L.41999818 .34080506 .20899964 .11393738 .19599915 .10295105C.14698792 .049987794 .099990848 .033996583 .04899597 .0309906 .035995485 .02999878 .026992798 .02999878 .026992798 .010986328 .026992798 .009994507 .026992798 0 .039993287 0 .069992069 0 .102996829 .0029907227 .13398743 .0029907227 .17098999 .0029907227 .20999146 0 .24598694 0 .2519989 0 .2639923 0 .2639923 .019989014 .2639923 .02999878 .2539978 .0309906 .2519989 .0309906 .24299622 .03199768 .21199036 .033996583 .21199036 .061965944 .21199036 .07795715 .22698975 .093948367 .23899842 .10694885L.34098817 .21487427 .43099977 .31282044 .5319977 .07395935C.5359955 .06297302 .5369873 .061965944 .5369873 .05996704 .5369873 .051986696 .5179901 .034988405 .47898866 .0309906 .46798707 .02999878 .45899964 .0289917 .45899964 .011993408 .45899964 0 .46998597 0 .47399903 0 .5019989 0 .57199099 .0029907227 .59999087 .0029907227 .625 .0029907227 .6859894 0 .71099856 0 .71798709 0 .7299957 0 .7299957 .018997193 .7299957 .0309906 .7200012 .0309906 .71199038 .0309906 .644989 .03199768 .6429901 .034988405 .6259918 .07496643 .58699038 .16790772 .519989 .32380677 .49699403 .3837738 .5649872 .45373536 .66999819 .5726471 .70199587 .6006317 .73098757 .62461856 .7689972 .64860537 .82899478 .6516113 .84199526 .65260317 .8509979 .65260317 .8509979 .6716156 .8509979 .6726074 .8509979 .6826172 .83799746 .6826172 .80799868 .6826172 .7749939 .6796112 .74398806 .6796112 .70700076 .6796112 .6689911 .6826172 .6329956 .6826172 .6269989 .6826172 .6139984 .6826172 .6139984 .6626129 .6139984 .65560916 .61898806 .65260317 .6259918 .6516113 .6349945 .65060427 .66600039 .64860537 .66600039 .6206207 .66600039 .6066284 .6549988 .5936432 .6469879 .5846405L.4850006 .41075135Z"/>
<path id="font_1_1" d="M.644989 .69506838C.644989 .69807437 .6429901 .7050781 .6339874 .7050781 .6289978 .7050781 .6279907 .70407107 .6159973 .6900635L.56799319 .6330414C.5419922 .68006899 .48999024 .7050781 .4249878 .7050781 .2979889 .7050781 .17799378 .58999636 .17799378 .4689026 .17799378 .38783265 .23098755 .34179688 .28199769 .32678224L.3889923 .2987671C.42599488 .2897644 .48098756 .27474977 .48098756 .19267273 .48098756 .1026001 .39898683 .008529663 .30099488 .008529663 .23699951 .008529663 .12599182 .030548096 .12599182 .15464783 .12599182 .17866516 .1309967 .2026825 .13198853 .20869446 .1329956 .21269226 .13398743 .21369934 .13398743 .21569824 .13398743 .22570801 .1269989 .22669983 .12199402 .22669983 .116989139 .22669983 .114990238 .22570801 .11199951 .22270203 .10798645 .21870423 .051986696-.009475708 .051986696-.012466431 .051986696-.018463135 .056991579-.022460938 .06298828-.022460938 .067993167-.022460938 .068984989-.021469117 .08099365-.007461548L.12998963 .049560548C.17298889-.008468628 .24099732-.022460938 .29899598-.022460938 .43499757-.022460938 .5529938 .11061096 .5529938 .2347107 .5529938 .30377198 .5189972 .33779908 .5039978 .35180665 .48098756 .37483216 .46598817 .37882997 .3769989 .40185548 .35499574 .40785218 .31900025 .41786195 .30999757 .41986085 .2829895 .42886354 .24899292 .457901 .24899292 .51094058 .24899292 .59199526 .32899476 .677063 .42399598 .677063 .5069885 .677063 .56799319 .6340332 .56799319 .52194216 .56799319 .48991395 .56399539 .47190858 .56399539 .4658966 .56399539 .4649048 .56399539 .45588685 .57598879 .45588685 .58599856 .45588685 .58699038 .45889283 .59098818 .47590638L.644989 .69506838Z"/>
<path id="font_1_3" d="M.5970001 .5686493 .61099246 .5826416C.6409912 .6126251 .673996 .64660647 .74198916 .6516113 .7529907 .65260317 .7619934 .65260317 .7619934 .6706085 .7619934 .6786041 .7569885 .6826172 .7489929 .6826172 .72299197 .6826172 .69400027 .6796112 .6669922 .6796112 .6339874 .6796112 .598999 .6826172 .5669861 .6826172 .5609894 .6826172 .5479889 .6826172 .5479889 .66360476 .5479889 .65260317 .55799868 .6516113 .5629883 .6516113 .56999209 .6516113 .598999 .6496124 .598999 .62861636 .598999 .6116333 .57598879 .5856476 .57199099 .5806427L.33999635 .31381227 .22999573 .6106262C.22399903 .62461856 .22399903 .62661746 .22399903 .6276245 .22399903 .6516113 .272995 .6516113 .2829895 .6516113 .29699708 .6516113 .30699159 .6516113 .30699159 .6716156 .30699159 .6826172 .29499818 .6826172 .2919922 .6826172 .2639923 .6826172 .19400025 .6796112 .1659851 .6796112 .14099121 .6796112 .07899475 .6826172 .053985597 .6826172 .04798889 .6826172 .034988405 .6826172 .034988405 .6626129 .034988405 .6516113 .04499817 .6516113 .057998659 .6516113 .117996219 .6516113 .12199402 .64260867 .1309967 .61763L.2539978 .28883363C.25498963 .28582765 .2579956 .2748413 .2579956 .27183534 .2579956 .2688446 .21798706 .107940677 .21299744 .08995056 .19999695 .034988405 .19898987 .03199768 .11898804 .0309906 .099990848 .0309906 .09199524 .0309906 .09199524 .010986328 .09199524 0 .10398865 0 .10598755 0 .13398743 0 .20399475 .0029907227 .23199463 .0029907227 .2599945 .0029907227 .33198548 0 .3600006 0 .36698915 0 .3789978 0 .3789978 .019989014 .3789978 .0309906 .36999513 .0309906 .35099793 .0309906 .34899903 .0309906 .32998658 .0309906 .31298829 .032989503 .2919922 .034988405 .28599549 .036987306 .28599549 .048980714 .28599549 .05596924 .29499818 .09095764 .2999878 .11193848L.33499146 .2528534C.33999635 .27183534 .34098817 .2748413 .34899903 .28382875L.5970001 .5686493Z"/>
<path id="font_1_4" d="M.36698915 .3996582H.45298768C.47299195 .3996582 .48298646 .3996582 .48298646 .41966249 .48298646 .43066407 .47299195 .43066407 .45599366 .43066407H.37298585L.3939972 .5449524C.397995 .5660095 .4119873 .6370239 .41799928 .6490326 .4269867 .66804507 .44400025 .68307498 .46499635 .68307498 .46899415 .68307498 .49499513 .68307498 .5139923 .66503909 .46998597 .661026 .45999146 .6260376 .45999146 .6110382 .45999146 .58802798 .47799684 .57603457 .49699403 .57603457 .522995 .57603457 .5519867 .5980377 .5519867 .6360321 .5519867 .6820679 .5059967 .7050781 .46499635 .7050781 .43099977 .7050781 .36799623 .68707278 .33799745 .58802798 .33198548 .56700137 .32899476 .5569763 .30499269 .43066407H.23599243C.21699524 .43066407 .20599365 .43066407 .20599365 .4116516 .20599365 .3996582 .21499634 .3996582 .23399353 .3996582H.2999878L.22499085 .0048828127C.20698548-.09207153 .18998719-.18309021 .13798523-.18309021 .13398743-.18309021 .10899353-.18309021 .08999634-.16506958 .13598633-.1620636 .14498902-.12606812 .14498902-.111068729 .14498902-.08807373 .1269989-.07606506 .10798645-.07606506 .08198547-.07606506 .052993776-.09806824 .052993776-.13606262 .052993776-.18109131 .09700012-.20507813 .13798523-.20507813 .19299317-.20507813 .23298645-.14607239 .25099183-.108062747 .2829895-.04508972 .30599977 .07583618 .30699159 .082839969L.36698915 .3996582Z"/>
<path id="font_2_1" d="M.20599365 .11984253C.17098999 .06594849 .13899231 .039978029 .07998657 .035995485 .069992069 .034988405 .056991579 .034988405 .056991579 .01499939 .056991579 .0039978029 .06599426 0 .070999149 0 .09700012 0 .12998963 .0039978029 .15699768 .0039978029 .18899536 .0039978029 .22999573 0 .2599945 0 .2649994 0 .27999879 0 .27999879 .021987915 .27999879 .034988405 .2669983 .035995485 .2630005 .035995485 .25498963 .036987306 .21899414 .038986207 .21899414 .06594849 .21899414 .077926639 .22898865 .09489441 .23399353 .103881839L.31399537 .22766114H.59999087L.6239929 .061950685C.6199951 .051971437 .6139984 .035995485 .5549927 .035995485 .54299929 .035995485 .5289917 .035995485 .5289917 .01399231 .5289917 .009994507 .5319977 0 .54499819 0 .57398989 0 .644989 .0039978029 .673996 .0039978029 .69200137 .0039978029 .71499636 .0029907227 .73298647 .0029907227 .7509918 .0019989014 .7719879 0 .7899933 0 .8029938 0 .80999758 .0079956059 .80999758 .020996094 .80999758 .035995485 .7979889 .035995485 .7819977 .035995485 .723999 .035995485 .7220001 .04397583 .71899417 .06793213L.6309967 .6848755C.6279907 .70588687 .6259918 .7128906 .6069946 .7128906 .58799746 .7128906 .58200076 .70388796 .57299807 .6898804L.20599365 .11984253M.33799745 .26367188 .5479889 .5908356 .59498599 .26367188H.33799745Z"/>
<path id="font_1_5" d="M.3909912 .37405396C.36299134 .37304688 .34298707 .3510437 .34298707 .32904054 .34298707 .31503297 .35198976 .30003358 .37399293 .30003358 .3959961 .30003358 .41999818 .31703187 .41999818 .35603334 .41999818 .40124513 .3769989 .4423828 .30099488 .4423828 .16899109 .4423828 .13198853 .3400421 .13198853 .29605104 .13198853 .21820069 .20599365 .20323181 .23498535 .19725037 .2869873 .18727112 .33898927 .17628479 .33898927 .12133789 .33898927 .095336917 .31599427 .011245728 .19599915 .011245728 .18199158 .011245728 .10499573 .011245728 .08198547 .064331058 .11999512 .059326173 .14498902 .08934021 .14498902 .11734009 .14498902 .14033509 .1289978 .15234375 .10798645 .15234375 .08198547 .15234375 .051986696 .1313324 .051986696 .08633423 .051986696 .029281617 .10899353-.0107421879 .19499207-.0107421879 .35699464-.0107421879 .3959961 .1103363 .3959961 .15533448 .3959961 .19125366 .3769989 .21620178 .36499024 .22817993 .33799745 .25613404 .30899049 .26112367 .2649994 .27009584 .22898865 .27807618 .18899536 .2850647 .18899536 .33003236 .18899536 .3590393 .21299744 .42037965 .30099488 .42037965 .32598878 .42037965 .37599183 .41333009 .3909912 .37405396Z"/>
<path id="font_2_3" d="M.55599978 .3817749 .651001 .4767151C.7789917 .6026459 .81799319 .6416168 .9079895 .64660647 .92099 .6476135 .93299868 .6476135 .93299868 .66760256 .93299868 .6796112 .9219971 .6826172 .9189911 .6826172 .8899994 .6826172 .8549957 .6786041 .82499697 .6786041 .798996 .6786041 .7350006 .6826172 .70899966 .6826172 .70098879 .6826172 .68899539 .6796112 .68899539 .660614 .68899539 .65960696 .68899539 .6476135 .70399478 .64660647 .71299746 .6456146 .73799136 .6436157 .73799136 .6216278 .73799136 .6066437 .72299197 .59065249 .71299746 .58065798 .7049866 .5736542 .5779877 .44973756 .54100039 .41175843L.43998719 .6076355C.43798829 .6106262 .43499757 .61763 .43499757 .6216278 .43499757 .62861636 .45399476 .64460757 .48799134 .64660647 .49499513 .64660647 .5089874 .6476135 .5089874 .6686096 .5089874 .6696167 .5079956 .6826172 .49198915 .6826172 .47099305 .6826172 .44599916 .6796112 .4249878 .6796112 .4039917 .6796112 .3809967 .6786041 .3600006 .6786041 .34298707 .6786041 .31900025 .6786041 .30099488 .6796112 .28399659 .680603 .2630005 .6826172 .24699402 .6826172 .24198914 .6826172 .22599793 .6826172 .22599793 .660614 .22599793 .64660647 .23899842 .64660647 .25498963 .64660647 .31298829 .64660647 .31799317 .63661196 .32798768 .6166229L.46798707 .34080506 .4119873 .28483583C.3929901 .2668457 .34599305 .22187805 .32798768 .20288086 .20599365 .081970218 .16499329 .039993287 .07499695 .035995485 .06098938 .034988405 .049987794 .034988405 .049987794 .01399231 .049987794 .009994507 .052993776 0 .06399536 0 .09298706 0 .1269989 .0039978029 .15699768 .0039978029 .17399597 .0039978029 .19898987 .0039978029 .21598816 .0029907227 .23399353 .0019989014 .2559967 0 .272995 0 .27799989 0 .2939911 0 .2939911 .020996094 .2939911 .034988405 .28199769 .035995485 .27598573 .035995485 .2659912 .036987306 .24499512 .039993287 .24499512 .06097412 .24499512 .07696533 .2579956 .08996582 .27999879 .11193848L.48298646 .31082154 .60398867 .07397461C.60899356 .0639801 .6100006 .0619812 .6100006 .06097412 .6100006 .054977418 .59199526 .038986207 .5569916 .035995485 .5479889 .034988405 .5349884 .034988405 .5349884 .01399231 .5349884 .0129852299 .5359955 0 .5519867 0 .57299807 0 .59799197 .0029907227 .61898806 .0029907227 .6399994 .0029907227 .6629944 .0039978029 .6839905 .0039978029 .70098879 .0039978029 .72499087 .0039978029 .7429962 .0029907227 .7599945 .0019989014 .7809906 0 .7969971 0 .8019867 0 .81799319 0 .81799319 .021987915 .81799319 .035995485 .8049927 .035995485 .78900149 .035995485 .73098757 .035995485 .7259979 .04698181 .71699526 .0639801L.55599978 .3817749Z"/>
<path id="font_1_6" d="M.20599365 .3996582H.2999878C.31999208 .3996582 .32998658 .3996582 .32998658 .41966249 .32998658 .43066407 .31999208 .43066407 .3019867 .43066407H.21398926C.25 .5724945 .25498963 .59246829 .25498963 .59846499 .25498963 .61546328 .24299622 .62545779 .22599793 .62545779 .22299195 .62545779 .19499207 .62446597 .18598938 .58947756L.14698792 .43066407H.052993776C.032989503 .43066407 .022994996 .43066407 .022994996 .4116516 .022994996 .3996582 .0309906 .3996582 .050994874 .3996582H.13899231C.066986087 .11608887 .06298828 .099121097 .06298828 .08114624 .06298828 .02722168 .100997928-.0107421879 .15499878-.0107421879 .25698854-.0107421879 .31399537 .13505554 .31399537 .14305115 .31399537 .1530304 .30599977 .1530304 .3019867 .1530304 .29299928 .1530304 .2919922 .15003968 .2869873 .13905335 .24398804 .035217287 .19099427 .011245728 .15699768 .011245728 .13598633 .011245728 .12599182 .024230957 .12599182 .057174684 .12599182 .08114624 .12799073 .088134769 .13198853 .10510254L.20599365 .3996582Z"/>
<path id="font_2_4" d="M.6779938 .56266787C.69699099 .58265689 .71699526 .600647 .7389984 .6156311 .7799988 .6436157 .81700137 .6456146 .8299866 .64660647 .84098818 .6476135 .8529968 .6476135 .8529968 .6686096 .8529968 .6756134 .8470001 .6826172 .83898928 .6826172 .81399539 .6826172 .7839966 .6786041 .7579956 .6786041 .7259979 .6786041 .6839905 .6826172 .6539917 .6826172 .6489868 .6826172 .6339874 .6826172 .6339874 .660614 .6339874 .6476135 .6469879 .64660647 .6519928 .64660647 .68099978 .64460757 .68099978 .6336212 .68099978 .6276245 .68099978 .6186218 .6749878 .6106262 .66799929 .6016388 .6619873 .59265139 .6569977 .5856476 .651001 .5796509L.40098573 .31881715 .2689972 .6116333C.2619934 .6256256 .2619934 .6276245 .2619934 .62861636 .2619934 .64660647 .30999757 .64660647 .31599427 .64660647 .32899476 .64660647 .34199525 .64660647 .34199525 .6686096 .34199525 .6696167 .34199525 .6826172 .32598878 .6826172 .29599 .6826172 .22200012 .6786041 .19198609 .6786041 .16699219 .6786041 .102996829 .6826172 .07798767 .6826172 .069992069 .6826172 .057998659 .6796112 .057998659 .660614 .057998659 .64660647 .070999149 .64660647 .084991458 .64660647 .14299011 .64660647 .14698792 .637619 .15699768 .6156311L.31199647 .2738495 .2669983 .09095764C.2539978 .039993287 .25299073 .036987306 .1749878 .035995485 .1579895 .035995485 .14498902 .035995485 .14498902 .01499939 .14498902 .004989624 .1519928 0 .16099549 0 .17999268 0 .20298767 .0029907227 .22299195 .0029907227 .24198914 .0029907227 .2709961 .0039978029 .2889862 .0039978029 .30899049 .0039978029 .33198548 .0029907227 .35299684 .0029907227 .37399293 .0029907227 .39898683 0 .41999818 0 .42599488 0 .44198609 0 .44198609 .021987915 .44198609 .035995485 .42999269 .035995485 .4079895 .035995485 .3919983 .035995485 .3880005 .035995485 .36999513 .037994386 .35099793 .039993287 .34799195 .041992189 .34799195 .051986696 .34799195 .0579834 .3600006 .10594177 .36698915 .13293457 .375 .16491699 .3959961 .25186158 .397995 .25585938 .4019928 .2708435 .4019928 .2728424 .4119873 .2828369L.6779938 .56266787Z"/>
<path id="font_2_2" d="M.18899536 .07797241C.18099976 .04399109 .1789856 .035995485 .100997928 .035995485 .08299255 .035995485 .070999149 .035995485 .070999149 .01399231 .070999149 0 .08299255 0 .100997928 0H.45799256C.6799927 0 .8929901 .20388794 .8929901 .42175294 .8929901 .5676575 .7919922 .6826172 .6289978 .6826172H.2649994C.24499512 .6826172 .23298645 .6826172 .23298645 .660614 .23298645 .64660647 .24398804 .64660647 .2659912 .64660647 .28199769 .64660647 .28599549 .64660647 .3039856 .64460757 .32398988 .64260867 .32598878 .64060977 .32598878 .63061526 .32598878 .62861636 .32598878 .6236267 .32199098 .6086426L.18899536 .07797241M.41299439 .6126251C.42099 .6436157 .42199708 .64660647 .46398927 .64660647H.59199526C.70399478 .64660647 .7979889 .59065249 .7979889 .45472718 .7979889 .43174745 .7879944 .2588501 .6879883 .14492798 .6489868 .09994507 .5629883 .035995485 .43998719 .035995485H.3039856C.272995 .035995485 .27198792 .036987306 .27198792 .04598999 .27198792 .04698181 .27198792 .051986696 .27598573 .066970828L.41299439 .6126251Z"/>
</defs>
<use data-text="X" xlink:href="#font_1_2" transform="matrix(9.9626,0,0,-9.963098,19.912003,16.698243)"/>
<use data-text="S" xlink:href="#font_1_1" transform="matrix(9.9626,0,0,-9.963098,21.087998,130.09091)"/>
<use data-text="Y" xlink:href="#font_1_3" transform="matrix(9.9626,0,0,-9.963098,133.818,16.698243)"/>
<use data-text="S" xlink:href="#font_1_1" transform="matrix(9.9626,0,0,-9.963098,134.476,130.09091)"/>
<path transform="matrix(1,0,0,-1.00005,24.43,126.68674)" stroke-width=".3985" stroke-linecap="butt" stroke-miterlimit="10" stroke-linejoin="miter" fill="none" stroke="#000000" d="M8.03764 113.38724H102.80453"/>
<path transform="matrix(1,0,0,-1.00005,125.51635,13.2938389)" d="M4.21463 0 .64343 1.34572 1.8178 0 .64343-1.34572Z"/>
<path transform="matrix(1,0,0,-1.00005,125.51635,13.2938389)" stroke-width=".3985" stroke-linecap="butt" stroke-miterlimit="10" stroke-linejoin="miter" fill="none" stroke="#000000" d="M4.21463 0 .64343 1.34572 1.8178 0 .64343-1.34572Z"/>
<use data-text="f" xlink:href="#font_1_4" transform="matrix(9.9626,0,0,-9.963098,75.699008,7.8367998)"/>
<use data-text="A" xlink:href="#font_2_1" transform="matrix(6.9738,0,0,-6.9741489,80.576999,9.331879)"/>
<path transform="matrix(1,0,0,-1.00005,24.43,126.68674)" stroke-width=".3985" stroke-linecap="butt" stroke-miterlimit="10" stroke-linejoin="miter" fill="none" stroke="#000000" d="M-8.03764 106.46346-6.89761 9.98727"/>
<path transform="matrix(.01181,.99994996,.9999,-.01181059,17.51209,114.980869)" d="M4.21463 0 .64343 1.34572 1.8178 0 .64343-1.34572Z"/>
<path transform="matrix(.01181,.99994996,.9999,-.01181059,17.51209,114.980869)" stroke-width=".3985" stroke-linecap="butt" stroke-miterlimit="10" stroke-linejoin="miter" fill="none" stroke="#000000" d="M4.21463 0 .64343 1.34572 1.8178 0 .64343-1.34572Z"/>
<use data-text="s" xlink:href="#font_1_5" transform="matrix(9.9626,0,0,-9.963098,1.2170029,71.38797)"/>
<use data-text="X" xlink:href="#font_2_3" transform="matrix(6.9738,0,0,-6.9741489,5.887001,72.88306)"/>
<path transform="matrix(1,0,0,-1.00005,24.43,126.68674)" stroke-width=".3985" stroke-linecap="butt" stroke-miterlimit="10" stroke-linejoin="miter" fill="none" stroke="#000000" d="M8.03764 106.46346 6.89761 9.98727"/>
<path transform="matrix(-.01181,.99994996,.9999,.01181059,31.34791,114.980869)" d="M4.21463 0 .64343 1.34572 1.8178 0 .64343-1.34572Z"/>
<path transform="matrix(-.01181,.99994996,.9999,.01181059,31.34791,114.980869)" stroke-width=".3985" stroke-linecap="butt" stroke-miterlimit="10" stroke-linejoin="miter" fill="none" stroke="#000000" d="M4.21463 0 .64343 1.34572 1.8178 0 .64343-1.34572Z"/>
<use data-text="t" xlink:href="#font_1_6" transform="matrix(9.9626,0,0,-9.963098,35.399003,72.30702)"/>
<use data-text="X" xlink:href="#font_2_3" transform="matrix(6.9738,0,0,-6.9741489,38.997,73.8021)"/>
<path transform="matrix(1,0,0,-1.00005,24.43,126.68674)" stroke-width=".3985" stroke-linecap="butt" stroke-miterlimit="10" stroke-linejoin="miter" fill="none" stroke="#000000" d="M105.86845 106.46346 106.50554 9.98741"/>
<path transform="matrix(.00659,.9999899,.99994,-.006590329,130.92423,114.98065)" d="M4.21463 0 .64343 1.34572 1.8178 0 .64343-1.34572Z"/>
<path transform="matrix(.00659,.9999899,.99994,-.006590329,130.92423,114.98065)" stroke-width=".3985" stroke-linecap="butt" stroke-miterlimit="10" stroke-linejoin="miter" fill="none" stroke="#000000" d="M4.21463 0 .64343 1.34572 1.8178 0 .64343-1.34572Z"/>
<use data-text="s" xlink:href="#font_1_5" transform="matrix(9.9626,0,0,-9.963098,115.54,71.38797)"/>
<use data-text="Y" xlink:href="#font_2_4" transform="matrix(6.9738,0,0,-6.9741489,120.21,72.88306)"/>
<path transform="matrix(1,0,0,-1.00005,24.43,126.68674)" stroke-width=".3985" stroke-linecap="butt" stroke-miterlimit="10" stroke-linejoin="miter" fill="none" stroke="#000000" d="M120.90594 106.46346 120.26886 9.98741"/>
<path transform="matrix(-.00659,.9999899,.99994,.006590329,144.71018,114.98065)" d="M4.21463 0 .64343 1.34572 1.8178 0 .64343-1.34572Z"/>
<path transform="matrix(-.00659,.9999899,.99994,.006590329,144.71018,114.98065)" stroke-width=".3985" stroke-linecap="butt" stroke-miterlimit="10" stroke-linejoin="miter" fill="none" stroke="#000000" d="M4.21463 0 .64343 1.34572 1.8178 0 .64343-1.34572Z"/>
<use data-text="t" xlink:href="#font_1_6" transform="matrix(9.9626,0,0,-9.963098,148.52701,72.30702)"/>
<use data-text="Y" xlink:href="#font_2_4" transform="matrix(6.9738,0,0,-6.9741489,152.125,73.8021)"/>
<path transform="matrix(1,0,0,-1.00005,24.43,126.68674)" stroke-width=".3985" stroke-linecap="butt" stroke-miterlimit="10" stroke-linejoin="miter" fill="none" stroke="#000000" d="M6.86143 0H103.4618"/>
<path transform="matrix(1,0,0,-1.00005,126.17362,126.68674)" d="M4.21463 0 .64343 1.34572 1.8178 0 .64343-1.34572Z"/>
<path transform="matrix(1,0,0,-1.00005,126.17362,126.68674)" stroke-width=".3985" stroke-linecap="butt" stroke-miterlimit="10" stroke-linejoin="miter" fill="none" stroke="#000000" d="M4.21463 0 .64343 1.34572 1.8178 0 .64343-1.34572Z"/>
<use data-text="f" xlink:href="#font_1_4" transform="matrix(9.9626,0,0,-9.963098,75.071,137.12526)"/>
<use data-text="D" xlink:href="#font_2_2" transform="matrix(6.9738,0,0,-6.9741489,79.949,138.62033)"/>
</svg>
