<svg xmlns="http://www.w3.org/2000/svg" xmlns:xlink="http://www.w3.org/1999/xlink" xmlns:inkscape="http://www.inkscape.org/namespaces/inkscape" version="1.1" width="213" height="95" viewBox="0 0 213 95">
<defs>
<path id="font_1_1" d="M.11199951 .5946045V.10694885C.11199951 .053985597 .10398865 .035995485 .052993776 .034988405 .041992189 .034988405 .024993897 .033996583 .024993897 .017990113 .024993897 0 .040985109 0 .05899048 0H.21398926C.23199463 0 .24699402 0 .24699402 .017990113 .24699402 .033996583 .23098755 .034988405 .21699524 .034988405 .1619873 .035995485 .1539917 .05697632 .1539917 .108947757V.5666199L.58599856-.0035552979C.59498599-.015563965 .59999087-.018554688 .6069946-.018554688 .6239929-.018554688 .6239929-.0025634766 .6239929 .014419556V.57865908C.6239929 .6345825 .6329956 .6485596 .67900088 .64956668 .68499758 .64956668 .70199587 .6505585 .70199587 .66656497 .70199587 .6845703 .68699648 .6845703 .6689911 .6845703H.522995C.5049896 .6845703 .4889984 .6845703 .4889984 .66656497 .4889984 .64956668 .5069885 .64956668 .5179901 .64956668 .57398989 .6485596 .58200076 .6285858 .58200076 .5756531V.26307679L.27999879 .67056277C.269989 .6845703 .2669983 .6845703 .24398804 .6845703H.069992069C.051986696 .6845703 .036987306 .6845703 .036987306 .66656497 .036987306 .65156558 .051986696 .64956668 .057998659 .64956668 .084991458 .64656069 .10398865 .6305847 .11399841 .61860659 .11199951 .6105957 .11199951 .6085968 .11199951 .5946045M.58898928 .050979616 .1539917 .62557986C.14399719 .63757327 .14399719 .63957217 .1329956 .64956668H.2519989L.58898928 .19488526V.050979616Z"/>
<path id="font_2_7" d="M.68699648 .32714845C.70199587 .32714845 .72099307 .32714845 .72099307 .34713746 .72099307 .36714173 .70199587 .36714173 .6879883 .36714173H.08898926C.07499695 .36714173 .055999757 .36714173 .055999757 .34713746 .055999757 .32714845 .07499695 .32714845 .08999634 .32714845H.68699648M.6879883 .13284302C.70199587 .13284302 .72099307 .13284302 .72099307 .15284729 .72099307 .17285156 .70199587 .17285156 .68699648 .17285156H.08999634C.07499695 .17285156 .055999757 .17285156 .055999757 .15284729 .055999757 .13284302 .07499695 .13284302 .08898926 .13284302H.6879883Z"/>
<path id="font_2_1" d="M.45999146 .31976319C.45999146 .39982606 .45498658 .47988893 .41999818 .5539398 .37399293 .65000918 .2919922 .6660156 .25 .6660156 .18998719 .6660156 .116989139 .64001467 .07598877 .54693606 .04399109 .47789 .038986207 .39982606 .038986207 .31976319 .038986207 .24472046 .042999269 .15464783 .083999637 .07859802 .1269989-.0024719239 .19999695-.022460938 .24899292-.022460938 .30299378-.022460938 .3789978-.0014648438 .4229889 .09359741 .45498658 .16265869 .45999146 .2407074 .45999146 .31976319M.24899292-.00047302247C.20999146-.00047302247 .15098572 .024551392 .1329956 .12062073 .12199402 .18066406 .12199402 .2727356 .12199402 .3317871 .12199402 .39582826 .12199402 .46188355 .12998963 .5159149 .14898682 .63500979 .22399903 .64401248 .24899292 .64401248 .28199769 .64401248 .34799195 .6259918 .36698915 .52693179 .3769989 .47088624 .3769989 .39482118 .3769989 .3317871 .3769989 .25672914 .3769989 .18867493 .3659973 .12461853 .35099793 .029556275 .2939911-.00047302247 .24899292-.00047302247Z"/>
<path id="font_2_2" d="M.2939911 .64004519C.2939911 .66400149 .2939911 .6660156 .2709961 .6660156 .20899964 .60227969 .12098694 .60227969 .08898926 .60227969V.57128909C.10899353 .57128909 .16799927 .57128909 .21998596 .5972748V.07902527C.21998596 .042999269 .21699524 .0309906 .1269989 .0309906H.09498596V0C.12998963 .0029907227 .21699524 .0029907227 .25698854 .0029907227 .29699708 .0029907227 .38398744 .0029907227 .4189911 0V.0309906H.3869934C.29699708 .0309906 .2939911 .041992189 .2939911 .07902527V.64004519Z"/>
<path id="font_2_3" d="M.1269989 .07699585 .23298645 .18003845C.3889923 .31811524 .44898988 .3721466 .44898988 .47216798 .44898988 .5860901 .35899354 .6660156 .23699951 .6660156 .12399292 .6660156 .049987794 .57411196 .049987794 .48516847 .049987794 .4291687 .099990848 .4291687 .102996829 .4291687 .11999512 .4291687 .15499878 .44117738 .15499878 .48217774 .15499878 .5081787 .13699341 .5341797 .101989749 .5341797 .09399414 .5341797 .09199524 .5341797 .08898926 .5331726 .11199951 .59806826 .1659851 .63500979 .22399903 .63500979 .31498719 .63500979 .35798646 .5541382 .35798646 .47216798 .35798646 .39215089 .30799867 .31311036 .25299073 .25108338L.06098938 .036987306C.049987794 .025985718 .049987794 .023986817 .049987794 0H.42099L.44898988 .17404175H.42399598C.4189911 .14402771 .4119873 .1000061 .4019928 .084991458 .394989 .07699585 .32899476 .07699585 .30699159 .07699585H.1269989Z"/>
<path id="font_2_4" d="M.2899933 .35191346C.37199403 .37893678 .42999269 .4490509 .42999269 .52809146 .42999269 .6100464 .34199525 .6660156 .24598694 .6660156 .14498902 .6660156 .068984989 .60606387 .068984989 .53009036 .068984989 .49710084 .09098816 .47808839 .11999512 .47808839 .15098572 .47808839 .17098999 .50009158 .17098999 .5290985 .17098999 .57910159 .12399292 .57910159 .10899353 .57910159 .13999939 .62802127 .20599365 .64100649 .24198914 .64100649 .2829895 .64100649 .33799745 .6190338 .33799745 .5290985 .33799745 .51708987 .33599855 .45906068 .30999757 .4149933 .27999879 .36691285 .24598694 .36390687 .22099304 .36291505 .21299744 .36190797 .18899536 .35990907 .18199158 .35990907 .17399597 .35890199 .16699219 .35791017 .16699219 .3479004 .16699219 .33691407 .17399597 .33691407 .19099427 .33691407H.23498535C.31698609 .33691407 .35398866 .2686615 .35398866 .17037964 .35398866 .034469606 .2849884 .0055389406 .24099732 .0055389406 .19799805 .0055389406 .12298584 .022491456 .08799744 .08137512 .12298584 .07637024 .1539917 .09837341 .1539917 .1363678 .1539917 .17237854 .1269989 .19238281 .09799194 .19238281 .07398987 .19238281 .041992189 .17837525 .041992189 .1343689 .041992189 .043441774 .1349945-.022460938 .24398804-.022460938 .3659973-.022460938 .45700074 .06838989 .45700074 .17037964 .45700074 .252594 .3939972 .33088685 .2899933 .35191346Z"/>
<path id="font_2_5" d="M.2939911 .16503906V.07800293C.2939911 .041992189 .2919922 .0309906 .21798706 .0309906H.19699097V0C.23799134 .0029907227 .2899933 .0029907227 .33198548 .0029907227 .37399293 .0029907227 .4269867 .0029907227 .46798707 0V.0309906H.44699098C.37298585 .0309906 .37098695 .041992189 .37098695 .07800293V.16503906H.47099305V.19602967H.37098695V.65075686C.37098695 .67074587 .37098695 .6767578 .35499574 .6767578 .34599305 .6767578 .34298707 .6767578 .33499146 .66474917L.027999878 .19602967V.16503906H.2939911M.2999878 .19602967H.055999757L.2999878 .5688019V.19602967Z"/>
<path id="font_2_6" d="M.44898988 .20022583C.44898988 .3193512 .36698915 .41944886 .25898744 .41944886 .21099854 .41944886 .16799927 .40345765 .13198853 .36842347V.5637665C.1519928 .5577698 .18499756 .55078127 .21699524 .55078127 .33999635 .55078127 .4099884 .6417694 .4099884 .6547699 .4099884 .6607666 .40699769 .6657715 .3999939 .6657715 .39898683 .6657715 .39698792 .6657715 .3919983 .66278079 .37199403 .6537781 .32299806 .6337738 .2559967 .6337738 .21598816 .6337738 .16999817 .6407776 .12298584 .6617737 .114990238 .66477969 .11299133 .66477969 .11099243 .66477969 .100997928 .66477969 .100997928 .6567688 .100997928 .6407776V.34439088C.100997928 .32637025 .100997928 .31835938 .114990238 .31835938 .12199402 .31835938 .12399292 .32136537 .12799073 .32736207 .13899231 .3433838 .17599488 .39746095 .25698854 .39746095 .30899049 .39746095 .33399964 .35139466 .34199525 .33337403 .35798646 .29632569 .3600006 .25727845 .3600006 .20722962 .3600006 .17222595 .3600006 .11222839 .33599855 .07035828 .31199647 .031463624 .2749939 .0055389406 .22898865 .0055389406 .1559906 .0055389406 .09899902 .058380128 .08198547 .11723328 .084991458 .1162262 .08799744 .115234378 .09899902 .115234378 .13198853 .115234378 .14898682 .14022827 .14898682 .16423035 .14898682 .18823242 .13198853 .21322632 .09899902 .21322632 .084991458 .21322632 .049987794 .20622254 .049987794 .16023255 .049987794 .07434082 .11898804-.022460938 .23098755-.022460938 .34700013-.022460938 .44898988 .073349 .44898988 .20022583Z"/>
<path id="font_3_88" d="M.19198609 .052993776C.19198609 .08198547 .16799927 .10598755 .13899231 .10598755 .10998535 .10598755 .085998538 .08198547 .085998538 .052993776 .085998538 .023986817 .10998535 0 .13899231 0 .16799927 0 .19198609 .023986817 .19198609 .052993776Z"/>
<path id="font_4_1" d="M.47698976 .23631287C.47698976 .39337159 .38398744 .4423828 .30999757 .4423828 .17298889 .4423828 .040985109 .29933167 .040985109 .15829468 .040985109 .06526184 .100997928-.0107421879 .20298767-.0107421879 .2659912-.0107421879 .33799745 .012252808 .4139862 .073272708 .4269867 .020248414 .45999146-.0107421879 .5049896-.0107421879 .55799868-.0107421879 .58898928 .044265748 .58898928 .060272218 .58898928 .06726074 .58299258 .07026672 .57699587 .07026672 .56999209 .07026672 .5669861 .06726074 .56399539 .060272218 .54599 .011245728 .5099945 .011245728 .5079956 .011245728 .47698976 .011245728 .47698976 .089279178 .47698976 .11328125 .47698976 .1342926 .47698976 .1362915 .4869995 .14828491 .58099368 .2663269 .60198977 .38235475 .60198977 .38336183 .60198977 .38536073 .6009979 .39337159 .58999636 .39337159 .5799866 .39337159 .5799866 .3903656 .57499697 .37236024 .5569916 .30934144 .5239868 .23332215 .47698976 .17430115V.23631287M.4099884 .09927368C.32199098 .022247315 .24499512 .011245728 .20498657 .011245728 .14498902 .011245728 .114990238 .056259157 .114990238 .120285037 .114990238 .16929627 .14099121 .2773285 .17298889 .32833863 .21998596 .4013672 .27398683 .42037965 .30899049 .42037965 .4079895 .42037965 .4079895 .28933717 .4079895 .21130371 .4079895 .17430115 .4079895 .11628723 .4099884 .09927368Z"/>
<path id="font_5_1" d="M.5159912 .31925965C.5159912 .42918397 .5029907 .50813296 .45700074 .5780945 .42599488 .62405398 .3639984 .6640625 .28399659 .6640625 .051986696 .6640625 .051986696 .39120484 .051986696 .31925965 .051986696 .2472992 .051986696-.01953125 .28399659-.01953125 .5159912-.01953125 .5159912 .2472992 .5159912 .31925965M.28399659 .008468628C.23799134 .008468628 .1769867 .035446168 .15699768 .117385867 .14299011 .17634583 .14299011 .25830079 .14299011 .33224488 .14299011 .40519715 .14299011 .4811554 .1579895 .53611758 .1789856 .6150665 .24299622 .63604739 .28399659 .63604739 .33799745 .63604739 .3899994 .6030731 .4079895 .545105 .42399598 .4911499 .4249878 .41918946 .4249878 .33224488 .4249878 .25830079 .4249878 .18434143 .4119873 .12138367 .3919983 .030441285 .32398988 .008468628 .28399659 .008468628Z"/>
<path id="font_4_2" d="M.37298585 .37835694C.35499574 .41537477 .32598878 .4423828 .2809906 .4423828 .1639862 .4423828 .039993287 .29533387 .039993287 .14929199 .039993287 .055267335 .09498596-.0107421879 .17298889-.0107421879 .19299317-.0107421879 .24299622-.0067443849 .30299378 .06427002 .31098939 .022247315 .34599305-.0107421879 .3939972-.0107421879 .42900086-.0107421879 .45199586 .012252808 .46798707 .044265748 .4850006 .08027649 .49798585 .14129639 .49798585 .14329529 .49798585 .1532898 .4889984 .1532898 .48599244 .1532898 .47599793 .1532898 .47499085 .14929199 .47200013 .13528443 .45498658 .07026672 .43699647 .011245728 .3959961 .011245728 .36898805 .011245728 .3659973 .037261964 .3659973 .057266237 .3659973 .07926941 .36799623 .08728027 .3789978 .13128662 .3899994 .17329407 .3919983 .18330384 .40098573 .22131348L.43699647 .36135865C.44400025 .38935853 .44400025 .39135743 .44400025 .39537049 .44400025 .41236878 .43199159 .42237855 .4149933 .42237855 .3909912 .42237855 .37599183 .4003601 .37298585 .37835694M.30799867 .119277957C.30299378 .10127258 .30299378 .09927368 .28799439 .08227539 .24398804 .027252198 .20298767 .011245728 .1749878 .011245728 .125 .011245728 .11099243 .06626892 .11099243 .105285648 .11099243 .1552887 .14299011 .27833558 .1659851 .32434083 .19699097 .38336183 .24198914 .42037965 .28199769 .42037965 .34700013 .42037965 .36099244 .3383484 .36099244 .33235169 .36099244 .32633973 .35899354 .32034303 .35798646 .31533814L.30799867 .119277957Z"/>
<path id="font_4_3" d="M.23899842 .68333438C.23899842 .6843262 .23899842 .69433596 .22599793 .69433596 .20298767 .69433596 .12998963 .6863251 .10398865 .6843262 .09599304 .68333438 .084991458 .6823273 .084991458 .6643219 .084991458 .6523285 .09399414 .6523285 .10899353 .6523285 .15699768 .6523285 .15899658 .6453247 .15899658 .6353302 .15899658 .6283264 .1499939 .5943451 .14498902 .573349L.06298828 .24731446C.050994874 .1973114 .04699707 .18130493 .04699707 .14628601 .04699707 .05126953 .099990848-.0107421879 .17399597-.0107421879 .2919922-.0107421879 .4149933 .1382904 .4149933 .28233338 .4149933 .37335206 .3619995 .4423828 .28199769 .4423828 .23599243 .4423828 .19499207 .41337586 .16499329 .38235475L.23899842 .68333438M.14498902 .30534364C.15098572 .3273468 .15098572 .3293457 .1599884 .3403473 .20899964 .405365 .2539978 .42037965 .27999879 .42037965 .31599427 .42037965 .34298707 .3903656 .34298707 .32633973 .34298707 .26733399 .30999757 .15229798 .2919922 .11428833 .25898744 .04725647 .21299744 .011245728 .17399597 .011245728 .13999939 .011245728 .10699463 .038253786 .10699463 .11227417 .10699463 .13128662 .10699463 .15029907 .12298584 .21331787L.14498902 .30534364Z"/>
<path id="font_4_4" d="M.3959961 .37998963C.37998963 .37998963 .3659973 .37998963 .35198976 .36598207 .33599855 .35098268 .33399964 .33398438 .33399964 .3269806 .33399964 .30297853 .35198976 .2919922 .37098695 .2919922 .3999939 .2919922 .4269867 .315979 .4269867 .35598756 .4269867 .40522767 .37998963 .4423828 .30899049 .4423828 .17399597 .4423828 .040985109 .2989807 .040985109 .15811157 .040985109 .06819153 .09899902-.0107421879 .20298767-.0107421879 .34599305-.0107421879 .42999269 .09516907 .42999269 .107162479 .42999269 .11315918 .42399598 .120147708 .41799928 .120147708 .41299439 .120147708 .41099549 .1181488 .40499879 .1101532 .32598878 .011245728 .21699524 .011245728 .20498657 .011245728 .14199829 .011245728 .114990238 .06021118 .114990238 .120147708 .114990238 .1611023 .1349945 .25801087 .16899109 .31999208 .19999695 .37698365 .25498963 .42037965 .30999757 .42037965 .34399415 .42037965 .38198854 .40724183 .3959961 .37998963Z"/>
<path id="font_4_5" d="M.5159912 .68333438C.5159912 .6843262 .5159912 .69433596 .5029907 .69433596 .48799134 .69433596 .3929901 .68533328 .37599183 .68333438 .36799623 .6823273 .3619995 .6773224 .3619995 .6643219 .3619995 .6523285 .37098695 .6523285 .38598634 .6523285 .43399049 .6523285 .43598939 .6453247 .43598939 .6353302L.43299867 .6153412 .37298585 .37835694C.35499574 .41537477 .32598878 .4423828 .2809906 .4423828 .1639862 .4423828 .039993287 .29533387 .039993287 .14929199 .039993287 .055267335 .09498596-.0107421879 .17298889-.0107421879 .19299317-.0107421879 .24299622-.0067443849 .30299378 .06427002 .31098939 .022247315 .34599305-.0107421879 .3939972-.0107421879 .42900086-.0107421879 .45199586 .012252808 .46798707 .044265748 .4850006 .08027649 .49798585 .14129639 .49798585 .14329529 .49798585 .1532898 .4889984 .1532898 .48599244 .1532898 .47599793 .1532898 .47499085 .14929199 .47200013 .13528443 .45498658 .07026672 .43699647 .011245728 .3959961 .011245728 .36898805 .011245728 .3659973 .037261964 .3659973 .057266237 .3659973 .08126831 .36799623 .088272098 .37199403 .105285648L.5159912 .68333438M.30799867 .119277957C.30299378 .10127258 .30299378 .09927368 .28799439 .08227539 .24398804 .027252198 .20298767 .011245728 .1749878 .011245728 .125 .011245728 .11099243 .06626892 .11099243 .105285648 .11099243 .1552887 .14299011 .27833558 .1659851 .32434083 .19699097 .38336183 .24198914 .42037965 .28199769 .42037965 .34700013 .42037965 .36099244 .3383484 .36099244 .33235169 .36099244 .32633973 .35899354 .32034303 .35798646 .31533814L.30799867 .119277957Z"/>
<path id="font_5_2" d="M.33499146 .63612368C.33499146 .6630554 .33299256 .6640625 .30499269 .6640625 .24099732 .6014404 .1499939 .6004486 .10899353 .6004486V.5644531C.1329956 .5644531 .19898987 .5644531 .2539978 .592453V.08203125C.2539978 .04899597 .2539978 .035995485 .1539917 .035995485H.115997318V0C.13398743 .0009918213 .25698854 .0039978029 .2939911 .0039978029 .32499696 .0039978029 .45098878 .0009918213 .47299195 0V.035995485H.43499757C.33499146 .035995485 .33499146 .04899597 .33499146 .08203125V.63612368Z"/>
<path id="font_5_3" d="M.5049896 .18203736H.47099305C.46798707 .16001892 .45799256 .100997928 .44499208 .09098816 .43699647 .084991458 .3600006 .084991458 .34599305 .084991458H.1619873C.2669983 .17803955 .3019867 .20603943 .3619995 .25306703 .43598939 .312088 .5049896 .374115 .5049896 .46914674 .5049896 .5900879 .39898683 .6640625 .2709961 .6640625 .14698792 .6640625 .06298828 .57710269 .06298828 .4851532 .06298828 .43414308 .10598755 .42915345 .115997318 .42915345 .13999939 .42915345 .16899109 .44615174 .16899109 .48214723 .16899109 .5001526 .1619873 .53515627 .10998535 .53515627 .14099121 .6060791 .20899964 .62805178 .2559967 .62805178 .35598756 .62805178 .4079895 .5501404 .4079895 .46914674 .4079895 .38212586 .34599305 .3130951 .31399537 .27708436L.07299805 .038986207C.06298828 .02999878 .06298828 .027999878 .06298828 0H.47499085L.5049896 .18203736Z"/>
<path id="font_5_4" d="M.272995 .33428956C.35099793 .33428956 .40699769 .2803192 .40699769 .1733551 .40699769 .04940796 .33499146 .012466431 .2769928 .012466431 .23699951 .012466431 .14898682 .0234375 .10699463 .082351688 .1539917 .084350589 .16499329 .11735535 .16499329 .13835144 .16499329 .17034912 .14099121 .19335938 .10998535 .19335938 .08198547 .19335938 .053985597 .17634583 .053985597 .13534546 .053985597 .041412355 .1579895-.01953125 .2789917-.01953125 .41799928-.01953125 .5139923 .07336426 .5139923 .1733551 .5139923 .2513275 .44999696 .32929994 .33999635 .35229493 .44499208 .39024354 .48298646 .4650879 .48298646 .5260773 .48298646 .60505679 .3919983 .6640625 .2809906 .6640625 .16999817 .6640625 .084991458 .61006167 .084991458 .5300751 .084991458 .49606324 .10699463 .47706605 .13699341 .47706605 .16799927 .47706605 .18798828 .5000763 .18798828 .5280762 .18798828 .5570679 .16799927 .57806399 .13699341 .5800781 .17199707 .62405398 .24099732 .63505557 .27799989 .63505557 .32299806 .63505557 .38598634 .6130676 .38598634 .5260773 .38598634 .48406983 .37199403 .43814088 .34599305 .4072113 .31298829 .36927796 .2849884 .3672943 .23498535 .36428834 .20999146 .3623047 .20799256 .3623047 .20298767 .3612976 .20098877 .3612976 .19299317 .3592987 .19299317 .34829713 .19299317 .33428956 .20199585 .33428956 .21899414 .33428956H.272995Z"/>
</defs>
<use data-text="N" xlink:href="#font_1_1" transform="matrix(9.962899,0,0,-9.963197,1.2165909,7.784746)"/>
<use data-text="=" xlink:href="#font_2_7" transform="matrix(9.962899,0,0,-9.963197,11.179901,7.784746)"/>
<use data-text="0" xlink:href="#font_2_1" transform="matrix(9.962899,0,0,-9.963197,35.929636,7.5627348)"/>
<use data-text="1" xlink:href="#font_2_2" transform="matrix(9.962899,0,0,-9.963197,64.27748,7.5627348)"/>
<use data-text="2" xlink:href="#font_2_3" transform="matrix(9.962899,0,0,-9.963197,92.625339,7.5627348)"/>
<use data-text="3" xlink:href="#font_2_4" transform="matrix(9.962899,0,0,-9.963197,120.97319,7.5627348)"/>
<use data-text="4" xlink:href="#font_2_5" transform="matrix(9.962899,0,0,-9.963197,149.32105,7.5627348)"/>
<use data-text="5" xlink:href="#font_2_6" transform="matrix(9.962899,0,0,-9.963197,177.66788,7.5627348)"/>
<use data-text="." xlink:href="#font_3_88" transform="matrix(9.962899,0,0,-9.963197,204.35169,4.8805716)"/>
<use data-text="." xlink:href="#font_3_88" transform="matrix(9.962899,0,0,-9.963197,207.12137,4.8805716)"/>
<use data-text="." xlink:href="#font_3_88" transform="matrix(9.962899,0,0,-9.963197,209.89107,4.8805716)"/>
<use data-text="&#x03b1;" xlink:href="#font_4_1" transform="matrix(9.962899,0,0,-9.963197,4.632698,36.756486)"/>
<use data-text="0" xlink:href="#font_5_1" transform="matrix(6.9740097,0,0,-6.9742186,11.042892,33.140268)"/>
<use data-text="a" xlink:href="#font_4_2" transform="matrix(9.962899,0,0,-9.963197,35.78763,34.846368)"/>
<use data-text="b" xlink:href="#font_4_3" transform="matrix(9.962899,0,0,-9.963197,64.63049,36.160448)"/>
<use data-text="c" xlink:href="#font_4_4" transform="matrix(9.962899,0,0,-9.963197,92.96034,34.846368)"/>
<use data-text="d" xlink:href="#font_4_5" transform="matrix(9.962899,0,0,-9.963197,120.871189,36.160448)"/>
<use data-text="&#x03b1;" xlink:href="#font_4_1" transform="matrix(9.962899,0,0,-9.963197,145.97293,34.846368)"/>
<use data-text="a" xlink:href="#font_4_2" transform="matrix(9.962899,0,0,-9.963197,152.36913,34.846368)"/>
<use data-text="." xlink:href="#font_3_88" transform="matrix(9.962899,0,0,-9.963197,176.00485,33.22927)"/>
<use data-text="." xlink:href="#font_3_88" transform="matrix(9.962899,0,0,-9.963197,178.77454,33.22927)"/>
<use data-text="." xlink:href="#font_3_88" transform="matrix(9.962899,0,0,-9.963197,181.54422,33.22927)"/>
<use data-text="&#x03b1;" xlink:href="#font_4_1" transform="matrix(9.962899,0,0,-9.963197,4.632698,65.10518)"/>
<use data-text="1" xlink:href="#font_5_2" transform="matrix(6.9740097,0,0,-6.9742186,11.042892,61.488969)"/>
<use data-text="&#x03b1;" xlink:href="#font_4_1" transform="matrix(9.962899,0,0,-9.963197,32.582536,63.195074)"/>
<use data-text="a" xlink:href="#font_4_2" transform="matrix(9.962899,0,0,-9.963197,38.97872,63.195074)"/>
<use data-text="&#x03b1;" xlink:href="#font_4_1" transform="matrix(9.962899,0,0,-9.963197,61.4254,64.50915)"/>
<use data-text="b" xlink:href="#font_4_3" transform="matrix(9.962899,0,0,-9.963197,67.82159,64.50915)"/>
<use data-text="&#x03b1;" xlink:href="#font_4_1" transform="matrix(9.962899,0,0,-9.963197,89.75525,63.195074)"/>
<use data-text="c" xlink:href="#font_4_4" transform="matrix(9.962899,0,0,-9.963197,96.151439,63.195074)"/>
<use data-text="&#x03b1;" xlink:href="#font_4_1" transform="matrix(9.962899,0,0,-9.963197,117.666088,64.50915)"/>
<use data-text="d" xlink:href="#font_4_5" transform="matrix(9.962899,0,0,-9.963197,124.06227,64.50915)"/>
<use data-text="&#x03b1;" xlink:href="#font_4_1" transform="matrix(9.962899,0,0,-9.963197,143.73789,65.10518)"/>
<use data-text="2" xlink:href="#font_5_3" transform="matrix(6.9740097,0,0,-6.9742186,150.14807,61.488969)"/>
<use data-text="a" xlink:href="#font_4_2" transform="matrix(9.962899,0,0,-9.963197,154.6182,65.10518)"/>
<use data-text="." xlink:href="#font_3_88" transform="matrix(9.962899,0,0,-9.963197,176.00485,61.577974)"/>
<use data-text="." xlink:href="#font_3_88" transform="matrix(9.962899,0,0,-9.963197,178.77454,61.577974)"/>
<use data-text="." xlink:href="#font_3_88" transform="matrix(9.962899,0,0,-9.963197,181.54422,61.577974)"/>
<use data-text="&#x03b1;" xlink:href="#font_4_1" transform="matrix(9.962899,0,0,-9.963197,4.632698,93.45288)"/>
<use data-text="2" xlink:href="#font_5_3" transform="matrix(6.9740097,0,0,-6.9742186,11.042892,89.83667)"/>
<use data-text="&#x03b1;" xlink:href="#font_4_1" transform="matrix(9.962899,0,0,-9.963197,30.347466,93.45288)"/>
<use data-text="2" xlink:href="#font_5_3" transform="matrix(6.9740097,0,0,-6.9742186,36.75766,89.83667)"/>
<use data-text="a" xlink:href="#font_4_2" transform="matrix(9.962899,0,0,-9.963197,41.227785,93.45288)"/>
<use data-text="&#x03b1;" xlink:href="#font_4_1" transform="matrix(9.962899,0,0,-9.963197,59.19033,93.45288)"/>
<use data-text="2" xlink:href="#font_5_3" transform="matrix(6.9740097,0,0,-6.9742186,65.600528,89.83667)"/>
<use data-text="b" xlink:href="#font_4_3" transform="matrix(9.962899,0,0,-9.963197,70.07065,93.45288)"/>
<use data-text="&#x03b1;" xlink:href="#font_4_1" transform="matrix(9.962899,0,0,-9.963197,87.52019,93.45288)"/>
<use data-text="2" xlink:href="#font_5_3" transform="matrix(6.9740097,0,0,-6.9742186,93.930377,89.83667)"/>
<use data-text="c" xlink:href="#font_4_4" transform="matrix(9.962899,0,0,-9.963197,98.4005,93.45288)"/>
<use data-text="&#x03b1;" xlink:href="#font_4_1" transform="matrix(9.962899,0,0,-9.963197,115.43102,93.45288)"/>
<use data-text="2" xlink:href="#font_5_3" transform="matrix(6.9740097,0,0,-6.9742186,121.84122,89.83667)"/>
<use data-text="d" xlink:href="#font_4_5" transform="matrix(9.962899,0,0,-9.963197,126.31134,93.45288)"/>
<use data-text="&#x03b1;" xlink:href="#font_4_1" transform="matrix(9.962899,0,0,-9.963197,143.73789,93.45288)"/>
<use data-text="3" xlink:href="#font_5_4" transform="matrix(6.9740097,0,0,-6.9742186,150.14807,89.83667)"/>
<use data-text="a" xlink:href="#font_4_2" transform="matrix(9.962899,0,0,-9.963197,154.6182,93.45288)"/>
<use data-text="." xlink:href="#font_3_88" transform="matrix(9.962899,0,0,-9.963197,176.00485,89.92667)"/>
<use data-text="." xlink:href="#font_3_88" transform="matrix(9.962899,0,0,-9.963197,178.77454,89.92667)"/>
<use data-text="." xlink:href="#font_3_88" transform="matrix(9.962899,0,0,-9.963197,181.54422,89.92667)"/>
<path transform="matrix(1.00003,0,0,-1.00006,38.420709,32.70124)" stroke-width=".3985" stroke-linecap="butt" stroke-miterlimit="10" stroke-linejoin="miter" fill="none" stroke="#0000ff" d="M-3.26955-5.66457C-6.5877-11.41182-6.5877-16.93498-4.26578-20.95668"/>
<path transform="matrix(.49999503,.8660619,.866036,-.50000998,34.1548,53.65917)" d="M1.99252 0-1.19551 1.59401 0 0-1.19551-1.59401" fill="#0000ff"/>
<path transform="matrix(1.00003,0,0,-1.00006,38.420709,32.70124)" stroke-width=".3985" stroke-linecap="butt" stroke-miterlimit="10" stroke-linejoin="miter" fill="none" stroke="#0000ff" d="M9.35796-25.83968C18.83145-22.80327 24.36983-16.70158 26.05501-8.92635"/>
<path transform="matrix(.21179636,-.9773386,-.9773094,-.21180269,64.47649,41.628126)" d="M1.99252 0-1.19551 1.59401 0 0-1.19551-1.59401" fill="#0000ff"/>
<path transform="matrix(1.00003,0,0,-1.00006,38.420709,32.70124)" stroke-width=".3985" stroke-linecap="butt" stroke-miterlimit="10" stroke-linejoin="miter" fill="none" stroke="#0000ff" d="M22.68915-3.7344C5.95497-14.59433-1.49203-29.19675-.55785-47.12915"/>
<path transform="matrix(.05202156,.9986899,.99865999,-.052023118,37.86283,79.83322)" d="M1.99252 0-1.19551 1.59401 0 0-1.19551-1.59401" fill="#0000ff"/>
<path transform="matrix(1.00003,0,0,-1.00006,38.420709,32.70124)" stroke-width=".3985" stroke-linecap="butt" stroke-miterlimit="10" stroke-linejoin="miter" fill="none" stroke="#0000ff" d="M11.59267-53.58778C20.18895-50.31912 25.0096-44.40483 26.15915-37.29283"/>
<path transform="matrix(.1595348,-.9872092,-.9871797,-.15953957,64.58063,69.99631)" d="M1.99252 0-1.19551 1.59401 0 0-1.19551-1.59401" fill="#0000ff"/>
<path transform="matrix(1.00003,0,0,-1.00006,38.420709,32.70124)" stroke-width=".3985" stroke-linecap="butt" stroke-miterlimit="10" stroke-linejoin="miter" fill="none" stroke="#0000ff" d="M37.20949-25.97238C47.2615-22.60884 53.06287-16.05162 54.7788-7.61699"/>
<path transform="matrix(.19936599,-.9799288,-.97989949,-.19937195,93.20113,40.318689)" d="M1.99252 0-1.19551 1.59401 0 0-1.19551-1.59401" fill="#0000ff"/>
<path transform="matrix(1.00003,0,0,-1.00006,38.420709,32.70124)" stroke-width=".3985" stroke-linecap="butt" stroke-miterlimit="10" stroke-linejoin="miter" fill="none" stroke="#ff0000" d="M6.15292-3.55142C11.81438-6.69107 17.13939-6.5987 20.98105-4.29138"/>
<path transform="matrix(.8572757,-.5148809,-.51486548,-.85730138,59.40239,36.992898)" d="M1.99252 0-1.19551 1.59401 0 0-1.19551-1.59401" fill="#ff0000"/>
<path transform="matrix(1.00003,0,0,-1.00006,38.420709,32.70124)" stroke-width=".3985" stroke-linecap="butt" stroke-miterlimit="10" stroke-linejoin="miter" fill="none" stroke="#ff0000" d="M22.68915-1.51575C11.36534-4.54854 4.55307-11.35915 2.03351-20.75769"/>
<path transform="matrix(-.25893779,.9659379,.965909,.25894553,40.454278,53.460176)" d="M1.99252 0-1.19551 1.59401 0 0-1.19551-1.59401" fill="#ff0000"/>
<path transform="matrix(1.00003,0,0,-1.00006,38.420709,32.70124)" stroke-width=".3985" stroke-linecap="butt" stroke-miterlimit="10" stroke-linejoin="miter" fill="none" stroke="#ff0000" d="M9.35796-28.90797C28.67976-29.56137 42.72783-22.07104 51.90065-7.35545"/>
<path transform="matrix(.52899596,-.8486709,-.8486455,-.5290117,90.3229,40.05715)" d="M1.99252 0-1.19551 1.59401 0 0-1.19551-1.59401" fill="#ff0000"/>
<path transform="matrix(1.00003,0,0,-1.00006,38.420709,32.70124)" stroke-width=".3985" stroke-linecap="butt" stroke-miterlimit="10" stroke-linejoin="miter" fill="none" stroke="#ff0000" d="M51.01808-1.52054C40.06825-4.18077 33.38771-10.55478 30.7773-19.45581"/>
<path transform="matrix(-.28140847,.9595875,.95955887,.28141687,69.19893,52.15822)" d="M1.99252 0-1.19551 1.59401 0 0-1.19551-1.59401" fill="#ff0000"/>
<path transform="matrix(1.00003,0,0,-1.00006,38.420709,32.70124)" stroke-width=".3985" stroke-linecap="butt" stroke-miterlimit="10" stroke-linejoin="miter" fill="none" stroke="#ff0000" d="M19.48412-30.72124C9.98007-33.5376 4.34236-39.48001 2.49425-47.1815"/>
<path transform="matrix(-.233327,.9724083,.9723792,.23333399,40.915044,79.885578)" d="M1.99252 0-1.19551 1.59401 0 0-1.19551-1.59401" fill="#ff0000"/>
</svg>
