<svg xmlns="http://www.w3.org/2000/svg" xmlns:xlink="http://www.w3.org/1999/xlink" xmlns:inkscape="http://www.inkscape.org/namespaces/inkscape" version="1.1" width="97" height="60" viewBox="0 0 97 60">
<defs>
<path id="font_1_1" d="M.73599246 .6745453H.06298828L.041992189 .43370057H.08898926C.09799194 .54660037 .10798645 .62753298 .2519989 .62753298H.32899476V.04699707H.17599488V0C.22999573 .0029907227 .34098817 .0029907227 .3999939 .0029907227 .45899964 .0029907227 .56999209 .0029907227 .6239929 0V.04699707H.47099305V.62753298H.5469971C.6899872 .62753298 .69999697 .5476074 .70999148 .43370057H.7569885L.73599246 .6745453Z"/>
<path id="font_2_1" d="M.68699648 .32714845C.70199587 .32714845 .72099307 .32714845 .72099307 .34713746 .72099307 .36714173 .70199587 .36714173 .6879883 .36714173H.08898926C.07499695 .36714173 .055999757 .36714173 .055999757 .34713746 .055999757 .32714845 .07499695 .32714845 .08999634 .32714845H.68699648M.6879883 .13284302C.70199587 .13284302 .72099307 .13284302 .72099307 .15284729 .72099307 .17285156 .70199587 .17285156 .68699648 .17285156H.08999634C.07499695 .17285156 .055999757 .17285156 .055999757 .15284729 .055999757 .13284302 .07499695 .13284302 .08898926 .13284302H.6879883Z"/>
<path id="font_3_1" d="M.44400025 .24998474C.44400025 .35688783 .35499574 .44381715 .25 .44381715 .14199829 .44381715 .054992677 .35488893 .054992677 .24998474 .054992677 .14407349 .14199829 .056137086 .25 .056137086 .35499574 .056137086 .44400025 .14308167 .44400025 .24998474Z"/>
</defs>
<use data-text="T" xlink:href="#font_1_1" transform="matrix(9.9626,0,0,-9.963098,1.2170029,33.25001)"/>
<use data-text="=" xlink:href="#font_2_1" transform="matrix(9.9626,0,0,-9.963098,11.95401,33.25001)"/>
<use data-text="&#x2022;" xlink:href="#font_3_1" transform="matrix(9.9626,0,0,-9.963098,64.663,32.04595)"/>
<path transform="matrix(1,0,0,-1.00005,38.807,29.83184)" stroke-width=".3985" stroke-linecap="butt" stroke-miterlimit="10" stroke-linejoin="miter" fill="none" stroke="#000000" d="M0-28.3468V28.3468H56.69362V-28.3468ZM56.69362 28.3468"/>
<path transform="matrix(1,0,0,-1.00005,38.807,29.83184)" stroke-width=".3985" stroke-linecap="butt" stroke-miterlimit="10" stroke-linejoin="miter" fill="none" stroke="#ff0000" d="M34.08038 5.73375C59.37852 31.0312 59.37852-31.0312 36.24689-7.90018"/>
<path transform="matrix(-.7071,-.70711538,-.70708,.7071353,76.268848,38.947347)" d="M4.21463 0 .64343 1.34572 1.8178 0 .64343-1.34572Z" fill="#ff0000"/>
<path transform="matrix(-.7071,-.70711538,-.70708,.7071353,76.268848,38.947347)" stroke-width=".3985" stroke-linecap="butt" stroke-miterlimit="10" stroke-linejoin="miter" fill="none" stroke="#ff0000" d="M4.21463 0 .64343 1.34572 1.8178 0 .64343-1.34572Z"/>
<path transform="matrix(1,0,0,-1.00005,38.807,29.83184)" stroke-width=".3985" stroke-linecap="butt" stroke-miterlimit="10" stroke-linejoin="miter" fill="none" stroke="#0000ff" d="M22.61322 5.73375C-2.6849 31.0312-2.6849-31.0312 20.44672-7.90018"/>
<path transform="matrix(.7071,-.70711538,-.70708,-.7071353,58.03877,38.947347)" d="M4.21463 0 .64343 1.34572 1.8178 0 .64343-1.34572Z" fill="#0000ff"/>
<path transform="matrix(.7071,-.70711538,-.70708,-.7071353,58.03877,38.947347)" stroke-width=".3985" stroke-linecap="butt" stroke-miterlimit="10" stroke-linejoin="miter" fill="none" stroke="#0000ff" d="M4.21463 0 .64343 1.34572 1.8178 0 .64343-1.34572Z"/>
</svg>
