<svg xmlns="http://www.w3.org/2000/svg" xmlns:xlink="http://www.w3.org/1999/xlink" xmlns:inkscape="http://www.inkscape.org/namespaces/inkscape" version="1.1" width="98" height="162" viewBox="0 0 98 162">
<defs>
<path id="font_1_1" d="M.44400025 .24998474C.44400025 .35688783 .35499574 .44381715 .25 .44381715 .14199829 .44381715 .054992677 .35488893 .054992677 .24998474 .054992677 .14407349 .14199829 .056137086 .25 .056137086 .35499574 .056137086 .44400025 .14308167 .44400025 .24998474Z"/>
</defs>
<use data-text="&#x2022;" xlink:href="#font_1_1" transform="matrix(9.963197,0,0,-9.963197,4.146591,40.81909)"/>
<use data-text="&#x2022;" xlink:href="#font_1_1" transform="matrix(9.963197,0,0,-9.963197,89.192699,40.81909)"/>
<use data-text="&#x2022;" xlink:href="#font_1_1" transform="matrix(9.963197,0,0,-9.963197,4.146591,125.86419)"/>
<use data-text="&#x2022;" xlink:href="#font_1_1" transform="matrix(9.963197,0,0,-9.963197,89.192699,125.86419)"/>
<path transform="matrix(1.00006,0,0,-1.00006,6.637741,123.650058)" stroke-width=".3985" stroke-linecap="butt" stroke-miterlimit="10" stroke-linejoin="miter" fill="none" stroke="#000000" d="M-1.53627 90.77277C-12.54149 131.84415 12.54149 131.84415 2.30983 93.65968"/>
<path transform="matrix(-.25883553,.96596798,.96596798,.25883553,8.94771,29.984757)" d="M1.99252 0-1.19551 1.59401 0 0-1.19551-1.59401"/>
<path transform="matrix(1.00006,0,0,-1.00006,6.637741,123.650058)" stroke-width=".3985" stroke-linecap="butt" stroke-miterlimit="10" stroke-linejoin="miter" fill="none" stroke="#000000" d="M0 79.30544V7.72618"/>
<path transform="matrix(0,1.00006,1.00006,0,6.637741,115.92341)" d="M1.99252 0-1.19551 1.59401 0 0-1.19551-1.59401"/>
<path transform="matrix(1.00006,0,0,-1.00006,6.637741,123.650058)" stroke-width=".3985" stroke-linecap="butt" stroke-miterlimit="10" stroke-linejoin="miter" fill="none" stroke="#000000" d="M5.73198 79.30544 77.90233 7.14249"/>
<path transform="matrix(.7071824,.70710238,.70710238,-.7071824,84.54472,116.507129)" d="M1.99252 0-1.19551 1.59401 0 0-1.19551-1.59401"/>
<path transform="matrix(1.00006,0,0,-1.00006,6.637741,123.650058)" stroke-width=".3985" stroke-linecap="butt" stroke-miterlimit="10" stroke-linejoin="miter" fill="none" stroke="#000000" d="M79.02869 85.039H8.00291"/>
<path transform="matrix(-1.00006,-0,0,1.00006,14.64113,38.605958)" d="M1.99252 0-1.19551 1.59401 0 0-1.19551-1.59401"/>
<path transform="matrix(1.00006,0,0,-1.00006,6.637741,123.650058)" stroke-width=".3985" stroke-linecap="butt" stroke-miterlimit="10" stroke-linejoin="miter" fill="none" stroke="#000000" d="M83.50264 90.77277C72.4976 131.84415 97.5806 131.84415 87.3488 93.65968"/>
<path transform="matrix(-.25883553,.96596798,.96596798,.25883553,93.99178,29.984757)" d="M1.99252 0-1.19551 1.59401 0 0-1.19551-1.59401"/>
<path transform="matrix(1.00006,0,0,-1.00006,6.637741,123.650058)" stroke-width=".3985" stroke-linecap="butt" stroke-miterlimit="10" stroke-linejoin="miter" fill="none" stroke="#000000" d="M79.30702 79.30544 7.13667 7.14249"/>
<path transform="matrix(-.7071824,.70710238,.70710238,.7071824,13.774858,116.507129)" d="M1.99252 0-1.19551 1.59401 0 0-1.19551-1.59401"/>
<path transform="matrix(1.00006,0,0,-1.00006,6.637741,123.650058)" stroke-width=".3985" stroke-linecap="butt" stroke-miterlimit="10" stroke-linejoin="miter" fill="none" stroke="#000000" d="M85.039 79.30544V7.72618"/>
<path transform="matrix(0,1.00006,1.00006,0,91.68184,115.92341)" d="M1.99252 0-1.19551 1.59401 0 0-1.19551-1.59401"/>
<path transform="matrix(1.00006,0,0,-1.00006,6.637741,123.650058)" stroke-width=".3985" stroke-linecap="butt" stroke-miterlimit="10" stroke-linejoin="miter" fill="none" stroke="#000000" d="M0 5.73366V77.31291"/>
<path transform="matrix(0,-1.00006,-1.00006,-0,6.637741,46.332506)" d="M1.99252 0-1.19551 1.59401 0 0-1.19551-1.59401"/>
<path transform="matrix(1.00006,0,0,-1.00006,6.637741,123.650058)" stroke-width=".3985" stroke-linecap="butt" stroke-miterlimit="10" stroke-linejoin="miter" fill="none" stroke="#000000" d="M5.73198 5.73366 77.90233 77.8966"/>
<path transform="matrix(.7071824,-.70710238,-.70710238,-.7071824,84.54472,45.748796)" d="M1.99252 0-1.19551 1.59401 0 0-1.19551-1.59401"/>
<path transform="matrix(1.00006,0,0,-1.00006,6.637741,123.650058)" stroke-width=".3985" stroke-linecap="butt" stroke-miterlimit="10" stroke-linejoin="miter" fill="none" stroke="#000000" d="M1.53523-5.73366C12.54149-46.80504-12.54149-46.80504-2.30878-8.62057"/>
<path transform="matrix(.25883553,-.96596798,-.96596798,-.25883553,4.3288228,132.27115)" d="M1.99252 0-1.19551 1.59401 0 0-1.19551-1.59401"/>
<path transform="matrix(1.00006,0,0,-1.00006,6.637741,123.650058)" stroke-width=".3985" stroke-linecap="butt" stroke-miterlimit="10" stroke-linejoin="miter" fill="none" stroke="#000000" d="M79.30702 5.73366 7.13667 77.8966"/>
<path transform="matrix(-.7071824,-.70710238,-.70710238,.7071824,13.774858,45.748796)" d="M1.99252 0-1.19551 1.59401 0 0-1.19551-1.59401"/>
<path transform="matrix(1.00006,0,0,-1.00006,6.637741,123.650058)" stroke-width=".3985" stroke-linecap="butt" stroke-miterlimit="10" stroke-linejoin="miter" fill="none" stroke="#000000" d="M86.57419-5.73366C97.5806-46.80504 72.4976-46.80504 82.73013-8.62057"/>
<path transform="matrix(.25883553,-.96596798,-.96596798,-.25883553,89.37283,132.27115)" d="M1.99252 0-1.19551 1.59401 0 0-1.19551-1.59401"/>
<path transform="matrix(1.00006,0,0,-1.00006,6.637741,123.650058)" stroke-width=".3985" stroke-linecap="butt" stroke-miterlimit="10" stroke-linejoin="miter" fill="none" stroke="#000000" d="M79.02869 0H8.00291"/>
<path transform="matrix(-1.00006,-0,0,1.00006,14.64113,123.650058)" d="M1.99252 0-1.19551 1.59401 0 0-1.19551-1.59401"/>
<path transform="matrix(1.00006,0,0,-1.00006,6.637741,123.650058)" stroke-width=".3985" stroke-linecap="butt" stroke-miterlimit="10" stroke-linejoin="miter" fill="none" stroke="#000000" d="M85.039 5.73366V77.31291"/>
<path transform="matrix(0,-1.00006,-1.00006,-0,91.68184,46.332506)" d="M1.99252 0-1.19551 1.59401 0 0-1.19551-1.59401"/>
</svg>
