<svg xmlns="http://www.w3.org/2000/svg" xmlns:xlink="http://www.w3.org/1999/xlink" xmlns:inkscape="http://www.inkscape.org/namespaces/inkscape" version="1.1" width="301" height="329" viewBox="0 0 301 329">
<defs>
<path id="font_1_1" d="M.37298585 .37835694C.35499574 .41537477 .32598878 .4423828 .2809906 .4423828 .1639862 .4423828 .039993287 .29533387 .039993287 .14929199 .039993287 .055267335 .09498596-.0107421879 .17298889-.0107421879 .19299317-.0107421879 .24299622-.0067443849 .30299378 .06427002 .31098939 .022247315 .34599305-.0107421879 .3939972-.0107421879 .42900086-.0107421879 .45199586 .012252808 .46798707 .044265748 .4850006 .08027649 .49798585 .14129639 .49798585 .14329529 .49798585 .1532898 .4889984 .1532898 .48599244 .1532898 .47599793 .1532898 .47499085 .14929199 .47200013 .13528443 .45498658 .07026672 .43699647 .011245728 .3959961 .011245728 .36898805 .011245728 .3659973 .037261964 .3659973 .057266237 .3659973 .07926941 .36799623 .08728027 .3789978 .13128662 .3899994 .17329407 .3919983 .18330384 .40098573 .22131348L.43699647 .36135865C.44400025 .38935853 .44400025 .39135743 .44400025 .39537049 .44400025 .41236878 .43199159 .42237855 .4149933 .42237855 .3909912 .42237855 .37599183 .4003601 .37298585 .37835694M.30799867 .119277957C.30299378 .10127258 .30299378 .09927368 .28799439 .08227539 .24398804 .027252198 .20298767 .011245728 .1749878 .011245728 .125 .011245728 .11099243 .06626892 .11099243 .105285648 .11099243 .1552887 .14299011 .27833558 .1659851 .32434083 .19699097 .38336183 .24198914 .42037965 .28199769 .42037965 .34700013 .42037965 .36099244 .3383484 .36099244 .33235169 .36099244 .32633973 .35899354 .32034303 .35798646 .31533814L.30799867 .119277957Z"/>
<path id="font_1_2" d="M.23899842 .68333438C.23899842 .6843262 .23899842 .69433596 .22599793 .69433596 .20298767 .69433596 .12998963 .6863251 .10398865 .6843262 .09599304 .68333438 .084991458 .6823273 .084991458 .6643219 .084991458 .6523285 .09399414 .6523285 .10899353 .6523285 .15699768 .6523285 .15899658 .6453247 .15899658 .6353302 .15899658 .6283264 .1499939 .5943451 .14498902 .573349L.06298828 .24731446C.050994874 .1973114 .04699707 .18130493 .04699707 .14628601 .04699707 .05126953 .099990848-.0107421879 .17399597-.0107421879 .2919922-.0107421879 .4149933 .1382904 .4149933 .28233338 .4149933 .37335206 .3619995 .4423828 .28199769 .4423828 .23599243 .4423828 .19499207 .41337586 .16499329 .38235475L.23899842 .68333438M.14498902 .30534364C.15098572 .3273468 .15098572 .3293457 .1599884 .3403473 .20899964 .405365 .2539978 .42037965 .27999879 .42037965 .31599427 .42037965 .34298707 .3903656 .34298707 .32633973 .34298707 .26733399 .30999757 .15229798 .2919922 .11428833 .25898744 .04725647 .21299744 .011245728 .17399597 .011245728 .13999939 .011245728 .10699463 .038253786 .10699463 .11227417 .10699463 .13128662 .10699463 .15029907 .12298584 .21331787L.14498902 .30534364Z"/>
<path id="font_1_3" d="M.3959961 .37998963C.37998963 .37998963 .3659973 .37998963 .35198976 .36598207 .33599855 .35098268 .33399964 .33398438 .33399964 .3269806 .33399964 .30297853 .35198976 .2919922 .37098695 .2919922 .3999939 .2919922 .4269867 .315979 .4269867 .35598756 .4269867 .40522767 .37998963 .4423828 .30899049 .4423828 .17399597 .4423828 .040985109 .2989807 .040985109 .15811157 .040985109 .06819153 .09899902-.0107421879 .20298767-.0107421879 .34599305-.0107421879 .42999269 .09516907 .42999269 .107162479 .42999269 .11315918 .42399598 .120147708 .41799928 .120147708 .41299439 .120147708 .41099549 .1181488 .40499879 .1101532 .32598878 .011245728 .21699524 .011245728 .20498657 .011245728 .14199829 .011245728 .114990238 .06021118 .114990238 .120147708 .114990238 .1611023 .1349945 .25801087 .16899109 .31999208 .19999695 .37698365 .25498963 .42037965 .30999757 .42037965 .34399415 .42037965 .38198854 .40724183 .3959961 .37998963Z"/>
<path id="font_2_1" d="M.45999146 .31976319C.45999146 .39982606 .45498658 .47988893 .41999818 .5539398 .37399293 .65000918 .2919922 .6660156 .25 .6660156 .18998719 .6660156 .116989139 .64001467 .07598877 .54693606 .04399109 .47789 .038986207 .39982606 .038986207 .31976319 .038986207 .24472046 .042999269 .15464783 .083999637 .07859802 .1269989-.0024719239 .19999695-.022460938 .24899292-.022460938 .30299378-.022460938 .3789978-.0014648438 .4229889 .09359741 .45498658 .16265869 .45999146 .2407074 .45999146 .31976319M.24899292-.00047302247C.20999146-.00047302247 .15098572 .024551392 .1329956 .12062073 .12199402 .18066406 .12199402 .2727356 .12199402 .3317871 .12199402 .39582826 .12199402 .46188355 .12998963 .5159149 .14898682 .63500979 .22399903 .64401248 .24899292 .64401248 .28199769 .64401248 .34799195 .6259918 .36698915 .52693179 .3769989 .47088624 .3769989 .39482118 .3769989 .3317871 .3769989 .25672914 .3769989 .18867493 .3659973 .12461853 .35099793 .029556275 .2939911-.00047302247 .24899292-.00047302247Z"/>
<path id="font_2_2" d="M.2939911 .64004519C.2939911 .66400149 .2939911 .6660156 .2709961 .6660156 .20899964 .60227969 .12098694 .60227969 .08898926 .60227969V.57128909C.10899353 .57128909 .16799927 .57128909 .21998596 .5972748V.07902527C.21998596 .042999269 .21699524 .0309906 .1269989 .0309906H.09498596V0C.12998963 .0029907227 .21699524 .0029907227 .25698854 .0029907227 .29699708 .0029907227 .38398744 .0029907227 .4189911 0V.0309906H.3869934C.29699708 .0309906 .2939911 .041992189 .2939911 .07902527V.64004519Z"/>
<path id="font_1_4" d="M.36698915 .3996582H.45298768C.47299195 .3996582 .48298646 .3996582 .48298646 .41966249 .48298646 .43066407 .47299195 .43066407 .45599366 .43066407H.37298585L.3939972 .5449524C.397995 .5660095 .4119873 .6370239 .41799928 .6490326 .4269867 .66804507 .44400025 .68307498 .46499635 .68307498 .46899415 .68307498 .49499513 .68307498 .5139923 .66503909 .46998597 .661026 .45999146 .6260376 .45999146 .6110382 .45999146 .58802798 .47799684 .57603457 .49699403 .57603457 .522995 .57603457 .5519867 .5980377 .5519867 .6360321 .5519867 .6820679 .5059967 .7050781 .46499635 .7050781 .43099977 .7050781 .36799623 .68707278 .33799745 .58802798 .33198548 .56700137 .32899476 .5569763 .30499269 .43066407H.23599243C.21699524 .43066407 .20599365 .43066407 .20599365 .4116516 .20599365 .3996582 .21499634 .3996582 .23399353 .3996582H.2999878L.22499085 .0048828127C.20698548-.09207153 .18998719-.18309021 .13798523-.18309021 .13398743-.18309021 .10899353-.18309021 .08999634-.16506958 .13598633-.1620636 .14498902-.12606812 .14498902-.111068729 .14498902-.08807373 .1269989-.07606506 .10798645-.07606506 .08198547-.07606506 .052993776-.09806824 .052993776-.13606262 .052993776-.18109131 .09700012-.20507813 .13798523-.20507813 .19299317-.20507813 .23298645-.14607239 .25099183-.108062747 .2829895-.04508972 .30599977 .07583618 .30699159 .082839969L.36698915 .3996582Z"/>
<path id="font_3_1" d="M.20599365 .11984253C.17098999 .06594849 .13899231 .039978029 .07998657 .035995485 .069992069 .034988405 .056991579 .034988405 .056991579 .01499939 .056991579 .0039978029 .06599426 0 .070999149 0 .09700012 0 .12998963 .0039978029 .15699768 .0039978029 .18899536 .0039978029 .22999573 0 .2599945 0 .2649994 0 .27999879 0 .27999879 .021987915 .27999879 .034988405 .2669983 .035995485 .2630005 .035995485 .25498963 .036987306 .21899414 .038986207 .21899414 .06594849 .21899414 .077926639 .22898865 .09489441 .23399353 .103881839L.31399537 .22766114H.59999087L.6239929 .061950685C.6199951 .051971437 .6139984 .035995485 .5549927 .035995485 .54299929 .035995485 .5289917 .035995485 .5289917 .01399231 .5289917 .009994507 .5319977 0 .54499819 0 .57398989 0 .644989 .0039978029 .673996 .0039978029 .69200137 .0039978029 .71499636 .0029907227 .73298647 .0029907227 .7509918 .0019989014 .7719879 0 .7899933 0 .8029938 0 .80999758 .0079956059 .80999758 .020996094 .80999758 .035995485 .7979889 .035995485 .7819977 .035995485 .723999 .035995485 .7220001 .04397583 .71899417 .06793213L.6309967 .6848755C.6279907 .70588687 .6259918 .7128906 .6069946 .7128906 .58799746 .7128906 .58200076 .70388796 .57299807 .6898804L.20599365 .11984253M.33799745 .26367188 .5479889 .5908356 .59498599 .26367188H.33799745Z"/>
<path id="font_3_2" d="M.18899536 .07797241C.18099976 .04399109 .1789856 .035995485 .100997928 .035995485 .08299255 .035995485 .070999149 .035995485 .070999149 .01399231 .070999149 0 .08299255 0 .100997928 0H.45799256C.6799927 0 .8929901 .20388794 .8929901 .42175294 .8929901 .5676575 .7919922 .6826172 .6289978 .6826172H.2649994C.24499512 .6826172 .23298645 .6826172 .23298645 .660614 .23298645 .64660647 .24398804 .64660647 .2659912 .64660647 .28199769 .64660647 .28599549 .64660647 .3039856 .64460757 .32398988 .64260867 .32598878 .64060977 .32598878 .63061526 .32598878 .62861636 .32598878 .6236267 .32199098 .6086426L.18899536 .07797241M.41299439 .6126251C.42099 .6436157 .42199708 .64660647 .46398927 .64660647H.59199526C.70399478 .64660647 .7979889 .59065249 .7979889 .45472718 .7979889 .43174745 .7879944 .2588501 .6879883 .14492798 .6489868 .09994507 .5629883 .035995485 .43998719 .035995485H.3039856C.272995 .035995485 .27198792 .036987306 .27198792 .04598999 .27198792 .04698181 .27198792 .051986696 .27598573 .066970828L.41299439 .6126251Z"/>
</defs>
<path transform="matrix(1,0,0,-1.00003,37.529,108.10177)" stroke-width=".3985" stroke-linecap="butt" stroke-miterlimit="10" stroke-linejoin="miter" fill="none" stroke="#000000" d="M92.12714 42.5202C92.12714 77.74556 63.57216 106.30054 28.3468 106.30054-6.87854 106.30054-35.43352 77.74556-35.43352 42.5202-35.43352 7.29485-6.87854-21.26013 28.3468-21.26013 63.57216-21.26013 92.12714 7.29485 92.12714 42.5202ZM28.3468 42.5202"/>
<path transform="matrix(1,0,0,-1.00003,37.529,108.10177)" d="M29.84116 70.867C29.84116 71.69232 29.17212 72.36136 28.3468 72.36136 27.52148 72.36136 26.85245 71.69232 26.85245 70.867 26.85245 70.04169 27.52148 69.37265 28.3468 69.37265 29.17212 69.37265 29.84116 70.04169 29.84116 70.867ZM28.3468 70.867"/>
<path transform="matrix(1,0,0,-1.00003,37.529,108.10177)" stroke-width=".3985" stroke-linecap="butt" stroke-miterlimit="10" stroke-linejoin="miter" fill="none" stroke="#000000" d="M29.84116 70.867C29.84116 71.69232 29.17212 72.36136 28.3468 72.36136 27.52148 72.36136 26.85245 71.69232 26.85245 70.867 26.85245 70.04169 27.52148 69.37265 28.3468 69.37265 29.17212 69.37265 29.84116 70.04169 29.84116 70.867ZM28.3468 70.867"/>
<use data-text="a" xlink:href="#font_1_1" transform="matrix(9.9626,0,0,-9.962899,69.395999,39.3777)"/>
<path transform="matrix(1,0,0,-1.00003,37.529,108.10177)" d="M29.84116 42.5202C29.84116 43.34552 29.17212 44.01456 28.3468 44.01456 27.52148 44.01456 26.85245 43.34552 26.85245 42.5202 26.85245 41.69489 27.52148 41.02585 28.3468 41.02585 29.17212 41.02585 29.84116 41.69489 29.84116 42.5202ZM28.3468 42.5202"/>
<path transform="matrix(1,0,0,-1.00003,37.529,108.10177)" stroke-width=".3985" stroke-linecap="butt" stroke-miterlimit="10" stroke-linejoin="miter" fill="none" stroke="#000000" d="M29.84116 42.5202C29.84116 43.34552 29.17212 44.01456 28.3468 44.01456 27.52148 44.01456 26.85245 43.34552 26.85245 42.5202 26.85245 41.69489 27.52148 41.02585 28.3468 41.02585 29.17212 41.02585 29.84116 41.69489 29.84116 42.5202ZM28.3468 42.5202"/>
<use data-text="b" xlink:href="#font_1_2" transform="matrix(9.9626,0,0,-9.962899,69.395999,69.0396)"/>
<path transform="matrix(1,0,0,-1.00003,37.529,108.10177)" d="M29.84116 14.17339C29.84116 14.9987 29.17212 15.66774 28.3468 15.66774 27.52148 15.66774 26.85245 14.9987 26.85245 14.17339 26.85245 13.34807 27.52148 12.67903 28.3468 12.67903 29.17212 12.67903 29.84116 13.34807 29.84116 14.17339ZM28.3468 14.17339"/>
<path transform="matrix(1,0,0,-1.00003,37.529,108.10177)" stroke-width=".3985" stroke-linecap="butt" stroke-miterlimit="10" stroke-linejoin="miter" fill="none" stroke="#000000" d="M29.84116 14.17339C29.84116 14.9987 29.17212 15.66774 28.3468 15.66774 27.52148 15.66774 26.85245 14.9987 26.85245 14.17339 26.85245 13.34807 27.52148 12.67903 28.3468 12.67903 29.17212 12.67903 29.84116 13.34807 29.84116 14.17339ZM28.3468 14.17339"/>
<use data-text="c" xlink:href="#font_1_3" transform="matrix(9.9626,0,0,-9.962899,69.395999,96.0724)"/>
<path transform="matrix(1,0,0,-1.00003,37.529,108.10177)" stroke-width=".3985" stroke-linecap="butt" stroke-miterlimit="10" stroke-linejoin="miter" fill="none" stroke="#000000" d="M28.3468 70.867C28.3468 85.0404 14.1734 70.867 24.2866 70.867"/>
<path transform="matrix(1,0,0,-1.00003,60.09742,37.232645)" d="M4.21463 0 .64343 1.34572 1.8178 0 .64343-1.34572Z"/>
<path transform="matrix(1,0,0,-1.00003,60.09742,37.232645)" stroke-width=".3985" stroke-linecap="butt" stroke-miterlimit="10" stroke-linejoin="miter" fill="none" stroke="#000000" d="M4.21463 0 .64343 1.34572 1.8178 0 .64343-1.34572Z"/>
<path transform="matrix(1,0,0,-1.00003,37.529,108.10177)" stroke-width=".3985" stroke-linecap="butt" stroke-miterlimit="10" stroke-linejoin="miter" fill="none" stroke="#000000" d="M28.3468 42.5202C22.81964 32.94682 22.81964 23.74677 26.8149 16.82677"/>
<path transform="matrix(.49998,.866036,.86601,-.49999503,63.48484,89.78648)" d="M4.21463 0 .64343 1.34572 1.8178 0 .64343-1.34572Z"/>
<path transform="matrix(.49998,.866036,.86601,-.49999503,63.48484,89.78648)" stroke-width=".3985" stroke-linecap="butt" stroke-miterlimit="10" stroke-linejoin="miter" fill="none" stroke="#000000" d="M4.21463 0 .64343 1.34572 1.8178 0 .64343-1.34572Z"/>
<path transform="matrix(1,0,0,-1.00003,37.529,108.10177)" stroke-width=".3985" stroke-linecap="butt" stroke-miterlimit="10" stroke-linejoin="miter" fill="none" stroke="#000000" d="M28.3468 14.17339C33.87396 23.74677 33.87396 32.94682 29.87871 39.86682"/>
<path transform="matrix(-.49998,-.866036,-.86601,.49999503,68.26676,69.72177)" d="M4.21463 0 .64343 1.34572 1.8178 0 .64343-1.34572Z"/>
<path transform="matrix(-.49998,-.866036,-.86601,.49999503,68.26676,69.72177)" stroke-width=".3985" stroke-linecap="butt" stroke-miterlimit="10" stroke-linejoin="miter" fill="none" stroke="#000000" d="M4.21463 0 .64343 1.34572 1.8178 0 .64343-1.34572Z"/>
<path transform="matrix(1,0,0,-1.00003,37.529,108.10177)" stroke-width=".3985" stroke-linecap="butt" stroke-miterlimit="10" stroke-linejoin="miter" fill="none" stroke="#000000" d="M262.208 42.5202C262.208 77.74556 233.65302 106.30054 198.42766 106.30054 163.2023 106.30054 134.64733 77.74556 134.64733 42.5202 134.64733 7.29485 163.2023-21.26013 198.42766-21.26013 233.65302-21.26013 262.208 7.29485 262.208 42.5202ZM198.42766 42.5202"/>
<path transform="matrix(1,0,0,-1.00003,37.529,108.10177)" d="M199.92201 56.69362C199.92201 57.51892 199.25298 58.18797 198.42766 58.18797 197.60234 58.18797 196.9333 57.51892 196.9333 56.69362 196.9333 55.8683 197.60234 55.19926 198.42766 55.19926 199.25298 55.19926 199.92201 55.8683 199.92201 56.69362ZM198.42766 56.69362"/>
<path transform="matrix(1,0,0,-1.00003,37.529,108.10177)" stroke-width=".3985" stroke-linecap="butt" stroke-miterlimit="10" stroke-linejoin="miter" fill="none" stroke="#000000" d="M199.92201 56.69362C199.92201 57.51892 199.25298 58.18797 198.42766 58.18797 197.60234 58.18797 196.9333 57.51892 196.9333 56.69362 196.9333 55.8683 197.60234 55.19926 198.42766 55.19926 199.25298 55.19926 199.92201 55.8683 199.92201 56.69362ZM198.42766 56.69362"/>
<use data-text="0" xlink:href="#font_2_1" transform="matrix(9.9626,0,0,-9.962899,239.47602,54.61716)"/>
<path transform="matrix(1,0,0,-1.00003,37.529,108.10177)" d="M199.92201 28.3468C199.92201 29.17212 199.25298 29.84116 198.42766 29.84116 197.60234 29.84116 196.9333 29.17212 196.9333 28.3468 196.9333 27.52148 197.60234 26.85245 198.42766 26.85245 199.25298 26.85245 199.92201 27.52148 199.92201 28.3468ZM198.42766 28.3468"/>
<path transform="matrix(1,0,0,-1.00003,37.529,108.10177)" stroke-width=".3985" stroke-linecap="butt" stroke-miterlimit="10" stroke-linejoin="miter" fill="none" stroke="#000000" d="M199.92201 28.3468C199.92201 29.17212 199.25298 29.84116 198.42766 29.84116 197.60234 29.84116 196.9333 29.17212 196.9333 28.3468 196.9333 27.52148 197.60234 26.85245 198.42766 26.85245 199.25298 26.85245 199.92201 27.52148 199.92201 28.3468ZM198.42766 28.3468"/>
<use data-text="1" xlink:href="#font_2_2" transform="matrix(9.9626,0,0,-9.962899,239.47602,82.96401)"/>
<path transform="matrix(1,0,0,-1.00003,37.529,108.10177)" stroke-width=".3985" stroke-linecap="butt" stroke-miterlimit="10" stroke-linejoin="miter" fill="none" stroke="#000000" d="M198.42766 56.69362C192.9005 47.12024 192.9005 37.92017 196.89575 31.00018"/>
<path transform="matrix(.49998,.866036,.86601,-.49999503,233.5657,75.61263)" d="M4.21463 0 .64343 1.34572 1.8178 0 .64343-1.34572Z"/>
<path transform="matrix(.49998,.866036,.86601,-.49999503,233.5657,75.61263)" stroke-width=".3985" stroke-linecap="butt" stroke-miterlimit="10" stroke-linejoin="miter" fill="none" stroke="#000000" d="M4.21463 0 .64343 1.34572 1.8178 0 .64343-1.34572Z"/>
<path transform="matrix(1,0,0,-1.00003,37.529,108.10177)" stroke-width=".3985" stroke-linecap="butt" stroke-miterlimit="10" stroke-linejoin="miter" fill="none" stroke="#000000" d="M198.42766 28.3468C203.95484 37.92017 203.95484 47.12024 199.95957 54.04022"/>
<path transform="matrix(-.49998,-.866036,-.86601,.49999503,238.34763,55.547929)" d="M4.21463 0 .64343 1.34572 1.8178 0 .64343-1.34572Z"/>
<path transform="matrix(-.49998,-.866036,-.86601,.49999503,238.34763,55.547929)" stroke-width=".3985" stroke-linecap="butt" stroke-miterlimit="10" stroke-linejoin="miter" fill="none" stroke="#000000" d="M4.21463 0 .64343 1.34572 1.8178 0 .64343-1.34572Z"/>
<path transform="matrix(1,0,0,-1.00003,37.529,108.10177)" stroke-width=".3985" stroke-linecap="butt" stroke-miterlimit="10" stroke-linejoin="miter" fill="none" stroke="#000000" d="M92.12714-155.90744C92.12714-120.68208 63.57216-92.12709 28.3468-92.12709-6.87854-92.12709-35.43352-120.68208-35.43352-155.90744-35.43352-191.1328-6.87854-219.68778 28.3468-219.68778 63.57216-219.68778 92.12714-191.1328 92.12714-155.90744ZM28.3468-155.90744"/>
<path transform="matrix(1,0,0,-1.00003,37.529,108.10177)" d="M29.84116-127.56062C29.84116-126.73532 29.17212-126.06627 28.3468-126.06627 27.52148-126.06627 26.85245-126.73532 26.85245-127.56062 26.85245-128.38594 27.52148-129.05498 28.3468-129.05498 29.17212-129.05498 29.84116-128.38594 29.84116-127.56062ZM28.3468-127.56062"/>
<path transform="matrix(1,0,0,-1.00003,37.529,108.10177)" stroke-width=".3985" stroke-linecap="butt" stroke-miterlimit="10" stroke-linejoin="miter" fill="none" stroke="#000000" d="M29.84116-127.56062C29.84116-126.73532 29.17212-126.06627 28.3468-126.06627 27.52148-126.06627 26.85245-126.73532 26.85245-127.56062 26.85245-128.38594 27.52148-129.05498 28.3468-129.05498 29.17212-129.05498 29.84116-128.38594 29.84116-127.56062ZM28.3468-127.56062"/>
<use data-text="a" xlink:href="#font_1_1" transform="matrix(9.9626,0,0,-9.962899,69.395999,237.81067)"/>
<path transform="matrix(1,0,0,-1.00003,37.529,108.10177)" d="M29.84116-155.90744C29.84116-155.08213 29.17212-154.41309 28.3468-154.41309 27.52148-154.41309 26.85245-155.08213 26.85245-155.90744 26.85245-156.73276 27.52148-157.4018 28.3468-157.4018 29.17212-157.4018 29.84116-156.73276 29.84116-155.90744ZM28.3468-155.90744"/>
<path transform="matrix(1,0,0,-1.00003,37.529,108.10177)" stroke-width=".3985" stroke-linecap="butt" stroke-miterlimit="10" stroke-linejoin="miter" fill="none" stroke="#000000" d="M29.84116-155.90744C29.84116-155.08213 29.17212-154.41309 28.3468-154.41309 27.52148-154.41309 26.85245-155.08213 26.85245-155.90744 26.85245-156.73276 27.52148-157.4018 28.3468-157.4018 29.17212-157.4018 29.84116-156.73276 29.84116-155.90744ZM28.3468-155.90744"/>
<use data-text="b" xlink:href="#font_1_2" transform="matrix(9.9626,0,0,-9.962899,69.395999,267.47358)"/>
<path transform="matrix(1,0,0,-1.00003,37.529,108.10177)" d="M29.84116-184.25424C29.84116-183.42894 29.17212-182.75989 28.3468-182.75989 27.52148-182.75989 26.85245-183.42894 26.85245-184.25424 26.85245-185.07956 27.52148-185.7486 28.3468-185.7486 29.17212-185.7486 29.84116-185.07956 29.84116-184.25424ZM28.3468-184.25424"/>
<path transform="matrix(1,0,0,-1.00003,37.529,108.10177)" stroke-width=".3985" stroke-linecap="butt" stroke-miterlimit="10" stroke-linejoin="miter" fill="none" stroke="#000000" d="M29.84116-184.25424C29.84116-183.42894 29.17212-182.75989 28.3468-182.75989 27.52148-182.75989 26.85245-183.42894 26.85245-184.25424 26.85245-185.07956 27.52148-185.7486 28.3468-185.7486 29.17212-185.7486 29.84116-185.07956 29.84116-184.25424ZM28.3468-184.25424"/>
<use data-text="c" xlink:href="#font_1_3" transform="matrix(9.9626,0,0,-9.962899,69.395999,294.50639)"/>
<path transform="matrix(1,0,0,-1.00003,37.529,108.10177)" stroke-width=".3985" stroke-linecap="butt" stroke-miterlimit="10" stroke-linejoin="miter" fill="none" stroke="#000000" d="M28.3468-127.56062C28.3468-113.38724 14.1734-127.56062 24.2866-127.56062"/>
<path transform="matrix(1,0,0,-1.00003,60.09742,235.66623)" d="M4.21463 0 .64343 1.34572 1.8178 0 .64343-1.34572Z"/>
<path transform="matrix(1,0,0,-1.00003,60.09742,235.66623)" stroke-width=".3985" stroke-linecap="butt" stroke-miterlimit="10" stroke-linejoin="miter" fill="none" stroke="#000000" d="M4.21463 0 .64343 1.34572 1.8178 0 .64343-1.34572Z"/>
<path transform="matrix(1,0,0,-1.00003,37.529,108.10177)" stroke-width=".3985" stroke-linecap="butt" stroke-miterlimit="10" stroke-linejoin="miter" fill="none" stroke="#000000" d="M28.3468-155.90744C22.81964-165.4808 22.81964-174.68088 26.8149-181.60086"/>
<path transform="matrix(.49998,.866036,.86601,-.49999503,63.48484,288.2201)" d="M4.21463 0 .64343 1.34572 1.8178 0 .64343-1.34572Z"/>
<path transform="matrix(.49998,.866036,.86601,-.49999503,63.48484,288.2201)" stroke-width=".3985" stroke-linecap="butt" stroke-miterlimit="10" stroke-linejoin="miter" fill="none" stroke="#000000" d="M4.21463 0 .64343 1.34572 1.8178 0 .64343-1.34572Z"/>
<path transform="matrix(1,0,0,-1.00003,37.529,108.10177)" stroke-width=".3985" stroke-linecap="butt" stroke-miterlimit="10" stroke-linejoin="miter" fill="none" stroke="#000000" d="M28.3468-184.25424C33.87396-174.68088 33.87396-165.4808 29.87871-158.56082"/>
<path transform="matrix(-.49998,-.866036,-.86601,.49999503,68.26676,268.15538)" d="M4.21463 0 .64343 1.34572 1.8178 0 .64343-1.34572Z"/>
<path transform="matrix(-.49998,-.866036,-.86601,.49999503,68.26676,268.15538)" stroke-width=".3985" stroke-linecap="butt" stroke-miterlimit="10" stroke-linejoin="miter" fill="none" stroke="#000000" d="M4.21463 0 .64343 1.34572 1.8178 0 .64343-1.34572Z"/>
<path transform="matrix(1,0,0,-1.00003,37.529,108.10177)" stroke-width=".3985" stroke-linecap="butt" stroke-miterlimit="10" stroke-linejoin="miter" fill="none" stroke="#000000" d="M262.208-155.90744C262.208-120.68208 233.65302-92.12709 198.42766-92.12709 163.2023-92.12709 134.64733-120.68208 134.64733-155.90744 134.64733-191.1328 163.2023-219.68778 198.42766-219.68778 233.65302-219.68778 262.208-191.1328 262.208-155.90744ZM198.42766-155.90744"/>
<path transform="matrix(1,0,0,-1.00003,37.529,108.10177)" d="M199.92201-141.73404C199.92201-140.90872 199.25298-140.23969 198.42766-140.23969 197.60234-140.23969 196.9333-140.90872 196.9333-141.73404 196.9333-142.55936 197.60234-143.2284 198.42766-143.2284 199.25298-143.2284 199.92201-142.55936 199.92201-141.73404ZM198.42766-141.73404"/>
<path transform="matrix(1,0,0,-1.00003,37.529,108.10177)" stroke-width=".3985" stroke-linecap="butt" stroke-miterlimit="10" stroke-linejoin="miter" fill="none" stroke="#000000" d="M199.92201-141.73404C199.92201-140.90872 199.25298-140.23969 198.42766-140.23969 197.60234-140.23969 196.9333-140.90872 196.9333-141.73404 196.9333-142.55936 197.60234-143.2284 198.42766-143.2284 199.25298-143.2284 199.92201-142.55936 199.92201-141.73404ZM198.42766-141.73404"/>
<use data-text="0" xlink:href="#font_2_1" transform="matrix(9.9626,0,0,-9.962899,239.47602,253.05011)"/>
<path transform="matrix(1,0,0,-1.00003,37.529,108.10177)" d="M199.92201-170.08086C199.92201-169.25554 199.25298-168.5865 198.42766-168.5865 197.60234-168.5865 196.9333-169.25554 196.9333-170.08086 196.9333-170.90618 197.60234-171.57521 198.42766-171.57521 199.25298-171.57521 199.92201-170.90618 199.92201-170.08086ZM198.42766-170.08086"/>
<path transform="matrix(1,0,0,-1.00003,37.529,108.10177)" stroke-width=".3985" stroke-linecap="butt" stroke-miterlimit="10" stroke-linejoin="miter" fill="none" stroke="#000000" d="M199.92201-170.08086C199.92201-169.25554 199.25298-168.5865 198.42766-168.5865 197.60234-168.5865 196.9333-169.25554 196.9333-170.08086 196.9333-170.90618 197.60234-171.57521 198.42766-171.57521 199.25298-171.57521 199.92201-170.90618 199.92201-170.08086ZM198.42766-170.08086"/>
<use data-text="1" xlink:href="#font_2_2" transform="matrix(9.9626,0,0,-9.962899,239.47602,281.39799)"/>
<path transform="matrix(1,0,0,-1.00003,37.529,108.10177)" stroke-width=".3985" stroke-linecap="butt" stroke-miterlimit="10" stroke-linejoin="miter" fill="none" stroke="#000000" d="M198.42766-141.73404C192.9005-151.30742 192.9005-160.50748 196.89575-167.42748"/>
<path transform="matrix(.49998,.866036,.86601,-.49999503,233.5657,274.04627)" d="M4.21463 0 .64343 1.34572 1.8178 0 .64343-1.34572Z"/>
<path transform="matrix(.49998,.866036,.86601,-.49999503,233.5657,274.04627)" stroke-width=".3985" stroke-linecap="butt" stroke-miterlimit="10" stroke-linejoin="miter" fill="none" stroke="#000000" d="M4.21463 0 .64343 1.34572 1.8178 0 .64343-1.34572Z"/>
<path transform="matrix(1,0,0,-1.00003,37.529,108.10177)" stroke-width=".3985" stroke-linecap="butt" stroke-miterlimit="10" stroke-linejoin="miter" fill="none" stroke="#000000" d="M198.42766-170.08086C203.95484-160.50748 203.95484-151.30742 199.95957-144.38742"/>
<path transform="matrix(-.49998,-.866036,-.86601,.49999503,238.34763,253.98154)" d="M4.21463 0 .64343 1.34572 1.8178 0 .64343-1.34572Z"/>
<path transform="matrix(-.49998,-.866036,-.86601,.49999503,238.34763,253.98154)" stroke-width=".3985" stroke-linecap="butt" stroke-miterlimit="10" stroke-linejoin="miter" fill="none" stroke="#000000" d="M4.21463 0 .64343 1.34572 1.8178 0 .64343-1.34572Z"/>
<use data-text="f" xlink:href="#font_1_4" transform="matrix(9.9626,0,0,-9.962899,145.233,25.549286)"/>
<use data-text="A" xlink:href="#font_3_1" transform="matrix(6.9738,0,0,-6.9740097,150.111,27.044335)"/>
<use data-text="f" xlink:href="#font_1_4" transform="matrix(9.9626,0,0,-9.962899,144.864,223.98325)"/>
<use data-text="D" xlink:href="#font_3_2" transform="matrix(6.9738,0,0,-6.9740097,149.742,225.47829)"/>
<path transform="matrix(1,0,0,-1.00003,37.529,108.10177)" stroke-width="1.59404" stroke-linecap="butt" stroke-miterlimit="10" stroke-linejoin="miter" fill="none" stroke="#000000" d="M42.5202 70.867 178.08208 57.31065"/>
<path transform="matrix(.995,.099472988,.09947,-.99502989,211.67209,50.395597)" d="M7.89215 0 2.57367 2.02063 4.3573 0 2.57367-2.02063Z"/>
<path transform="matrix(.995,.099472988,.09947,-.99502989,211.67209,50.395597)" stroke-width="1.59404" stroke-linecap="butt" stroke-miterlimit="10" stroke-linejoin="miter" fill="none" stroke="#000000" d="M7.89215 0 2.57367 2.02063 4.3573 0 2.57367-2.02063Z"/>
<path transform="matrix(1,0,0,-1.00003,37.529,108.10177)" stroke-width="1.59404" stroke-linecap="butt" stroke-miterlimit="10" stroke-linejoin="miter" fill="none" stroke="#000000" d="M42.5202 42.5202 178.08217 56.07648"/>
<path transform="matrix(.99498,-.09949299,-.09949,-.99500986,211.67224,52.417474)" d="M7.89215 0 2.57367 2.02063 4.3573 0 2.57367-2.02063Z"/>
<path transform="matrix(.99498,-.09949299,-.09949,-.99500986,211.67224,52.417474)" stroke-width="1.59404" stroke-linecap="butt" stroke-miterlimit="10" stroke-linejoin="miter" fill="none" stroke="#000000" d="M7.89215 0 2.57367 2.02063 4.3573 0 2.57367-2.02063Z"/>
<path transform="matrix(1,0,0,-1.00003,37.529,108.10177)" stroke-width="1.59404" stroke-linecap="butt" stroke-miterlimit="10" stroke-linejoin="miter" fill="none" stroke="#000000" d="M42.5202 14.17339 178.08217 27.72966"/>
<path transform="matrix(.99498,-.09949299,-.09949,-.99500986,211.67224,80.76513)" d="M7.89215 0 2.57367 2.02063 4.3573 0 2.57367-2.02063Z"/>
<path transform="matrix(.99498,-.09949299,-.09949,-.99500986,211.67224,80.76513)" stroke-width="1.59404" stroke-linecap="butt" stroke-miterlimit="10" stroke-linejoin="miter" fill="none" stroke="#000000" d="M7.89215 0 2.57367 2.02063 4.3573 0 2.57367-2.02063Z"/>
<path transform="matrix(1,0,0,-1.00003,37.529,108.10177)" stroke-width="1.59404" stroke-linecap="butt" stroke-miterlimit="10" stroke-linejoin="miter" fill="none" stroke="#000000" d="M42.5202-127.56062 178.31304-168.29862"/>
<path transform="matrix(.95776,.28731866,.28731,-.95778879,212.05042,275.268)" d="M7.89215 0 2.57367 2.02063 4.3573 0 2.57367-2.02063Z"/>
<path transform="matrix(.95776,.28731866,.28731,-.95778879,212.05042,275.268)" stroke-width="1.59404" stroke-linecap="butt" stroke-miterlimit="10" stroke-linejoin="miter" fill="none" stroke="#000000" d="M7.89215 0 2.57367 2.02063 4.3573 0 2.57367-2.02063Z"/>
<path transform="matrix(1,0,0,-1.00003,37.529,108.10177)" stroke-width="1.59404" stroke-linecap="butt" stroke-miterlimit="10" stroke-linejoin="miter" fill="none" stroke="#000000" d="M42.5202-155.90744 178.08208-142.35109"/>
<path transform="matrix(.995,-.099472988,-.09947,-.99502989,211.67209,250.85092)" d="M7.89215 0 2.57367 2.02063 4.3573 0 2.57367-2.02063Z"/>
<path transform="matrix(.995,-.099472988,-.09947,-.99502989,211.67209,250.85092)" stroke-width="1.59404" stroke-linecap="butt" stroke-miterlimit="10" stroke-linejoin="miter" fill="none" stroke="#000000" d="M7.89215 0 2.57367 2.02063 4.3573 0 2.57367-2.02063Z"/>
<path transform="matrix(1,0,0,-1.00003,37.529,108.10177)" stroke-width="1.59404" stroke-linecap="butt" stroke-miterlimit="10" stroke-linejoin="miter" fill="none" stroke="#000000" d="M42.5202-184.25424 178.08208-170.6979"/>
<path transform="matrix(.995,-.099472988,-.09947,-.99502989,211.67209,279.19859)" d="M7.89215 0 2.57367 2.02063 4.3573 0 2.57367-2.02063Z"/>
<path transform="matrix(.995,-.099472988,-.09947,-.99502989,211.67209,279.19859)" stroke-width="1.59404" stroke-linecap="butt" stroke-miterlimit="10" stroke-linejoin="miter" fill="none" stroke="#000000" d="M7.89215 0 2.57367 2.02063 4.3573 0 2.57367-2.02063Z"/>
</svg>
