<svg xmlns="http://www.w3.org/2000/svg" xmlns:xlink="http://www.w3.org/1999/xlink" xmlns:inkscape="http://www.inkscape.org/namespaces/inkscape" version="1.1" width="231" height="72" viewBox="0 0 231 72">
<defs>
<path id="font_1_1" d="M.44400025 .24998474C.44400025 .35688783 .35499574 .44381715 .25 .44381715 .14199829 .44381715 .054992677 .35488893 .054992677 .24998474 .054992677 .14407349 .14199829 .056137086 .25 .056137086 .35499574 .056137086 .44400025 .14308167 .44400025 .24998474Z"/>
<path id="font_2_1" d="M.3909912 .37405396C.36299134 .37304688 .34298707 .3510437 .34298707 .32904054 .34298707 .31503297 .35198976 .30003358 .37399293 .30003358 .3959961 .30003358 .41999818 .31703187 .41999818 .35603334 .41999818 .40124513 .3769989 .4423828 .30099488 .4423828 .16899109 .4423828 .13198853 .3400421 .13198853 .29605104 .13198853 .21820069 .20599365 .20323181 .23498535 .19725037 .2869873 .18727112 .33898927 .17628479 .33898927 .12133789 .33898927 .095336917 .31599427 .011245728 .19599915 .011245728 .18199158 .011245728 .10499573 .011245728 .08198547 .064331058 .11999512 .059326173 .14498902 .08934021 .14498902 .11734009 .14498902 .14033509 .1289978 .15234375 .10798645 .15234375 .08198547 .15234375 .051986696 .1313324 .051986696 .08633423 .051986696 .029281617 .10899353-.0107421879 .19499207-.0107421879 .35699464-.0107421879 .3959961 .1103363 .3959961 .15533448 .3959961 .19125366 .3769989 .21620178 .36499024 .22817993 .33799745 .25613404 .30899049 .26112367 .2649994 .27009584 .22898865 .27807618 .18899536 .2850647 .18899536 .33003236 .18899536 .3590393 .21299744 .42037965 .30099488 .42037965 .32598878 .42037965 .37599183 .41333009 .3909912 .37405396Z"/>
<path id="font_2_2" d="M.20599365 .3996582H.2999878C.31999208 .3996582 .32998658 .3996582 .32998658 .41966249 .32998658 .43066407 .31999208 .43066407 .3019867 .43066407H.21398926C.25 .5724945 .25498963 .59246829 .25498963 .59846499 .25498963 .61546328 .24299622 .62545779 .22599793 .62545779 .22299195 .62545779 .19499207 .62446597 .18598938 .58947756L.14698792 .43066407H.052993776C.032989503 .43066407 .022994996 .43066407 .022994996 .4116516 .022994996 .3996582 .0309906 .3996582 .050994874 .3996582H.13899231C.066986087 .11608887 .06298828 .099121097 .06298828 .08114624 .06298828 .02722168 .100997928-.0107421879 .15499878-.0107421879 .25698854-.0107421879 .31399537 .13505554 .31399537 .14305115 .31399537 .1530304 .30599977 .1530304 .3019867 .1530304 .29299928 .1530304 .2919922 .15003968 .2869873 .13905335 .24398804 .035217287 .19099427 .011245728 .15699768 .011245728 .13598633 .011245728 .12599182 .024230957 .12599182 .057174684 .12599182 .08114624 .12799073 .088134769 .13198853 .10510254L.20599365 .3996582Z"/>
</defs>
<use data-text="&#x2022;" xlink:href="#font_1_1" transform="matrix(9.962899,0,0,-9.963496,13.777847,32.23555)"/>
<path transform="matrix(1.00003,0,0,-1.00009,115.4859,58.370904)" stroke-width=".3985" stroke-linecap="butt" stroke-miterlimit="10" stroke-linejoin="miter" fill="none" stroke="#000000" d="M-113.38724 0V56.69362H-85.04042V0ZM-85.04042 56.69362"/>
<use data-text="&#x2022;" xlink:href="#font_1_1" transform="matrix(9.962899,0,0,-9.963496,127.16925,32.23555)"/>
<use data-text="&#x2022;" xlink:href="#font_1_1" transform="matrix(9.962899,0,0,-9.963496,212.2118,32.23555)"/>
<path transform="matrix(1.00003,0,0,-1.00009,115.4859,58.370904)" stroke-width=".3985" stroke-linecap="butt" stroke-miterlimit="10" stroke-linejoin="miter" fill="none" stroke="#000000" d="M0 0V56.69362H113.38724V0ZM113.38724 56.69362"/>
<path transform="matrix(1.00003,0,0,-1.00009,115.4859,58.370904)" stroke-width=".3985" stroke-linecap="butt" stroke-miterlimit="10" stroke-linejoin="miter" fill="none" stroke="#000000" d="M20.1839 28.3468H91.21078"/>
<path transform="matrix(1.00003,0,0,-1.00009,206.69942,30.021552)" d="M1.99252 0-1.19551 1.59401 0 0-1.19551-1.59401"/>
<path transform="matrix(1.00003,0,0,-1.00009,115.4859,58.370904)" stroke-width=".3985" stroke-linecap="butt" stroke-miterlimit="10" stroke-linejoin="miter" fill="none" stroke="#0000ff" d="M-93.20331 31.81216C-58.96938 51.57709-26.07103 51.57709 6.43733 32.8084"/>
<path transform="matrix(.866036,.500025,.49999503,-.866088,121.923419,25.559552)" d="M1.99252 0-1.19551 1.59401 0 0-1.19551-1.59401" fill="#0000ff"/>
<use data-text="s" xlink:href="#font_2_1" transform="matrix(9.962899,0,0,-9.963496,70.629558,8.210392)" fill="#0000ff"/>
<path transform="matrix(1.00003,0,0,-1.00009,115.4859,58.370904)" stroke-width=".3985" stroke-linecap="butt" stroke-miterlimit="10" stroke-linejoin="miter" fill="none" stroke="#ff0000" d="M-93.20331 24.88538C-30.24901-11.4612 30.24901-11.4612 91.47777 23.88914"/>
<path transform="matrix(.866036,-.500025,-.49999503,-.866088,206.9664,34.479616)" d="M1.99252 0-1.19551 1.59401 0 0-1.19551-1.59401" fill="#ff0000"/>
<use data-text="t" xlink:href="#font_2_2" transform="matrix(9.962899,0,0,-9.963496,113.686847,70.39398)" fill="#ff0000"/>
</svg>
