<svg xmlns="http://www.w3.org/2000/svg" xmlns:xlink="http://www.w3.org/1999/xlink" xmlns:inkscape="http://www.inkscape.org/namespaces/inkscape" version="1.1" width="373" height="344" viewBox="0 0 373 344">
<defs>
<path id="font_1_2" d="M.33399964 .30233766C.33999635 .32835389 .36299134 .42037965 .43299867 .42037965 .43798829 .42037965 .46199037 .42037965 .48298646 .40734864 .45498658 .402359 .43499757 .37734986 .43499757 .35334779 .43499757 .33735658 .44599916 .31835938 .47299195 .31835938 .49499513 .31835938 .5269928 .3363495 .5269928 .37635804 .5269928 .42837525 .46798707 .4423828 .43399049 .4423828 .37599183 .4423828 .34098817 .38935853 .32899476 .36634828 .3039856 .43237306 .25 .4423828 .22099304 .4423828 .116989139 .4423828 .05999756 .3133545 .05999756 .28834535 .05999756 .27833558 .069992069 .27833558 .07199097 .27833558 .07998657 .27833558 .08299255 .28033448 .084991458 .28933717 .11898804 .39535523 .18499756 .42037965 .21899414 .42037965 .23799134 .42037965 .272995 .4113617 .272995 .35334779 .272995 .32235719 .2559967 .25532533 .21899414 .11528015 .20298767 .053268434 .16799927 .011245728 .12399292 .011245728 .117996219 .011245728 .09498596 .011245728 .07398987 .024276734 .09899902 .029266358 .12098694 .05027771 .12098694 .07827759 .12098694 .105270389 .09899902 .11328125 .083999637 .11328125 .053985597 .11328125 .0289917 .08728027 .0289917 .055267335 .0289917 .009246826 .07899475-.0107421879 .12298584-.0107421879 .18899536-.0107421879 .22499085 .059280397 .22799683 .0652771 .23999024 .028274537 .27598573-.0107421879 .33599855-.0107421879 .43899537-.0107421879 .49598695 .118270877 .49598695 .14328003 .49598695 .1532898 .4869995 .1532898 .48399354 .1532898 .47499085 .1532898 .47299195 .14929199 .47099305 .14228821 .43798829 .03527832 .36999513 .011245728 .33799745 .011245728 .29899598 .011245728 .2829895 .043273927 .2829895 .07727051 .2829895 .09927368 .2889862 .121276859 .2999878 .16529846L.33399964 .30233766Z"/>
<path id="font_2_1" d="M.33499146 .63612368C.33499146 .6630554 .33299256 .6640625 .30499269 .6640625 .24099732 .6014404 .1499939 .6004486 .10899353 .6004486V.5644531C.1329956 .5644531 .19898987 .5644531 .2539978 .592453V.08203125C.2539978 .04899597 .2539978 .035995485 .1539917 .035995485H.115997318V0C.13398743 .0009918213 .25698854 .0039978029 .2939911 .0039978029 .32499696 .0039978029 .45098878 .0009918213 .47299195 0V.035995485H.43499757C.33499146 .035995485 .33499146 .04899597 .33499146 .08203125V.63612368Z"/>
<path id="font_2_2" d="M.5049896 .18203736H.47099305C.46798707 .16001892 .45799256 .100997928 .44499208 .09098816 .43699647 .084991458 .3600006 .084991458 .34599305 .084991458H.1619873C.2669983 .17803955 .3019867 .20603943 .3619995 .25306703 .43598939 .312088 .5049896 .374115 .5049896 .46914674 .5049896 .5900879 .39898683 .6640625 .2709961 .6640625 .14698792 .6640625 .06298828 .57710269 .06298828 .4851532 .06298828 .43414308 .10598755 .42915345 .115997318 .42915345 .13999939 .42915345 .16899109 .44615174 .16899109 .48214723 .16899109 .5001526 .1619873 .53515627 .10998535 .53515627 .14099121 .6060791 .20899964 .62805178 .2559967 .62805178 .35598756 .62805178 .4079895 .5501404 .4079895 .46914674 .4079895 .38212586 .34599305 .3130951 .31399537 .27708436L.07299805 .038986207C.06298828 .02999878 .06298828 .027999878 .06298828 0H.47499085L.5049896 .18203736Z"/>
<path id="font_2_3" d="M.272995 .33428956C.35099793 .33428956 .40699769 .2803192 .40699769 .1733551 .40699769 .04940796 .33499146 .012466431 .2769928 .012466431 .23699951 .012466431 .14898682 .0234375 .10699463 .082351688 .1539917 .084350589 .16499329 .11735535 .16499329 .13835144 .16499329 .17034912 .14099121 .19335938 .10998535 .19335938 .08198547 .19335938 .053985597 .17634583 .053985597 .13534546 .053985597 .041412355 .1579895-.01953125 .2789917-.01953125 .41799928-.01953125 .5139923 .07336426 .5139923 .1733551 .5139923 .2513275 .44999696 .32929994 .33999635 .35229493 .44499208 .39024354 .48298646 .4650879 .48298646 .5260773 .48298646 .60505679 .3919983 .6640625 .2809906 .6640625 .16999817 .6640625 .084991458 .61006167 .084991458 .5300751 .084991458 .49606324 .10699463 .47706605 .13699341 .47706605 .16799927 .47706605 .18798828 .5000763 .18798828 .5280762 .18798828 .5570679 .16799927 .57806399 .13699341 .5800781 .17199707 .62405398 .24099732 .63505557 .27799989 .63505557 .32299806 .63505557 .38598634 .6130676 .38598634 .5260773 .38598634 .48406983 .37199403 .43814088 .34599305 .4072113 .31298829 .36927796 .2849884 .3672943 .23498535 .36428834 .20999146 .3623047 .20799256 .3623047 .20298767 .3612976 .20098877 .3612976 .19299317 .3592987 .19299317 .34829713 .19299317 .33428956 .20199585 .33428956 .21899414 .33428956H.272995Z"/>
<path id="font_2_4" d="M.5289917 .1640625V.20005799H.41799928V.64582827C.41799928 .66682437 .41799928 .6738281 .3959961 .6738281 .38398744 .6738281 .37998963 .6738281 .36999513 .65982058L.038986207 .20005799V.1640625H.33299256V.08201599C.33299256 .04800415 .33299256 .035995485 .2519989 .035995485H.22499085V0C.2749939 .0019989014 .33898927 .0039978029 .375 .0039978029 .4119873 .0039978029 .47599793 .0019989014 .526001 0V.035995485H.49899293C.41799928 .035995485 .41799928 .04800415 .41799928 .08201599V.1640625H.5289917M.33999635 .5658722V.20005799H.07598877L.33999635 .5658722Z"/>
<path id="font_2_5" d="M.15499878 .5588074C.20599365 .5458069 .23599243 .5458069 .2519989 .5458069 .38398744 .5458069 .46199037 .6358032 .46199037 .6508026 .46199037 .6618042 .45498658 .6648102 .44999696 .6648102 .44799806 .6648102 .44599916 .6648102 .44198609 .6618042 .41799928 .6528015 .36499024 .6328125 .29100038 .6328125 .2630005 .6328125 .20999146 .6348114 .14498902 .6598053 .1349945 .6648102 .1329956 .6648102 .13198853 .6648102 .11898804 .6648102 .11898804 .6538086 .11898804 .6378021V.34251405C.11898804 .32548524 .11898804 .3134613 .1349945 .3134613 .14399719 .3134613 .14498902 .3154602 .15499878 .32748414 .19799805 .38259889 .25898744 .390625 .2939911 .390625 .35398866 .390625 .3809967 .34251405 .38598634 .33450318 .4039917 .30143739 .4099884 .26335145 .4099884 .20524597 .4099884 .17524719 .4099884 .116256717 .37998963 .07234192 .35499574 .03640747 .31199647 .012466431 .2630005 .012466431 .19799805 .012466431 .1309967 .04838562 .10598755 .11425781 .14399719 .11125183 .16299439 .13624573 .16299439 .16325379 .16299439 .20625305 .12599182 .21424866 .11299133 .21424866 .11099243 .21424866 .06298828 .21424866 .06298828 .1602478 .06298828 .07034302 .14498902-.01953125 .2649994-.01953125 .3929901-.01953125 .5049896 .07533264 .5049896 .20124817 .5049896 .31445313 .4189911 .41862489 .29499818 .41862489 .25099183 .41862489 .19898987 .4076233 .15499878 .36956788V.5588074Z"/>
<path id="font_2_6" d="M.1499939 .3274536C.1499939 .40945436 .15699768 .48303224 .19499207 .543869 .22898865 .5978699 .2829895 .63505557 .34700013 .63505557 .3769989 .63505557 .4169922 .62701418 .43699647 .5998688 .4119873 .5978699 .3909912 .5808716 .3909912 .5518799 .3909912 .5268707 .4079895 .5048828 .43798829 .5048828 .46798707 .5048828 .48599244 .5248718 .48599244 .5538788 .48599244 .6119385 .44400025 .6640625 .34498597 .6640625 .20098877 .6640625 .053985597 .5318756 .053985597 .3174591 .053985597 .05845642 .17599488-.01953125 .28599549-.01953125 .4079895-.01953125 .5139923 .07345581 .5139923 .20445252 .5139923 .33145143 .41299439 .42546083 .29599 .42546083 .21598816 .42546083 .17199707 .37245179 .1499939 .3274536M.28599549 .012466431C.23599243 .012466431 .19699097 .04145813 .17599488 .08546448 .16099549 .11546326 .15299988 .16545105 .15299988 .22544861 .15299988 .32244874 .21099854 .39746095 .29100038 .39746095 .33699037 .39746095 .36799623 .37945558 .3929901 .342453 .4169922 .30445863 .41799928 .26245118 .41799928 .20445252 .41799928 .14746094 .41799928 .10545349 .3909912 .066467288 .36698915 .031463624 .33499146 .012466431 .28599549 .012466431Z"/>
<path id="font_2_7" d="M.5349884 .6045227C.54499819 .6165161 .54499819 .6185303 .54499819 .64453127H.2829895C.24299622 .64453127 .23199463 .6455078 .19599915 .6484375 .14399719 .65234377 .14199829 .6592407 .13899231 .676239H.10499573L.069992069 .46250917H.10398865C.10598755 .47750855 .115997318 .54351809 .13198853 .5535126 .13999939 .55952456 .22099304 .55952456 .23599243 .55952456H.45399476C.42199708 .5175171 .37098695 .45550538 .34999085 .4275055 .21899414 .25549317 .20698548 .096466068 .20698548 .037460329 .20698548 .02645874 .20698548-.01953125 .2539978-.01953125 .3019867-.01953125 .3019867 .025466919 .3019867 .038467409V.07847595C.3019867 .27249146 .34199525 .36149598 .3849945 .41551209L.5349884 .6045227Z"/>
<path id="font_2_8" d="M.35499574 .36123658C.43299867 .3992157 .48298646 .44618226 .48298646 .5151367 .48298646 .6120758 .38198854 .6640625 .2849884 .6640625 .1749878 .6640625 .084991458 .5920868 .084991458 .4971466 .084991458 .45018006 .10699463 .41619874 .125 .39620973 .14299011 .37522889 .1499939 .37123109 .20899964 .33624269 .15299988 .31227113 .053985597 .25830079 .053985597 .15336609 .053985597 .042434694 .16899109-.01953125 .2829895-.01953125 .4099884-.01953125 .5139923 .061431886 .5139923 .1693573 .5139923 .23532105 .47499085 .29127503 .4169922 .32525636 .4039917 .33325196 .36898805 .35324098 .35499574 .36123658M.19198609 .45617677C.1659851 .4711609 .13798523 .49813844 .13798523 .53512576 .13798523 .5980835 .21099854 .63505557 .2829895 .63505557 .36099244 .63505557 .42999269 .5860901 .42999269 .5151367 .42999269 .42619325 .32598878 .3812256 .32398988 .3812256 .32199098 .3812256 .31999208 .3822174 .31298829 .3862152L.19198609 .45617677M.24099732 .31726075 .37799073 .23831177C.4039917 .22332764 .45399476 .19334412 .45399476 .13438416 .45399476 .059432985 .37098695 .012466431 .2849884 .012466431 .19299317 .012466431 .11399841 .07142639 .11399841 .15336609 .11399841 .22732544 .16899109 .2842865 .24099732 .31726075Z"/>
<path id="font_1_3" d="M.48599244 .38136292C.48999024 .39537049 .48999024 .39736939 .48999024 .40437318 .48999024 .42237855 .47599793 .43138124 .46099855 .43138124 .45098878 .43138124 .43499757 .42536927 .42599488 .41036988 .42399598 .405365 .41600038 .37435914 .4119873 .35635377 .40499879 .33035279 .397995 .30334474 .3919983 .27633668L.34700013 .09628296C.34298707 .08126831 .2999878 .011245728 .23399353 .011245728 .18299866 .011245728 .17199707 .055267335 .17199707 .0922699 .17199707 .1382904 .18899536 .20030213 .22299195 .28833009 .23899842 .3293457 .24299622 .3403473 .24299622 .36035157 .24299622 .405365 .21099854 .4423828 .16099549 .4423828 .06599426 .4423828 .0289917 .29733277 .0289917 .28833009 .0289917 .27833558 .038986207 .27833558 .040985109 .27833558 .050994874 .27833558 .051986696 .28033448 .056991579 .29634095 .083999637 .3903656 .12399292 .42037965 .1579895 .42037965 .1659851 .42037965 .18299866 .42037965 .18299866 .3883667 .18299866 .36335755 .17298889 .3373413 .1659851 .31834413 .12599182 .21231079 .10798645 .1552887 .10798645 .10827637 .10798645 .019256592 .17098999-.0107421879 .22999573-.0107421879 .2689972-.0107421879 .30299378 .0062561037 .33099366 .03425598 .31799317-.017745972 .30599977-.06674194 .2659912-.11973572 .23999024-.15385437 .20199585-.18309021 .1559906-.18309021 .14199829-.18309021 .09700012-.18005371 .07998657-.14074707 .09599304-.14074707 .10899353-.14074707 .12298584-.1287384 .1329956-.11973572 .14299011-.10673523 .14299011-.08773804 .14299011-.056747438 .115997318-.052734376 .10598755-.052734376 .08299255-.052734376 .049987794-.068740848 .049987794-.11773682 .049987794-.16796875 .09399414-.20507813 .1559906-.20507813 .25898744-.20507813 .3619995-.11373901 .3899994-.00074768069L.48599244 .38136292Z"/>
<path id="font_2_9" d="M.41799928 .29803468C.41799928 .05064392 .29499818 .012466431 .23498535 .012466431 .21299744 .012466431 .1599884 .014465332 .1329956 .045639039 .17399597 .04963684 .1769867 .08363342 .1769867 .09263611 .1769867 .11764526 .1599884 .13964844 .12998963 .13964844 .099990848 .13964844 .08198547 .119644168 .08198547 .09063721 .08198547 .022521973 .13899231-.01953125 .23599243-.01953125 .3789978-.01953125 .5139923 .11564636 .5139923 .32904054 .5139923 .5770569 .4039917 .6640625 .2869873 .6640625 .2539978 .6640625 .18499756 .6590576 .12799073 .60305789 .09399414 .5700531 .053985597 .53105166 .053985597 .4410553 .053985597 .31404115 .15499878 .22003174 .27198792 .22003174 .35198976 .22003174 .394989 .27304078 .41799928 .31803895V.29803468M.2769928 .24804688C.23799134 .24804688 .20098877 .26104737 .17298889 .30703736 .1499939 .34403993 .1499939 .38604737 .1499939 .4410553 .1499939 .49905396 .1499939 .53904727 .1789856 .5790558 .20298767 .61405947 .23599243 .63505557 .28799439 .63505557 .33898927 .63505557 .36898805 .60305789 .3849945 .5770569 .4119873 .53504946 .4149933 .4650421 .4149933 .4300537 .4149933 .30004884 .33999635 .24804688 .2769928 .24804688Z"/>
<path id="font_3_1" d="M.32798768 .71199038C.33299256 .72299197 .33299256 .72499087 .33299256 .7299957 .33299256 .7409973 .32398988 .75 .31298829 .75 .3039856 .75 .29699708 .7449951 .2899933 .72698977L.114990238 .2679901C.11299133 .2619934 .10998535 .2559967 .10998535 .25 .10998535 .24699402 .10998535 .24499512 .114990238 .23298645L.2899933-.22601319C.2939911-.23701477 .29899598-.25 .31298829-.25 .32398988-.25 .33299256-.24101258 .33299256-.23001099 .33299256-.227005 .33299256-.2250061 .32798768-.21400452L.15098572 .25 .32798768 .71199038Z"/>
<path id="font_1_1" d="M.20298767 .0009918213C.20298767 .066986087 .17799378 .10598755 .13899231 .10598755 .10598755 .10598755 .085998538 .08099365 .085998538 .052993776 .085998538 .025985718 .10598755 0 .13899231 0 .15098572 0 .1639862 .0039978029 .17399597 .0129852299 .1769867 .01499939 .17799378 .015991211 .1789856 .015991211 .17999268 .015991211 .18099976 .01499939 .18099976 .0009918213 .18099976-.07316589 .1459961-.13328552 .11299133-.16635132 .101989749-.17736817 .101989749-.17936707 .101989749-.18237305 .101989749-.18936157 .10699463-.19335938 .11199951-.19335938 .12298584-.19335938 .20298767-.116256717 .20298767 .0009918213Z"/>
<path id="font_3_2" d="M.272995 .23298645C.27799989 .24499512 .27799989 .24699402 .27799989 .25 .27799989 .25299073 .27799989 .25498963 .272995 .2669983L.09799194 .72698977C.09199524 .74398806 .085998538 .75 .07499695 .75 .06399536 .75 .054992677 .7409973 .054992677 .7299957 .054992677 .72698977 .054992677 .72499087 .05999756 .71398928L.23699951 .25 .05999756-.21200562C.054992677-.2230072 .054992677-.2250061 .054992677-.23001099 .054992677-.24101258 .06399536-.25 .07499695-.25 .08799744-.25 .09199524-.2400055 .09599304-.23001099L.272995 .23298645Z"/>
</defs>
<use data-text="x" xlink:href="#font_1_2" transform="matrix(9.962799,0,0,-9.963098,39.534418,17.37007)"/>
<use data-text="1" xlink:href="#font_2_1" transform="matrix(6.97394,0,0,-6.9741489,45.227518,18.864146)"/>
<use data-text="x" xlink:href="#font_1_2" transform="matrix(9.962799,0,0,-9.963098,39.534418,45.717485)"/>
<use data-text="2" xlink:href="#font_2_2" transform="matrix(6.97394,0,0,-6.9741489,45.227518,47.21156)"/>
<use data-text="x" xlink:href="#font_1_2" transform="matrix(9.962799,0,0,-9.963098,39.534418,74.0659)"/>
<use data-text="3" xlink:href="#font_2_3" transform="matrix(6.97394,0,0,-6.9741489,45.227518,75.559978)"/>
<use data-text="x" xlink:href="#font_1_2" transform="matrix(9.962799,0,0,-9.963098,39.534418,102.41432)"/>
<use data-text="4" xlink:href="#font_2_4" transform="matrix(6.97394,0,0,-6.9741489,45.227518,103.908397)"/>
<use data-text="x" xlink:href="#font_1_2" transform="matrix(9.962799,0,0,-9.963098,39.534418,130.76274)"/>
<use data-text="5" xlink:href="#font_2_5" transform="matrix(6.97394,0,0,-6.9741489,45.227518,132.2568)"/>
<use data-text="x" xlink:href="#font_1_2" transform="matrix(9.962799,0,0,-9.963098,39.534418,159.11116)"/>
<use data-text="6" xlink:href="#font_2_6" transform="matrix(6.97394,0,0,-6.9741489,45.227518,160.60523)"/>
<use data-text="x" xlink:href="#font_1_2" transform="matrix(9.962799,0,0,-9.963098,39.534418,187.45856)"/>
<use data-text="7" xlink:href="#font_2_7" transform="matrix(6.97394,0,0,-6.9741489,45.227518,188.95262)"/>
<use data-text="x" xlink:href="#font_1_2" transform="matrix(9.962799,0,0,-9.963098,39.534418,215.80698)"/>
<use data-text="8" xlink:href="#font_2_8" transform="matrix(6.97394,0,0,-6.9741489,45.227518,217.30104)"/>
<use data-text="y" xlink:href="#font_1_3" transform="matrix(9.962799,0,0,-9.963098,124.981128,300.63026)"/>
<use data-text="1" xlink:href="#font_2_1" transform="matrix(6.97394,0,0,-6.9741489,129.86522,302.12434)"/>
<use data-text="y" xlink:href="#font_1_3" transform="matrix(9.962799,0,0,-9.963098,153.32869,300.63026)"/>
<use data-text="2" xlink:href="#font_2_2" transform="matrix(6.97394,0,0,-6.9741489,158.21279,302.12434)"/>
<use data-text="y" xlink:href="#font_1_3" transform="matrix(9.962799,0,0,-9.963098,181.67627,300.63026)"/>
<use data-text="3" xlink:href="#font_2_3" transform="matrix(6.97394,0,0,-6.9741489,186.56037,302.12434)"/>
<use data-text="y" xlink:href="#font_1_3" transform="matrix(9.962799,0,0,-9.963098,210.02384,300.63026)"/>
<use data-text="4" xlink:href="#font_2_4" transform="matrix(6.97394,0,0,-6.9741489,214.90793,302.12434)"/>
<use data-text="y" xlink:href="#font_1_3" transform="matrix(9.962799,0,0,-9.963098,238.3714,300.63026)"/>
<use data-text="5" xlink:href="#font_2_5" transform="matrix(6.97394,0,0,-6.9741489,243.2555,302.12434)"/>
<use data-text="y" xlink:href="#font_1_3" transform="matrix(9.962799,0,0,-9.963098,266.71797,300.63026)"/>
<use data-text="6" xlink:href="#font_2_6" transform="matrix(6.97394,0,0,-6.9741489,271.60206,302.12434)"/>
<use data-text="y" xlink:href="#font_1_3" transform="matrix(9.962799,0,0,-9.963098,295.06556,300.63026)"/>
<use data-text="7" xlink:href="#font_2_7" transform="matrix(6.97394,0,0,-6.9741489,299.94966,302.12434)"/>
<use data-text="y" xlink:href="#font_1_3" transform="matrix(9.962799,0,0,-9.963098,323.4131,300.63026)"/>
<use data-text="8" xlink:href="#font_2_8" transform="matrix(6.97394,0,0,-6.9741489,328.29719,302.12434)"/>
<use data-text="y" xlink:href="#font_1_3" transform="matrix(9.962799,0,0,-9.963098,351.76069,300.63026)"/>
<use data-text="9" xlink:href="#font_2_9" transform="matrix(6.97394,0,0,-6.9741489,356.64479,302.12434)"/>
<path transform="matrix(1.00002,0,0,-1.00005,44.616518,15.971999)" stroke-width=".3985" stroke-linecap="butt" stroke-miterlimit="10" stroke-linejoin="miter" fill="none" stroke="#000000" d="M42.5202-99.21382C42.5202-36.59097 23.48355 14.1734 0 14.1734-23.48355 14.1734-42.5202-36.59097-42.5202-99.21382-42.5202-161.83667-23.48355-212.60106 0-212.60106 23.48355-212.60106 42.5202-161.83667 42.5202-99.21382ZM0-99.21382"/>
<path transform="matrix(1.00002,0,0,-1.00005,44.616518,15.971999)" stroke-width=".3985" stroke-linecap="butt" stroke-miterlimit="10" stroke-linejoin="miter" fill="none" stroke="#000000" d="M325.9883-283.4681C325.9883-259.98454 268.87837-240.94789 198.42766-240.94789 127.97696-240.94789 70.86702-259.98454 70.86702-283.4681 70.86702-306.95164 127.97696-325.9883 198.42766-325.9883 268.87837-325.9883 325.9883-306.95164 325.9883-283.4681ZM198.42766-283.4681"/>
<use data-text="&#x27e8;" xlink:href="#font_3_1" transform="matrix(9.962799,0,0,-9.963098,113.810909,18.463124)"/>
<use data-text="x" xlink:href="#font_1_2" transform="matrix(9.962799,0,0,-9.963098,117.684978,18.463124)"/>
<use data-text="1" xlink:href="#font_2_1" transform="matrix(6.97394,0,0,-6.9741489,123.37908,19.9572)"/>
<use data-text="," xlink:href="#font_1_1" transform="matrix(9.962799,0,0,-9.963098,127.84817,18.463124)"/>
<use data-text="y" xlink:href="#font_1_3" transform="matrix(9.962799,0,0,-9.963098,132.26169,18.463124)"/>
<use data-text="1" xlink:href="#font_2_1" transform="matrix(6.97394,0,0,-6.9741489,137.16138,19.9572)"/>
<use data-text="&#x27e9;" xlink:href="#font_3_2" transform="matrix(9.962799,0,0,-9.963098,141.63043,18.463124)"/>
<use data-text="&#x27e8;" xlink:href="#font_3_1" transform="matrix(9.962799,0,0,-9.963098,142.15848,18.463124)"/>
<use data-text="x" xlink:href="#font_1_2" transform="matrix(9.962799,0,0,-9.963098,146.03253,18.463124)"/>
<use data-text="1" xlink:href="#font_2_1" transform="matrix(6.97394,0,0,-6.9741489,151.72666,19.9572)"/>
<use data-text="," xlink:href="#font_1_1" transform="matrix(9.962799,0,0,-9.963098,156.19574,18.463124)"/>
<use data-text="y" xlink:href="#font_1_3" transform="matrix(9.962799,0,0,-9.963098,160.60926,18.463124)"/>
<use data-text="2" xlink:href="#font_2_2" transform="matrix(6.97394,0,0,-6.9741489,165.50894,19.9572)"/>
<use data-text="&#x27e9;" xlink:href="#font_3_2" transform="matrix(9.962799,0,0,-9.963098,169.978,18.463124)"/>
<use data-text="&#x27e8;" xlink:href="#font_3_1" transform="matrix(9.962799,0,0,-9.963098,170.50605,18.463124)"/>
<use data-text="x" xlink:href="#font_1_2" transform="matrix(9.962799,0,0,-9.963098,174.3801,18.463124)"/>
<use data-text="1" xlink:href="#font_2_1" transform="matrix(6.97394,0,0,-6.9741489,180.07422,19.9572)"/>
<use data-text="," xlink:href="#font_1_1" transform="matrix(9.962799,0,0,-9.963098,184.5433,18.463124)"/>
<use data-text="y" xlink:href="#font_1_3" transform="matrix(9.962799,0,0,-9.963098,188.95682,18.463124)"/>
<use data-text="3" xlink:href="#font_2_3" transform="matrix(6.97394,0,0,-6.9741489,193.8565,19.9572)"/>
<use data-text="&#x27e9;" xlink:href="#font_3_2" transform="matrix(9.962799,0,0,-9.963098,198.32556,18.463124)"/>
<use data-text="&#x27e8;" xlink:href="#font_3_1" transform="matrix(9.962799,0,0,-9.963098,198.85359,18.463124)"/>
<use data-text="x" xlink:href="#font_1_2" transform="matrix(9.962799,0,0,-9.963098,202.72766,18.463124)"/>
<use data-text="1" xlink:href="#font_2_1" transform="matrix(6.97394,0,0,-6.9741489,208.42177,19.9572)"/>
<use data-text="," xlink:href="#font_1_1" transform="matrix(9.962799,0,0,-9.963098,212.89086,18.463124)"/>
<use data-text="y" xlink:href="#font_1_3" transform="matrix(9.962799,0,0,-9.963098,217.30438,18.463124)"/>
<use data-text="4" xlink:href="#font_2_4" transform="matrix(6.97394,0,0,-6.9741489,222.20406,19.9572)"/>
<use data-text="&#x27e9;" xlink:href="#font_3_2" transform="matrix(9.962799,0,0,-9.963098,226.67313,18.463124)"/>
<use data-text="&#x27e8;" xlink:href="#font_3_1" transform="matrix(9.962799,0,0,-9.963098,227.20117,18.463124)"/>
<use data-text="x" xlink:href="#font_1_2" transform="matrix(9.962799,0,0,-9.963098,231.07524,18.463124)"/>
<use data-text="1" xlink:href="#font_2_1" transform="matrix(6.97394,0,0,-6.9741489,236.76935,19.9572)"/>
<use data-text="," xlink:href="#font_1_1" transform="matrix(9.962799,0,0,-9.963098,241.23844,18.463124)"/>
<use data-text="y" xlink:href="#font_1_3" transform="matrix(9.962799,0,0,-9.963098,245.65196,18.463124)"/>
<use data-text="5" xlink:href="#font_2_5" transform="matrix(6.97394,0,0,-6.9741489,250.55164,19.9572)"/>
<use data-text="&#x27e9;" xlink:href="#font_3_2" transform="matrix(9.962799,0,0,-9.963098,255.0207,18.463124)"/>
<use data-text="&#x27e8;" xlink:href="#font_3_1" transform="matrix(9.962799,0,0,-9.963098,255.54775,18.463124)"/>
<use data-text="x" xlink:href="#font_1_2" transform="matrix(9.962799,0,0,-9.963098,259.4218,18.463124)"/>
<use data-text="1" xlink:href="#font_2_1" transform="matrix(6.97394,0,0,-6.9741489,265.1159,19.9572)"/>
<use data-text="," xlink:href="#font_1_1" transform="matrix(9.962799,0,0,-9.963098,269.58503,18.463124)"/>
<use data-text="y" xlink:href="#font_1_3" transform="matrix(9.962799,0,0,-9.963098,273.99855,18.463124)"/>
<use data-text="6" xlink:href="#font_2_6" transform="matrix(6.97394,0,0,-6.9741489,278.8982,19.9572)"/>
<use data-text="&#x27e9;" xlink:href="#font_3_2" transform="matrix(9.962799,0,0,-9.963098,283.36729,18.463124)"/>
<use data-text="&#x27e8;" xlink:href="#font_3_1" transform="matrix(9.962799,0,0,-9.963098,283.89533,18.463124)"/>
<use data-text="x" xlink:href="#font_1_2" transform="matrix(9.962799,0,0,-9.963098,287.76939,18.463124)"/>
<use data-text="1" xlink:href="#font_2_1" transform="matrix(6.97394,0,0,-6.9741489,293.4635,19.9572)"/>
<use data-text="," xlink:href="#font_1_1" transform="matrix(9.962799,0,0,-9.963098,297.93257,18.463124)"/>
<use data-text="y" xlink:href="#font_1_3" transform="matrix(9.962799,0,0,-9.963098,302.3461,18.463124)"/>
<use data-text="7" xlink:href="#font_2_7" transform="matrix(6.97394,0,0,-6.9741489,307.2458,19.9572)"/>
<use data-text="&#x27e9;" xlink:href="#font_3_2" transform="matrix(9.962799,0,0,-9.963098,311.71485,18.463124)"/>
<use data-text="&#x27e8;" xlink:href="#font_3_1" transform="matrix(9.962799,0,0,-9.963098,312.2429,18.463124)"/>
<use data-text="x" xlink:href="#font_1_2" transform="matrix(9.962799,0,0,-9.963098,316.11695,18.463124)"/>
<use data-text="1" xlink:href="#font_2_1" transform="matrix(6.97394,0,0,-6.9741489,321.81108,19.9572)"/>
<use data-text="," xlink:href="#font_1_1" transform="matrix(9.962799,0,0,-9.963098,326.28016,18.463124)"/>
<use data-text="y" xlink:href="#font_1_3" transform="matrix(9.962799,0,0,-9.963098,330.69367,18.463124)"/>
<use data-text="8" xlink:href="#font_2_8" transform="matrix(6.97394,0,0,-6.9741489,335.59336,19.9572)"/>
<use data-text="&#x27e9;" xlink:href="#font_3_2" transform="matrix(9.962799,0,0,-9.963098,340.06245,18.463124)"/>
<use data-text="&#x27e8;" xlink:href="#font_3_1" transform="matrix(9.962799,0,0,-9.963098,340.59043,18.463124)"/>
<use data-text="x" xlink:href="#font_1_2" transform="matrix(9.962799,0,0,-9.963098,344.46449,18.463124)"/>
<use data-text="1" xlink:href="#font_2_1" transform="matrix(6.97394,0,0,-6.9741489,350.1586,19.9572)"/>
<use data-text="," xlink:href="#font_1_1" transform="matrix(9.962799,0,0,-9.963098,354.6277,18.463124)"/>
<use data-text="y" xlink:href="#font_1_3" transform="matrix(9.962799,0,0,-9.963098,359.0412,18.463124)"/>
<use data-text="9" xlink:href="#font_2_9" transform="matrix(6.97394,0,0,-6.9741489,363.9409,19.9572)"/>
<use data-text="&#x27e9;" xlink:href="#font_3_2" transform="matrix(9.962799,0,0,-9.963098,368.40998,18.463124)"/>
<use data-text="&#x27e8;" xlink:href="#font_3_1" transform="matrix(9.962799,0,0,-9.963098,113.810909,46.81054)"/>
<use data-text="x" xlink:href="#font_1_2" transform="matrix(9.962799,0,0,-9.963098,117.684978,46.81054)"/>
<use data-text="2" xlink:href="#font_2_2" transform="matrix(6.97394,0,0,-6.9741489,123.37908,48.304616)"/>
<use data-text="," xlink:href="#font_1_1" transform="matrix(9.962799,0,0,-9.963098,127.84817,46.81054)"/>
<use data-text="y" xlink:href="#font_1_3" transform="matrix(9.962799,0,0,-9.963098,132.26169,46.81054)"/>
<use data-text="1" xlink:href="#font_2_1" transform="matrix(6.97394,0,0,-6.9741489,137.16138,48.304616)"/>
<use data-text="&#x27e9;" xlink:href="#font_3_2" transform="matrix(9.962799,0,0,-9.963098,141.63043,46.81054)"/>
<use data-text="&#x27e8;" xlink:href="#font_3_1" transform="matrix(9.962799,0,0,-9.963098,142.15848,46.81054)"/>
<use data-text="x" xlink:href="#font_1_2" transform="matrix(9.962799,0,0,-9.963098,146.03253,46.81054)"/>
<use data-text="2" xlink:href="#font_2_2" transform="matrix(6.97394,0,0,-6.9741489,151.72666,48.304616)"/>
<use data-text="," xlink:href="#font_1_1" transform="matrix(9.962799,0,0,-9.963098,156.19574,46.81054)"/>
<use data-text="y" xlink:href="#font_1_3" transform="matrix(9.962799,0,0,-9.963098,160.60926,46.81054)"/>
<use data-text="2" xlink:href="#font_2_2" transform="matrix(6.97394,0,0,-6.9741489,165.50894,48.304616)"/>
<use data-text="&#x27e9;" xlink:href="#font_3_2" transform="matrix(9.962799,0,0,-9.963098,169.978,46.81054)"/>
<use data-text="&#x27e8;" xlink:href="#font_3_1" transform="matrix(9.962799,0,0,-9.963098,170.50605,46.81054)"/>
<use data-text="x" xlink:href="#font_1_2" transform="matrix(9.962799,0,0,-9.963098,174.3801,46.81054)"/>
<use data-text="2" xlink:href="#font_2_2" transform="matrix(6.97394,0,0,-6.9741489,180.07422,48.304616)"/>
<use data-text="," xlink:href="#font_1_1" transform="matrix(9.962799,0,0,-9.963098,184.5433,46.81054)"/>
<use data-text="y" xlink:href="#font_1_3" transform="matrix(9.962799,0,0,-9.963098,188.95682,46.81054)"/>
<use data-text="3" xlink:href="#font_2_3" transform="matrix(6.97394,0,0,-6.9741489,193.8565,48.304616)"/>
<use data-text="&#x27e9;" xlink:href="#font_3_2" transform="matrix(9.962799,0,0,-9.963098,198.32556,46.81054)"/>
<use data-text="&#x27e8;" xlink:href="#font_3_1" transform="matrix(9.962799,0,0,-9.963098,198.85359,46.81054)"/>
<use data-text="x" xlink:href="#font_1_2" transform="matrix(9.962799,0,0,-9.963098,202.72766,46.81054)"/>
<use data-text="2" xlink:href="#font_2_2" transform="matrix(6.97394,0,0,-6.9741489,208.42177,48.304616)"/>
<use data-text="," xlink:href="#font_1_1" transform="matrix(9.962799,0,0,-9.963098,212.89086,46.81054)"/>
<use data-text="y" xlink:href="#font_1_3" transform="matrix(9.962799,0,0,-9.963098,217.30438,46.81054)"/>
<use data-text="4" xlink:href="#font_2_4" transform="matrix(6.97394,0,0,-6.9741489,222.20406,48.304616)"/>
<use data-text="&#x27e9;" xlink:href="#font_3_2" transform="matrix(9.962799,0,0,-9.963098,226.67313,46.81054)"/>
<use data-text="&#x27e8;" xlink:href="#font_3_1" transform="matrix(9.962799,0,0,-9.963098,227.20117,46.81054)"/>
<use data-text="x" xlink:href="#font_1_2" transform="matrix(9.962799,0,0,-9.963098,231.07524,46.81054)"/>
<use data-text="2" xlink:href="#font_2_2" transform="matrix(6.97394,0,0,-6.9741489,236.76935,48.304616)"/>
<use data-text="," xlink:href="#font_1_1" transform="matrix(9.962799,0,0,-9.963098,241.23844,46.81054)"/>
<use data-text="y" xlink:href="#font_1_3" transform="matrix(9.962799,0,0,-9.963098,245.65196,46.81054)"/>
<use data-text="5" xlink:href="#font_2_5" transform="matrix(6.97394,0,0,-6.9741489,250.55164,48.304616)"/>
<use data-text="&#x27e9;" xlink:href="#font_3_2" transform="matrix(9.962799,0,0,-9.963098,255.0207,46.81054)"/>
<use data-text="&#x27e8;" xlink:href="#font_3_1" transform="matrix(9.962799,0,0,-9.963098,255.54775,46.81054)"/>
<use data-text="x" xlink:href="#font_1_2" transform="matrix(9.962799,0,0,-9.963098,259.4218,46.81054)"/>
<use data-text="2" xlink:href="#font_2_2" transform="matrix(6.97394,0,0,-6.9741489,265.1159,48.304616)"/>
<use data-text="," xlink:href="#font_1_1" transform="matrix(9.962799,0,0,-9.963098,269.58503,46.81054)"/>
<use data-text="y" xlink:href="#font_1_3" transform="matrix(9.962799,0,0,-9.963098,273.99855,46.81054)"/>
<use data-text="6" xlink:href="#font_2_6" transform="matrix(6.97394,0,0,-6.9741489,278.8982,48.304616)"/>
<use data-text="&#x27e9;" xlink:href="#font_3_2" transform="matrix(9.962799,0,0,-9.963098,283.36729,46.81054)"/>
<use data-text="&#x27e8;" xlink:href="#font_3_1" transform="matrix(9.962799,0,0,-9.963098,283.89533,46.81054)"/>
<use data-text="x" xlink:href="#font_1_2" transform="matrix(9.962799,0,0,-9.963098,287.76939,46.81054)"/>
<use data-text="2" xlink:href="#font_2_2" transform="matrix(6.97394,0,0,-6.9741489,293.4635,48.304616)"/>
<use data-text="," xlink:href="#font_1_1" transform="matrix(9.962799,0,0,-9.963098,297.93257,46.81054)"/>
<use data-text="y" xlink:href="#font_1_3" transform="matrix(9.962799,0,0,-9.963098,302.3461,46.81054)"/>
<use data-text="7" xlink:href="#font_2_7" transform="matrix(6.97394,0,0,-6.9741489,307.2458,48.304616)"/>
<use data-text="&#x27e9;" xlink:href="#font_3_2" transform="matrix(9.962799,0,0,-9.963098,311.71485,46.81054)"/>
<use data-text="&#x27e8;" xlink:href="#font_3_1" transform="matrix(9.962799,0,0,-9.963098,312.2429,46.81054)"/>
<use data-text="x" xlink:href="#font_1_2" transform="matrix(9.962799,0,0,-9.963098,316.11695,46.81054)"/>
<use data-text="2" xlink:href="#font_2_2" transform="matrix(6.97394,0,0,-6.9741489,321.81108,48.304616)"/>
<use data-text="," xlink:href="#font_1_1" transform="matrix(9.962799,0,0,-9.963098,326.28016,46.81054)"/>
<use data-text="y" xlink:href="#font_1_3" transform="matrix(9.962799,0,0,-9.963098,330.69367,46.81054)"/>
<use data-text="8" xlink:href="#font_2_8" transform="matrix(6.97394,0,0,-6.9741489,335.59336,48.304616)"/>
<use data-text="&#x27e9;" xlink:href="#font_3_2" transform="matrix(9.962799,0,0,-9.963098,340.06245,46.81054)"/>
<use data-text="&#x27e8;" xlink:href="#font_3_1" transform="matrix(9.962799,0,0,-9.963098,340.59043,46.81054)"/>
<use data-text="x" xlink:href="#font_1_2" transform="matrix(9.962799,0,0,-9.963098,344.46449,46.81054)"/>
<use data-text="2" xlink:href="#font_2_2" transform="matrix(6.97394,0,0,-6.9741489,350.1586,48.304616)"/>
<use data-text="," xlink:href="#font_1_1" transform="matrix(9.962799,0,0,-9.963098,354.6277,46.81054)"/>
<use data-text="y" xlink:href="#font_1_3" transform="matrix(9.962799,0,0,-9.963098,359.0412,46.81054)"/>
<use data-text="9" xlink:href="#font_2_9" transform="matrix(6.97394,0,0,-6.9741489,363.9409,48.304616)"/>
<use data-text="&#x27e9;" xlink:href="#font_3_2" transform="matrix(9.962799,0,0,-9.963098,368.40998,46.81054)"/>
<use data-text="&#x27e8;" xlink:href="#font_3_1" transform="matrix(9.962799,0,0,-9.963098,113.810909,75.15895)"/>
<use data-text="x" xlink:href="#font_1_2" transform="matrix(9.962799,0,0,-9.963098,117.684978,75.15895)"/>
<use data-text="3" xlink:href="#font_2_3" transform="matrix(6.97394,0,0,-6.9741489,123.37908,76.65302)"/>
<use data-text="," xlink:href="#font_1_1" transform="matrix(9.962799,0,0,-9.963098,127.84817,75.15895)"/>
<use data-text="y" xlink:href="#font_1_3" transform="matrix(9.962799,0,0,-9.963098,132.26169,75.15895)"/>
<use data-text="1" xlink:href="#font_2_1" transform="matrix(6.97394,0,0,-6.9741489,137.16138,76.65302)"/>
<use data-text="&#x27e9;" xlink:href="#font_3_2" transform="matrix(9.962799,0,0,-9.963098,141.63043,75.15895)"/>
<use data-text="&#x27e8;" xlink:href="#font_3_1" transform="matrix(9.962799,0,0,-9.963098,142.15848,75.15895)"/>
<use data-text="x" xlink:href="#font_1_2" transform="matrix(9.962799,0,0,-9.963098,146.03253,75.15895)"/>
<use data-text="3" xlink:href="#font_2_3" transform="matrix(6.97394,0,0,-6.9741489,151.72666,76.65302)"/>
<use data-text="," xlink:href="#font_1_1" transform="matrix(9.962799,0,0,-9.963098,156.19574,75.15895)"/>
<use data-text="y" xlink:href="#font_1_3" transform="matrix(9.962799,0,0,-9.963098,160.60926,75.15895)"/>
<use data-text="2" xlink:href="#font_2_2" transform="matrix(6.97394,0,0,-6.9741489,165.50894,76.65302)"/>
<use data-text="&#x27e9;" xlink:href="#font_3_2" transform="matrix(9.962799,0,0,-9.963098,169.978,75.15895)"/>
<use data-text="&#x27e8;" xlink:href="#font_3_1" transform="matrix(9.962799,0,0,-9.963098,170.50605,75.15895)"/>
<use data-text="x" xlink:href="#font_1_2" transform="matrix(9.962799,0,0,-9.963098,174.3801,75.15895)"/>
<use data-text="3" xlink:href="#font_2_3" transform="matrix(6.97394,0,0,-6.9741489,180.07422,76.65302)"/>
<use data-text="," xlink:href="#font_1_1" transform="matrix(9.962799,0,0,-9.963098,184.5433,75.15895)"/>
<use data-text="y" xlink:href="#font_1_3" transform="matrix(9.962799,0,0,-9.963098,188.95682,75.15895)"/>
<use data-text="3" xlink:href="#font_2_3" transform="matrix(6.97394,0,0,-6.9741489,193.8565,76.65302)"/>
<use data-text="&#x27e9;" xlink:href="#font_3_2" transform="matrix(9.962799,0,0,-9.963098,198.32556,75.15895)"/>
<use data-text="&#x27e8;" xlink:href="#font_3_1" transform="matrix(9.962799,0,0,-9.963098,198.85359,75.15895)"/>
<use data-text="x" xlink:href="#font_1_2" transform="matrix(9.962799,0,0,-9.963098,202.72766,75.15895)"/>
<use data-text="3" xlink:href="#font_2_3" transform="matrix(6.97394,0,0,-6.9741489,208.42177,76.65302)"/>
<use data-text="," xlink:href="#font_1_1" transform="matrix(9.962799,0,0,-9.963098,212.89086,75.15895)"/>
<use data-text="y" xlink:href="#font_1_3" transform="matrix(9.962799,0,0,-9.963098,217.30438,75.15895)"/>
<use data-text="4" xlink:href="#font_2_4" transform="matrix(6.97394,0,0,-6.9741489,222.20406,76.65302)"/>
<use data-text="&#x27e9;" xlink:href="#font_3_2" transform="matrix(9.962799,0,0,-9.963098,226.67313,75.15895)"/>
<use data-text="&#x27e8;" xlink:href="#font_3_1" transform="matrix(9.962799,0,0,-9.963098,227.20117,75.15895)"/>
<use data-text="x" xlink:href="#font_1_2" transform="matrix(9.962799,0,0,-9.963098,231.07524,75.15895)"/>
<use data-text="3" xlink:href="#font_2_3" transform="matrix(6.97394,0,0,-6.9741489,236.76935,76.65302)"/>
<use data-text="," xlink:href="#font_1_1" transform="matrix(9.962799,0,0,-9.963098,241.23844,75.15895)"/>
<use data-text="y" xlink:href="#font_1_3" transform="matrix(9.962799,0,0,-9.963098,245.65196,75.15895)"/>
<use data-text="5" xlink:href="#font_2_5" transform="matrix(6.97394,0,0,-6.9741489,250.55164,76.65302)"/>
<use data-text="&#x27e9;" xlink:href="#font_3_2" transform="matrix(9.962799,0,0,-9.963098,255.0207,75.15895)"/>
<use data-text="&#x27e8;" xlink:href="#font_3_1" transform="matrix(9.962799,0,0,-9.963098,255.54775,75.15895)"/>
<use data-text="x" xlink:href="#font_1_2" transform="matrix(9.962799,0,0,-9.963098,259.4218,75.15895)"/>
<use data-text="3" xlink:href="#font_2_3" transform="matrix(6.97394,0,0,-6.9741489,265.1159,76.65302)"/>
<use data-text="," xlink:href="#font_1_1" transform="matrix(9.962799,0,0,-9.963098,269.58503,75.15895)"/>
<use data-text="y" xlink:href="#font_1_3" transform="matrix(9.962799,0,0,-9.963098,273.99855,75.15895)"/>
<use data-text="6" xlink:href="#font_2_6" transform="matrix(6.97394,0,0,-6.9741489,278.8982,76.65302)"/>
<use data-text="&#x27e9;" xlink:href="#font_3_2" transform="matrix(9.962799,0,0,-9.963098,283.36729,75.15895)"/>
<use data-text="&#x27e8;" xlink:href="#font_3_1" transform="matrix(9.962799,0,0,-9.963098,283.89533,75.15895)"/>
<use data-text="x" xlink:href="#font_1_2" transform="matrix(9.962799,0,0,-9.963098,287.76939,75.15895)"/>
<use data-text="3" xlink:href="#font_2_3" transform="matrix(6.97394,0,0,-6.9741489,293.4635,76.65302)"/>
<use data-text="," xlink:href="#font_1_1" transform="matrix(9.962799,0,0,-9.963098,297.93257,75.15895)"/>
<use data-text="y" xlink:href="#font_1_3" transform="matrix(9.962799,0,0,-9.963098,302.3461,75.15895)"/>
<use data-text="7" xlink:href="#font_2_7" transform="matrix(6.97394,0,0,-6.9741489,307.2458,76.65302)"/>
<use data-text="&#x27e9;" xlink:href="#font_3_2" transform="matrix(9.962799,0,0,-9.963098,311.71485,75.15895)"/>
<use data-text="&#x27e8;" xlink:href="#font_3_1" transform="matrix(9.962799,0,0,-9.963098,312.2429,75.15895)"/>
<use data-text="x" xlink:href="#font_1_2" transform="matrix(9.962799,0,0,-9.963098,316.11695,75.15895)"/>
<use data-text="3" xlink:href="#font_2_3" transform="matrix(6.97394,0,0,-6.9741489,321.81108,76.65302)"/>
<use data-text="," xlink:href="#font_1_1" transform="matrix(9.962799,0,0,-9.963098,326.28016,75.15895)"/>
<use data-text="y" xlink:href="#font_1_3" transform="matrix(9.962799,0,0,-9.963098,330.69367,75.15895)"/>
<use data-text="8" xlink:href="#font_2_8" transform="matrix(6.97394,0,0,-6.9741489,335.59336,76.65302)"/>
<use data-text="&#x27e9;" xlink:href="#font_3_2" transform="matrix(9.962799,0,0,-9.963098,340.06245,75.15895)"/>
<use data-text="&#x27e8;" xlink:href="#font_3_1" transform="matrix(9.962799,0,0,-9.963098,340.59043,75.15895)"/>
<use data-text="x" xlink:href="#font_1_2" transform="matrix(9.962799,0,0,-9.963098,344.46449,75.15895)"/>
<use data-text="3" xlink:href="#font_2_3" transform="matrix(6.97394,0,0,-6.9741489,350.1586,76.65302)"/>
<use data-text="," xlink:href="#font_1_1" transform="matrix(9.962799,0,0,-9.963098,354.6277,75.15895)"/>
<use data-text="y" xlink:href="#font_1_3" transform="matrix(9.962799,0,0,-9.963098,359.0412,75.15895)"/>
<use data-text="9" xlink:href="#font_2_9" transform="matrix(6.97394,0,0,-6.9741489,363.9409,76.65302)"/>
<use data-text="&#x27e9;" xlink:href="#font_3_2" transform="matrix(9.962799,0,0,-9.963098,368.40998,75.15895)"/>
<use data-text="&#x27e8;" xlink:href="#font_3_1" transform="matrix(9.962799,0,0,-9.963098,113.810909,103.50737)"/>
<use data-text="x" xlink:href="#font_1_2" transform="matrix(9.962799,0,0,-9.963098,117.684978,103.50737)"/>
<use data-text="4" xlink:href="#font_2_4" transform="matrix(6.97394,0,0,-6.9741489,123.37908,105.00144)"/>
<use data-text="," xlink:href="#font_1_1" transform="matrix(9.962799,0,0,-9.963098,127.84817,103.50737)"/>
<use data-text="y" xlink:href="#font_1_3" transform="matrix(9.962799,0,0,-9.963098,132.26169,103.50737)"/>
<use data-text="1" xlink:href="#font_2_1" transform="matrix(6.97394,0,0,-6.9741489,137.16138,105.00144)"/>
<use data-text="&#x27e9;" xlink:href="#font_3_2" transform="matrix(9.962799,0,0,-9.963098,141.63043,103.50737)"/>
<use data-text="&#x27e8;" xlink:href="#font_3_1" transform="matrix(9.962799,0,0,-9.963098,142.15848,103.50737)"/>
<use data-text="x" xlink:href="#font_1_2" transform="matrix(9.962799,0,0,-9.963098,146.03253,103.50737)"/>
<use data-text="4" xlink:href="#font_2_4" transform="matrix(6.97394,0,0,-6.9741489,151.72666,105.00144)"/>
<use data-text="," xlink:href="#font_1_1" transform="matrix(9.962799,0,0,-9.963098,156.19574,103.50737)"/>
<use data-text="y" xlink:href="#font_1_3" transform="matrix(9.962799,0,0,-9.963098,160.60926,103.50737)"/>
<use data-text="2" xlink:href="#font_2_2" transform="matrix(6.97394,0,0,-6.9741489,165.50894,105.00144)"/>
<use data-text="&#x27e9;" xlink:href="#font_3_2" transform="matrix(9.962799,0,0,-9.963098,169.978,103.50737)"/>
<use data-text="&#x27e8;" xlink:href="#font_3_1" transform="matrix(9.962799,0,0,-9.963098,170.50605,103.50737)"/>
<use data-text="x" xlink:href="#font_1_2" transform="matrix(9.962799,0,0,-9.963098,174.3801,103.50737)"/>
<use data-text="4" xlink:href="#font_2_4" transform="matrix(6.97394,0,0,-6.9741489,180.07422,105.00144)"/>
<use data-text="," xlink:href="#font_1_1" transform="matrix(9.962799,0,0,-9.963098,184.5433,103.50737)"/>
<use data-text="y" xlink:href="#font_1_3" transform="matrix(9.962799,0,0,-9.963098,188.95682,103.50737)"/>
<use data-text="3" xlink:href="#font_2_3" transform="matrix(6.97394,0,0,-6.9741489,193.8565,105.00144)"/>
<use data-text="&#x27e9;" xlink:href="#font_3_2" transform="matrix(9.962799,0,0,-9.963098,198.32556,103.50737)"/>
<use data-text="&#x27e8;" xlink:href="#font_3_1" transform="matrix(9.962799,0,0,-9.963098,198.85359,103.50737)"/>
<use data-text="x" xlink:href="#font_1_2" transform="matrix(9.962799,0,0,-9.963098,202.72766,103.50737)"/>
<use data-text="4" xlink:href="#font_2_4" transform="matrix(6.97394,0,0,-6.9741489,208.42177,105.00144)"/>
<use data-text="," xlink:href="#font_1_1" transform="matrix(9.962799,0,0,-9.963098,212.89086,103.50737)"/>
<use data-text="y" xlink:href="#font_1_3" transform="matrix(9.962799,0,0,-9.963098,217.30438,103.50737)"/>
<use data-text="4" xlink:href="#font_2_4" transform="matrix(6.97394,0,0,-6.9741489,222.20406,105.00144)"/>
<use data-text="&#x27e9;" xlink:href="#font_3_2" transform="matrix(9.962799,0,0,-9.963098,226.67313,103.50737)"/>
<use data-text="&#x27e8;" xlink:href="#font_3_1" transform="matrix(9.962799,0,0,-9.963098,227.20117,103.50737)"/>
<use data-text="x" xlink:href="#font_1_2" transform="matrix(9.962799,0,0,-9.963098,231.07524,103.50737)"/>
<use data-text="4" xlink:href="#font_2_4" transform="matrix(6.97394,0,0,-6.9741489,236.76935,105.00144)"/>
<use data-text="," xlink:href="#font_1_1" transform="matrix(9.962799,0,0,-9.963098,241.23844,103.50737)"/>
<use data-text="y" xlink:href="#font_1_3" transform="matrix(9.962799,0,0,-9.963098,245.65196,103.50737)"/>
<use data-text="5" xlink:href="#font_2_5" transform="matrix(6.97394,0,0,-6.9741489,250.55164,105.00144)"/>
<use data-text="&#x27e9;" xlink:href="#font_3_2" transform="matrix(9.962799,0,0,-9.963098,255.0207,103.50737)"/>
<use data-text="&#x27e8;" xlink:href="#font_3_1" transform="matrix(9.962799,0,0,-9.963098,255.54775,103.50737)"/>
<use data-text="x" xlink:href="#font_1_2" transform="matrix(9.962799,0,0,-9.963098,259.4218,103.50737)"/>
<use data-text="4" xlink:href="#font_2_4" transform="matrix(6.97394,0,0,-6.9741489,265.1159,105.00144)"/>
<use data-text="," xlink:href="#font_1_1" transform="matrix(9.962799,0,0,-9.963098,269.58503,103.50737)"/>
<use data-text="y" xlink:href="#font_1_3" transform="matrix(9.962799,0,0,-9.963098,273.99855,103.50737)"/>
<use data-text="6" xlink:href="#font_2_6" transform="matrix(6.97394,0,0,-6.9741489,278.8982,105.00144)"/>
<use data-text="&#x27e9;" xlink:href="#font_3_2" transform="matrix(9.962799,0,0,-9.963098,283.36729,103.50737)"/>
<use data-text="&#x27e8;" xlink:href="#font_3_1" transform="matrix(9.962799,0,0,-9.963098,283.89533,103.50737)"/>
<use data-text="x" xlink:href="#font_1_2" transform="matrix(9.962799,0,0,-9.963098,287.76939,103.50737)"/>
<use data-text="4" xlink:href="#font_2_4" transform="matrix(6.97394,0,0,-6.9741489,293.4635,105.00144)"/>
<use data-text="," xlink:href="#font_1_1" transform="matrix(9.962799,0,0,-9.963098,297.93257,103.50737)"/>
<use data-text="y" xlink:href="#font_1_3" transform="matrix(9.962799,0,0,-9.963098,302.3461,103.50737)"/>
<use data-text="7" xlink:href="#font_2_7" transform="matrix(6.97394,0,0,-6.9741489,307.2458,105.00144)"/>
<use data-text="&#x27e9;" xlink:href="#font_3_2" transform="matrix(9.962799,0,0,-9.963098,311.71485,103.50737)"/>
<use data-text="&#x27e8;" xlink:href="#font_3_1" transform="matrix(9.962799,0,0,-9.963098,312.2429,103.50737)"/>
<use data-text="x" xlink:href="#font_1_2" transform="matrix(9.962799,0,0,-9.963098,316.11695,103.50737)"/>
<use data-text="4" xlink:href="#font_2_4" transform="matrix(6.97394,0,0,-6.9741489,321.81108,105.00144)"/>
<use data-text="," xlink:href="#font_1_1" transform="matrix(9.962799,0,0,-9.963098,326.28016,103.50737)"/>
<use data-text="y" xlink:href="#font_1_3" transform="matrix(9.962799,0,0,-9.963098,330.69367,103.50737)"/>
<use data-text="8" xlink:href="#font_2_8" transform="matrix(6.97394,0,0,-6.9741489,335.59336,105.00144)"/>
<use data-text="&#x27e9;" xlink:href="#font_3_2" transform="matrix(9.962799,0,0,-9.963098,340.06245,103.50737)"/>
<use data-text="&#x27e8;" xlink:href="#font_3_1" transform="matrix(9.962799,0,0,-9.963098,340.59043,103.50737)"/>
<use data-text="x" xlink:href="#font_1_2" transform="matrix(9.962799,0,0,-9.963098,344.46449,103.50737)"/>
<use data-text="4" xlink:href="#font_2_4" transform="matrix(6.97394,0,0,-6.9741489,350.1586,105.00144)"/>
<use data-text="," xlink:href="#font_1_1" transform="matrix(9.962799,0,0,-9.963098,354.6277,103.50737)"/>
<use data-text="y" xlink:href="#font_1_3" transform="matrix(9.962799,0,0,-9.963098,359.0412,103.50737)"/>
<use data-text="9" xlink:href="#font_2_9" transform="matrix(6.97394,0,0,-6.9741489,363.9409,105.00144)"/>
<use data-text="&#x27e9;" xlink:href="#font_3_2" transform="matrix(9.962799,0,0,-9.963098,368.40998,103.50737)"/>
<use data-text="&#x27e8;" xlink:href="#font_3_1" transform="matrix(9.962799,0,0,-9.963098,113.810909,131.85579)"/>
<use data-text="x" xlink:href="#font_1_2" transform="matrix(9.962799,0,0,-9.963098,117.684978,131.85579)"/>
<use data-text="5" xlink:href="#font_2_5" transform="matrix(6.97394,0,0,-6.9741489,123.37908,133.34986)"/>
<use data-text="," xlink:href="#font_1_1" transform="matrix(9.962799,0,0,-9.963098,127.84817,131.85579)"/>
<use data-text="y" xlink:href="#font_1_3" transform="matrix(9.962799,0,0,-9.963098,132.26169,131.85579)"/>
<use data-text="1" xlink:href="#font_2_1" transform="matrix(6.97394,0,0,-6.9741489,137.16138,133.34986)"/>
<use data-text="&#x27e9;" xlink:href="#font_3_2" transform="matrix(9.962799,0,0,-9.963098,141.63043,131.85579)"/>
<use data-text="&#x27e8;" xlink:href="#font_3_1" transform="matrix(9.962799,0,0,-9.963098,142.15848,131.85579)"/>
<use data-text="x" xlink:href="#font_1_2" transform="matrix(9.962799,0,0,-9.963098,146.03253,131.85579)"/>
<use data-text="5" xlink:href="#font_2_5" transform="matrix(6.97394,0,0,-6.9741489,151.72666,133.34986)"/>
<use data-text="," xlink:href="#font_1_1" transform="matrix(9.962799,0,0,-9.963098,156.19574,131.85579)"/>
<use data-text="y" xlink:href="#font_1_3" transform="matrix(9.962799,0,0,-9.963098,160.60926,131.85579)"/>
<use data-text="2" xlink:href="#font_2_2" transform="matrix(6.97394,0,0,-6.9741489,165.50894,133.34986)"/>
<use data-text="&#x27e9;" xlink:href="#font_3_2" transform="matrix(9.962799,0,0,-9.963098,169.978,131.85579)"/>
<use data-text="&#x27e8;" xlink:href="#font_3_1" transform="matrix(9.962799,0,0,-9.963098,170.50605,131.85579)"/>
<use data-text="x" xlink:href="#font_1_2" transform="matrix(9.962799,0,0,-9.963098,174.3801,131.85579)"/>
<use data-text="5" xlink:href="#font_2_5" transform="matrix(6.97394,0,0,-6.9741489,180.07422,133.34986)"/>
<use data-text="," xlink:href="#font_1_1" transform="matrix(9.962799,0,0,-9.963098,184.5433,131.85579)"/>
<use data-text="y" xlink:href="#font_1_3" transform="matrix(9.962799,0,0,-9.963098,188.95682,131.85579)"/>
<use data-text="3" xlink:href="#font_2_3" transform="matrix(6.97394,0,0,-6.9741489,193.8565,133.34986)"/>
<use data-text="&#x27e9;" xlink:href="#font_3_2" transform="matrix(9.962799,0,0,-9.963098,198.32556,131.85579)"/>
<use data-text="&#x27e8;" xlink:href="#font_3_1" transform="matrix(9.962799,0,0,-9.963098,198.85359,131.85579)"/>
<use data-text="x" xlink:href="#font_1_2" transform="matrix(9.962799,0,0,-9.963098,202.72766,131.85579)"/>
<use data-text="5" xlink:href="#font_2_5" transform="matrix(6.97394,0,0,-6.9741489,208.42177,133.34986)"/>
<use data-text="," xlink:href="#font_1_1" transform="matrix(9.962799,0,0,-9.963098,212.89086,131.85579)"/>
<use data-text="y" xlink:href="#font_1_3" transform="matrix(9.962799,0,0,-9.963098,217.30438,131.85579)"/>
<use data-text="4" xlink:href="#font_2_4" transform="matrix(6.97394,0,0,-6.9741489,222.20406,133.34986)"/>
<use data-text="&#x27e9;" xlink:href="#font_3_2" transform="matrix(9.962799,0,0,-9.963098,226.67313,131.85579)"/>
<use data-text="&#x27e8;" xlink:href="#font_3_1" transform="matrix(9.962799,0,0,-9.963098,227.20117,131.85579)"/>
<use data-text="x" xlink:href="#font_1_2" transform="matrix(9.962799,0,0,-9.963098,231.07524,131.85579)"/>
<use data-text="5" xlink:href="#font_2_5" transform="matrix(6.97394,0,0,-6.9741489,236.76935,133.34986)"/>
<use data-text="," xlink:href="#font_1_1" transform="matrix(9.962799,0,0,-9.963098,241.23844,131.85579)"/>
<use data-text="y" xlink:href="#font_1_3" transform="matrix(9.962799,0,0,-9.963098,245.65196,131.85579)"/>
<use data-text="5" xlink:href="#font_2_5" transform="matrix(6.97394,0,0,-6.9741489,250.55164,133.34986)"/>
<use data-text="&#x27e9;" xlink:href="#font_3_2" transform="matrix(9.962799,0,0,-9.963098,255.0207,131.85579)"/>
<use data-text="&#x27e8;" xlink:href="#font_3_1" transform="matrix(9.962799,0,0,-9.963098,255.54775,131.85579)"/>
<use data-text="x" xlink:href="#font_1_2" transform="matrix(9.962799,0,0,-9.963098,259.4218,131.85579)"/>
<use data-text="5" xlink:href="#font_2_5" transform="matrix(6.97394,0,0,-6.9741489,265.1159,133.34986)"/>
<use data-text="," xlink:href="#font_1_1" transform="matrix(9.962799,0,0,-9.963098,269.58503,131.85579)"/>
<use data-text="y" xlink:href="#font_1_3" transform="matrix(9.962799,0,0,-9.963098,273.99855,131.85579)"/>
<use data-text="6" xlink:href="#font_2_6" transform="matrix(6.97394,0,0,-6.9741489,278.8982,133.34986)"/>
<use data-text="&#x27e9;" xlink:href="#font_3_2" transform="matrix(9.962799,0,0,-9.963098,283.36729,131.85579)"/>
<use data-text="&#x27e8;" xlink:href="#font_3_1" transform="matrix(9.962799,0,0,-9.963098,283.89533,131.85579)"/>
<use data-text="x" xlink:href="#font_1_2" transform="matrix(9.962799,0,0,-9.963098,287.76939,131.85579)"/>
<use data-text="5" xlink:href="#font_2_5" transform="matrix(6.97394,0,0,-6.9741489,293.4635,133.34986)"/>
<use data-text="," xlink:href="#font_1_1" transform="matrix(9.962799,0,0,-9.963098,297.93257,131.85579)"/>
<use data-text="y" xlink:href="#font_1_3" transform="matrix(9.962799,0,0,-9.963098,302.3461,131.85579)"/>
<use data-text="7" xlink:href="#font_2_7" transform="matrix(6.97394,0,0,-6.9741489,307.2458,133.34986)"/>
<use data-text="&#x27e9;" xlink:href="#font_3_2" transform="matrix(9.962799,0,0,-9.963098,311.71485,131.85579)"/>
<use data-text="&#x27e8;" xlink:href="#font_3_1" transform="matrix(9.962799,0,0,-9.963098,312.2429,131.85579)"/>
<use data-text="x" xlink:href="#font_1_2" transform="matrix(9.962799,0,0,-9.963098,316.11695,131.85579)"/>
<use data-text="5" xlink:href="#font_2_5" transform="matrix(6.97394,0,0,-6.9741489,321.81108,133.34986)"/>
<use data-text="," xlink:href="#font_1_1" transform="matrix(9.962799,0,0,-9.963098,326.28016,131.85579)"/>
<use data-text="y" xlink:href="#font_1_3" transform="matrix(9.962799,0,0,-9.963098,330.69367,131.85579)"/>
<use data-text="8" xlink:href="#font_2_8" transform="matrix(6.97394,0,0,-6.9741489,335.59336,133.34986)"/>
<use data-text="&#x27e9;" xlink:href="#font_3_2" transform="matrix(9.962799,0,0,-9.963098,340.06245,131.85579)"/>
<use data-text="&#x27e8;" xlink:href="#font_3_1" transform="matrix(9.962799,0,0,-9.963098,340.59043,131.85579)"/>
<use data-text="x" xlink:href="#font_1_2" transform="matrix(9.962799,0,0,-9.963098,344.46449,131.85579)"/>
<use data-text="5" xlink:href="#font_2_5" transform="matrix(6.97394,0,0,-6.9741489,350.1586,133.34986)"/>
<use data-text="," xlink:href="#font_1_1" transform="matrix(9.962799,0,0,-9.963098,354.6277,131.85579)"/>
<use data-text="y" xlink:href="#font_1_3" transform="matrix(9.962799,0,0,-9.963098,359.0412,131.85579)"/>
<use data-text="9" xlink:href="#font_2_9" transform="matrix(6.97394,0,0,-6.9741489,363.9409,133.34986)"/>
<use data-text="&#x27e9;" xlink:href="#font_3_2" transform="matrix(9.962799,0,0,-9.963098,368.40998,131.85579)"/>
<use data-text="&#x27e8;" xlink:href="#font_3_1" transform="matrix(9.962799,0,0,-9.963098,113.810909,160.20421)"/>
<use data-text="x" xlink:href="#font_1_2" transform="matrix(9.962799,0,0,-9.963098,117.684978,160.20421)"/>
<use data-text="6" xlink:href="#font_2_6" transform="matrix(6.97394,0,0,-6.9741489,123.37908,161.69828)"/>
<use data-text="," xlink:href="#font_1_1" transform="matrix(9.962799,0,0,-9.963098,127.84817,160.20421)"/>
<use data-text="y" xlink:href="#font_1_3" transform="matrix(9.962799,0,0,-9.963098,132.26169,160.20421)"/>
<use data-text="1" xlink:href="#font_2_1" transform="matrix(6.97394,0,0,-6.9741489,137.16138,161.69828)"/>
<use data-text="&#x27e9;" xlink:href="#font_3_2" transform="matrix(9.962799,0,0,-9.963098,141.63043,160.20421)"/>
<use data-text="&#x27e8;" xlink:href="#font_3_1" transform="matrix(9.962799,0,0,-9.963098,142.15848,160.20421)"/>
<use data-text="x" xlink:href="#font_1_2" transform="matrix(9.962799,0,0,-9.963098,146.03253,160.20421)"/>
<use data-text="6" xlink:href="#font_2_6" transform="matrix(6.97394,0,0,-6.9741489,151.72666,161.69828)"/>
<use data-text="," xlink:href="#font_1_1" transform="matrix(9.962799,0,0,-9.963098,156.19574,160.20421)"/>
<use data-text="y" xlink:href="#font_1_3" transform="matrix(9.962799,0,0,-9.963098,160.60926,160.20421)"/>
<use data-text="2" xlink:href="#font_2_2" transform="matrix(6.97394,0,0,-6.9741489,165.50894,161.69828)"/>
<use data-text="&#x27e9;" xlink:href="#font_3_2" transform="matrix(9.962799,0,0,-9.963098,169.978,160.20421)"/>
<use data-text="&#x27e8;" xlink:href="#font_3_1" transform="matrix(9.962799,0,0,-9.963098,170.50605,160.20421)"/>
<use data-text="x" xlink:href="#font_1_2" transform="matrix(9.962799,0,0,-9.963098,174.3801,160.20421)"/>
<use data-text="6" xlink:href="#font_2_6" transform="matrix(6.97394,0,0,-6.9741489,180.07422,161.69828)"/>
<use data-text="," xlink:href="#font_1_1" transform="matrix(9.962799,0,0,-9.963098,184.5433,160.20421)"/>
<use data-text="y" xlink:href="#font_1_3" transform="matrix(9.962799,0,0,-9.963098,188.95682,160.20421)"/>
<use data-text="3" xlink:href="#font_2_3" transform="matrix(6.97394,0,0,-6.9741489,193.8565,161.69828)"/>
<use data-text="&#x27e9;" xlink:href="#font_3_2" transform="matrix(9.962799,0,0,-9.963098,198.32556,160.20421)"/>
<use data-text="&#x27e8;" xlink:href="#font_3_1" transform="matrix(9.962799,0,0,-9.963098,198.85359,160.20421)"/>
<use data-text="x" xlink:href="#font_1_2" transform="matrix(9.962799,0,0,-9.963098,202.72766,160.20421)"/>
<use data-text="6" xlink:href="#font_2_6" transform="matrix(6.97394,0,0,-6.9741489,208.42177,161.69828)"/>
<use data-text="," xlink:href="#font_1_1" transform="matrix(9.962799,0,0,-9.963098,212.89086,160.20421)"/>
<use data-text="y" xlink:href="#font_1_3" transform="matrix(9.962799,0,0,-9.963098,217.30438,160.20421)"/>
<use data-text="4" xlink:href="#font_2_4" transform="matrix(6.97394,0,0,-6.9741489,222.20406,161.69828)"/>
<use data-text="&#x27e9;" xlink:href="#font_3_2" transform="matrix(9.962799,0,0,-9.963098,226.67313,160.20421)"/>
<use data-text="&#x27e8;" xlink:href="#font_3_1" transform="matrix(9.962799,0,0,-9.963098,227.20117,160.20421)"/>
<use data-text="x" xlink:href="#font_1_2" transform="matrix(9.962799,0,0,-9.963098,231.07524,160.20421)"/>
<use data-text="6" xlink:href="#font_2_6" transform="matrix(6.97394,0,0,-6.9741489,236.76935,161.69828)"/>
<use data-text="," xlink:href="#font_1_1" transform="matrix(9.962799,0,0,-9.963098,241.23844,160.20421)"/>
<use data-text="y" xlink:href="#font_1_3" transform="matrix(9.962799,0,0,-9.963098,245.65196,160.20421)"/>
<use data-text="5" xlink:href="#font_2_5" transform="matrix(6.97394,0,0,-6.9741489,250.55164,161.69828)"/>
<use data-text="&#x27e9;" xlink:href="#font_3_2" transform="matrix(9.962799,0,0,-9.963098,255.0207,160.20421)"/>
<use data-text="&#x27e8;" xlink:href="#font_3_1" transform="matrix(9.962799,0,0,-9.963098,255.54775,160.20421)"/>
<use data-text="x" xlink:href="#font_1_2" transform="matrix(9.962799,0,0,-9.963098,259.4218,160.20421)"/>
<use data-text="6" xlink:href="#font_2_6" transform="matrix(6.97394,0,0,-6.9741489,265.1159,161.69828)"/>
<use data-text="," xlink:href="#font_1_1" transform="matrix(9.962799,0,0,-9.963098,269.58503,160.20421)"/>
<use data-text="y" xlink:href="#font_1_3" transform="matrix(9.962799,0,0,-9.963098,273.99855,160.20421)"/>
<use data-text="6" xlink:href="#font_2_6" transform="matrix(6.97394,0,0,-6.9741489,278.8982,161.69828)"/>
<use data-text="&#x27e9;" xlink:href="#font_3_2" transform="matrix(9.962799,0,0,-9.963098,283.36729,160.20421)"/>
<use data-text="&#x27e8;" xlink:href="#font_3_1" transform="matrix(9.962799,0,0,-9.963098,283.89533,160.20421)"/>
<use data-text="x" xlink:href="#font_1_2" transform="matrix(9.962799,0,0,-9.963098,287.76939,160.20421)"/>
<use data-text="6" xlink:href="#font_2_6" transform="matrix(6.97394,0,0,-6.9741489,293.4635,161.69828)"/>
<use data-text="," xlink:href="#font_1_1" transform="matrix(9.962799,0,0,-9.963098,297.93257,160.20421)"/>
<use data-text="y" xlink:href="#font_1_3" transform="matrix(9.962799,0,0,-9.963098,302.3461,160.20421)"/>
<use data-text="7" xlink:href="#font_2_7" transform="matrix(6.97394,0,0,-6.9741489,307.2458,161.69828)"/>
<use data-text="&#x27e9;" xlink:href="#font_3_2" transform="matrix(9.962799,0,0,-9.963098,311.71485,160.20421)"/>
<use data-text="&#x27e8;" xlink:href="#font_3_1" transform="matrix(9.962799,0,0,-9.963098,312.2429,160.20421)"/>
<use data-text="x" xlink:href="#font_1_2" transform="matrix(9.962799,0,0,-9.963098,316.11695,160.20421)"/>
<use data-text="6" xlink:href="#font_2_6" transform="matrix(6.97394,0,0,-6.9741489,321.81108,161.69828)"/>
<use data-text="," xlink:href="#font_1_1" transform="matrix(9.962799,0,0,-9.963098,326.28016,160.20421)"/>
<use data-text="y" xlink:href="#font_1_3" transform="matrix(9.962799,0,0,-9.963098,330.69367,160.20421)"/>
<use data-text="8" xlink:href="#font_2_8" transform="matrix(6.97394,0,0,-6.9741489,335.59336,161.69828)"/>
<use data-text="&#x27e9;" xlink:href="#font_3_2" transform="matrix(9.962799,0,0,-9.963098,340.06245,160.20421)"/>
<use data-text="&#x27e8;" xlink:href="#font_3_1" transform="matrix(9.962799,0,0,-9.963098,340.59043,160.20421)"/>
<use data-text="x" xlink:href="#font_1_2" transform="matrix(9.962799,0,0,-9.963098,344.46449,160.20421)"/>
<use data-text="6" xlink:href="#font_2_6" transform="matrix(6.97394,0,0,-6.9741489,350.1586,161.69828)"/>
<use data-text="," xlink:href="#font_1_1" transform="matrix(9.962799,0,0,-9.963098,354.6277,160.20421)"/>
<use data-text="y" xlink:href="#font_1_3" transform="matrix(9.962799,0,0,-9.963098,359.0412,160.20421)"/>
<use data-text="9" xlink:href="#font_2_9" transform="matrix(6.97394,0,0,-6.9741489,363.9409,161.69828)"/>
<use data-text="&#x27e9;" xlink:href="#font_3_2" transform="matrix(9.962799,0,0,-9.963098,368.40998,160.20421)"/>
<use data-text="&#x27e8;" xlink:href="#font_3_1" transform="matrix(9.962799,0,0,-9.963098,113.810909,188.55263)"/>
<use data-text="x" xlink:href="#font_1_2" transform="matrix(9.962799,0,0,-9.963098,117.684978,188.55263)"/>
<use data-text="7" xlink:href="#font_2_7" transform="matrix(6.97394,0,0,-6.9741489,123.37908,190.04669)"/>
<use data-text="," xlink:href="#font_1_1" transform="matrix(9.962799,0,0,-9.963098,127.84817,188.55263)"/>
<use data-text="y" xlink:href="#font_1_3" transform="matrix(9.962799,0,0,-9.963098,132.26169,188.55263)"/>
<use data-text="1" xlink:href="#font_2_1" transform="matrix(6.97394,0,0,-6.9741489,137.16138,190.04669)"/>
<use data-text="&#x27e9;" xlink:href="#font_3_2" transform="matrix(9.962799,0,0,-9.963098,141.63043,188.55263)"/>
<use data-text="&#x27e8;" xlink:href="#font_3_1" transform="matrix(9.962799,0,0,-9.963098,142.15848,188.55263)"/>
<use data-text="x" xlink:href="#font_1_2" transform="matrix(9.962799,0,0,-9.963098,146.03253,188.55263)"/>
<use data-text="7" xlink:href="#font_2_7" transform="matrix(6.97394,0,0,-6.9741489,151.72666,190.04669)"/>
<use data-text="," xlink:href="#font_1_1" transform="matrix(9.962799,0,0,-9.963098,156.19574,188.55263)"/>
<use data-text="y" xlink:href="#font_1_3" transform="matrix(9.962799,0,0,-9.963098,160.60926,188.55263)"/>
<use data-text="2" xlink:href="#font_2_2" transform="matrix(6.97394,0,0,-6.9741489,165.50894,190.04669)"/>
<use data-text="&#x27e9;" xlink:href="#font_3_2" transform="matrix(9.962799,0,0,-9.963098,169.978,188.55263)"/>
<use data-text="&#x27e8;" xlink:href="#font_3_1" transform="matrix(9.962799,0,0,-9.963098,170.50605,188.55263)"/>
<use data-text="x" xlink:href="#font_1_2" transform="matrix(9.962799,0,0,-9.963098,174.3801,188.55263)"/>
<use data-text="7" xlink:href="#font_2_7" transform="matrix(6.97394,0,0,-6.9741489,180.07422,190.04669)"/>
<use data-text="," xlink:href="#font_1_1" transform="matrix(9.962799,0,0,-9.963098,184.5433,188.55263)"/>
<use data-text="y" xlink:href="#font_1_3" transform="matrix(9.962799,0,0,-9.963098,188.95682,188.55263)"/>
<use data-text="3" xlink:href="#font_2_3" transform="matrix(6.97394,0,0,-6.9741489,193.8565,190.04669)"/>
<use data-text="&#x27e9;" xlink:href="#font_3_2" transform="matrix(9.962799,0,0,-9.963098,198.32556,188.55263)"/>
<use data-text="&#x27e8;" xlink:href="#font_3_1" transform="matrix(9.962799,0,0,-9.963098,198.85359,188.55263)"/>
<use data-text="x" xlink:href="#font_1_2" transform="matrix(9.962799,0,0,-9.963098,202.72766,188.55263)"/>
<use data-text="7" xlink:href="#font_2_7" transform="matrix(6.97394,0,0,-6.9741489,208.42177,190.04669)"/>
<use data-text="," xlink:href="#font_1_1" transform="matrix(9.962799,0,0,-9.963098,212.89086,188.55263)"/>
<use data-text="y" xlink:href="#font_1_3" transform="matrix(9.962799,0,0,-9.963098,217.30438,188.55263)"/>
<use data-text="4" xlink:href="#font_2_4" transform="matrix(6.97394,0,0,-6.9741489,222.20406,190.04669)"/>
<use data-text="&#x27e9;" xlink:href="#font_3_2" transform="matrix(9.962799,0,0,-9.963098,226.67313,188.55263)"/>
<use data-text="&#x27e8;" xlink:href="#font_3_1" transform="matrix(9.962799,0,0,-9.963098,227.20117,188.55263)"/>
<use data-text="x" xlink:href="#font_1_2" transform="matrix(9.962799,0,0,-9.963098,231.07524,188.55263)"/>
<use data-text="7" xlink:href="#font_2_7" transform="matrix(6.97394,0,0,-6.9741489,236.76935,190.04669)"/>
<use data-text="," xlink:href="#font_1_1" transform="matrix(9.962799,0,0,-9.963098,241.23844,188.55263)"/>
<use data-text="y" xlink:href="#font_1_3" transform="matrix(9.962799,0,0,-9.963098,245.65196,188.55263)"/>
<use data-text="5" xlink:href="#font_2_5" transform="matrix(6.97394,0,0,-6.9741489,250.55164,190.04669)"/>
<use data-text="&#x27e9;" xlink:href="#font_3_2" transform="matrix(9.962799,0,0,-9.963098,255.0207,188.55263)"/>
<use data-text="&#x27e8;" xlink:href="#font_3_1" transform="matrix(9.962799,0,0,-9.963098,255.54775,188.55263)"/>
<use data-text="x" xlink:href="#font_1_2" transform="matrix(9.962799,0,0,-9.963098,259.4218,188.55263)"/>
<use data-text="7" xlink:href="#font_2_7" transform="matrix(6.97394,0,0,-6.9741489,265.1159,190.04669)"/>
<use data-text="," xlink:href="#font_1_1" transform="matrix(9.962799,0,0,-9.963098,269.58503,188.55263)"/>
<use data-text="y" xlink:href="#font_1_3" transform="matrix(9.962799,0,0,-9.963098,273.99855,188.55263)"/>
<use data-text="6" xlink:href="#font_2_6" transform="matrix(6.97394,0,0,-6.9741489,278.8982,190.04669)"/>
<use data-text="&#x27e9;" xlink:href="#font_3_2" transform="matrix(9.962799,0,0,-9.963098,283.36729,188.55263)"/>
<use data-text="&#x27e8;" xlink:href="#font_3_1" transform="matrix(9.962799,0,0,-9.963098,283.89533,188.55263)"/>
<use data-text="x" xlink:href="#font_1_2" transform="matrix(9.962799,0,0,-9.963098,287.76939,188.55263)"/>
<use data-text="7" xlink:href="#font_2_7" transform="matrix(6.97394,0,0,-6.9741489,293.4635,190.04669)"/>
<use data-text="," xlink:href="#font_1_1" transform="matrix(9.962799,0,0,-9.963098,297.93257,188.55263)"/>
<use data-text="y" xlink:href="#font_1_3" transform="matrix(9.962799,0,0,-9.963098,302.3461,188.55263)"/>
<use data-text="7" xlink:href="#font_2_7" transform="matrix(6.97394,0,0,-6.9741489,307.2458,190.04669)"/>
<use data-text="&#x27e9;" xlink:href="#font_3_2" transform="matrix(9.962799,0,0,-9.963098,311.71485,188.55263)"/>
<use data-text="&#x27e8;" xlink:href="#font_3_1" transform="matrix(9.962799,0,0,-9.963098,312.2429,188.55263)"/>
<use data-text="x" xlink:href="#font_1_2" transform="matrix(9.962799,0,0,-9.963098,316.11695,188.55263)"/>
<use data-text="7" xlink:href="#font_2_7" transform="matrix(6.97394,0,0,-6.9741489,321.81108,190.04669)"/>
<use data-text="," xlink:href="#font_1_1" transform="matrix(9.962799,0,0,-9.963098,326.28016,188.55263)"/>
<use data-text="y" xlink:href="#font_1_3" transform="matrix(9.962799,0,0,-9.963098,330.69367,188.55263)"/>
<use data-text="8" xlink:href="#font_2_8" transform="matrix(6.97394,0,0,-6.9741489,335.59336,190.04669)"/>
<use data-text="&#x27e9;" xlink:href="#font_3_2" transform="matrix(9.962799,0,0,-9.963098,340.06245,188.55263)"/>
<use data-text="&#x27e8;" xlink:href="#font_3_1" transform="matrix(9.962799,0,0,-9.963098,340.59043,188.55263)"/>
<use data-text="x" xlink:href="#font_1_2" transform="matrix(9.962799,0,0,-9.963098,344.46449,188.55263)"/>
<use data-text="7" xlink:href="#font_2_7" transform="matrix(6.97394,0,0,-6.9741489,350.1586,190.04669)"/>
<use data-text="," xlink:href="#font_1_1" transform="matrix(9.962799,0,0,-9.963098,354.6277,188.55263)"/>
<use data-text="y" xlink:href="#font_1_3" transform="matrix(9.962799,0,0,-9.963098,359.0412,188.55263)"/>
<use data-text="9" xlink:href="#font_2_9" transform="matrix(6.97394,0,0,-6.9741489,363.9409,190.04669)"/>
<use data-text="&#x27e9;" xlink:href="#font_3_2" transform="matrix(9.962799,0,0,-9.963098,368.40998,188.55263)"/>
<use data-text="&#x27e8;" xlink:href="#font_3_1" transform="matrix(9.962799,0,0,-9.963098,113.810909,216.90004)"/>
<use data-text="x" xlink:href="#font_1_2" transform="matrix(9.962799,0,0,-9.963098,117.684978,216.90004)"/>
<use data-text="8" xlink:href="#font_2_8" transform="matrix(6.97394,0,0,-6.9741489,123.37908,218.3941)"/>
<use data-text="," xlink:href="#font_1_1" transform="matrix(9.962799,0,0,-9.963098,127.84817,216.90004)"/>
<use data-text="y" xlink:href="#font_1_3" transform="matrix(9.962799,0,0,-9.963098,132.26169,216.90004)"/>
<use data-text="1" xlink:href="#font_2_1" transform="matrix(6.97394,0,0,-6.9741489,137.16138,218.3941)"/>
<use data-text="&#x27e9;" xlink:href="#font_3_2" transform="matrix(9.962799,0,0,-9.963098,141.63043,216.90004)"/>
<use data-text="&#x27e8;" xlink:href="#font_3_1" transform="matrix(9.962799,0,0,-9.963098,142.15848,216.90004)"/>
<use data-text="x" xlink:href="#font_1_2" transform="matrix(9.962799,0,0,-9.963098,146.03253,216.90004)"/>
<use data-text="8" xlink:href="#font_2_8" transform="matrix(6.97394,0,0,-6.9741489,151.72666,218.3941)"/>
<use data-text="," xlink:href="#font_1_1" transform="matrix(9.962799,0,0,-9.963098,156.19574,216.90004)"/>
<use data-text="y" xlink:href="#font_1_3" transform="matrix(9.962799,0,0,-9.963098,160.60926,216.90004)"/>
<use data-text="2" xlink:href="#font_2_2" transform="matrix(6.97394,0,0,-6.9741489,165.50894,218.3941)"/>
<use data-text="&#x27e9;" xlink:href="#font_3_2" transform="matrix(9.962799,0,0,-9.963098,169.978,216.90004)"/>
<use data-text="&#x27e8;" xlink:href="#font_3_1" transform="matrix(9.962799,0,0,-9.963098,170.50605,216.90004)"/>
<use data-text="x" xlink:href="#font_1_2" transform="matrix(9.962799,0,0,-9.963098,174.3801,216.90004)"/>
<use data-text="8" xlink:href="#font_2_8" transform="matrix(6.97394,0,0,-6.9741489,180.07422,218.3941)"/>
<use data-text="," xlink:href="#font_1_1" transform="matrix(9.962799,0,0,-9.963098,184.5433,216.90004)"/>
<use data-text="y" xlink:href="#font_1_3" transform="matrix(9.962799,0,0,-9.963098,188.95682,216.90004)"/>
<use data-text="3" xlink:href="#font_2_3" transform="matrix(6.97394,0,0,-6.9741489,193.8565,218.3941)"/>
<use data-text="&#x27e9;" xlink:href="#font_3_2" transform="matrix(9.962799,0,0,-9.963098,198.32556,216.90004)"/>
<use data-text="&#x27e8;" xlink:href="#font_3_1" transform="matrix(9.962799,0,0,-9.963098,198.85359,216.90004)"/>
<use data-text="x" xlink:href="#font_1_2" transform="matrix(9.962799,0,0,-9.963098,202.72766,216.90004)"/>
<use data-text="8" xlink:href="#font_2_8" transform="matrix(6.97394,0,0,-6.9741489,208.42177,218.3941)"/>
<use data-text="," xlink:href="#font_1_1" transform="matrix(9.962799,0,0,-9.963098,212.89086,216.90004)"/>
<use data-text="y" xlink:href="#font_1_3" transform="matrix(9.962799,0,0,-9.963098,217.30438,216.90004)"/>
<use data-text="4" xlink:href="#font_2_4" transform="matrix(6.97394,0,0,-6.9741489,222.20406,218.3941)"/>
<use data-text="&#x27e9;" xlink:href="#font_3_2" transform="matrix(9.962799,0,0,-9.963098,226.67313,216.90004)"/>
<use data-text="&#x27e8;" xlink:href="#font_3_1" transform="matrix(9.962799,0,0,-9.963098,227.20117,216.90004)"/>
<use data-text="x" xlink:href="#font_1_2" transform="matrix(9.962799,0,0,-9.963098,231.07524,216.90004)"/>
<use data-text="8" xlink:href="#font_2_8" transform="matrix(6.97394,0,0,-6.9741489,236.76935,218.3941)"/>
<use data-text="," xlink:href="#font_1_1" transform="matrix(9.962799,0,0,-9.963098,241.23844,216.90004)"/>
<use data-text="y" xlink:href="#font_1_3" transform="matrix(9.962799,0,0,-9.963098,245.65196,216.90004)"/>
<use data-text="5" xlink:href="#font_2_5" transform="matrix(6.97394,0,0,-6.9741489,250.55164,218.3941)"/>
<use data-text="&#x27e9;" xlink:href="#font_3_2" transform="matrix(9.962799,0,0,-9.963098,255.0207,216.90004)"/>
<use data-text="&#x27e8;" xlink:href="#font_3_1" transform="matrix(9.962799,0,0,-9.963098,255.54775,216.90004)"/>
<use data-text="x" xlink:href="#font_1_2" transform="matrix(9.962799,0,0,-9.963098,259.4218,216.90004)"/>
<use data-text="8" xlink:href="#font_2_8" transform="matrix(6.97394,0,0,-6.9741489,265.1159,218.3941)"/>
<use data-text="," xlink:href="#font_1_1" transform="matrix(9.962799,0,0,-9.963098,269.58503,216.90004)"/>
<use data-text="y" xlink:href="#font_1_3" transform="matrix(9.962799,0,0,-9.963098,273.99855,216.90004)"/>
<use data-text="6" xlink:href="#font_2_6" transform="matrix(6.97394,0,0,-6.9741489,278.8982,218.3941)"/>
<use data-text="&#x27e9;" xlink:href="#font_3_2" transform="matrix(9.962799,0,0,-9.963098,283.36729,216.90004)"/>
<use data-text="&#x27e8;" xlink:href="#font_3_1" transform="matrix(9.962799,0,0,-9.963098,283.89533,216.90004)"/>
<use data-text="x" xlink:href="#font_1_2" transform="matrix(9.962799,0,0,-9.963098,287.76939,216.90004)"/>
<use data-text="8" xlink:href="#font_2_8" transform="matrix(6.97394,0,0,-6.9741489,293.4635,218.3941)"/>
<use data-text="," xlink:href="#font_1_1" transform="matrix(9.962799,0,0,-9.963098,297.93257,216.90004)"/>
<use data-text="y" xlink:href="#font_1_3" transform="matrix(9.962799,0,0,-9.963098,302.3461,216.90004)"/>
<use data-text="7" xlink:href="#font_2_7" transform="matrix(6.97394,0,0,-6.9741489,307.2458,218.3941)"/>
<use data-text="&#x27e9;" xlink:href="#font_3_2" transform="matrix(9.962799,0,0,-9.963098,311.71485,216.90004)"/>
<use data-text="&#x27e8;" xlink:href="#font_3_1" transform="matrix(9.962799,0,0,-9.963098,312.2429,216.90004)"/>
<use data-text="x" xlink:href="#font_1_2" transform="matrix(9.962799,0,0,-9.963098,316.11695,216.90004)"/>
<use data-text="8" xlink:href="#font_2_8" transform="matrix(6.97394,0,0,-6.9741489,321.81108,218.3941)"/>
<use data-text="," xlink:href="#font_1_1" transform="matrix(9.962799,0,0,-9.963098,326.28016,216.90004)"/>
<use data-text="y" xlink:href="#font_1_3" transform="matrix(9.962799,0,0,-9.963098,330.69367,216.90004)"/>
<use data-text="8" xlink:href="#font_2_8" transform="matrix(6.97394,0,0,-6.9741489,335.59336,218.3941)"/>
<use data-text="&#x27e9;" xlink:href="#font_3_2" transform="matrix(9.962799,0,0,-9.963098,340.06245,216.90004)"/>
<use data-text="&#x27e8;" xlink:href="#font_3_1" transform="matrix(9.962799,0,0,-9.963098,340.59043,216.90004)"/>
<use data-text="x" xlink:href="#font_1_2" transform="matrix(9.962799,0,0,-9.963098,344.46449,216.90004)"/>
<use data-text="8" xlink:href="#font_2_8" transform="matrix(6.97394,0,0,-6.9741489,350.1586,218.3941)"/>
<use data-text="," xlink:href="#font_1_1" transform="matrix(9.962799,0,0,-9.963098,354.6277,216.90004)"/>
<use data-text="y" xlink:href="#font_1_3" transform="matrix(9.962799,0,0,-9.963098,359.0412,216.90004)"/>
<use data-text="9" xlink:href="#font_2_9" transform="matrix(6.97394,0,0,-6.9741489,363.9409,218.3941)"/>
<use data-text="&#x27e9;" xlink:href="#font_3_2" transform="matrix(9.962799,0,0,-9.963098,368.40998,216.90004)"/>
</svg>
