<svg xmlns="http://www.w3.org/2000/svg" xmlns:xlink="http://www.w3.org/1999/xlink" xmlns:inkscape="http://www.inkscape.org/namespaces/inkscape" version="1.1" width="77" height="78" viewBox="0 0 77 78">
<defs>
<path id="font_1_2" d="M.30299378 .3157959H.47299195C.61499026 .3157959 .7539978 .41973878 .7539978 .53167727 .7539978 .6086273 .6879883 .6826172 .5569916 .6826172H.23298645C.21398926 .6826172 .20298767 .6826172 .20298767 .66360476 .20298767 .6516113 .21199036 .6516113 .23199463 .6516113 .24499512 .6516113 .2630005 .65060427 .2749939 .6496124 .29100038 .6476135 .29699708 .64460757 .29699708 .6336212 .29699708 .6296234 .29599 .62661746 .29299928 .614624L.15899658 .07795715C.14898682 .038986207 .14698792 .0309906 .067993167 .0309906 .050994874 .0309906 .039993287 .0309906 .039993287 .011993408 .039993287 0 .051986696 0 .054992677 0 .08299255 0 .1539917 .0029907227 .18199158 .0029907227 .20298767 .0029907227 .22499085 .0019989014 .24598694 .0019989014 .2679901 .0019989014 .2899933 0 .31098939 0 .31799317 0 .33099366 0 .33099366 .019989014 .33099366 .0309906 .32199098 .0309906 .30299378 .0309906 .2659912 .0309906 .23799134 .0309906 .23799134 .048980714 .23799134 .054977418 .23999024 .05996704 .24099732 .065963748L.30299378 .3157959M.375 .6136322C.38398744 .64860537 .38598634 .6516113 .42900086 .6516113H.5249939C.60798647 .6516113 .6609955 .62461856 .6609955 .55566409 .6609955 .5166931 .6409912 .43074037 .60198977 .39476014 .5519867 .34977723 .49198915 .34179688 .44799806 .34179688H.30699159L.375 .6136322Z"/>
<path id="font_2_1" d="M.36099244 .5739441C.29299928 .5139618 .27398683 .43096925 .27398683 .41996766 .27398683 .41096498 .2809906 .40596009 .28799439 .40596009 .29699708 .40596009 .30599977 .4099579 .30899049 .42095948 .34498597 .552948 .43899537 .58496096 .44198609 .58496096 .44898988 .58595278 .46299745 .58695986 .46299745 .6019592 .46299745 .6189575 .44499208 .6189575 .43699647 .6189575 .4229889 .6189575 .4019928 .6169586 .3880005 .61395266 .3849945 .61395266 .3809967 .6129608 .37799073 .6129608 .375 .6129608 .33999635 .61595156 .2979889 .63694766 .2669983 .6529541 .25099183 .6679535 .23498535 .68196108 .23098755 .68595889 .22799683 .6889496 .22299195 .6889496 .21899414 .6889496 .20098877 .6869507 .20098877 .6729584 .20098877 .6589508 .25 .6189575 .31098939 .59295657 .18598938 .5459595 .07798767 .41596986 .07798767 .25097657 .07798767 .04399109 .24398804-.117996219 .44599916-.117996219 .6499939-.117996219 .81399539 .04699707 .81399539 .24998474 .81399539 .48095704 .6179962 .58395388 .598999 .58395388 .59098818 .58395388 .58200076 .575943 .58200076 .56695559 .58200076 .5569458 .58699038 .5539551 .60398867 .5459595 .71798709 .48495484 .7799988 .3659668 .7799988 .25097657 .7799988 .06500244 .6299896-.083984378 .44599916-.083984378 .2599945-.083984378 .11199951 .06700134 .11199951 .24998474 .11199951 .3829651 .19299317 .526947 .36099244 .5739441Z"/>
<path id="font_3_1" d="M.6329956 .5659027C.6329956 .65405276 .5569916 .7050934 .46899415 .7050934 .33198548 .7050934 .23098755 .5488739 .20599365 .44769288L.04899597-.18234253C.04699707-.18934632 .056991579-.19433594 .06298828-.19433594 .07199097-.19433594 .07998657-.19334412 .08198547-.18734741L.14898682 .08015442C.16999817 .034240724 .21798706-.008728027 .29899598-.008728027 .43899537-.008728027 .5970001 .09213257 .5970001 .24482727 .5970001 .30371095 .56999209 .36358644 .5189972 .3966217 .56799319 .42765809 .6329956 .48475648 .6329956 .5659027M.43499757 .39762879C.41999818 .39460755 .41299439 .39059449 .38398744 .39059449 .36799623 .39059449 .34399415 .39160157 .33699037 .39561463 .34700013 .4016571 .375 .40264894 .38398744 .40264894 .39898683 .40264894 .42099 .4016571 .43499757 .39762879M.5669861 .58392336C.5669861 .530838 .54100039 .45269776 .47898866 .41766358 .45999146 .42366029 .44099427 .43066407 .3849945 .43066407 .34999085 .43066407 .2999878 .4286499 .2999878 .39259339 .2999878 .3675995 .33099366 .36358644 .38198854 .36358644 .41600038 .36358644 .44599916 .3685913 .47698976 .377594 .5069885 .35661317 .522995 .3156891 .522995 .2717743 .522995 .12705994 .42399598 .01927185 .3019867 .01927185 .22499085 .01927185 .16999817 .06617737 .16999817 .14501953 .16999817 .15499878 .17098999 .16497803 .17298889 .17396546L.23899842 .43966676C.2630005 .5348358 .35099793 .6770935 .46699525 .6770935 .526001 .6770935 .5669861 .6450348 .5669861 .58392336Z"/>
<path id="font_1_1" d="M.54100039 .6096039C.548996 .64260867 .5509949 .6516113 .60598757 .6516113 .621994 .6516113 .6329956 .6516113 .6329956 .6706085 .6329956 .6796112 .6269989 .6826172 .61898806 .6826172 .59399417 .6826172 .5329895 .6796112 .5079956 .6796112 .47499085 .6796112 .3939972 .6826172 .36099244 .6826172 .35198976 .6826172 .33999635 .6826172 .33999635 .6626129 .33999635 .6516113 .34799195 .6516113 .37399293 .6516113 .39698792 .6516113 .40699769 .6516113 .43199159 .6496124 .45599366 .64660647 .46299745 .64360049 .46299745 .62960818 .46299745 .62361147 .46099855 .61660769 .45899964 .60861209L.34399415 .1496582C.31999208 .052642824 .2519989-.00047302247 .19999695-.00047302247 .17399597-.00047302247 .12098694 .009552002 .10499573 .061660768 .10798645 .060653688 .114990238 .060653688 .116989139 .060653688 .1559906 .060653688 .18199158 .09465027 .18199158 .12464905 .18199158 .15666199 .15499878 .1666565 .13798523 .1666565 .11999512 .1666565 .070999149 .15466309 .070999149 .08665466 .070999149 .02458191 .12399292-.022460938 .20298767-.022460938 .29499818-.022460938 .39898683 .043624879 .42399598 .14265442L.54100039 .6096039Z"/>
<path id="font_3_2" d="M.44699098 .1402893C.44198609 .19831848 .4079895 .44140626 .24499512 .44140626 .18598938 .44140626 .1349945 .4093933 .10699463 .38339234 .04598999 .3283844 .033996583 .26435853 .033996583 .26135255 .033996583 .24934387 .04699707 .24934387 .049987794 .24934387 .06298828 .24934387 .06399536 .25134278 .068984989 .26635743 .08999634 .32537843 .1639862 .36140443 .23098755 .36140443 .3919983 .36140443 .41299439 .20031739 .41299439 .0982666 .41299439 .04824829 .4099884 .037231447 .4059906 .026229859 .3829956-.048797609 .35299684-.15985108 .35299684-.18988037 .35299684-.20088196 .35699464-.21386719 .36999513-.21386719 .3769989-.21386719 .3880005-.21386719 .4039917-.16186524 .41600038-.12283325 .43499757-.048797609 .44299317 .023239136 .44699098 .058242799 .5029907 .1933136 .5239868 .24133301 .5379944 .27235414 .5589905 .3193817 .60598757 .4064026 .60899356 .4113922 .61099246 .41540528 .61099246 .41940309 .61099246 .43139649 .59799197 .43139649 .59498599 .43139649 .59199526 .43139649 .58299258 .43139649 .5799866 .4263916 .56799319 .4053955 .49198915 .26234437 .44699098 .1402893Z"/>
<path id="font_3_3" d="M.40699769 .39465333H.5049896C.5249939 .39465333 .5379944 .39465333 .5379944 .4166565 .5379944 .43066407 .5249939 .43066407 .5069885 .43066407H.4139862C.43699647 .5580139 .44499208 .6040497 .45298768 .63305667 .45799256 .6550598 .47999574 .6760864 .5039978 .6760864 .5049896 .6760864 .5319977 .6760864 .5509949 .6640625 .5099945 .651062 .5069885 .61505129 .5069885 .60905459 .5069885 .5870514 .5239868 .572052 .5469971 .572052 .57398989 .572052 .60398867 .59506228 .60398867 .63305667 .60398867 .6790924 .5549927 .70410159 .5039978 .70410159 .45999146 .70410159 .41099549 .6790924 .38398744 .62905886 .3639984 .5920563 .35598756 .5469818 .33499146 .43066407H.2559967C.23599243 .43066407 .22299195 .43066407 .22299195 .4086609 .22299195 .39465333 .23599243 .39465333 .2539978 .39465333H.32798768C.32699586 .38865663 .2639923 .028869629 .23999024-.078063968 .23498535-.10006714 .21798706-.17610169 .16999817-.17610169 .16899109-.17610169 .14498902-.17610169 .12599182-.1640625 .16699219-.15107727 .16999817-.11506653 .16999817-.109069827 .16999817-.08706665 .15299988-.07206726 .12998963-.07206726 .102996829-.07206726 .07299805-.095077518 .07299805-.1330719 .07299805-.17811585 .11999512-.20410156 .16999817-.20410156 .23399353-.20410156 .27799989-.13807678 .2899933-.11607361 .32598878-.049087526 .34899903 .07385254 .35099793 .08584595L.40699769 .39465333Z"/>
<path id="font_4_1" d="M.72698977 .68881228C.72299197 .70980837 .71899417 .7158203 .69699099 .7158203 .6729889 .7158203 .6669922 .70780947 .6569977 .69281008L.2649994 .124816898C.22299195 .063949588 .18798828 .04798889 .12298584 .04498291 .10398865 .04399109 .10398865 .017990113 .10398865 .016998291 .10398865 .0029907227 .115997318 0 .11999512 0 .13398743 0 .15098572 .0029907227 .16499329 .0029907227 .18199158 .0029907227 .19898987 .0039978029 .21598816 .0039978029 .23498535 .0039978029 .25299073 .0029907227 .2709961 .0029907227 .2889862 .0029907227 .30999757 0 .32798768 0 .33499146 0 .35198976 0 .35198976 .027999878 .35198976 .04399109 .33699037 .04498291 .33299256 .04498291 .32499696 .04498291 .28599549 .04698181 .28599549 .07093811 .28599549 .082901 .2979889 .099868778 .30499269 .10984802L.37799073 .21661377C.3829956 .22261048 .38398744 .2236023 .40299989 .2236023H.70599368C.70799258 .21162415 .70899966 .20663452 .71199038 .19467163 .71499636 .17671204 .7350006 .076919559 .7350006 .06694031 .7350006 .04498291 .6719971 .04498291 .6669922 .04498291 .6519928 .04498291 .6359863 .04498291 .6359863 .016998291 .6359863 .0069885256 .6429901 0 .6539917 0 .6749878 0 .69898989 .0029907227 .72099307 .0029907227 .7449951 .0029907227 .7679901 .0039978029 .7919922 .0039978029 .8129883 .0039978029 .83499148 .0029907227 .85598757 .0029907227 .8759918 .0029907227 .8989868 0 .9189911 0 .9359894 0 .94299319 .011993408 .94299319 .027999878 .94299319 .04498291 .9269867 .04498291 .9129944 .04498291 .8470001 .04498291 .84599307 .051971437 .84199526 .07392883L.72698977 .68881228M.6369934 .5927582 .69799807 .26860047H.4139862L.6369934 .5927582Z"/>
<path id="font_4_2" d="M.24598694 .082962039C.23799134 .052993776 .23699951 .04499817 .1599884 .04499817 .1349945 .04499817 .11898804 .04499817 .11898804 .016998291 .11898804 0 .1349945 0 .1519928 0H.55400088C.78900149 0 1.0279999 .18989563 1.0279999 .41175843 1.0279999 .5766449 .8959961 .6826172 .723999 .6826172H.31399537C.2939911 .6826172 .2789917 .6826172 .2789917 .65460208 .2789917 .637619 .29100038 .637619 .31599427 .637619 .32598878 .637619 .35899354 .637619 .37998963 .6316223 .37998963 .6196289 .37998963 .61763 .3769989 .6066284L.24598694 .082962039M.47698976 .6046295C.4850006 .6356201 .4850006 .637619 .5269928 .637619H.68499758C.7549896 .637619 .82199099 .6196289 .8639984 .5826416 .901001 .54867556 .9229889 .5076904 .9229889 .43774415 .9229889 .37478639 .8989868 .24786377 .82398989 .16390991 .7489929 .07997131 .6380005 .04499817 .5369873 .04499817H.37098695C.36299134 .04499817 .34899903 .04499817 .33898927 .04699707 .33999635 .055984498 .33999635 .0579834 .34199525 .064971927L.47698976 .6046295Z"/>
</defs>
<use data-text="P" xlink:href="#font_1_2" transform="matrix(9.962899,0,0,-9.962899,1.2175903,14.869087)"/>
<use data-text="&#x27f3;" xlink:href="#font_2_1" transform="matrix(6.9740097,0,0,-6.9740097,8.997818,11.252975)"/>
<use data-text="&#x03b2;" xlink:href="#font_3_1" transform="matrix(6.9740097,0,0,-6.9740097,15.225006,11.252975)"/>
<use data-text="J" xlink:href="#font_1_1" transform="matrix(9.962899,0,0,-9.962899,58.692319,14.579079)"/>
<use data-text="&#x27f3;" xlink:href="#font_2_1" transform="matrix(6.9740097,0,0,-6.9740097,65.17551,10.962967)"/>
<use data-text="&#x03b3;" xlink:href="#font_3_2" transform="matrix(6.9740097,0,0,-6.9740097,71.402698,10.962967)"/>
<use data-text="P" xlink:href="#font_1_2" transform="matrix(9.962899,0,0,-9.962899,1.2175903,71.56379)"/>
<use data-text="&#x27f3;" xlink:href="#font_2_1" transform="matrix(6.9740097,0,0,-6.9740097,8.997818,67.94768)"/>
<use data-text="&#x03b2;" xlink:href="#font_3_1" transform="matrix(6.9740097,0,0,-6.9740097,15.225006,67.94768)"/>
<use data-text="J" xlink:href="#font_1_1" transform="matrix(9.962899,0,0,-9.962899,58.692319,71.27378)"/>
<use data-text="&#x27f3;" xlink:href="#font_2_1" transform="matrix(6.9740097,0,0,-6.9740097,65.17551,67.65767)"/>
<use data-text="&#x03b3;" xlink:href="#font_3_2" transform="matrix(6.9740097,0,0,-6.9740097,71.402698,67.65767)"/>
<path transform="matrix(1.00003,0,0,-1.00003,10.907883,67.33466)" stroke-width=".3985" stroke-linecap="butt" stroke-miterlimit="10" stroke-linejoin="miter" fill="none" stroke="#000000" d="M13.21017 56.69362H41.19916"/>
<path transform="matrix(1.00003,0,0,-1.00003,50.390039,10.639343)" d="M4.21463 0 .64343 1.34572 1.8178 0 .64343-1.34572Z"/>
<path transform="matrix(1.00003,0,0,-1.00003,50.390039,10.639343)" stroke-width=".3985" stroke-linecap="butt" stroke-miterlimit="10" stroke-linejoin="miter" fill="none" stroke="#000000" d="M4.21463 0 .64343 1.34572 1.8178 0 .64343-1.34572Z"/>
<use data-text="f" xlink:href="#font_3_3" transform="matrix(6.9740097,0,0,-6.9740097,34.872606,5.763813)"/>
<use data-text="A" xlink:href="#font_4_1" transform="matrix(4.9814498,0,0,-4.9814498,38.75772,6.764843)"/>
<path transform="matrix(1.00003,0,0,-1.00003,10.907883,67.33466)" stroke-width=".3985" stroke-linecap="butt" stroke-miterlimit="10" stroke-linejoin="miter" fill="none" stroke="#000000" d="M13.21017 0H41.19916"/>
<path transform="matrix(1.00003,0,0,-1.00003,50.390039,67.33466)" d="M4.21463 0 .64343 1.34572 1.8178 0 .64343-1.34572Z"/>
<path transform="matrix(1.00003,0,0,-1.00003,50.390039,67.33466)" stroke-width=".3985" stroke-linecap="butt" stroke-miterlimit="10" stroke-linejoin="miter" fill="none" stroke="#000000" d="M4.21463 0 .64343 1.34572 1.8178 0 .64343-1.34572Z"/>
<use data-text="f" xlink:href="#font_3_3" transform="matrix(6.9740097,0,0,-6.9740097,34.602594,75.697917)"/>
<use data-text="D" xlink:href="#font_4_2" transform="matrix(4.9814498,0,0,-4.9814498,38.48771,76.698947)"/>
<path transform="matrix(1.00003,0,0,-1.00003,10.907883,67.33466)" stroke-width=".3985" stroke-linecap="butt" stroke-miterlimit="10" stroke-linejoin="miter" fill="none" stroke="#000000" d="M0 48.94458V10.81293"/>
<path transform="matrix(0,1.00003,1.00003,0,10.907883,54.803178)" d="M4.21463 0 .64343 1.34572 1.8178 0 .64343-1.34572Z"/>
<path transform="matrix(0,1.00003,1.00003,0,10.907883,54.803178)" stroke-width=".3985" stroke-linecap="butt" stroke-miterlimit="10" stroke-linejoin="miter" fill="none" stroke="#000000" d="M4.21463 0 .64343 1.34572 1.8178 0 .64343-1.34572Z"/>
<use data-text="&#x03b2;" xlink:href="#font_3_1" transform="matrix(6.9740097,0,0,-6.9740097,2.5116273,40.730867)"/>
<path transform="matrix(1.00003,0,0,-1.00003,10.907883,67.33466)" stroke-width=".3985" stroke-linecap="butt" stroke-miterlimit="10" stroke-linejoin="miter" fill="none" stroke="#000000" d="M56.69362 49.2343V10.52321"/>
<path transform="matrix(0,1.00003,1.00003,0,67.6032,55.092897)" d="M4.21463 0 .64343 1.34572 1.8178 0 .64343-1.34572Z"/>
<path transform="matrix(0,1.00003,1.00003,0,67.6032,55.092897)" stroke-width=".3985" stroke-linecap="butt" stroke-miterlimit="10" stroke-linejoin="miter" fill="none" stroke="#000000" d="M4.21463 0 .64343 1.34572 1.8178 0 .64343-1.34572Z"/>
<use data-text="&#x03b3;" xlink:href="#font_3_2" transform="matrix(6.9740097,0,0,-6.9740097,71.122699,39.810838)"/>
</svg>
