<svg xmlns="http://www.w3.org/2000/svg" xmlns:xlink="http://www.w3.org/1999/xlink" xmlns:inkscape="http://www.inkscape.org/namespaces/inkscape" version="1.1" width="92" height="74" viewBox="0 0 92 74">
<defs>
<path id="font_1_2" d="M.5279999 .39300538C.5219879 .42799378 .5079956 .4750061 .47099305 .52500918L.47599793 .54499819C.6119995 .5039978 .69599917 .38000489 .69599917 .25 .69599917 .07899475 .55599978-.058013917 .3889923-.058013917 .21798706-.058013917 .08099365 .08099365 .08099365 .25 .08099365 .32199098 .10899353 .44799806 .24798584 .5240021 .2579956 .52900698 .2619934 .5319977 .2619934 .53900149 .2619934 .54100039 .26098634 .55101016 .25 .55101016 .23199463 .55101016 .055999757 .45599366 .055999757 .25 .055999757 .06498718 .20698548-.08300781 .3880005-.08300781 .57299807-.08300781 .72099307 .067993167 .72099307 .25 .72099307 .3730011 .6499939 .5110016 .4909973 .56700137 .49499513 .56900027 .5549927 .5949402 .59999087 .64675906 .59498599 .64775088 .5779877 .65275576 .57099917 .65475466 .5130005 .59295657 .44699098 .57899478 .44400025 .57899478 .44099427 .57899478 .41299439 .5830078 .39698792 .5830078 .3889923 .5830078 .37599183 .5830078 .37599183 .5700073 .37599183 .55900576 .3880005 .55799868 .394989 .55799868 .4079895 .55700686 .40899659 .55700686 .4249878 .54100039 .46699525 .5 .4889984 .45199586 .49798585 .4019928L.5279999 .39300538Z"/>
<path id="font_2_1" d="M.44400025 .24998474C.44400025 .35688783 .35499574 .44381715 .25 .44381715 .14199829 .44381715 .054992677 .35488893 .054992677 .24998474 .054992677 .14407349 .14199829 .056137086 .25 .056137086 .35499574 .056137086 .44400025 .14308167 .44400025 .24998474Z"/>
<path id="font_1_1" d="M.30599977 .52500918C.269989 .477005 .25498963 .42999269 .24899292 .39300538L.2789917 .4019928C.28599549 .44299317 .3039856 .4900055 .34399415 .5339966 .3659973 .55700686 .37098695 .55799868 .37998963 .55799868 .3899994 .55799868 .40098573 .55900576 .40098573 .5700073 .40098573 .5830078 .3880005 .5830078 .37998963 .5830078 .3639984 .5830078 .33599855 .57899478 .33299256 .57899478 .32998658 .57899478 .2630005 .59295657 .20599365 .65475466 .19898987 .65275576 .18199158 .64775088 .1769867 .64675906 .22200012 .5949402 .28199769 .56900027 .28599549 .56700137 .12599182 .5110016 .055999757 .37199403 .055999757 .25 .055999757 .06498718 .20698548-.08300781 .3880005-.08300781 .57299807-.08300781 .72099307 .067993167 .72099307 .25 .72099307 .45500184 .54499819 .55101016 .5269928 .55101016 .5159912 .55101016 .5149994 .54100039 .5149994 .53900149 .5149994 .5319977 .519989 .52900698 .5279999 .52500918 .66999819 .44700624 .69599917 .31900025 .69599917 .25 .69599917 .07899475 .55599978-.058013917 .3889923-.058013917 .21798706-.058013917 .08099365 .08099365 .08099365 .25 .08099365 .3809967 .16499329 .5039978 .30099488 .54499819L.30599977 .52500918Z"/>
</defs>
<use data-text="&#x27f2;" xlink:href="#font_1_2" transform="matrix(9.962799,0,0,-9.962899,4.603798,39.452795)"/>
<use data-text="&#x2022;" xlink:href="#font_2_1" transform="matrix(9.962799,0,0,-9.962899,15.12101,39.452795)"/>
<use data-text="&#x27f3;" xlink:href="#font_1_1" transform="matrix(9.962799,0,0,-9.962899,22.869164,39.452795)"/>
<path transform="matrix(1.00002,0,0,-1.00003,-101.396327,-12.85878)" stroke-width=".3985" stroke-linecap="butt" stroke-miterlimit="10" stroke-linejoin="miter" fill="none" stroke="#000000" d="M102.611-43.324H135.399"/>
<path transform="matrix(1.00002,0,0,-1.00003,-101.396327,-12.85878)" stroke-width=".3985" stroke-linecap="butt" stroke-miterlimit="10" stroke-linejoin="miter" fill="none" stroke="#000000" d="M102.81-56.315V-43.324"/>
<path transform="matrix(1.00002,0,0,-1.00003,-101.396327,-12.85878)" stroke-width=".3985" stroke-linecap="butt" stroke-miterlimit="10" stroke-linejoin="miter" fill="none" stroke="#000000" d="M135.2-56.315V-43.324"/>
<path transform="matrix(1.00002,0,0,-1.00003,-101.396327,-12.85878)" stroke-width=".3985" stroke-linecap="butt" stroke-miterlimit="10" stroke-linejoin="miter" fill="none" stroke="#000000" d="M102.611-56.315H135.399"/>
<use data-text="&#x27f2;" xlink:href="#font_1_2" transform="matrix(9.962799,0,0,-9.962899,61.29793,11.104942)"/>
<use data-text="&#x2022;" xlink:href="#font_2_1" transform="matrix(9.962799,0,0,-9.962899,71.81514,11.104942)"/>
<use data-text="&#x27f3;" xlink:href="#font_1_1" transform="matrix(9.962799,0,0,-9.962899,79.56329,11.104942)"/>
<path transform="matrix(1.00002,0,0,-1.00003,-44.70219,-41.20663)" stroke-width=".3985" stroke-linecap="butt" stroke-miterlimit="10" stroke-linejoin="miter" fill="none" stroke="#000000" d="M102.611-43.324H135.399"/>
<path transform="matrix(1.00002,0,0,-1.00003,-44.70219,-41.20663)" stroke-width=".3985" stroke-linecap="butt" stroke-miterlimit="10" stroke-linejoin="miter" fill="none" stroke="#000000" d="M102.81-56.315V-43.324"/>
<path transform="matrix(1.00002,0,0,-1.00003,-44.70219,-41.20663)" stroke-width=".3985" stroke-linecap="butt" stroke-miterlimit="10" stroke-linejoin="miter" fill="none" stroke="#000000" d="M135.2-56.315V-43.324"/>
<path transform="matrix(1.00002,0,0,-1.00003,-44.70219,-41.20663)" stroke-width=".3985" stroke-linecap="butt" stroke-miterlimit="10" stroke-linejoin="miter" fill="none" stroke="#000000" d="M102.611-56.315H135.399"/>
<use data-text="&#x27f2;" xlink:href="#font_1_2" transform="matrix(9.962799,0,0,-9.962899,61.29793,67.800647)"/>
<use data-text="&#x2022;" xlink:href="#font_2_1" transform="matrix(9.962799,0,0,-9.962899,71.81514,67.800647)"/>
<use data-text="&#x27f3;" xlink:href="#font_1_1" transform="matrix(9.962799,0,0,-9.962899,79.56329,67.800647)"/>
<path transform="matrix(1.00002,0,0,-1.00003,-44.70219,15.489072)" stroke-width=".3985" stroke-linecap="butt" stroke-miterlimit="10" stroke-linejoin="miter" fill="none" stroke="#000000" d="M102.611-43.324H135.399"/>
<path transform="matrix(1.00002,0,0,-1.00003,-44.70219,15.489072)" stroke-width=".3985" stroke-linecap="butt" stroke-miterlimit="10" stroke-linejoin="miter" fill="none" stroke="#000000" d="M102.81-56.315V-43.324"/>
<path transform="matrix(1.00002,0,0,-1.00003,-44.70219,15.489072)" stroke-width=".3985" stroke-linecap="butt" stroke-miterlimit="10" stroke-linejoin="miter" fill="none" stroke="#000000" d="M135.2-56.315V-43.324"/>
<path transform="matrix(1.00002,0,0,-1.00003,-44.70219,15.489072)" stroke-width=".3985" stroke-linecap="butt" stroke-miterlimit="10" stroke-linejoin="miter" fill="none" stroke="#000000" d="M102.611-56.315H135.399"/>
<path transform="matrix(1.00002,0,0,-1.00003,17.611054,65.30957)" stroke-width=".3985" stroke-linecap="butt" stroke-miterlimit="10" stroke-linejoin="miter" fill="none" stroke="#000000" d="M19.91405 38.30565 34.99767 45.851"/>
<path transform="matrix(.89430788,-.44737346,-.44736899,-.89431688,52.609426,19.457192)" d="M1.99252 0-1.19551 1.59401 0 0-1.19551-1.59401"/>
<path transform="matrix(1.00002,0,0,-1.00003,17.611054,65.30957)" stroke-width=".3985" stroke-linecap="butt" stroke-miterlimit="10" stroke-linejoin="miter" fill="none" stroke="#000000" d="M19.91405 18.38795 34.99767 10.8426"/>
<path transform="matrix(.89430788,.44737346,.44736899,-.89431688,52.609426,54.466646)" d="M1.99252 0-1.19551 1.59401 0 0-1.19551-1.59401"/>
</svg>
