<svg xmlns="http://www.w3.org/2000/svg" xmlns:xlink="http://www.w3.org/1999/xlink" xmlns:inkscape="http://www.inkscape.org/namespaces/inkscape" version="1.1" width="207" height="75" viewBox="0 0 207 75">
<defs>
<path id="font_1_2" d="M.44499208 .15611267H.5419922V.203125H.44499208V.62423709C.44499208 .6512451 .44299317 .65625 .4149933 .65625 .3939972 .65625 .3929901 .6552429 .3809967 .64024356L.03199768 .203125V.15611267H.31999208V.04699707H.20799256V0C.24598694 .0029907227 .33699037 .0029907227 .37998963 .0029907227 .41999818 .0029907227 .5069885 .0029907227 .5419922 0V.04699707H.44499208V.15611267M.33099366 .203125H.083999637L.33099366 .51319888V.203125Z"/>
<path id="font_1_1" d="M.5169983 .22209168H.46998597C.46699525 .20207215 .45799256 .13800049 .44400025 .1309967 .43299867 .125 .35798646 .125 .34199525 .125H.19499207C.24198914 .16403198 .2939911 .20707703 .33898927 .2401123 .45298768 .3242035 .5169983 .37124635 .5169983 .4663086 .5169983 .5812988 .41299439 .65527346 .27198792 .65527346 .15098572 .65527346 .056991579 .593277 .056991579 .50331118 .056991579 .44430543 .10499573 .42930604 .1289978 .42930604 .16099549 .42930604 .20098877 .4513092 .20098877 .50131228 .20098877 .55329897 .15899658 .5693054 .14399719 .5733032 .17298889 .5972748 .21099854 .6082611 .24699402 .6082611 .33299256 .6082611 .3789978 .54029849 .3789978 .4653015 .3789978 .39627076 .34098817 .3282013 .2709961 .25712586L.069992069 .051986696C.056991579 .039993287 .056991579 .037994386 .056991579 .017990113V0H.48599244L.5169983 .22209168Z"/>
<path id="font_2_1" d="M.3889923 .27801515 .18899536 .47720338C.1769867 .48919679 .1749878 .49121095 .16699219 .49121095 .15699768 .49121095 .14698792 .48220826 .14698792 .47120667 .14698792 .46420289 .14898682 .46218873 .1599884 .45118714L.3600006 .24998474 .1599884 .048797609C.14898682 .03779602 .14698792 .03578186 .14698792 .028778077 .14698792 .01777649 .15699768 .0087890629 .16699219 .0087890629 .1749878 .0087890629 .1769867 .010787964 .18899536 .022781373L.3880005 .2219696 .59498599 .014785767C.5970001 .0137786869 .60398867 .0087890629 .6100006 .0087890629 .621994 .0087890629 .6299896 .01777649 .6299896 .028778077 .6299896 .030776978 .6299896 .03479004 .6269989 .039794923 .6259918 .041793825 .46699525 .19894409 .4169922 .24998474L.59999087 .4331665C.6049957 .43917848 .6199951 .45217896 .625 .45819093 .6259918 .46018983 .6299896 .46420289 .6299896 .47120667 .6299896 .48220826 .621994 .49121095 .6100006 .49121095 .60198977 .49121095 .59799197 .48719789 .58699038 .4761963L.3889923 .27801515Z"/>
<path id="font_3_1" d="M.40899659 .23046875H.6879883C.70199587 .23046875 .72099307 .23046875 .72099307 .25045777 .72099307 .27046205 .70199587 .27046205 .6879883 .27046205H.40899659V.5500183C.40899659 .56399539 .40899659 .5830078 .3889923 .5830078 .36898805 .5830078 .36898805 .56399539 .36898805 .5500183V.27046205H.08898926C.07499695 .27046205 .055999757 .27046205 .055999757 .25045777 .055999757 .23046875 .07499695 .23046875 .08898926 .23046875H.36898805V-.05000305C.36898805-.06401062 .36898805-.08300781 .3889923-.08300781 .40899659-.08300781 .40899659-.06401062 .40899659-.05000305V.23046875Z"/>
</defs>
<use data-text="4" xlink:href="#font_1_2" transform="matrix(9.963098,0,0,-9.962899,1.2163086,40.74193)"/>
<use data-text="2" xlink:href="#font_1_1" transform="matrix(9.963098,0,0,-9.962899,48.959695,40.326913)"/>
<use data-text="&#x00d7;" xlink:href="#font_2_1" transform="matrix(9.963098,0,0,-9.962899,56.903085,40.326913)"/>
<use data-text="2" xlink:href="#font_1_1" transform="matrix(9.963098,0,0,-9.962899,66.86559,40.326913)"/>
<use data-text="2" xlink:href="#font_1_1" transform="matrix(9.963098,0,0,-9.962899,86.26155,12.394075)"/>
<use data-text="2" xlink:href="#font_1_1" transform="matrix(9.963098,0,0,-9.962899,86.26155,69.089778)"/>
<use data-text="2" xlink:href="#font_1_1" transform="matrix(9.963098,0,0,-9.962899,134.00495,40.326913)"/>
<use data-text="+" xlink:href="#font_3_1" transform="matrix(9.963098,0,0,-9.962899,141.94834,40.326913)"/>
<use data-text="2" xlink:href="#font_1_1" transform="matrix(9.963098,0,0,-9.962899,151.91083,40.326913)"/>
<use data-text="4" xlink:href="#font_1_2" transform="matrix(9.963098,0,0,-9.962899,199.65422,40.74193)"/>
<path transform="matrix(1.00005,0,0,-1.00003,60.777284,37.53183)" stroke-width=".3985" stroke-linecap="butt" stroke-miterlimit="10" stroke-linejoin="miter" fill="none" stroke="#000000" d="M-50.30951 0H-17.32921"/>
<path transform="matrix(1.00005,0,0,-1.00003,43.447206,37.53183)" d="M1.99252 0-1.19551 1.59401 0 0-1.19551-1.59401"/>
<path transform="matrix(1.00005,0,0,-1.00003,60.777284,37.53183)" stroke-width=".3985" stroke-linecap="butt" stroke-miterlimit="10" stroke-linejoin="miter" fill="none" stroke="#000000" d="M-50.72884 6.73003C-30.6411 28.65326-7.06723 36.08714 20.01749 30.08345"/>
<path transform="matrix(.97630879,.2163765,.2163808,-.97628936,80.79578,7.4474565)" d="M1.99252 0-1.19551 1.59401 0 0-1.19551-1.59401"/>
<path transform="matrix(1.00005,0,0,-1.00003,60.777284,37.53183)" stroke-width=".3985" stroke-linecap="butt" stroke-miterlimit="10" stroke-linejoin="miter" fill="none" stroke="#000000" d="M-50.72884-6.73003C-30.6411-28.65326-7.06723-36.08714 20.01749-30.08345"/>
<path transform="matrix(.97630879,-.2163765,-.2163808,-.97628936,80.79578,67.6162)" d="M1.99252 0-1.19551 1.59401 0 0-1.19551-1.59401"/>
<path transform="matrix(1.00005,0,0,-1.00003,60.777284,37.53183)" stroke-width=".3985" stroke-linecap="butt" stroke-miterlimit="10" stroke-linejoin="miter" fill="none" stroke="#000000" d="M34.7309 30.17282C73.54308 41.73187 105.93335 34.00494 133.90268 7.54156"/>
<path transform="matrix(.7263863,.6872806,.6872943,-.7263718,194.68663,29.990044)" d="M1.99252 0-1.19551 1.59401 0 0-1.19551-1.59401"/>
<path transform="matrix(1.00005,0,0,-1.00003,60.777284,37.53183)" stroke-width=".3985" stroke-linecap="butt" stroke-miterlimit="10" stroke-linejoin="miter" fill="none" stroke="#000000" d="M34.7309-30.17282C73.54308-41.73187 105.93335-34.00494 133.90268-7.54156"/>
<path transform="matrix(.7263863,-.6872806,-.6872943,-.7263718,194.68663,45.073617)" d="M1.99252 0-1.19551 1.59401 0 0-1.19551-1.59401"/>
<path transform="matrix(1.00005,0,0,-1.00003,60.777284,37.53183)" stroke-width=".3985" stroke-linecap="butt" stroke-miterlimit="10" stroke-linejoin="miter" fill="none" stroke="#000000" d="M7.14307 7.14516 20.55376 20.55486"/>
<path transform="matrix(.70715537,-.7070812,-.7070953,-.7071412,81.33205,16.976372)" d="M1.99252 0-1.19551 1.59401 0 0-1.19551-1.59401"/>
<path transform="matrix(1.00005,0,0,-1.00003,60.777284,37.53183)" stroke-width=".3985" stroke-linecap="butt" stroke-miterlimit="10" stroke-linejoin="miter" fill="none" stroke="#000000" d="M7.14307-7.14516 20.55376-20.55486"/>
<path transform="matrix(.70715537,.7070812,.7070953,-.7071412,81.33205,58.087289)" d="M1.99252 0-1.19551 1.59401 0 0-1.19551-1.59401"/>
<path transform="matrix(1.00005,0,0,-1.00003,60.777284,37.53183)" stroke-width=".3985" stroke-linecap="butt" stroke-miterlimit="10" stroke-linejoin="miter" fill="none" stroke="#000000" d="M34.7309 25.1564 68.97012 8.03621"/>
<path transform="matrix(.8944246,.44721345,.44722236,-.89440688,129.75086,29.495379)" d="M1.99252 0-1.19551 1.59401 0 0-1.19551-1.59401"/>
<path transform="matrix(1.00005,0,0,-1.00003,60.777284,37.53183)" stroke-width=".3985" stroke-linecap="butt" stroke-miterlimit="10" stroke-linejoin="miter" fill="none" stroke="#000000" d="M34.7309-25.1564 68.97012-8.03621"/>
<path transform="matrix(.8944246,-.44721345,-.44722236,-.89440688,129.75086,45.568284)" d="M1.99252 0-1.19551 1.59401 0 0-1.19551-1.59401"/>
<path transform="matrix(1.00005,0,0,-1.00003,60.777284,37.53183)" stroke-width=".3985" stroke-linecap="butt" stroke-miterlimit="10" stroke-linejoin="miter" fill="none" stroke="#000000" d="M100.37712 0H133.35742"/>
<path transform="matrix(1.00005,0,0,-1.00003,194.14138,37.53183)" d="M1.99252 0-1.19551 1.59401 0 0-1.19551-1.59401"/>
</svg>
