<svg xmlns="http://www.w3.org/2000/svg" xmlns:xlink="http://www.w3.org/1999/xlink" xmlns:inkscape="http://www.inkscape.org/namespaces/inkscape" version="1.1" width="293" height="195" viewBox="0 0 293 195">
<defs>
<path id="font_1_1" d="M.23899842 .68333438C.23899842 .6843262 .23899842 .69433596 .22599793 .69433596 .20298767 .69433596 .12998963 .6863251 .10398865 .6843262 .09599304 .68333438 .084991458 .6823273 .084991458 .6643219 .084991458 .6523285 .09399414 .6523285 .10899353 .6523285 .15699768 .6523285 .15899658 .6453247 .15899658 .6353302 .15899658 .6283264 .1499939 .5943451 .14498902 .573349L.06298828 .24731446C.050994874 .1973114 .04699707 .18130493 .04699707 .14628601 .04699707 .05126953 .099990848-.0107421879 .17399597-.0107421879 .2919922-.0107421879 .4149933 .1382904 .4149933 .28233338 .4149933 .37335206 .3619995 .4423828 .28199769 .4423828 .23599243 .4423828 .19499207 .41337586 .16499329 .38235475L.23899842 .68333438M.14498902 .30534364C.15098572 .3273468 .15098572 .3293457 .1599884 .3403473 .20899964 .405365 .2539978 .42037965 .27999879 .42037965 .31599427 .42037965 .34298707 .3903656 .34298707 .32633973 .34298707 .26733399 .30999757 .15229798 .2919922 .11428833 .25898744 .04725647 .21299744 .011245728 .17399597 .011245728 .13999939 .011245728 .10699463 .038253786 .10699463 .11227417 .10699463 .13128662 .10699463 .15029907 .12298584 .21331787L.14498902 .30534364Z"/>
<path id="font_2_1" d="M.44400025 .24998474C.44400025 .35688783 .35499574 .44381715 .25 .44381715 .14199829 .44381715 .054992677 .35488893 .054992677 .24998474 .054992677 .14407349 .14199829 .056137086 .25 .056137086 .35499574 .056137086 .44400025 .14308167 .44400025 .24998474Z"/>
<path id="font_1_2" d="M.18699646 .23144531C.21598816 .23144531 .2899933 .23344422 .33999635 .2544403 .4099884 .28442384 .4149933 .34339906 .4149933 .35740663 .4149933 .40138246 .3769989 .4423828 .30799867 .4423828 .19699097 .4423828 .04598999 .34539796 .04598999 .17037964 .04598999 .06829834 .10499573-.0107421879 .20298767-.0107421879 .34599305-.0107421879 .42999269 .095321658 .42999269 .10733032 .42999269 .113342288 .42399598 .12034607 .41799928 .12034607 .41299439 .12034607 .41099549 .11834717 .40499879 .1103363 .32598878 .011245728 .21699524 .011245728 .20498657 .011245728 .1269989 .011245728 .117996219 .095321658 .117996219 .12734986 .117996219 .13935852 .11898804 .17037964 .13398743 .23144531H.18699646M.13999939 .25343324C.1789856 .40538026 .28199769 .42037965 .30799867 .42037965 .35499574 .42037965 .38198854 .39138795 .38198854 .35740663 .38198854 .25343324 .22200012 .25343324 .18099976 .25343324H.13999939Z"/>
</defs>
<use data-text="b" xlink:href="#font_1_1" transform="matrix(9.962899,0,0,-9.963098,60.266305,53.947984)" fill="#0000ff"/>
<use data-text="&#x2022;" xlink:href="#font_2_1" transform="matrix(9.962899,0,0,-9.963098,116.609,18.68422)" fill="#0000ff"/>
<use data-text="&#x2022;" xlink:href="#font_2_1" transform="matrix(9.962899,0,0,-9.963098,173.3037,13.014938)" fill="#0000ff"/>
<use data-text="&#x2022;" xlink:href="#font_2_1" transform="matrix(9.962899,0,0,-9.963098,201.65155,7.3456575)" fill="#0000ff"/>
<use data-text="&#x2022;" xlink:href="#font_2_1" transform="matrix(9.962899,0,0,-9.963098,229.9994,47.03264)" fill="#0000ff"/>
<use data-text="&#x2022;" xlink:href="#font_2_1" transform="matrix(9.962899,0,0,-9.963098,258.34724,30.023789)" fill="#0000ff"/>
<use data-text="&#x2022;" xlink:href="#font_2_1" transform="matrix(9.962899,0,0,-9.963098,286.6941,75.38104)" fill="#0000ff"/>
<use data-text="&#x2022;" xlink:href="#font_2_1" transform="matrix(9.962899,0,0,-9.963098,252.67708,103.72946)" fill="#0000ff"/>
<use data-text="&#x2022;" xlink:href="#font_2_1" transform="matrix(9.962899,0,0,-9.963098,195.98139,160.4263)" fill="#0000ff"/>
<use data-text="&#x2022;" xlink:href="#font_2_1" transform="matrix(9.962899,0,0,-9.963098,173.3037,86.72063)" fill="#0000ff"/>
<use data-text="&#x2022;" xlink:href="#font_2_1" transform="matrix(9.962899,0,0,-9.963098,144.95584,103.72946)" fill="#0000ff"/>
<use data-text="&#x2022;" xlink:href="#font_2_1" transform="matrix(9.962899,0,0,-9.963098,116.609,188.77371)" fill="#0000ff"/>
<use data-text="&#x2022;" xlink:href="#font_2_1" transform="matrix(9.962899,0,0,-9.963098,3.2175904,160.4263)" fill="#0000ff"/>
<use data-text="&#x2022;" xlink:href="#font_2_1" transform="matrix(9.962899,0,0,-9.963098,59.913293,132.07788)" fill="#0000ff"/>
<use data-text="&#x2022;" xlink:href="#font_2_1" transform="matrix(9.962899,0,0,-9.963098,99.59949,81.05133)" fill="#0000ff"/>
<path transform="matrix(1.00003,0,0,-1.00005,5.708664,243.25644)" stroke-width=".3985" stroke-linecap="butt" stroke-miterlimit="10" stroke-linejoin="miter" fill="none" stroke="#0000ff" d="M62.35127 192.85308C84.05087 193.04207 99.51953 202.15384 108.697 218.37419"/>
<path transform="matrix(.49243478,-.87034347,-.87032619,-.49244458,113.562877,26.36676)" d="M4.21463 0 .64343 1.34572 1.8178 0 .64343-1.34572Z" fill="#0000ff"/>
<path transform="matrix(.49243478,-.87034347,-.87032619,-.49244458,113.562877,26.36676)" stroke-width=".3985" stroke-linecap="butt" stroke-miterlimit="10" stroke-linejoin="miter" fill="none" stroke="#0000ff" d="M4.21463 0 .64343 1.34572 1.8178 0 .64343-1.34572Z"/>
<path transform="matrix(1.00003,0,0,-1.00005,5.708664,243.25644)" stroke-width=".3985" stroke-linecap="butt" stroke-miterlimit="10" stroke-linejoin="miter" fill="none" stroke="#0000ff" d="M107.37671 226.6734C86.24483 226.70384 71.15845 218.02257 62.10179 202.38819"/>
<path transform="matrix(-.50123509,.8653232,.86530598,.501245,68.67354,39.371355)" d="M4.21463 0 .64343 1.34572 1.8178 0 .64343-1.34572Z" fill="#0000ff"/>
<path transform="matrix(-.50123509,.8653232,.86530598,.501245,68.67354,39.371355)" stroke-width=".3985" stroke-linecap="butt" stroke-miterlimit="10" stroke-linejoin="miter" fill="none" stroke="#0000ff" d="M4.21463 0 .64343 1.34572 1.8178 0 .64343-1.34572Z"/>
<path transform="matrix(1.00003,0,0,-1.00005,5.708664,243.25644)" stroke-width=".3985" stroke-linecap="butt" stroke-miterlimit="10" stroke-linejoin="miter" fill="none" stroke="#0000ff" d="M119.39774 227.37548 161.02179 231.53859"/>
<path transform="matrix(.99500986,-.09950497,-.09950299,-.9950297,165.0257,11.877258)" d="M4.21463 0 .64343 1.34572 1.8178 0 .64343-1.34572Z" fill="#0000ff"/>
<path transform="matrix(.99500986,-.09950497,-.09950299,-.9950297,165.0257,11.877258)" stroke-width=".3985" stroke-linecap="butt" stroke-miterlimit="10" stroke-linejoin="miter" fill="none" stroke="#0000ff" d="M4.21463 0 .64343 1.34572 1.8178 0 .64343-1.34572Z"/>
<path transform="matrix(1.00003,0,0,-1.00005,5.708664,243.25644)" stroke-width=".3985" stroke-linecap="butt" stroke-miterlimit="10" stroke-linejoin="miter" fill="none" stroke="#0000ff" d="M176.09136 230.41118C182.08173 228.04369 187.37158 228.82839 190.01728 230.92795"/>
<path transform="matrix(.78328356,-.621631,-.6216186,-.7832991,194.3858,13.38504)" d="M4.21463 0 .64343 1.34572 1.8178 0 .64343-1.34572Z" fill="#0000ff"/>
<path transform="matrix(.78328356,-.621631,-.6216186,-.7832991,194.3858,13.38504)" stroke-width=".3985" stroke-linecap="butt" stroke-miterlimit="10" stroke-linejoin="miter" fill="none" stroke="#0000ff" d="M4.21463 0 .64343 1.34572 1.8178 0 .64343-1.34572Z"/>
<path transform="matrix(1.00003,0,0,-1.00005,5.708664,243.25644)" stroke-width=".3985" stroke-linecap="butt" stroke-miterlimit="10" stroke-linejoin="miter" fill="none" stroke="#0000ff" d="M192.41712 240.14601C186.42675 242.5135 181.13689 241.7288 178.4912 239.62924"/>
<path transform="matrix(-.78328356,.621631,.6216186,.7832991,185.55106,2.5471497)" d="M4.21463 0 .64343 1.34572 1.8178 0 .64343-1.34572Z" fill="#0000ff"/>
<path transform="matrix(-.78328356,.621631,.6216186,.7832991,185.55106,2.5471497)" stroke-width=".3985" stroke-linecap="butt" stroke-miterlimit="10" stroke-linejoin="miter" fill="none" stroke="#0000ff" d="M4.21463 0 .64343 1.34572 1.8178 0 .64343-1.34572Z"/>
<path transform="matrix(1.00003,0,0,-1.00005,5.708664,243.25644)" stroke-width=".3985" stroke-linecap="butt" stroke-miterlimit="10" stroke-linejoin="miter" fill="none" stroke="#0000ff" d="M202.52306 232.37926 220.89882 206.65447"/>
<path transform="matrix(.58121749,.81373068,.81371447,-.58122906,225.61547,35.193498)" d="M4.21463 0 .64343 1.34572 1.8178 0 .64343-1.34572Z" fill="#0000ff"/>
<path transform="matrix(.58121749,.81373068,.81371447,-.58122906,225.61547,35.193498)" stroke-width=".3985" stroke-linecap="butt" stroke-miterlimit="10" stroke-linejoin="miter" fill="none" stroke="#0000ff" d="M4.21463 0 .64343 1.34572 1.8178 0 .64343-1.34572Z"/>
<path transform="matrix(1.00003,0,0,-1.00005,5.708664,243.25644)" stroke-width=".3985" stroke-linecap="butt" stroke-miterlimit="10" stroke-linejoin="miter" fill="none" stroke="#0000ff" d="M232.78498 198.5287C241.47032 198.56775 247.6294 202.16086 250.41834 207.04196"/>
<path transform="matrix(.4960949,-.8682734,-.8682561,-.49610479,255.28215,37.69597)" d="M4.21463 0 .64343 1.34572 1.8178 0 .64343-1.34572Z" fill="#0000ff"/>
<path transform="matrix(.4960949,-.8682734,-.8682561,-.49610479,255.28215,37.69597)" stroke-width=".3985" stroke-linecap="butt" stroke-miterlimit="10" stroke-linejoin="miter" fill="none" stroke="#0000ff" d="M4.21463 0 .64343 1.34572 1.8178 0 .64343-1.34572Z"/>
<path transform="matrix(1.00003,0,0,-1.00005,5.708664,243.25644)" stroke-width=".3985" stroke-linecap="butt" stroke-miterlimit="10" stroke-linejoin="miter" fill="none" stroke="#0000ff" d="M249.11074 215.33483C240.42539 215.29579 234.26631 211.70269 231.47737 206.82157"/>
<path transform="matrix(-.4960949,.8682734,.8682561,.49610479,238.04535,34.932695)" d="M4.21463 0 .64343 1.34572 1.8178 0 .64343-1.34572Z" fill="#0000ff"/>
<path transform="matrix(-.4960949,.8682734,.8682561,.49610479,238.04535,34.932695)" stroke-width=".3985" stroke-linecap="butt" stroke-miterlimit="10" stroke-linejoin="miter" fill="none" stroke="#0000ff" d="M4.21463 0 .64343 1.34572 1.8178 0 .64343-1.34572Z"/>
<path transform="matrix(1.00003,0,0,-1.00005,5.708664,243.25644)" stroke-width=".3985" stroke-linecap="butt" stroke-miterlimit="10" stroke-linejoin="miter" fill="none" stroke="#0000ff" d="M258.703 209.70214 278.262 178.41265"/>
<path transform="matrix(.53005596,.84799239,.84797546,-.5300665,283.06825,63.377885)" d="M4.21463 0 .64343 1.34572 1.8178 0 .64343-1.34572Z" fill="#0000ff"/>
<path transform="matrix(.53005596,.84799239,.84797546,-.5300665,283.06825,63.377885)" stroke-width=".3985" stroke-linecap="butt" stroke-miterlimit="10" stroke-linejoin="miter" fill="none" stroke="#0000ff" d="M4.21463 0 .64343 1.34572 1.8178 0 .64343-1.34572Z"/>
<path transform="matrix(1.00003,0,0,-1.00005,5.708664,243.25644)" stroke-width=".3985" stroke-linecap="butt" stroke-miterlimit="10" stroke-linejoin="miter" fill="none" stroke="#0000ff" d="M277.45759 165.07268 257.81559 148.703"/>
<path transform="matrix(-.7681631,.64021196,.64019927,.7681784,264.8518,93.446)" d="M4.21463 0 .64343 1.34572 1.8178 0 .64343-1.34572Z" fill="#0000ff"/>
<path transform="matrix(-.7681631,.64021196,.64019927,.7681784,264.8518,93.446)" stroke-width=".3985" stroke-linecap="butt" stroke-miterlimit="10" stroke-linejoin="miter" fill="none" stroke="#0000ff" d="M4.21463 0 .64343 1.34572 1.8178 0 .64343-1.34572Z"/>
<path transform="matrix(1.00003,0,0,-1.00005,5.708664,243.25644)" stroke-width=".3985" stroke-linecap="butt" stroke-miterlimit="10" stroke-linejoin="miter" fill="none" stroke="#0000ff" d="M243.7186 136.00026 200.65493 92.94054"/>
<path transform="matrix(-.7071412,.7070953,.7070812,.70715537,207.58461,149.09633)" d="M4.21463 0 .64343 1.34572 1.8178 0 .64343-1.34572Z" fill="#0000ff"/>
<path transform="matrix(-.7071412,.7070953,.7070812,.70715537,207.58461,149.09633)" stroke-width=".3985" stroke-linecap="butt" stroke-miterlimit="10" stroke-linejoin="miter" fill="none" stroke="#0000ff" d="M4.21463 0 .64343 1.34572 1.8178 0 .64343-1.34572Z"/>
<path transform="matrix(1.00003,0,0,-1.00005,5.708664,243.25644)" stroke-width=".3985" stroke-linecap="butt" stroke-miterlimit="10" stroke-linejoin="miter" fill="none" stroke="#0000ff" d="M190.99477 90.77417 172.74437 150.08023"/>
<path transform="matrix(-.29411883,-.95577779,-.95575878,.2941247,178.9636,94.81093)" d="M4.21463 0 .64343 1.34572 1.8178 0 .64343-1.34572Z" fill="#0000ff"/>
<path transform="matrix(-.29411883,-.95577779,-.95575878,.2941247,178.9636,94.81093)" stroke-width=".3985" stroke-linecap="butt" stroke-miterlimit="10" stroke-linejoin="miter" fill="none" stroke="#0000ff" d="M4.21463 0 .64343 1.34572 1.8178 0 .64343-1.34572Z"/>
<path transform="matrix(1.00003,0,0,-1.00005,5.708664,243.25644)" stroke-width=".3985" stroke-linecap="butt" stroke-miterlimit="10" stroke-linejoin="miter" fill="none" stroke="#0000ff" d="M164.07033 155.13603 150.37168 146.91623"/>
<path transform="matrix(-.85747578,.51453569,.5145254,.85749289,157.55817,95.44881)" d="M4.21463 0 .64343 1.34572 1.8178 0 .64343-1.34572Z" fill="#0000ff"/>
<path transform="matrix(-.85747578,.51453569,.5145254,.85749289,157.55817,95.44881)" stroke-width=".3985" stroke-linecap="butt" stroke-miterlimit="10" stroke-linejoin="miter" fill="none" stroke="#0000ff" d="M4.21463 0 .64343 1.34572 1.8178 0 .64343-1.34572Z"/>
<path transform="matrix(1.00003,0,0,-1.00005,5.708664,243.25644)" stroke-width=".3985" stroke-linecap="butt" stroke-miterlimit="10" stroke-linejoin="miter" fill="none" stroke="#0000ff" d="M142.90656 136.00026C149.41681 106.32022 141.84622 82.49883 121.66115 64.08543"/>
<path transform="matrix(-.7387622,.6739337,.6739203,.7387769,128.64279,178.00986)" d="M4.21463 0 .64343 1.34572 1.8178 0 .64343-1.34572Z" fill="#0000ff"/>
<path transform="matrix(-.7387622,.6739337,.6739203,.7387769,128.64279,178.00986)" stroke-width=".3985" stroke-linecap="butt" stroke-miterlimit="10" stroke-linejoin="miter" fill="none" stroke="#0000ff" d="M4.21463 0 .64343 1.34572 1.8178 0 .64343-1.34572Z"/>
<path transform="matrix(1.00003,0,0,-1.00005,5.708664,243.25644)" stroke-width=".3985" stroke-linecap="butt" stroke-miterlimit="10" stroke-linejoin="miter" fill="none" stroke="#0000ff" d="M107.37671 54.97446C68.22884 43.36746 35.55095 51.20715 8.14789 77.1983"/>
<path transform="matrix(-.7255318,-.6881644,-.6881507,.72554627,15.103396,167.23668)" d="M4.21463 0 .64343 1.34572 1.8178 0 .64343-1.34572Z" fill="#0000ff"/>
<path transform="matrix(-.7255318,-.6881644,-.6881507,.72554627,15.103396,167.23668)" stroke-width=".3985" stroke-linecap="butt" stroke-miterlimit="10" stroke-linejoin="miter" fill="none" stroke="#0000ff" d="M4.21463 0 .64343 1.34572 1.8178 0 .64343-1.34572Z"/>
<path transform="matrix(1.00003,0,0,-1.00005,5.708664,243.25644)" stroke-width=".3985" stroke-linecap="butt" stroke-miterlimit="10" stroke-linejoin="miter" fill="none" stroke="#0000ff" d="M6.01048 88.04529 47.94284 109.01353"/>
<path transform="matrix(.8943869,-.44722236,-.44721345,-.89440467,52.116216,135.00589)" d="M4.21463 0 .64343 1.34572 1.8178 0 .64343-1.34572Z" fill="#0000ff"/>
<path transform="matrix(.8943869,-.44722236,-.44721345,-.89440467,52.116216,135.00589)" stroke-width=".3985" stroke-linecap="butt" stroke-miterlimit="10" stroke-linejoin="miter" fill="none" stroke="#0000ff" d="M4.21463 0 .64343 1.34572 1.8178 0 .64343-1.34572Z"/>
<path transform="matrix(1.00003,0,0,-1.00005,5.708664,243.25644)" stroke-width=".3985" stroke-linecap="butt" stroke-miterlimit="10" stroke-linejoin="miter" fill="none" stroke="#0000ff" d="M61.1515 119.12099 90.04045 156.25905"/>
<path transform="matrix(.6139884,-.7893294,-.78931376,-.6140007,94.69686,88.34581)" d="M4.21463 0 .64343 1.34572 1.8178 0 .64343-1.34572Z" fill="#0000ff"/>
<path transform="matrix(.6139884,-.7893294,-.78931376,-.6140007,94.69686,88.34581)" stroke-width=".3985" stroke-linecap="butt" stroke-miterlimit="10" stroke-linejoin="miter" fill="none" stroke="#0000ff" d="M4.21463 0 .64343 1.34572 1.8178 0 .64343-1.34572Z"/>
<path transform="matrix(1.00003,0,0,-1.00005,5.708664,243.25644)" stroke-width=".3985" stroke-linecap="butt" stroke-miterlimit="10" stroke-linejoin="miter" fill="none" stroke="#0000ff" d="M62.35127 188.71854 87.87546 170.48455"/>
<path transform="matrix(.81368449,.58127906,.5812675,-.8137007,92.1887,71.76463)" d="M4.21463 0 .64343 1.34572 1.8178 0 .64343-1.34572Z" fill="#0000ff"/>
<path transform="matrix(.81368449,.58127906,.5812675,-.8137007,92.1887,71.76463)" stroke-width=".3985" stroke-linecap="butt" stroke-miterlimit="10" stroke-linejoin="miter" fill="none" stroke="#0000ff" d="M4.21463 0 .64343 1.34572 1.8178 0 .64343-1.34572Z"/>
<path transform="matrix(1.00003,0,0,-1.00005,5.708664,243.25644)" stroke-width=".3985" stroke-linecap="butt" stroke-miterlimit="10" stroke-linejoin="miter" fill="none" stroke="#0000ff" d="M97.9415 170.14488 111.01866 218.08495"/>
<path transform="matrix(.2631579,-.96474817,-.96472898,-.26316316,116.27848,26.818238)" d="M4.21463 0 .64343 1.34572 1.8178 0 .64343-1.34572Z" fill="#0000ff"/>
<path transform="matrix(.2631579,-.96474817,-.96472898,-.26316316,116.27848,26.818238)" stroke-width=".3985" stroke-linecap="butt" stroke-miterlimit="10" stroke-linejoin="miter" fill="none" stroke="#0000ff" d="M4.21463 0 .64343 1.34572 1.8178 0 .64343-1.34572Z"/>
<path transform="matrix(1.00003,0,0,-1.00005,5.708664,243.25644)" stroke-width=".3985" stroke-linecap="butt" stroke-miterlimit="10" stroke-linejoin="miter" fill="none" stroke="#0000ff" d="M62.42657 107.65347 105.49023 64.59375"/>
<path transform="matrix(.7071412,.7070953,.7070812,-.70715537,109.98705,177.44455)" d="M4.21463 0 .64343 1.34572 1.8178 0 .64343-1.34572Z" fill="#0000ff"/>
<path transform="matrix(.7071412,.7070953,.7070812,-.70715537,109.98705,177.44455)" stroke-width=".3985" stroke-linecap="butt" stroke-miterlimit="10" stroke-linejoin="miter" fill="none" stroke="#0000ff" d="M4.21463 0 .64343 1.34572 1.8178 0 .64343-1.34572Z"/>
<use data-text="e" xlink:href="#font_1_2" transform="matrix(9.962899,0,0,-9.963098,286.8661,188.70471)" fill="#ff0000"/>
<use data-text="&#x2022;" xlink:href="#font_2_1" transform="matrix(9.962899,0,0,-9.963098,229.9994,171.76486)" fill="#ff0000"/>
<use data-text="&#x2022;" xlink:href="#font_2_1" transform="matrix(9.962899,0,0,-9.963098,286.6941,132.07788)" fill="#ff0000"/>
<use data-text="&#x2022;" xlink:href="#font_2_1" transform="matrix(9.962899,0,0,-9.963098,258.34724,64.04248)" fill="#ff0000"/>
<use data-text="&#x2022;" xlink:href="#font_2_1" transform="matrix(9.962899,0,0,-9.963098,212.98989,92.38991)" fill="#ff0000"/>
<use data-text="&#x2022;" xlink:href="#font_2_1" transform="matrix(9.962899,0,0,-9.963098,167.63353,132.07788)" fill="#ff0000"/>
<use data-text="&#x2022;" xlink:href="#font_2_1" transform="matrix(9.962899,0,0,-9.963098,156.29518,166.09558)" fill="#ff0000"/>
<use data-text="&#x2022;" xlink:href="#font_2_1" transform="matrix(9.962899,0,0,-9.963098,110.93882,160.4263)" fill="#ff0000"/>
<use data-text="&#x2022;" xlink:href="#font_2_1" transform="matrix(9.962899,0,0,-9.963098,48.57395,177.43515)" fill="#ff0000"/>
<use data-text="&#x2022;" xlink:href="#font_2_1" transform="matrix(9.962899,0,0,-9.963098,14.556931,126.4076)" fill="#ff0000"/>
<use data-text="&#x2022;" xlink:href="#font_2_1" transform="matrix(9.962899,0,0,-9.963098,14.556931,98.05919)" fill="#ff0000"/>
<use data-text="&#x2022;" xlink:href="#font_2_1" transform="matrix(9.962899,0,0,-9.963098,42.90478,98.05919)" fill="#ff0000"/>
<use data-text="&#x2022;" xlink:href="#font_2_1" transform="matrix(9.962899,0,0,-9.963098,105.26965,115.06802)" fill="#ff0000"/>
<use data-text="&#x2022;" xlink:href="#font_2_1" transform="matrix(9.962899,0,0,-9.963098,139.28668,64.04248)" fill="#ff0000"/>
<use data-text="&#x2022;" xlink:href="#font_2_1" transform="matrix(9.962899,0,0,-9.963098,167.63353,52.70291)" fill="#ff0000"/>
<path transform="matrix(1.00003,0,0,-1.00005,5.708664,243.25644)" stroke-width=".3985" stroke-linecap="butt" stroke-miterlimit="10" stroke-linejoin="miter" fill="none" stroke="#ff0000" d="M232.78498 71.89987 274.6943 59.3248"/>
<path transform="matrix(.95778879,.28738437,.28737865,-.95780786,278.76557,183.4349)" d="M4.21463 0 .64343 1.34572 1.8178 0 .64343-1.34572Z" fill="#ff0000"/>
<path transform="matrix(.95778879,.28738437,.28737865,-.95780786,278.76557,183.4349)" stroke-width=".3985" stroke-linecap="butt" stroke-miterlimit="10" stroke-linejoin="miter" fill="none" stroke="#ff0000" d="M4.21463 0 .64343 1.34572 1.8178 0 .64343-1.34572Z"/>
<path transform="matrix(1.00003,0,0,-1.00005,5.708664,243.25644)" stroke-width=".3985" stroke-linecap="butt" stroke-miterlimit="10" stroke-linejoin="miter" fill="none" stroke="#ff0000" d="M232.78498 74.22672C255.61415 76.16263 271.05564 86.9149 279.4915 104.88017"/>
<path transform="matrix(.42503277,-.90519526,-.9051772,-.42504124,284.47828,139.92633)" d="M4.21463 0 .64343 1.34572 1.8178 0 .64343-1.34572Z" fill="#ff0000"/>
<path transform="matrix(.42503277,-.90519526,-.9051772,-.42504124,284.47828,139.92633)" stroke-width=".3985" stroke-linecap="butt" stroke-miterlimit="10" stroke-linejoin="miter" fill="none" stroke="#ff0000" d="M4.21463 0 .64343 1.34572 1.8178 0 .64343-1.34572Z"/>
<path transform="matrix(1.00003,0,0,-1.00005,5.708664,243.25644)" stroke-width=".3985" stroke-linecap="butt" stroke-miterlimit="10" stroke-linejoin="miter" fill="none" stroke="#ff0000" d="M277.45759 112.86237C254.62839 110.92645 239.18695 100.1742 230.75109 82.20892"/>
<path transform="matrix(-.42503277,.90519526,.9051772,.42504124,237.19696,159.48813)" d="M4.21463 0 .64343 1.34572 1.8178 0 .64343-1.34572Z" fill="#ff0000"/>
<path transform="matrix(-.42503277,.90519526,.9051772,.42504124,237.19696,159.48813)" stroke-width=".3985" stroke-linecap="butt" stroke-miterlimit="10" stroke-linejoin="miter" fill="none" stroke="#ff0000" d="M4.21463 0 .64343 1.34572 1.8178 0 .64343-1.34572Z"/>
<path transform="matrix(1.00003,0,0,-1.00005,5.708664,243.25644)" stroke-width=".3985" stroke-linecap="butt" stroke-miterlimit="10" stroke-linejoin="miter" fill="none" stroke="#ff0000" d="M257.51036 175.68564 279.9024 121.94904"/>
<path transform="matrix(.38462157,.9230661,.9230477,-.38462923,284.95863,119.71531)" d="M4.21463 0 .64343 1.34572 1.8178 0 .64343-1.34572Z" fill="#ff0000"/>
<path transform="matrix(.38462157,.9230661,.9230477,-.38462923,284.95863,119.71531)" stroke-width=".3985" stroke-linecap="butt" stroke-miterlimit="10" stroke-linejoin="miter" fill="none" stroke="#ff0000" d="M4.21463 0 .64343 1.34572 1.8178 0 .64343-1.34572Z"/>
<path transform="matrix(1.00003,0,0,-1.00005,5.708664,243.25644)" stroke-width=".3985" stroke-linecap="butt" stroke-miterlimit="10" stroke-linejoin="miter" fill="none" stroke="#ff0000" d="M215.77669 156.82822 246.51267 176.04039"/>
<path transform="matrix(.84798547,-.5300665,-.53005596,-.8480024,250.77172,68.11803)" d="M4.21463 0 .64343 1.34572 1.8178 0 .64343-1.34572Z" fill="#ff0000"/>
<path transform="matrix(.84798547,-.5300665,-.53005596,-.8480024,250.77172,68.11803)" stroke-width=".3985" stroke-linecap="butt" stroke-miterlimit="10" stroke-linejoin="miter" fill="none" stroke="#ff0000" d="M4.21463 0 .64343 1.34572 1.8178 0 .64343-1.34572Z"/>
<path transform="matrix(1.00003,0,0,-1.00005,5.708664,243.25644)" stroke-width=".3985" stroke-linecap="butt" stroke-miterlimit="10" stroke-linejoin="miter" fill="none" stroke="#ff0000" d="M207.81359 147.3388C201.56412 128.95577 189.46654 118.35478 173.4268 115.17168"/>
<path transform="matrix(-.98085948,.19463972,.19463584,.980879,180.82599,127.7446)" d="M4.21463 0 .64343 1.34572 1.8178 0 .64343-1.34572Z" fill="#ff0000"/>
<path transform="matrix(-.98085948,.19463972,.19463584,.980879,180.82599,127.7446)" stroke-width=".3985" stroke-linecap="butt" stroke-miterlimit="10" stroke-linejoin="miter" fill="none" stroke="#ff0000" d="M4.21463 0 .64343 1.34572 1.8178 0 .64343-1.34572Z"/>
<path transform="matrix(1.00003,0,0,-1.00005,5.708664,243.25644)" stroke-width=".3985" stroke-linecap="butt" stroke-miterlimit="10" stroke-linejoin="miter" fill="none" stroke="#ff0000" d="M166.36373 119.12099C172.61319 137.50405 184.71076 148.105 200.75048 151.2881"/>
<path transform="matrix(.98085948,-.19463972,-.19463584,-.980879,204.77986,92.2952)" d="M4.21463 0 .64343 1.34572 1.8178 0 .64343-1.34572Z" fill="#ff0000"/>
<path transform="matrix(.98085948,-.19463972,-.19463584,-.980879,204.77986,92.2952)" stroke-width=".3985" stroke-linecap="butt" stroke-miterlimit="10" stroke-linejoin="miter" fill="none" stroke="#ff0000" d="M4.21463 0 .64343 1.34572 1.8178 0 .64343-1.34572Z"/>
<path transform="matrix(1.00003,0,0,-1.00005,5.708664,243.25644)" stroke-width=".3985" stroke-linecap="butt" stroke-miterlimit="10" stroke-linejoin="miter" fill="none" stroke="#ff0000" d="M154.98334 85.10446 161.53156 104.74693"/>
<path transform="matrix(.3162295,-.9486874,-.9486685,-.31623579,166.70172,140.13431)" d="M4.21463 0 .64343 1.34572 1.8178 0 .64343-1.34572Z" fill="#ff0000"/>
<path transform="matrix(.3162295,-.9486874,-.9486685,-.31623579,166.70172,140.13431)" stroke-width=".3985" stroke-linecap="butt" stroke-miterlimit="10" stroke-linejoin="miter" fill="none" stroke="#ff0000" d="M4.21463 0 .64343 1.34572 1.8178 0 .64343-1.34572Z"/>
<path transform="matrix(1.00003,0,0,-1.00005,5.708664,243.25644)" stroke-width=".3985" stroke-linecap="butt" stroke-miterlimit="10" stroke-linejoin="miter" fill="none" stroke="#ff0000" d="M113.728 84.28928 144.0219 80.50183"/>
<path transform="matrix(.9922798,.1240562,.124053727,-.9922996,148.02996,162.53745)" d="M4.21463 0 .64343 1.34572 1.8178 0 .64343-1.34572Z" fill="#ff0000"/>
<path transform="matrix(.9922798,.1240562,.124053727,-.9922996,148.02996,162.53745)" stroke-width=".3985" stroke-linecap="butt" stroke-miterlimit="10" stroke-linejoin="miter" fill="none" stroke="#ff0000" d="M4.21463 0 .64343 1.34572 1.8178 0 .64343-1.34572Z"/>
<path transform="matrix(1.00003,0,0,-1.00005,5.708664,243.25644)" stroke-width=".3985" stroke-linecap="butt" stroke-miterlimit="10" stroke-linejoin="miter" fill="none" stroke="#ff0000" d="M51.36552 69.6706 98.7512 82.59644"/>
<path transform="matrix(.96472898,-.26316316,-.2631579,-.96474817,102.80524,161.10807)" d="M4.21463 0 .64343 1.34572 1.8178 0 .64343-1.34572Z" fill="#ff0000"/>
<path transform="matrix(.96472898,-.26316316,-.2631579,-.96474817,102.80524,161.10807)" stroke-width=".3985" stroke-linecap="butt" stroke-miterlimit="10" stroke-linejoin="miter" fill="none" stroke="#ff0000" d="M4.21463 0 .64343 1.34572 1.8178 0 .64343-1.34572Z"/>
<path transform="matrix(1.00003,0,0,-1.00005,5.708664,243.25644)" stroke-width=".3985" stroke-linecap="butt" stroke-miterlimit="10" stroke-linejoin="miter" fill="none" stroke="#ff0000" d="M17.34904 116.08698C34.94855 107.17567 43.90318 93.46321 44.81755 76.8251"/>
<path transform="matrix(.054841646,.9985099,.99849,-.054842738,50.433317,164.71187)" d="M4.21463 0 .64343 1.34572 1.8178 0 .64343-1.34572Z" fill="#ff0000"/>
<path transform="matrix(.054841646,.9985099,.99849,-.054842738,50.433317,164.71187)" stroke-width=".3985" stroke-linecap="butt" stroke-miterlimit="10" stroke-linejoin="miter" fill="none" stroke="#ff0000" d="M4.21463 0 .64343 1.34572 1.8178 0 .64343-1.34572Z"/>
<path transform="matrix(1.00003,0,0,-1.00005,5.708664,243.25644)" stroke-width=".3985" stroke-linecap="butt" stroke-miterlimit="10" stroke-linejoin="miter" fill="none" stroke="#ff0000" d="M39.34451 71.00208C21.745 79.91339 12.79039 93.62587 11.87602 110.26399"/>
<path transform="matrix(-.054841646,-.9985099,-.99849,.054842738,17.679284,134.70258)" d="M4.21463 0 .64343 1.34572 1.8178 0 .64343-1.34572Z" fill="#ff0000"/>
<path transform="matrix(-.054841646,-.9985099,-.99849,.054842738,17.679284,134.70258)" stroke-width=".3985" stroke-linecap="butt" stroke-miterlimit="10" stroke-linejoin="miter" fill="none" stroke="#ff0000" d="M4.21463 0 .64343 1.34572 1.8178 0 .64343-1.34572Z"/>
<path transform="matrix(1.00003,0,0,-1.00005,5.708664,243.25644)" stroke-width=".3985" stroke-linecap="butt" stroke-miterlimit="10" stroke-linejoin="miter" fill="none" stroke="#ff0000" d="M11.33855 141.66997V127.8546"/>
<path transform="matrix(0,1.00005,1.00003,0,17.047554,113.67717)" d="M4.21463 0 .64343 1.34572 1.8178 0 .64343-1.34572Z" fill="#ff0000"/>
<path transform="matrix(0,1.00005,1.00003,0,17.047554,113.67717)" stroke-width=".3985" stroke-linecap="butt" stroke-miterlimit="10" stroke-linejoin="miter" fill="none" stroke="#ff0000" d="M4.21463 0 .64343 1.34572 1.8178 0 .64343-1.34572Z"/>
<path transform="matrix(1.00003,0,0,-1.00005,5.708664,243.25644)" stroke-width=".3985" stroke-linecap="butt" stroke-miterlimit="10" stroke-linejoin="miter" fill="none" stroke="#ff0000" d="M33.6748 143.93448C28.16129 140.75125 22.86255 140.75125 20.00243 142.40258"/>
<path transform="matrix(-.866036,-.50000497,-.49999503,.8660533,27.1997,101.70586)" d="M4.21463 0 .64343 1.34572 1.8178 0 .64343-1.34572Z" fill="#ff0000"/>
<path transform="matrix(-.866036,-.50000497,-.49999503,.8660533,27.1997,101.70586)" stroke-width=".3985" stroke-linecap="butt" stroke-miterlimit="10" stroke-linejoin="miter" fill="none" stroke="#ff0000" d="M4.21463 0 .64343 1.34572 1.8178 0 .64343-1.34572Z"/>
<path transform="matrix(1.00003,0,0,-1.00005,5.708664,243.25644)" stroke-width=".3985" stroke-linecap="butt" stroke-miterlimit="10" stroke-linejoin="miter" fill="none" stroke="#ff0000" d="M17.34904 150.87294C22.86255 154.05617 28.16129 154.05617 31.02142 152.40485"/>
<path transform="matrix(.866036,.50000497,.49999503,-.8660533,35.243,89.98488)" d="M4.21463 0 .64343 1.34572 1.8178 0 .64343-1.34572Z" fill="#ff0000"/>
<path transform="matrix(.866036,.50000497,.49999503,-.8660533,35.243,89.98488)" stroke-width=".3985" stroke-linecap="butt" stroke-miterlimit="10" stroke-linejoin="miter" fill="none" stroke="#ff0000" d="M4.21463 0 .64343 1.34572 1.8178 0 .64343-1.34572Z"/>
<path transform="matrix(1.00003,0,0,-1.00005,5.708664,243.25644)" stroke-width=".3985" stroke-linecap="butt" stroke-miterlimit="10" stroke-linejoin="miter" fill="none" stroke="#ff0000" d="M96.03813 132.03392 48.6516 144.95975"/>
<path transform="matrix(-.96472898,-.26316316,-.2631579,.96474817,56.019315,98.74162)" d="M4.21463 0 .64343 1.34572 1.8178 0 .64343-1.34572Z" fill="#ff0000"/>
<path transform="matrix(-.96472898,-.26316316,-.2631579,.96474817,56.019315,98.74162)" stroke-width=".3985" stroke-linecap="butt" stroke-miterlimit="10" stroke-linejoin="miter" fill="none" stroke="#ff0000" d="M4.21463 0 .64343 1.34572 1.8178 0 .64343-1.34572Z"/>
<path transform="matrix(1.00003,0,0,-1.00005,5.708664,243.25644)" stroke-width=".3985" stroke-linecap="butt" stroke-miterlimit="10" stroke-linejoin="miter" fill="none" stroke="#ff0000" d="M103.37868 90.77417C95.49216 101.50597 94.27946 112.4659 98.39925 121.85611"/>
<path transform="matrix(.40176208,-.91574576,-.91572758,-.40177007,103.42057,122.96765)" d="M4.21463 0 .64343 1.34572 1.8178 0 .64343-1.34572Z" fill="#ff0000"/>
<path transform="matrix(.40176208,-.91574576,-.91572758,-.40177007,103.42057,122.96765)" stroke-width=".3985" stroke-linecap="butt" stroke-miterlimit="10" stroke-linejoin="miter" fill="none" stroke="#ff0000" d="M4.21463 0 .64343 1.34572 1.8178 0 .64343-1.34572Z"/>
<path transform="matrix(1.00003,0,0,-1.00005,5.708664,243.25644)" stroke-width=".3985" stroke-linecap="butt" stroke-miterlimit="10" stroke-linejoin="miter" fill="none" stroke="#ff0000" d="M106.38745 124.66171C114.27396 113.92992 115.48668 102.96999 111.3669 93.57977"/>
<path transform="matrix(-.40176208,.91574576,.91572758,.40177007,117.769199,148.09859)" d="M4.21463 0 .64343 1.34572 1.8178 0 .64343-1.34572Z" fill="#ff0000"/>
<path transform="matrix(-.40176208,.91574576,.91572758,.40177007,117.769199,148.09859)" stroke-width=".3985" stroke-linecap="butt" stroke-miterlimit="10" stroke-linejoin="miter" fill="none" stroke="#ff0000" d="M4.21463 0 .64343 1.34572 1.8178 0 .64343-1.34572Z"/>
<path transform="matrix(1.00003,0,0,-1.00005,5.708664,243.25644)" stroke-width=".3985" stroke-linecap="butt" stroke-miterlimit="10" stroke-linejoin="miter" fill="none" stroke="#ff0000" d="M102.41803 136.12924C103.50038 155.82614 112.45462 169.5383 127.32042 177.06548"/>
<path transform="matrix(.8921468,-.45172257,-.45171357,-.8921646,131.50003,66.95828)" d="M4.21463 0 .64343 1.34572 1.8178 0 .64343-1.34572Z" fill="#ff0000"/>
<path transform="matrix(.8921468,-.45172257,-.45171357,-.8921646,131.50003,66.95828)" stroke-width=".3985" stroke-linecap="butt" stroke-miterlimit="10" stroke-linejoin="miter" fill="none" stroke="#ff0000" d="M4.21463 0 .64343 1.34572 1.8178 0 .64343-1.34572Z"/>
<path transform="matrix(1.00003,0,0,-1.00005,5.708664,243.25644)" stroke-width=".3985" stroke-linecap="butt" stroke-miterlimit="10" stroke-linejoin="miter" fill="none" stroke="#ff0000" d="M135.69495 175.68564C134.6126 155.98874 125.65833 142.27655 110.79253 134.74938"/>
<path transform="matrix(-.8921468,.45172257,.45171357,.8921646,118.0374,107.72417)" d="M4.21463 0 .64343 1.34572 1.8178 0 .64343-1.34572Z" fill="#ff0000"/>
<path transform="matrix(-.8921468,.45172257,.45171357,.8921646,118.0374,107.72417)" stroke-width=".3985" stroke-linecap="butt" stroke-miterlimit="10" stroke-linejoin="miter" fill="none" stroke="#ff0000" d="M4.21463 0 .64343 1.34572 1.8178 0 .64343-1.34572Z"/>
<path transform="matrix(1.00003,0,0,-1.00005,5.708664,243.25644)" stroke-width=".3985" stroke-linecap="butt" stroke-miterlimit="10" stroke-linejoin="miter" fill="none" stroke="#ff0000" d="M158.40059 190.35388 144.91947 184.96108"/>
<path transform="matrix(-.92846789,.37139855,.37139116,.92848637,152.22776,57.64798)" d="M4.21463 0 .64343 1.34572 1.8178 0 .64343-1.34572Z" fill="#ff0000"/>
<path transform="matrix(-.92846789,.37139855,.37139116,.92848637,152.22776,57.64798)" stroke-width=".3985" stroke-linecap="butt" stroke-miterlimit="10" stroke-linejoin="miter" fill="none" stroke="#ff0000" d="M4.21463 0 .64343 1.34572 1.8178 0 .64343-1.34572Z"/>
<path transform="matrix(1.00003,0,0,-1.00005,5.708664,243.25644)" stroke-width=".3985" stroke-linecap="butt" stroke-miterlimit="10" stroke-linejoin="miter" fill="none" stroke="#ff0000" d="M170.42162 191.5698C189.46654 187.79036 201.56421 177.18939 206.82756 161.70708"/>
<path transform="matrix(.32185967,.94679728,.9467784,-.32186608,211.98941,79.914508)" d="M4.21463 0 .64343 1.34572 1.8178 0 .64343-1.34572Z" fill="#ff0000"/>
<path transform="matrix(.32185967,.94679728,.9467784,-.32186608,211.98941,79.914508)" stroke-width=".3985" stroke-linecap="butt" stroke-miterlimit="10" stroke-linejoin="miter" fill="none" stroke="#ff0000" d="M4.21463 0 .64343 1.34572 1.8178 0 .64343-1.34572Z"/>
<path transform="matrix(1.00003,0,0,-1.00005,5.708664,243.25644)" stroke-width=".3985" stroke-linecap="butt" stroke-miterlimit="10" stroke-linejoin="miter" fill="none" stroke="#ff0000" d="M203.75566 154.2607C184.71076 158.04013 172.61312 168.64113 167.34976 184.12345"/>
<path transform="matrix(-.32185967,-.94679728,-.9467784,.32186608,173.61647,60.75058)" d="M4.21463 0 .64343 1.34572 1.8178 0 .64343-1.34572Z" fill="#ff0000"/>
<path transform="matrix(-.32185967,-.94679728,-.9467784,.32186608,173.61647,60.75058)" stroke-width=".3985" stroke-linecap="butt" stroke-miterlimit="10" stroke-linejoin="miter" fill="none" stroke="#ff0000" d="M4.21463 0 .64343 1.34572 1.8178 0 .64343-1.34572Z"/>
<path transform="matrix(1.00003,0,0,-1.00005,5.708664,243.25644)" stroke-width=".3985" stroke-linecap="butt" stroke-dasharray="2.98883,2.98883" stroke-miterlimit="10" stroke-linejoin="miter" fill="none" stroke="#000000" d="M255.12126 187.15316V206.63822"/>
<path transform="matrix(0,-1.00005,-1.00003,-0,260.8376,38.32617)" d="M4.21463 0 .64343 1.34572 1.8178 0 .64343-1.34572Z"/>
<path transform="matrix(0,-1.00005,-1.00003,-0,260.8376,38.32617)" stroke-width=".3985" stroke-linecap="butt" stroke-miterlimit="10" stroke-linejoin="miter" fill="none" stroke="#000000" d="M4.21463 0 .64343 1.34572 1.8178 0 .64343-1.34572Z"/>
<path transform="matrix(1.00003,0,0,-1.00005,5.708664,243.25644)" stroke-width=".3985" stroke-linecap="butt" stroke-dasharray="2.98883,2.98883" stroke-miterlimit="10" stroke-linejoin="miter" fill="none" stroke="#000000" d="M254.30219 175.68564 250.70384 150.5008"/>
<path transform="matrix(-.14142426,.9899595,.98993977,.14142707,256.66304,91.04718)" d="M4.21463 0 .64343 1.34572 1.8178 0 .64343-1.34572Z"/>
<path transform="matrix(-.14142426,.9899595,.98993977,.14142707,256.66304,91.04718)" stroke-width=".3985" stroke-linecap="butt" stroke-miterlimit="10" stroke-linejoin="miter" fill="none" stroke="#000000" d="M4.21463 0 .64343 1.34572 1.8178 0 .64343-1.34572Z"/>
<path transform="matrix(1.00003,0,0,-1.00005,5.708664,243.25644)" stroke-width=".3985" stroke-linecap="butt" stroke-dasharray="2.98883,2.98883" stroke-miterlimit="10" stroke-linejoin="miter" fill="none" stroke="#000000" d="M211.9153 158.80634 223.54935 189.82526"/>
<path transform="matrix(.35115055,-.9363068,-.9362881,-.35115756,228.66139,55.030458)" d="M4.21463 0 .64343 1.34572 1.8178 0 .64343-1.34572Z"/>
<path transform="matrix(.35115055,-.9363068,-.9362881,-.35115756,228.66139,55.030458)" stroke-width=".3985" stroke-linecap="butt" stroke-miterlimit="10" stroke-linejoin="miter" fill="none" stroke="#000000" d="M4.21463 0 .64343 1.34572 1.8178 0 .64343-1.34572Z"/>
<path transform="matrix(1.00003,0,0,-1.00005,5.708664,243.25644)" stroke-width=".3985" stroke-linecap="butt" stroke-dasharray="2.98883,2.98883" stroke-miterlimit="10" stroke-linejoin="miter" fill="none" stroke="#000000" d="M41.83514 153.13748 53.00166 182.91022"/>
<path transform="matrix(.35115055,-.9363068,-.9362881,-.35115756,58.1086,61.945848)" d="M4.21463 0 .64343 1.34572 1.8178 0 .64343-1.34572Z"/>
<path transform="matrix(.35115055,-.9363068,-.9362881,-.35115756,58.1086,61.945848)" stroke-width=".3985" stroke-linecap="butt" stroke-miterlimit="10" stroke-linejoin="miter" fill="none" stroke="#000000" d="M4.21463 0 .64343 1.34572 1.8178 0 .64343-1.34572Z"/>
<path transform="matrix(1.00003,0,0,-1.00005,5.708664,243.25644)" stroke-width=".3985" stroke-linecap="butt" stroke-dasharray="2.98883,2.98883" stroke-miterlimit="10" stroke-linejoin="miter" fill="none" stroke="#000000" d="M108.05916 132.11197 132.7776 139.17531"/>
<path transform="matrix(.9615189,-.2747437,-.27473826,-.961538,136.83818,104.546268)" d="M4.21463 0 .64343 1.34572 1.8178 0 .64343-1.34572Z"/>
<path transform="matrix(.9615189,-.2747437,-.27473826,-.961538,136.83818,104.546268)" stroke-width=".3985" stroke-linecap="butt" stroke-miterlimit="10" stroke-linejoin="miter" fill="none" stroke="#000000" d="M4.21463 0 .64343 1.34572 1.8178 0 .64343-1.34572Z"/>
<path transform="matrix(1.00003,0,0,-1.00005,5.708664,243.25644)" stroke-width=".3985" stroke-linecap="butt" stroke-dasharray="2.98883,2.98883" stroke-miterlimit="10" stroke-linejoin="miter" fill="none" stroke="#000000" d="M136.8834 175.68564 140.48175 150.5008"/>
<path transform="matrix(.14142426,.9899595,.98993977,-.14142707,145.95163,91.04718)" d="M4.21463 0 .64343 1.34572 1.8178 0 .64343-1.34572Z"/>
<path transform="matrix(.14142426,.9899595,.98993977,-.14142707,145.95163,91.04718)" stroke-width=".3985" stroke-linecap="butt" stroke-miterlimit="10" stroke-linejoin="miter" fill="none" stroke="#000000" d="M4.21463 0 .64343 1.34572 1.8178 0 .64343-1.34572Z"/>
<path transform="matrix(1.00003,0,0,-1.00005,5.708664,243.25644)" stroke-width=".3985" stroke-linecap="butt" stroke-dasharray="2.98883,2.98883" stroke-miterlimit="10" stroke-linejoin="miter" fill="none" stroke="#000000" d="M133.19895 187.15316 117.62314 218.3005"/>
<path transform="matrix(-.44725345,-.89439466,-.8943769,.44726236,124.103809,26.48175)" d="M4.21463 0 .64343 1.34572 1.8178 0 .64343-1.34572Z"/>
<path transform="matrix(-.44725345,-.89439466,-.8943769,.44726236,124.103809,26.48175)" stroke-width=".3985" stroke-linecap="butt" stroke-miterlimit="10" stroke-linejoin="miter" fill="none" stroke="#000000" d="M4.21463 0 .64343 1.34572 1.8178 0 .64343-1.34572Z"/>
<path transform="matrix(1.00003,0,0,-1.00005,5.708664,243.25644)" stroke-width=".3985" stroke-linecap="butt" stroke-dasharray="2.98883,2.98883" stroke-miterlimit="10" stroke-linejoin="miter" fill="none" stroke="#000000" d="M139.88538 187.15316 164.56064 224.16133"/>
<path transform="matrix(.5547367,-.8320115,-.83199498,-.5547477,169.32109,20.513459)" d="M4.21463 0 .64343 1.34572 1.8178 0 .64343-1.34572Z"/>
<path transform="matrix(.5547367,-.8320115,-.83199498,-.5547477,169.32109,20.513459)" stroke-width=".3985" stroke-linecap="butt" stroke-miterlimit="10" stroke-linejoin="miter" fill="none" stroke="#000000" d="M4.21463 0 .64343 1.34572 1.8178 0 .64343-1.34572Z"/>
<path transform="matrix(1.00003,0,0,-1.00005,5.708664,243.25644)" stroke-width=".3985" stroke-linecap="butt" stroke-dasharray="2.98883,2.98883" stroke-miterlimit="10" stroke-linejoin="miter" fill="none" stroke="#000000" d="M168.70934 198.49172 192.29062 229.92836"/>
<path transform="matrix(.600058,-.7999699,-.799954,-.60007,196.97406,14.691086)" d="M4.21463 0 .64343 1.34572 1.8178 0 .64343-1.34572Z"/>
<path transform="matrix(.600058,-.7999699,-.799954,-.60007,196.97406,14.691086)" stroke-width=".3985" stroke-linecap="butt" stroke-miterlimit="10" stroke-linejoin="miter" fill="none" stroke="#000000" d="M4.21463 0 .64343 1.34572 1.8178 0 .64343-1.34572Z"/>
<path transform="matrix(1.00003,0,0,-1.00005,5.708664,243.25644)" stroke-width=".3985" stroke-linecap="butt" stroke-dasharray="2.98883,2.98883" stroke-miterlimit="10" stroke-linejoin="miter" fill="none" stroke="#000000" d="M283.4681 62.35817V104.58955"/>
<path transform="matrix(0,-1.00005,-1.00003,-0,289.1853,140.37995)" d="M4.21463 0 .64343 1.34572 1.8178 0 .64343-1.34572Z"/>
<path transform="matrix(0,-1.00005,-1.00003,-0,289.1853,140.37995)" stroke-width=".3985" stroke-linecap="butt" stroke-miterlimit="10" stroke-linejoin="miter" fill="none" stroke="#000000" d="M4.21463 0 .64343 1.34572 1.8178 0 .64343-1.34572Z"/>
<path transform="matrix(1.00003,0,0,-1.00005,5.708664,243.25644)" stroke-width=".3985" stroke-linecap="butt" stroke-dasharray="2.98883,2.98883" stroke-miterlimit="10" stroke-linejoin="miter" fill="none" stroke="#000000" d="M220.76395 75.70505 201.67499 82.06862"/>
<path transform="matrix(-.9486685,-.31623579,-.3162295,.9486874,209.0197,161.72708)" d="M4.21463 0 .64343 1.34572 1.8178 0 .64343-1.34572Z"/>
<path transform="matrix(-.9486685,-.31623579,-.3162295,.9486874,209.0197,161.72708)" stroke-width=".3985" stroke-linecap="butt" stroke-miterlimit="10" stroke-linejoin="miter" fill="none" stroke="#000000" d="M4.21463 0 .64343 1.34572 1.8178 0 .64343-1.34572Z"/>
<path transform="matrix(1.00003,0,0,-1.00005,5.708664,243.25644)" stroke-width=".3985" stroke-linecap="butt" stroke-dasharray="2.98883,2.98883" stroke-miterlimit="10" stroke-linejoin="miter" fill="none" stroke="#000000" d="M5.32802 113.72867C-1.35017 107.23697-3.45576 99.8035-1.9238 93.74452"/>
<path transform="matrix(.24509736,.9695184,.9694992,-.24510224,3.3636838,147.84143)" d="M4.21463 0 .64343 1.34572 1.8178 0 .64343-1.34572Z"/>
<path transform="matrix(.24509736,.9695184,.9694992,-.24510224,3.3636838,147.84143)" stroke-width=".3985" stroke-linecap="butt" stroke-miterlimit="10" stroke-linejoin="miter" fill="none" stroke="#000000" d="M4.21463 0 .64343 1.34572 1.8178 0 .64343-1.34572Z"/>
<path transform="matrix(1.00003,0,0,-1.00005,5.708664,243.25644)" stroke-width=".3985" stroke-linecap="butt" stroke-dasharray="2.98883,2.98883" stroke-miterlimit="10" stroke-linejoin="miter" fill="none" stroke="#000000" d="M159.82463 119.12099 148.2342 133.60794"/>
<path transform="matrix(-.62469878,-.78083899,-.78082349,.62471118,155.02068,110.98346)" d="M4.21463 0 .64343 1.34572 1.8178 0 .64343-1.34572Z"/>
<path transform="matrix(-.62469878,-.78083899,-.78082349,.62471118,155.02068,110.98346)" stroke-width=".3985" stroke-linecap="butt" stroke-miterlimit="10" stroke-linejoin="miter" fill="none" stroke="#000000" d="M4.21463 0 .64343 1.34572 1.8178 0 .64343-1.34572Z"/>
<path transform="matrix(1.00003,0,0,-1.00005,5.708664,243.25644)" stroke-width=".3985" stroke-linecap="butt" stroke-dasharray="2.98883,2.98883" stroke-miterlimit="10" stroke-linejoin="miter" fill="none" stroke="#000000" d="M159.08307 80.22894 183.71446 83.7486"/>
<path transform="matrix(.98992976,-.14142707,-.14142426,-.98994949,187.72776,159.74665)" d="M4.21463 0 .64343 1.34572 1.8178 0 .64343-1.34572Z"/>
<path transform="matrix(.98992976,-.14142707,-.14142426,-.98994949,187.72776,159.74665)" stroke-width=".3985" stroke-linecap="butt" stroke-miterlimit="10" stroke-linejoin="miter" fill="none" stroke="#000000" d="M4.21463 0 .64343 1.34572 1.8178 0 .64343-1.34572Z"/>
</svg>
