<svg xmlns="http://www.w3.org/2000/svg" xmlns:xlink="http://www.w3.org/1999/xlink" xmlns:inkscape="http://www.inkscape.org/namespaces/inkscape" version="1.1" width="202" height="117" viewBox="0 0 202 117">
<defs>
<path id="font_1_1" d="M.44400025 .24998474C.44400025 .35688783 .35499574 .44381715 .25 .44381715 .14199829 .44381715 .054992677 .35488893 .054992677 .24998474 .054992677 .14407349 .14199829 .056137086 .25 .056137086 .35499574 .056137086 .44400025 .14308167 .44400025 .24998474Z"/>
<path id="font_2_1" d="M.08799744 .059265138C.084991458 .044265748 .07899475 .021255494 .07899475 .01625061 .07899475-.0017547608 .09298706-.0107421879 .10798645-.0107421879 .11999512-.0107421879 .13798523-.002746582 .14498902 .01725769 .1459961 .019256592 .1579895 .06626892 .1639862 .091278079L.18598938 .18130493C.19198609 .2033081 .19799805 .22531128 .20298767 .24832154 .20698548 .26531983 .21499634 .29434205 .21598816 .29833985 .23098755 .3293457 .28399659 .42037965 .3789978 .42037965 .42399598 .42037965 .43299867 .38336183 .43299867 .35035707 .43299867 .3253479 .42599488 .29733277 .41799928 .26733399L.3899994 .1512909 .36999513 .07527161C.3659973 .055267335 .35699464 .021255494 .35699464 .01625061 .35699464-.0017547608 .37098695-.0107421879 .38598634-.0107421879 .4169922-.0107421879 .4229889 .014251709 .43099977 .04626465 .44499208 .10227966 .48199464 .24832154 .4909973 .28733827 .49398805 .30033876 .5469971 .42037965 .6559906 .42037965 .69898989 .42037965 .70999148 .3863678 .70999148 .35035707 .70999148 .29333497 .66799929 .17930603 .647995 .12628174 .6389923 .10227966 .6349945 .091278079 .6349945 .0712738 .6349945 .024261475 .66999819-.0107421879 .71699526-.0107421879 .8109894-.0107421879 .84799197 .13528443 .84799197 .14329529 .84799197 .1532898 .83898928 .1532898 .83599856 .1532898 .82598879 .1532898 .82598879 .15029907 .82099917 .13528443 .80599978 .08227539 .7739868 .011245728 .71899417 .011245728 .70199587 .011245728 .69499209 .021255494 .69499209 .044265748 .69499209 .0692749 .70399478 .09327698 .71299746 .11528015 .7319946 .16729737 .7739868 .27833558 .7739868 .3353424 .7739868 .4003601 .73399356 .4423828 .6589966 .4423828 .58399966 .4423828 .5329895 .3983612 .49598695 .34535218 .49499513 .35835267 .49198915 .3923645 .46398927 .41636659 .43899537 .43737794 .40699769 .4423828 .38198854 .4423828 .2919922 .4423828 .24299622 .37835694 .22599793 .35534669 .22099304 .41236878 .1789856 .4423828 .13398743 .4423828 .08799744 .4423828 .068984989 .4033661 .05999756 .38536073 .041992189 .35035707 .0289917 .29133607 .0289917 .28833009 .0289917 .27833558 .038986207 .27833558 .040985109 .27833558 .050994874 .27833558 .051986696 .2793274 .057998659 .30133058 .07499695 .37236024 .09498596 .42037965 .1309967 .42037965 .14698792 .42037965 .1619873 .41236878 .1619873 .37435914 .1619873 .35334779 .15899658 .3423462 .1459961 .29032899L.08799744 .059265138Z"/>
<path id="font_3_1" d="M.33499146 .63612368C.33499146 .6630554 .33299256 .6640625 .30499269 .6640625 .24099732 .6014404 .1499939 .6004486 .10899353 .6004486V.5644531C.1329956 .5644531 .19898987 .5644531 .2539978 .592453V.08203125C.2539978 .04899597 .2539978 .035995485 .1539917 .035995485H.115997318V0C.13398743 .0009918213 .25698854 .0039978029 .2939911 .0039978029 .32499696 .0039978029 .45098878 .0009918213 .47299195 0V.035995485H.43499757C.33499146 .035995485 .33499146 .04899597 .33499146 .08203125V.63612368Z"/>
<path id="font_3_2" d="M.5049896 .18203736H.47099305C.46798707 .16001892 .45799256 .100997928 .44499208 .09098816 .43699647 .084991458 .3600006 .084991458 .34599305 .084991458H.1619873C.2669983 .17803955 .3019867 .20603943 .3619995 .25306703 .43598939 .312088 .5049896 .374115 .5049896 .46914674 .5049896 .5900879 .39898683 .6640625 .2709961 .6640625 .14698792 .6640625 .06298828 .57710269 .06298828 .4851532 .06298828 .43414308 .10598755 .42915345 .115997318 .42915345 .13999939 .42915345 .16899109 .44615174 .16899109 .48214723 .16899109 .5001526 .1619873 .53515627 .10998535 .53515627 .14099121 .6060791 .20899964 .62805178 .2559967 .62805178 .35598756 .62805178 .4079895 .5501404 .4079895 .46914674 .4079895 .38212586 .34599305 .3130951 .31399537 .27708436L.07299805 .038986207C.06298828 .02999878 .06298828 .027999878 .06298828 0H.47499085L.5049896 .18203736Z"/>
</defs>
<use data-text="&#x2022;" xlink:href="#font_1_1" transform="matrix(9.963098,0,0,-9.9626,13.777725,60.705999)"/>
<use data-text="&#x2022;" xlink:href="#font_1_1" transform="matrix(9.963098,0,0,-9.9626,42.126146,60.705999)"/>
<path transform="matrix(1.00005,0,0,-1,115.48781,86.839)" stroke-width=".3985" stroke-linecap="butt" stroke-miterlimit="10" stroke-linejoin="miter" fill="none" stroke="#000000" d="M-113.38724 0V56.69362H-56.69362V0ZM-56.69362 56.69362"/>
<use data-text="&#x2022;" xlink:href="#font_1_1" transform="matrix(9.963098,0,0,-9.9626,112.99668,60.705999)"/>
<use data-text="&#x2022;" xlink:href="#font_1_1" transform="matrix(9.963098,0,0,-9.9626,169.69351,32.358999)"/>
<use data-text="&#x2022;" xlink:href="#font_1_1" transform="matrix(9.963098,0,0,-9.9626,169.69351,89.05299)"/>
<path transform="matrix(1.00005,0,0,-1,115.48781,86.839)" stroke-width=".3985" stroke-linecap="butt" stroke-miterlimit="10" stroke-linejoin="miter" fill="none" stroke="#000000" d="M-28.3468-28.3468V85.04042H85.04042V-28.3468ZM85.04042 85.04042"/>
<path transform="matrix(1.00005,0,0,-1,115.48781,86.839)" stroke-width=".3985" stroke-linecap="butt" stroke-miterlimit="10" stroke-linejoin="miter" fill="none" stroke="#000000" d="M6.0105 31.35168 48.90106 52.79904"/>
<path transform="matrix(.89440467,-.4472,-.44722236,-.89436,164.39131,34.039957)" d="M1.99252 0-1.19551 1.59401 0 0-1.19551-1.59401"/>
<path transform="matrix(1.00005,0,0,-1,115.48781,86.839)" stroke-width=".3985" stroke-linecap="butt" stroke-miterlimit="10" stroke-linejoin="miter" fill="none" stroke="#000000" d="M6.0105 25.34192 48.90106 3.89456"/>
<path transform="matrix(.89440467,.4472,.44722236,-.89436,164.39131,82.944438)" d="M1.99252 0-1.19551 1.59401 0 0-1.19551-1.59401"/>
<path transform="matrix(1.00005,0,0,-1,115.48781,86.839)" stroke-width=".3985" stroke-linecap="butt" stroke-miterlimit="10" stroke-linejoin="miter" fill="none" stroke="#000000" d="M-93.20331 28.3468H-78.87004"/>
<path transform="matrix(1.00005,0,0,-1,36.61383,58.492197)" d="M1.99252 0-1.19551 1.59401 0 0-1.19551-1.59401"/>
<path transform="matrix(1.00005,0,0,-1,115.48781,86.839)" stroke-width=".3985" stroke-linecap="butt" stroke-miterlimit="10" stroke-linejoin="miter" fill="none" stroke="#0000ff" d="M-93.20331 31.81282C-63.75607 48.81413-35.45773 48.81413-7.73605 32.80905"/>
<path transform="matrix(.8660533,.49998,.50000497,-.86601,107.75135,54.029947)" d="M1.99252 0-1.19551 1.59401 0 0-1.19551-1.59401" fill="#0000ff"/>
<path transform="matrix(1.00005,0,0,-1,115.48781,86.839)" stroke-width=".3985" stroke-linecap="butt" stroke-miterlimit="10" stroke-linejoin="miter" fill="none" stroke="#ff0000" d="M-93.20331 24.88078C-63.75607 7.87947-35.45773 7.87947-7.73605 23.88455"/>
<path transform="matrix(.8660533,-.49998,-.50000497,-.86601,107.75135,62.954446)" d="M1.99252 0-1.19551 1.59401 0 0-1.19551-1.59401" fill="#ff0000"/>
<path transform="matrix(1.00005,0,0,-1,115.48781,86.839)" stroke-width=".3985" stroke-linecap="butt" stroke-miterlimit="10" stroke-linejoin="miter" fill="none" stroke="#0000ff" d="M-64.85649 33.85977C-30.61478 64.77423 6.78952 72.77922 48.7873 59.1955"/>
<path transform="matrix(.9515075,.30772,.30773539,-.95146,164.27754,27.643498)" d="M1.99252 0-1.19551 1.59401 0 0-1.19551-1.59401" fill="#0000ff"/>
<path transform="matrix(1.00005,0,0,-1,115.48781,86.839)" stroke-width=".3985" stroke-linecap="butt" stroke-miterlimit="10" stroke-linejoin="miter" fill="none" stroke="#ff0000" d="M-64.85649 22.83383C-30.61478-8.0806 6.78952-16.0856 48.7873-2.50188"/>
<path transform="matrix(.9515075,-.30772,-.30773539,-.95146,164.27754,89.34087)" d="M1.99252 0-1.19551 1.59401 0 0-1.19551-1.59401" fill="#ff0000"/>
<path transform="matrix(1.00005,0,0,-1,115.48781,86.839)" stroke-width=".3985" stroke-linecap="butt" stroke-dasharray="2.98883,2.98883" stroke-miterlimit="10" stroke-linejoin="miter" fill="none" stroke="#0000ff" d="M-85.04042 31.18166C-48.53664 58.64095-10.85071 63.2385 29.3482 46.13507"/>
<path transform="matrix(.92021599,.39148,.39149956,-.92017,144.83748,40.703927)" d="M1.99252 0-1.19551 1.59401 0 0-1.19551-1.59401" fill="#0000ff"/>
<use data-text="m" xlink:href="#font_2_1" transform="matrix(9.963098,0,0,-9.9626,79.87503,26.552998)" fill="#0000ff"/>
<use data-text="1" xlink:href="#font_3_1" transform="matrix(6.9741489,0,0,-6.9738,88.62247,28.047)" fill="#0000ff"/>
<path transform="matrix(1.00005,0,0,-1,115.48781,86.839)" stroke-width=".3985" stroke-linecap="butt" stroke-dasharray="2.98883,2.98883" stroke-miterlimit="10" stroke-linejoin="miter" fill="none" stroke="#ff0000" d="M-85.04042 25.51193C-48.53664-1.94734-10.85071-6.54489 29.3482 10.55852"/>
<path transform="matrix(.92021599,-.39148,-.39149956,-.92017,144.83748,76.28048)" d="M1.99252 0-1.19551 1.59401 0 0-1.19551-1.59401" fill="#ff0000"/>
<use data-text="m" xlink:href="#font_2_1" transform="matrix(9.963098,0,0,-9.9626,79.87503,93.227)" fill="#ff0000"/>
<use data-text="2" xlink:href="#font_3_2" transform="matrix(6.9741489,0,0,-6.9738,88.62247,94.721)" fill="#ff0000"/>
</svg>
