<svg xmlns="http://www.w3.org/2000/svg" xmlns:xlink="http://www.w3.org/1999/xlink" xmlns:inkscape="http://www.inkscape.org/namespaces/inkscape" version="1.1" width="160" height="131" viewBox="0 0 160 131">
<defs>
<path id="font_1_1" d="M.23899842 .1570282C.23999024 .1590271 .24699402 .16601563 .25 .16601563 .2539978 .16601563 .2919922 .122039798 .29899598 .11505127 .32798768 .08306885 .35699464 .051086427 .3869934 .021102906 .3909912 .016098023 .3939972 .016098023 .394989 .016098023 .40299989 .016098023 .4059906 .023101807 .4059906 .02709961 .4059906 .032104494 .375 .08607483 .34599305 .13703919L.30699159 .20898438 .48098756 .28894044C.49499513 .29592896 .49598695 .29992677 .49598695 .30392457 .49598695 .30891419 .49198915 .31391908 .4850006 .31391908 .48399354 .31391908 .43499757 .30491639 .2849884 .27494813L.2619934 .46281434C.2599945 .4808197 .25898744 .4848175 .25 .4848175 .24198914 .4848175 .23899842 .47981263 .23699951 .46281434L.21499634 .27494813 .02999878 .31192018C.024993897 .312912 .017990113 .31391908 .01499939 .31391908 .0079956059 .31391908 .0039978029 .30891419 .0039978029 .30392457 .0039978029 .29592896 .008987427 .29393006 .019989014 .28894044L.19400025 .20898438 .100997928 .04309082C.09498596 .031097413 .09399414 .03010559 .09399414 .02709961 .09399414 .023101807 .09700012 .016098023 .10499573 .016098023 .10699463 .016098023 .10998535 .016098023 .11999512 .02709961L.23899842 .1570282Z"/>
<path id="font_2_2" d="M.5159912 .31925965C.5159912 .42918397 .5029907 .50813296 .45700074 .5780945 .42599488 .62405398 .3639984 .6640625 .28399659 .6640625 .051986696 .6640625 .051986696 .39120484 .051986696 .31925965 .051986696 .2472992 .051986696-.01953125 .28399659-.01953125 .5159912-.01953125 .5159912 .2472992 .5159912 .31925965M.28399659 .008468628C.23799134 .008468628 .1769867 .035446168 .15699768 .117385867 .14299011 .17634583 .14299011 .25830079 .14299011 .33224488 .14299011 .40519715 .14299011 .4811554 .1579895 .53611758 .1789856 .6150665 .24299622 .63604739 .28399659 .63604739 .33799745 .63604739 .3899994 .6030731 .4079895 .545105 .42399598 .4911499 .4249878 .41918946 .4249878 .33224488 .4249878 .25830079 .4249878 .18434143 .4119873 .12138367 .3919983 .030441285 .32398988 .008468628 .28399659 .008468628Z"/>
<path id="font_3_1" d="M.69999697 .46954347C.71099856 .48054505 .71398928 .48654176 .71398928 .49354554 .71398928 .509552 .70098879 .5185547 .6899872 .5185547 .6799927 .5185547 .6769867 .5155487 .6649933 .50354006L.44599916 .28547669 .22599793 .5045471C.21598816 .5145416 .21199036 .5185547 .20298767 .5185547 .18899536 .5185547 .17799378 .5075531 .17799378 .49354554 .17799378 .48454286 .18099976 .48153688 .19299317 .46954347L.41099549 .25146485 .19299317 .03340149C.1789856 .01939392 .17799378 .014389038 .17799378 .008392334 .17799378-.0056152346 .18899536-.016601563 .20298767-.016601563 .21199036-.016601563 .21499634-.01361084 .22599793-.002609253L.44599916 .21646118 .673996-.0116119389C.67900088-.014602661 .6839905-.016601563 .6899872-.016601563 .70098879-.016601563 .71398928-.0076141359 .71398928 .008392334 .71398928 .01638794 .71199038 .0184021 .70899966 .021392823 .70700076 .025390625 .5130005 .2194519 .48098756 .25047303L.69999697 .46954347Z"/>
<path id="font_4_1" d="M.20599365 .11984253C.17098999 .06594849 .13899231 .039978029 .07998657 .035995485 .069992069 .034988405 .056991579 .034988405 .056991579 .01499939 .056991579 .0039978029 .06599426 0 .070999149 0 .09700012 0 .12998963 .0039978029 .15699768 .0039978029 .18899536 .0039978029 .22999573 0 .2599945 0 .2649994 0 .27999879 0 .27999879 .021987915 .27999879 .034988405 .2669983 .035995485 .2630005 .035995485 .25498963 .036987306 .21899414 .038986207 .21899414 .06594849 .21899414 .077926639 .22898865 .09489441 .23399353 .103881839L.31399537 .22766114H.59999087L.6239929 .061950685C.6199951 .051971437 .6139984 .035995485 .5549927 .035995485 .54299929 .035995485 .5289917 .035995485 .5289917 .01399231 .5289917 .009994507 .5319977 0 .54499819 0 .57398989 0 .644989 .0039978029 .673996 .0039978029 .69200137 .0039978029 .71499636 .0029907227 .73298647 .0029907227 .7509918 .0019989014 .7719879 0 .7899933 0 .8029938 0 .80999758 .0079956059 .80999758 .020996094 .80999758 .035995485 .7979889 .035995485 .7819977 .035995485 .723999 .035995485 .7220001 .04397583 .71899417 .06793213L.6309967 .6848755C.6279907 .70588687 .6259918 .7128906 .6069946 .7128906 .58799746 .7128906 .58200076 .70388796 .57299807 .6898804L.20599365 .11984253M.33799745 .26367188 .5479889 .5908356 .59498599 .26367188H.33799745Z"/>
<path id="font_5_1" d="M.44400025 .24998474C.44400025 .35688783 .35499574 .44381715 .25 .44381715 .14199829 .44381715 .054992677 .35488893 .054992677 .24998474 .054992677 .14407349 .14199829 .056137086 .25 .056137086 .35499574 .056137086 .44400025 .14308167 .44400025 .24998474Z"/>
<path id="font_2_1" d="M.46299745 .2263794H.7689972C.7819977 .2263794 .80599978 .2263794 .80599978 .25038148 .80599978 .27539063 .7829895 .27539063 .7689972 .27539063H.46299745V.5821533C.46299745 .59513857 .46299745 .6191406 .43899537 .6191406 .4139862 .6191406 .4139862 .5961304 .4139862 .5821533V.27539063H.10699463C.09399414 .27539063 .069992069 .27539063 .069992069 .25138856 .069992069 .2263794 .09298706 .2263794 .10699463 .2263794H.4139862V-.08114624C.4139862-.09416199 .4139862-.11816406 .43798829-.11816406 .46299745-.11816406 .46299745-.09516907 .46299745-.08114624V.2263794Z"/>
</defs>
<use data-text="&#x22c6;" xlink:href="#font_1_1" transform="matrix(9.962799,0,0,-9.963596,54.064699,17.545155)"/>
<use data-text="0" xlink:href="#font_2_2" transform="matrix(6.97394,0,0,-6.974498,59.045808,19.039303)"/>
<use data-text="&#x22c6;" xlink:href="#font_1_1" transform="matrix(9.962799,0,0,-9.963596,109.63081,17.130116)"/>
<use data-text="&#x00d7;" xlink:href="#font_3_1" transform="matrix(6.97394,0,0,-6.974498,114.61192,18.624264)"/>
<use data-text="&#x22c6;" xlink:href="#font_1_1" transform="matrix(9.962799,0,0,-9.963596,109.74882,74.24483)"/>
<use data-text="A" xlink:href="#font_4_1" transform="matrix(6.97394,0,0,-6.974498,114.72993,75.738979)"/>
<use data-text="&#x2022;" xlink:href="#font_5_1" transform="matrix(9.962799,0,0,-9.963596,141.34146,18.188221)"/>
<use data-text="&#x2022;" xlink:href="#font_5_1" transform="matrix(9.962799,0,0,-9.963596,141.34146,74.88789)"/>
<path transform="matrix(1.00002,0,0,-1.0001,58.789796,72.67367)" stroke-width=".3985" stroke-linecap="butt" stroke-miterlimit="10" stroke-linejoin="miter" fill="none" stroke="#000000" d="M-14.17339 42.5202V70.867H14.17339V42.5202ZM14.17339 70.867"/>
<path transform="matrix(1.00002,0,0,-1.0001,58.789796,72.67367)" stroke-width=".3985" stroke-linecap="butt" stroke-miterlimit="10" stroke-linejoin="miter" fill="none" stroke="#000000" d="M42.5202 42.5202V70.867H99.21382V42.5202ZM99.21382 70.867"/>
<path transform="matrix(1.00002,0,0,-1.0001,58.789796,72.67367)" stroke-width=".3985" stroke-linecap="butt" stroke-miterlimit="10" stroke-linejoin="miter" fill="none" stroke="#000000" d="M42.5202-14.17339V14.17339H99.21382V-14.17339ZM99.21382 14.17339"/>
<path transform="matrix(1.00002,0,0,-1.0001,58.789796,72.67367)" stroke-width=".3985" stroke-linecap="butt" stroke-miterlimit="10" stroke-linejoin="miter" fill="none" stroke="#000000" d="M28.34682-14.17339C28.34682 9.31015 9.31015 28.34682-14.17339 28.34682-37.65695 28.34682-56.69362 9.31015-56.69362-14.17339-56.69362-37.65695-37.65695-56.69362-14.17339-56.69362 9.31015-56.69362 28.34682-37.65695 28.34682-14.17339ZM-14.17339-14.17339"/>
<use data-text="&#x22c6;" xlink:href="#font_1_1" transform="matrix(9.962799,0,0,-9.963596,52.991678,73.82878)"/>
<use data-text="+" xlink:href="#font_2_1" transform="matrix(6.97394,0,0,-6.974498,57.972787,75.32293)"/>
<use data-text="&#x2022;" xlink:href="#font_5_1" transform="matrix(9.962799,0,0,-9.963596,27.952179,74.88789)"/>
<use data-text="&#x2022;" xlink:href="#font_5_1" transform="matrix(9.962799,0,0,-9.963596,56.298746,103.237728)"/>
<path transform="matrix(1.00002,0,0,-1.0001,58.789796,72.67367)" stroke-width=".3985" stroke-linecap="butt" stroke-miterlimit="10" stroke-linejoin="miter" fill="none" stroke="#000000" d="M47.32065 56.69362H10.23775"/>
<path transform="matrix(-1.00002,-0,0,1.0001,69.02775,15.9743809)" d="M1.99252 0-1.19551 1.59401 0 0-1.19551-1.59401"/>
<path transform="matrix(1.00002,0,0,-1.0001,58.789796,72.67367)" stroke-width=".3985" stroke-linecap="butt" stroke-miterlimit="10" stroke-linejoin="miter" fill="none" stroke="#000000" d="M56.69362 49.69374V8.57727"/>
<path transform="matrix(0,1.0001,1.00002,0,115.48455,64.09554)" d="M1.99252 0-1.19551 1.59401 0 0-1.19551-1.59401"/>
<path transform="matrix(1.00002,0,0,-1.0001,58.789796,72.67367)" stroke-width=".3985" stroke-linecap="butt" stroke-miterlimit="10" stroke-linejoin="miter" fill="none" stroke="#000000" d="M85.04042 50.95985V7.72627"/>
<path transform="matrix(0,1.0001,1.00002,0,143.83191,64.946628)" d="M1.99252 0-1.19551 1.59401 0 0-1.19551-1.59401"/>
<path transform="matrix(1.00002,0,0,-1.0001,58.789796,72.67367)" stroke-width=".3985" stroke-linecap="butt" stroke-miterlimit="10" stroke-linejoin="miter" fill="none" stroke="#000000" d="M0 50.10886V8.99239"/>
<path transform="matrix(0,1.0001,1.00002,0,58.789796,63.680379)" d="M1.99252 0-1.19551 1.59401 0 0-1.19551-1.59401"/>
<path transform="matrix(1.00002,0,0,-1.0001,58.789796,72.67367)" stroke-width=".3985" stroke-linecap="butt" stroke-miterlimit="10" stroke-linejoin="miter" fill="none" stroke="#000000" d="M47.43826 0H11.31013"/>
<path transform="matrix(-1.00002,-0,0,1.0001,70.10015,72.67367)" d="M1.99252 0-1.19551 1.59401 0 0-1.19551-1.59401"/>
<path transform="matrix(1.00002,0,0,-1.0001,58.789796,72.67367)" stroke-width=".3985" stroke-linecap="butt" stroke-miterlimit="10" stroke-linejoin="miter" fill="none" stroke="#000000" d="M49.69792 49.69374 8.40485 8.40863"/>
<path transform="matrix(-.7071842,.7071007,.7070442,.70724079,67.19482,64.2642)" d="M1.99252 0-1.19551 1.59401 0 0-1.19551-1.59401"/>
<path transform="matrix(1.00002,0,0,-1.0001,58.789796,72.67367)" stroke-width=".3985" stroke-linecap="butt" stroke-miterlimit="10" stroke-linejoin="miter" fill="none" stroke="#000000" d="M79.0299 53.68846-20.55426 3.89189"/>
<path transform="matrix(-.89437797,.44724474,.44720898,.8944495,38.235124,68.78139)" d="M1.99252 0-1.19551 1.59401 0 0-1.19551-1.59401"/>
<path transform="matrix(1.00002,0,0,-1.0001,58.789796,72.67367)" stroke-width=".3985" stroke-linecap="butt" stroke-miterlimit="10" stroke-linejoin="miter" fill="none" stroke="#000000" d="M79.0299-2.00319 7.9007-25.71529"/>
<path transform="matrix(-.948659,.3162516,.3162263,.9487349,66.69065,98.391529)" d="M1.99252 0-1.19551 1.59401 0 0-1.19551-1.59401"/>
</svg>
