<svg xmlns="http://www.w3.org/2000/svg" xmlns:xlink="http://www.w3.org/1999/xlink" xmlns:inkscape="http://www.inkscape.org/namespaces/inkscape" version="1.1" width="287" height="78" viewBox="0 0 287 78">
<defs>
<path id="font_1_1" d="M.1789856 .114868167C.13899231 .047973634 .099990848 .033981325 .055999757 .0309906 .04399109 .02999878 .034988405 .02999878 .034988405 .010986328 .034988405 .004989624 .039993287 0 .04798889 0 .07499695 0 .10598755 .0029907227 .13398743 .0029907227 .16699219 .0029907227 .20199585 0 .23399353 0 .23999024 0 .25299073 0 .25299073 .018997193 .25299073 .02999878 .24398804 .0309906 .23699951 .0309906 .21398926 .032989503 .18998719 .04096985 .18998719 .06593323 .18998719 .077926639 .19599915 .088897708 .20399475 .102890018L.27999879 .23068238H.5309906C.5329895 .2097168 .5469971 .07392883 .5469971 .063949588 .5469971 .033981325 .49499513 .0309906 .47499085 .0309906 .46099855 .0309906 .45098878 .0309906 .45098878 .010986328 .45098878 0 .46299745 0 .46499635 0 .5059967 0 .548996 .0029907227 .58999636 .0029907227 .61499026 .0029907227 .6779938 0 .7029877 0 .70899966 0 .72099307 0 .72099307 .019989014 .72099307 .0309906 .71099856 .0309906 .69799807 .0309906 .6359863 .0309906 .6359863 .037979127 .6329956 .06694031L.57199099 .691803C.56999209 .71180728 .56999209 .7158203 .5529938 .7158203 .5369873 .7158203 .5329895 .7088165 .5269928 .69880679L.1789856 .114868167M.29899598 .26168824 .49598695 .5917816 .5279999 .26168824H.29899598Z"/>
<path id="font_1_2" d="M.1599884 .07795715C.1499939 .038986207 .147995 .0309906 .068984989 .0309906 .051986696 .0309906 .041992189 .0309906 .041992189 .010986328 .041992189 0 .050994874 0 .068984989 0H.42599488C.58399966 0 .70199587 .11791992 .70199587 .21585083 .70199587 .28778077 .6439972 .3457489 .5469971 .35673524 .651001 .37573243 .7559967 .44970704 .7559967 .5446625 .7559967 .6186218 .6899872 .6826172 .56999209 .6826172H.23399353C.21499634 .6826172 .20498657 .6826172 .20498657 .6626129 .20498657 .6516113 .21398926 .6516113 .23298645 .6516113 .23498535 .6516113 .2539978 .6516113 .2709961 .6496124 .2889862 .6476135 .2979889 .64660647 .2979889 .6336212 .2979889 .6296234 .29699708 .62661746 .2939911 .614624L.1599884 .07795715M.31098939 .36573792 .37298585 .6136322C.38198854 .64860537 .38398744 .6516113 .4269867 .6516113H.55599978C.6439972 .6516113 .6649933 .5926361 .6649933 .5486603 .6649933 .46069337 .57899478 .36573792 .45700074 .36573792H.31098939M.2659912 .0309906C.2519989 .0309906 .25 .0309906 .24398804 .03199768 .23399353 .032989503 .23098755 .033996583 .23098755 .04197693 .23098755 .04498291 .23098755 .04698181 .23599243 .064971927L.30499269 .34375H.49398805C.58999636 .34375 .60899356 .2698059 .60899356 .22683716 .60899356 .12791443 .519989 .0309906 .4019928 .0309906H.2659912Z"/>
</defs>
<path transform="matrix(1.00008,0,0,-1.00003,30.444916,104.53975)" stroke-width=".3985" stroke-linecap="butt" stroke-miterlimit="10" stroke-linejoin="miter" fill="none" stroke="#000000" d="M28.3468 56.69362C28.3468 72.34932 15.6557 85.04042 0 85.04042-15.6557 85.04042-28.3468 72.34932-28.3468 56.69362-28.3468 41.0379-15.6557 28.3468 0 28.3468 15.6557 28.3468 28.3468 41.0379 28.3468 56.69362ZM0 56.69362"/>
<use data-text="A" xlink:href="#font_1_1" transform="matrix(9.963397,0,0,-9.962899,26.708619,8.726875)"/>
<path transform="matrix(1.00008,0,0,-1.00003,30.444916,104.53975)" d="M1.49435 70.867C1.49435 71.69232 .8253 72.36136 0 72.36136-.8253 72.36136-1.49435 71.69232-1.49435 70.867-1.49435 70.04169-.8253 69.37265 0 69.37265 .8253 69.37265 1.49435 70.04169 1.49435 70.867ZM0 70.867"/>
<path transform="matrix(1.00008,0,0,-1.00003,30.444916,104.53975)" stroke-width=".3985" stroke-linecap="butt" stroke-miterlimit="10" stroke-linejoin="miter" fill="none" stroke="#000000" d="M1.49435 70.867C1.49435 71.69232 .8253 72.36136 0 72.36136-.8253 72.36136-1.49435 71.69232-1.49435 70.867-1.49435 70.04169-.8253 69.37265 0 69.37265 .8253 69.37265 1.49435 70.04169 1.49435 70.867ZM0 70.867"/>
<path transform="matrix(1.00008,0,0,-1.00003,30.444916,104.53975)" d="M1.49435 42.5202C1.49435 43.34552 .8253 44.01456 0 44.01456-.8253 44.01456-1.49435 43.34552-1.49435 42.5202-1.49435 41.69489-.8253 41.02585 0 41.02585 .8253 41.02585 1.49435 41.69489 1.49435 42.5202ZM0 42.5202"/>
<path transform="matrix(1.00008,0,0,-1.00003,30.444916,104.53975)" stroke-width=".3985" stroke-linecap="butt" stroke-miterlimit="10" stroke-linejoin="miter" fill="none" stroke="#000000" d="M1.49435 42.5202C1.49435 43.34552 .8253 44.01456 0 44.01456-.8253 44.01456-1.49435 43.34552-1.49435 42.5202-1.49435 41.69489-.8253 41.02585 0 41.02585 .8253 41.02585 1.49435 41.69489 1.49435 42.5202ZM0 42.5202"/>
<use data-text="B" xlink:href="#font_1_2" transform="matrix(9.963397,0,0,-9.962899,139.81267,8.726875)"/>
<path transform="matrix(1.00008,0,0,-1.00003,30.444916,104.53975)" stroke-width=".3985" stroke-linecap="butt" stroke-miterlimit="10" stroke-linejoin="miter" fill="none" stroke="#000000" d="M141.73404 56.69362C141.73404 72.34932 129.04294 85.04042 113.38724 85.04042 97.73152 85.04042 85.04042 72.34932 85.04042 56.69362 85.04042 41.0379 97.73152 28.3468 113.38724 28.3468 129.04294 28.3468 141.73404 41.0379 141.73404 56.69362ZM113.38724 56.69362"/>
<path transform="matrix(1.00008,0,0,-1.00003,30.444916,104.53975)" d="M114.88159 76.53629C114.88159 77.3616 114.21254 78.03064 113.38724 78.03064 112.56192 78.03064 111.89288 77.3616 111.89288 76.53629 111.89288 75.71097 112.56192 75.04193 113.38724 75.04193 114.21254 75.04193 114.88159 75.71097 114.88159 76.53629ZM113.38724 76.53629"/>
<path transform="matrix(1.00008,0,0,-1.00003,30.444916,104.53975)" stroke-width=".3985" stroke-linecap="butt" stroke-miterlimit="10" stroke-linejoin="miter" fill="none" stroke="#000000" d="M114.88159 76.53629C114.88159 77.3616 114.21254 78.03064 113.38724 78.03064 112.56192 78.03064 111.89288 77.3616 111.89288 76.53629 111.89288 75.71097 112.56192 75.04193 113.38724 75.04193 114.21254 75.04193 114.88159 75.71097 114.88159 76.53629ZM113.38724 76.53629"/>
<path transform="matrix(1.00008,0,0,-1.00003,30.444916,104.53975)" d="M114.88159 56.69362C114.88159 57.51892 114.21254 58.18797 113.38724 58.18797 112.56192 58.18797 111.89288 57.51892 111.89288 56.69362 111.89288 55.8683 112.56192 55.19926 113.38724 55.19926 114.21254 55.19926 114.88159 55.8683 114.88159 56.69362ZM113.38724 56.69362"/>
<path transform="matrix(1.00008,0,0,-1.00003,30.444916,104.53975)" stroke-width=".3985" stroke-linecap="butt" stroke-miterlimit="10" stroke-linejoin="miter" fill="none" stroke="#000000" d="M114.88159 56.69362C114.88159 57.51892 114.21254 58.18797 113.38724 58.18797 112.56192 58.18797 111.89288 57.51892 111.89288 56.69362 111.89288 55.8683 112.56192 55.19926 113.38724 55.19926 114.21254 55.19926 114.88159 55.8683 114.88159 56.69362ZM113.38724 56.69362"/>
<path transform="matrix(1.00008,0,0,-1.00003,30.444916,104.53975)" d="M114.88159 36.85092C114.88159 37.67624 114.21254 38.34528 113.38724 38.34528 112.56192 38.34528 111.89288 37.67624 111.89288 36.85092 111.89288 36.0256 112.56192 35.35657 113.38724 35.35657 114.21254 35.35657 114.88159 36.0256 114.88159 36.85092ZM113.38724 36.85092"/>
<path transform="matrix(1.00008,0,0,-1.00003,30.444916,104.53975)" stroke-width=".3985" stroke-linecap="butt" stroke-miterlimit="10" stroke-linejoin="miter" fill="none" stroke="#000000" d="M114.88159 36.85092C114.88159 37.67624 114.21254 38.34528 113.38724 38.34528 112.56192 38.34528 111.89288 37.67624 111.89288 36.85092 111.89288 36.0256 112.56192 35.35657 113.38724 35.35657 114.21254 35.35657 114.88159 36.0256 114.88159 36.85092ZM113.38724 36.85092"/>
<path transform="matrix(1.00008,0,0,-1.00003,30.444916,104.53975)" stroke-width=".3985" stroke-linecap="butt" stroke-miterlimit="10" stroke-linejoin="miter" fill="none" stroke="#000000" d="M255.12128 56.69362C255.12128 72.34932 242.43018 85.04042 226.77448 85.04042 211.11876 85.04042 198.42766 72.34932 198.42766 56.69362 198.42766 41.0379 211.11876 28.3468 226.77448 28.3468 242.43018 28.3468 255.12128 41.0379 255.12128 56.69362ZM226.77448 56.69362"/>
<use data-text="A" xlink:href="#font_1_1" transform="matrix(9.963397,0,0,-9.962899,253.50075,8.726875)"/>
<path transform="matrix(1.00008,0,0,-1.00003,30.444916,104.53975)" d="M228.26883 70.867C228.26883 71.69232 227.5998 72.36136 226.77448 72.36136 225.94916 72.36136 225.28012 71.69232 225.28012 70.867 225.28012 70.04169 225.94916 69.37265 226.77448 69.37265 227.5998 69.37265 228.26883 70.04169 228.26883 70.867ZM226.77448 70.867"/>
<path transform="matrix(1.00008,0,0,-1.00003,30.444916,104.53975)" stroke-width=".3985" stroke-linecap="butt" stroke-miterlimit="10" stroke-linejoin="miter" fill="none" stroke="#000000" d="M228.26883 70.867C228.26883 71.69232 227.5998 72.36136 226.77448 72.36136 225.94916 72.36136 225.28012 71.69232 225.28012 70.867 225.28012 70.04169 225.94916 69.37265 226.77448 69.37265 227.5998 69.37265 228.26883 70.04169 228.26883 70.867ZM226.77448 70.867"/>
<path transform="matrix(1.00008,0,0,-1.00003,30.444916,104.53975)" d="M228.26883 42.5202C228.26883 43.34552 227.5998 44.01456 226.77448 44.01456 225.94916 44.01456 225.28012 43.34552 225.28012 42.5202 225.28012 41.69489 225.94916 41.02585 226.77448 41.02585 227.5998 41.02585 228.26883 41.69489 228.26883 42.5202ZM226.77448 42.5202"/>
<path transform="matrix(1.00008,0,0,-1.00003,30.444916,104.53975)" stroke-width=".3985" stroke-linecap="butt" stroke-miterlimit="10" stroke-linejoin="miter" fill="none" stroke="#000000" d="M228.26883 42.5202C228.26883 43.34552 227.5998 44.01456 226.77448 44.01456 225.94916 44.01456 225.28012 43.34552 225.28012 42.5202 225.28012 41.69489 225.94916 41.02585 226.77448 41.02585 227.5998 41.02585 228.26883 41.69489 228.26883 42.5202ZM226.77448 42.5202"/>
<path transform="matrix(1.00008,0,0,-1.00003,30.444916,104.53975)" stroke-width=".3985" stroke-linecap="butt" stroke-dasharray="2.98883,2.98883" stroke-miterlimit="10" stroke-linejoin="miter" fill="none" stroke="#000000" d="M0 70.867 110.32726 76.38332"/>
<path transform="matrix(.99879989,-.0499315,-.049933994,-.99875,139.06488,28.23993)" d="M4.21463 0 .64343 1.34572 1.8178 0 .64343-1.34572Z"/>
<path transform="matrix(.99879989,-.0499315,-.049933994,-.99875,139.06488,28.23993)" stroke-width=".3985" stroke-linecap="butt" stroke-miterlimit="10" stroke-linejoin="miter" fill="none" stroke="#000000" d="M4.21463 0 .64343 1.34572 1.8178 0 .64343-1.34572Z"/>
<path transform="matrix(1.00008,0,0,-1.00003,30.444916,104.53975)" stroke-width=".3985" stroke-linecap="butt" stroke-dasharray="2.98883,2.98883" stroke-miterlimit="10" stroke-linejoin="miter" fill="none" stroke="#000000" d="M0 70.867 110.34703 57.0736"/>
<path transform="matrix(.9923394,.12402373,.12402992,-.9922898,139.09575,47.251329)" d="M4.21463 0 .64343 1.34572 1.8178 0 .64343-1.34572Z"/>
<path transform="matrix(.9923394,.12402373,.12402992,-.9922898,139.09575,47.251329)" stroke-width=".3985" stroke-linecap="butt" stroke-miterlimit="10" stroke-linejoin="miter" fill="none" stroke="#000000" d="M4.21463 0 .64343 1.34572 1.8178 0 .64343-1.34572Z"/>
<path transform="matrix(1.00008,0,0,-1.00003,30.444916,104.53975)" stroke-width=".3985" stroke-linecap="butt" stroke-dasharray="2.98883,2.98883" stroke-miterlimit="10" stroke-linejoin="miter" fill="none" stroke="#000000" d="M0 70.867 110.45268 37.73131"/>
<path transform="matrix(.9578566,.28734864,.28736297,-.9578088,139.26065,66.3136)" d="M4.21463 0 .64343 1.34572 1.8178 0 .64343-1.34572Z"/>
<path transform="matrix(.9578566,.28734864,.28736297,-.9578088,139.26065,66.3136)" stroke-width=".3985" stroke-linecap="butt" stroke-miterlimit="10" stroke-linejoin="miter" fill="none" stroke="#000000" d="M4.21463 0 .64343 1.34572 1.8178 0 .64343-1.34572Z"/>
<path transform="matrix(1.00008,0,0,-1.00003,30.444916,104.53975)" stroke-width=".3985" stroke-linecap="butt" stroke-dasharray="2.98883,2.98883" stroke-miterlimit="10" stroke-linejoin="miter" fill="none" stroke="#000000" d="M113.38724 76.53629 223.7145 71.01997"/>
<path transform="matrix(.99879989,.0499315,.049933994,-.99875,252.46118,33.431856)" d="M4.21463 0 .64343 1.34572 1.8178 0 .64343-1.34572Z"/>
<path transform="matrix(.99879989,.0499315,.049933994,-.99875,252.46118,33.431856)" stroke-width=".3985" stroke-linecap="butt" stroke-miterlimit="10" stroke-linejoin="miter" fill="none" stroke="#000000" d="M4.21463 0 .64343 1.34572 1.8178 0 .64343-1.34572Z"/>
<path transform="matrix(1.00008,0,0,-1.00003,30.444916,104.53975)" stroke-width=".3985" stroke-linecap="butt" stroke-dasharray="2.98883,2.98883" stroke-miterlimit="10" stroke-linejoin="miter" fill="none" stroke="#000000" d="M113.38724 56.69362 223.73427 70.48701"/>
<path transform="matrix(.9923394,-.12402373,-.12402992,-.9922898,252.49205,34.263704)" d="M4.21463 0 .64343 1.34572 1.8178 0 .64343-1.34572Z"/>
<path transform="matrix(.9923394,-.12402373,-.12402992,-.9922898,252.49205,34.263704)" stroke-width=".3985" stroke-linecap="butt" stroke-miterlimit="10" stroke-linejoin="miter" fill="none" stroke="#000000" d="M4.21463 0 .64343 1.34572 1.8178 0 .64343-1.34572Z"/>
<path transform="matrix(1.00008,0,0,-1.00003,30.444916,104.53975)" stroke-width=".3985" stroke-linecap="butt" stroke-dasharray="2.98883,2.98883" stroke-miterlimit="10" stroke-linejoin="miter" fill="none" stroke="#000000" d="M113.38724 36.85092 223.83992 69.98663"/>
<path transform="matrix(.9578566,-.28734864,-.28736297,-.9578088,252.65697,35.044717)" d="M4.21463 0 .64343 1.34572 1.8178 0 .64343-1.34572Z"/>
<path transform="matrix(.9578566,-.28734864,-.28736297,-.9578088,252.65697,35.044717)" stroke-width=".3985" stroke-linecap="butt" stroke-miterlimit="10" stroke-linejoin="miter" fill="none" stroke="#000000" d="M4.21463 0 .64343 1.34572 1.8178 0 .64343-1.34572Z"/>
</svg>
