<svg xmlns="http://www.w3.org/2000/svg" xmlns:xlink="http://www.w3.org/1999/xlink" xmlns:inkscape="http://www.inkscape.org/namespaces/inkscape" version="1.1" width="188" height="71" viewBox="0 0 188 71">
<defs>
<path id="font_1_74" d="M.8789978 0V.0309906H.8549957C.7779999 .0309906 .776001 .041992189 .776001 .07795715V.6046295C.776001 .64060977 .7779999 .6516113 .8549957 .6516113H.8789978V.6826172H.70999148C.6839905 .6826172 .6839905 .6816101 .6769867 .66360476L.45799256 .10095215 .24099732 .660614C.23199463 .6826172 .22898865 .6826172 .20599365 .6826172H.036987306V.6516113H.06098938C.13798523 .6516113 .13999939 .64060977 .13999939 .6046295V.10494995C.13999939 .07795715 .13999939 .0309906 .036987306 .0309906V0L.1539917 .0029907227 .2709961 0V.0309906C.16799927 .0309906 .16799927 .07795715 .16799927 .10494995V.6436157H.16899109L.4099884 .021987915C.4149933 .008987427 .41999818 0 .42999269 0 .44099427 0 .44400025 .0079956059 .44799806 .018997193L.69400027 .6516113H.69499209V.07795715C.69499209 .041992189 .69299319 .0309906 .6159973 .0309906H.59199526V0C.6289978 .0029907227 .69699099 .0029907227 .73599246 .0029907227 .7749939 .0029907227 .84199526 .0029907227 .8789978 0Z"/>
<path id="font_1_28" d="M.48298646 .08912659V.14511109H.45799256V.08912659C.45799256 .03112793 .43299867 .025131226 .42199708 .025131226 .3889923 .025131226 .3849945 .070129398 .3849945 .07511902V.27508546C.3849945 .31707765 .3849945 .3560791 .34899903 .39312745 .30999757 .43223573 .2599945 .4482422 .21199036 .4482422 .12998963 .4482422 .06098938 .40115357 .06098938 .335083 .06098938 .30508424 .08099365 .28808595 .10699463 .28808595 .1349945 .28808595 .15299988 .30807496 .15299988 .33407594 .15299988 .3460846 .147995 .37908937 .101989749 .38008119 .1289978 .41519166 .17799378 .426239 .20999146 .426239 .25898744 .426239 .31599427 .38710023 .31599427 .29808045V.26107789C.2649994 .25808717 .19499207 .25508119 .13198853 .22509766 .056991579 .19110108 .03199768 .13911438 .03199768 .09512329 .03199768 .014251709 .1289978-.0107421879 .19198609-.0107421879 .2579956-.0107421879 .3039856 .029251099 .32299806 .07624817 .32699586 .036132814 .35398866-.005859375 .40098573-.005859375 .42199708-.005859375 .48298646 .008132935 .48298646 .08912659M.31599427 .14013672C.31599427 .04525757 .24398804 .011245728 .19898987 .011245728 .1499939 .011245728 .10899353 .04624939 .10899353 .09625244 .10899353 .15124512 .15098572 .23425293 .31599427 .24024964V.14013672Z"/>
<path id="font_1_84" d="M.5209961 .21636963C.5209961 .34336854 .42399598 .4423828 .31199647 .4423828 .23399353 .4423828 .19198609 .39837647 .17199707 .3763733V.4423828L.027999878 .43066407V.3996582C.09899902 .3996582 .10598755 .3936615 .10598755 .34973146V-.117996219C.10598755-.16308594 .09498596-.16308594 .027999878-.16308594V-.1940918L.13999939-.19110108 .25299073-.1940918V-.16308594C.18598938-.16308594 .1749878-.16308594 .1749878-.117996219V.050186159 .059173585C.17999268 .04319763 .22200012-.0107421879 .2979889-.0107421879 .4169922-.0107421879 .5209961 .087127689 .5209961 .21594239V.21636963M.43798829 .21594239C.43798829 .09512329 .36799623 .011245728 .2939911 .011245728 .2539978 .011245728 .21598816 .031219483 .18899536 .07215881 .1749878 .09312439 .1749878 .09411621 .1749878 .114089969V.33674623C.20399475 .38838197 .25299073 .41737367 .3039856 .41737367 .3769989 .41737367 .43798829 .32937623 .43798829 .21636963V.21594239Z"/>
<path id="font_1_98" d="M.3600006 .12823487C.3600006 .18122864 .32998658 .21122742 .31799317 .22323609 .2849884 .25523377 .24598694 .26322938 .20399475 .27124024 .147995 .28224183 .08099365 .29522706 .08099365 .35324098 .08099365 .38822938 .10699463 .42922975 .19299317 .42922975 .30299378 .42922975 .30799867 .3392334 .30999757 .30822755 .31098939 .2992401 .32199098 .2992401 .32199098 .2992401 .33499146 .2992401 .33499146 .30422975 .33499146 .32322694V.4242401C.33499146 .4412384 .33499146 .4482422 .32398988 .4482422 .31900025 .4482422 .31698609 .4482422 .3039856 .43623353 .30099488 .43223573 .29100038 .42323304 .2869873 .42022706 .24899292 .4482422 .20799256 .4482422 .19299317 .4482422 .070999149 .4482422 .032989503 .38124085 .032989503 .3252411 .032989503 .29023744 .04899597 .26223756 .07598877 .24023438 .10798645 .2142334 .13598633 .2082367 .20799256 .19422913 .22999573 .19021607 .31199647 .17422486 .31199647 .10221863 .31199647 .051223756 .2769928 .011245728 .19898987 .011245728 .114990238 .011245728 .07899475 .068222049 .05999756 .1532135 .056991579 .16621399 .055999757 .17021179 .04598999 .17021179 .032989503 .17021179 .032989503 .16322327 .032989503 .1452179V.013214111C.032989503-.003753662 .032989503-.0107421879 .04399109-.0107421879 .04899597-.0107421879 .049987794-.009750366 .068984989 .009246826 .070999149 .011245728 .070999149 .013214111 .08898926 .032226564 .1329956-.009750366 .17799378-.0107421879 .19898987-.0107421879 .31399537-.0107421879 .3600006 .05621338 .3600006 .1282196V.12823487Z"/>
<path id="font_1_66" d="M.24699402 0V.0309906C.18099976 .0309906 .1769867 .035995485 .1769867 .075042728V.4423828L.036987306 .43066407V.3996582C.101989749 .3996582 .11099243 .3936615 .11099243 .3447113V.07595825C.11099243 .0309906 .099990848 .0309906 .032989503 .0309906V0L.14299011 .0029907227C.17799378 .0029907227 .21299744 .0009918213 .24699402 0M.19198609 .603775C.19198609 .6307678 .16899109 .6567688 .13899231 .6567688 .10499573 .6567688 .084991458 .6287689 .084991458 .603775 .084991458 .57676699 .10798645 .55078127 .13798523 .55078127 .17199707 .55078127 .19198609 .5787811 .19198609 .603775Z"/>
<path id="font_1_77" d="M.5349884 0V.0309906C.48298646 .0309906 .45799256 .0309906 .45700074 .061019899V.25221253C.45700074 .3383026 .45700074 .36932374 .42599488 .405365 .4119873 .42237855 .3789978 .4423828 .32099916 .4423828 .24798584 .4423828 .20098877 .39935304 .17298889 .33729554V.4423828L.03199768 .43066407V.3996582C.101989749 .3996582 .10998535 .39266969 .10998535 .34370423V.07595825C.10998535 .0309906 .09899902 .0309906 .03199768 .0309906V0L.14498902 .0029907227 .25698854 0V.0309906C.18998719 .0309906 .1789856 .0309906 .1789856 .07595825V.25978089C.1789856 .36431886 .25 .42037965 .31399537 .42037965 .3769989 .42037965 .3880005 .36631776 .3880005 .30926515V.076034549C.3880005 .0309906 .3769989 .0309906 .30999757 .0309906V0L.4229889 .0029907227 .5349884 0Z"/>
<path id="font_2_2" d="M.114990238 .21868897C.1269989 .22369385 .1619873 .24571228 .1619873 .2597351 .1619873 .2667389 .1559906 .2667389 .1499939 .2667389 .115997318 .2667389 .017990113 .22369385 .017990113 .12361145 .017990113 .05154419 .09899902-.022460938 .22099304-.022460938 .38398744-.022460938 .57299807 .09057617 .57299807 .22669983 .57299807 .32177735 .47299195 .36782838 .3919983 .40385438 .32199098 .43588258 .27598573 .47691346 .27598573 .53396609 .27598573 .5549774 .2849884 .59402468 .31599427 .621048 .34599305 .6470642 .4019928 .6500702 .41600038 .6500702 .4269867 .6500702 .46899415 .6490631 .5119934 .63005068 .5309906 .621048 .5569916 .60902407 .5569916 .56599429 .5569916 .5519867 .55599978 .5469818 .5529938 .53596499 .5519867 .532959 .5509949 .5289612 .5509949 .5259552 .5509949 .5189514 .5569916 .5189514 .5609894 .5189514 .57398989 .5189514 .59799197 .5289612 .6179962 .54597476 .6309967 .5559845 .6419983 .56900027 .6419983 .6080322 .6419983 .657074 .6159973 .6710663 .58898928 .68307498 .5419922 .7050781 .49598695 .7050781 .48199464 .7050781 .35099793 .7050781 .19099427 .60502627 .19099427 .49092103 .19099427 .40686036 .27799989 .3668213 .32598878 .34580995 .39698792 .31378175 .48799134 .2677307 .48799134 .18365479 .48799134 .116607669 .43899537 .03253174 .2869873 .03253174 .18499756 .03253174 .102996829 .098587039 .102996829 .16664124 .102996829 .18466187 .10798645 .2026825 .114990238 .21868897Z"/>
<path id="font_3_1" d="M.36099244 .5739441C.29299928 .5139618 .27398683 .43096925 .27398683 .41996766 .27398683 .41096498 .2809906 .40596009 .28799439 .40596009 .29699708 .40596009 .30599977 .4099579 .30899049 .42095948 .34498597 .552948 .43899537 .58496096 .44198609 .58496096 .44898988 .58595278 .46299745 .58695986 .46299745 .6019592 .46299745 .6189575 .44499208 .6189575 .43699647 .6189575 .4229889 .6189575 .4019928 .6169586 .3880005 .61395266 .3849945 .61395266 .3809967 .6129608 .37799073 .6129608 .375 .6129608 .33999635 .61595156 .2979889 .63694766 .2669983 .6529541 .25099183 .6679535 .23498535 .68196108 .23098755 .68595889 .22799683 .6889496 .22299195 .6889496 .21899414 .6889496 .20098877 .6869507 .20098877 .6729584 .20098877 .6589508 .25 .6189575 .31098939 .59295657 .18598938 .5459595 .07798767 .41596986 .07798767 .25097657 .07798767 .04399109 .24398804-.117996219 .44599916-.117996219 .6499939-.117996219 .81399539 .04699707 .81399539 .24998474 .81399539 .48095704 .6179962 .58395388 .598999 .58395388 .59098818 .58395388 .58200076 .575943 .58200076 .56695559 .58200076 .5569458 .58699038 .5539551 .60398867 .5459595 .71798709 .48495484 .7799988 .3659668 .7799988 .25097657 .7799988 .06500244 .6299896-.083984378 .44599916-.083984378 .2599945-.083984378 .11199951 .06700134 .11199951 .24998474 .11199951 .3829651 .19299317 .526947 .36099244 .5739441Z"/>
<path id="font_4_1" d="M.11199951 .5946045V.10694885C.11199951 .053985597 .10398865 .035995485 .052993776 .034988405 .041992189 .034988405 .024993897 .033996583 .024993897 .017990113 .024993897 0 .040985109 0 .05899048 0H.21398926C.23199463 0 .24699402 0 .24699402 .017990113 .24699402 .033996583 .23098755 .034988405 .21699524 .034988405 .1619873 .035995485 .1539917 .05697632 .1539917 .108947757V.5666199L.58599856-.0035552979C.59498599-.015563965 .59999087-.018554688 .6069946-.018554688 .6239929-.018554688 .6239929-.0025634766 .6239929 .014419556V.57865908C.6239929 .6345825 .6329956 .6485596 .67900088 .64956668 .68499758 .64956668 .70199587 .6505585 .70199587 .66656497 .70199587 .6845703 .68699648 .6845703 .6689911 .6845703H.522995C.5049896 .6845703 .4889984 .6845703 .4889984 .66656497 .4889984 .64956668 .5069885 .64956668 .5179901 .64956668 .57398989 .6485596 .58200076 .6285858 .58200076 .5756531V.26307679L.27999879 .67056277C.269989 .6845703 .2669983 .6845703 .24398804 .6845703H.069992069C.051986696 .6845703 .036987306 .6845703 .036987306 .66656497 .036987306 .65156558 .051986696 .64956668 .057998659 .64956668 .084991458 .64656069 .10398865 .6305847 .11399841 .61860659 .11199951 .6105957 .11199951 .6085968 .11199951 .5946045M.58898928 .050979616 .1539917 .62557986C.14399719 .63757327 .14399719 .63957217 .1329956 .64956668H.2519989L.58898928 .19488526V.050979616Z"/>
<path id="font_5_2" d="M.58499148 .36265565C.60198977 .36265565 .61099246 .36265565 .621994 .37065126 .6349945 .38165284 .6380005 .3956604 .6380005 .40264894 .6380005 .43066407 .6119995 .43066407 .59498599 .43066407H.33898927C.1789856 .43066407 .05899048 .2728119 .05899048 .15299988 .05899048 .060150148 .12799073-.009765625 .22999573-.009765625 .35598756-.009765625 .5 .1040802 .5 .25683595 .5 .2728119 .5 .31773377 .46998597 .36265565H.58499148M.23098755 .018234253C.1769867 .018234253 .13198853 .0541687 .13198853 .12504578 .13198853 .15499878 .1499939 .36265565 .32199098 .36265565 .37298585 .36265565 .4249878 .34368897 .4249878 .267807 .4249878 .24984741 .41600038 .1599884 .36698915 .09310913 .32499696 .03819275 .2689972 .018234253 .23098755 .018234253Z"/>
<path id="font_2_1" d="M.83399966 .23046875C.7789917 .1884613 .7519989 .14746094 .74398806 .13446045 .69898989 .065460208 .69099429 .002456665 .69099429 .0014648438 .69099429-.010543823 .7029877-.010543823 .71099856-.010543823 .7279968-.010543823 .72898867-.008544922 .73298647 .009460449 .7559967 .10746765 .8149872 .19146729 .9279938 .23745728 .9399872 .24145508 .94299319 .24345398 .94299319 .25045777 .94299319 .25746156 .93699648 .26046754 .93499758 .26145936 .8909912 .27845765 .769989 .3284607 .7319946 .49645997 .72898867 .5084686 .7279968 .51145938 .71099856 .51145938 .7029877 .51145938 .69099429 .51145938 .69099429 .49946595 .69099429 .49746705 .69999697 .4344635 .74198916 .36746217 .7619934 .33746339 .79100039 .30245973 .83399966 .27046205H.09098816C.07299805 .27046205 .054992677 .27046205 .054992677 .25045777 .054992677 .23046875 .07299805 .23046875 .09098816 .23046875H.83399966Z"/>
<path id="font_6_1" d="M.5970001 .5686493 .61099246 .5826416C.6409912 .6126251 .673996 .64660647 .74198916 .6516113 .7529907 .65260317 .7619934 .65260317 .7619934 .6706085 .7619934 .6786041 .7569885 .6826172 .7489929 .6826172 .72299197 .6826172 .69400027 .6796112 .6669922 .6796112 .6339874 .6796112 .598999 .6826172 .5669861 .6826172 .5609894 .6826172 .5479889 .6826172 .5479889 .66360476 .5479889 .65260317 .55799868 .6516113 .5629883 .6516113 .56999209 .6516113 .598999 .6496124 .598999 .62861636 .598999 .6116333 .57598879 .5856476 .57199099 .5806427L.33999635 .31381227 .22999573 .6106262C.22399903 .62461856 .22399903 .62661746 .22399903 .6276245 .22399903 .6516113 .272995 .6516113 .2829895 .6516113 .29699708 .6516113 .30699159 .6516113 .30699159 .6716156 .30699159 .6826172 .29499818 .6826172 .2919922 .6826172 .2639923 .6826172 .19400025 .6796112 .1659851 .6796112 .14099121 .6796112 .07899475 .6826172 .053985597 .6826172 .04798889 .6826172 .034988405 .6826172 .034988405 .6626129 .034988405 .6516113 .04499817 .6516113 .057998659 .6516113 .117996219 .6516113 .12199402 .64260867 .1309967 .61763L.2539978 .28883363C.25498963 .28582765 .2579956 .2748413 .2579956 .27183534 .2579956 .2688446 .21798706 .107940677 .21299744 .08995056 .19999695 .034988405 .19898987 .03199768 .11898804 .0309906 .099990848 .0309906 .09199524 .0309906 .09199524 .010986328 .09199524 0 .10398865 0 .10598755 0 .13398743 0 .20399475 .0029907227 .23199463 .0029907227 .2599945 .0029907227 .33198548 0 .3600006 0 .36698915 0 .3789978 0 .3789978 .019989014 .3789978 .0309906 .36999513 .0309906 .35099793 .0309906 .34899903 .0309906 .32998658 .0309906 .31298829 .032989503 .2919922 .034988405 .28599549 .036987306 .28599549 .048980714 .28599549 .05596924 .29499818 .09095764 .2999878 .11193848L.33499146 .2528534C.33999635 .27183534 .34098817 .2748413 .34899903 .28382875L.5970001 .5686493Z"/>
<path id="font_5_1" d="M.6329956 .5659027C.6329956 .65405276 .5569916 .7050934 .46899415 .7050934 .33198548 .7050934 .23098755 .5488739 .20599365 .44769288L.04899597-.18234253C.04699707-.18934632 .056991579-.19433594 .06298828-.19433594 .07199097-.19433594 .07998657-.19334412 .08198547-.18734741L.14898682 .08015442C.16999817 .034240724 .21798706-.008728027 .29899598-.008728027 .43899537-.008728027 .5970001 .09213257 .5970001 .24482727 .5970001 .30371095 .56999209 .36358644 .5189972 .3966217 .56799319 .42765809 .6329956 .48475648 .6329956 .5659027M.43499757 .39762879C.41999818 .39460755 .41299439 .39059449 .38398744 .39059449 .36799623 .39059449 .34399415 .39160157 .33699037 .39561463 .34700013 .4016571 .375 .40264894 .38398744 .40264894 .39898683 .40264894 .42099 .4016571 .43499757 .39762879M.5669861 .58392336C.5669861 .530838 .54100039 .45269776 .47898866 .41766358 .45999146 .42366029 .44099427 .43066407 .3849945 .43066407 .34999085 .43066407 .2999878 .4286499 .2999878 .39259339 .2999878 .3675995 .33099366 .36358644 .38198854 .36358644 .41600038 .36358644 .44599916 .3685913 .47698976 .377594 .5069885 .35661317 .522995 .3156891 .522995 .2717743 .522995 .12705994 .42399598 .01927185 .3019867 .01927185 .22499085 .01927185 .16999817 .06617737 .16999817 .14501953 .16999817 .15499878 .17098999 .16497803 .17298889 .17396546L.23899842 .43966676C.2630005 .5348358 .35099793 .6770935 .46699525 .6770935 .526001 .6770935 .5669861 .6450348 .5669861 .58392336Z"/>
<path id="font_7_1" d="M.35398866 .62316897C.35398866 .6452637 .35398866 .65527346 .32798768 .65527346 .31698609 .65527346 .31498719 .65527346 .30599977 .64826968 .22898865 .5909424 .12599182 .5909424 .10499573 .5909424H.084991458V.5439453H.10499573C.12098694 .5439453 .17599488 .54493716 .23498535 .5639343V.04699707H.09599304V0C.13999939 .0029907227 .24598694 .0029907227 .29499818 .0029907227 .34399415 .0029907227 .44999696 .0029907227 .49398805 0V.04699707H.35398866V.62316897Z"/>
<path id="font_1_27" d="M.71699526 0V.0309906H.69898989C.6389923 .0309906 .625 .037979127 .6139984 .07095337L.397995 .6958008C.3929901 .7088165 .3909912 .7158203 .375 .7158203 .35899354 .7158203 .35598756 .70980837 .35099793 .6958008L.14399719 .09791565C.12599182 .04698181 .085998538 .03199768 .03199768 .0309906V0L.13398743 .0029907227 .24899292 0V.0309906C.19898987 .0309906 .17399597 .05596924 .17399597 .0819397 .17399597 .08493042 .1749878 .09492493 .17599488 .09692383L.22200012 .2277832H.46899415L.5219879 .07495117C.522995 .07095337 .5249939 .064956668 .5249939 .060958864 .5249939 .0309906 .46899415 .0309906 .44198609 .0309906V0C.47799684 .0029907227 .5479889 .0029907227 .58599856 .0029907227L.71699526 0M.45799256 .25878907H.23298645L.34498597 .58380129 .45799256 .25878907Z"/>
<path id="font_1_34" d="M.651001 .18289185C.651001 .26983644 .56900027 .34480287 .45799256 .35679627 .5549927 .3757782 .6239929 .43974305 .6239929 .51368716 .6239929 .6006317 .5319977 .6826172 .4019928 .6826172H.035995485V.6516113H.05999756C.13699341 .6516113 .13899231 .64060977 .13899231 .6046295V.07795715C.13899231 .041992189 .13699341 .0309906 .05999756 .0309906H.035995485V0H.42799378C.5609894-.0002593994 .651001 .08874512 .651001 .18273926V.18289185M.5269928 .5136719C.5269928 .44970704 .47799684 .36573792 .36698915 .36573792H.22200012V.6116333C.22200012 .64460757 .22399903 .6516113 .2709961 .6516113H.394989C.49198915 .65174868 .5269928 .56674197 .5269928 .51374819V.5136719M.5509949 .18386841C.5509949 .1129303 .49899293 .0309906 .3959961 .0309906H.2709961C.22399903 .0309906 .22200012 .037994386 .22200012 .07095337V.34375H.4099884C.5089874 .34399415 .5509949 .25099183 .5509949 .18399048V.18386841Z"/>
<path id="font_8_50" d="M.46798707 .12036133C.46798707 .12435913 .46598817 .13438416 .45098878 .13438416 .43798829 .13438416 .43598939 .12837219 .43299867 .11836243 .4019928 .037246705 .32598878 .022232056 .2899933 .022232056 .24299622 .022232056 .19799805 .043258668 .16799927 .08131409 .1309967 .12837219 .12998963 .18945313 .12998963 .22851563H.43998719C.46099855 .22851563 .46798707 .22851563 .46798707 .25050355 .46798707 .33839417 .4189911 .44628907 .269989 .44628907 .13899231 .44628907 .038986207 .34239198 .038986207 .21949768 .038986207 .092315677 .1499939-.009765625 .2829895-.009765625 .41799928-.009765625 .46798707 .09832764 .46798707 .12036133M.397995 .25450135H.1309967C.14199829 .39530946 .23199463 .41827394 .269989 .41827394 .3929901 .41827394 .39698792 .27947999 .397995 .25450135Z"/>
<path id="font_8_112" d="M.56799319 .39465333V.43066407C.54299929 .4286499 .5169983 .426651 .49198915 .426651 .46499635 .426651 .42799378 .42765809 .40098573 .43066407V.39465333C.44299317 .39265443 .44299317 .35964967 .44299317 .35665895 .44299317 .35165406 .44198609 .34165956 .43499757 .32765199L.32199098 .08065796 .19799805 .35266114C.19799805 .35266114 .19198609 .36465455 .19198609 .37165834 .19198609 .39465333 .22599793 .39465333 .24299622 .39465333V.43066407C.24299622 .43066407 .16999817 .426651 .1289978 .426651 .09899902 .426651 .05999756 .42765809 .0309906 .43066407V.39465333C.085998538 .39453126 .09799194 .3925171 .11299133 .3585205L.2709961 .011184692C.27598573-.00079345706 .28199769-.009765625 .29899598-.009765625 .31799317-.009765625 .32199098-.00079345706 .32699586 .010192871L.47399903 .33258058C.5019989 .39352418 .5519867 .39453126 .56799319 .39453126V.39465333Z"/>
<path id="font_8_28" d="M.5439911 .09013367V.14515686H.5099945V.09114075C.5099945 .08113098 .5099945 .033111574 .47299195 .033111574 .43598939 .033111574 .43598939 .0801239 .43598939 .09313965V.268219C.43598939 .3212433 .43598939 .35925294 .3899994 .39627076 .34899903 .4302826 .30099488 .44628907 .24198914 .44628907 .14698792 .44628907 .07998657 .41027833 .07998657 .34925843 .07998657 .31723023 .101989749 .30023194 .12799073 .30023194 .15499878 .30023194 .1749878 .3202362 .1749878 .34724427 .1749878 .3642578 .16699219 .38526917 .13999939 .39326478 .17599488 .41827394 .23399353 .41827394 .23999024 .41827394 .29599 .41827394 .35699464 .38127137 .35699464 .29722596V.2662201C.3019867 .26420594 .23599243 .2612152 .16299439 .23420716 .07299805 .20118714 .04499817 .14616394 .04499817 .101135257 .04499817 .0152282719 .14898682-.009765625 .21998596-.009765625 .2999878-.009765625 .34700013 .035232545 .36799623 .07423401 .37199403 .033111574 .39898683-.0048828127 .44499208-.0048828127 .44499208-.0048828127 .5439911-.0048828127 .5439911 .09010315V.09013367M.35699464 .14111328C.35699464 .04522705 .272995 .018234253 .22799683 .018234253 .1769867 .018234253 .1289978 .052230836 .1289978 .10122681 .1289978 .15621948 .1769867 .23323059 .35699464 .24023438V.14111328Z"/>
<path id="font_8_72" d="M.2809906 0V.035995485C.21598816 .035995485 .20599365 .035995485 .20599365 .07901001V.69433596L.055999757 .6826172V.64660647C.12298584 .64660647 .1309967 .6396179 .1309967 .59065249V.07896423C.1309967 .035995485 .12098694 .035995485 .055999757 .035995485V0C.055999757 0 .12799073 .0039978029 .16799927 .0039978029 .20599365 .0039978029 .24299622 .0029907227 .2809906 0Z"/>
<path id="font_8_109" d="M.58999636 0V.035995485C.522995 .035995485 .5149994 .042999269 .5149994 .092056278V.44140626L.36099244 .43052674V.39453126C.42799378 .39439393 .43598939 .3874359 .43598939 .33872987V.16749573C.43598939 .079330448 .3789978 .018234253 .30299378 .018234253 .21199036 .018234253 .20799256 .061309816 .20799256 .11239624V.44140626L.053985597 .43052674V.39453126C.1289978 .39453126 .1289978 .39154054 .1289978 .30273438V.15246582C.1289978 .083343509 .1289978-.009765625 .29599-.009765625 .31799317-.009765625 .3909912-.009765625 .43899537 .07432556H.43998719V-.009765625L.58999636 0Z"/>
<path id="font_8_105" d="M.375 .12606812V.1809845H.34098817V.12705994C.34098817 .059173585 .30899049 .022232056 .269989 .022232056 .20098877 .022232056 .20098877 .10609436 .20098877 .124069217V.39465333H.35699464V.43066407H.20098877V.6142578H.16699219C.1659851 .5244446 .125 .42565919 .0289917 .4226532V.39465333H.12199402V.1250763C.12199402 .01322937 .20599365-.009765625 .2619934-.009765625 .32899476-.010009766 .375 .04699707 .375 .12599182V.12606812Z"/>
<path id="font_8_66" d="M.27398683 0V.035995485C.21598816 .035995485 .20599365 .035995485 .20599365 .07803345V.44140626L.05899048 .43052674V.39453126C.12199402 .39453126 .1309967 .3885193 .1309967 .33952333V.07952881C.1309967 .035995485 .12098694 .035995485 .055999757 .035995485V0C.055999757 0 .12799073 .0039978029 .16799927 .0039978029 .20298767 .0039978029 .23899842 .0029907227 .27398683 0M.21899414 .60214236C.21899414 .6341553 .19400025 .66015627 .1619873 .66015627 .12799073 .66015627 .10499573 .6321411 .10499573 .6031494 .10499573 .57115176 .12998963 .54515078 .1619873 .54515078 .19599915 .54515078 .21899414 .57315066 .21899414 .60214236Z"/>
<path id="font_8_81" d="M.5289917 .21325684C.5289917 .3382721 .42199708 .44628907 .28399659 .44628907 .1459961 .44628907 .038986207 .3382721 .038986207 .21325684 .038986207 .0892334 .14898682-.009765625 .28399659-.009765625 .4189911-.009765625 .5289917 .0892334 .5289917 .21325684M.43798829 .22225952C.43798829 .17424011 .43499757 .12124634 .4059906 .08023071 .3789978 .042236329 .33299256 .022232056 .28399659 .022232056 .24699402 .022232056 .19299317 .034225465 .1599884 .083236698 .1329956 .12423706 .12998963 .17625427 .12998963 .22225952 .12998963 .2652588 .1309967 .32426454 .1659851 .36727906 .19099427 .39627076 .23298645 .41827394 .28399659 .41827394 .34298707 .41827394 .3849945 .39027406 .40699769 .3592682 .43499757 .32026673 .43798829 .27026368 .43798829 .22225952Z"/>
<path id="font_8_77" d="M.58999636 0V.035995485C.5249939 .035995485 .5149994 .035995485 .5149994 .07904053V.3032837C.5149994 .3903656 .47200013 .44140626 .36499024 .44140626 .2829895 .44140626 .22999573 .39637757 .20199585 .34432984H.20098877V.44140626L.053985597 .43052674V.39453126C.12098694 .39453126 .1289978 .3875122 .1289978 .33843995V.079055789C.1289978 .035995485 .11898804 .035995485 .053985597 .035995485V0C.053985597 0 .12599182 .0039978029 .16799927 .0039978029 .20498657 .0039978029 .27398683 .0009918213 .2829895 0V.035995485C.21798706 .035995485 .20799256 .035995485 .20799256 .079055789V.25932313C.20799256 .36434938 .29100038 .4133911 .35699464 .4133911 .4269867 .4133911 .43598939 .3583374 .43598939 .3072815V.07904053C.43598939 .035995485 .42599488 .035995485 .36099244 .035995485V0C.36099244 0 .43299867 .0039978029 .47499085 .0039978029 .5119934 .0039978029 .58099368 .0009918213 .58999636 0Z"/>
<path id="font_8_121" d="M.5159912 .31925965C.5159912 .42918397 .5029907 .50813296 .45700074 .5780945 .42599488 .62405398 .3639984 .6640625 .28399659 .6640625 .051986696 .6640625 .051986696 .39120484 .051986696 .31925965 .051986696 .2472992 .051986696-.01953125 .28399659-.01953125 .5159912-.01953125 .5159912 .2472992 .5159912 .31925965M.4249878 .33224488C.4249878 .25830079 .4249878 .18434143 .4119873 .12138367 .3919983 .030441285 .32398988 .008468628 .28399659 .008468628 .23799134 .008468628 .1769867 .035446168 .15699768 .117385867 .14299011 .17634583 .14299011 .25830079 .14299011 .33224488 .14299011 .40519715 .14299011 .4811554 .1579895 .53611758 .1789856 .6150665 .24299622 .63604739 .28399659 .63604739 .33799745 .63604739 .3899994 .6030731 .4079895 .545105 .42399598 .4911499 .4249878 .41918946 .4249878 .33224488Z"/>
<path id="font_9_1" d="M.7679901 .3359375C.7829895 .3359375 .80599978 .3359375 .80599978 .3609314 .80599978 .38493348 .7819977 .38493348 .7689972 .38493348H.10699463C.09399414 .38493348 .069992069 .38493348 .069992069 .3609314 .069992069 .3359375 .09298706 .3359375 .10798645 .3359375H.7679901M.7689972 .11602783C.7819977 .11602783 .80599978 .11602783 .80599978 .1400299 .80599978 .16503906 .7829895 .16503906 .7679901 .16503906H.10798645C.09298706 .16503906 .069992069 .16503906 .069992069 .1400299 .069992069 .11602783 .09399414 .11602783 .10699463 .11602783H.7689972Z"/>
<path id="font_5_3" d="M.5319977 .36935426C.5359955 .3843689 .5359955 .38937379 .5359955 .39038087 .5359955 .4123993 .5179901 .4223938 .5019989 .4223938 .47898866 .4223938 .45999146 .4033966 .45599366 .3843689 .43899537 .4113922 .40499879 .44140626 .35299684 .44140626 .22799683 .44140626 .09700012 .3072815 .09700012 .1641388 .09700012 .061019899 .16699219 0 .24899292 0 .29499818 0 .33898927 .022994996 .37399293 .054016115L.35198976-.036026C.34098817-.07803345 .33399964-.105041507 .29599-.13903809 .2519989-.17610169 .20899964-.17610169 .18399048-.17610169 .13798523-.17610169 .125-.17308045 .10699463-.16903687 .13198853-.15704346 .13899231-.13304138 .13899231-.11903381 .13899231-.09503174 .11999512-.08203125 .099990848-.08203125 .07199097-.08203125 .042999269-.105041507 .042999269-.14303589 .042999269-.20310974 .1289978-.20410156 .18499756-.20410156 .34199525-.20410156 .40899659-.1240387 .4229889-.06703186L.5319977 .36935426M.3939972 .13310242C.3899994 .11808777 .3899994 .11608887 .37298585 .096069339 .33799745 .054016115 .2899933 .027999878 .2519989 .027999878 .20098877 .027999878 .1769867 .07104492 .1769867 .12309265 .1769867 .16714478 .20399475 .2792511 .22999573 .32330323 .27198792 .39338685 .31900025 .4133911 .35299684 .4133911 .4229889 .4133911 .44198609 .33831788 .44198609 .3283081 .44198609 .3263092 .44198609 .3243103 .43899537 .31329347L.3939972 .13310242Z"/>
<path id="font_8_96" d="M.40699769 .37739564C.40699769 .4113922 .375 .44140626 .32798768 .44140626 .27799989 .44140626 .22299195 .4104004 .19299317 .33439637H.19198609V.44140626L.04899597 .43052674V.39453126C.115997318 .39453126 .12399292 .3875122 .12399292 .33843995V.079055789C.12399292 .035995485 .11399841 .035995485 .04899597 .035995485V0C.053985597 0 .12199402 .0039978029 .16299439 .0039978029L.29299928 0V.035995485H.272995C.19898987 .036071779 .19898987 .047073366 .19898987 .081085208V.22807312C.19898987 .31207276 .23799134 .41308595 .33299256 .41308595 .32398988 .40608216 .31599427 .39308167 .31599427 .3770752 .31599427 .3440857 .34199525 .3310852 .36099244 .3310852 .3849945 .3310852 .40699769 .34707643 .40699769 .3770752V.37739564Z"/>
<path id="font_5_4" d="M.31298829 .66430667C.31399537 .66630557 .31698609 .67930606 .31698609 .68029788 .31698609 .68530276 .31298829 .6943054 .30099488 .6943054 .2809906 .6943054 .19799805 .6863098 .17298889 .6843109 .16499329 .68330386 .15098572 .682312 .15098572 .66130068 .15098572 .64730837 .16499329 .64730837 .1769867 .64730837 .22499085 .64730837 .22499085 .64030459 .22499085 .63230898 .22499085 .62532046 .22299195 .61932376 .22099304 .61032107L.07998657 .04423523C.07499695 .026229859 .07499695 .024230957 .07499695 .022232056 .07499695 .007232666 .08699036-.009765625 .10899353-.009765625 .11999512-.009765625 .13899231-.004776001 .1499939 .016220093 .15299988 .022232056 .1619873 .058242799 .16699219 .07925415L.18998719 .16828919C.19299317 .18330384 .20298767 .22131348 .20599365 .23632813 .21598816 .27433778 .21598816 .27534486 .23599243 .3073578 .2679901 .35636903 .31799317 .4133911 .3959961 .4133911 .45199586 .4133911 .45498658 .36738587 .45498658 .34336854 .45498658 .28334046 .4119873 .17228699 .3959961 .13027954 .3849945 .102264408 .3809967 .09326172 .3809967 .07624817 .3809967 .023223877 .4249878-.009765625 .47599793-.009765625 .57598879-.009765625 .6199951 .12828064 .6199951 .14328003 .6199951 .15628052 .6069946 .15628052 .60398867 .15628052 .58999636 .15628052 .58898928 .15028382 .58499148 .13928223 .56199648 .059249879 .5179901 .018234253 .47898866 .018234253 .45799256 .018234253 .45399476 .032226564 .45399476 .053237916 .45399476 .07624817 .45899964 .089263919 .47698976 .13427735 .4889984 .1652832 .5299988 .2713318 .5299988 .32736207 .5299988 .34336854 .5299988 .38539125 .49299623 .4143982 .47599793 .42739869 .44699098 .44140626 .3999939 .44140626 .32699586 .44140626 .27398683 .4013977 .23699951 .35836793L.31298829 .66430667Z"/>
</defs>
<path transform="matrix(1.00003,0,0,-1.00009,15.985977,40.924516)" stroke-width=".3985" stroke-linecap="butt" stroke-miterlimit="10" stroke-linejoin="miter" fill="none" stroke="#000000" d="M-14.17339-28.3468V28.3468H42.5202V-28.3468ZM42.5202 28.3468"/>
<use data-text="M" xlink:href="#font_1_74" transform="matrix(9.962899,0,0,-9.963496,4.1436235,29.723507)"/>
<use data-text="a" xlink:href="#font_1_28" transform="matrix(9.962899,0,0,-9.963496,13.279602,29.723507)"/>
<use data-text="p" xlink:href="#font_1_84" transform="matrix(9.962899,0,0,-9.963496,18.261048,29.723507)"/>
<use data-text="s" xlink:href="#font_1_98" transform="matrix(9.962899,0,0,-9.963496,23.800423,29.723507)"/>
<use data-text="i" xlink:href="#font_1_66" transform="matrix(9.962899,0,0,-9.963496,31.04345,29.723507)"/>
<use data-text="n" xlink:href="#font_1_77" transform="matrix(9.962899,0,0,-9.963496,33.813135,29.723507)"/>
<use data-text="S" xlink:href="#font_2_2" transform="matrix(9.962899,0,0,-9.963496,42.670785,29.723507)"/>
<use data-text="&#x27f3;" xlink:href="#font_3_1" transform="matrix(6.9740097,0,0,-6.9744279,49.45098,26.107182)"/>
<use data-text="N" xlink:href="#font_4_1" transform="matrix(9.962899,0,0,-9.963496,3.2175904,59.32917)"/>
<use data-text="&#x27f3;" xlink:href="#font_3_1" transform="matrix(6.9740097,0,0,-6.9744279,10.413803,55.712846)"/>
<use data-text="&#x03c3;" xlink:href="#font_5_2" transform="matrix(6.9740097,0,0,-6.9744279,16.639992,55.712846)"/>
<use data-text="&#x2192;" xlink:href="#font_2_1" transform="matrix(9.962899,0,0,-9.963496,24.77324,59.32917)"/>
<use data-text="Y" xlink:href="#font_6_1" transform="matrix(9.962899,0,0,-9.963496,37.503618,59.32917)"/>
<use data-text="&#x27f3;" xlink:href="#font_3_1" transform="matrix(6.9740097,0,0,-6.9744279,45.500856,55.712846)"/>
<use data-text="&#x03b2;" xlink:href="#font_5_1" transform="matrix(6.9740097,0,0,-6.9744279,51.728044,55.712846)"/>
<path transform="matrix(1.00003,0,0,-1.00009,15.985977,40.924516)" stroke-width=".3985" stroke-linecap="butt" stroke-miterlimit="10" stroke-linejoin="miter" fill="none" stroke="#000000" d="M113.38724-28.3468V28.3468H170.08086V-28.3468ZM170.08086 28.3468"/>
<use data-text="M" xlink:href="#font_1_74" transform="matrix(9.962899,0,0,-9.963496,135.07056,29.187458)"/>
<use data-text="a" xlink:href="#font_1_28" transform="matrix(9.962899,0,0,-9.963496,144.20655,29.187458)"/>
<use data-text="p" xlink:href="#font_1_84" transform="matrix(9.962899,0,0,-9.963496,149.18799,29.187458)"/>
<use data-text="s" xlink:href="#font_1_98" transform="matrix(9.962899,0,0,-9.963496,154.72736,29.187458)"/>
<use data-text="i" xlink:href="#font_1_66" transform="matrix(9.962899,0,0,-9.963496,161.97039,29.187458)"/>
<use data-text="n" xlink:href="#font_1_77" transform="matrix(9.962899,0,0,-9.963496,164.74007,29.187458)"/>
<use data-text="S" xlink:href="#font_2_2" transform="matrix(9.962899,0,0,-9.963496,173.59772,29.187458)"/>
<use data-text="1" xlink:href="#font_7_1" transform="matrix(9.962899,0,0,-9.963496,143.1118,58.503099)"/>
<use data-text="&#x2192;" xlink:href="#font_2_1" transform="matrix(9.962899,0,0,-9.963496,151.60807,58.503099)"/>
<use data-text="Y" xlink:href="#font_6_1" transform="matrix(9.962899,0,0,-9.963496,164.33844,58.503099)"/>
<use data-text="A" xlink:href="#font_1_27" transform="matrix(9.962899,0,0,-9.963496,26.423295,9.054646)"/>
<use data-text="B" xlink:href="#font_1_34" transform="matrix(9.962899,0,0,-9.963496,154.19713,8.890633)"/>
<path transform="matrix(1.00003,0,0,-1.00009,15.985977,40.924516)" stroke-width=".3985" stroke-linecap="butt" stroke-miterlimit="10" stroke-linejoin="miter" fill="none" stroke="#000000" d="M49.60689 14.17339H103.23662"/>
<path transform="matrix(1.00003,0,0,-1.00009,117.50745,26.749848)" d="M4.21463 0 .64343 1.34572 1.8178 0 .64343-1.34572Z"/>
<path transform="matrix(1.00003,0,0,-1.00009,117.50745,26.749848)" stroke-width=".3985" stroke-linecap="butt" stroke-miterlimit="10" stroke-linejoin="miter" fill="none" stroke="#000000" d="M4.21463 0 .64343 1.34572 1.8178 0 .64343-1.34572Z"/>
<use data-text="e" xlink:href="#font_8_50" transform="matrix(6.9740097,0,0,-6.9744279,60.322309,21.8738)"/>
<use data-text="v" xlink:href="#font_8_112" transform="matrix(6.9740097,0,0,-6.9744279,63.86511,21.8738)"/>
<use data-text="a" xlink:href="#font_8_28" transform="matrix(6.9740097,0,0,-6.9744279,67.6241,21.8738)"/>
<use data-text="l" xlink:href="#font_8_72" transform="matrix(6.9740097,0,0,-6.9744279,71.592319,21.8738)"/>
<use data-text="u" xlink:href="#font_8_109" transform="matrix(6.9740097,0,0,-6.9744279,73.844928,21.8738)"/>
<use data-text="a" xlink:href="#font_8_28" transform="matrix(6.9740097,0,0,-6.9744279,78.245517,21.8738)"/>
<use data-text="t" xlink:href="#font_8_105" transform="matrix(6.9740097,0,0,-6.9744279,82.21373,21.8738)"/>
<use data-text="i" xlink:href="#font_8_66" transform="matrix(6.9740097,0,0,-6.9744279,85.32414,21.8738)"/>
<use data-text="o" xlink:href="#font_8_81" transform="matrix(6.9740097,0,0,-6.9744279,87.57675,21.8738)"/>
<use data-text="n" xlink:href="#font_8_77" transform="matrix(6.9740097,0,0,-6.9744279,91.54495,21.8738)"/>
<use data-text="a" xlink:href="#font_8_28" transform="matrix(6.9740097,0,0,-6.9744279,98.623569,21.8738)"/>
<use data-text="t" xlink:href="#font_8_105" transform="matrix(6.9740097,0,0,-6.9744279,102.59178,21.8738)"/>
<use data-text="0" xlink:href="#font_8_121" transform="matrix(6.9740097,0,0,-6.9744279,108.38719,21.8738)"/>
<use data-text="=" xlink:href="#font_9_1" transform="matrix(6.9740097,0,0,-6.9744279,115.040958,21.8738)"/>
<use data-text="g" xlink:href="#font_5_3" transform="matrix(6.9740097,0,0,-6.9744279,123.4252,21.8738)"/>
<path transform="matrix(1.00003,0,0,-1.00009,15.985977,40.924516)" stroke-width=".3985" stroke-linecap="butt" stroke-miterlimit="10" stroke-linejoin="miter" fill="none" stroke="#000000" d="M106.30052-14.17339H52.6708"/>
<path transform="matrix(-1.00003,-0,0,1.00009,70.3766,55.099184)" d="M4.21463 0 .64343 1.34572 1.8178 0 .64343-1.34572Z"/>
<path transform="matrix(-1.00003,-0,0,1.00009,70.3766,55.099184)" stroke-width=".3985" stroke-linecap="butt" stroke-miterlimit="10" stroke-linejoin="miter" fill="none" stroke="#000000" d="M4.21463 0 .64343 1.34572 1.8178 0 .64343-1.34572Z"/>
<use data-text="i" xlink:href="#font_8_66" transform="matrix(6.9740097,0,0,-6.9744279,71.21664,63.46254)"/>
<use data-text="t" xlink:href="#font_8_105" transform="matrix(6.9740097,0,0,-6.9744279,73.469249,63.46254)"/>
<use data-text="e" xlink:href="#font_8_50" transform="matrix(6.9740097,0,0,-6.9744279,76.57965,63.46254)"/>
<use data-text="r" xlink:href="#font_8_96" transform="matrix(6.9740097,0,0,-6.9744279,80.12245,63.46254)"/>
<use data-text="a" xlink:href="#font_8_28" transform="matrix(6.9740097,0,0,-6.9744279,83.23286,63.46254)"/>
<use data-text="t" xlink:href="#font_8_105" transform="matrix(6.9740097,0,0,-6.9744279,87.20107,63.46254)"/>
<use data-text="i" xlink:href="#font_8_66" transform="matrix(6.9740097,0,0,-6.9744279,90.31148,63.46254)"/>
<use data-text="o" xlink:href="#font_8_81" transform="matrix(6.9740097,0,0,-6.9744279,92.56409,63.46254)"/>
<use data-text="n" xlink:href="#font_8_77" transform="matrix(6.9740097,0,0,-6.9744279,96.532299,63.46254)"/>
<use data-text="=" xlink:href="#font_9_1" transform="matrix(6.9740097,0,0,-6.9744279,103.618618,63.46254)"/>
<use data-text="h" xlink:href="#font_5_4" transform="matrix(6.9740097,0,0,-6.9744279,112.001857,63.46254)"/>
</svg>
