<svg xmlns="http://www.w3.org/2000/svg" xmlns:xlink="http://www.w3.org/1999/xlink" xmlns:inkscape="http://www.inkscape.org/namespaces/inkscape" version="1.1" width="106" height="60" viewBox="0 0 106 60">
<path transform="matrix(1.00003,0,0,-1.00006,2.0964967,58.494546)" stroke-width=".3985" stroke-linecap="butt" stroke-miterlimit="10" stroke-linejoin="miter" fill="none" stroke="#000000" d="M0 0V56.69275H56.69275V0ZM56.69275 56.69275"/>
<path transform="matrix(1.00003,0,0,-1.00006,2.0964967,58.494546)" stroke-width=".3985" stroke-linecap="butt" stroke-miterlimit="10" stroke-linejoin="miter" fill="none" stroke="#000000" d="M79.36984 0V56.69275H102.04694V0ZM102.04694 56.69275"/>
<path transform="matrix(1.00003,0,0,-1.00006,2.0964967,58.494546)" d="M12.13553 11.33855C12.13553 11.77872 11.77872 12.13553 11.33855 12.13553 10.89836 12.13553 10.54155 11.77872 10.54155 11.33855 10.54155 10.89836 10.89836 10.54155 11.33855 10.54155 11.77872 10.54155 12.13553 10.89836 12.13553 11.33855ZM11.33855 11.33855"/>
<path transform="matrix(1.00003,0,0,-1.00006,2.0964967,58.494546)" stroke-width=".3985" stroke-linecap="butt" stroke-miterlimit="10" stroke-linejoin="miter" fill="none" stroke="#000000" d="M12.13553 11.33855C12.13553 11.77872 11.77872 12.13553 11.33855 12.13553 10.89836 12.13553 10.54155 11.77872 10.54155 11.33855 10.54155 10.89836 10.89836 10.54155 11.33855 10.54155 11.77872 10.54155 12.13553 10.89836 12.13553 11.33855ZM11.33855 11.33855"/>
<path transform="matrix(1.00003,0,0,-1.00006,2.0964967,58.494546)" stroke-width=".3985" stroke-linecap="butt" stroke-miterlimit="10" stroke-linejoin="miter" fill="none" stroke="#000000" d="M11.33855 11.33855 87.67538 22.24385"/>
<path transform="matrix(.98993977,-.14140848,-.14140424,-.9899694,88.0736,36.492334)" d="M4.21463 0 .64343 1.34572 1.8178 0 .64343-1.34572Z"/>
<path transform="matrix(.98993977,-.14140848,-.14140424,-.9899694,88.0736,36.492334)" stroke-width=".3985" stroke-linecap="butt" stroke-miterlimit="10" stroke-linejoin="miter" fill="none" stroke="#000000" d="M4.21463 0 .64343 1.34572 1.8178 0 .64343-1.34572Z"/>
<path transform="matrix(1.00003,0,0,-1.00006,2.0964967,58.494546)" d="M12.13553 22.6771C12.13553 23.11726 11.77872 23.47408 11.33855 23.47408 10.89836 23.47408 10.54155 23.11726 10.54155 22.6771 10.54155 22.23691 10.89836 21.8801 11.33855 21.8801 11.77872 21.8801 12.13553 22.23691 12.13553 22.6771ZM11.33855 22.6771"/>
<path transform="matrix(1.00003,0,0,-1.00006,2.0964967,58.494546)" stroke-width=".3985" stroke-linecap="butt" stroke-miterlimit="10" stroke-linejoin="miter" fill="none" stroke="#000000" d="M12.13553 22.6771C12.13553 23.11726 11.77872 23.47408 11.33855 23.47408 10.89836 23.47408 10.54155 23.11726 10.54155 22.6771 10.54155 22.23691 10.89836 21.8801 11.33855 21.8801 11.77872 21.8801 12.13553 22.23691 12.13553 22.6771ZM11.33855 22.6771"/>
<path transform="matrix(1.00003,0,0,-1.00006,2.0964967,58.494546)" stroke-width=".3985" stroke-linecap="butt" stroke-miterlimit="10" stroke-linejoin="miter" fill="none" stroke="#000000" d="M11.33855 22.6771 87.67538 33.5824"/>
<path transform="matrix(.98993977,-.14140848,-.14140424,-.9899694,88.0736,25.153115)" d="M4.21463 0 .64343 1.34572 1.8178 0 .64343-1.34572Z"/>
<path transform="matrix(.98993977,-.14140848,-.14140424,-.9899694,88.0736,25.153115)" stroke-width=".3985" stroke-linecap="butt" stroke-miterlimit="10" stroke-linejoin="miter" fill="none" stroke="#000000" d="M4.21463 0 .64343 1.34572 1.8178 0 .64343-1.34572Z"/>
<path transform="matrix(1.00003,0,0,-1.00006,2.0964967,58.494546)" d="M12.13553 34.01564C12.13553 34.45581 11.77872 34.81262 11.33855 34.81262 10.89836 34.81262 10.54155 34.45581 10.54155 34.01564 10.54155 33.57545 10.89836 33.21864 11.33855 33.21864 11.77872 33.21864 12.13553 33.57545 12.13553 34.01564ZM11.33855 34.01564"/>
<path transform="matrix(1.00003,0,0,-1.00006,2.0964967,58.494546)" stroke-width=".3985" stroke-linecap="butt" stroke-miterlimit="10" stroke-linejoin="miter" fill="none" stroke="#000000" d="M12.13553 34.01564C12.13553 34.45581 11.77872 34.81262 11.33855 34.81262 10.89836 34.81262 10.54155 34.45581 10.54155 34.01564 10.54155 33.57545 10.89836 33.21864 11.33855 33.21864 11.77872 33.21864 12.13553 33.57545 12.13553 34.01564ZM11.33855 34.01564"/>
<path transform="matrix(1.00003,0,0,-1.00006,2.0964967,58.494546)" stroke-width=".3985" stroke-linecap="butt" stroke-miterlimit="10" stroke-linejoin="miter" fill="none" stroke="#000000" d="M11.33855 34.01564 87.67538 44.92094"/>
<path transform="matrix(.98993977,-.14140848,-.14140424,-.9899694,88.0736,13.813889)" d="M4.21463 0 .64343 1.34572 1.8178 0 .64343-1.34572Z"/>
<path transform="matrix(.98993977,-.14140848,-.14140424,-.9899694,88.0736,13.813889)" stroke-width=".3985" stroke-linecap="butt" stroke-miterlimit="10" stroke-linejoin="miter" fill="none" stroke="#000000" d="M4.21463 0 .64343 1.34572 1.8178 0 .64343-1.34572Z"/>
<path transform="matrix(1.00003,0,0,-1.00006,2.0964967,58.494546)" d="M12.13553 45.35419C12.13553 45.79436 11.77872 46.15118 11.33855 46.15118 10.89836 46.15118 10.54155 45.79436 10.54155 45.35419 10.54155 44.91402 10.89836 44.55719 11.33855 44.55719 11.77872 44.55719 12.13553 44.91402 12.13553 45.35419ZM11.33855 45.35419"/>
<path transform="matrix(1.00003,0,0,-1.00006,2.0964967,58.494546)" stroke-width=".3985" stroke-linecap="butt" stroke-miterlimit="10" stroke-linejoin="miter" fill="none" stroke="#000000" d="M12.13553 45.35419C12.13553 45.79436 11.77872 46.15118 11.33855 46.15118 10.89836 46.15118 10.54155 45.79436 10.54155 45.35419 10.54155 44.91402 10.89836 44.55719 11.33855 44.55719 11.77872 44.55719 12.13553 44.91402 12.13553 45.35419ZM11.33855 45.35419"/>
<path transform="matrix(1.00003,0,0,-1.00006,2.0964967,58.494546)" stroke-width=".3985" stroke-linecap="butt" stroke-miterlimit="10" stroke-linejoin="miter" fill="none" stroke="#000000" d="M11.33855 45.35419 87.89232 12.54538"/>
<path transform="matrix(.9191376,.39391364,.39390183,-.91916516,88.41219,45.271604)" d="M4.21463 0 .64343 1.34572 1.8178 0 .64343-1.34572Z"/>
<path transform="matrix(.9191376,.39391364,.39390183,-.91916516,88.41219,45.271604)" stroke-width=".3985" stroke-linecap="butt" stroke-miterlimit="10" stroke-linejoin="miter" fill="none" stroke="#000000" d="M4.21463 0 .64343 1.34572 1.8178 0 .64343-1.34572Z"/>
<path transform="matrix(1.00003,0,0,-1.00006,2.0964967,58.494546)" d="M91.50539 11.33855C91.50539 11.77872 91.14856 12.13553 90.70839 12.13553 90.26822 12.13553 89.91139 11.77872 89.91139 11.33855 89.91139 10.89836 90.26822 10.54155 90.70839 10.54155 91.14856 10.54155 91.50539 10.89836 91.50539 11.33855ZM90.70839 11.33855"/>
<path transform="matrix(1.00003,0,0,-1.00006,2.0964967,58.494546)" stroke-width=".3985" stroke-linecap="butt" stroke-miterlimit="10" stroke-linejoin="miter" fill="none" stroke="#000000" d="M91.50539 11.33855C91.50539 11.77872 91.14856 12.13553 90.70839 12.13553 90.26822 12.13553 89.91139 11.77872 89.91139 11.33855 89.91139 10.89836 90.26822 10.54155 90.70839 10.54155 91.14856 10.54155 91.50539 10.89836 91.50539 11.33855ZM90.70839 11.33855"/>
<path transform="matrix(1.00003,0,0,-1.00006,2.0964967,58.494546)" d="M23.47408 11.33855C23.47408 11.77872 23.11726 12.13553 22.6771 12.13553 22.23691 12.13553 21.8801 11.77872 21.8801 11.33855 21.8801 10.89836 22.23691 10.54155 22.6771 10.54155 23.11726 10.54155 23.47408 10.89836 23.47408 11.33855ZM22.6771 11.33855"/>
<path transform="matrix(1.00003,0,0,-1.00006,2.0964967,58.494546)" stroke-width=".3985" stroke-linecap="butt" stroke-miterlimit="10" stroke-linejoin="miter" fill="none" stroke="#000000" d="M23.47408 11.33855C23.47408 11.77872 23.11726 12.13553 22.6771 12.13553 22.23691 12.13553 21.8801 11.77872 21.8801 11.33855 21.8801 10.89836 22.23691 10.54155 22.6771 10.54155 23.11726 10.54155 23.47408 10.89836 23.47408 11.33855ZM22.6771 11.33855"/>
<path transform="matrix(1.00003,0,0,-1.00006,2.0964967,58.494546)" stroke-width=".3985" stroke-linecap="butt" stroke-miterlimit="10" stroke-linejoin="miter" fill="none" stroke="#000000" d="M22.6771 11.33855 87.80185 33.04681"/>
<path transform="matrix(.9486685,-.31622897,-.3162195,-.94869688,88.27098,25.989087)" d="M4.21463 0 .64343 1.34572 1.8178 0 .64343-1.34572Z"/>
<path transform="matrix(.9486685,-.31622897,-.3162195,-.94869688,88.27098,25.989087)" stroke-width=".3985" stroke-linecap="butt" stroke-miterlimit="10" stroke-linejoin="miter" fill="none" stroke="#000000" d="M4.21463 0 .64343 1.34572 1.8178 0 .64343-1.34572Z"/>
<path transform="matrix(1.00003,0,0,-1.00006,2.0964967,58.494546)" d="M23.47408 22.6771C23.47408 23.11726 23.11726 23.47408 22.6771 23.47408 22.23691 23.47408 21.8801 23.11726 21.8801 22.6771 21.8801 22.23691 22.23691 21.8801 22.6771 21.8801 23.11726 21.8801 23.47408 22.23691 23.47408 22.6771ZM22.6771 22.6771"/>
<path transform="matrix(1.00003,0,0,-1.00006,2.0964967,58.494546)" stroke-width=".3985" stroke-linecap="butt" stroke-miterlimit="10" stroke-linejoin="miter" fill="none" stroke="#000000" d="M23.47408 22.6771C23.47408 23.11726 23.11726 23.47408 22.6771 23.47408 22.23691 23.47408 21.8801 23.11726 21.8801 22.6771 21.8801 22.23691 22.23691 21.8801 22.6771 21.8801 23.11726 21.8801 23.47408 22.23691 23.47408 22.6771ZM22.6771 22.6771"/>
<path transform="matrix(1.00003,0,0,-1.00006,2.0964967,58.494546)" stroke-width=".3985" stroke-linecap="butt" stroke-miterlimit="10" stroke-linejoin="miter" fill="none" stroke="#000000" d="M22.6771 22.6771 87.68633 11.84218"/>
<path transform="matrix(.9863696,.16438985,.16438493,-.9863991,88.09068,46.369188)" d="M4.21463 0 .64343 1.34572 1.8178 0 .64343-1.34572Z"/>
<path transform="matrix(.9863696,.16438985,.16438493,-.9863991,88.09068,46.369188)" stroke-width=".3985" stroke-linecap="butt" stroke-miterlimit="10" stroke-linejoin="miter" fill="none" stroke="#000000" d="M4.21463 0 .64343 1.34572 1.8178 0 .64343-1.34572Z"/>
<path transform="matrix(1.00003,0,0,-1.00006,2.0964967,58.494546)" d="M23.47408 34.01564C23.47408 34.45581 23.11726 34.81262 22.6771 34.81262 22.23691 34.81262 21.8801 34.45581 21.8801 34.01564 21.8801 33.57545 22.23691 33.21864 22.6771 33.21864 23.11726 33.21864 23.47408 33.57545 23.47408 34.01564ZM22.6771 34.01564"/>
<path transform="matrix(1.00003,0,0,-1.00006,2.0964967,58.494546)" stroke-width=".3985" stroke-linecap="butt" stroke-miterlimit="10" stroke-linejoin="miter" fill="none" stroke="#000000" d="M23.47408 34.01564C23.47408 34.45581 23.11726 34.81262 22.6771 34.81262 22.23691 34.81262 21.8801 34.45581 21.8801 34.01564 21.8801 33.57545 22.23691 33.21864 22.6771 33.21864 23.11726 33.21864 23.47408 33.57545 23.47408 34.01564ZM22.6771 34.01564"/>
<path transform="matrix(1.00003,0,0,-1.00006,2.0964967,58.494546)" stroke-width=".3985" stroke-linecap="butt" stroke-miterlimit="10" stroke-linejoin="miter" fill="none" stroke="#000000" d="M22.6771 34.01564H87.64447"/>
<path transform="matrix(1.00003,0,0,-1.00006,88.02535,24.476864)" d="M4.21463 0 .64343 1.34572 1.8178 0 .64343-1.34572Z"/>
<path transform="matrix(1.00003,0,0,-1.00006,88.02535,24.476864)" stroke-width=".3985" stroke-linecap="butt" stroke-miterlimit="10" stroke-linejoin="miter" fill="none" stroke="#000000" d="M4.21463 0 .64343 1.34572 1.8178 0 .64343-1.34572Z"/>
<path transform="matrix(1.00003,0,0,-1.00006,2.0964967,58.494546)" d="M23.47408 45.35419C23.47408 45.79436 23.11726 46.15118 22.6771 46.15118 22.23691 46.15118 21.8801 45.79436 21.8801 45.35419 21.8801 44.91402 22.23691 44.55719 22.6771 44.55719 23.11726 44.55719 23.47408 44.91402 23.47408 45.35419ZM22.6771 45.35419"/>
<path transform="matrix(1.00003,0,0,-1.00006,2.0964967,58.494546)" stroke-width=".3985" stroke-linecap="butt" stroke-miterlimit="10" stroke-linejoin="miter" fill="none" stroke="#000000" d="M23.47408 45.35419C23.47408 45.79436 23.11726 46.15118 22.6771 46.15118 22.23691 46.15118 21.8801 45.79436 21.8801 45.35419 21.8801 44.91402 22.23691 44.55719 22.6771 44.55719 23.11726 44.55719 23.47408 44.91402 23.47408 45.35419ZM22.6771 45.35419"/>
<path transform="matrix(1.00003,0,0,-1.00006,2.0964967,58.494546)" stroke-width=".3985" stroke-linecap="butt" stroke-miterlimit="10" stroke-linejoin="miter" fill="none" stroke="#000000" d="M22.6771 45.35419 87.96814 12.70863"/>
<path transform="matrix(.8943869,.4471968,.44718344,-.89441367,88.53055,45.016778)" d="M4.21463 0 .64343 1.34572 1.8178 0 .64343-1.34572Z"/>
<path transform="matrix(.8943869,.4471968,.44718344,-.89441367,88.53055,45.016778)" stroke-width=".3985" stroke-linecap="butt" stroke-miterlimit="10" stroke-linejoin="miter" fill="none" stroke="#000000" d="M4.21463 0 .64343 1.34572 1.8178 0 .64343-1.34572Z"/>
<path transform="matrix(1.00003,0,0,-1.00006,2.0964967,58.494546)" d="M91.50539 22.6771C91.50539 23.11726 91.14856 23.47408 90.70839 23.47408 90.26822 23.47408 89.91139 23.11726 89.91139 22.6771 89.91139 22.23691 90.26822 21.8801 90.70839 21.8801 91.14856 21.8801 91.50539 22.23691 91.50539 22.6771ZM90.70839 22.6771"/>
<path transform="matrix(1.00003,0,0,-1.00006,2.0964967,58.494546)" stroke-width=".3985" stroke-linecap="butt" stroke-miterlimit="10" stroke-linejoin="miter" fill="none" stroke="#000000" d="M91.50539 22.6771C91.50539 23.11726 91.14856 23.47408 90.70839 23.47408 90.26822 23.47408 89.91139 23.11726 89.91139 22.6771 89.91139 22.23691 90.26822 21.8801 90.70839 21.8801 91.14856 21.8801 91.50539 22.23691 91.50539 22.6771ZM90.70839 22.6771"/>
<path transform="matrix(1.00003,0,0,-1.00006,2.0964967,58.494546)" d="M34.81262 11.33855C34.81262 11.77872 34.45581 12.13553 34.01564 12.13553 33.57545 12.13553 33.21864 11.77872 33.21864 11.33855 33.21864 10.89836 33.57545 10.54155 34.01564 10.54155 34.45581 10.54155 34.81262 10.89836 34.81262 11.33855ZM34.01564 11.33855"/>
<path transform="matrix(1.00003,0,0,-1.00006,2.0964967,58.494546)" stroke-width=".3985" stroke-linecap="butt" stroke-miterlimit="10" stroke-linejoin="miter" fill="none" stroke="#000000" d="M34.81262 11.33855C34.81262 11.77872 34.45581 12.13553 34.01564 12.13553 33.57545 12.13553 33.21864 11.77872 33.21864 11.33855 33.21864 10.89836 33.57545 10.54155 34.01564 10.54155 34.45581 10.54155 34.81262 10.89836 34.81262 11.33855ZM34.01564 11.33855"/>
<path transform="matrix(1.00003,0,0,-1.00006,2.0964967,58.494546)" stroke-width=".3985" stroke-linecap="butt" stroke-miterlimit="10" stroke-linejoin="miter" fill="none" stroke="#000000" d="M34.01564 11.33855 88.08118 43.77782"/>
<path transform="matrix(.8574957,-.5145309,-.51451548,-.8575214,88.707,15.598164)" d="M4.21463 0 .64343 1.34572 1.8178 0 .64343-1.34572Z"/>
<path transform="matrix(.8574957,-.5145309,-.51451548,-.8575214,88.707,15.598164)" stroke-width=".3985" stroke-linecap="butt" stroke-miterlimit="10" stroke-linejoin="miter" fill="none" stroke="#000000" d="M4.21463 0 .64343 1.34572 1.8178 0 .64343-1.34572Z"/>
<path transform="matrix(1.00003,0,0,-1.00006,2.0964967,58.494546)" d="M34.81262 22.6771C34.81262 23.11726 34.45581 23.47408 34.01564 23.47408 33.57545 23.47408 33.21864 23.11726 33.21864 22.6771 33.21864 22.23691 33.57545 21.8801 34.01564 21.8801 34.45581 21.8801 34.81262 22.23691 34.81262 22.6771ZM34.01564 22.6771"/>
<path transform="matrix(1.00003,0,0,-1.00006,2.0964967,58.494546)" stroke-width=".3985" stroke-linecap="butt" stroke-miterlimit="10" stroke-linejoin="miter" fill="none" stroke="#000000" d="M34.81262 22.6771C34.81262 23.11726 34.45581 23.47408 34.01564 23.47408 33.57545 23.47408 33.21864 23.11726 33.21864 22.6771 33.21864 22.23691 33.57545 21.8801 34.01564 21.8801 34.45581 21.8801 34.81262 22.23691 34.81262 22.6771ZM34.01564 22.6771"/>
<path transform="matrix(1.00003,0,0,-1.00006,2.0964967,58.494546)" stroke-width=".3985" stroke-linecap="butt" stroke-miterlimit="10" stroke-linejoin="miter" fill="none" stroke="#000000" d="M34.01564 22.6771 87.7041 33.4148"/>
<path transform="matrix(.98057946,-.19611176,-.19610588,-.98060879,88.1184,25.414723)" d="M4.21463 0 .64343 1.34572 1.8178 0 .64343-1.34572Z"/>
<path transform="matrix(.98057946,-.19611176,-.19610588,-.98060879,88.1184,25.414723)" stroke-width=".3985" stroke-linecap="butt" stroke-miterlimit="10" stroke-linejoin="miter" fill="none" stroke="#000000" d="M4.21463 0 .64343 1.34572 1.8178 0 .64343-1.34572Z"/>
<path transform="matrix(1.00003,0,0,-1.00006,2.0964967,58.494546)" d="M34.81262 34.01564C34.81262 34.45581 34.45581 34.81262 34.01564 34.81262 33.57545 34.81262 33.21864 34.45581 33.21864 34.01564 33.21864 33.57545 33.57545 33.21864 34.01564 33.21864 34.45581 33.21864 34.81262 33.57545 34.81262 34.01564ZM34.01564 34.01564"/>
<path transform="matrix(1.00003,0,0,-1.00006,2.0964967,58.494546)" stroke-width=".3985" stroke-linecap="butt" stroke-miterlimit="10" stroke-linejoin="miter" fill="none" stroke="#000000" d="M34.81262 34.01564C34.81262 34.45581 34.45581 34.81262 34.01564 34.81262 33.57545 34.81262 33.21864 34.45581 33.21864 34.01564 33.21864 33.57545 33.57545 33.21864 34.01564 33.21864 34.45581 33.21864 34.81262 33.57545 34.81262 34.01564ZM34.01564 34.01564"/>
<path transform="matrix(1.00003,0,0,-1.00006,2.0964967,58.494546)" stroke-width=".3985" stroke-linecap="butt" stroke-miterlimit="10" stroke-linejoin="miter" fill="none" stroke="#000000" d="M34.01564 34.01564 87.7041 23.27792"/>
<path transform="matrix(.98057946,.19611176,.19610588,-.98060879,88.1184,34.87825)" d="M4.21463 0 .64343 1.34572 1.8178 0 .64343-1.34572Z"/>
<path transform="matrix(.98057946,.19611176,.19610588,-.98060879,88.1184,34.87825)" stroke-width=".3985" stroke-linecap="butt" stroke-miterlimit="10" stroke-linejoin="miter" fill="none" stroke="#000000" d="M4.21463 0 .64343 1.34572 1.8178 0 .64343-1.34572Z"/>
<path transform="matrix(1.00003,0,0,-1.00006,2.0964967,58.494546)" d="M34.81262 45.35419C34.81262 45.79436 34.45581 46.15118 34.01564 46.15118 33.57545 46.15118 33.21864 45.79436 33.21864 45.35419 33.21864 44.91402 33.57545 44.55719 34.01564 44.55719 34.45581 44.55719 34.81262 44.91402 34.81262 45.35419ZM34.01564 45.35419"/>
<path transform="matrix(1.00003,0,0,-1.00006,2.0964967,58.494546)" stroke-width=".3985" stroke-linecap="butt" stroke-miterlimit="10" stroke-linejoin="miter" fill="none" stroke="#000000" d="M34.81262 45.35419C34.81262 45.79436 34.45581 46.15118 34.01564 46.15118 33.57545 46.15118 33.21864 45.79436 33.21864 45.35419 33.21864 44.91402 33.57545 44.55719 34.01564 44.55719 34.45581 44.55719 34.81262 44.91402 34.81262 45.35419ZM34.01564 45.35419"/>
<path transform="matrix(1.00003,0,0,-1.00006,2.0964967,58.494546)" stroke-width=".3985" stroke-linecap="butt" stroke-miterlimit="10" stroke-linejoin="miter" fill="none" stroke="#000000" d="M34.01564 45.35419 88.08118 12.9149"/>
<path transform="matrix(.8574957,.5145309,.51451548,-.8575214,88.707,44.694818)" d="M4.21463 0 .64343 1.34572 1.8178 0 .64343-1.34572Z"/>
<path transform="matrix(.8574957,.5145309,.51451548,-.8575214,88.707,44.694818)" stroke-width=".3985" stroke-linecap="butt" stroke-miterlimit="10" stroke-linejoin="miter" fill="none" stroke="#000000" d="M4.21463 0 .64343 1.34572 1.8178 0 .64343-1.34572Z"/>
<path transform="matrix(1.00003,0,0,-1.00006,2.0964967,58.494546)" d="M91.50539 34.01564C91.50539 34.45581 91.14856 34.81262 90.70839 34.81262 90.26822 34.81262 89.91139 34.45581 89.91139 34.01564 89.91139 33.57545 90.26822 33.21864 90.70839 33.21864 91.14856 33.21864 91.50539 33.57545 91.50539 34.01564ZM90.70839 34.01564"/>
<path transform="matrix(1.00003,0,0,-1.00006,2.0964967,58.494546)" stroke-width=".3985" stroke-linecap="butt" stroke-miterlimit="10" stroke-linejoin="miter" fill="none" stroke="#000000" d="M91.50539 34.01564C91.50539 34.45581 91.14856 34.81262 90.70839 34.81262 90.26822 34.81262 89.91139 34.45581 89.91139 34.01564 89.91139 33.57545 90.26822 33.21864 90.70839 33.21864 91.14856 33.21864 91.50539 33.57545 91.50539 34.01564ZM90.70839 34.01564"/>
<path transform="matrix(1.00003,0,0,-1.00006,2.0964967,58.494546)" d="M46.15118 11.33855C46.15118 11.77872 45.79436 12.13553 45.35419 12.13553 44.91402 12.13553 44.55719 11.77872 44.55719 11.33855 44.55719 10.89836 44.91402 10.54155 45.35419 10.54155 45.79436 10.54155 46.15118 10.89836 46.15118 11.33855ZM45.35419 11.33855"/>
<path transform="matrix(1.00003,0,0,-1.00006,2.0964967,58.494546)" stroke-width=".3985" stroke-linecap="butt" stroke-miterlimit="10" stroke-linejoin="miter" fill="none" stroke="#000000" d="M46.15118 11.33855C46.15118 11.77872 45.79436 12.13553 45.35419 12.13553 44.91402 12.13553 44.55719 11.77872 44.55719 11.33855 44.55719 10.89836 44.91402 10.54155 45.35419 10.54155 45.79436 10.54155 46.15118 10.89836 46.15118 11.33855ZM45.35419 11.33855"/>
<path transform="matrix(1.00003,0,0,-1.00006,2.0964967,58.494546)" stroke-width=".3985" stroke-linecap="butt" stroke-miterlimit="10" stroke-linejoin="miter" fill="none" stroke="#000000" d="M45.35419 11.33855H87.64447"/>
<path transform="matrix(1.00003,0,0,-1.00006,88.02535,47.155317)" d="M4.21463 0 .64343 1.34572 1.8178 0 .64343-1.34572Z"/>
<path transform="matrix(1.00003,0,0,-1.00006,88.02535,47.155317)" stroke-width=".3985" stroke-linecap="butt" stroke-miterlimit="10" stroke-linejoin="miter" fill="none" stroke="#000000" d="M4.21463 0 .64343 1.34572 1.8178 0 .64343-1.34572Z"/>
<path transform="matrix(1.00003,0,0,-1.00006,2.0964967,58.494546)" d="M46.15118 22.6771C46.15118 23.11726 45.79436 23.47408 45.35419 23.47408 44.91402 23.47408 44.55719 23.11726 44.55719 22.6771 44.55719 22.23691 44.91402 21.8801 45.35419 21.8801 45.79436 21.8801 46.15118 22.23691 46.15118 22.6771ZM45.35419 22.6771"/>
<path transform="matrix(1.00003,0,0,-1.00006,2.0964967,58.494546)" stroke-width=".3985" stroke-linecap="butt" stroke-miterlimit="10" stroke-linejoin="miter" fill="none" stroke="#000000" d="M46.15118 22.6771C46.15118 23.11726 45.79436 23.47408 45.35419 23.47408 44.91402 23.47408 44.55719 23.11726 44.55719 22.6771 44.55719 22.23691 44.91402 21.8801 45.35419 21.8801 45.79436 21.8801 46.15118 22.23691 46.15118 22.6771ZM45.35419 22.6771"/>
<path transform="matrix(1.00003,0,0,-1.00006,2.0964967,58.494546)" stroke-width=".3985" stroke-linecap="butt" stroke-miterlimit="10" stroke-linejoin="miter" fill="none" stroke="#000000" d="M45.35419 22.6771 87.73598 12.08156"/>
<path transform="matrix(.9701691,.24252455,.24251729,-.97019818,88.168178,45.995569)" d="M4.21463 0 .64343 1.34572 1.8178 0 .64343-1.34572Z"/>
<path transform="matrix(.9701691,.24252455,.24251729,-.97019818,88.168178,45.995569)" stroke-width=".3985" stroke-linecap="butt" stroke-miterlimit="10" stroke-linejoin="miter" fill="none" stroke="#000000" d="M4.21463 0 .64343 1.34572 1.8178 0 .64343-1.34572Z"/>
<path transform="matrix(1.00003,0,0,-1.00006,2.0964967,58.494546)" d="M46.15118 34.01564C46.15118 34.45581 45.79436 34.81262 45.35419 34.81262 44.91402 34.81262 44.55719 34.45581 44.55719 34.01564 44.55719 33.57545 44.91402 33.21864 45.35419 33.21864 45.79436 33.21864 46.15118 33.57545 46.15118 34.01564ZM45.35419 34.01564"/>
<path transform="matrix(1.00003,0,0,-1.00006,2.0964967,58.494546)" stroke-width=".3985" stroke-linecap="butt" stroke-miterlimit="10" stroke-linejoin="miter" fill="none" stroke="#000000" d="M46.15118 34.01564C46.15118 34.45581 45.79436 34.81262 45.35419 34.81262 44.91402 34.81262 44.55719 34.45581 44.55719 34.01564 44.55719 33.57545 44.91402 33.21864 45.35419 33.21864 45.79436 33.21864 46.15118 33.57545 46.15118 34.01564ZM45.35419 34.01564"/>
<path transform="matrix(1.00003,0,0,-1.00006,2.0964967,58.494546)" stroke-width=".3985" stroke-linecap="butt" stroke-miterlimit="10" stroke-linejoin="miter" fill="none" stroke="#000000" d="M45.35419 34.01564 87.96814 12.70863"/>
<path transform="matrix(.8943869,.4471968,.44718344,-.89441367,88.53055,45.016778)" d="M4.21463 0 .64343 1.34572 1.8178 0 .64343-1.34572Z"/>
<path transform="matrix(.8943869,.4471968,.44718344,-.89441367,88.53055,45.016778)" stroke-width=".3985" stroke-linecap="butt" stroke-miterlimit="10" stroke-linejoin="miter" fill="none" stroke="#000000" d="M4.21463 0 .64343 1.34572 1.8178 0 .64343-1.34572Z"/>
<path transform="matrix(1.00003,0,0,-1.00006,2.0964967,58.494546)" d="M46.15118 45.35419C46.15118 45.79436 45.79436 46.15118 45.35419 46.15118 44.91402 46.15118 44.55719 45.79436 44.55719 45.35419 44.55719 44.91402 44.91402 44.55719 45.35419 44.55719 45.79436 44.55719 46.15118 44.91402 46.15118 45.35419ZM45.35419 45.35419"/>
<path transform="matrix(1.00003,0,0,-1.00006,2.0964967,58.494546)" stroke-width=".3985" stroke-linecap="butt" stroke-miterlimit="10" stroke-linejoin="miter" fill="none" stroke="#000000" d="M46.15118 45.35419C46.15118 45.79436 45.79436 46.15118 45.35419 46.15118 44.91402 46.15118 44.55719 45.79436 44.55719 45.35419 44.55719 44.91402 44.91402 44.55719 45.35419 44.55719 45.79436 44.55719 46.15118 44.91402 46.15118 45.35419ZM45.35419 45.35419"/>
<path transform="matrix(1.00003,0,0,-1.00006,2.0964967,58.494546)" stroke-width=".3985" stroke-linecap="butt" stroke-miterlimit="10" stroke-linejoin="miter" fill="none" stroke="#000000" d="M45.35419 45.35419 88.25734 13.17685"/>
<path transform="matrix(.799994,.600026,.600008,-.80001798,88.98195,44.285943)" d="M4.21463 0 .64343 1.34572 1.8178 0 .64343-1.34572Z"/>
<path transform="matrix(.799994,.600026,.600008,-.80001798,88.98195,44.285943)" stroke-width=".3985" stroke-linecap="butt" stroke-miterlimit="10" stroke-linejoin="miter" fill="none" stroke="#000000" d="M4.21463 0 .64343 1.34572 1.8178 0 .64343-1.34572Z"/>
<path transform="matrix(1.00003,0,0,-1.00006,2.0964967,58.494546)" d="M91.50539 45.35419C91.50539 45.79436 91.14856 46.15118 90.70839 46.15118 90.26822 46.15118 89.91139 45.79436 89.91139 45.35419 89.91139 44.91402 90.26822 44.55719 90.70839 44.55719 91.14856 44.55719 91.50539 44.91402 91.50539 45.35419ZM90.70839 45.35419"/>
<path transform="matrix(1.00003,0,0,-1.00006,2.0964967,58.494546)" stroke-width=".3985" stroke-linecap="butt" stroke-miterlimit="10" stroke-linejoin="miter" fill="none" stroke="#000000" d="M91.50539 45.35419C91.50539 45.79436 91.14856 46.15118 90.70839 46.15118 90.26822 46.15118 89.91139 45.79436 89.91139 45.35419 89.91139 44.91402 90.26822 44.55719 90.70839 44.55719 91.14856 44.55719 91.50539 44.91402 91.50539 45.35419ZM90.70839 45.35419"/>
</svg>
