<svg xmlns="http://www.w3.org/2000/svg" xmlns:xlink="http://www.w3.org/1999/xlink" xmlns:inkscape="http://www.inkscape.org/namespaces/inkscape" version="1.1" width="123" height="109" viewBox="0 0 123 109">
<defs>
<path id="font_1_2" d="M.9259949 .6056366C.93499758 .6416168 .93699648 .6516113 1.0119934 .6516113 1.0349884 .6516113 1.0439911 .6516113 1.0439911 .6716156 1.0439911 .6826172 1.0339966 .6826172 1.0169983 .6826172H.8849945C.85899356 .6826172 .8580017 .6826172 .84599307 .66360476L.48098756 .093948367 .40299989 .65960696C.3999939 .6826172 .397995 .6826172 .37199403 .6826172H.23498535C.21598816 .6826172 .20498657 .6826172 .20498657 .66360476 .20498657 .6516113 .21398926 .6516113 .23399353 .6516113 .24699402 .6516113 .2649994 .65060427 .2769928 .6496124 .29299928 .6476135 .29899598 .64460757 .29899598 .6336212 .29899598 .6296234 .2979889 .62661746 .29499818 .614624L.16799927 .10594177C.1579895 .065963748 .14099121 .033996583 .05999756 .0309906 .054992677 .0309906 .041992189 .02999878 .041992189 .011993408 .041992189 .0029907227 .04798889 0 .055999757 0 .08799744 0 .12298584 .0029907227 .1559906 .0029907227 .18998719 .0029907227 .22599793 0 .25898744 0 .2639923 0 .2769928 0 .2769928 .019989014 .2769928 .0309906 .2659912 .0309906 .25898744 .0309906 .20199585 .03199768 .19099427 .051986696 .19099427 .07496643 .19099427 .081954959 .19198609 .08695984 .19499207 .09794617L.33099366 .64260867H.33198548L.41799928 .022994996C.41999818 .010986328 .42099 0 .43299867 0 .44400025 0 .44999696 .010986328 .45498658 .017990113L.85899356 .65060427H.8600006L.71699526 .07795715C.70700076 .038986207 .7049866 .0309906 .6259918 .0309906 .60899356 .0309906 .59799197 .0309906 .59799197 .011993408 .59799197 0 .6100006 0 .61299136 0 .6409912 0 .70899966 .0029907227 .7369995 .0029907227 .7779999 .0029907227 .82099917 0 .8619995 0 .8679962 0 .8809967 0 .8809967 .019989014 .8809967 .0309906 .871994 .0309906 .8529968 .0309906 .81599429 .0309906 .7879944 .0309906 .7879944 .048980714 .7879944 .052978517 .7879944 .054977418 .79299929 .07296753L.9259949 .6056366Z"/>
<path id="font_2_1" d="M.5159912 .31925965C.5159912 .42918397 .5029907 .50813296 .45700074 .5780945 .42599488 .62405398 .3639984 .6640625 .28399659 .6640625 .051986696 .6640625 .051986696 .39120484 .051986696 .31925965 .051986696 .2472992 .051986696-.01953125 .28399659-.01953125 .5159912-.01953125 .5159912 .2472992 .5159912 .31925965M.28399659 .008468628C.23799134 .008468628 .1769867 .035446168 .15699768 .117385867 .14299011 .17634583 .14299011 .25830079 .14299011 .33224488 .14299011 .40519715 .14299011 .4811554 .1579895 .53611758 .1789856 .6150665 .24299622 .63604739 .28399659 .63604739 .33799745 .63604739 .3899994 .6030731 .4079895 .545105 .42399598 .4911499 .4249878 .41918946 .4249878 .33224488 .4249878 .25830079 .4249878 .18434143 .4119873 .12138367 .3919983 .030441285 .32398988 .008468628 .28399659 .008468628Z"/>
<path id="font_1_1" d="M.30299378 .3244629H.3999939C.47499085 .3244629 .48298646 .30848695 .48298646 .27954103 .48298646 .2725525 .48298646 .26057435 .47599793 .2306366 .47399903 .22564698 .47299195 .22164917 .47299195 .21965027 .47299195 .21166992 .47898866 .20767212 .4850006 .20767212 .49499513 .20767212 .49499513 .21066284 .5 .2286377L.5549927 .44551087C.55799868 .45651246 .55799868 .45851136 .55799868 .46151734 .55799868 .46351625 .55599978 .47251893 .54599 .47251893 .5359955 .47251893 .5349884 .46751405 .5309906 .45150758 .5099945 .37347413 .4869995 .35546876 .4019928 .35546876H.31098939L.375 .6095886C.38398744 .64460757 .3849945 .64860537 .42900086 .64860537H.5609894C.6839905 .64860537 .70700076 .6156006 .70700076 .53855898 .70700076 .5155487 .70700076 .51153567 .70399478 .4845276 .70199587 .4715271 .70199587 .46951295 .70199587 .46652223 .70199587 .46151734 .7049866 .45451356 .71398928 .45451356 .72499087 .45451356 .7259979 .46051026 .7279968 .4795227L.7480011 .65260317C.7509918 .6796112 .74598696 .6796112 .72099307 .6796112H.23098755C.21099854 .6796112 .20098877 .6796112 .20098877 .65960696 .20098877 .64860537 .20999146 .64860537 .22898865 .64860537 .2659912 .64860537 .2939911 .64860537 .2939911 .6306 .2939911 .6266022 .2939911 .6246033 .2889862 .60658267L.15699768 .07791138C.14698792 .038970949 .14498902 .0309906 .06599426 .0309906 .04899597 .0309906 .037994386 .0309906 .037994386 .011993408 .037994386 0 .049987794 0 .052993776 0 .08198547 0 .1559906 .0029907227 .18499756 .0029907227 .21798706 .0029907227 .30099488 0 .33399964 0 .34298707 0 .35499574 0 .35499574 .018997193 .35499574 .026992798 .34899903 .0289917 .34899903 .02999878 .34599305 .0309906 .34399415 .0309906 .32099916 .0309906 .29899598 .0309906 .2939911 .0309906 .2689972 .032989503 .23999024 .035980226 .23699951 .039978029 .23699951 .052947999 .23699951 .0549469 .23699951 .060943605 .24099732 .075912479L.30299378 .3244629Z"/>
<path id="font_3_2" d="M.49198915 .68133547C.49198915 .69433596 .47999574 .69433596 .47499085 .69433596 .45999146 .69433596 .45899964 .68933108 .45498658 .67233279L.397995 .44335938C.22099304 .4353485 .069992069 .30833436 .069992069 .17430115 .069992069 .061279298 .17298889-.006729126 .28399659-.010726929 .27598573-.041793825 .2689972-.0738678 .26098634-.10493469 .24899292-.15203858 .23999024-.18910218 .23999024-.19210816 .23999024-.20410156 .25299073-.20410156 .2559967-.20410156 .2709961-.20410156 .27198792-.20111084 .2769928-.18009949L.31900025-.01171875C.48999024-.0047302248 .6469879 .121292117 .6469879 .25732423 .6469879 .3623352 .5549927 .4373474 .43299867 .4423523L.49198915 .68133547M.29100038 .01727295C.21398926 .021270752 .14299011 .0632782 .14299011 .15730286 .14299011 .25732423 .21899414 .39834596 .3899994 .41435243L.29100038 .01727295M.4249878 .41435243C.5019989 .41134645 .57398989 .369339 .57398989 .2743225 .57398989 .16529846 .48799134 .031280519 .32598878 .01727295L.4249878 .41435243Z"/>
<path id="font_4_1" d="M.6009979 .31976319C.6009979 .3918152 .6009979 .6660156 .33999635 .6660156 .07899475 .6660156 .07899475 .3918152 .07899475 .31976319 .07899475 .2467041 .07899475-.022460938 .33999635-.022460938 .6009979-.022460938 .6009979 .2467041 .6009979 .31976319M.33999635 .010528564C.30299378 .010528564 .21899414 .023544312 .19400025 .12461853 .17999268 .17866516 .1789856 .24971009 .1789856 .33177186 .1789856 .405838 .1789856 .47488404 .19499207 .5319214 .21998596 .6159973 .29699708 .63301089 .33999635 .63301089 .4139862 .63301089 .46699525 .5949707 .4869995 .5249176 .5009918 .47387696 .5009918 .39082337 .5009918 .33177186 .5009918 .26371766 .5009918 .18266297 .48599244 .12261963 .45999146 .025543213 .37998963 .010528564 .33999635 .010528564Z"/>
<path id="font_3_1" d="M.053985597-.16085816C.049987794-.1758728 .049987794-.18086243 .049987794-.1818695 .049987794-.20387268 .067993167-.21386719 .083999637-.21386719 .11999512-.21386719 .12799073-.18086243 .13198853-.16386414 .13398743-.15885926 .1539917-.078811649 .17799378 .019226075 .20899964-.0017700195 .24899292-.009765625 .2849884-.009765625 .37098695-.009765625 .4269867 .0602417 .42900086 .0622406 .44799806-.0067749025 .5169983-.009765625 .5319977-.009765625 .56799319-.009765625 .59298709 .01222229 .61099246 .04324341 .6329956 .08226013 .6459961 .13928223 .6459961 .14328003 .6459961 .15628052 .6329956 .15628052 .6299896 .15628052 .6159973 .15628052 .61499026 .15228272 .60798647 .12527466 .59599307 .07725525 .57699587 .018234253 .5349884 .018234253 .5089874 .018234253 .5019989 .040237428 .5019989 .06724548 .5019989 .08425903 .5099945 .120269779 .5169983 .14628601 .5239868 .17329407 .5339966 .21430969 .5389862 .23631287L.56199648 .3253479C.56799319 .3503723 .57899478 .39437867 .57899478 .39938355 .57899478 .41938783 .5629883 .43139649 .54599 .43139649 .5349884 .43139649 .5159912 .4263916 .5049896 .4073944 .5019989 .40138246 .49398805 .3693695 .4889984 .34936524L.46798707 .2663269 .43699647 .14128113C.42999269 .11627197 .42999269 .11427307 .42099 .101257327 .3899994 .057235719 .34599305 .018234253 .2889862 .018234253 .20698548 .018234253 .20698548 .089263919 .20698548 .10726929 .20698548 .13327027 .20999146 .14628601 .22399903 .20030213 .23399353 .24432373 .23599243 .2513275 .24598694 .29034425L.2599945 .34635926C.2649994 .3673706 .2749939 .4053955 .2749939 .4093933 .2749939 .42739869 .26098634 .44140626 .24099732 .44140626 .20498657 .44140626 .19599915 .40638734 .19299317 .39437867L.053985597-.16085816Z"/>
<path id="font_5_1" d="M.3600006 .46505738C.36099244 .46606446 .36999513 .48506166 .36999513 .50006106 .36999513 .5360565 .33799745 .5590515 .30799867 .5590515 .2669983 .5590515 .2559967 .5280609 .25099183 .5130615L.09700012 .080078128C.09298706 .06808472 .09298706 .065078739 .09298706 .064071658 .09298706 .048080446 .1349945 .038085939 .13598633 .038085939 .14498902 .038085939 .14698792 .04307556 .15299988 .05508423L.3600006 .46505738Z"/>
<path id="font_2_2" d="M.33499146 .63612368C.33499146 .6630554 .33299256 .6640625 .30499269 .6640625 .24099732 .6014404 .1499939 .6004486 .10899353 .6004486V.5644531C.1329956 .5644531 .19898987 .5644531 .2539978 .592453V.08203125C.2539978 .04899597 .2539978 .035995485 .1539917 .035995485H.115997318V0C.13398743 .0009918213 .25698854 .0039978029 .2939911 .0039978029 .32499696 .0039978029 .45098878 .0009918213 .47299195 0V.035995485H.43499757C.33499146 .035995485 .33499146 .04899597 .33499146 .08203125V.63612368Z"/>
<path id="font_4_2" d="M.397995 .63591006C.397995 .6660156 .394989 .6660156 .3619995 .6660156 .29100038 .6016083 .17999268 .6016083 .1599884 .6016083H.14299011V.5576172H.1599884C.18299866 .5576172 .24798584 .5606079 .30599977 .58561709V.08596802C.30599977 .054977418 .30599977 .04399109 .19999695 .04399109H.1499939V0C.20498657 .0039978029 .2939911 .0039978029 .35198976 .0039978029 .4099884 .0039978029 .49899293 .0039978029 .55400088 0V.04399109H.5039978C.397995 .04399109 .397995 .054977418 .397995 .08596802V.63591006Z"/>
<path id="font_3_3" d="M.40699769 .39465333H.5049896C.5249939 .39465333 .5379944 .39465333 .5379944 .4166565 .5379944 .43066407 .5249939 .43066407 .5069885 .43066407H.4139862C.43699647 .5580139 .44499208 .6040497 .45298768 .63305667 .45799256 .6550598 .47999574 .6760864 .5039978 .6760864 .5049896 .6760864 .5319977 .6760864 .5509949 .6640625 .5099945 .651062 .5069885 .61505129 .5069885 .60905459 .5069885 .5870514 .5239868 .572052 .5469971 .572052 .57398989 .572052 .60398867 .59506228 .60398867 .63305667 .60398867 .6790924 .5549927 .70410159 .5039978 .70410159 .45999146 .70410159 .41099549 .6790924 .38398744 .62905886 .3639984 .5920563 .35598756 .5469818 .33499146 .43066407H.2559967C.23599243 .43066407 .22299195 .43066407 .22299195 .4086609 .22299195 .39465333 .23599243 .39465333 .2539978 .39465333H.32798768C.32699586 .38865663 .2639923 .028869629 .23999024-.078063968 .23498535-.10006714 .21798706-.17610169 .16999817-.17610169 .16899109-.17610169 .14498902-.17610169 .12599182-.1640625 .16699219-.15107727 .16999817-.11506653 .16999817-.109069827 .16999817-.08706665 .15299988-.07206726 .12998963-.07206726 .102996829-.07206726 .07299805-.095077518 .07299805-.1330719 .07299805-.17811585 .11999512-.20410156 .16999817-.20410156 .23399353-.20410156 .27799989-.13807678 .2899933-.11607361 .32598878-.049087526 .34899903 .07385254 .35099793 .08584595L.40699769 .39465333Z"/>
<path id="font_6_2" d="M1.1640015 .597641C1.1719971 .6296234 1.173996 .637619 1.25 .637619 1.276001 .637619 1.2779999 .637619 1.2819977 .64060977 1.2879944 .64660647 1.2910004 .6586151 1.2910004 .66560366 1.2910004 .6826172 1.276001 .6826172 1.2589874 .6826172H1.1080017C1.0859985 .6826172 1.074997 .6826172 1.0599976 .6626129L.644989 .09095764 .5169983 .65560916C.5109863 .6816101 .5049896 .6826172 .47799684 .6826172H.31799317C.2979889 .6826172 .2829895 .6826172 .2829895 .65460208 .2829895 .637619 .29499818 .637619 .31999208 .637619 .32998658 .637619 .36299134 .637619 .38398744 .6316223 .38398744 .6196289 .38398744 .61763 .3809967 .6066284L.25698854 .111953739C.25 .08496094 .24099732 .04699707 .147995 .04499817 .13999939 .04499817 .12298584 .04399109 .12298584 .016998291 .12298584 .0079956059 .1309967 0 .13999939 0 .1579895 0 .1789856 .0029907227 .19699097 .0029907227 .21598816 .0029907227 .23498535 .0039978029 .2539978 .0039978029 .27398683 .0039978029 .29299928 .0029907227 .31298829 .0029907227 .33099366 .0029907227 .35198976 0 .36999513 0 .3829956 0 .3939972 .0069885256 .3939972 .027999878 .3939972 .04499817 .3789978 .04499817 .36799623 .04499817 .31799317 .04598999 .29899598 .05899048 .29899598 .082962039 .29899598 .08996582 .30099488 .095962528 .30299378 .10595703L.43399049 .6316223H.43499757L.57199099 .0289917C.57598879 .011993408 .57899478 0 .59799197 0 .60798647 0 .6199951 .0039978029 .6339874 .022994996L1.0809937 .63960269 1.0820007 .63861086 .94299319 .082962039C.93499758 .052993776 .93299868 .04499817 .8569946 .04499817 .83200076 .04499817 .81599429 .04499817 .81599429 .016998291 .81599429 .008987427 .82299807 0 .83399966 0 .8549957 0 .8789978 .0029907227 .901001 .0029907227 .9229889 .0029907227 .94599917 .0039978029 .96899417 .0039978029 .99198916 .0039978029 1.0149994 .0029907227 1.0379944 .0029907227 1.0599976 .0029907227 1.0849915 0 1.1069946 0 1.1129913 0 1.1319885 0 1.1319885 .027999878 1.1319885 .04499817 1.1179962 .04499817 1.098999 .04499817 1.0970001 .04499817 1.072998 .04499817 1.0559998 .04699707 1.0309906 .04899597 1.0299988 .049987794 1.0299988 .0579834 1.0299988 .0599823 1.0299988 .0619812 1.0329895 .07197571L1.1640015 .597641Z"/>
<path id="font_6_1" d="M.40699769 .31729127H.5309906C.6199951 .31729127 .6279907 .3032837 .6279907 .2702484 .6279907 .25422669 .6230011 .22920227 .62098696 .22419739 .62098696 .2211914 .6199951 .2191925 .6199951 .21717835 .6199951 .21118164 .6239929 .2001648 .6409912 .2001648 .6549988 .2001648 .6599884 .2041626 .6639862 .2211914L.72299197 .46211244C.72299197 .46310426 .72299197 .4790802 .7029877 .4790802 .6859894 .4790802 .6839905 .4730835 .6799927 .45611573 .6569977 .37727357 .6299896 .3623047 .5349884 .3623047H.41799928L.47799684 .60084536C.48599244 .63179019 .48599244 .63378909 .5279999 .63378909H.71099856C.8529968 .63378909 .8880005 .60783389 .8880005 .50901797 .8880005 .48706056 .8849945 .46110536 .8849945 .45910646 .8849945 .44514466 .894989 .44015504 .9059906 .44015504 .9249878 .44015504 .9259949 .4491272 .9279938 .46809388L.94400027 .6457825 .94599917 .66078189C.94599917 .67878726 .93099978 .67878726 .9129944 .67878726H.31098939C.29100038 .67878726 .27598573 .67878726 .27598573 .65078738 .27598573 .63378909 .28799439 .63378909 .31298829 .63378909 .32299806 .63378909 .35598756 .63378909 .3769989 .62779238 .3769989 .6158142 .3769989 .6138153 .37399293 .60284426L.24398804 .08303833C.23599243 .053009035 .23498535 .04499817 .1579895 .04499817 .1329956 .04499817 .116989139 .04499817 .116989139 .016998291 .116989139 .008987427 .12399292 0 .1349945 0 .15699768 0 .18199158 .0029907227 .20399475 .0029907227 .22898865 .0029907227 .25498963 .0039978029 .2809906 .0039978029 .30899049 .0039978029 .33599855 .0029907227 .3639984 .0029907227 .3909912 .0029907227 .41999818 0 .44699098 0 .45298768 0 .47299195 0 .47299195 .027999878 .47299195 .04499817 .45899964 .04499817 .43299867 .04499817 .40899659 .04499817 .40098573 .04499817 .375 .04699707 .35099793 .04899597 .34399415 .05000305 .34399415 .06201172 .34399415 .06802368 .34399415 .07002258 .34799195 .08403015L.40699769 .31729127Z"/>
</defs>
<use data-text="M" xlink:href="#font_1_2" transform="matrix(9.962799,0,0,-9.963397,26.425553,29.938958)"/>
<use data-text="0" xlink:href="#font_2_1" transform="matrix(6.97394,0,0,-6.974358,36.09073,31.434082)"/>
<use data-text="F" xlink:href="#font_1_1" transform="matrix(9.962799,0,0,-9.963397,28.054596,86.63749)"/>
<use data-text="0" xlink:href="#font_2_1" transform="matrix(6.97394,0,0,-6.974358,34.461717,88.132617)"/>
<path transform="matrix(1.00002,0,0,-1.00008,61.84027,83.98028)" stroke-width=".3985" stroke-linecap="butt" stroke-miterlimit="10" stroke-linejoin="miter" fill="none" stroke="#000000" d="M-38.93398 56.69362C-79.74423 56.69362-28.3468 105.17482-28.3468 68.42474"/>
<path transform="matrix(0,1.00008,1.00002,0,33.492906,13.831734)" d="M4.21463 0 .64343 1.34572 1.8178 0 .64343-1.34572Z"/>
<path transform="matrix(0,1.00008,1.00002,0,33.492906,13.831734)" stroke-width=".3985" stroke-linecap="butt" stroke-miterlimit="10" stroke-linejoin="miter" fill="none" stroke="#000000" d="M4.21463 0 .64343 1.34572 1.8178 0 .64343-1.34572Z"/>
<use data-text="&#x03d5;" xlink:href="#font_3_2" transform="matrix(6.97394,0,0,-6.974358,.6960449,9.885353)"/>
<use data-text="0" xlink:href="#font_4_1" transform="matrix(4.9813997,0,0,-4.9816987,5.4861299,10.881432)"/>
<path transform="matrix(1.00002,0,0,-1.00008,61.84027,83.98028)" stroke-width=".3985" stroke-linecap="butt" stroke-miterlimit="10" stroke-linejoin="miter" fill="none" stroke="#000000" d="M-37.30464 0C-74.13649 0-28.3468-44.50278-28.3468-11.73112"/>
<path transform="matrix(0,-1.00008,-1.00002,-0,33.492906,97.43069)" d="M4.21463 0 .64343 1.34572 1.8178 0 .64343-1.34572Z"/>
<path transform="matrix(0,-1.00008,-1.00002,-0,33.492906,97.43069)" stroke-width=".3985" stroke-linecap="butt" stroke-miterlimit="10" stroke-linejoin="miter" fill="none" stroke="#000000" d="M4.21463 0 .64343 1.34572 1.8178 0 .64343-1.34572Z"/>
<use data-text="&#x00b5;" xlink:href="#font_3_1" transform="matrix(6.97394,0,0,-6.974358,2.9490967,102.45276)"/>
<use data-text="0" xlink:href="#font_4_1" transform="matrix(4.9813997,0,0,-4.9816987,7.7931826,103.44884)"/>
<path transform="matrix(1.00002,0,0,-1.00008,61.84027,83.98028)" stroke-width=".3985" stroke-linecap="butt" stroke-miterlimit="10" stroke-linejoin="miter" fill="none" stroke="#000000" d="M-31.18144 49.02266V10.73485"/>
<path transform="matrix(0,1.00008,1.00002,0,30.658207,71.52623)" d="M4.21463 0 .64343 1.34572 1.8178 0 .64343-1.34572Z"/>
<path transform="matrix(0,1.00008,1.00002,0,30.658207,71.52623)" stroke-width=".3985" stroke-linecap="butt" stroke-miterlimit="10" stroke-linejoin="miter" fill="none" stroke="#000000" d="M4.21463 0 .64343 1.34572 1.8178 0 .64343-1.34572Z"/>
<use data-text="&#x00b5;" xlink:href="#font_3_1" transform="matrix(6.97394,0,0,-6.974358,18.40541,57.522165)"/>
<use data-text="&#x2032;" xlink:href="#font_5_1" transform="matrix(4.9813997,0,0,-4.9816987,23.249497,54.515924)"/>
<use data-text="0" xlink:href="#font_4_1" transform="matrix(4.9813997,0,0,-4.9816987,23.249497,59.515329)"/>
<path transform="matrix(1.00002,0,0,-1.00008,61.84027,83.98028)" stroke-width=".3985" stroke-linecap="butt" stroke-miterlimit="10" stroke-linejoin="miter" fill="none" stroke="#000000" d="M-25.51216 7.67094V45.95876"/>
<path transform="matrix(0,-1.00008,-1.00002,-0,36.3276,39.736188)" d="M4.21463 0 .64343 1.34572 1.8178 0 .64343-1.34572Z"/>
<path transform="matrix(0,-1.00008,-1.00002,-0,36.3276,39.736188)" stroke-width=".3985" stroke-linecap="butt" stroke-miterlimit="10" stroke-linejoin="miter" fill="none" stroke="#000000" d="M4.21463 0 .64343 1.34572 1.8178 0 .64343-1.34572Z"/>
<use data-text="&#x03d5;" xlink:href="#font_3_2" transform="matrix(6.97394,0,0,-6.974358,39.84783,57.522165)"/>
<use data-text="&#x2032;" xlink:href="#font_5_1" transform="matrix(4.9813997,0,0,-4.9816987,44.637918,54.515924)"/>
<use data-text="0" xlink:href="#font_4_1" transform="matrix(4.9813997,0,0,-4.9816987,44.637918,59.515329)"/>
<use data-text="M" xlink:href="#font_1_2" transform="matrix(9.962799,0,0,-9.963397,83.1197,29.938958)"/>
<use data-text="1" xlink:href="#font_2_2" transform="matrix(6.97394,0,0,-6.974358,92.784877,31.434082)"/>
<use data-text="F" xlink:href="#font_1_1" transform="matrix(9.962799,0,0,-9.963397,84.74973,86.63749)"/>
<use data-text="1" xlink:href="#font_2_2" transform="matrix(6.97394,0,0,-6.974358,91.15685,88.132617)"/>
<path transform="matrix(1.00002,0,0,-1.00008,61.84027,83.98028)" stroke-width=".3985" stroke-linecap="butt" stroke-miterlimit="10" stroke-linejoin="miter" fill="none" stroke="#000000" d="M38.93398 56.69362C79.74423 56.69362 28.3468 105.17482 28.3468 68.42474"/>
<path transform="matrix(0,1.00008,1.00002,0,90.18764,13.831734)" d="M4.21463 0 .64343 1.34572 1.8178 0 .64343-1.34572Z"/>
<path transform="matrix(0,1.00008,1.00002,0,90.18764,13.831734)" stroke-width=".3985" stroke-linecap="butt" stroke-miterlimit="10" stroke-linejoin="miter" fill="none" stroke="#000000" d="M4.21463 0 .64343 1.34572 1.8178 0 .64343-1.34572Z"/>
<use data-text="&#x03d5;" xlink:href="#font_3_2" transform="matrix(6.97394,0,0,-6.974358,114.30532,9.885353)"/>
<use data-text="1" xlink:href="#font_4_2" transform="matrix(4.9813997,0,0,-4.9816987,119.095409,10.881432)"/>
<path transform="matrix(1.00002,0,0,-1.00008,61.84027,83.98028)" stroke-width=".3985" stroke-linecap="butt" stroke-miterlimit="10" stroke-linejoin="miter" fill="none" stroke="#000000" d="M37.30464 0C74.13649 0 28.3468-44.50278 28.3468-11.73112"/>
<path transform="matrix(0,-1.00008,-1.00002,-0,90.18764,97.43069)" d="M4.21463 0 .64343 1.34572 1.8178 0 .64343-1.34572Z"/>
<path transform="matrix(0,-1.00008,-1.00002,-0,90.18764,97.43069)" stroke-width=".3985" stroke-linecap="butt" stroke-miterlimit="10" stroke-linejoin="miter" fill="none" stroke="#000000" d="M4.21463 0 .64343 1.34572 1.8178 0 .64343-1.34572Z"/>
<use data-text="&#x00b5;" xlink:href="#font_3_1" transform="matrix(6.97394,0,0,-6.974358,111.998279,102.45276)"/>
<use data-text="1" xlink:href="#font_4_2" transform="matrix(4.9813997,0,0,-4.9816987,116.84236,103.44884)"/>
<path transform="matrix(1.00002,0,0,-1.00008,61.84027,83.98028)" stroke-width=".3985" stroke-linecap="butt" stroke-miterlimit="10" stroke-linejoin="miter" fill="none" stroke="#000000" d="M25.51216 49.02266V10.73485"/>
<path transform="matrix(0,1.00008,1.00002,0,87.35294,71.52623)" d="M4.21463 0 .64343 1.34572 1.8178 0 .64343-1.34572Z"/>
<path transform="matrix(0,1.00008,1.00002,0,87.35294,71.52623)" stroke-width=".3985" stroke-linecap="butt" stroke-miterlimit="10" stroke-linejoin="miter" fill="none" stroke="#000000" d="M4.21463 0 .64343 1.34572 1.8178 0 .64343-1.34572Z"/>
<use data-text="&#x00b5;" xlink:href="#font_3_1" transform="matrix(6.97394,0,0,-6.974358,75.10054,57.522165)"/>
<use data-text="&#x2032;" xlink:href="#font_5_1" transform="matrix(4.9813997,0,0,-4.9816987,79.944629,54.515924)"/>
<use data-text="1" xlink:href="#font_4_2" transform="matrix(4.9813997,0,0,-4.9816987,79.944629,59.515329)"/>
<path transform="matrix(1.00002,0,0,-1.00008,61.84027,83.98028)" stroke-width=".3985" stroke-linecap="butt" stroke-miterlimit="10" stroke-linejoin="miter" fill="none" stroke="#000000" d="M31.18144 7.67094V45.95876"/>
<path transform="matrix(0,-1.00008,-1.00002,-0,93.02234,39.736188)" d="M4.21463 0 .64343 1.34572 1.8178 0 .64343-1.34572Z"/>
<path transform="matrix(0,-1.00008,-1.00002,-0,93.02234,39.736188)" stroke-width=".3985" stroke-linecap="butt" stroke-miterlimit="10" stroke-linejoin="miter" fill="none" stroke="#000000" d="M4.21463 0 .64343 1.34572 1.8178 0 .64343-1.34572Z"/>
<use data-text="&#x03d5;" xlink:href="#font_3_2" transform="matrix(6.97394,0,0,-6.974358,96.54196,57.522165)"/>
<use data-text="&#x2032;" xlink:href="#font_5_1" transform="matrix(4.9813997,0,0,-4.9816987,101.33205,54.515924)"/>
<use data-text="1" xlink:href="#font_4_2" transform="matrix(4.9813997,0,0,-4.9816987,101.33205,59.515329)"/>
<path transform="matrix(1.00002,0,0,-1.00008,61.84027,83.98028)" stroke-width=".3985" stroke-linecap="butt" stroke-miterlimit="10" stroke-linejoin="miter" fill="none" stroke="#000000" d="M-17.75963 56.69362H14.69571"/>
<path transform="matrix(1.00002,0,0,-1.00008,74.818058,27.282124)" d="M4.21463 0 .64343 1.34572 1.8178 0 .64343-1.34572Z"/>
<path transform="matrix(1.00002,0,0,-1.00008,74.818058,27.282124)" stroke-width=".3985" stroke-linecap="butt" stroke-miterlimit="10" stroke-linejoin="miter" fill="none" stroke="#000000" d="M4.21463 0 .64343 1.34572 1.8178 0 .64343-1.34572Z"/>
<use data-text="f" xlink:href="#font_3_3" transform="matrix(6.97394,0,0,-6.974358,56.17916,22.40635)"/>
<use data-text="M" xlink:href="#font_6_2" transform="matrix(4.9813997,0,0,-4.9816987,60.06423,23.408425)"/>
<path transform="matrix(1.00002,0,0,-1.00008,61.84027,83.98028)" stroke-width=".3985" stroke-linecap="butt" stroke-miterlimit="10" stroke-linejoin="miter" fill="none" stroke="#000000" d="M-19.38896 0H16.32504"/>
<path transform="matrix(1.00002,0,0,-1.00008,76.447429,83.98028)" d="M4.21463 0 .64343 1.34572 1.8178 0 .64343-1.34572Z"/>
<path transform="matrix(1.00002,0,0,-1.00008,76.447429,83.98028)" stroke-width=".3985" stroke-linecap="butt" stroke-miterlimit="10" stroke-linejoin="miter" fill="none" stroke="#000000" d="M4.21463 0 .64343 1.34572 1.8178 0 .64343-1.34572Z"/>
<use data-text="f" xlink:href="#font_3_3" transform="matrix(6.97394,0,0,-6.974358,57.056177,79.10389)"/>
<use data-text="F" xlink:href="#font_6_1" transform="matrix(4.9813997,0,0,-4.9816987,60.941247,80.105968)"/>
</svg>
