<svg xmlns="http://www.w3.org/2000/svg" xmlns:xlink="http://www.w3.org/1999/xlink" xmlns:inkscape="http://www.inkscape.org/namespaces/inkscape" version="1.1" width="429" height="372" viewBox="0 0 429 372">
<defs>
<path id="font_1_1" d="M.48599244 .38136292C.48999024 .39537049 .48999024 .39736939 .48999024 .40437318 .48999024 .42237855 .47599793 .43138124 .46099855 .43138124 .45098878 .43138124 .43499757 .42536927 .42599488 .41036988 .42399598 .405365 .41600038 .37435914 .4119873 .35635377 .40499879 .33035279 .397995 .30334474 .3919983 .27633668L.34700013 .09628296C.34298707 .08126831 .2999878 .011245728 .23399353 .011245728 .18299866 .011245728 .17199707 .055267335 .17199707 .0922699 .17199707 .1382904 .18899536 .20030213 .22299195 .28833009 .23899842 .3293457 .24299622 .3403473 .24299622 .36035157 .24299622 .405365 .21099854 .4423828 .16099549 .4423828 .06599426 .4423828 .0289917 .29733277 .0289917 .28833009 .0289917 .27833558 .038986207 .27833558 .040985109 .27833558 .050994874 .27833558 .051986696 .28033448 .056991579 .29634095 .083999637 .3903656 .12399292 .42037965 .1579895 .42037965 .1659851 .42037965 .18299866 .42037965 .18299866 .3883667 .18299866 .36335755 .17298889 .3373413 .1659851 .31834413 .12599182 .21231079 .10798645 .1552887 .10798645 .10827637 .10798645 .019256592 .17098999-.0107421879 .22999573-.0107421879 .2689972-.0107421879 .30299378 .0062561037 .33099366 .03425598 .31799317-.017745972 .30599977-.06674194 .2659912-.11973572 .23999024-.15385437 .20199585-.18309021 .1559906-.18309021 .14199829-.18309021 .09700012-.18005371 .07998657-.14074707 .09599304-.14074707 .10899353-.14074707 .12298584-.1287384 .1329956-.11973572 .14299011-.10673523 .14299011-.08773804 .14299011-.056747438 .115997318-.052734376 .10598755-.052734376 .08299255-.052734376 .049987794-.068740848 .049987794-.11773682 .049987794-.16796875 .09399414-.20507813 .1559906-.20507813 .25898744-.20507813 .3619995-.11373901 .3899994-.00074768069L.48599244 .38136292Z"/>
<path id="font_2_1" d="M.33499146 .63612368C.33499146 .6630554 .33299256 .6640625 .30499269 .6640625 .24099732 .6014404 .1499939 .6004486 .10899353 .6004486V.5644531C.1329956 .5644531 .19898987 .5644531 .2539978 .592453V.08203125C.2539978 .04899597 .2539978 .035995485 .1539917 .035995485H.115997318V0C.13398743 .0009918213 .25698854 .0039978029 .2939911 .0039978029 .32499696 .0039978029 .45098878 .0009918213 .47299195 0V.035995485H.43499757C.33499146 .035995485 .33499146 .04899597 .33499146 .08203125V.63612368Z"/>
<path id="font_2_2" d="M.5049896 .18203736H.47099305C.46798707 .16001892 .45799256 .100997928 .44499208 .09098816 .43699647 .084991458 .3600006 .084991458 .34599305 .084991458H.1619873C.2669983 .17803955 .3019867 .20603943 .3619995 .25306703 .43598939 .312088 .5049896 .374115 .5049896 .46914674 .5049896 .5900879 .39898683 .6640625 .2709961 .6640625 .14698792 .6640625 .06298828 .57710269 .06298828 .4851532 .06298828 .43414308 .10598755 .42915345 .115997318 .42915345 .13999939 .42915345 .16899109 .44615174 .16899109 .48214723 .16899109 .5001526 .1619873 .53515627 .10998535 .53515627 .14099121 .6060791 .20899964 .62805178 .2559967 .62805178 .35598756 .62805178 .4079895 .5501404 .4079895 .46914674 .4079895 .38212586 .34599305 .3130951 .31399537 .27708436L.07299805 .038986207C.06298828 .02999878 .06298828 .027999878 .06298828 0H.47499085L.5049896 .18203736Z"/>
<path id="font_2_3" d="M.272995 .33428956C.35099793 .33428956 .40699769 .2803192 .40699769 .1733551 .40699769 .04940796 .33499146 .012466431 .2769928 .012466431 .23699951 .012466431 .14898682 .0234375 .10699463 .082351688 .1539917 .084350589 .16499329 .11735535 .16499329 .13835144 .16499329 .17034912 .14099121 .19335938 .10998535 .19335938 .08198547 .19335938 .053985597 .17634583 .053985597 .13534546 .053985597 .041412355 .1579895-.01953125 .2789917-.01953125 .41799928-.01953125 .5139923 .07336426 .5139923 .1733551 .5139923 .2513275 .44999696 .32929994 .33999635 .35229493 .44499208 .39024354 .48298646 .4650879 .48298646 .5260773 .48298646 .60505679 .3919983 .6640625 .2809906 .6640625 .16999817 .6640625 .084991458 .61006167 .084991458 .5300751 .084991458 .49606324 .10699463 .47706605 .13699341 .47706605 .16799927 .47706605 .18798828 .5000763 .18798828 .5280762 .18798828 .5570679 .16799927 .57806399 .13699341 .5800781 .17199707 .62405398 .24099732 .63505557 .27799989 .63505557 .32299806 .63505557 .38598634 .6130676 .38598634 .5260773 .38598634 .48406983 .37199403 .43814088 .34599305 .4072113 .31298829 .36927796 .2849884 .3672943 .23498535 .36428834 .20999146 .3623047 .20799256 .3623047 .20298767 .3612976 .20098877 .3612976 .19299317 .3592987 .19299317 .34829713 .19299317 .33428956 .20199585 .33428956 .21899414 .33428956H.272995Z"/>
<path id="font_2_4" d="M.5289917 .1640625V.20005799H.41799928V.64582827C.41799928 .66682437 .41799928 .6738281 .3959961 .6738281 .38398744 .6738281 .37998963 .6738281 .36999513 .65982058L.038986207 .20005799V.1640625H.33299256V.08201599C.33299256 .04800415 .33299256 .035995485 .2519989 .035995485H.22499085V0C.2749939 .0019989014 .33898927 .0039978029 .375 .0039978029 .4119873 .0039978029 .47599793 .0019989014 .526001 0V.035995485H.49899293C.41799928 .035995485 .41799928 .04800415 .41799928 .08201599V.1640625H.5289917M.33999635 .5658722V.20005799H.07598877L.33999635 .5658722Z"/>
<path id="font_2_5" d="M.15499878 .5588074C.20599365 .5458069 .23599243 .5458069 .2519989 .5458069 .38398744 .5458069 .46199037 .6358032 .46199037 .6508026 .46199037 .6618042 .45498658 .6648102 .44999696 .6648102 .44799806 .6648102 .44599916 .6648102 .44198609 .6618042 .41799928 .6528015 .36499024 .6328125 .29100038 .6328125 .2630005 .6328125 .20999146 .6348114 .14498902 .6598053 .1349945 .6648102 .1329956 .6648102 .13198853 .6648102 .11898804 .6648102 .11898804 .6538086 .11898804 .6378021V.34251405C.11898804 .32548524 .11898804 .3134613 .1349945 .3134613 .14399719 .3134613 .14498902 .3154602 .15499878 .32748414 .19799805 .38259889 .25898744 .390625 .2939911 .390625 .35398866 .390625 .3809967 .34251405 .38598634 .33450318 .4039917 .30143739 .4099884 .26335145 .4099884 .20524597 .4099884 .17524719 .4099884 .116256717 .37998963 .07234192 .35499574 .03640747 .31199647 .012466431 .2630005 .012466431 .19799805 .012466431 .1309967 .04838562 .10598755 .11425781 .14399719 .11125183 .16299439 .13624573 .16299439 .16325379 .16299439 .20625305 .12599182 .21424866 .11299133 .21424866 .11099243 .21424866 .06298828 .21424866 .06298828 .1602478 .06298828 .07034302 .14498902-.01953125 .2649994-.01953125 .3929901-.01953125 .5049896 .07533264 .5049896 .20124817 .5049896 .31445313 .4189911 .41862489 .29499818 .41862489 .25099183 .41862489 .19898987 .4076233 .15499878 .36956788V.5588074Z"/>
<path id="font_2_6" d="M.1499939 .3274536C.1499939 .40945436 .15699768 .48303224 .19499207 .543869 .22898865 .5978699 .2829895 .63505557 .34700013 .63505557 .3769989 .63505557 .4169922 .62701418 .43699647 .5998688 .4119873 .5978699 .3909912 .5808716 .3909912 .5518799 .3909912 .5268707 .4079895 .5048828 .43798829 .5048828 .46798707 .5048828 .48599244 .5248718 .48599244 .5538788 .48599244 .6119385 .44400025 .6640625 .34498597 .6640625 .20098877 .6640625 .053985597 .5318756 .053985597 .3174591 .053985597 .05845642 .17599488-.01953125 .28599549-.01953125 .4079895-.01953125 .5139923 .07345581 .5139923 .20445252 .5139923 .33145143 .41299439 .42546083 .29599 .42546083 .21598816 .42546083 .17199707 .37245179 .1499939 .3274536M.28599549 .012466431C.23599243 .012466431 .19699097 .04145813 .17599488 .08546448 .16099549 .11546326 .15299988 .16545105 .15299988 .22544861 .15299988 .32244874 .21099854 .39746095 .29100038 .39746095 .33699037 .39746095 .36799623 .37945558 .3929901 .342453 .4169922 .30445863 .41799928 .26245118 .41799928 .20445252 .41799928 .14746094 .41799928 .10545349 .3909912 .066467288 .36698915 .031463624 .33499146 .012466431 .28599549 .012466431Z"/>
<path id="font_2_7" d="M.5349884 .6045227C.54499819 .6165161 .54499819 .6185303 .54499819 .64453127H.2829895C.24299622 .64453127 .23199463 .6455078 .19599915 .6484375 .14399719 .65234377 .14199829 .6592407 .13899231 .676239H.10499573L.069992069 .46250917H.10398865C.10598755 .47750855 .115997318 .54351809 .13198853 .5535126 .13999939 .55952456 .22099304 .55952456 .23599243 .55952456H.45399476C.42199708 .5175171 .37098695 .45550538 .34999085 .4275055 .21899414 .25549317 .20698548 .096466068 .20698548 .037460329 .20698548 .02645874 .20698548-.01953125 .2539978-.01953125 .3019867-.01953125 .3019867 .025466919 .3019867 .038467409V.07847595C.3019867 .27249146 .34199525 .36149598 .3849945 .41551209L.5349884 .6045227Z"/>
<path id="font_2_8" d="M.35499574 .36123658C.43299867 .3992157 .48298646 .44618226 .48298646 .5151367 .48298646 .6120758 .38198854 .6640625 .2849884 .6640625 .1749878 .6640625 .084991458 .5920868 .084991458 .4971466 .084991458 .45018006 .10699463 .41619874 .125 .39620973 .14299011 .37522889 .1499939 .37123109 .20899964 .33624269 .15299988 .31227113 .053985597 .25830079 .053985597 .15336609 .053985597 .042434694 .16899109-.01953125 .2829895-.01953125 .4099884-.01953125 .5139923 .061431886 .5139923 .1693573 .5139923 .23532105 .47499085 .29127503 .4169922 .32525636 .4039917 .33325196 .36898805 .35324098 .35499574 .36123658M.19198609 .45617677C.1659851 .4711609 .13798523 .49813844 .13798523 .53512576 .13798523 .5980835 .21099854 .63505557 .2829895 .63505557 .36099244 .63505557 .42999269 .5860901 .42999269 .5151367 .42999269 .42619325 .32598878 .3812256 .32398988 .3812256 .32199098 .3812256 .31999208 .3822174 .31298829 .3862152L.19198609 .45617677M.24099732 .31726075 .37799073 .23831177C.4039917 .22332764 .45399476 .19334412 .45399476 .13438416 .45399476 .059432985 .37098695 .012466431 .2849884 .012466431 .19299317 .012466431 .11399841 .07142639 .11399841 .15336609 .11399841 .22732544 .16899109 .2842865 .24099732 .31726075Z"/>
<path id="font_2_9" d="M.41799928 .29803468C.41799928 .05064392 .29499818 .012466431 .23498535 .012466431 .21299744 .012466431 .1599884 .014465332 .1329956 .045639039 .17399597 .04963684 .1769867 .08363342 .1769867 .09263611 .1769867 .11764526 .1599884 .13964844 .12998963 .13964844 .099990848 .13964844 .08198547 .119644168 .08198547 .09063721 .08198547 .022521973 .13899231-.01953125 .23599243-.01953125 .3789978-.01953125 .5139923 .11564636 .5139923 .32904054 .5139923 .5770569 .4039917 .6640625 .2869873 .6640625 .2539978 .6640625 .18499756 .6590576 .12799073 .60305789 .09399414 .5700531 .053985597 .53105166 .053985597 .4410553 .053985597 .31404115 .15499878 .22003174 .27198792 .22003174 .35198976 .22003174 .394989 .27304078 .41799928 .31803895V.29803468M.2769928 .24804688C.23799134 .24804688 .20098877 .26104737 .17298889 .30703736 .1499939 .34403993 .1499939 .38604737 .1499939 .4410553 .1499939 .49905396 .1499939 .53904727 .1789856 .5790558 .20298767 .61405947 .23599243 .63505557 .28799439 .63505557 .33898927 .63505557 .36898805 .60305789 .3849945 .5770569 .4119873 .53504946 .4149933 .4650421 .4149933 .4300537 .4149933 .30004884 .33999635 .24804688 .2769928 .24804688Z"/>
<path id="font_3_1" d="M.44400025 .24998474C.44400025 .35688783 .35499574 .44381715 .25 .44381715 .14199829 .44381715 .054992677 .35488893 .054992677 .24998474 .054992677 .14407349 .14199829 .056137086 .25 .056137086 .35499574 .056137086 .44400025 .14308167 .44400025 .24998474Z"/>
</defs>
<path transform="matrix(1.00002,0,0,-1,143.8305,30.146)" stroke-width=".3985" stroke-linecap="butt" stroke-miterlimit="10" stroke-linejoin="miter" fill="none" stroke="#000000" d="M-141.73404 28.3468V-255.12128H-85.04042V28.3468ZM-85.04042-255.12128"/>
<path transform="matrix(1.00002,0,0,-1,143.8305,30.146)" stroke-width=".3985" stroke-linecap="butt" stroke-miterlimit="10" stroke-linejoin="miter" fill="none" stroke="#000000" d="M0-283.4681V-340.1617H283.4681V-283.4681ZM283.4681-340.1617"/>
<path transform="matrix(1.00002,0,0,-1,143.8305,30.146)" stroke-width=".3985" stroke-linecap="butt" stroke-miterlimit="10" stroke-linejoin="miter" fill="none" stroke="#000000" d="M0 28.3468V-255.12128H283.4681V28.3468ZM283.4681-255.12128"/>
<use data-text="y" xlink:href="#font_1_1" transform="matrix(9.962799,0,0,-9.9626,167.50098,343.137)"/>
<use data-text="1" xlink:href="#font_2_1" transform="matrix(6.97394,0,0,-6.9738,172.38607,344.63099)"/>
<use data-text="y" xlink:href="#font_1_1" transform="matrix(9.962799,0,0,-9.9626,195.84854,343.137)"/>
<use data-text="2" xlink:href="#font_2_2" transform="matrix(6.97394,0,0,-6.9738,200.73363,344.63099)"/>
<use data-text="y" xlink:href="#font_1_1" transform="matrix(9.962799,0,0,-9.9626,224.19512,343.137)"/>
<use data-text="3" xlink:href="#font_2_3" transform="matrix(6.97394,0,0,-6.9738,229.0802,344.63099)"/>
<use data-text="y" xlink:href="#font_1_1" transform="matrix(9.962799,0,0,-9.9626,252.54268,343.137)"/>
<use data-text="4" xlink:href="#font_2_4" transform="matrix(6.97394,0,0,-6.9738,257.42778,344.63099)"/>
<use data-text="y" xlink:href="#font_1_1" transform="matrix(9.962799,0,0,-9.9626,280.89027,343.137)"/>
<use data-text="5" xlink:href="#font_2_5" transform="matrix(6.97394,0,0,-6.9738,285.77534,344.63099)"/>
<use data-text="y" xlink:href="#font_1_1" transform="matrix(9.962799,0,0,-9.9626,309.23783,343.137)"/>
<use data-text="6" xlink:href="#font_2_6" transform="matrix(6.97394,0,0,-6.9738,314.12294,344.63099)"/>
<use data-text="y" xlink:href="#font_1_1" transform="matrix(9.962799,0,0,-9.9626,337.5854,343.137)"/>
<use data-text="7" xlink:href="#font_2_7" transform="matrix(6.97394,0,0,-6.9738,342.47047,344.63099)"/>
<use data-text="y" xlink:href="#font_1_1" transform="matrix(9.962799,0,0,-9.9626,365.93196,343.137)"/>
<use data-text="8" xlink:href="#font_2_8" transform="matrix(6.97394,0,0,-6.9738,370.81706,344.63099)"/>
<use data-text="y" xlink:href="#font_1_1" transform="matrix(9.962799,0,0,-9.9626,394.27955,343.137)"/>
<use data-text="9" xlink:href="#font_2_9" transform="matrix(6.97394,0,0,-6.9738,399.1646,344.63099)"/>
<use data-text="y" xlink:href="#font_1_1" transform="matrix(9.962799,0,0,-9.9626,25.764145,31.322)"/>
<use data-text="1" xlink:href="#font_2_1" transform="matrix(6.97394,0,0,-6.9738,30.649231,32.816)"/>
<use data-text="y" xlink:href="#font_1_1" transform="matrix(9.962799,0,0,-9.9626,25.764145,59.669004)"/>
<use data-text="2" xlink:href="#font_2_2" transform="matrix(6.97394,0,0,-6.9738,30.649231,61.163003)"/>
<use data-text="y" xlink:href="#font_1_1" transform="matrix(9.962799,0,0,-9.9626,25.764145,88.01599)"/>
<use data-text="3" xlink:href="#font_2_3" transform="matrix(6.97394,0,0,-6.9738,30.649231,89.509998)"/>
<use data-text="y" xlink:href="#font_1_1" transform="matrix(9.962799,0,0,-9.9626,25.764145,116.36301)"/>
<use data-text="4" xlink:href="#font_2_4" transform="matrix(6.97394,0,0,-6.9738,30.649231,117.857)"/>
<use data-text="y" xlink:href="#font_1_1" transform="matrix(9.962799,0,0,-9.9626,25.764145,144.709)"/>
<use data-text="5" xlink:href="#font_2_5" transform="matrix(6.97394,0,0,-6.9738,30.649231,146.203)"/>
<use data-text="y" xlink:href="#font_1_1" transform="matrix(9.962799,0,0,-9.9626,25.764145,173.056)"/>
<use data-text="6" xlink:href="#font_2_6" transform="matrix(6.97394,0,0,-6.9738,30.649231,174.55)"/>
<use data-text="y" xlink:href="#font_1_1" transform="matrix(9.962799,0,0,-9.9626,25.764145,201.403)"/>
<use data-text="7" xlink:href="#font_2_7" transform="matrix(6.97394,0,0,-6.9738,30.649231,202.897)"/>
<use data-text="y" xlink:href="#font_1_1" transform="matrix(9.962799,0,0,-9.9626,25.764145,229.75)"/>
<use data-text="8" xlink:href="#font_2_8" transform="matrix(6.97394,0,0,-6.9738,30.649231,231.244)"/>
<use data-text="y" xlink:href="#font_1_1" transform="matrix(9.962799,0,0,-9.9626,25.764145,258.09703)"/>
<use data-text="9" xlink:href="#font_2_9" transform="matrix(6.97394,0,0,-6.9738,30.649231,259.591)"/>
<path transform="matrix(1.00002,0,0,-1,143.8305,30.146)" stroke-width=".3985" stroke-linecap="butt" stroke-miterlimit="10" stroke-linejoin="miter" fill="none" stroke="#000000" d="M-121.58405-2.19627C-135.2745-5.86487-135.2745 5.86487-125.50583 3.24712"/>
<path transform="matrix(.9659294,.25882,.25882519,-.96591,16.662514,26.45418)" d="M4.21463 0 .64343 1.34572 1.8178 0 .64343-1.34572Z"/>
<path transform="matrix(.9659294,.25882,.25882519,-.96591,16.662514,26.45418)" stroke-width=".3985" stroke-linecap="butt" stroke-miterlimit="10" stroke-linejoin="miter" fill="none" stroke="#000000" d="M4.21463 0 .64343 1.34572 1.8178 0 .64343-1.34572Z"/>
<path transform="matrix(1.00002,0,0,-1,143.8305,30.146)" stroke-width=".3985" stroke-linecap="butt" stroke-miterlimit="10" stroke-linejoin="miter" fill="none" stroke="#000000" d="M-109.55861-50.06044C-106.61815-44.96739-106.61815-40.07301-108.56238-36.70552"/>
<path transform="matrix(-.49999003,-.86601,-.86602738,.49998,35.265954,66.85154)" d="M1.99252 0-1.19551 1.59401 0 0-1.19551-1.59401"/>
<path transform="matrix(1.00002,0,0,-1,143.8305,30.146)" stroke-width=".3985" stroke-linecap="butt" stroke-miterlimit="10" stroke-linejoin="miter" fill="none" stroke="#000000" d="M-121.58405-87.2367C-135.2745-90.9053-135.2745-79.17554-125.50583-81.79329"/>
<path transform="matrix(.9659294,.25882,.25882519,-.96591,16.662514,111.49458)" d="M4.21463 0 .64343 1.34572 1.8178 0 .64343-1.34572Z"/>
<path transform="matrix(.9659294,.25882,.25882519,-.96591,16.662514,111.49458)" stroke-width=".3985" stroke-linecap="butt" stroke-miterlimit="10" stroke-linejoin="miter" fill="none" stroke="#000000" d="M4.21463 0 .64343 1.34572 1.8178 0 .64343-1.34572Z"/>
<path transform="matrix(1.00002,0,0,-1,143.8305,30.146)" stroke-width=".3985" stroke-linecap="butt" stroke-miterlimit="10" stroke-linejoin="miter" fill="none" stroke="#000000" d="M-109.55861-135.10088C-106.61815-130.00783-106.61815-125.11345-108.56238-121.74594"/>
<path transform="matrix(-.49999003,-.86601,-.86602738,.49998,35.265954,151.89196)" d="M1.99252 0-1.19551 1.59401 0 0-1.19551-1.59401"/>
<path transform="matrix(1.00002,0,0,-1,143.8305,30.146)" stroke-width=".3985" stroke-linecap="butt" stroke-miterlimit="10" stroke-linejoin="miter" fill="none" stroke="#000000" d="M-117.21585-176.71402C-120.15631-181.80707-120.15631-186.70145-118.21208-190.06894"/>
<path transform="matrix(.49999003,.86601,.86602738,-.49998,25.616059,220.21492)" d="M1.99252 0-1.19551 1.59401 0 0-1.19551-1.59401"/>
<path transform="matrix(1.00002,0,0,-1,143.8305,30.146)" stroke-width=".3985" stroke-linecap="butt" stroke-miterlimit="10" stroke-linejoin="miter" fill="none" stroke="#000000" d="M-109.55861-191.7945C-106.61815-186.70145-106.61815-181.80707-108.56238-178.43958"/>
<path transform="matrix(-.49999003,-.86601,-.86602738,.49998,35.265954,208.58559)" d="M1.99252 0-1.19551 1.59401 0 0-1.19551-1.59401"/>
<path transform="matrix(1.00002,0,0,-1,143.8305,30.146)" stroke-width=".3985" stroke-linecap="butt" stroke-miterlimit="10" stroke-linejoin="miter" fill="none" stroke="#000000" d="M-121.58405-30.54308C-135.2745-34.21169-135.2745-22.48192-125.50583-25.09967"/>
<path transform="matrix(.9659294,.25882,.25882519,-.96591,16.662514,54.800973)" d="M4.21463 0 .64343 1.34572 1.8178 0 .64343-1.34572Z"/>
<path transform="matrix(.9659294,.25882,.25882519,-.96591,16.662514,54.800973)" stroke-width=".3985" stroke-linecap="butt" stroke-miterlimit="10" stroke-linejoin="miter" fill="none" stroke="#000000" d="M4.21463 0 .64343 1.34572 1.8178 0 .64343-1.34572Z"/>
<path transform="matrix(1.00002,0,0,-1,143.8305,30.146)" stroke-width=".3985" stroke-linecap="butt" stroke-miterlimit="10" stroke-linejoin="miter" fill="none" stroke="#000000" d="M-121.58405-115.58351C-135.2745-119.2521-135.2745-107.52235-125.50583-110.1401"/>
<path transform="matrix(.9659294,.25882,.25882519,-.96591,16.662514,139.8414)" d="M4.21463 0 .64343 1.34572 1.8178 0 .64343-1.34572Z"/>
<path transform="matrix(.9659294,.25882,.25882519,-.96591,16.662514,139.8414)" stroke-width=".3985" stroke-linecap="butt" stroke-miterlimit="10" stroke-linejoin="miter" fill="none" stroke="#000000" d="M4.21463 0 .64343 1.34572 1.8178 0 .64343-1.34572Z"/>
<path transform="matrix(1.00002,0,0,-1,143.8305,30.146)" stroke-width=".3985" stroke-linecap="butt" stroke-miterlimit="10" stroke-linejoin="miter" fill="none" stroke="#000000" d="M-121.58405-228.97075C-135.2745-232.63935-135.2745-220.90959-125.50583-223.52735"/>
<path transform="matrix(.9659294,.25882,.25882519,-.96591,16.662514,253.22864)" d="M4.21463 0 .64343 1.34572 1.8178 0 .64343-1.34572Z"/>
<path transform="matrix(.9659294,.25882,.25882519,-.96591,16.662514,253.22864)" stroke-width=".3985" stroke-linecap="butt" stroke-miterlimit="10" stroke-linejoin="miter" fill="none" stroke="#000000" d="M4.21463 0 .64343 1.34572 1.8178 0 .64343-1.34572Z"/>
<path transform="matrix(1.00002,0,0,-1,143.8305,30.146)" stroke-width=".3985" stroke-linecap="butt" stroke-miterlimit="10" stroke-linejoin="miter" fill="none" stroke="#000000" d="M30.12381-318.44807C33.79266-332.13853 22.90094-332.13853 25.51895-322.36985"/>
<path transform="matrix(.25882519,-.96591,-.9659294,-.25882,168.90526,354.17546)" d="M4.21463 0 .64343 1.34572 1.8178 0 .64343-1.34572Z"/>
<path transform="matrix(.25882519,-.96591,-.9659294,-.25882,168.90526,354.17546)" stroke-width=".3985" stroke-linecap="butt" stroke-miterlimit="10" stroke-linejoin="miter" fill="none" stroke="#000000" d="M4.21463 0 .64343 1.34572 1.8178 0 .64343-1.34572Z"/>
<path transform="matrix(1.00002,0,0,-1,143.8305,30.146)" stroke-width=".3985" stroke-linecap="butt" stroke-miterlimit="10" stroke-linejoin="miter" fill="none" stroke="#000000" d="M64.89043-307.08378C68.92722-304.7531 72.80681-304.7531 75.11806-306.0875"/>
<path transform="matrix(.86602738,.5,.50001,-.86601,218.95005,336.2335)" d="M1.99252 0-1.19551 1.59401 0 0-1.19551-1.59401"/>
<path transform="matrix(1.00002,0,0,-1,143.8305,30.146)" stroke-width=".3985" stroke-linecap="butt" stroke-miterlimit="10" stroke-linejoin="miter" fill="none" stroke="#000000" d="M115.16423-318.44807C118.8331-332.13853 107.94136-332.13853 110.55937-322.36985"/>
<path transform="matrix(.25882519,-.96591,-.9659294,-.25882,253.94739,354.17546)" d="M4.21463 0 .64343 1.34572 1.8178 0 .64343-1.34572Z"/>
<path transform="matrix(.25882519,-.96591,-.9659294,-.25882,253.94739,354.17546)" stroke-width=".3985" stroke-linecap="butt" stroke-miterlimit="10" stroke-linejoin="miter" fill="none" stroke="#000000" d="M4.21463 0 .64343 1.34572 1.8178 0 .64343-1.34572Z"/>
<path transform="matrix(1.00002,0,0,-1,143.8305,30.146)" stroke-width=".3985" stroke-linecap="butt" stroke-miterlimit="10" stroke-linejoin="miter" fill="none" stroke="#000000" d="M149.93087-307.08378C153.96765-304.7531 157.84725-304.7531 160.1585-306.0875"/>
<path transform="matrix(.86602738,.5,.50001,-.86601,303.9922,336.2335)" d="M1.99252 0-1.19551 1.59401 0 0-1.19551-1.59401"/>
<path transform="matrix(1.00002,0,0,-1,143.8305,30.146)" stroke-width=".3985" stroke-linecap="butt" stroke-miterlimit="10" stroke-linejoin="miter" fill="none" stroke="#000000" d="M206.62448-307.08378C210.66127-304.7531 214.54087-304.7531 216.85211-306.0875"/>
<path transform="matrix(.86602738,.5,.50001,-.86601,360.68696,336.2335)" d="M1.99252 0-1.19551 1.59401 0 0-1.19551-1.59401"/>
<path transform="matrix(1.00002,0,0,-1,143.8305,30.146)" stroke-width=".3985" stroke-linecap="butt" stroke-miterlimit="10" stroke-linejoin="miter" fill="none" stroke="#000000" d="M218.57765-316.54606C214.54087-318.8767 210.66127-318.8767 208.35002-317.5423"/>
<path transform="matrix(-.86602738,-.5,-.50001,.86601,352.1847,347.6883)" d="M1.99252 0-1.19551 1.59401 0 0-1.19551-1.59401"/>
<path transform="matrix(1.00002,0,0,-1,143.8305,30.146)" stroke-width=".3985" stroke-linecap="butt" stroke-miterlimit="10" stroke-linejoin="miter" fill="none" stroke="#000000" d="M86.81743-318.44807C90.48628-332.13853 79.59456-332.13853 82.21257-322.36985"/>
<path transform="matrix(.25882519,-.96591,-.9659294,-.25882,225.6,354.17546)" d="M4.21463 0 .64343 1.34572 1.8178 0 .64343-1.34572Z"/>
<path transform="matrix(.25882519,-.96591,-.9659294,-.25882,225.6,354.17546)" stroke-width=".3985" stroke-linecap="butt" stroke-miterlimit="10" stroke-linejoin="miter" fill="none" stroke="#000000" d="M4.21463 0 .64343 1.34572 1.8178 0 .64343-1.34572Z"/>
<path transform="matrix(1.00002,0,0,-1,143.8305,30.146)" stroke-width=".3985" stroke-linecap="butt" stroke-miterlimit="10" stroke-linejoin="miter" fill="none" stroke="#000000" d="M171.85785-318.44807C175.52672-332.13853 164.63498-332.13853 167.25299-322.36985"/>
<path transform="matrix(.25882519,-.96591,-.9659294,-.25882,310.64216,354.17546)" d="M4.21463 0 .64343 1.34572 1.8178 0 .64343-1.34572Z"/>
<path transform="matrix(.25882519,-.96591,-.9659294,-.25882,310.64216,354.17546)" stroke-width=".3985" stroke-linecap="butt" stroke-miterlimit="10" stroke-linejoin="miter" fill="none" stroke="#000000" d="M4.21463 0 .64343 1.34572 1.8178 0 .64343-1.34572Z"/>
<path transform="matrix(1.00002,0,0,-1,143.8305,30.146)" stroke-width=".3985" stroke-linecap="butt" stroke-miterlimit="10" stroke-linejoin="miter" fill="none" stroke="#000000" d="M256.8983-318.44807C260.56715-332.13853 249.67542-332.13853 252.29343-322.36985"/>
<path transform="matrix(.25882519,-.96591,-.9659294,-.25882,395.68428,354.17546)" d="M4.21463 0 .64343 1.34572 1.8178 0 .64343-1.34572Z"/>
<path transform="matrix(.25882519,-.96591,-.9659294,-.25882,395.68428,354.17546)" stroke-width=".3985" stroke-linecap="butt" stroke-miterlimit="10" stroke-linejoin="miter" fill="none" stroke="#000000" d="M4.21463 0 .64343 1.34572 1.8178 0 .64343-1.34572Z"/>
<use data-text="&#x2022;" xlink:href="#font_3_1" transform="matrix(9.962799,0,0,-9.9626,169.68703,32.36)"/>
<use data-text="&#x2022;" xlink:href="#font_3_1" transform="matrix(9.962799,0,0,-9.9626,169.68703,60.707)"/>
<use data-text="&#x2022;" xlink:href="#font_3_1" transform="matrix(9.962799,0,0,-9.9626,169.68703,89.054)"/>
<use data-text="&#x2022;" xlink:href="#font_3_1" transform="matrix(9.962799,0,0,-9.9626,169.68703,117.399997)"/>
<use data-text="&#x2022;" xlink:href="#font_3_1" transform="matrix(9.962799,0,0,-9.9626,169.68703,145.747)"/>
<use data-text="&#x2022;" xlink:href="#font_3_1" transform="matrix(9.962799,0,0,-9.9626,169.68703,174.094)"/>
<use data-text="&#x2022;" xlink:href="#font_3_1" transform="matrix(9.962799,0,0,-9.9626,169.68703,202.441)"/>
<use data-text="&#x2022;" xlink:href="#font_3_1" transform="matrix(9.962799,0,0,-9.9626,169.68703,230.788)"/>
<use data-text="&#x2022;" xlink:href="#font_3_1" transform="matrix(9.962799,0,0,-9.9626,169.68703,259.134)"/>
<use data-text="&#x2022;" xlink:href="#font_3_1" transform="matrix(9.962799,0,0,-9.9626,198.03459,32.36)"/>
<use data-text="&#x2022;" xlink:href="#font_3_1" transform="matrix(9.962799,0,0,-9.9626,198.03459,60.707)"/>
<use data-text="&#x2022;" xlink:href="#font_3_1" transform="matrix(9.962799,0,0,-9.9626,198.03459,89.054)"/>
<use data-text="&#x2022;" xlink:href="#font_3_1" transform="matrix(9.962799,0,0,-9.9626,198.03459,117.399997)"/>
<use data-text="&#x2022;" xlink:href="#font_3_1" transform="matrix(9.962799,0,0,-9.9626,198.03459,145.747)"/>
<use data-text="&#x2022;" xlink:href="#font_3_1" transform="matrix(9.962799,0,0,-9.9626,198.03459,174.094)"/>
<use data-text="&#x2022;" xlink:href="#font_3_1" transform="matrix(9.962799,0,0,-9.9626,198.03459,202.441)"/>
<use data-text="&#x2022;" xlink:href="#font_3_1" transform="matrix(9.962799,0,0,-9.9626,198.03459,230.788)"/>
<use data-text="&#x2022;" xlink:href="#font_3_1" transform="matrix(9.962799,0,0,-9.9626,198.03459,259.134)"/>
<use data-text="&#x2022;" xlink:href="#font_3_1" transform="matrix(9.962799,0,0,-9.9626,226.38217,32.36)"/>
<use data-text="&#x2022;" xlink:href="#font_3_1" transform="matrix(9.962799,0,0,-9.9626,226.38217,60.707)"/>
<use data-text="&#x2022;" xlink:href="#font_3_1" transform="matrix(9.962799,0,0,-9.9626,226.38217,89.054)"/>
<use data-text="&#x2022;" xlink:href="#font_3_1" transform="matrix(9.962799,0,0,-9.9626,226.38217,117.399997)"/>
<use data-text="&#x2022;" xlink:href="#font_3_1" transform="matrix(9.962799,0,0,-9.9626,226.38217,145.747)"/>
<use data-text="&#x2022;" xlink:href="#font_3_1" transform="matrix(9.962799,0,0,-9.9626,226.38217,174.094)"/>
<use data-text="&#x2022;" xlink:href="#font_3_1" transform="matrix(9.962799,0,0,-9.9626,226.38217,202.441)"/>
<use data-text="&#x2022;" xlink:href="#font_3_1" transform="matrix(9.962799,0,0,-9.9626,226.38217,230.788)"/>
<use data-text="&#x2022;" xlink:href="#font_3_1" transform="matrix(9.962799,0,0,-9.9626,226.38217,259.134)"/>
<use data-text="&#x2022;" xlink:href="#font_3_1" transform="matrix(9.962799,0,0,-9.9626,254.72974,32.36)"/>
<use data-text="&#x2022;" xlink:href="#font_3_1" transform="matrix(9.962799,0,0,-9.9626,254.72974,60.707)"/>
<use data-text="&#x2022;" xlink:href="#font_3_1" transform="matrix(9.962799,0,0,-9.9626,254.72974,89.054)"/>
<use data-text="&#x2022;" xlink:href="#font_3_1" transform="matrix(9.962799,0,0,-9.9626,254.72974,117.399997)"/>
<use data-text="&#x2022;" xlink:href="#font_3_1" transform="matrix(9.962799,0,0,-9.9626,254.72974,145.747)"/>
<use data-text="&#x2022;" xlink:href="#font_3_1" transform="matrix(9.962799,0,0,-9.9626,254.72974,174.094)"/>
<use data-text="&#x2022;" xlink:href="#font_3_1" transform="matrix(9.962799,0,0,-9.9626,254.72974,202.441)"/>
<use data-text="&#x2022;" xlink:href="#font_3_1" transform="matrix(9.962799,0,0,-9.9626,254.72974,230.788)"/>
<use data-text="&#x2022;" xlink:href="#font_3_1" transform="matrix(9.962799,0,0,-9.9626,254.72974,259.134)"/>
<use data-text="&#x2022;" xlink:href="#font_3_1" transform="matrix(9.962799,0,0,-9.9626,283.0763,32.36)"/>
<use data-text="&#x2022;" xlink:href="#font_3_1" transform="matrix(9.962799,0,0,-9.9626,283.0763,60.707)"/>
<use data-text="&#x2022;" xlink:href="#font_3_1" transform="matrix(9.962799,0,0,-9.9626,283.0763,89.054)"/>
<use data-text="&#x2022;" xlink:href="#font_3_1" transform="matrix(9.962799,0,0,-9.9626,283.0763,117.399997)"/>
<use data-text="&#x2022;" xlink:href="#font_3_1" transform="matrix(9.962799,0,0,-9.9626,283.0763,145.747)"/>
<use data-text="&#x2022;" xlink:href="#font_3_1" transform="matrix(9.962799,0,0,-9.9626,283.0763,174.094)"/>
<use data-text="&#x2022;" xlink:href="#font_3_1" transform="matrix(9.962799,0,0,-9.9626,283.0763,202.441)"/>
<use data-text="&#x2022;" xlink:href="#font_3_1" transform="matrix(9.962799,0,0,-9.9626,283.0763,230.788)"/>
<use data-text="&#x2022;" xlink:href="#font_3_1" transform="matrix(9.962799,0,0,-9.9626,283.0763,259.134)"/>
<use data-text="&#x2022;" xlink:href="#font_3_1" transform="matrix(9.962799,0,0,-9.9626,311.42387,32.36)"/>
<use data-text="&#x2022;" xlink:href="#font_3_1" transform="matrix(9.962799,0,0,-9.9626,311.42387,60.707)"/>
<use data-text="&#x2022;" xlink:href="#font_3_1" transform="matrix(9.962799,0,0,-9.9626,311.42387,89.054)"/>
<use data-text="&#x2022;" xlink:href="#font_3_1" transform="matrix(9.962799,0,0,-9.9626,311.42387,117.399997)"/>
<use data-text="&#x2022;" xlink:href="#font_3_1" transform="matrix(9.962799,0,0,-9.9626,311.42387,145.747)"/>
<use data-text="&#x2022;" xlink:href="#font_3_1" transform="matrix(9.962799,0,0,-9.9626,311.42387,174.094)"/>
<use data-text="&#x2022;" xlink:href="#font_3_1" transform="matrix(9.962799,0,0,-9.9626,311.42387,202.441)"/>
<use data-text="&#x2022;" xlink:href="#font_3_1" transform="matrix(9.962799,0,0,-9.9626,311.42387,230.788)"/>
<use data-text="&#x2022;" xlink:href="#font_3_1" transform="matrix(9.962799,0,0,-9.9626,311.42387,259.134)"/>
<use data-text="&#x2022;" xlink:href="#font_3_1" transform="matrix(9.962799,0,0,-9.9626,339.77143,32.36)"/>
<use data-text="&#x2022;" xlink:href="#font_3_1" transform="matrix(9.962799,0,0,-9.9626,339.77143,60.707)"/>
<use data-text="&#x2022;" xlink:href="#font_3_1" transform="matrix(9.962799,0,0,-9.9626,339.77143,89.054)"/>
<use data-text="&#x2022;" xlink:href="#font_3_1" transform="matrix(9.962799,0,0,-9.9626,339.77143,117.399997)"/>
<use data-text="&#x2022;" xlink:href="#font_3_1" transform="matrix(9.962799,0,0,-9.9626,339.77143,145.747)"/>
<use data-text="&#x2022;" xlink:href="#font_3_1" transform="matrix(9.962799,0,0,-9.9626,339.77143,174.094)"/>
<use data-text="&#x2022;" xlink:href="#font_3_1" transform="matrix(9.962799,0,0,-9.9626,339.77143,202.441)"/>
<use data-text="&#x2022;" xlink:href="#font_3_1" transform="matrix(9.962799,0,0,-9.9626,339.77143,230.788)"/>
<use data-text="&#x2022;" xlink:href="#font_3_1" transform="matrix(9.962799,0,0,-9.9626,339.77143,259.134)"/>
<use data-text="&#x2022;" xlink:href="#font_3_1" transform="matrix(9.962799,0,0,-9.9626,368.119,32.36)"/>
<use data-text="&#x2022;" xlink:href="#font_3_1" transform="matrix(9.962799,0,0,-9.9626,368.119,60.707)"/>
<use data-text="&#x2022;" xlink:href="#font_3_1" transform="matrix(9.962799,0,0,-9.9626,368.119,89.054)"/>
<use data-text="&#x2022;" xlink:href="#font_3_1" transform="matrix(9.962799,0,0,-9.9626,368.119,117.399997)"/>
<use data-text="&#x2022;" xlink:href="#font_3_1" transform="matrix(9.962799,0,0,-9.9626,368.119,145.747)"/>
<use data-text="&#x2022;" xlink:href="#font_3_1" transform="matrix(9.962799,0,0,-9.9626,368.119,174.094)"/>
<use data-text="&#x2022;" xlink:href="#font_3_1" transform="matrix(9.962799,0,0,-9.9626,368.119,202.441)"/>
<use data-text="&#x2022;" xlink:href="#font_3_1" transform="matrix(9.962799,0,0,-9.9626,368.119,230.788)"/>
<use data-text="&#x2022;" xlink:href="#font_3_1" transform="matrix(9.962799,0,0,-9.9626,368.119,259.134)"/>
<use data-text="&#x2022;" xlink:href="#font_3_1" transform="matrix(9.962799,0,0,-9.9626,396.46656,32.36)"/>
<use data-text="&#x2022;" xlink:href="#font_3_1" transform="matrix(9.962799,0,0,-9.9626,396.46656,60.707)"/>
<use data-text="&#x2022;" xlink:href="#font_3_1" transform="matrix(9.962799,0,0,-9.9626,396.46656,89.054)"/>
<use data-text="&#x2022;" xlink:href="#font_3_1" transform="matrix(9.962799,0,0,-9.9626,396.46656,117.399997)"/>
<use data-text="&#x2022;" xlink:href="#font_3_1" transform="matrix(9.962799,0,0,-9.9626,396.46656,145.747)"/>
<use data-text="&#x2022;" xlink:href="#font_3_1" transform="matrix(9.962799,0,0,-9.9626,396.46656,174.094)"/>
<use data-text="&#x2022;" xlink:href="#font_3_1" transform="matrix(9.962799,0,0,-9.9626,396.46656,202.441)"/>
<use data-text="&#x2022;" xlink:href="#font_3_1" transform="matrix(9.962799,0,0,-9.9626,396.46656,230.788)"/>
<use data-text="&#x2022;" xlink:href="#font_3_1" transform="matrix(9.962799,0,0,-9.9626,396.46656,259.134)"/>
<path transform="matrix(1.00002,0,0,-1,143.8305,30.146)" stroke-width=".3985" stroke-linecap="butt" stroke-miterlimit="10" stroke-linejoin="miter" fill="none" stroke="#000000" d="M26.81065 5.73375C23.14197 19.42421 33.55164 19.42421 30.93379 9.65553"/>
<path transform="matrix(-.25882519,.96591,.9659294,.25882,175.20964,18.83086)" d="M4.21463 0 .64343 1.34572 1.8178 0 .64343-1.34572Z"/>
<path transform="matrix(-.25882519,.96591,.9659294,.25882,175.20964,18.83086)" stroke-width=".3985" stroke-linecap="butt" stroke-miterlimit="10" stroke-linejoin="miter" fill="none" stroke="#000000" d="M4.21463 0 .64343 1.34572 1.8178 0 .64343-1.34572Z"/>
<path transform="matrix(1.00002,0,0,-1,143.8305,30.146)" stroke-width=".3985" stroke-linecap="butt" stroke-miterlimit="10" stroke-linejoin="miter" fill="none" stroke="#000000" d="M62.70413-3.46922C68.21774-6.6525 73.51628-6.6525 77.30437-4.46545"/>
<path transform="matrix(.86602738,-.49998,-.49999003,-.86601,221.13642,34.61145)" d="M1.99252 0-1.19551 1.59401 0 0-1.19551-1.59401"/>
<path transform="matrix(1.00002,0,0,-1,143.8305,30.146)" stroke-width=".3985" stroke-linecap="butt" stroke-miterlimit="10" stroke-linejoin="miter" fill="none" stroke="#000000" d="M83.50427 5.73375C79.83559 19.42421 90.24525 19.42421 87.62743 9.65553"/>
<path transform="matrix(-.25882519,.96591,.9659294,.25882,231.90439,18.83086)" d="M4.21463 0 .64343 1.34572 1.8178 0 .64343-1.34572Z"/>
<path transform="matrix(-.25882519,.96591,.9659294,.25882,231.90439,18.83086)" stroke-width=".3985" stroke-linecap="butt" stroke-miterlimit="10" stroke-linejoin="miter" fill="none" stroke="#000000" d="M4.21463 0 .64343 1.34572 1.8178 0 .64343-1.34572Z"/>
<path transform="matrix(1.00002,0,0,-1,143.8305,30.146)" stroke-width=".3985" stroke-linecap="butt" stroke-miterlimit="10" stroke-linejoin="miter" fill="none" stroke="#000000" d="M111.85109 5.73375C108.18239 19.42421 118.59207 19.42421 115.97423 9.65553"/>
<path transform="matrix(-.25882519,.96591,.9659294,.25882,260.25178,18.83086)" d="M4.21463 0 .64343 1.34572 1.8178 0 .64343-1.34572Z"/>
<path transform="matrix(-.25882519,.96591,.9659294,.25882,260.25178,18.83086)" stroke-width=".3985" stroke-linecap="butt" stroke-miterlimit="10" stroke-linejoin="miter" fill="none" stroke="#000000" d="M4.21463 0 .64343 1.34572 1.8178 0 .64343-1.34572Z"/>
<path transform="matrix(1.00002,0,0,-1,143.8305,30.146)" stroke-width=".3985" stroke-linecap="butt" stroke-miterlimit="10" stroke-linejoin="miter" fill="none" stroke="#000000" d="M147.74456-3.46922C153.25818-6.6525 158.55672-6.6525 162.34479-4.46545"/>
<path transform="matrix(.86602738,-.49998,-.49999003,-.86601,306.17854,34.61145)" d="M1.99252 0-1.19551 1.59401 0 0-1.19551-1.59401"/>
<path transform="matrix(1.00002,0,0,-1,143.8305,30.146)" stroke-width=".3985" stroke-linecap="butt" stroke-miterlimit="10" stroke-linejoin="miter" fill="none" stroke="#000000" d="M168.54471 5.73375C164.876 19.42421 175.28569 19.42421 172.66785 9.65553"/>
<path transform="matrix(-.25882519,.96591,.9659294,.25882,316.94654,18.83086)" d="M4.21463 0 .64343 1.34572 1.8178 0 .64343-1.34572Z"/>
<path transform="matrix(-.25882519,.96591,.9659294,.25882,316.94654,18.83086)" stroke-width=".3985" stroke-linecap="butt" stroke-miterlimit="10" stroke-linejoin="miter" fill="none" stroke="#000000" d="M4.21463 0 .64343 1.34572 1.8178 0 .64343-1.34572Z"/>
<path transform="matrix(1.00002,0,0,-1,143.8305,30.146)" stroke-width=".3985" stroke-linecap="butt" stroke-miterlimit="10" stroke-linejoin="miter" fill="none" stroke="#000000" d="M204.43817-3.46922C209.9518-6.6525 215.25034-6.6525 219.0384-4.46545"/>
<path transform="matrix(.86602738,-.49998,-.49999003,-.86601,362.8733,34.61145)" d="M1.99252 0-1.19551 1.59401 0 0-1.19551-1.59401"/>
<path transform="matrix(1.00002,0,0,-1,143.8305,30.146)" stroke-width=".3985" stroke-linecap="butt" stroke-miterlimit="10" stroke-linejoin="miter" fill="none" stroke="#000000" d="M220.76396 3.46922C215.25034 6.6525 209.9518 6.6525 206.16373 4.46545"/>
<path transform="matrix(-.86602738,.49998,.49999003,.86601,349.99839,25.68055)" d="M1.99252 0-1.19551 1.59401 0 0-1.19551-1.59401"/>
<path transform="matrix(1.00002,0,0,-1,143.8305,30.146)" stroke-width=".3985" stroke-linecap="butt" stroke-miterlimit="10" stroke-linejoin="miter" fill="none" stroke="#000000" d="M253.58513 5.73375C249.91645 19.42421 260.32615 19.42421 257.70829 9.65553"/>
<path transform="matrix(-.25882519,.96591,.9659294,.25882,401.98866,18.83086)" d="M4.21463 0 .64343 1.34572 1.8178 0 .64343-1.34572Z"/>
<path transform="matrix(-.25882519,.96591,.9659294,.25882,401.98866,18.83086)" stroke-width=".3985" stroke-linecap="butt" stroke-miterlimit="10" stroke-linejoin="miter" fill="none" stroke="#000000" d="M4.21463 0 .64343 1.34572 1.8178 0 .64343-1.34572Z"/>
<path transform="matrix(1.00002,0,0,-1,143.8305,30.146)" stroke-width=".3985" stroke-linecap="butt" stroke-miterlimit="10" stroke-linejoin="miter" fill="none" stroke="#000000" d="M26.81065-22.61304C23.14197-8.92258 33.55164-8.92258 30.93379-18.69127"/>
<path transform="matrix(-.25882519,.96591,.9659294,.25882,175.20964,47.17765)" d="M4.21463 0 .64343 1.34572 1.8178 0 .64343-1.34572Z"/>
<path transform="matrix(-.25882519,.96591,.9659294,.25882,175.20964,47.17765)" stroke-width=".3985" stroke-linecap="butt" stroke-miterlimit="10" stroke-linejoin="miter" fill="none" stroke="#000000" d="M4.21463 0 .64343 1.34572 1.8178 0 .64343-1.34572Z"/>
<path transform="matrix(1.00002,0,0,-1,143.8305,30.146)" stroke-width=".3985" stroke-linecap="butt" stroke-miterlimit="10" stroke-linejoin="miter" fill="none" stroke="#000000" d="M62.70413-31.81602C68.21774-34.99931 73.51628-34.99931 77.30437-32.81226"/>
<path transform="matrix(.86602738,-.49998,-.49999003,-.86601,221.13642,62.95826)" d="M1.99252 0-1.19551 1.59401 0 0-1.19551-1.59401"/>
<path transform="matrix(1.00002,0,0,-1,143.8305,30.146)" stroke-width=".3985" stroke-linecap="butt" stroke-miterlimit="10" stroke-linejoin="miter" fill="none" stroke="#000000" d="M83.50427-22.61304C79.83559-8.92258 90.24525-8.92258 87.62743-18.69127"/>
<path transform="matrix(-.25882519,.96591,.9659294,.25882,231.90439,47.17765)" d="M4.21463 0 .64343 1.34572 1.8178 0 .64343-1.34572Z"/>
<path transform="matrix(-.25882519,.96591,.9659294,.25882,231.90439,47.17765)" stroke-width=".3985" stroke-linecap="butt" stroke-miterlimit="10" stroke-linejoin="miter" fill="none" stroke="#000000" d="M4.21463 0 .64343 1.34572 1.8178 0 .64343-1.34572Z"/>
<path transform="matrix(1.00002,0,0,-1,143.8305,30.146)" stroke-width=".3985" stroke-linecap="butt" stroke-miterlimit="10" stroke-linejoin="miter" fill="none" stroke="#000000" d="M111.85109-22.61304C108.18239-8.92258 118.59207-8.92258 115.97423-18.69127"/>
<path transform="matrix(-.25882519,.96591,.9659294,.25882,260.25178,47.17765)" d="M4.21463 0 .64343 1.34572 1.8178 0 .64343-1.34572Z"/>
<path transform="matrix(-.25882519,.96591,.9659294,.25882,260.25178,47.17765)" stroke-width=".3985" stroke-linecap="butt" stroke-miterlimit="10" stroke-linejoin="miter" fill="none" stroke="#000000" d="M4.21463 0 .64343 1.34572 1.8178 0 .64343-1.34572Z"/>
<path transform="matrix(1.00002,0,0,-1,143.8305,30.146)" stroke-width=".3985" stroke-linecap="butt" stroke-miterlimit="10" stroke-linejoin="miter" fill="none" stroke="#000000" d="M147.74456-31.81602C153.25818-34.99931 158.55672-34.99931 162.34479-32.81226"/>
<path transform="matrix(.86602738,-.49998,-.49999003,-.86601,306.17854,62.95826)" d="M1.99252 0-1.19551 1.59401 0 0-1.19551-1.59401"/>
<path transform="matrix(1.00002,0,0,-1,143.8305,30.146)" stroke-width=".3985" stroke-linecap="butt" stroke-miterlimit="10" stroke-linejoin="miter" fill="none" stroke="#000000" d="M168.54471-22.61304C164.876-8.92258 175.28569-8.92258 172.66785-18.69127"/>
<path transform="matrix(-.25882519,.96591,.9659294,.25882,316.94654,47.17765)" d="M4.21463 0 .64343 1.34572 1.8178 0 .64343-1.34572Z"/>
<path transform="matrix(-.25882519,.96591,.9659294,.25882,316.94654,47.17765)" stroke-width=".3985" stroke-linecap="butt" stroke-miterlimit="10" stroke-linejoin="miter" fill="none" stroke="#000000" d="M4.21463 0 .64343 1.34572 1.8178 0 .64343-1.34572Z"/>
<path transform="matrix(1.00002,0,0,-1,143.8305,30.146)" stroke-width=".3985" stroke-linecap="butt" stroke-miterlimit="10" stroke-linejoin="miter" fill="none" stroke="#000000" d="M204.43817-31.81602C209.9518-34.99931 215.25034-34.99931 219.0384-32.81226"/>
<path transform="matrix(.86602738,-.49998,-.49999003,-.86601,362.8733,62.95826)" d="M1.99252 0-1.19551 1.59401 0 0-1.19551-1.59401"/>
<path transform="matrix(1.00002,0,0,-1,143.8305,30.146)" stroke-width=".3985" stroke-linecap="butt" stroke-miterlimit="10" stroke-linejoin="miter" fill="none" stroke="#000000" d="M220.76396-24.87758C215.25034-21.69429 209.9518-21.69429 206.16373-23.88135"/>
<path transform="matrix(-.86602738,.49998,.49999003,.86601,349.99839,54.02735)" d="M1.99252 0-1.19551 1.59401 0 0-1.19551-1.59401"/>
<path transform="matrix(1.00002,0,0,-1,143.8305,30.146)" stroke-width=".3985" stroke-linecap="butt" stroke-miterlimit="10" stroke-linejoin="miter" fill="none" stroke="#000000" d="M253.58513-22.61304C249.91645-8.92258 260.32615-8.92258 257.70829-18.69127"/>
<path transform="matrix(-.25882519,.96591,.9659294,.25882,401.98866,47.17765)" d="M4.21463 0 .64343 1.34572 1.8178 0 .64343-1.34572Z"/>
<path transform="matrix(-.25882519,.96591,.9659294,.25882,401.98866,47.17765)" stroke-width=".3985" stroke-linecap="butt" stroke-miterlimit="10" stroke-linejoin="miter" fill="none" stroke="#000000" d="M4.21463 0 .64343 1.34572 1.8178 0 .64343-1.34572Z"/>
<path transform="matrix(1.00002,0,0,-1,143.8305,30.146)" stroke-width=".3985" stroke-linecap="butt" stroke-miterlimit="10" stroke-linejoin="miter" fill="none" stroke="#000000" d="M31.65628-50.95985C34.94745-45.25937 34.94745-39.78105 32.65253-35.8061"/>
<path transform="matrix(-.49999003,-.86601,-.86602738,.49998,176.48369,65.95212)" d="M1.99252 0-1.19551 1.59401 0 0-1.19551-1.59401"/>
<path transform="matrix(1.00002,0,0,-1,143.8305,30.146)" stroke-width=".3985" stroke-linecap="butt" stroke-miterlimit="10" stroke-linejoin="miter" fill="none" stroke="#000000" d="M62.70413-55.08333C73.8603-52.03601 80.56522-45.26573 82.99797-36.0076"/>
<path transform="matrix(.2541051,-.96713,-.9671494,-.2541,226.83014,66.153598)" d="M1.99252 0-1.19551 1.59401 0 0-1.19551-1.59401"/>
<path transform="matrix(1.00002,0,0,-1,143.8305,30.146)" stroke-width=".3985" stroke-linecap="butt" stroke-miterlimit="10" stroke-linejoin="miter" fill="none" stroke="#000000" d="M88.34991-50.95985C91.64108-45.25937 91.64108-39.78105 89.34615-35.8061"/>
<path transform="matrix(-.49999003,-.86601,-.86602738,.49998,233.17845,65.95212)" d="M1.99252 0-1.19551 1.59401 0 0-1.19551-1.59401"/>
<path transform="matrix(1.00002,0,0,-1,143.8305,30.146)" stroke-width=".3985" stroke-linecap="butt" stroke-miterlimit="10" stroke-linejoin="miter" fill="none" stroke="#000000" d="M116.69672-50.95985C119.98788-45.25937 119.98788-39.78105 117.69295-35.8061"/>
<path transform="matrix(-.49999003,-.86601,-.86602738,.49998,261.52583,65.95212)" d="M1.99252 0-1.19551 1.59401 0 0-1.19551-1.59401"/>
<path transform="matrix(1.00002,0,0,-1,143.8305,30.146)" stroke-width=".3985" stroke-linecap="butt" stroke-miterlimit="10" stroke-linejoin="miter" fill="none" stroke="#000000" d="M147.74456-55.08333C158.90074-52.03601 165.60565-45.26573 168.0384-36.0076"/>
<path transform="matrix(.2541051,-.96713,-.9671494,-.2541,311.87229,66.153598)" d="M1.99252 0-1.19551 1.59401 0 0-1.19551-1.59401"/>
<path transform="matrix(1.00002,0,0,-1,143.8305,30.146)" stroke-width=".3985" stroke-linecap="butt" stroke-miterlimit="10" stroke-linejoin="miter" fill="none" stroke="#000000" d="M173.39034-50.95985C176.6815-45.25937 176.6815-39.78105 174.38657-35.8061"/>
<path transform="matrix(-.49999003,-.86601,-.86602738,.49998,318.22059,65.95212)" d="M1.99252 0-1.19551 1.59401 0 0-1.19551-1.59401"/>
<path transform="matrix(1.00002,0,0,-1,143.8305,30.146)" stroke-width=".3985" stroke-linecap="butt" stroke-miterlimit="10" stroke-linejoin="miter" fill="none" stroke="#000000" d="M204.43817-55.08333C215.59436-52.03601 222.29927-45.26573 224.73203-36.0076"/>
<path transform="matrix(.2541051,-.96713,-.9671494,-.2541,368.56703,66.153598)" d="M1.99252 0-1.19551 1.59401 0 0-1.19551-1.59401"/>
<path transform="matrix(1.00002,0,0,-1,143.8305,30.146)" stroke-width=".3985" stroke-linecap="butt" stroke-miterlimit="10" stroke-linejoin="miter" fill="none" stroke="#000000" d="M220.76396-55.08333C209.60778-52.03601 202.90287-45.26573 200.47011-36.0076"/>
<path transform="matrix(-.2541051,-.96713,-.9671494,.2541,344.30464,66.153598)" d="M1.99252 0-1.19551 1.59401 0 0-1.19551-1.59401"/>
<path transform="matrix(1.00002,0,0,-1,143.8305,30.146)" stroke-width=".3985" stroke-linecap="butt" stroke-miterlimit="10" stroke-linejoin="miter" fill="none" stroke="#000000" d="M258.43077-50.95985C261.72196-45.25937 261.72196-39.78105 259.427-35.8061"/>
<path transform="matrix(-.49999003,-.86601,-.86602738,.49998,403.2627,65.95212)" d="M1.99252 0-1.19551 1.59401 0 0-1.19551-1.59401"/>
<path transform="matrix(1.00002,0,0,-1,143.8305,30.146)" stroke-width=".3985" stroke-linecap="butt" stroke-miterlimit="10" stroke-linejoin="miter" fill="none" stroke="#000000" d="M26.81065-79.30666C23.14197-65.6162 33.55164-65.6162 30.93379-75.38489"/>
<path transform="matrix(-.25882519,.96591,.9659294,.25882,175.20964,103.87128)" d="M4.21463 0 .64343 1.34572 1.8178 0 .64343-1.34572Z"/>
<path transform="matrix(-.25882519,.96591,.9659294,.25882,175.20964,103.87128)" stroke-width=".3985" stroke-linecap="butt" stroke-miterlimit="10" stroke-linejoin="miter" fill="none" stroke="#000000" d="M4.21463 0 .64343 1.34572 1.8178 0 .64343-1.34572Z"/>
<path transform="matrix(1.00002,0,0,-1,143.8305,30.146)" stroke-width=".3985" stroke-linecap="butt" stroke-miterlimit="10" stroke-linejoin="miter" fill="none" stroke="#000000" d="M62.70413-88.50964C68.21774-91.69293 73.51628-91.69293 77.30437-89.50587"/>
<path transform="matrix(.86602738,-.49998,-.49999003,-.86601,221.13642,119.65187)" d="M1.99252 0-1.19551 1.59401 0 0-1.19551-1.59401"/>
<path transform="matrix(1.00002,0,0,-1,143.8305,30.146)" stroke-width=".3985" stroke-linecap="butt" stroke-miterlimit="10" stroke-linejoin="miter" fill="none" stroke="#000000" d="M83.50427-79.30666C79.83559-65.6162 90.24525-65.6162 87.62743-75.38489"/>
<path transform="matrix(-.25882519,.96591,.9659294,.25882,231.90439,103.87128)" d="M4.21463 0 .64343 1.34572 1.8178 0 .64343-1.34572Z"/>
<path transform="matrix(-.25882519,.96591,.9659294,.25882,231.90439,103.87128)" stroke-width=".3985" stroke-linecap="butt" stroke-miterlimit="10" stroke-linejoin="miter" fill="none" stroke="#000000" d="M4.21463 0 .64343 1.34572 1.8178 0 .64343-1.34572Z"/>
<path transform="matrix(1.00002,0,0,-1,143.8305,30.146)" stroke-width=".3985" stroke-linecap="butt" stroke-miterlimit="10" stroke-linejoin="miter" fill="none" stroke="#000000" d="M111.85109-79.30666C108.18239-65.6162 118.59207-65.6162 115.97423-75.38489"/>
<path transform="matrix(-.25882519,.96591,.9659294,.25882,260.25178,103.87128)" d="M4.21463 0 .64343 1.34572 1.8178 0 .64343-1.34572Z"/>
<path transform="matrix(-.25882519,.96591,.9659294,.25882,260.25178,103.87128)" stroke-width=".3985" stroke-linecap="butt" stroke-miterlimit="10" stroke-linejoin="miter" fill="none" stroke="#000000" d="M4.21463 0 .64343 1.34572 1.8178 0 .64343-1.34572Z"/>
<path transform="matrix(1.00002,0,0,-1,143.8305,30.146)" stroke-width=".3985" stroke-linecap="butt" stroke-miterlimit="10" stroke-linejoin="miter" fill="none" stroke="#000000" d="M147.74456-88.50964C153.25818-91.69293 158.55672-91.69293 162.34479-89.50587"/>
<path transform="matrix(.86602738,-.49998,-.49999003,-.86601,306.17854,119.65187)" d="M1.99252 0-1.19551 1.59401 0 0-1.19551-1.59401"/>
<path transform="matrix(1.00002,0,0,-1,143.8305,30.146)" stroke-width=".3985" stroke-linecap="butt" stroke-miterlimit="10" stroke-linejoin="miter" fill="none" stroke="#000000" d="M168.54471-79.30666C164.876-65.6162 175.28569-65.6162 172.66785-75.38489"/>
<path transform="matrix(-.25882519,.96591,.9659294,.25882,316.94654,103.87128)" d="M4.21463 0 .64343 1.34572 1.8178 0 .64343-1.34572Z"/>
<path transform="matrix(-.25882519,.96591,.9659294,.25882,316.94654,103.87128)" stroke-width=".3985" stroke-linecap="butt" stroke-miterlimit="10" stroke-linejoin="miter" fill="none" stroke="#000000" d="M4.21463 0 .64343 1.34572 1.8178 0 .64343-1.34572Z"/>
<path transform="matrix(1.00002,0,0,-1,143.8305,30.146)" stroke-width=".3985" stroke-linecap="butt" stroke-miterlimit="10" stroke-linejoin="miter" fill="none" stroke="#000000" d="M204.43817-88.50964C209.9518-91.69293 215.25034-91.69293 219.0384-89.50587"/>
<path transform="matrix(.86602738,-.49998,-.49999003,-.86601,362.8733,119.65187)" d="M1.99252 0-1.19551 1.59401 0 0-1.19551-1.59401"/>
<path transform="matrix(1.00002,0,0,-1,143.8305,30.146)" stroke-width=".3985" stroke-linecap="butt" stroke-miterlimit="10" stroke-linejoin="miter" fill="none" stroke="#000000" d="M220.76396-81.5712C215.25034-78.38791 209.9518-78.38791 206.16373-80.57497"/>
<path transform="matrix(-.86602738,.49998,.49999003,.86601,349.99839,110.72096)" d="M1.99252 0-1.19551 1.59401 0 0-1.19551-1.59401"/>
<path transform="matrix(1.00002,0,0,-1,143.8305,30.146)" stroke-width=".3985" stroke-linecap="butt" stroke-miterlimit="10" stroke-linejoin="miter" fill="none" stroke="#000000" d="M253.58513-79.30666C249.91645-65.6162 260.32615-65.6162 257.70829-75.38489"/>
<path transform="matrix(-.25882519,.96591,.9659294,.25882,401.98866,103.87128)" d="M4.21463 0 .64343 1.34572 1.8178 0 .64343-1.34572Z"/>
<path transform="matrix(-.25882519,.96591,.9659294,.25882,401.98866,103.87128)" stroke-width=".3985" stroke-linecap="butt" stroke-miterlimit="10" stroke-linejoin="miter" fill="none" stroke="#000000" d="M4.21463 0 .64343 1.34572 1.8178 0 .64343-1.34572Z"/>
<path transform="matrix(1.00002,0,0,-1,143.8305,30.146)" stroke-width=".3985" stroke-linecap="butt" stroke-miterlimit="10" stroke-linejoin="miter" fill="none" stroke="#000000" d="M26.81065-107.65347C23.14197-93.96301 33.55164-93.96301 30.93379-103.73169"/>
<path transform="matrix(-.25882519,.96591,.9659294,.25882,175.20964,132.21808)" d="M4.21463 0 .64343 1.34572 1.8178 0 .64343-1.34572Z"/>
<path transform="matrix(-.25882519,.96591,.9659294,.25882,175.20964,132.21808)" stroke-width=".3985" stroke-linecap="butt" stroke-miterlimit="10" stroke-linejoin="miter" fill="none" stroke="#000000" d="M4.21463 0 .64343 1.34572 1.8178 0 .64343-1.34572Z"/>
<path transform="matrix(1.00002,0,0,-1,143.8305,30.146)" stroke-width=".3985" stroke-linecap="butt" stroke-miterlimit="10" stroke-linejoin="miter" fill="none" stroke="#000000" d="M62.70413-116.85646C68.21774-120.03973 73.51628-120.03973 77.30437-117.85269"/>
<path transform="matrix(.86602738,-.49998,-.49999003,-.86601,221.13642,147.99869)" d="M1.99252 0-1.19551 1.59401 0 0-1.19551-1.59401"/>
<path transform="matrix(1.00002,0,0,-1,143.8305,30.146)" stroke-width=".3985" stroke-linecap="butt" stroke-miterlimit="10" stroke-linejoin="miter" fill="none" stroke="#000000" d="M83.50427-107.65347C79.83559-93.96301 90.24525-93.96301 87.62743-103.73169"/>
<path transform="matrix(-.25882519,.96591,.9659294,.25882,231.90439,132.21808)" d="M4.21463 0 .64343 1.34572 1.8178 0 .64343-1.34572Z"/>
<path transform="matrix(-.25882519,.96591,.9659294,.25882,231.90439,132.21808)" stroke-width=".3985" stroke-linecap="butt" stroke-miterlimit="10" stroke-linejoin="miter" fill="none" stroke="#000000" d="M4.21463 0 .64343 1.34572 1.8178 0 .64343-1.34572Z"/>
<path transform="matrix(1.00002,0,0,-1,143.8305,30.146)" stroke-width=".3985" stroke-linecap="butt" stroke-miterlimit="10" stroke-linejoin="miter" fill="none" stroke="#000000" d="M111.85109-107.65347C108.18239-93.96301 118.59207-93.96301 115.97423-103.73169"/>
<path transform="matrix(-.25882519,.96591,.9659294,.25882,260.25178,132.21808)" d="M4.21463 0 .64343 1.34572 1.8178 0 .64343-1.34572Z"/>
<path transform="matrix(-.25882519,.96591,.9659294,.25882,260.25178,132.21808)" stroke-width=".3985" stroke-linecap="butt" stroke-miterlimit="10" stroke-linejoin="miter" fill="none" stroke="#000000" d="M4.21463 0 .64343 1.34572 1.8178 0 .64343-1.34572Z"/>
<path transform="matrix(1.00002,0,0,-1,143.8305,30.146)" stroke-width=".3985" stroke-linecap="butt" stroke-miterlimit="10" stroke-linejoin="miter" fill="none" stroke="#000000" d="M147.74456-116.85646C153.25818-120.03973 158.55672-120.03973 162.34479-117.85269"/>
<path transform="matrix(.86602738,-.49998,-.49999003,-.86601,306.17854,147.99869)" d="M1.99252 0-1.19551 1.59401 0 0-1.19551-1.59401"/>
<path transform="matrix(1.00002,0,0,-1,143.8305,30.146)" stroke-width=".3985" stroke-linecap="butt" stroke-miterlimit="10" stroke-linejoin="miter" fill="none" stroke="#000000" d="M168.54471-107.65347C164.876-93.96301 175.28569-93.96301 172.66785-103.73169"/>
<path transform="matrix(-.25882519,.96591,.9659294,.25882,316.94654,132.21808)" d="M4.21463 0 .64343 1.34572 1.8178 0 .64343-1.34572Z"/>
<path transform="matrix(-.25882519,.96591,.9659294,.25882,316.94654,132.21808)" stroke-width=".3985" stroke-linecap="butt" stroke-miterlimit="10" stroke-linejoin="miter" fill="none" stroke="#000000" d="M4.21463 0 .64343 1.34572 1.8178 0 .64343-1.34572Z"/>
<path transform="matrix(1.00002,0,0,-1,143.8305,30.146)" stroke-width=".3985" stroke-linecap="butt" stroke-miterlimit="10" stroke-linejoin="miter" fill="none" stroke="#000000" d="M204.43817-116.85646C209.9518-120.03973 215.25034-120.03973 219.0384-117.85269"/>
<path transform="matrix(.86602738,-.49998,-.49999003,-.86601,362.8733,147.99869)" d="M1.99252 0-1.19551 1.59401 0 0-1.19551-1.59401"/>
<path transform="matrix(1.00002,0,0,-1,143.8305,30.146)" stroke-width=".3985" stroke-linecap="butt" stroke-miterlimit="10" stroke-linejoin="miter" fill="none" stroke="#000000" d="M220.76396-109.918C215.25034-106.73473 209.9518-106.73473 206.16373-108.92177"/>
<path transform="matrix(-.86602738,.49998,.49999003,.86601,349.99839,139.06777)" d="M1.99252 0-1.19551 1.59401 0 0-1.19551-1.59401"/>
<path transform="matrix(1.00002,0,0,-1,143.8305,30.146)" stroke-width=".3985" stroke-linecap="butt" stroke-miterlimit="10" stroke-linejoin="miter" fill="none" stroke="#000000" d="M253.58513-107.65347C249.91645-93.96301 260.32615-93.96301 257.70829-103.73169"/>
<path transform="matrix(-.25882519,.96591,.9659294,.25882,401.98866,132.21808)" d="M4.21463 0 .64343 1.34572 1.8178 0 .64343-1.34572Z"/>
<path transform="matrix(-.25882519,.96591,.9659294,.25882,401.98866,132.21808)" stroke-width=".3985" stroke-linecap="butt" stroke-miterlimit="10" stroke-linejoin="miter" fill="none" stroke="#000000" d="M4.21463 0 .64343 1.34572 1.8178 0 .64343-1.34572Z"/>
<path transform="matrix(1.00002,0,0,-1,143.8305,30.146)" stroke-width=".3985" stroke-linecap="butt" stroke-miterlimit="10" stroke-linejoin="miter" fill="none" stroke="#000000" d="M31.65628-136.00028C34.94745-130.2998 34.94745-124.82147 32.65253-120.84654"/>
<path transform="matrix(-.49999003,-.86601,-.86602738,.49998,176.48369,150.99256)" d="M1.99252 0-1.19551 1.59401 0 0-1.19551-1.59401"/>
<path transform="matrix(1.00002,0,0,-1,143.8305,30.146)" stroke-width=".3985" stroke-linecap="butt" stroke-miterlimit="10" stroke-linejoin="miter" fill="none" stroke="#000000" d="M62.70413-140.12377C73.8603-137.07645 80.56522-130.30617 82.99797-121.04802"/>
<path transform="matrix(.2541051,-.96713,-.9671494,-.2541,226.83014,151.19402)" d="M1.99252 0-1.19551 1.59401 0 0-1.19551-1.59401"/>
<path transform="matrix(1.00002,0,0,-1,143.8305,30.146)" stroke-width=".3985" stroke-linecap="butt" stroke-miterlimit="10" stroke-linejoin="miter" fill="none" stroke="#000000" d="M88.34991-136.00028C91.64108-130.2998 91.64108-124.82147 89.34615-120.84654"/>
<path transform="matrix(-.49999003,-.86601,-.86602738,.49998,233.17845,150.99256)" d="M1.99252 0-1.19551 1.59401 0 0-1.19551-1.59401"/>
<path transform="matrix(1.00002,0,0,-1,143.8305,30.146)" stroke-width=".3985" stroke-linecap="butt" stroke-miterlimit="10" stroke-linejoin="miter" fill="none" stroke="#000000" d="M116.69672-136.00028C119.98788-130.2998 119.98788-124.82147 117.69295-120.84654"/>
<path transform="matrix(-.49999003,-.86601,-.86602738,.49998,261.52583,150.99256)" d="M1.99252 0-1.19551 1.59401 0 0-1.19551-1.59401"/>
<path transform="matrix(1.00002,0,0,-1,143.8305,30.146)" stroke-width=".3985" stroke-linecap="butt" stroke-miterlimit="10" stroke-linejoin="miter" fill="none" stroke="#000000" d="M147.74456-140.12377C158.90074-137.07645 165.60565-130.30617 168.0384-121.04802"/>
<path transform="matrix(.2541051,-.96713,-.9671494,-.2541,311.87229,151.19402)" d="M1.99252 0-1.19551 1.59401 0 0-1.19551-1.59401"/>
<path transform="matrix(1.00002,0,0,-1,143.8305,30.146)" stroke-width=".3985" stroke-linecap="butt" stroke-miterlimit="10" stroke-linejoin="miter" fill="none" stroke="#000000" d="M173.39034-136.00028C176.6815-130.2998 176.6815-124.82147 174.38657-120.84654"/>
<path transform="matrix(-.49999003,-.86601,-.86602738,.49998,318.22059,150.99256)" d="M1.99252 0-1.19551 1.59401 0 0-1.19551-1.59401"/>
<path transform="matrix(1.00002,0,0,-1,143.8305,30.146)" stroke-width=".3985" stroke-linecap="butt" stroke-miterlimit="10" stroke-linejoin="miter" fill="none" stroke="#000000" d="M204.43817-140.12377C215.59436-137.07645 222.29927-130.30617 224.73203-121.04802"/>
<path transform="matrix(.2541051,-.96713,-.9671494,-.2541,368.56703,151.19402)" d="M1.99252 0-1.19551 1.59401 0 0-1.19551-1.59401"/>
<path transform="matrix(1.00002,0,0,-1,143.8305,30.146)" stroke-width=".3985" stroke-linecap="butt" stroke-miterlimit="10" stroke-linejoin="miter" fill="none" stroke="#000000" d="M220.76396-140.12377C209.60778-137.07645 202.90287-130.30617 200.47011-121.04802"/>
<path transform="matrix(-.2541051,-.96713,-.9671494,.2541,344.30464,151.19402)" d="M1.99252 0-1.19551 1.59401 0 0-1.19551-1.59401"/>
<path transform="matrix(1.00002,0,0,-1,143.8305,30.146)" stroke-width=".3985" stroke-linecap="butt" stroke-miterlimit="10" stroke-linejoin="miter" fill="none" stroke="#000000" d="M258.43077-136.00028C261.72196-130.2998 261.72196-124.82147 259.427-120.84654"/>
<path transform="matrix(-.49999003,-.86601,-.86602738,.49998,403.2627,150.99256)" d="M1.99252 0-1.19551 1.59401 0 0-1.19551-1.59401"/>
<path transform="matrix(1.00002,0,0,-1,143.8305,30.146)" stroke-width=".3985" stroke-linecap="butt" stroke-miterlimit="10" stroke-linejoin="miter" fill="none" stroke="#000000" d="M25.03732-175.8146C21.74615-181.51509 21.74615-186.99343 24.04109-190.96836"/>
<path transform="matrix(.49999003,.86601,.86602738,-.49998,167.87207,221.11434)" d="M1.99252 0-1.19551 1.59401 0 0-1.19551-1.59401"/>
<path transform="matrix(1.00002,0,0,-1,143.8305,30.146)" stroke-width=".3985" stroke-linecap="butt" stroke-miterlimit="10" stroke-linejoin="miter" fill="none" stroke="#000000" d="M58.22975-175.8146C61.16882-186.99979 67.87372-193.77007 77.1079-196.2924"/>
<path transform="matrix(.9646293,.26347,.26347528,-.96461,220.93994,226.4384)" d="M1.99252 0-1.19551 1.59401 0 0-1.19551-1.59401"/>
<path transform="matrix(1.00002,0,0,-1,143.8305,30.146)" stroke-width=".3985" stroke-linecap="butt" stroke-miterlimit="10" stroke-linejoin="miter" fill="none" stroke="#000000" d="M81.73094-175.8146C78.43977-181.51509 78.43977-186.99343 80.73471-190.96836"/>
<path transform="matrix(.49999003,.86601,.86602738,-.49998,224.56684,221.11434)" d="M1.99252 0-1.19551 1.59401 0 0-1.19551-1.59401"/>
<path transform="matrix(1.00002,0,0,-1,143.8305,30.146)" stroke-width=".3985" stroke-linecap="butt" stroke-miterlimit="10" stroke-linejoin="miter" fill="none" stroke="#000000" d="M110.07774-175.8146C106.78658-181.51509 106.78658-186.99343 109.08151-190.96836"/>
<path transform="matrix(.49999003,.86601,.86602738,-.49998,252.9142,221.11434)" d="M1.99252 0-1.19551 1.59401 0 0-1.19551-1.59401"/>
<path transform="matrix(1.00002,0,0,-1,143.8305,30.146)" stroke-width=".3985" stroke-linecap="butt" stroke-miterlimit="10" stroke-linejoin="miter" fill="none" stroke="#000000" d="M143.27019-175.8146C146.20925-186.99979 152.91416-193.77007 162.14832-196.2924"/>
<path transform="matrix(.9646293,.26347,.26347528,-.96461,305.98207,226.4384)" d="M1.99252 0-1.19551 1.59401 0 0-1.19551-1.59401"/>
<path transform="matrix(1.00002,0,0,-1,143.8305,30.146)" stroke-width=".3985" stroke-linecap="butt" stroke-miterlimit="10" stroke-linejoin="miter" fill="none" stroke="#000000" d="M166.77136-175.8146C163.4802-181.51509 163.4802-186.99343 165.77513-190.96836"/>
<path transform="matrix(.49999003,.86601,.86602738,-.49998,309.60896,221.11434)" d="M1.99252 0-1.19551 1.59401 0 0-1.19551-1.59401"/>
<path transform="matrix(1.00002,0,0,-1,143.8305,30.146)" stroke-width=".3985" stroke-linecap="butt" stroke-miterlimit="10" stroke-linejoin="miter" fill="none" stroke="#000000" d="M204.43817-171.69113C215.59436-174.73845 222.29927-181.50873 224.73203-190.76686"/>
<path transform="matrix(.2541051,.96713,.9671494,-.2541,368.56703,220.91286)" d="M1.99252 0-1.19551 1.59401 0 0-1.19551-1.59401"/>
<path transform="matrix(1.00002,0,0,-1,143.8305,30.146)" stroke-width=".3985" stroke-linecap="butt" stroke-miterlimit="10" stroke-linejoin="miter" fill="none" stroke="#000000" d="M225.23833-175.8146C222.29927-186.99979 215.59436-193.77007 206.36019-196.2924"/>
<path transform="matrix(-.9646293,.26347,.26347528,.96461,350.19483,226.4384)" d="M1.99252 0-1.19551 1.59401 0 0-1.19551-1.59401"/>
<path transform="matrix(1.00002,0,0,-1,143.8305,30.146)" stroke-width=".3985" stroke-linecap="butt" stroke-miterlimit="10" stroke-linejoin="miter" fill="none" stroke="#000000" d="M251.8118-175.8146C248.52063-181.51509 248.52063-186.99343 250.81557-190.96836"/>
<path transform="matrix(.49999003,.86601,.86602738,-.49998,394.6511,221.11434)" d="M1.99252 0-1.19551 1.59401 0 0-1.19551-1.59401"/>
<path transform="matrix(1.00002,0,0,-1,143.8305,30.146)" stroke-width=".3985" stroke-linecap="butt" stroke-miterlimit="10" stroke-linejoin="miter" fill="none" stroke="#000000" d="M31.65628-192.6939C34.94745-186.99343 34.94745-181.51509 32.65253-177.54016"/>
<path transform="matrix(-.49999003,-.86601,-.86602738,.49998,176.48369,207.68618)" d="M1.99252 0-1.19551 1.59401 0 0-1.19551-1.59401"/>
<path transform="matrix(1.00002,0,0,-1,143.8305,30.146)" stroke-width=".3985" stroke-linecap="butt" stroke-miterlimit="10" stroke-linejoin="miter" fill="none" stroke="#000000" d="M58.22975-192.6939C61.16882-181.50873 67.87372-174.73845 77.1079-172.21611"/>
<path transform="matrix(.9646293,-.26347,-.26347528,-.96461,220.93994,202.3621)" d="M1.99252 0-1.19551 1.59401 0 0-1.19551-1.59401"/>
<path transform="matrix(1.00002,0,0,-1,143.8305,30.146)" stroke-width=".3985" stroke-linecap="butt" stroke-miterlimit="10" stroke-linejoin="miter" fill="none" stroke="#000000" d="M88.34991-192.6939C91.64108-186.99343 91.64108-181.51509 89.34615-177.54016"/>
<path transform="matrix(-.49999003,-.86601,-.86602738,.49998,233.17845,207.68618)" d="M1.99252 0-1.19551 1.59401 0 0-1.19551-1.59401"/>
<path transform="matrix(1.00002,0,0,-1,143.8305,30.146)" stroke-width=".3985" stroke-linecap="butt" stroke-miterlimit="10" stroke-linejoin="miter" fill="none" stroke="#000000" d="M116.69672-192.6939C119.98788-186.99343 119.98788-181.51509 117.69295-177.54016"/>
<path transform="matrix(-.49999003,-.86601,-.86602738,.49998,261.52583,207.68618)" d="M1.99252 0-1.19551 1.59401 0 0-1.19551-1.59401"/>
<path transform="matrix(1.00002,0,0,-1,143.8305,30.146)" stroke-width=".3985" stroke-linecap="butt" stroke-miterlimit="10" stroke-linejoin="miter" fill="none" stroke="#000000" d="M143.27019-192.6939C146.20925-181.50873 152.91416-174.73845 162.14832-172.21611"/>
<path transform="matrix(.9646293,-.26347,-.26347528,-.96461,305.98207,202.3621)" d="M1.99252 0-1.19551 1.59401 0 0-1.19551-1.59401"/>
<path transform="matrix(1.00002,0,0,-1,143.8305,30.146)" stroke-width=".3985" stroke-linecap="butt" stroke-miterlimit="10" stroke-linejoin="miter" fill="none" stroke="#000000" d="M173.39034-192.6939C176.6815-186.99343 176.6815-181.51509 174.38657-177.54016"/>
<path transform="matrix(-.49999003,-.86601,-.86602738,.49998,318.22059,207.68618)" d="M1.99252 0-1.19551 1.59401 0 0-1.19551-1.59401"/>
<path transform="matrix(1.00002,0,0,-1,143.8305,30.146)" stroke-width=".3985" stroke-linecap="butt" stroke-miterlimit="10" stroke-linejoin="miter" fill="none" stroke="#000000" d="M199.9638-192.6939C202.90287-181.50873 209.60778-174.73845 218.84195-172.21611"/>
<path transform="matrix(.9646293,-.26347,-.26347528,-.96461,362.67683,202.3621)" d="M1.99252 0-1.19551 1.59401 0 0-1.19551-1.59401"/>
<path transform="matrix(1.00002,0,0,-1,143.8305,30.146)" stroke-width=".3985" stroke-linecap="butt" stroke-miterlimit="10" stroke-linejoin="miter" fill="none" stroke="#000000" d="M220.76396-196.81739C209.60778-193.77007 202.90287-186.99979 200.47011-177.74164"/>
<path transform="matrix(-.2541051,-.96713,-.9671494,.2541,344.30464,207.88764)" d="M1.99252 0-1.19551 1.59401 0 0-1.19551-1.59401"/>
<path transform="matrix(1.00002,0,0,-1,143.8305,30.146)" stroke-width=".3985" stroke-linecap="butt" stroke-miterlimit="10" stroke-linejoin="miter" fill="none" stroke="#000000" d="M258.43077-192.6939C261.72196-186.99343 261.72196-181.51509 259.427-177.54016"/>
<path transform="matrix(-.49999003,-.86601,-.86602738,.49998,403.2627,207.68618)" d="M1.99252 0-1.19551 1.59401 0 0-1.19551-1.59401"/>
<path transform="matrix(1.00002,0,0,-1,143.8305,30.146)" stroke-width=".3985" stroke-linecap="butt" stroke-miterlimit="10" stroke-linejoin="miter" fill="none" stroke="#000000" d="M26.81065-221.04071C23.14197-207.35025 33.55164-207.35025 30.93379-217.11893"/>
<path transform="matrix(-.25882519,.96591,.9659294,.25882,175.20964,245.60532)" d="M4.21463 0 .64343 1.34572 1.8178 0 .64343-1.34572Z"/>
<path transform="matrix(-.25882519,.96591,.9659294,.25882,175.20964,245.60532)" stroke-width=".3985" stroke-linecap="butt" stroke-miterlimit="10" stroke-linejoin="miter" fill="none" stroke="#000000" d="M4.21463 0 .64343 1.34572 1.8178 0 .64343-1.34572Z"/>
<path transform="matrix(1.00002,0,0,-1,143.8305,30.146)" stroke-width=".3985" stroke-linecap="butt" stroke-miterlimit="10" stroke-linejoin="miter" fill="none" stroke="#000000" d="M62.70413-230.2437C68.21774-233.42697 73.51628-233.42697 77.30437-231.23993"/>
<path transform="matrix(.86602738,-.49998,-.49999003,-.86601,221.13642,261.38594)" d="M1.99252 0-1.19551 1.59401 0 0-1.19551-1.59401"/>
<path transform="matrix(1.00002,0,0,-1,143.8305,30.146)" stroke-width=".3985" stroke-linecap="butt" stroke-miterlimit="10" stroke-linejoin="miter" fill="none" stroke="#000000" d="M83.50427-221.04071C79.83559-207.35025 90.24525-207.35025 87.62743-217.11893"/>
<path transform="matrix(-.25882519,.96591,.9659294,.25882,231.90439,245.60532)" d="M4.21463 0 .64343 1.34572 1.8178 0 .64343-1.34572Z"/>
<path transform="matrix(-.25882519,.96591,.9659294,.25882,231.90439,245.60532)" stroke-width=".3985" stroke-linecap="butt" stroke-miterlimit="10" stroke-linejoin="miter" fill="none" stroke="#000000" d="M4.21463 0 .64343 1.34572 1.8178 0 .64343-1.34572Z"/>
<path transform="matrix(1.00002,0,0,-1,143.8305,30.146)" stroke-width=".3985" stroke-linecap="butt" stroke-miterlimit="10" stroke-linejoin="miter" fill="none" stroke="#000000" d="M111.85109-221.04071C108.18239-207.35025 118.59207-207.35025 115.97423-217.11893"/>
<path transform="matrix(-.25882519,.96591,.9659294,.25882,260.25178,245.60532)" d="M4.21463 0 .64343 1.34572 1.8178 0 .64343-1.34572Z"/>
<path transform="matrix(-.25882519,.96591,.9659294,.25882,260.25178,245.60532)" stroke-width=".3985" stroke-linecap="butt" stroke-miterlimit="10" stroke-linejoin="miter" fill="none" stroke="#000000" d="M4.21463 0 .64343 1.34572 1.8178 0 .64343-1.34572Z"/>
<path transform="matrix(1.00002,0,0,-1,143.8305,30.146)" stroke-width=".3985" stroke-linecap="butt" stroke-miterlimit="10" stroke-linejoin="miter" fill="none" stroke="#000000" d="M147.74456-230.2437C153.25818-233.42697 158.55672-233.42697 162.34479-231.23993"/>
<path transform="matrix(.86602738,-.49998,-.49999003,-.86601,306.17854,261.38594)" d="M1.99252 0-1.19551 1.59401 0 0-1.19551-1.59401"/>
<path transform="matrix(1.00002,0,0,-1,143.8305,30.146)" stroke-width=".3985" stroke-linecap="butt" stroke-miterlimit="10" stroke-linejoin="miter" fill="none" stroke="#000000" d="M168.54471-221.04071C164.876-207.35025 175.28569-207.35025 172.66785-217.11893"/>
<path transform="matrix(-.25882519,.96591,.9659294,.25882,316.94654,245.60532)" d="M4.21463 0 .64343 1.34572 1.8178 0 .64343-1.34572Z"/>
<path transform="matrix(-.25882519,.96591,.9659294,.25882,316.94654,245.60532)" stroke-width=".3985" stroke-linecap="butt" stroke-miterlimit="10" stroke-linejoin="miter" fill="none" stroke="#000000" d="M4.21463 0 .64343 1.34572 1.8178 0 .64343-1.34572Z"/>
<path transform="matrix(1.00002,0,0,-1,143.8305,30.146)" stroke-width=".3985" stroke-linecap="butt" stroke-miterlimit="10" stroke-linejoin="miter" fill="none" stroke="#000000" d="M204.43817-230.2437C209.9518-233.42697 215.25034-233.42697 219.0384-231.23993"/>
<path transform="matrix(.86602738,-.49998,-.49999003,-.86601,362.8733,261.38594)" d="M1.99252 0-1.19551 1.59401 0 0-1.19551-1.59401"/>
<path transform="matrix(1.00002,0,0,-1,143.8305,30.146)" stroke-width=".3985" stroke-linecap="butt" stroke-miterlimit="10" stroke-linejoin="miter" fill="none" stroke="#000000" d="M220.76396-223.30524C215.25034-220.12197 209.9518-220.12197 206.16373-222.309"/>
<path transform="matrix(-.86602738,.49998,.49999003,.86601,349.99839,252.455)" d="M1.99252 0-1.19551 1.59401 0 0-1.19551-1.59401"/>
<path transform="matrix(1.00002,0,0,-1,143.8305,30.146)" stroke-width=".3985" stroke-linecap="butt" stroke-miterlimit="10" stroke-linejoin="miter" fill="none" stroke="#000000" d="M253.58513-221.04071C249.91645-207.35025 260.32615-207.35025 257.70829-217.11893"/>
<path transform="matrix(-.25882519,.96591,.9659294,.25882,401.98866,245.60532)" d="M4.21463 0 .64343 1.34572 1.8178 0 .64343-1.34572Z"/>
<path transform="matrix(-.25882519,.96591,.9659294,.25882,401.98866,245.60532)" stroke-width=".3985" stroke-linecap="butt" stroke-miterlimit="10" stroke-linejoin="miter" fill="none" stroke="#000000" d="M4.21463 0 .64343 1.34572 1.8178 0 .64343-1.34572Z"/>
<path transform="matrix(1.00002,0,0,-1,143.8305,30.146)" stroke-width=".3985" stroke-linecap="butt" stroke-miterlimit="10" stroke-linejoin="miter" fill="none" stroke="#000000" d="M0-141.73404H-83.0479"/>
<path transform="matrix(-1.00002,-0,0,1,60.780946,171.88004)" d="M1.99252 0-1.19551 1.59401 0 0-1.19551-1.59401"/>
<path transform="matrix(1.00002,0,0,-1,143.8305,30.146)" stroke-width=".3985" stroke-linecap="butt" stroke-miterlimit="10" stroke-linejoin="miter" fill="none" stroke="#000000" d="M141.73404-255.12128V-281.47557"/>
<path transform="matrix(0,1,1.00002,0,285.56739,311.62156)" d="M1.99252 0-1.19551 1.59401 0 0-1.19551-1.59401"/>
</svg>
