<svg xmlns="http://www.w3.org/2000/svg" xmlns:xlink="http://www.w3.org/1999/xlink" xmlns:inkscape="http://www.inkscape.org/namespaces/inkscape" version="1.1" width="154" height="117" viewBox="0 0 154 117">
<defs>
<path id="font_1_1" d="M.1789856 .114868167C.13899231 .047973634 .099990848 .033981325 .055999757 .0309906 .04399109 .02999878 .034988405 .02999878 .034988405 .010986328 .034988405 .004989624 .039993287 0 .04798889 0 .07499695 0 .10598755 .0029907227 .13398743 .0029907227 .16699219 .0029907227 .20199585 0 .23399353 0 .23999024 0 .25299073 0 .25299073 .018997193 .25299073 .02999878 .24398804 .0309906 .23699951 .0309906 .21398926 .032989503 .18998719 .04096985 .18998719 .06593323 .18998719 .077926639 .19599915 .088897708 .20399475 .102890018L.27999879 .23068238H.5309906C.5329895 .2097168 .5469971 .07392883 .5469971 .063949588 .5469971 .033981325 .49499513 .0309906 .47499085 .0309906 .46099855 .0309906 .45098878 .0309906 .45098878 .010986328 .45098878 0 .46299745 0 .46499635 0 .5059967 0 .548996 .0029907227 .58999636 .0029907227 .61499026 .0029907227 .6779938 0 .7029877 0 .70899966 0 .72099307 0 .72099307 .019989014 .72099307 .0309906 .71099856 .0309906 .69799807 .0309906 .6359863 .0309906 .6359863 .037979127 .6329956 .06694031L.57199099 .691803C.56999209 .71180728 .56999209 .7158203 .5529938 .7158203 .5369873 .7158203 .5329895 .7088165 .5269928 .69880679L.1789856 .114868167M.29899598 .26168824 .49598695 .5917816 .5279999 .26168824H.29899598Z"/>
<path id="font_2_1" d="M.68699648 .32714845C.70199587 .32714845 .72099307 .32714845 .72099307 .34713746 .72099307 .36714173 .70199587 .36714173 .6879883 .36714173H.08898926C.07499695 .36714173 .055999757 .36714173 .055999757 .34713746 .055999757 .32714845 .07499695 .32714845 .08999634 .32714845H.68699648M.6879883 .13284302C.70199587 .13284302 .72099307 .13284302 .72099307 .15284729 .72099307 .17285156 .70199587 .17285156 .68699648 .17285156H.08999634C.07499695 .17285156 .055999757 .17285156 .055999757 .15284729 .055999757 .13284302 .07499695 .13284302 .08898926 .13284302H.6879883Z"/>
<path id="font_1_2" d="M.1599884 .07795715C.1499939 .038986207 .147995 .0309906 .068984989 .0309906 .051986696 .0309906 .041992189 .0309906 .041992189 .010986328 .041992189 0 .050994874 0 .068984989 0H.42599488C.58399966 0 .70199587 .11791992 .70199587 .21585083 .70199587 .28778077 .6439972 .3457489 .5469971 .35673524 .651001 .37573243 .7559967 .44970704 .7559967 .5446625 .7559967 .6186218 .6899872 .6826172 .56999209 .6826172H.23399353C.21499634 .6826172 .20498657 .6826172 .20498657 .6626129 .20498657 .6516113 .21398926 .6516113 .23298645 .6516113 .23498535 .6516113 .2539978 .6516113 .2709961 .6496124 .2889862 .6476135 .2979889 .64660647 .2979889 .6336212 .2979889 .6296234 .29699708 .62661746 .2939911 .614624L.1599884 .07795715M.31098939 .36573792 .37298585 .6136322C.38198854 .64860537 .38398744 .6516113 .4269867 .6516113H.55599978C.6439972 .6516113 .6649933 .5926361 .6649933 .5486603 .6649933 .46069337 .57899478 .36573792 .45700074 .36573792H.31098939M.2659912 .0309906C.2519989 .0309906 .25 .0309906 .24398804 .03199768 .23399353 .032989503 .23098755 .033996583 .23098755 .04197693 .23098755 .04498291 .23098755 .04698181 .23599243 .064971927L.30499269 .34375H.49398805C.58999636 .34375 .60899356 .2698059 .60899356 .22683716 .60899356 .12791443 .519989 .0309906 .4019928 .0309906H.2659912Z"/>
<path id="font_3_1" d="M.40699769 .39465333H.5049896C.5249939 .39465333 .5379944 .39465333 .5379944 .4166565 .5379944 .43066407 .5249939 .43066407 .5069885 .43066407H.4139862C.43699647 .5580139 .44499208 .6040497 .45298768 .63305667 .45799256 .6550598 .47999574 .6760864 .5039978 .6760864 .5049896 .6760864 .5319977 .6760864 .5509949 .6640625 .5099945 .651062 .5069885 .61505129 .5069885 .60905459 .5069885 .5870514 .5239868 .572052 .5469971 .572052 .57398989 .572052 .60398867 .59506228 .60398867 .63305667 .60398867 .6790924 .5549927 .70410159 .5039978 .70410159 .45999146 .70410159 .41099549 .6790924 .38398744 .62905886 .3639984 .5920563 .35598756 .5469818 .33499146 .43066407H.2559967C.23599243 .43066407 .22299195 .43066407 .22299195 .4086609 .22299195 .39465333 .23599243 .39465333 .2539978 .39465333H.32798768C.32699586 .38865663 .2639923 .028869629 .23999024-.078063968 .23498535-.10006714 .21798706-.17610169 .16999817-.17610169 .16899109-.17610169 .14498902-.17610169 .12599182-.1640625 .16699219-.15107727 .16999817-.11506653 .16999817-.109069827 .16999817-.08706665 .15299988-.07206726 .12998963-.07206726 .102996829-.07206726 .07299805-.095077518 .07299805-.1330719 .07299805-.17811585 .11999512-.20410156 .16999817-.20410156 .23399353-.20410156 .27799989-.13807678 .2899933-.11607361 .32598878-.049087526 .34899903 .07385254 .35099793 .08584595L.40699769 .39465333Z"/>
</defs>
<path transform="matrix(1.00006,0,0,-1,38.852426,115.185)" stroke-width=".3985" stroke-linecap="butt" stroke-miterlimit="10" stroke-linejoin="miter" fill="none" stroke="#000000" d="M0 56.69362V113.38724H113.38724V56.69362ZM113.38724 113.38724"/>
<use data-text="A" xlink:href="#font_1_1" transform="matrix(9.963197,0,0,-9.9626,1.5091858,33.548997)"/>
<use data-text="=" xlink:href="#font_2_1" transform="matrix(9.963197,0,0,-9.9626,11.74881,33.548997)"/>
<path transform="matrix(1.00006,0,0,-1,38.852426,115.185)" d="M29.84116 102.04868C29.84116 102.87398 29.17212 103.54303 28.3468 103.54303 27.52148 103.54303 26.85245 102.87398 26.85245 102.04868 26.85245 101.22336 27.52148 100.55432 28.3468 100.55432 29.17212 100.55432 29.84116 101.22336 29.84116 102.04868ZM28.3468 102.04868"/>
<path transform="matrix(1.00006,0,0,-1,38.852426,115.185)" stroke-width=".3985" stroke-linecap="butt" stroke-miterlimit="10" stroke-linejoin="miter" fill="none" stroke="#000000" d="M29.84116 102.04868C29.84116 102.87398 29.17212 103.54303 28.3468 103.54303 27.52148 103.54303 26.85245 102.87398 26.85245 102.04868 26.85245 101.22336 27.52148 100.55432 28.3468 100.55432 29.17212 100.55432 29.84116 101.22336 29.84116 102.04868ZM28.3468 102.04868"/>
<path transform="matrix(1.00006,0,0,-1,38.852426,115.185)" d="M29.84116 90.7097C29.84116 91.535 29.17212 92.20406 28.3468 92.20406 27.52148 92.20406 26.85245 91.535 26.85245 90.7097 26.85245 89.88438 27.52148 89.21535 28.3468 89.21535 29.17212 89.21535 29.84116 89.88438 29.84116 90.7097ZM28.3468 90.7097"/>
<path transform="matrix(1.00006,0,0,-1,38.852426,115.185)" stroke-width=".3985" stroke-linecap="butt" stroke-miterlimit="10" stroke-linejoin="miter" fill="none" stroke="#000000" d="M29.84116 90.7097C29.84116 91.535 29.17212 92.20406 28.3468 92.20406 27.52148 92.20406 26.85245 91.535 26.85245 90.7097 26.85245 89.88438 27.52148 89.21535 28.3468 89.21535 29.17212 89.21535 29.84116 89.88438 29.84116 90.7097ZM28.3468 90.7097"/>
<path transform="matrix(1.00006,0,0,-1,38.852426,115.185)" d="M29.84116 79.37114C29.84116 80.19644 29.17212 80.8655 28.3468 80.8655 27.52148 80.8655 26.85245 80.19644 26.85245 79.37114 26.85245 78.54582 27.52148 77.87679 28.3468 77.87679 29.17212 77.87679 29.84116 78.54582 29.84116 79.37114ZM28.3468 79.37114"/>
<path transform="matrix(1.00006,0,0,-1,38.852426,115.185)" stroke-width=".3985" stroke-linecap="butt" stroke-miterlimit="10" stroke-linejoin="miter" fill="none" stroke="#000000" d="M29.84116 79.37114C29.84116 80.19644 29.17212 80.8655 28.3468 80.8655 27.52148 80.8655 26.85245 80.19644 26.85245 79.37114 26.85245 78.54582 27.52148 77.87679 28.3468 77.87679 29.17212 77.87679 29.84116 78.54582 29.84116 79.37114ZM28.3468 79.37114"/>
<path transform="matrix(1.00006,0,0,-1,38.852426,115.185)" d="M29.84116 68.03217C29.84116 68.85747 29.17212 69.52652 28.3468 69.52652 27.52148 69.52652 26.85245 68.85747 26.85245 68.03217 26.85245 67.20685 27.52148 66.53781 28.3468 66.53781 29.17212 66.53781 29.84116 67.20685 29.84116 68.03217ZM28.3468 68.03217"/>
<path transform="matrix(1.00006,0,0,-1,38.852426,115.185)" stroke-width=".3985" stroke-linecap="butt" stroke-miterlimit="10" stroke-linejoin="miter" fill="none" stroke="#000000" d="M29.84116 68.03217C29.84116 68.85747 29.17212 69.52652 28.3468 69.52652 27.52148 69.52652 26.85245 68.85747 26.85245 68.03217 26.85245 67.20685 27.52148 66.53781 28.3468 66.53781 29.17212 66.53781 29.84116 67.20685 29.84116 68.03217ZM28.3468 68.03217"/>
<path transform="matrix(1.00006,0,0,-1,38.852426,115.185)" d="M86.53477 79.37114C86.53477 80.19644 85.86574 80.8655 85.04042 80.8655 84.2151 80.8655 83.54607 80.19644 83.54607 79.37114 83.54607 78.54582 84.2151 77.87679 85.04042 77.87679 85.86574 77.87679 86.53477 78.54582 86.53477 79.37114ZM85.04042 79.37114"/>
<path transform="matrix(1.00006,0,0,-1,38.852426,115.185)" stroke-width=".3985" stroke-linecap="butt" stroke-miterlimit="10" stroke-linejoin="miter" fill="none" stroke="#000000" d="M86.53477 79.37114C86.53477 80.19644 85.86574 80.8655 85.04042 80.8655 84.2151 80.8655 83.54607 80.19644 83.54607 79.37114 83.54607 78.54582 84.2151 77.87679 85.04042 77.87679 85.86574 77.87679 86.53477 78.54582 86.53477 79.37114ZM85.04042 79.37114"/>
<path transform="matrix(1.00006,0,0,-1,38.852426,115.185)" d="M86.53477 68.03217C86.53477 68.85747 85.86574 69.52652 85.04042 69.52652 84.2151 69.52652 83.54607 68.85747 83.54607 68.03217 83.54607 67.20685 84.2151 66.53781 85.04042 66.53781 85.86574 66.53781 86.53477 67.20685 86.53477 68.03217ZM85.04042 68.03217"/>
<path transform="matrix(1.00006,0,0,-1,38.852426,115.185)" stroke-width=".3985" stroke-linecap="butt" stroke-miterlimit="10" stroke-linejoin="miter" fill="none" stroke="#000000" d="M86.53477 68.03217C86.53477 68.85747 85.86574 69.52652 85.04042 69.52652 84.2151 69.52652 83.54607 68.85747 83.54607 68.03217 83.54607 67.20685 84.2151 66.53781 85.04042 66.53781 85.86574 66.53781 86.53477 67.20685 86.53477 68.03217ZM85.04042 68.03217"/>
<path transform="matrix(1.00006,0,0,-1,38.852426,115.185)" stroke-width=".3985" stroke-linecap="butt" stroke-miterlimit="10" stroke-linejoin="miter" fill="none" stroke="#000000" d="M0 0V28.3468H113.38724V0ZM113.38724 28.3468"/>
<use data-text="B" xlink:href="#font_1_2" transform="matrix(9.963197,0,0,-9.9626,1.2171631,104.416)"/>
<use data-text="=" xlink:href="#font_2_1" transform="matrix(9.963197,0,0,-9.9626,12.041809,104.416)"/>
<path transform="matrix(1.00006,0,0,-1,38.852426,115.185)" d="M29.84116 14.17339C29.84116 14.9987 29.17212 15.66774 28.3468 15.66774 27.52148 15.66774 26.85245 14.9987 26.85245 14.17339 26.85245 13.34807 27.52148 12.67903 28.3468 12.67903 29.17212 12.67903 29.84116 13.34807 29.84116 14.17339ZM28.3468 14.17339"/>
<path transform="matrix(1.00006,0,0,-1,38.852426,115.185)" stroke-width=".3985" stroke-linecap="butt" stroke-miterlimit="10" stroke-linejoin="miter" fill="none" stroke="#000000" d="M29.84116 14.17339C29.84116 14.9987 29.17212 15.66774 28.3468 15.66774 27.52148 15.66774 26.85245 14.9987 26.85245 14.17339 26.85245 13.34807 27.52148 12.67903 28.3468 12.67903 29.17212 12.67903 29.84116 13.34807 29.84116 14.17339ZM28.3468 14.17339"/>
<path transform="matrix(1.00006,0,0,-1,38.852426,115.185)" d="M86.53477 14.17339C86.53477 14.9987 85.86574 15.66774 85.04042 15.66774 84.2151 15.66774 83.54607 14.9987 83.54607 14.17339 83.54607 13.34807 84.2151 12.67903 85.04042 12.67903 85.86574 12.67903 86.53477 13.34807 86.53477 14.17339ZM85.04042 14.17339"/>
<path transform="matrix(1.00006,0,0,-1,38.852426,115.185)" stroke-width=".3985" stroke-linecap="butt" stroke-miterlimit="10" stroke-linejoin="miter" fill="none" stroke="#000000" d="M86.53477 14.17339C86.53477 14.9987 85.86574 15.66774 85.04042 15.66774 84.2151 15.66774 83.54607 14.9987 83.54607 14.17339 83.54607 13.34807 84.2151 12.67903 85.04042 12.67903 85.86574 12.67903 86.53477 13.34807 86.53477 14.17339ZM85.04042 14.17339"/>
<path transform="matrix(1.00006,0,0,-1,38.852426,115.185)" stroke-width=".3985" stroke-linecap="butt" stroke-miterlimit="10" stroke-linejoin="miter" fill="none" stroke="#000000" d="M-28.3468 78.11667V24.16106"/>
<path transform="matrix(0,1,1.00006,0,10.503925,89.305759)" d="M4.21463 0 .64343 1.34572 1.8178 0 .64343-1.34572Z"/>
<path transform="matrix(0,1,1.00006,0,10.503925,89.305759)" stroke-width=".3985" stroke-linecap="butt" stroke-miterlimit="10" stroke-linejoin="miter" fill="none" stroke="#000000" d="M4.21463 0 .64343 1.34572 1.8178 0 .64343-1.34572Z"/>
<use data-text="f" xlink:href="#font_3_1" transform="matrix(6.9742186,0,0,-6.9738,14.023941,67.322)"/>
</svg>
