<svg xmlns="http://www.w3.org/2000/svg" xmlns:xlink="http://www.w3.org/1999/xlink" xmlns:inkscape="http://www.inkscape.org/namespaces/inkscape" version="1.1" width="43" height="43" viewBox="0 0 43 43">
<defs>
<path id="font_1_1" d="M.23899842 .1570282C.23999024 .1590271 .24699402 .16601563 .25 .16601563 .2539978 .16601563 .2919922 .122039798 .29899598 .11505127 .32798768 .08306885 .35699464 .051086427 .3869934 .021102906 .3909912 .016098023 .3939972 .016098023 .394989 .016098023 .40299989 .016098023 .4059906 .023101807 .4059906 .02709961 .4059906 .032104494 .375 .08607483 .34599305 .13703919L.30699159 .20898438 .48098756 .28894044C.49499513 .29592896 .49598695 .29992677 .49598695 .30392457 .49598695 .30891419 .49198915 .31391908 .4850006 .31391908 .48399354 .31391908 .43499757 .30491639 .2849884 .27494813L.2619934 .46281434C.2599945 .4808197 .25898744 .4848175 .25 .4848175 .24198914 .4848175 .23899842 .47981263 .23699951 .46281434L.21499634 .27494813 .02999878 .31192018C.024993897 .312912 .017990113 .31391908 .01499939 .31391908 .0079956059 .31391908 .0039978029 .30891419 .0039978029 .30392457 .0039978029 .29592896 .008987427 .29393006 .019989014 .28894044L.19400025 .20898438 .100997928 .04309082C.09498596 .031097413 .09399414 .03010559 .09399414 .02709961 .09399414 .023101807 .09700012 .016098023 .10499573 .016098023 .10699463 .016098023 .10998535 .016098023 .11999512 .02709961L.23899842 .1570282Z"/>
</defs>
<use data-text="&#x22c6;" xlink:href="#font_1_1" transform="matrix(9.9626,0,0,-9.962799,4.604004,9.942938)"/>
<path transform="matrix(1,0,0,-1.00002,-90.878,-13.030521)" stroke-width=".3985" stroke-linecap="butt" stroke-miterlimit="10" stroke-linejoin="miter" fill="none" stroke="#000000" d="M92.095-15.149H103.851"/>
<path transform="matrix(1,0,0,-1.00002,-90.878,-13.030521)" stroke-width=".3985" stroke-linecap="butt" stroke-miterlimit="10" stroke-linejoin="miter" fill="none" stroke="#000000" d="M92.294-26.161V-15.149"/>
<path transform="matrix(1,0,0,-1.00002,-90.878,-13.030521)" stroke-width=".3985" stroke-linecap="butt" stroke-miterlimit="10" stroke-linejoin="miter" fill="none" stroke="#000000" d="M103.652-26.161V-15.149"/>
<path transform="matrix(1,0,0,-1.00002,-90.878,-13.030521)" stroke-width=".3985" stroke-linecap="butt" stroke-miterlimit="10" stroke-linejoin="miter" fill="none" stroke="#000000" d="M92.095-26.161H103.851"/>
<use data-text="&#x22c6;" xlink:href="#font_1_1" transform="matrix(9.9626,0,0,-9.962799,4.604004,38.290506)"/>
<path transform="matrix(1,0,0,-1.00002,-90.878,15.317045)" stroke-width=".3985" stroke-linecap="butt" stroke-miterlimit="10" stroke-linejoin="miter" fill="none" stroke="#000000" d="M92.095-15.149H103.851"/>
<path transform="matrix(1,0,0,-1.00002,-90.878,15.317045)" stroke-width=".3985" stroke-linecap="butt" stroke-miterlimit="10" stroke-linejoin="miter" fill="none" stroke="#000000" d="M92.294-26.161V-15.149"/>
<path transform="matrix(1,0,0,-1.00002,-90.878,15.317045)" stroke-width=".3985" stroke-linecap="butt" stroke-miterlimit="10" stroke-linejoin="miter" fill="none" stroke="#000000" d="M103.652-26.161V-15.149"/>
<path transform="matrix(1,0,0,-1.00002,-90.878,15.317045)" stroke-width=".3985" stroke-linecap="butt" stroke-miterlimit="10" stroke-linejoin="miter" fill="none" stroke="#000000" d="M92.095-26.161H103.851"/>
<use data-text="&#x22c6;" xlink:href="#font_1_1" transform="matrix(9.9626,0,0,-9.962799,32.951005,38.290506)"/>
<path transform="matrix(1,0,0,-1.00002,-62.531,15.317045)" stroke-width=".3985" stroke-linecap="butt" stroke-miterlimit="10" stroke-linejoin="miter" fill="none" stroke="#000000" d="M92.095-15.149H103.851"/>
<path transform="matrix(1,0,0,-1.00002,-62.531,15.317045)" stroke-width=".3985" stroke-linecap="butt" stroke-miterlimit="10" stroke-linejoin="miter" fill="none" stroke="#000000" d="M92.294-26.161V-15.149"/>
<path transform="matrix(1,0,0,-1.00002,-62.531,15.317045)" stroke-width=".3985" stroke-linecap="butt" stroke-miterlimit="10" stroke-linejoin="miter" fill="none" stroke="#000000" d="M103.652-26.161V-15.149"/>
<path transform="matrix(1,0,0,-1.00002,-62.531,15.317045)" stroke-width=".3985" stroke-linecap="butt" stroke-miterlimit="10" stroke-linejoin="miter" fill="none" stroke="#000000" d="M92.095-26.161H103.851"/>
<path transform="matrix(1,0,0,-1.00002,7.095001,35.972459)" stroke-width=".3985" stroke-linecap="butt" stroke-miterlimit="10" stroke-linejoin="miter" fill="none" stroke="#000000" d="M0 19.12192V11.21739"/>
<path transform="matrix(0,1.00002,1,0,7.095001,24.754843)" d="M1.99252 0-1.19551 1.59401 0 0-1.19551-1.59401"/>
<path transform="matrix(1,0,0,-1.00002,7.095001,35.972459)" stroke-width=".3985" stroke-linecap="butt" stroke-miterlimit="10" stroke-linejoin="miter" fill="none" stroke="#000000" d="M18.94896 0H11.39037"/>
<path transform="matrix(-1,-0,0,1.00002,18.48537,35.972459)" d="M1.99252 0-1.19551 1.59401 0 0-1.19551-1.59401"/>
</svg>
