<svg xmlns="http://www.w3.org/2000/svg" xmlns:xlink="http://www.w3.org/1999/xlink" xmlns:inkscape="http://www.inkscape.org/namespaces/inkscape" version="1.1" width="99" height="72" viewBox="0 0 99 72">
<defs>
<path id="font_1_2" d="M.2889862 .30177308H.46598817C.6049957 .30177308 .72099307 .37374879 .72099307 .49064637 .72099307 .6005707 .621994 .6855469 .45599366 .6855469H.038986207V.63853457H.14698792V.04699707H.038986207V0C.07699585 .0029907227 .1749878 .0029907227 .21798706 .0029907227 .26098634 .0029907227 .35899354 .0029907227 .39698792 0V.04699707H.2889862V.30177308M.4169922 .34277345H.2829895V.63853457H.41799928C.56799319 .63853457 .56799319 .56259158 .56799319 .49064637 .56799319 .41970826 .56799319 .34277345 .4169922 .34277345Z"/>
<path id="font_1_1" d="M.6529999 .05305481C.6839905 .026000977 .74398806 0 .7509918 0 .7649994 0 .7649994 .0129852299 .7649994 .027999878V.22935486H.8450012V.2763672C.80999758 .2733612 .72299197 .2733612 .6839905 .2733612 .6259918 .2733612 .5329895 .2733612 .47898866 .2763672V.22935486H.6230011V.12817383C.6230011 .109298709 .6230011 .08027649 .58399966 .057266237 .55799868 .042251588 .526001 .036254884 .49398805 .036254884 .4079895 .036254884 .32199098 .06526184 .272995 .12730408 .22999573 .18232727 .21699524 .25335694 .21699524 .3443451 .21699524 .4563141 .23699951 .5142975 .27398683 .5632782 .31399537 .613266 .3909912 .6502533 .4869995 .6502533 .59399417 .6502533 .68899539 .5742798 .71099856 .4473114 .71398928 .4283142 .71499636 .4263153 .73799136 .4263153 .7639923 .4263153 .7649994 .4283142 .7649994 .4543152V.6692505C.7649994 .68826296 .7649994 .6972656 .746994 .6972656 .73799136 .6972656 .73599246 .69525149 .7279968 .68826296L.6619873 .62927249C.58898928 .68725588 .5169983 .6972656 .46499635 .6972656 .21899414 .6972656 .06399536 .55029299 .06399536 .343338 .06399536 .14431763 .20899964-.0107421879 .46699525-.0107421879 .5-.011001587 .6029968-.009002686 .6529999 .05305481Z"/>
<path id="font_2_2" d="M.5319977 .36935426C.5359955 .3843689 .5359955 .38937379 .5359955 .39038087 .5359955 .4123993 .5179901 .4223938 .5019989 .4223938 .47898866 .4223938 .45999146 .4033966 .45599366 .3843689 .43899537 .4113922 .40499879 .44140626 .35299684 .44140626 .22799683 .44140626 .09700012 .3072815 .09700012 .1641388 .09700012 .061019899 .16699219 0 .24899292 0 .29499818 0 .33898927 .022994996 .37399293 .054016115L.35198976-.036026C.34098817-.07803345 .33399964-.105041507 .29599-.13903809 .2519989-.17610169 .20899964-.17610169 .18399048-.17610169 .13798523-.17610169 .125-.17308045 .10699463-.16903687 .13198853-.15704346 .13899231-.13304138 .13899231-.11903381 .13899231-.09503174 .11999512-.08203125 .099990848-.08203125 .07199097-.08203125 .042999269-.105041507 .042999269-.14303589 .042999269-.20310974 .1289978-.20410156 .18499756-.20410156 .34199525-.20410156 .40899659-.1240387 .4229889-.06703186L.5319977 .36935426M.3939972 .13310242C.3899994 .11808777 .3899994 .11608887 .37298585 .096069339 .33799745 .054016115 .2899933 .027999878 .2519989 .027999878 .20098877 .027999878 .1769867 .07104492 .1769867 .12309265 .1769867 .16714478 .20399475 .2792511 .22999573 .32330323 .27198792 .39338685 .31900025 .4133911 .35299684 .4133911 .4229889 .4133911 .44198609 .33831788 .44198609 .3283081 .44198609 .3263092 .44198609 .3243103 .43899537 .31329347L.3939972 .13310242Z"/>
<path id="font_2_3" d="M.43399049 .08125305C.42900086 .06124878 .41999818 .027236939 .41999818 .022232056 .41999818 .00022888184 .43798829-.009765625 .45399476-.009765625 .47200013-.009765625 .48799134 .0032196046 .49299623 .01222229 .49798585 .021224976 .5059967 .053237916 .5109863 .07424927 .5159912 .09326172 .5269928 .13928223 .5329895 .16429138 .5389862 .18629456 .54499819 .20831299 .5499878 .23132324 .5609894 .27433778 .5609894 .27633668 .58099368 .3073578 .61299136 .35636903 .6629944 .4133911 .7409973 .4133911 .7969971 .4133911 .7999878 .36738587 .7999878 .34336854 .7999878 .28334046 .7569885 .17228699 .7409973 .13027954 .7299957 .102264408 .7259979 .09326172 .7259979 .07624817 .7259979 .023223877 .769989-.009765625 .82099917-.009765625 .92099-.009765625 .96499636 .12828064 .96499636 .14328003 .96499636 .15628052 .95199587 .15628052 .94898989 .15628052 .93499758 .15628052 .9339905 .15028382 .9299927 .13928223 .9069977 .059249879 .8639984 .018234253 .82398989 .018234253 .8029938 .018234253 .798996 .032226564 .798996 .053237916 .798996 .07624817 .80400088 .089263919 .82199099 .13427735 .83399966 .1652832 .875 .2713318 .875 .32736207 .875 .34336854 .875 .38539125 .83799746 .4143982 .82099917 .42739869 .7919922 .44140626 .7449951 .44140626 .6549988 .44140626 .59999087 .38238526 .56799319 .34036256 .55999758 .42539979 .4889984 .44140626 .43798829 .44140626 .35499574 .44140626 .29899598 .39038087 .2689972 .3503723 .2619934 .41940309 .20298767 .44140626 .1619873 .44140626 .11898804 .44140626 .09599304 .4104004 .08299255 .38739015 .06098938 .3503723 .04699707 .29335023 .04699707 .28834535 .04699707 .27534486 .06098938 .27534486 .06399536 .27534486 .07798767 .27534486 .07899475 .27833558 .085998538 .3053589 .100997928 .36437989 .11999512 .4133911 .15899658 .4133911 .18499756 .4133911 .19198609 .39138795 .19198609 .36437989 .19198609 .34536744 .18299866 .3083496 .17599488 .28134156 .16899109 .2543335 .15899658 .21331787 .1539917 .19129944L.12199402 .06324768C.117996219 .050247194 .11199951 .025222779 .11199951 .022232056 .11199951 .00022888184 .12998963-.009765625 .1459961-.009765625 .1639862-.009765625 .17999268 .0032196046 .18499756 .01222229 .18998719 .021224976 .19799805 .053237916 .20298767 .07424927 .20799256 .09326172 .21899414 .13928223 .22499085 .16429138 .23098755 .18629456 .23699951 .20831299 .24198914 .23132324 .25299073 .27233888 .25498963 .28033448 .28399659 .32136537 .31199647 .3613739 .35899354 .4133911 .43399049 .4133911 .49198915 .4133911 .49299623 .36238099 .49299623 .34336854 .49299623 .31835938 .48999024 .3053589 .47599793 .24932862L.43399049 .08125305Z"/>
<path id="font_3_2" d="M.40499879 .3027954H.6230011C.7769928 .3027954 .95700076 .39675904 .95700076 .52067568 .95700076 .61361697 .8529968 .6826172 .70799258 .6826172H.31399537C.2939911 .6826172 .2789917 .6826172 .2789917 .65460208 .2789917 .63760378 .29100038 .63760378 .31599427 .63760378 .32598878 .63760378 .35899354 .63760378 .37998963 .63160708 .37998963 .61961367 .37998963 .61761477 .3769989 .6066284L.24598694 .082962039C.23799134 .052978517 .23699951 .04499817 .1599884 .04499817 .1349945 .04499817 .11898804 .04499817 .11898804 .016998291 .11898804 .008987427 .12599182 0 .13699341 0 .1579895 0 .18199158 .0029907227 .20399475 .0029907227 .22898865 .0029907227 .25299073 .0039978029 .27799989 .0039978029 .30299378 .0039978029 .32699586 .0029907227 .35198976 .0029907227 .375 .0029907227 .3999939 0 .42199708 0 .42799378 0 .44699098 0 .44699098 .027999878 .44699098 .04499817 .43299867 .04499817 .4139862 .04499817 .4119873 .04499817 .3880005 .04499817 .37098695 .04699707 .34599305 .04899597 .34498597 .049987794 .34498597 .0579834 .34498597 .0599823 .34498597 .0619812 .34799195 .07197571L.40499879 .3027954M.47698976 .6046295C.4850006 .63560488 .4850006 .63760378 .5269928 .63760378H.6749878C.7769928 .63760378 .84599307 .6106262 .84599307 .53466799 .84599307 .5056915 .83200076 .42773438 .7749939 .38676454 .71798709 .34577943 .6399994 .34179688 .59999087 .34179688H.41099549L.47698976 .6046295Z"/>
<path id="font_2_1" d="M.40699769 .39465333H.5049896C.5249939 .39465333 .5379944 .39465333 .5379944 .4166565 .5379944 .43066407 .5249939 .43066407 .5069885 .43066407H.4139862C.43699647 .5580139 .44499208 .6040497 .45298768 .63305667 .45799256 .6550598 .47999574 .6760864 .5039978 .6760864 .5049896 .6760864 .5319977 .6760864 .5509949 .6640625 .5099945 .651062 .5069885 .61505129 .5069885 .60905459 .5069885 .5870514 .5239868 .572052 .5469971 .572052 .57398989 .572052 .60398867 .59506228 .60398867 .63305667 .60398867 .6790924 .5549927 .70410159 .5039978 .70410159 .45999146 .70410159 .41099549 .6790924 .38398744 .62905886 .3639984 .5920563 .35598756 .5469818 .33499146 .43066407H.2559967C.23599243 .43066407 .22299195 .43066407 .22299195 .4086609 .22299195 .39465333 .23599243 .39465333 .2539978 .39465333H.32798768C.32699586 .38865663 .2639923 .028869629 .23999024-.078063968 .23498535-.10006714 .21798706-.17610169 .16999817-.17610169 .16899109-.17610169 .14498902-.17610169 .12599182-.1640625 .16699219-.15107727 .16999817-.11506653 .16999817-.109069827 .16999817-.08706665 .15299988-.07206726 .12998963-.07206726 .102996829-.07206726 .07299805-.095077518 .07299805-.1330719 .07299805-.17811585 .11999512-.20410156 .16999817-.20410156 .23399353-.20410156 .27799989-.13807678 .2899933-.11607361 .32598878-.049087526 .34899903 .07385254 .35099793 .08584595L.40699769 .39465333Z"/>
<path id="font_3_1" d="M.8549957 .21040344C.8619995 .22738648 .86698916 .23138428 .923996 .23239136 .93699648 .23239136 .95399478 .23239136 .95399478 .26039125 .95399478 .27038575 .94599917 .27738954 .93699648 .27738954 .9169922 .27738954 .894989 .27438355 .875 .27438355 .8529968 .27438355 .8299866 .27339173 .80799868 .27339173 .7779999 .27339173 .7489929 .27438355 .71899417 .27438355 .69099429 .27438355 .6599884 .27738954 .6319885 .27738954 .625 .27738954 .60598757 .27738954 .60598757 .24938965 .60598757 .23239136 .62098696 .23239136 .6380005 .23239136H.6589966C.6799927 .23239136 .71798709 .23138428 .73799136 .22738648 .7449951 .22538758 .7509918 .22439575 .7509918 .21540833 .7509918 .20840454 .73098757 .12846375 .7279968 .11647034 .70199587 .03552246 .57398989 .022537232 .5079956 .022537232 .37199403 .022537232 .22599793 .07949829 .22599793 .24938965 .22599793 .34249879 .269989 .4637146 .35598756 .54286196 .46099855 .641037 .58699038 .6600647 .6569977 .6600647 .7859955 .6600647 .8659973 .5759125 .8659973 .4617157 .8659973 .439682 .8639984 .43467713 .8639984 .42866517 .8639984 .41363526 .8779907 .41363526 .8869934 .41363526 .9059906 .41363526 .9059906 .41664125 .9109955 .43566896L.973999 .69107058C.973999 .69207766 .973999 .7050781 .95799258 .7050781 .95199587 .7050781 .95098879 .70407107 .93899539 .69306948L.8699951 .6240082C.8679962 .621994 .86099246 .61499026 .85899356 .61499026 .8569946 .61499026 .8569946 .6159973 .85398867 .6190033 .83200076 .64204409 .7719879 .7050781 .6419983 .7050781 .36898805 .7050781 .114990238 .49076844 .114990238 .27038575 .114990238 .11946106 .23899842-.022460938 .47399903-.022460938 .5099945-.022460938 .5649872-.020462037 .6179962-.007461548 .69099429 .009536743 .72499087 .038513185 .7389984 .053512575 .7509918 .03253174 .7799988-.00047302247 .7919922-.00047302247 .79499819-.00047302247 .8019867 .002532959 .8049927 .009536743 .8069916 .01852417 .81999209 .07249451 .82398989 .08648682L.8549957 .21040344Z"/>
</defs>
<use data-text="P" xlink:href="#font_1_2" transform="matrix(9.963098,0,0,-9.963098,19.285202,13.216003)"/>
<use data-text="G" xlink:href="#font_1_1" transform="matrix(9.963098,0,0,-9.963098,75.394008,13.216003)"/>
<use data-text="P" xlink:href="#font_1_2" transform="matrix(9.963098,0,0,-9.963098,19.285202,69.91284)"/>
<use data-text="G" xlink:href="#font_1_1" transform="matrix(9.963098,0,0,-9.963098,75.394008,69.91284)"/>
<path transform="matrix(1.00005,0,0,-1.00005,23.2014,66.49467)" stroke-width=".3985" stroke-linecap="butt" stroke-miterlimit="10" stroke-linejoin="miter" fill="none" stroke="#000000" d="M7.4357 56.69362H45.60591"/>
<path transform="matrix(1.00005,0,0,-1.00005,67.091327,9.798218)" d="M4.21463 0 .64343 1.34572 1.8178 0 .64343-1.34572Z"/>
<path transform="matrix(1.00005,0,0,-1.00005,67.091327,9.798218)" stroke-width=".3985" stroke-linecap="butt" stroke-miterlimit="10" stroke-linejoin="miter" fill="none" stroke="#000000" d="M4.21463 0 .64343 1.34572 1.8178 0 .64343-1.34572Z"/>
<use data-text="g" xlink:href="#font_2_2" transform="matrix(6.9741489,0,0,-6.9741489,49.1867,4.922592)"/>
<path transform="matrix(1.00005,0,0,-1.00005,23.2014,66.49467)" stroke-width=".3985" stroke-linecap="butt" stroke-miterlimit="10" stroke-linejoin="miter" fill="none" stroke="#000000" d="M7.4357 0H45.60591"/>
<path transform="matrix(1.00005,0,0,-1.00005,67.091327,66.49467)" d="M4.21463 0 .64343 1.34572 1.8178 0 .64343-1.34572Z"/>
<path transform="matrix(1.00005,0,0,-1.00005,67.091327,66.49467)" stroke-width=".3985" stroke-linecap="butt" stroke-miterlimit="10" stroke-linejoin="miter" fill="none" stroke="#000000" d="M4.21463 0 .64343 1.34572 1.8178 0 .64343-1.34572Z"/>
<use data-text="g" xlink:href="#font_2_2" transform="matrix(6.9741489,0,0,-6.9741489,49.1867,61.618425)"/>
<path transform="matrix(1.00005,0,0,-1.00005,23.2014,66.49467)" stroke-width=".3985" stroke-linecap="butt" stroke-miterlimit="10" stroke-linejoin="miter" fill="none" stroke="#000000" d="M-5.6697 49.75601V10.00151"/>
<path transform="matrix(0,1.00005,1.00005,0,17.531418,54.774385)" d="M4.21463 0 .64343 1.34572 1.8178 0 .64343-1.34572Z"/>
<path transform="matrix(0,1.00005,1.00005,0,17.531418,54.774385)" stroke-width=".3985" stroke-linecap="butt" stroke-miterlimit="10" stroke-linejoin="miter" fill="none" stroke="#000000" d="M4.21463 0 .64343 1.34572 1.8178 0 .64343-1.34572Z"/>
<use data-text="m" xlink:href="#font_2_3" transform="matrix(6.9741489,0,0,-6.9741489,1.2173004,39.1473)"/>
<use data-text="P" xlink:href="#font_3_2" transform="matrix(4.981549,0,0,-4.981549,8.286659,40.149354)"/>
<path transform="matrix(1.00005,0,0,-1.00005,23.2014,66.49467)" stroke-width=".3985" stroke-linecap="butt" stroke-miterlimit="10" stroke-linejoin="miter" fill="none" stroke="#000000" d="M5.6697 49.75601V10.00151"/>
<path transform="matrix(0,1.00005,1.00005,0,28.871384,54.774385)" d="M4.21463 0 .64343 1.34572 1.8178 0 .64343-1.34572Z"/>
<path transform="matrix(0,1.00005,1.00005,0,28.871384,54.774385)" stroke-width=".3985" stroke-linecap="butt" stroke-miterlimit="10" stroke-linejoin="miter" fill="none" stroke="#000000" d="M4.21463 0 .64343 1.34572 1.8178 0 .64343-1.34572Z"/>
<use data-text="f" xlink:href="#font_2_1" transform="matrix(6.9741489,0,0,-6.9741489,32.39186,39.890336)"/>
<use data-text="P" xlink:href="#font_3_2" transform="matrix(4.981549,0,0,-4.981549,36.276063,40.892389)"/>
<path transform="matrix(1.00005,0,0,-1.00005,23.2014,66.49467)" stroke-width=".3985" stroke-linecap="butt" stroke-miterlimit="10" stroke-linejoin="miter" fill="none" stroke="#000000" d="M51.02391 49.75601V10.00151"/>
<path transform="matrix(0,1.00005,1.00005,0,74.22786,54.774385)" d="M4.21463 0 .64343 1.34572 1.8178 0 .64343-1.34572Z"/>
<path transform="matrix(0,1.00005,1.00005,0,74.22786,54.774385)" stroke-width=".3985" stroke-linecap="butt" stroke-miterlimit="10" stroke-linejoin="miter" fill="none" stroke="#000000" d="M4.21463 0 .64343 1.34572 1.8178 0 .64343-1.34572Z"/>
<use data-text="m" xlink:href="#font_2_3" transform="matrix(6.9741489,0,0,-6.9741489,57.839136,39.1473)"/>
<use data-text="G" xlink:href="#font_3_1" transform="matrix(4.981549,0,0,-4.981549,64.90849,40.149354)"/>
<path transform="matrix(1.00005,0,0,-1.00005,23.2014,66.49467)" stroke-width=".3985" stroke-linecap="butt" stroke-miterlimit="10" stroke-linejoin="miter" fill="none" stroke="#000000" d="M62.36331 49.75601V10.00151"/>
<path transform="matrix(0,1.00005,1.00005,0,85.567829,54.774385)" d="M4.21463 0 .64343 1.34572 1.8178 0 .64343-1.34572Z"/>
<path transform="matrix(0,1.00005,1.00005,0,85.567829,54.774385)" stroke-width=".3985" stroke-linecap="butt" stroke-miterlimit="10" stroke-linejoin="miter" fill="none" stroke="#000000" d="M4.21463 0 .64343 1.34572 1.8178 0 .64343-1.34572Z"/>
<use data-text="f" xlink:href="#font_2_1" transform="matrix(6.9741489,0,0,-6.9741489,89.08769,39.890336)"/>
<use data-text="G" xlink:href="#font_3_1" transform="matrix(4.981549,0,0,-4.981549,92.97189,40.892389)"/>
</svg>
