<svg xmlns="http://www.w3.org/2000/svg" xmlns:xlink="http://www.w3.org/1999/xlink" xmlns:inkscape="http://www.inkscape.org/namespaces/inkscape" version="1.1" width="145" height="145" viewBox="0 0 145 145">
<path transform="matrix(1.00006,0,0,-1.00005,30.443688,30.146708)" stroke-width=".3985" stroke-linecap="butt" stroke-miterlimit="10" stroke-linejoin="miter" fill="none" stroke="#000000" d="M28.3468 0C28.3468 15.6557 15.6557 28.3468 0 28.3468-15.6557 28.3468-28.3468 15.6557-28.3468 0-28.3468-15.6557-15.6557-28.3468 0-28.3468 15.6557-28.3468 28.3468-15.6557 28.3468 0ZM0 0"/>
<path transform="matrix(1.00006,0,0,-1.00005,30.443688,30.146708)" d="M1.49435 14.17339C1.49435 14.9987 .8253 15.66774 0 15.66774-.8253 15.66774-1.49435 14.9987-1.49435 14.17339-1.49435 13.34807-.8253 12.67903 0 12.67903 .8253 12.67903 1.49435 13.34807 1.49435 14.17339ZM0 14.17339"/>
<path transform="matrix(1.00006,0,0,-1.00005,30.443688,30.146708)" stroke-width=".3985" stroke-linecap="butt" stroke-miterlimit="10" stroke-linejoin="miter" fill="none" stroke="#000000" d="M1.49435 14.17339C1.49435 14.9987 .8253 15.66774 0 15.66774-.8253 15.66774-1.49435 14.9987-1.49435 14.17339-1.49435 13.34807-.8253 12.67903 0 12.67903 .8253 12.67903 1.49435 13.34807 1.49435 14.17339ZM0 14.17339"/>
<path transform="matrix(1.00006,0,0,-1.00005,30.443688,30.146708)" d="M1.49435-14.17339C1.49435-13.34807 .8253-12.67903 0-12.67903-.8253-12.67903-1.49435-13.34807-1.49435-14.17339-1.49435-14.9987-.8253-15.66774 0-15.66774 .8253-15.66774 1.49435-14.9987 1.49435-14.17339ZM0-14.17339"/>
<path transform="matrix(1.00006,0,0,-1.00005,30.443688,30.146708)" stroke-width=".3985" stroke-linecap="butt" stroke-miterlimit="10" stroke-linejoin="miter" fill="none" stroke="#000000" d="M1.49435-14.17339C1.49435-13.34807 .8253-12.67903 0-12.67903-.8253-12.67903-1.49435-13.34807-1.49435-14.17339-1.49435-14.9987-.8253-15.66774 0-15.66774 .8253-15.66774 1.49435-14.9987 1.49435-14.17339ZM0-14.17339"/>
<path transform="matrix(1.00006,0,0,-1.00005,30.443688,30.146708)" stroke-width=".3985" stroke-linecap="butt" stroke-miterlimit="10" stroke-linejoin="miter" fill="none" stroke="#000000" d="M0-14.17339C5.52716-4.60002 5.52716 4.60002 1.53189 11.52"/>
<path transform="matrix(-.50000998,-.8660533,-.8660619,.50000497,32.83479,20.114167)" d="M4.21463 0 .64343 1.34572 1.8178 0 .64343-1.34572Z"/>
<path transform="matrix(-.50000998,-.8660533,-.8660619,.50000497,32.83479,20.114167)" stroke-width=".3985" stroke-linecap="butt" stroke-miterlimit="10" stroke-linejoin="miter" fill="none" stroke="#000000" d="M4.21463 0 .64343 1.34572 1.8178 0 .64343-1.34572Z"/>
<path transform="matrix(1.00006,0,0,-1.00005,30.443688,30.146708)" stroke-width=".3985" stroke-linecap="butt" stroke-miterlimit="10" stroke-linejoin="miter" fill="none" stroke="#000000" d="M0 14.17339C-5.52716 4.60002-5.52716-4.60002-1.53189-11.52"/>
<path transform="matrix(.50000998,.8660533,.8660619,-.50000497,28.052584,40.17925)" d="M4.21463 0 .64343 1.34572 1.8178 0 .64343-1.34572Z"/>
<path transform="matrix(.50000998,.8660533,.8660619,-.50000497,28.052584,40.17925)" stroke-width=".3985" stroke-linecap="butt" stroke-miterlimit="10" stroke-linejoin="miter" fill="none" stroke="#000000" d="M4.21463 0 .64343 1.34572 1.8178 0 .64343-1.34572Z"/>
<path transform="matrix(1.00006,0,0,-1.00005,30.443688,30.146708)" stroke-width=".3985" stroke-linecap="butt" stroke-miterlimit="10" stroke-linejoin="miter" fill="none" stroke="#000000" d="M113.38724 0C113.38724 15.6557 100.69614 28.3468 85.04042 28.3468 69.3847 28.3468 56.69362 15.6557 56.69362 0 56.69362-15.6557 69.3847-28.3468 85.04042-28.3468 100.69614-28.3468 113.38724-15.6557 113.38724 0ZM85.04042 0"/>
<path transform="matrix(1.00006,0,0,-1.00005,30.443688,30.146708)" d="M86.53477 14.17339C86.53477 14.9987 85.86574 15.66774 85.04042 15.66774 84.2151 15.66774 83.54607 14.9987 83.54607 14.17339 83.54607 13.34807 84.2151 12.67903 85.04042 12.67903 85.86574 12.67903 86.53477 13.34807 86.53477 14.17339ZM85.04042 14.17339"/>
<path transform="matrix(1.00006,0,0,-1.00005,30.443688,30.146708)" stroke-width=".3985" stroke-linecap="butt" stroke-miterlimit="10" stroke-linejoin="miter" fill="none" stroke="#000000" d="M86.53477 14.17339C86.53477 14.9987 85.86574 15.66774 85.04042 15.66774 84.2151 15.66774 83.54607 14.9987 83.54607 14.17339 83.54607 13.34807 84.2151 12.67903 85.04042 12.67903 85.86574 12.67903 86.53477 13.34807 86.53477 14.17339ZM85.04042 14.17339"/>
<path transform="matrix(1.00006,0,0,-1.00005,30.443688,30.146708)" d="M86.53477-14.17339C86.53477-13.34807 85.86574-12.67903 85.04042-12.67903 84.2151-12.67903 83.54607-13.34807 83.54607-14.17339 83.54607-14.9987 84.2151-15.66774 85.04042-15.66774 85.86574-15.66774 86.53477-14.9987 86.53477-14.17339ZM85.04042-14.17339"/>
<path transform="matrix(1.00006,0,0,-1.00005,30.443688,30.146708)" stroke-width=".3985" stroke-linecap="butt" stroke-miterlimit="10" stroke-linejoin="miter" fill="none" stroke="#000000" d="M86.53477-14.17339C86.53477-13.34807 85.86574-12.67903 85.04042-12.67903 84.2151-12.67903 83.54607-13.34807 83.54607-14.17339 83.54607-14.9987 84.2151-15.66774 85.04042-15.66774 85.86574-15.66774 86.53477-14.9987 86.53477-14.17339ZM85.04042-14.17339"/>
<path transform="matrix(1.00006,0,0,-1.00005,30.443688,30.146708)" stroke-width=".3985" stroke-linecap="butt" stroke-miterlimit="10" stroke-linejoin="miter" fill="none" stroke="#000000" d="M85.04042 14.17339C95.06253 24.1955 75.01833 24.1955 82.16943 17.04437"/>
<path transform="matrix(.70714238,.7071353,.70714238,-.7071353,111.40304,11.8864769)" d="M4.21463 0 .64343 1.34572 1.8178 0 .64343-1.34572Z"/>
<path transform="matrix(.70714238,.7071353,.70714238,-.7071353,111.40304,11.8864769)" stroke-width=".3985" stroke-linecap="butt" stroke-miterlimit="10" stroke-linejoin="miter" fill="none" stroke="#000000" d="M4.21463 0 .64343 1.34572 1.8178 0 .64343-1.34572Z"/>
<path transform="matrix(1.00006,0,0,-1.00005,30.443688,30.146708)" stroke-width=".3985" stroke-linecap="butt" stroke-miterlimit="10" stroke-linejoin="miter" fill="none" stroke="#000000" d="M85.04042-14.17339C95.06253-24.1955 75.01833-24.1955 82.16943-17.04437"/>
<path transform="matrix(.70714238,-.7071353,-.70714238,-.7071353,111.40304,48.406938)" d="M4.21463 0 .64343 1.34572 1.8178 0 .64343-1.34572Z"/>
<path transform="matrix(.70714238,-.7071353,-.70714238,-.7071353,111.40304,48.406938)" stroke-width=".3985" stroke-linecap="butt" stroke-miterlimit="10" stroke-linejoin="miter" fill="none" stroke="#000000" d="M4.21463 0 .64343 1.34572 1.8178 0 .64343-1.34572Z"/>
<path transform="matrix(1.00006,0,0,-1.00005,30.443688,30.146708)" stroke-width=".3985" stroke-linecap="butt" stroke-miterlimit="10" stroke-linejoin="miter" fill="none" stroke="#000000" d="M28.3468-85.04042C28.3468-69.3847 15.6557-56.69362 0-56.69362-15.6557-56.69362-28.3468-69.3847-28.3468-85.04042-28.3468-100.69614-15.6557-113.38724 0-113.38724 15.6557-113.38724 28.3468-100.69614 28.3468-85.04042ZM0-85.04042"/>
<path transform="matrix(1.00006,0,0,-1.00005,30.443688,30.146708)" d="M1.49435-70.867C1.49435-70.04169 .8253-69.37265 0-69.37265-.8253-69.37265-1.49435-70.04169-1.49435-70.867-1.49435-71.69232-.8253-72.36136 0-72.36136 .8253-72.36136 1.49435-71.69232 1.49435-70.867ZM0-70.867"/>
<path transform="matrix(1.00006,0,0,-1.00005,30.443688,30.146708)" stroke-width=".3985" stroke-linecap="butt" stroke-miterlimit="10" stroke-linejoin="miter" fill="none" stroke="#000000" d="M1.49435-70.867C1.49435-70.04169 .8253-69.37265 0-69.37265-.8253-69.37265-1.49435-70.04169-1.49435-70.867-1.49435-71.69232-.8253-72.36136 0-72.36136 .8253-72.36136 1.49435-71.69232 1.49435-70.867ZM0-70.867"/>
<path transform="matrix(1.00006,0,0,-1.00005,30.443688,30.146708)" d="M1.49435-99.21382C1.49435-98.3885 .8253-97.71947 0-97.71947-.8253-97.71947-1.49435-98.3885-1.49435-99.21382-1.49435-100.03914-.8253-100.70818 0-100.70818 .8253-100.70818 1.49435-100.03914 1.49435-99.21382ZM0-99.21382"/>
<path transform="matrix(1.00006,0,0,-1.00005,30.443688,30.146708)" stroke-width=".3985" stroke-linecap="butt" stroke-miterlimit="10" stroke-linejoin="miter" fill="none" stroke="#000000" d="M1.49435-99.21382C1.49435-98.3885 .8253-97.71947 0-97.71947-.8253-97.71947-1.49435-98.3885-1.49435-99.21382-1.49435-100.03914-.8253-100.70818 0-100.70818 .8253-100.70818 1.49435-100.03914 1.49435-99.21382ZM0-99.21382"/>
<path transform="matrix(1.00006,0,0,-1.00005,30.443688,30.146708)" stroke-width=".3985" stroke-linecap="butt" stroke-miterlimit="10" stroke-linejoin="miter" fill="none" stroke="#000000" d="M0-99.21382C10.0221-109.23592-10.0221-109.23592-2.87097-102.08481"/>
<path transform="matrix(.70714238,-.7071353,-.70714238,-.7071353,26.357523,133.45162)" d="M4.21463 0 .64343 1.34572 1.8178 0 .64343-1.34572Z"/>
<path transform="matrix(.70714238,-.7071353,-.70714238,-.7071353,26.357523,133.45162)" stroke-width=".3985" stroke-linecap="butt" stroke-miterlimit="10" stroke-linejoin="miter" fill="none" stroke="#000000" d="M4.21463 0 .64343 1.34572 1.8178 0 .64343-1.34572Z"/>
<path transform="matrix(1.00006,0,0,-1.00005,30.443688,30.146708)" stroke-width=".3985" stroke-linecap="butt" stroke-miterlimit="10" stroke-linejoin="miter" fill="none" stroke="#000000" d="M0-70.867V-96.1499"/>
<path transform="matrix(0,1.00005,1.00006,0,30.443688,124.58314)" d="M4.21463 0 .64343 1.34572 1.8178 0 .64343-1.34572Z"/>
<path transform="matrix(0,1.00005,1.00006,0,30.443688,124.58314)" stroke-width=".3985" stroke-linecap="butt" stroke-miterlimit="10" stroke-linejoin="miter" fill="none" stroke="#000000" d="M4.21463 0 .64343 1.34572 1.8178 0 .64343-1.34572Z"/>
<path transform="matrix(1.00006,0,0,-1.00005,30.443688,30.146708)" stroke-width=".3985" stroke-linecap="butt" stroke-miterlimit="10" stroke-linejoin="miter" fill="none" stroke="#000000" d="M113.38724-85.04042C113.38724-69.3847 100.69614-56.69362 85.04042-56.69362 69.3847-56.69362 56.69362-69.3847 56.69362-85.04042 56.69362-100.69614 69.3847-113.38724 85.04042-113.38724 100.69614-113.38724 113.38724-100.69614 113.38724-85.04042ZM85.04042-85.04042"/>
<path transform="matrix(1.00006,0,0,-1.00005,30.443688,30.146708)" d="M86.53477-70.867C86.53477-70.04169 85.86574-69.37265 85.04042-69.37265 84.2151-69.37265 83.54607-70.04169 83.54607-70.867 83.54607-71.69232 84.2151-72.36136 85.04042-72.36136 85.86574-72.36136 86.53477-71.69232 86.53477-70.867ZM85.04042-70.867"/>
<path transform="matrix(1.00006,0,0,-1.00005,30.443688,30.146708)" stroke-width=".3985" stroke-linecap="butt" stroke-miterlimit="10" stroke-linejoin="miter" fill="none" stroke="#000000" d="M86.53477-70.867C86.53477-70.04169 85.86574-69.37265 85.04042-69.37265 84.2151-69.37265 83.54607-70.04169 83.54607-70.867 83.54607-71.69232 84.2151-72.36136 85.04042-72.36136 85.86574-72.36136 86.53477-71.69232 86.53477-70.867ZM85.04042-70.867"/>
<path transform="matrix(1.00006,0,0,-1.00005,30.443688,30.146708)" d="M86.53477-99.21382C86.53477-98.3885 85.86574-97.71947 85.04042-97.71947 84.2151-97.71947 83.54607-98.3885 83.54607-99.21382 83.54607-100.03914 84.2151-100.70818 85.04042-100.70818 85.86574-100.70818 86.53477-100.03914 86.53477-99.21382ZM85.04042-99.21382"/>
<path transform="matrix(1.00006,0,0,-1.00005,30.443688,30.146708)" stroke-width=".3985" stroke-linecap="butt" stroke-miterlimit="10" stroke-linejoin="miter" fill="none" stroke="#000000" d="M86.53477-99.21382C86.53477-98.3885 85.86574-97.71947 85.04042-97.71947 84.2151-97.71947 83.54607-98.3885 83.54607-99.21382 83.54607-100.03914 84.2151-100.70818 85.04042-100.70818 85.86574-100.70818 86.53477-100.03914 86.53477-99.21382ZM85.04042-99.21382"/>
<path transform="matrix(1.00006,0,0,-1.00005,30.443688,30.146708)" stroke-width=".3985" stroke-linecap="butt" stroke-miterlimit="10" stroke-linejoin="miter" fill="none" stroke="#000000" d="M85.04042-70.867C95.06253-60.84491 75.01833-60.84491 82.16943-67.99602"/>
<path transform="matrix(.70714238,.7071353,.70714238,-.7071353,111.40304,96.93112)" d="M4.21463 0 .64343 1.34572 1.8178 0 .64343-1.34572Z"/>
<path transform="matrix(.70714238,.7071353,.70714238,-.7071353,111.40304,96.93112)" stroke-width=".3985" stroke-linecap="butt" stroke-miterlimit="10" stroke-linejoin="miter" fill="none" stroke="#000000" d="M4.21463 0 .64343 1.34572 1.8178 0 .64343-1.34572Z"/>
<path transform="matrix(1.00006,0,0,-1.00005,30.443688,30.146708)" stroke-width=".3985" stroke-linecap="butt" stroke-miterlimit="10" stroke-linejoin="miter" fill="none" stroke="#000000" d="M85.04042-99.21382V-73.93092"/>
<path transform="matrix(0,-1.00005,-1.00006,-0,115.489208,105.79959)" d="M4.21463 0 .64343 1.34572 1.8178 0 .64343-1.34572Z"/>
<path transform="matrix(0,-1.00005,-1.00006,-0,115.489208,105.79959)" stroke-width=".3985" stroke-linecap="butt" stroke-miterlimit="10" stroke-linejoin="miter" fill="none" stroke="#000000" d="M4.21463 0 .64343 1.34572 1.8178 0 .64343-1.34572Z"/>
</svg>
