<svg xmlns="http://www.w3.org/2000/svg" xmlns:xlink="http://www.w3.org/1999/xlink" xmlns:inkscape="http://www.inkscape.org/namespaces/inkscape" version="1.1" width="106" height="106" viewBox="0 0 106 106">
<defs>
<path id="font_1_1" d="M.5159912 .68333438C.5159912 .6843262 .5159912 .69433596 .5029907 .69433596 .48799134 .69433596 .3929901 .68533328 .37599183 .68333438 .36799623 .6823273 .3619995 .6773224 .3619995 .6643219 .3619995 .6523285 .37098695 .6523285 .38598634 .6523285 .43399049 .6523285 .43598939 .6453247 .43598939 .6353302L.43299867 .6153412 .37298585 .37835694C.35499574 .41537477 .32598878 .4423828 .2809906 .4423828 .1639862 .4423828 .039993287 .29533387 .039993287 .14929199 .039993287 .055267335 .09498596-.0107421879 .17298889-.0107421879 .19299317-.0107421879 .24299622-.0067443849 .30299378 .06427002 .31098939 .022247315 .34599305-.0107421879 .3939972-.0107421879 .42900086-.0107421879 .45199586 .012252808 .46798707 .044265748 .4850006 .08027649 .49798585 .14129639 .49798585 .14329529 .49798585 .1532898 .4889984 .1532898 .48599244 .1532898 .47599793 .1532898 .47499085 .14929199 .47200013 .13528443 .45498658 .07026672 .43699647 .011245728 .3959961 .011245728 .36898805 .011245728 .3659973 .037261964 .3659973 .057266237 .3659973 .08126831 .36799623 .088272098 .37199403 .105285648L.5159912 .68333438M.30799867 .119277957C.30299378 .10127258 .30299378 .09927368 .28799439 .08227539 .24398804 .027252198 .20298767 .011245728 .1749878 .011245728 .125 .011245728 .11099243 .06626892 .11099243 .105285648 .11099243 .1552887 .14299011 .27833558 .1659851 .32434083 .19699097 .38336183 .24198914 .42037965 .28199769 .42037965 .34700013 .42037965 .36099244 .3383484 .36099244 .33235169 .36099244 .32633973 .35899354 .32034303 .35798646 .31533814L.30799867 .119277957Z"/>
<path id="font_2_1" d="M.5159912 .31925965C.5159912 .42918397 .5029907 .50813296 .45700074 .5780945 .42599488 .62405398 .3639984 .6640625 .28399659 .6640625 .051986696 .6640625 .051986696 .39120484 .051986696 .31925965 .051986696 .2472992 .051986696-.01953125 .28399659-.01953125 .5159912-.01953125 .5159912 .2472992 .5159912 .31925965M.28399659 .008468628C.23799134 .008468628 .1769867 .035446168 .15699768 .117385867 .14299011 .17634583 .14299011 .25830079 .14299011 .33224488 .14299011 .40519715 .14299011 .4811554 .1579895 .53611758 .1789856 .6150665 .24299622 .63604739 .28399659 .63604739 .33799745 .63604739 .3899994 .6030731 .4079895 .545105 .42399598 .4911499 .4249878 .41918946 .4249878 .33224488 .4249878 .25830079 .4249878 .18434143 .4119873 .12138367 .3919983 .030441285 .32398988 .008468628 .28399659 .008468628Z"/>
<path id="font_2_2" d="M.33499146 .63612368C.33499146 .6630554 .33299256 .6640625 .30499269 .6640625 .24099732 .6014404 .1499939 .6004486 .10899353 .6004486V.5644531C.1329956 .5644531 .19898987 .5644531 .2539978 .592453V.08203125C.2539978 .04899597 .2539978 .035995485 .1539917 .035995485H.115997318V0C.13398743 .0009918213 .25698854 .0039978029 .2939911 .0039978029 .32499696 .0039978029 .45098878 .0009918213 .47299195 0V.035995485H.43499757C.33499146 .035995485 .33499146 .04899597 .33499146 .08203125V.63612368Z"/>
<path id="font_2_3" d="M.5049896 .18203736H.47099305C.46798707 .16001892 .45799256 .100997928 .44499208 .09098816 .43699647 .084991458 .3600006 .084991458 .34599305 .084991458H.1619873C.2669983 .17803955 .3019867 .20603943 .3619995 .25306703 .43598939 .312088 .5049896 .374115 .5049896 .46914674 .5049896 .5900879 .39898683 .6640625 .2709961 .6640625 .14698792 .6640625 .06298828 .57710269 .06298828 .4851532 .06298828 .43414308 .10598755 .42915345 .115997318 .42915345 .13999939 .42915345 .16899109 .44615174 .16899109 .48214723 .16899109 .5001526 .1619873 .53515627 .10998535 .53515627 .14099121 .6060791 .20899964 .62805178 .2559967 .62805178 .35598756 .62805178 .4079895 .5501404 .4079895 .46914674 .4079895 .38212586 .34599305 .3130951 .31399537 .27708436L.07299805 .038986207C.06298828 .02999878 .06298828 .027999878 .06298828 0H.47499085L.5049896 .18203736Z"/>
<path id="font_3_1" d="M.42199708 .38238526C.40098573 .41540528 .36698915 .44140626 .31900025 .44140626 .19099427 .44140626 .06098938 .300354 .06098938 .15628052 .06098938 .059249879 .12599182-.009765625 .21199036-.009765625 .2659912-.009765625 .31399537 .021224976 .35398866 .0602417 .37298585 .00022888184 .43099977-.009765625 .45700074-.009765625 .49299623-.009765625 .5179901 .01222229 .5359955 .04324341 .55799868 .08226013 .57099917 .13928223 .57099917 .14328003 .57099917 .15628052 .55799868 .15628052 .5549927 .15628052 .54100039 .15628052 .5399933 .15228272 .5329895 .12527466 .5209961 .07725525 .5019989 .018234253 .45999146 .018234253 .43399049 .018234253 .4269867 .040237428 .4269867 .06724548 .4269867 .08425903 .43499757 .120269779 .44198609 .14628601 .44898988 .17329407 .45899964 .21430969 .46398927 .23632813L.48399354 .3123474C.48999024 .33836366 .5019989 .38539125 .5019989 .39038087 .5019989 .4123993 .48399354 .4223938 .46798707 .4223938 .45098878 .4223938 .42799378 .4104004 .42199708 .38238526M.35798646 .12527466C.35099793 .09725952 .32899476 .07725525 .30699159 .058242799 .2979889 .050247194 .2579956 .018234253 .21499634 .018234253 .17799378 .018234253 .14199829 .04423523 .14199829 .11526489 .14199829 .16828919 .17098999 .27833558 .19400025 .31835938 .23999024 .39839173 .29100038 .4133911 .31900025 .4133911 .3889923 .4133911 .4079895 .33737184 .4079895 .32635499 .4079895 .32235719 .4059906 .3153534 .40499879 .3123474L.35798646 .12527466Z"/>
<path id="font_4_3" d="M.58898928 .19296265H.5469971C.5439911 .17396546 .5339966 .11198425 .5179901 .101989749 .5099945 .09599304 .42599488 .09599304 .41099549 .09599304H.21499634C.2809906 .14497376 .35499574 .20095825 .4149933 .24093628 .5049896 .30291749 .58898928 .36090089 .58898928 .46687318 .58898928 .59495547 .46798707 .6660156 .32499696 .6660156 .18998719 .6660156 .09098816 .58795168 .09098816 .48986817 .09098816 .4378662 .1349945 .42886354 .14898682 .42886354 .17599488 .42886354 .20799256 .4468689 .20799256 .48786927 .20799256 .52386477 .18199158 .543869 .15098572 .546875 .1789856 .59194949 .23699951 .6220093 .3039856 .6220093 .40098573 .6220093 .48199464 .5639038 .48199464 .4658661 .48199464 .3818817 .42399598 .31791688 .34700013 .2529297L.102996829 .04598999C.09298706 .036987306 .09199524 .036987306 .09098816 .02999878V0H.55599978L.58898928 .19296265Z"/>
<path id="font_4_1" d="M.6009979 .31976319C.6009979 .3918152 .6009979 .6660156 .33999635 .6660156 .07899475 .6660156 .07899475 .3918152 .07899475 .31976319 .07899475 .2467041 .07899475-.022460938 .33999635-.022460938 .6009979-.022460938 .6009979 .2467041 .6009979 .31976319M.33999635 .010528564C.30299378 .010528564 .21899414 .023544312 .19400025 .12461853 .17999268 .17866516 .1789856 .24971009 .1789856 .33177186 .1789856 .405838 .1789856 .47488404 .19499207 .5319214 .21998596 .6159973 .29699708 .63301089 .33999635 .63301089 .4139862 .63301089 .46699525 .5949707 .4869995 .5249176 .5009918 .47387696 .5009918 .39082337 .5009918 .33177186 .5009918 .26371766 .5009918 .18266297 .48599244 .12261963 .45999146 .025543213 .37998963 .010528564 .33999635 .010528564Z"/>
<path id="font_4_2" d="M.397995 .63591006C.397995 .6660156 .394989 .6660156 .3619995 .6660156 .29100038 .6016083 .17999268 .6016083 .1599884 .6016083H.14299011V.5576172H.1599884C.18299866 .5576172 .24798584 .5606079 .30599977 .58561709V.08596802C.30599977 .054977418 .30599977 .04399109 .19999695 .04399109H.1499939V0C.20498657 .0039978029 .2939911 .0039978029 .35198976 .0039978029 .4099884 .0039978029 .49899293 .0039978029 .55400088 0V.04399109H.5039978C.397995 .04399109 .397995 .054977418 .397995 .08596802V.63591006Z"/>
</defs>
<use data-text="d" xlink:href="#font_1_1" transform="matrix(9.963098,0,0,-9.962799,5.7723238,55.535795)"/>
<use data-text="0" xlink:href="#font_2_1" transform="matrix(6.9741489,0,0,-6.97394,10.957581,57.029825)"/>
<use data-text="d" xlink:href="#font_1_1" transform="matrix(9.963098,0,0,-9.962799,90.81758,21.51911)"/>
<use data-text="1" xlink:href="#font_2_2" transform="matrix(6.9741489,0,0,-6.97394,96.00284,23.01314)"/>
<use data-text="d" xlink:href="#font_1_1" transform="matrix(9.963098,0,0,-9.962799,90.81758,89.553478)"/>
<use data-text="2" xlink:href="#font_2_3" transform="matrix(6.9741489,0,0,-6.97394,96.00284,91.0475)"/>
<path transform="matrix(1.00005,0,0,-1.00002,53.122697,52.82374)" d="M-33.12189 0C-33.12189 .49518-33.5233 .8966-34.0185 .8966-34.51369 .8966-34.9151 .49518-34.9151 0-34.9151-.49518-34.51369-.8966-34.0185-.8966-33.5233-.8966-33.12189-.49518-33.12189 0ZM-34.0185 0"/>
<path transform="matrix(1.00005,0,0,-1.00002,53.122697,52.82374)" stroke-width=".3985" stroke-linecap="butt" stroke-miterlimit="10" stroke-linejoin="miter" fill="none" stroke="#000000" d="M-33.12189 0C-33.12189 .49518-33.5233 .8966-34.0185 .8966-34.51369 .8966-34.9151 .49518-34.9151 0-34.9151-.49518-34.51369-.8966-34.0185-.8966-33.5233-.8966-33.12189-.49518-33.12189 0ZM-34.0185 0"/>
<path transform="matrix(1.00005,0,0,-1.00002,53.122697,52.82374)" d="M34.9151 34.0185C34.9151 34.51369 34.51369 34.9151 34.0185 34.9151 33.5233 34.9151 33.12189 34.51369 33.12189 34.0185 33.12189 33.5233 33.5233 33.12189 34.0185 33.12189 34.51369 33.12189 34.9151 33.5233 34.9151 34.0185ZM34.0185 34.0185"/>
<path transform="matrix(1.00005,0,0,-1.00002,53.122697,52.82374)" stroke-width=".3985" stroke-linecap="butt" stroke-miterlimit="10" stroke-linejoin="miter" fill="none" stroke="#000000" d="M34.9151 34.0185C34.9151 34.51369 34.51369 34.9151 34.0185 34.9151 33.5233 34.9151 33.12189 34.51369 33.12189 34.0185 33.12189 33.5233 33.5233 33.12189 34.0185 33.12189 34.51369 33.12189 34.9151 33.5233 34.9151 34.0185ZM34.0185 34.0185"/>
<path transform="matrix(1.00005,0,0,-1.00002,53.122697,52.82374)" d="M34.9151-34.0185C34.9151-33.5233 34.51369-33.12189 34.0185-33.12189 33.5233-33.12189 33.12189-33.5233 33.12189-34.0185 33.12189-34.51369 33.5233-34.9151 34.0185-34.9151 34.51369-34.9151 34.9151-34.51369 34.9151-34.0185ZM34.0185-34.0185"/>
<path transform="matrix(1.00005,0,0,-1.00002,53.122697,52.82374)" stroke-width=".3985" stroke-linecap="butt" stroke-miterlimit="10" stroke-linejoin="miter" fill="none" stroke="#000000" d="M34.9151-34.0185C34.9151-33.5233 34.51369-33.12189 34.0185-33.12189 33.5233-33.12189 33.12189-33.5233 33.12189-34.0185 33.12189-34.51369 33.5233-34.9151 34.0185-34.9151 34.51369-34.9151 34.9151-34.51369 34.9151-34.0185ZM34.0185-34.0185"/>
<path transform="matrix(1.00005,0,0,-1.00002,53.122697,52.82374)" stroke-width=".3985" stroke-linecap="butt" stroke-miterlimit="10" stroke-linejoin="miter" fill="none" stroke="#000000" d="M-51.02477-17.00824V17.00824H-17.00824V-17.00824ZM-17.00824 17.00824"/>
<path transform="matrix(1.00005,0,0,-1.00002,53.122697,52.82374)" stroke-width=".3985" stroke-linecap="butt" stroke-miterlimit="10" stroke-linejoin="miter" fill="none" stroke="#000000" d="M17.00824-51.02477V51.02477H51.02477V-51.02477ZM51.02477 51.02477"/>
<path transform="matrix(1.00005,0,0,-1.00002,53.122697,52.82374)" stroke-width=".3985" stroke-linecap="butt" stroke-miterlimit="10" stroke-linejoin="miter" fill="none" stroke="#000000" d="M34.0185 34.0185V-30.95457"/>
<path transform="matrix(0,1.00002,1.00005,0,87.1429,82.060718)" d="M4.21463 0 .64343 1.34572 1.8178 0 .64343-1.34572Z"/>
<path transform="matrix(0,1.00002,1.00005,0,87.1429,82.060718)" stroke-width=".3985" stroke-linecap="butt" stroke-miterlimit="10" stroke-linejoin="miter" fill="none" stroke="#000000" d="M4.21463 0 .64343 1.34572 1.8178 0 .64343-1.34572Z"/>
<use data-text="a" xlink:href="#font_3_1" transform="matrix(6.9741489,0,0,-6.97394,90.66257,53.82676)"/>
<use data-text="2" xlink:href="#font_4_3" transform="matrix(4.981549,0,0,-4.9813997,94.98378,54.822778)"/>
<path transform="matrix(1.00005,0,0,-1.00002,53.122697,52.82374)" stroke-width=".3985" stroke-linecap="butt" stroke-miterlimit="10" stroke-linejoin="miter" fill="none" stroke="#000000" d="M-34.0185 0 31.27824 32.6484"/>
<path transform="matrix(.89440467,-.44717894,-.4471923,-.89437797,82.86574,20.94302)" d="M4.21463 0 .64343 1.34572 1.8178 0 .64343-1.34572Z"/>
<path transform="matrix(.89440467,-.44717894,-.4471923,-.89437797,82.86574,20.94302)" stroke-width=".3985" stroke-linecap="butt" stroke-miterlimit="10" stroke-linejoin="miter" fill="none" stroke="#000000" d="M4.21463 0 .64343 1.34572 1.8178 0 .64343-1.34572Z"/>
<use data-text="a" xlink:href="#font_3_1" transform="matrix(6.9741489,0,0,-6.97394,49.017496,31.298308)"/>
<use data-text="0" xlink:href="#font_4_1" transform="matrix(4.981549,0,0,-4.9813997,53.338708,32.294328)"/>
<path transform="matrix(1.00005,0,0,-1.00002,53.122697,52.82374)" stroke-width=".3985" stroke-linecap="butt" stroke-miterlimit="10" stroke-linejoin="miter" fill="none" stroke="#000000" d="M-34.0185 0 31.27824-32.6484"/>
<path transform="matrix(.89440467,.44717894,.4471923,-.89437797,82.86574,84.70445)" d="M4.21463 0 .64343 1.34572 1.8178 0 .64343-1.34572Z"/>
<path transform="matrix(.89440467,.44717894,.4471923,-.89437797,82.86574,84.70445)" stroke-width=".3985" stroke-linecap="butt" stroke-miterlimit="10" stroke-linejoin="miter" fill="none" stroke="#000000" d="M4.21463 0 .64343 1.34572 1.8178 0 .64343-1.34572Z"/>
<use data-text="a" xlink:href="#font_3_1" transform="matrix(6.9741489,0,0,-6.97394,49.017496,76.35621)"/>
<use data-text="1" xlink:href="#font_4_2" transform="matrix(4.981549,0,0,-4.9813997,53.338708,77.352237)"/>
<path transform="matrix(1.00005,0,0,-1.00002,53.122697,52.82374)" stroke-width=".3985" stroke-linecap="butt" stroke-dasharray="2.98883,2.98883" stroke-miterlimit="10" stroke-linejoin="miter" fill="none" stroke="#000000" d="M34.0185 34.0185 1.69945-14.46002"/>
<path transform="matrix(-.5546977,.8320367,.8320615,.55468109,55.775308,65.85446)" d="M4.21463 0 .64343 1.34572 1.8178 0 .64343-1.34572Z"/>
<path transform="matrix(-.5546977,.8320367,.8320615,.55468109,55.775308,65.85446)" stroke-width=".3985" stroke-linecap="butt" stroke-miterlimit="10" stroke-linejoin="miter" fill="none" stroke="#000000" d="M4.21463 0 .64343 1.34572 1.8178 0 .64343-1.34572Z"/>
<path transform="matrix(1.00005,0,0,-1.00002,53.122697,52.82374)" stroke-width=".3985" stroke-linecap="butt" stroke-dasharray="2.98883,2.98883" stroke-miterlimit="10" stroke-linejoin="miter" fill="none" stroke="#000000" d="M34.0185-34.0185 1.69945 14.46002"/>
<path transform="matrix(-.5546977,-.8320367,-.8320615,.55468109,55.775308,39.793016)" d="M4.21463 0 .64343 1.34572 1.8178 0 .64343-1.34572Z"/>
<path transform="matrix(-.5546977,-.8320367,-.8320615,.55468109,55.775308,39.793016)" stroke-width=".3985" stroke-linecap="butt" stroke-miterlimit="10" stroke-linejoin="miter" fill="none" stroke="#000000" d="M4.21463 0 .64343 1.34572 1.8178 0 .64343-1.34572Z"/>
<path transform="matrix(1.00005,0,0,-1.00002,53.122697,52.82374)" stroke-width=".3985" stroke-linecap="butt" stroke-dasharray="2.98883,2.98883" stroke-miterlimit="10" stroke-linejoin="miter" fill="none" stroke="#000000" d="M-34.0185 0H30.95457"/>
<path transform="matrix(1.00005,0,0,-1.00002,82.36055,52.82374)" d="M4.21463 0 .64343 1.34572 1.8178 0 .64343-1.34572Z"/>
<path transform="matrix(1.00005,0,0,-1.00002,82.36055,52.82374)" stroke-width=".3985" stroke-linecap="butt" stroke-miterlimit="10" stroke-linejoin="miter" fill="none" stroke="#000000" d="M4.21463 0 .64343 1.34572 1.8178 0 .64343-1.34572Z"/>
</svg>
