<svg xmlns="http://www.w3.org/2000/svg" xmlns:xlink="http://www.w3.org/1999/xlink" xmlns:inkscape="http://www.inkscape.org/namespaces/inkscape" version="1.1" width="238" height="237" viewBox="0 0 238 237">
<defs>
<path id="font_1_63" d="M.5349884 0V.0309906C.48298646 .0309906 .45799256 .0309906 .45700074 .061019899V.25221253C.45700074 .3383026 .45700074 .36932374 .42599488 .405365 .4119873 .42237855 .3789978 .4423828 .32099916 .4423828 .23699951 .4423828 .19299317 .38233949 .1769867 .34629823H.17599488V.69433596L.03199768 .6826172V.6516113C.101989749 .6516113 .10998535 .64463809 .10998535 .59580996V.076034549C.10998535 .0309906 .09899902 .0309906 .03199768 .0309906V0L.14498902 .0029907227 .25698854 0V.0309906C.18998719 .0309906 .1789856 .0309906 .1789856 .076034549V.2602234C.1789856 .36431886 .25 .42037965 .31399537 .42037965 .3769989 .42037965 .3880005 .36631776 .3880005 .30926515V.076034549C.3880005 .0309906 .3769989 .0309906 .30999757 .0309906V0L.4229889 .0029907227 .5349884 0Z"/>
<path id="font_1_50" d="M.4149933 .11933899C.4149933 .12934876 .40699769 .13134766 .4019928 .13134766 .3929901 .13134766 .3909912 .12535095 .3889923 .11734009 .35398866 .014251709 .2639923 .014251709 .2539978 .014251709 .20399475 .014251709 .1639862 .044281007 .14099121 .08131409 .11099243 .12934876 .11099243 .19540406 .11099243 .23144531H.3899994C.4119873 .23144531 .4149933 .23144531 .4149933 .2524414 .4149933 .35131837 .36099244 .4482422 .23599243 .4482422 .11999512 .4482422 .027999878 .34532167 .027999878 .22042847 .027999878 .08631897 .1329956-.0107421879 .24798584-.0107421879 .36999513-.0107421879 .4149933 .10032654 .4149933 .11933899M.34899903 .2524414H.11199951C.117996219 .40126039 .20199585 .426239 .23599243 .426239 .33898927 .426239 .34899903 .2913971 .34899903 .2524414Z"/>
<path id="font_1_64" d="M.27598573 .18710327V.24511719H.010986328V.18710327H.27598573Z"/>
<path id="font_1_114" d="M.7029877 .3996582V.43066407C.68099978 .4286499 .6519928 .42765809 .6299896 .42765809L.5369873 .43066407V.3996582C.57299807 .39866639 .59498599 .38075257 .59498599 .35176087 .59498599 .34576417 .59498599 .34376527 .58999636 .33078004L.49899293 .07513428 .3999939 .35375978C.3959961 .36575318 .394989 .36775209 .394989 .37275697 .394989 .3996582 .43399049 .3996582 .45399476 .3996582V.43066407L.34999085 .42765809C.31999208 .42765809 .29100038 .4286499 .26098634 .43066407V.3996582C.2979889 .3996582 .31399537 .39767457 .32398988 .38476563 .32899476 .37875367 .33999635 .34877015 .34700013 .3297882L.26098634 .08811951 .1659851 .3547516C.16099549 .36676026 .16099549 .36875917 .16099549 .37275697 .16099549 .3996582 .19999695 .3996582 .21998596 .3996582V.43066407L.11099243 .42765809 .017990113 .43066407V.3996582C.067993167 .3996582 .07998657 .39668275 .09199524 .36476136L.21798706 .01121521C.22299195-.0027618409 .22599793-.0107421879 .23899842-.0107421879 .2519989-.0107421879 .2539978-.004760742 .25898744 .009216309L.3600006 .2918396 .46199037 .008224487C.46598817-.0027618409 .46899415-.0107421879 .48199464-.0107421879 .49499513-.0107421879 .49798585-.0017547608 .5019989 .008224487L.61898806 .3357849C.6369934 .38575746 .66799929 .39866639 .7029877 .3996582Z"/>
<path id="font_1_81" d="M.47099305 .21424866C.47099305 .34223939 .37098695 .4482422 .25 .4482422 .125 .4482422 .027999878 .3392334 .027999878 .21424866 .027999878 .085250858 .13198853-.0107421879 .24899292-.0107421879 .36999513-.0107421879 .47099305 .087249759 .47099305 .21424866M.3880005 .22224427C.3880005 .18624878 .3880005 .13224793 .3659973 .08824158 .34399415 .04324341 .2999878 .014251709 .25 .014251709 .20698548 .014251709 .16299439 .035247804 .13598633 .08125305 .11099243 .12524414 .11099243 .18624878 .11099243 .22224427 .11099243 .26124574 .11099243 .31523133 .1349945 .35923768 .1619873 .40522767 .20899964 .426239 .24899292 .426239 .29299928 .426239 .33599855 .40423585 .3619995 .36123658 .3880005 .3182373 .3880005 .26023866 .3880005 .22224427Z"/>
<path id="font_1_72" d="M.25498963 0V.0309906C.18798828 .0309906 .1769867 .0309906 .1769867 .07601929V.69433596L.032989503 .6826172V.6516113C.102996829 .6516113 .11099243 .64460757 .11099243 .5956421V.07595825C.11099243 .0309906 .099990848 .0309906 .032989503 .0309906V0L.14399719 .0029907227 .25498963 0Z"/>
<path id="font_1_55" d="M.35699464 .63479617C.35699464 .6717987 .31999208 .7050781 .2669983 .7050781 .19699097 .7050781 .11199951 .65179446 .11199951 .5457611V.43066407H.032989503V.3996582H.11199951V.07595825C.11199951 .0309906 .100997928 .0309906 .033996583 .0309906V0L.147995 .0029907227C.18798828 .0029907227 .23498535 .0029907227 .2749939 0V.0309906H.2539978C.17999268 .0309906 .17799378 .04197693 .17799378 .07795715V.3996582H.2919922V.43066407H.1749878V.5467529C.1749878 .63479617 .22299195 .68307498 .2669983 .68307498 .269989 .68307498 .2849884 .68307498 .2999878 .675827 .28799439 .6717987 .269989 .6587982 .269989 .6338043 .269989 .61079409 .28599549 .5907898 .31298829 .5907898 .34199525 .5907898 .35699464 .61079409 .35699464 .63479617Z"/>
<path id="font_1_35" d="M.5209961 .2163086C.5209961 .34335328 .4229889 .4423828 .30899049 .4423828 .23098755 .4423828 .18798828 .39537049 .17199707 .3773651V.69433596L.027999878 .68333438V.6523285C.09799194 .6523285 .10598755 .6453247 .10598755 .596344V.00024414063H.1309967L.16699219 .06227112C.18199158 .039260866 .22399903-.0107421879 .2979889-.0107421879 .4169922-.0107421879 .5209961 .08728027 .5209961 .2163086M.43798829 .21731568C.43798829 .18029785 .43598939 .120285037 .40699769 .07527161 .38598634 .044265748 .34799195 .011245728 .2939911 .011245728 .24899292 .011260986 .21299744 .03526306 .18899536 .072265628 .1749878 .09326172 .1749878 .09625244 .1749878 .11425781V.32034303C.1749878 .3393402 .1749878 .3403473 .18598938 .35635377 .22499085 .41236878 .27999879 .42037965 .3039856 .42037965 .34899903 .42037965 .3849945 .3943634 .40899659 .35635377 .43499757 .31533814 .43798829 .25831605 .43798829 .21730042V.21731568Z"/>
<path id="font_1_28" d="M.48298646 .08912659V.14511109H.45799256V.08912659C.45799256 .03112793 .43299867 .025131226 .42199708 .025131226 .3889923 .025131226 .3849945 .070129398 .3849945 .07511902V.27508546C.3849945 .31707765 .3849945 .3560791 .34899903 .39312745 .30999757 .43223573 .2599945 .4482422 .21199036 .4482422 .12998963 .4482422 .06098938 .40115357 .06098938 .335083 .06098938 .30508424 .08099365 .28808595 .10699463 .28808595 .1349945 .28808595 .15299988 .30807496 .15299988 .33407594 .15299988 .3460846 .147995 .37908937 .101989749 .38008119 .1289978 .41519166 .17799378 .426239 .20999146 .426239 .25898744 .426239 .31599427 .38710023 .31599427 .29808045V.26107789C.2649994 .25808717 .19499207 .25508119 .13198853 .22509766 .056991579 .19110108 .03199768 .13911438 .03199768 .09512329 .03199768 .014251709 .1289978-.0107421879 .19198609-.0107421879 .2579956-.0107421879 .3039856 .029251099 .32299806 .07624817 .32699586 .036132814 .35398866-.005859375 .40098573-.005859375 .42199708-.005859375 .48298646 .008132935 .48298646 .08912659M.31599427 .14013672C.31599427 .04525757 .24398804 .011245728 .19898987 .011245728 .1499939 .011245728 .10899353 .04624939 .10899353 .09625244 .10899353 .15124512 .15098572 .23425293 .31599427 .24024964V.14013672Z"/>
<path id="font_1_96" d="M.3639984 .38137818C.3639984 .41337586 .33299256 .4423828 .2899933 .4423828 .21699524 .4423828 .18099976 .37538148 .16699219 .3323822V.4423828L.027999878 .43066407V.3996582C.09799194 .3996582 .10598755 .39266969 .10598755 .34370423V.07595825C.10598755 .0309906 .09498596 .0309906 .027999878 .0309906V0L.14199829 .0029907227C.18199158 .0029907227 .22898865 .0029907227 .2689972 0V.0309906H.24798584C.17399597 .0309906 .17199707 .04197693 .17199707 .07795715V.23181153C.17199707 .33137513 .21398926 .42037965 .2899933 .42037965 .29699708 .42037965 .29899598 .42037965 .30099488 .41937257 .2979889 .41838075 .27799989 .40637208 .27799989 .3803711 .27799989 .35237123 .29899598 .33737184 .32099916 .33737184 .33898927 .33737184 .3639984 .3493805 .3639984 .38137818Z"/>
<path id="font_1_98" d="M.3600006 .12823487C.3600006 .18122864 .32998658 .21122742 .31799317 .22323609 .2849884 .25523377 .24598694 .26322938 .20399475 .27124024 .147995 .28224183 .08099365 .29522706 .08099365 .35324098 .08099365 .38822938 .10699463 .42922975 .19299317 .42922975 .30299378 .42922975 .30799867 .3392334 .30999757 .30822755 .31098939 .2992401 .32199098 .2992401 .32199098 .2992401 .33499146 .2992401 .33499146 .30422975 .33499146 .32322694V.4242401C.33499146 .4412384 .33499146 .4482422 .32398988 .4482422 .31900025 .4482422 .31698609 .4482422 .3039856 .43623353 .30099488 .43223573 .29100038 .42323304 .2869873 .42022706 .24899292 .4482422 .20799256 .4482422 .19299317 .4482422 .070999149 .4482422 .032989503 .38124085 .032989503 .3252411 .032989503 .29023744 .04899597 .26223756 .07598877 .24023438 .10798645 .2142334 .13598633 .2082367 .20799256 .19422913 .22999573 .19021607 .31199647 .17422486 .31199647 .10221863 .31199647 .051223756 .2769928 .011245728 .19898987 .011245728 .114990238 .011245728 .07899475 .068222049 .05999756 .1532135 .056991579 .16621399 .055999757 .17021179 .04598999 .17021179 .032989503 .17021179 .032989503 .16322327 .032989503 .1452179V.013214111C.032989503-.003753662 .032989503-.0107421879 .04399109-.0107421879 .04899597-.0107421879 .049987794-.009750366 .068984989 .009246826 .070999149 .011245728 .070999149 .013214111 .08898926 .032226564 .1329956-.009750366 .17799378-.0107421879 .19898987-.0107421879 .31399537-.0107421879 .3600006 .05621338 .3600006 .1282196V.12823487Z"/>
<path id="font_2_2" d="M.08799744 .059265138C.084991458 .044265748 .07899475 .021255494 .07899475 .01625061 .07899475-.0017547608 .09298706-.0107421879 .10798645-.0107421879 .11999512-.0107421879 .13798523-.002746582 .14498902 .01725769 .1459961 .019256592 .1579895 .06626892 .1639862 .091278079L.18598938 .18130493C.19198609 .2033081 .19799805 .22531128 .20298767 .24832154 .20698548 .26531983 .21499634 .29434205 .21598816 .29833985 .23098755 .3293457 .28399659 .42037965 .3789978 .42037965 .42399598 .42037965 .43299867 .38336183 .43299867 .35035707 .43299867 .3253479 .42599488 .29733277 .41799928 .26733399L.3899994 .1512909 .36999513 .07527161C.3659973 .055267335 .35699464 .021255494 .35699464 .01625061 .35699464-.0017547608 .37098695-.0107421879 .38598634-.0107421879 .4169922-.0107421879 .4229889 .014251709 .43099977 .04626465 .44499208 .10227966 .48199464 .24832154 .4909973 .28733827 .49398805 .30033876 .5469971 .42037965 .6559906 .42037965 .69898989 .42037965 .70999148 .3863678 .70999148 .35035707 .70999148 .29333497 .66799929 .17930603 .647995 .12628174 .6389923 .10227966 .6349945 .091278079 .6349945 .0712738 .6349945 .024261475 .66999819-.0107421879 .71699526-.0107421879 .8109894-.0107421879 .84799197 .13528443 .84799197 .14329529 .84799197 .1532898 .83898928 .1532898 .83599856 .1532898 .82598879 .1532898 .82598879 .15029907 .82099917 .13528443 .80599978 .08227539 .7739868 .011245728 .71899417 .011245728 .70199587 .011245728 .69499209 .021255494 .69499209 .044265748 .69499209 .0692749 .70399478 .09327698 .71299746 .11528015 .7319946 .16729737 .7739868 .27833558 .7739868 .3353424 .7739868 .4003601 .73399356 .4423828 .6589966 .4423828 .58399966 .4423828 .5329895 .3983612 .49598695 .34535218 .49499513 .35835267 .49198915 .3923645 .46398927 .41636659 .43899537 .43737794 .40699769 .4423828 .38198854 .4423828 .2919922 .4423828 .24299622 .37835694 .22599793 .35534669 .22099304 .41236878 .1789856 .4423828 .13398743 .4423828 .08799744 .4423828 .068984989 .4033661 .05999756 .38536073 .041992189 .35035707 .0289917 .29133607 .0289917 .28833009 .0289917 .27833558 .038986207 .27833558 .040985109 .27833558 .050994874 .27833558 .051986696 .2793274 .057998659 .30133058 .07499695 .37236024 .09498596 .42037965 .1309967 .42037965 .14698792 .42037965 .1619873 .41236878 .1619873 .37435914 .1619873 .35334779 .15899658 .3423462 .1459961 .29032899L.08799744 .059265138Z"/>
<path id="font_3_2" d="M.84298709 .6901245C.84298709 .69511416 .83999636 .703125 .8299866 .703125 .82299807 .703125 .82099917 .70111086 .81199648 .69111636L.7389984 .614151C.7299957 .6261444 .673996 .703125 .5509949 .703125 .30799867 .703125 .069992069 .4882202 .069992069 .26235963 .069992069 .107421878 .18798828-.01953125 .37998963-.01953125 .46798707-.01953125 .5609894 .0034637452 .61299136 .059448244 .6230011 .03744507 .6499939 .0014648438 .6619873 .0014648438 .67099 .0014648438 .6729889 .0054626467 .6779938 .02645874L.69699099 .10342407C.70199587 .121414188 .71598818 .18138123 .71899417 .19337464 .73098757 .23835755 .7319946 .23936463 .79100039 .24035645 .7979889 .24035645 .8129883 .24035645 .8129883 .26135255 .8129883 .2713623 .80599978 .2763672 .7979889 .2763672 .7649994 .2763672 .72299197 .27235414 .6879883 .27235414 .6629944 .27235414 .6299896 .27235414 .6049957 .2733612 .5799866 .27435304 .5509949 .2763672 .526001 .2763672 .5189972 .2763672 .5039978 .2763672 .5039978 .254364 .5039978 .24035645 .5149994 .24035645 .5399933 .24035645 .5589905 .24035645 .57899478 .24035645 .59799197 .23835755 .6299896 .23536682 .6309967 .23136902 .6309967 .21936035 .6309967 .21536255 .6309967 .21336365 .6239929 .18737793 .61698916 .15939331 .60598757 .1144104 .60198977 .10441589 .57299807 .043441774 .47999574 .016464234 .4019928 .016464234 .3019867 .016464234 .17098999 .064437869 .17098999 .23336792 .17098999 .34031678 .22099304 .47424317 .29499818 .54919436 .397995 .65112307 .5049896 .66711428 .5609894 .66711428 .6769867 .66711428 .7449951 .58317568 .7449951 .47123719 .7449951 .44325257 .74198916 .43626405 .74198916 .43026734 .74198916 .41726686 .7549896 .41726686 .7599945 .41726686 .776001 .41726686 .776001 .42027284 .7809906 .43925477L.84298709 .6901245Z"/>
<path id="font_4_1" d="M.69999697 .46954347C.71099856 .48054505 .71398928 .48654176 .71398928 .49354554 .71398928 .509552 .70098879 .5185547 .6899872 .5185547 .6799927 .5185547 .6769867 .5155487 .6649933 .50354006L.44599916 .28547669 .22599793 .5045471C.21598816 .5145416 .21199036 .5185547 .20298767 .5185547 .18899536 .5185547 .17799378 .5075531 .17799378 .49354554 .17799378 .48454286 .18099976 .48153688 .19299317 .46954347L.41099549 .25146485 .19299317 .03340149C.1789856 .01939392 .17799378 .014389038 .17799378 .008392334 .17799378-.0056152346 .18899536-.016601563 .20298767-.016601563 .21199036-.016601563 .21499634-.01361084 .22599793-.002609253L.44599916 .21646118 .673996-.0116119389C.67900088-.014602661 .6839905-.016601563 .6899872-.016601563 .70098879-.016601563 .71398928-.0076141359 .71398928 .008392334 .71398928 .01638794 .71199038 .0184021 .70899966 .021392823 .70700076 .025390625 .5130005 .2194519 .48098756 .25047303L.69999697 .46954347Z"/>
<path id="font_3_1" d="M.84298709 .6901245C.84298709 .69511416 .83999636 .703125 .8299866 .703125 .82299807 .703125 .82099917 .70111086 .81199648 .69111636L.7389984 .61413577C.7299957 .62612918 .673996 .703125 .5509949 .703125 .30799867 .703125 .069992069 .48820497 .069992069 .2623291 .069992069 .09941101 .19799805-.01953125 .3769989-.01953125 .43099977-.01953125 .5269928-.008544922 .6299896 .078430179 .70899966 .14538574 .73098757 .23234558 .73098757 .24034119 .73098757 .25334168 .71899417 .25334168 .71398928 .25334168 .70098879 .25334168 .69898989 .24833679 .69599917 .23735047 .6549988 .10041809 .5149994 .016464234 .3939972 .016464234 .28799439 .016464234 .16999817 .07342529 .16999817 .23135376 .16999817 .2603302 .1769867 .4182434 .2919922 .5441742 .36099244 .6211395 .46598817 .66711428 .5609894 .66711428 .6769867 .66711428 .7449951 .5831604 .7449951 .47122193 .7449951 .4432373 .74198916 .43623353 .74198916 .43023683 .74198916 .4172516 .7549896 .4172516 .7599945 .4172516 .776001 .4172516 .776001 .4202423 .7809906 .4392395L.84298709 .6901245Z"/>
<path id="font_2_1" d="M.36698915 .3996582H.45298768C.47299195 .3996582 .48298646 .3996582 .48298646 .41966249 .48298646 .43066407 .47299195 .43066407 .45599366 .43066407H.37298585L.3939972 .5449524C.397995 .5660095 .4119873 .6370239 .41799928 .6490326 .4269867 .66804507 .44400025 .68307498 .46499635 .68307498 .46899415 .68307498 .49499513 .68307498 .5139923 .66503909 .46998597 .661026 .45999146 .6260376 .45999146 .6110382 .45999146 .58802798 .47799684 .57603457 .49699403 .57603457 .522995 .57603457 .5519867 .5980377 .5519867 .6360321 .5519867 .6820679 .5059967 .7050781 .46499635 .7050781 .43099977 .7050781 .36799623 .68707278 .33799745 .58802798 .33198548 .56700137 .32899476 .5569763 .30499269 .43066407H.23599243C.21699524 .43066407 .20599365 .43066407 .20599365 .4116516 .20599365 .3996582 .21499634 .3996582 .23399353 .3996582H.2999878L.22499085 .0048828127C.20698548-.09207153 .18998719-.18309021 .13798523-.18309021 .13398743-.18309021 .10899353-.18309021 .08999634-.16506958 .13598633-.1620636 .14498902-.12606812 .14498902-.111068729 .14498902-.08807373 .1269989-.07606506 .10798645-.07606506 .08198547-.07606506 .052993776-.09806824 .052993776-.13606262 .052993776-.18109131 .09700012-.20507813 .13798523-.20507813 .19299317-.20507813 .23298645-.14607239 .25099183-.108062747 .2829895-.04508972 .30599977 .07583618 .30699159 .082839969L.36698915 .3996582Z"/>
<path id="font_1_75" d="M.8129883 0V.0309906C.7609863 .0309906 .73599246 .0309906 .7350006 .061019899V.25221253C.7350006 .3383026 .7350006 .36932374 .70399478 .405365 .6899872 .42237855 .6569977 .4423828 .598999 .4423828 .5149994 .4423828 .47099305 .38233949 .45399476 .34429933 .43998719 .43138124 .3659973 .4423828 .32099916 .4423828 .24798584 .4423828 .20098877 .39935304 .17298889 .33729554V.4423828L.03199768 .43066407V.3996582C.101989749 .3996582 .10998535 .39266969 .10998535 .34370423V.07595825C.10998535 .0309906 .09899902 .0309906 .03199768 .0309906V0L.14498902 .0029907227 .25698854 0V.0309906C.18998719 .0309906 .1789856 .0309906 .1789856 .07595825V.25978089C.1789856 .36431886 .25 .42037965 .31399537 .42037965 .3769989 .42037965 .3880005 .36631776 .3880005 .30926515V.076034549C.3880005 .0309906 .3769989 .0309906 .30999757 .0309906V0L.4229889 .0029907227 .5349884 0V.0309906C.46798707 .0309906 .45700074 .0309906 .45700074 .076034549V.2602234C.45700074 .36431886 .5279999 .42037965 .59199526 .42037965 .6549988 .42037965 .66600039 .36631776 .66600039 .30926515V.076034549C.66600039 .0309906 .6549988 .0309906 .58799746 .0309906V0L.70098879 .0029907227 .8129883 0Z"/>
</defs>
<use data-text="h" xlink:href="#font_1_63" transform="matrix(9.963098,0,0,-9.963098,121.529567,47.77659)"/>
<use data-text="e" xlink:href="#font_1_50" transform="matrix(9.963098,0,0,-9.963098,127.06904,47.77659)"/>
<use data-text="-" xlink:href="#font_1_64" transform="matrix(9.963098,0,0,-9.963098,131.49268,47.77659)"/>
<use data-text="w" xlink:href="#font_1_114" transform="matrix(9.963098,0,0,-9.963098,134.8104,47.77659)"/>
<use data-text="o" xlink:href="#font_1_81" transform="matrix(9.963098,0,0,-9.963098,141.73471,47.77659)"/>
<use data-text="l" xlink:href="#font_1_72" transform="matrix(9.963098,0,0,-9.963098,146.71628,47.77659)"/>
<use data-text="f" xlink:href="#font_1_55" transform="matrix(9.963098,0,0,-9.963098,149.48603,47.77659)"/>
<use data-text="h" xlink:href="#font_1_63" transform="matrix(9.963098,0,0,-9.963098,177.51837,47.72159)"/>
<use data-text="e" xlink:href="#font_1_50" transform="matrix(9.963098,0,0,-9.963098,183.05783,47.72159)"/>
<use data-text="-" xlink:href="#font_1_64" transform="matrix(9.963098,0,0,-9.963098,187.48148,47.72159)"/>
<use data-text="b" xlink:href="#font_1_35" transform="matrix(9.963098,0,0,-9.963098,190.7992,47.72159)"/>
<use data-text="e" xlink:href="#font_1_50" transform="matrix(9.963098,0,0,-9.963098,196.60767,47.72159)"/>
<use data-text="a" xlink:href="#font_1_28" transform="matrix(9.963098,0,0,-9.963098,201.04126,47.72159)"/>
<use data-text="r" xlink:href="#font_1_96" transform="matrix(9.963098,0,0,-9.963098,206.0228,47.72159)"/>
<use data-text="s" xlink:href="#font_1_98" transform="matrix(9.963098,0,0,-9.963098,119.56647,104.47342)"/>
<use data-text="h" xlink:href="#font_1_63" transform="matrix(9.963098,0,0,-9.963098,123.49193,104.47342)"/>
<use data-text="e" xlink:href="#font_1_50" transform="matrix(9.963098,0,0,-9.963098,129.0314,104.47342)"/>
<use data-text="-" xlink:href="#font_1_64" transform="matrix(9.963098,0,0,-9.963098,133.45503,104.47342)"/>
<use data-text="w" xlink:href="#font_1_114" transform="matrix(9.963098,0,0,-9.963098,136.77275,104.47342)"/>
<use data-text="o" xlink:href="#font_1_81" transform="matrix(9.963098,0,0,-9.963098,143.69709,104.47342)"/>
<use data-text="l" xlink:href="#font_1_72" transform="matrix(9.963098,0,0,-9.963098,148.67864,104.47342)"/>
<use data-text="f" xlink:href="#font_1_55" transform="matrix(9.963098,0,0,-9.963098,151.44838,104.47342)"/>
<use data-text="s" xlink:href="#font_1_98" transform="matrix(9.963098,0,0,-9.963098,175.55527,104.41841)"/>
<use data-text="h" xlink:href="#font_1_63" transform="matrix(9.963098,0,0,-9.963098,179.48073,104.41841)"/>
<use data-text="e" xlink:href="#font_1_50" transform="matrix(9.963098,0,0,-9.963098,185.0202,104.41841)"/>
<use data-text="-" xlink:href="#font_1_64" transform="matrix(9.963098,0,0,-9.963098,189.44384,104.41841)"/>
<use data-text="b" xlink:href="#font_1_35" transform="matrix(9.963098,0,0,-9.963098,192.76155,104.41841)"/>
<use data-text="e" xlink:href="#font_1_50" transform="matrix(9.963098,0,0,-9.963098,198.57999,104.41841)"/>
<use data-text="a" xlink:href="#font_1_28" transform="matrix(9.963098,0,0,-9.963098,203.0036,104.41841)"/>
<use data-text="r" xlink:href="#font_1_96" transform="matrix(9.963098,0,0,-9.963098,207.98514,104.41841)"/>
<use data-text="m" xlink:href="#font_2_2" transform="matrix(9.963098,0,0,-9.963098,151.43607,116.173007)" fill="#ff0000"/>
<use data-text="G" xlink:href="#font_3_2" transform="matrix(6.9741489,0,0,-6.9741489,160.1835,117.668079)" fill="#ff0000"/>
<use data-text="&#x00d7;" xlink:href="#font_4_1" transform="matrix(6.9741489,0,0,-6.9741489,166.38681,117.668079)" fill="#ff0000"/>
<use data-text="C" xlink:href="#font_3_1" transform="matrix(6.9741489,0,0,-6.9741489,172.61414,117.668079)" fill="#ff0000"/>
<use data-text="f" xlink:href="#font_2_1" transform="matrix(9.963098,0,0,-9.963098,153.37116,63.62538)" fill="#0000ff"/>
<use data-text="G" xlink:href="#font_3_2" transform="matrix(6.9741489,0,0,-6.9741489,158.2494,65.12045)" fill="#0000ff"/>
<use data-text="&#x00d7;" xlink:href="#font_4_1" transform="matrix(6.9741489,0,0,-6.9741489,164.45172,65.12045)" fill="#0000ff"/>
<use data-text="C" xlink:href="#font_3_1" transform="matrix(6.9741489,0,0,-6.9741489,170.67903,65.12045)" fill="#0000ff"/>
<path transform="matrix(1.00005,0,0,-1.00005,108.678928,72.66783)" stroke-width=".3985" stroke-linecap="butt" stroke-miterlimit="10" stroke-linejoin="miter" fill="none" stroke="#000000" d="M127.56065 0C127.56065 39.13928 95.8329 70.86703 56.69362 70.86703 17.55432 70.86703-14.17342 39.13928-14.17342 0-14.17342-39.13928 17.55432-70.86703 56.69362-70.86703 95.8329-70.86703 127.56065-39.13928 127.56065 0ZM56.69362 0"/>
<path transform="matrix(1.00005,0,0,-1.00005,108.678928,72.66783)" stroke-width=".3985" stroke-linecap="butt" stroke-miterlimit="10" stroke-linejoin="miter" fill="none" stroke="#ff0000" d="M28.3468 21.26033V-18.19641"/>
<path transform="matrix(0,1.00005,1.00005,0,137.02715,89.14688)" d="M4.21463 0 .64343 1.34572 1.8178 0 .64343-1.34572Z" fill="#ff0000"/>
<path transform="matrix(0,1.00005,1.00005,0,137.02715,89.14688)" stroke-width=".3985" stroke-linecap="butt" stroke-miterlimit="10" stroke-linejoin="miter" fill="none" stroke="#ff0000" d="M4.21463 0 .64343 1.34572 1.8178 0 .64343-1.34572Z"/>
<path transform="matrix(1.00005,0,0,-1.00005,108.678928,72.66783)" stroke-width=".3985" stroke-linecap="butt" stroke-miterlimit="10" stroke-linejoin="miter" fill="none" stroke="#0000ff" d="M40.61913 21.26033C51.51923 14.99199 61.98434 15.00955 70.21227 19.77876"/>
<path transform="matrix(.86518326,-.501455,-.501455,-.86518326,177.40814,53.749689)" d="M4.21463 0 .64343 1.34572 1.8178 0 .64343-1.34572Z" fill="#0000ff"/>
<path transform="matrix(.86518326,-.501455,-.501455,-.86518326,177.40814,53.749689)" stroke-width=".3985" stroke-linecap="butt" stroke-miterlimit="10" stroke-linejoin="miter" fill="none" stroke="#0000ff" d="M4.21463 0 .64343 1.34572 1.8178 0 .64343-1.34572Z"/>
<path transform="matrix(1.00005,0,0,-1.00005,108.678928,72.66783)" stroke-width=".3985" stroke-linecap="butt" stroke-miterlimit="10" stroke-linejoin="miter" fill="none" stroke="#ff0000" d="M25.76843-35.43327C20.26341-50.55565 36.43019-50.55565 31.97316-38.31233"/>
<path transform="matrix(-.34205709,-.93971696,-.93971696,.34205709,141.2414,112.59668)" d="M4.21463 0 .64343 1.34572 1.8178 0 .64343-1.34572Z" fill="#ff0000"/>
<path transform="matrix(-.34205709,-.93971696,-.93971696,.34205709,141.2414,112.59668)" stroke-width=".3985" stroke-linecap="butt" stroke-miterlimit="10" stroke-linejoin="miter" fill="none" stroke="#ff0000" d="M4.21463 0 .64343 1.34572 1.8178 0 .64343-1.34572Z"/>
<path transform="matrix(1.00005,0,0,-1.00005,108.678928,72.66783)" stroke-width=".3985" stroke-linecap="butt" stroke-miterlimit="10" stroke-linejoin="miter" fill="none" stroke="#0000ff" d="M35.42992-21.26033 75.84618 19.14883"/>
<path transform="matrix(.7071853,-.7070653,-.7070653,-.7071853,183.31381,54.732919)" d="M4.21463 0 .64343 1.34572 1.8178 0 .64343-1.34572Z" fill="#0000ff"/>
<path transform="matrix(.7071853,-.7070653,-.7070653,-.7071853,183.31381,54.732919)" stroke-width=".3985" stroke-linecap="butt" stroke-miterlimit="10" stroke-linejoin="miter" fill="none" stroke="#0000ff" d="M4.21463 0 .64343 1.34572 1.8178 0 .64343-1.34572Z"/>
<path transform="matrix(1.00005,0,0,-1.00005,108.678928,72.66783)" stroke-width=".3985" stroke-linecap="butt" stroke-miterlimit="10" stroke-linejoin="miter" fill="none" stroke="#ff0000" d="M85.04042 21.31511V-18.2512"/>
<path transform="matrix(0,1.00005,1.00005,0,193.7236,89.20166)" d="M4.21463 0 .64343 1.34572 1.8178 0 .64343-1.34572Z" fill="#ff0000"/>
<path transform="matrix(0,1.00005,1.00005,0,193.7236,89.20166)" stroke-width=".3985" stroke-linecap="butt" stroke-miterlimit="10" stroke-linejoin="miter" fill="none" stroke="#ff0000" d="M4.21463 0 .64343 1.34572 1.8178 0 .64343-1.34572Z"/>
<path transform="matrix(1.00005,0,0,-1.00005,108.678928,72.66783)" stroke-width=".3985" stroke-linecap="butt" stroke-miterlimit="10" stroke-linejoin="miter" fill="none" stroke="#0000ff" d="M72.86296 35.3785C61.98434 41.68405 51.51923 41.70161 43.27509 36.9606"/>
<path transform="matrix(-.8668933,.4985149,.4985149,.8668933,153.44567,34.848836)" d="M4.21463 0 .64343 1.34572 1.8178 0 .64343-1.34572Z" fill="#0000ff"/>
<path transform="matrix(-.8668933,.4985149,.4985149,.8668933,153.44567,34.848836)" stroke-width=".3985" stroke-linecap="butt" stroke-miterlimit="10" stroke-linejoin="miter" fill="none" stroke="#0000ff" d="M4.21463 0 .64343 1.34572 1.8178 0 .64343-1.34572Z"/>
<path transform="matrix(1.00005,0,0,-1.00005,108.678928,72.66783)" stroke-width=".3985" stroke-linecap="butt" stroke-miterlimit="10" stroke-linejoin="miter" fill="none" stroke="#ff0000" d="M82.48187-35.3785C77.01945-50.38419 93.0614-50.38419 88.64696-38.25755"/>
<path transform="matrix(-.34205709,-.93971696,-.93971696,.34205709,197.91803,112.541889)" d="M4.21463 0 .64343 1.34572 1.8178 0 .64343-1.34572Z" fill="#ff0000"/>
<path transform="matrix(-.34205709,-.93971696,-.93971696,.34205709,197.91803,112.541889)" stroke-width=".3985" stroke-linecap="butt" stroke-miterlimit="10" stroke-linejoin="miter" fill="none" stroke="#ff0000" d="M4.21463 0 .64343 1.34572 1.8178 0 .64343-1.34572Z"/>
<path transform="matrix(1.00005,0,0,-1.00005,108.678928,72.66783)" stroke-width=".3985" stroke-linecap="butt" stroke-miterlimit="10" stroke-linejoin="miter" fill="none" stroke="#0000ff" d="M78.00917-21.31511 37.59576 19.09395"/>
<path transform="matrix(-.7071754,-.7070953,-.7070953,.7071754,147.49163,54.78785)" d="M4.21463 0 .64343 1.34572 1.8178 0 .64343-1.34572Z" fill="#0000ff"/>
<path transform="matrix(-.7071754,-.7070953,-.7070953,.7071754,147.49163,54.78785)" stroke-width=".3985" stroke-linecap="butt" stroke-miterlimit="10" stroke-linejoin="miter" fill="none" stroke="#0000ff" d="M4.21463 0 .64343 1.34572 1.8178 0 .64343-1.34572Z"/>
<use data-text="f" xlink:href="#font_1_55" transform="matrix(9.963098,0,0,-9.963098,9.66098,104.47342)"/>
<use data-text="e" xlink:href="#font_1_50" transform="matrix(9.963098,0,0,-9.963098,12.709686,104.47342)"/>
<use data-text="m" xlink:href="#font_1_75" transform="matrix(9.963098,0,0,-9.963098,17.133316,104.47342)"/>
<use data-text="a" xlink:href="#font_1_28" transform="matrix(9.963098,0,0,-9.963098,25.432572,104.47342)"/>
<use data-text="l" xlink:href="#font_1_72" transform="matrix(9.963098,0,0,-9.963098,30.414109,104.47342)"/>
<use data-text="e" xlink:href="#font_1_50" transform="matrix(9.963098,0,0,-9.963098,33.183855,104.47342)"/>
<use data-text="m" xlink:href="#font_1_75" transform="matrix(9.963098,0,0,-9.963098,13.397156,47.72159)"/>
<use data-text="a" xlink:href="#font_1_28" transform="matrix(9.963098,0,0,-9.963098,21.696427,47.72159)"/>
<use data-text="l" xlink:href="#font_1_72" transform="matrix(9.963098,0,0,-9.963098,26.677964,47.72159)"/>
<use data-text="e" xlink:href="#font_1_50" transform="matrix(9.963098,0,0,-9.963098,29.447709,47.72159)"/>
<use data-text="m" xlink:href="#font_2_2" transform="matrix(9.963098,0,0,-9.963098,32.919145,92.49182)" fill="#ff0000"/>
<use data-text="G" xlink:href="#font_3_2" transform="matrix(6.9741489,0,0,-6.9741489,41.66658,93.98689)" fill="#ff0000"/>
<use data-text="f" xlink:href="#font_2_1" transform="matrix(9.963098,0,0,-9.963098,.8355408,56.732034)" fill="#0000ff"/>
<use data-text="G" xlink:href="#font_3_2" transform="matrix(6.9741489,0,0,-6.9741489,5.713791,58.22711)" fill="#0000ff"/>
<path transform="matrix(1.00005,0,0,-1.00005,108.678928,72.66783)" stroke-width=".3985" stroke-linecap="butt" stroke-miterlimit="10" stroke-linejoin="miter" fill="none" stroke="#000000" d="M-63.78032 0C-63.78032 39.13927-73.29865 70.867-85.04042 70.867-96.7822 70.867-106.30052 39.13927-106.30052 0-106.30052-39.13927-96.7822-70.867-85.04042-70.867-73.29865-70.867-63.78032-39.13927-63.78032 0ZM-85.04042 0"/>
<path transform="matrix(1.00005,0,0,-1.00005,108.678928,72.66783)" stroke-width=".3985" stroke-linecap="butt" stroke-miterlimit="10" stroke-linejoin="miter" fill="none" stroke="#ff0000" d="M-92.12668-35.43327C-115.57857-58.88431-54.50227-58.88431-75.78766-37.5997"/>
<path transform="matrix(-.7071353,-.70711538,-.70711538,.7071353,34.102479,111.484348)" d="M4.21463 0 .64343 1.34572 1.8178 0 .64343-1.34572Z" fill="#ff0000"/>
<path transform="matrix(-.7071353,-.70711538,-.70711538,.7071353,34.102479,111.484348)" stroke-width=".3985" stroke-linecap="butt" stroke-miterlimit="10" stroke-linejoin="miter" fill="none" stroke="#ff0000" d="M4.21463 0 .64343 1.34572 1.8178 0 .64343-1.34572Z"/>
<path transform="matrix(1.00005,0,0,-1.00005,108.678928,72.66783)" stroke-width=".3985" stroke-linecap="butt" stroke-miterlimit="10" stroke-linejoin="miter" fill="none" stroke="#0000ff" d="M-92.06985 35.3785C-115.3428 58.64854-54.73805 58.64854-75.84439 37.54482"/>
<path transform="matrix(-.7071754,.7070854,.7070854,.7071754,34.04579,33.906236)" d="M4.21463 0 .64343 1.34572 1.8178 0 .64343-1.34572Z" fill="#0000ff"/>
<path transform="matrix(-.7071754,.7070854,.7070854,.7071754,34.04579,33.906236)" stroke-width=".3985" stroke-linecap="butt" stroke-miterlimit="10" stroke-linejoin="miter" fill="none" stroke="#0000ff" d="M4.21463 0 .64343 1.34572 1.8178 0 .64343-1.34572Z"/>
<path transform="matrix(1.00005,0,0,-1.00005,108.678928,72.66783)" stroke-width=".3985" stroke-linecap="butt" stroke-miterlimit="10" stroke-linejoin="miter" fill="none" stroke="#ff0000" d="M-80.98329 21.31511C-72.6711 6.94276-72.66098-6.87558-79.42177-18.60582"/>
<path transform="matrix(-.49935497,.86642327,.86642327,.49935497,30.111176,89.785907)" d="M4.21463 0 .64343 1.34572 1.8178 0 .64343-1.34572Z" fill="#ff0000"/>
<path transform="matrix(-.49935497,.86642327,.86642327,.49935497,30.111176,89.785907)" stroke-width=".3985" stroke-linecap="butt" stroke-miterlimit="10" stroke-linejoin="miter" fill="none" stroke="#ff0000" d="M4.21463 0 .64343 1.34572 1.8178 0 .64343-1.34572Z"/>
<path transform="matrix(1.00005,0,0,-1.00005,108.678928,72.66783)" stroke-width=".3985" stroke-linecap="butt" stroke-miterlimit="10" stroke-linejoin="miter" fill="none" stroke="#0000ff" d="M-89.12918-21.26033C-97.41986-6.87558-97.40974 6.94276-90.63142 18.66286"/>
<path transform="matrix(.50065508,-.8656932,-.8656932,-.50065508,17.182755,55.49147)" d="M4.21463 0 .64343 1.34572 1.8178 0 .64343-1.34572Z" fill="#0000ff"/>
<path transform="matrix(.50065508,-.8656932,-.8656932,-.50065508,17.182755,55.49147)" stroke-width=".3985" stroke-linecap="butt" stroke-miterlimit="10" stroke-linejoin="miter" fill="none" stroke="#0000ff" d="M4.21463 0 .64343 1.34572 1.8178 0 .64343-1.34572Z"/>
<use data-text="w" xlink:href="#font_1_114" transform="matrix(9.963098,0,0,-9.963098,128.16989,217.86608)"/>
<use data-text="o" xlink:href="#font_1_81" transform="matrix(9.963098,0,0,-9.963098,135.08429,217.86608)"/>
<use data-text="l" xlink:href="#font_1_72" transform="matrix(9.963098,0,0,-9.963098,140.06583,217.86608)"/>
<use data-text="f" xlink:href="#font_1_55" transform="matrix(9.963098,0,0,-9.963098,142.83557,217.86608)"/>
<use data-text="b" xlink:href="#font_1_35" transform="matrix(9.963098,0,0,-9.963098,184.15869,217.81108)"/>
<use data-text="e" xlink:href="#font_1_50" transform="matrix(9.963098,0,0,-9.963098,189.96718,217.81108)"/>
<use data-text="a" xlink:href="#font_1_28" transform="matrix(9.963098,0,0,-9.963098,194.39081,217.81108)"/>
<use data-text="r" xlink:href="#font_1_96" transform="matrix(9.963098,0,0,-9.963098,199.37235,217.81108)"/>
<use data-text="m" xlink:href="#font_2_2" transform="matrix(9.963098,0,0,-9.963098,157.65038,234.23291)" fill="#ff0000"/>
<use data-text="C" xlink:href="#font_3_1" transform="matrix(6.9741489,0,0,-6.9741489,166.39781,235.72798)" fill="#ff0000"/>
<use data-text="f" xlink:href="#font_2_1" transform="matrix(9.963098,0,0,-9.963098,159.58547,211.22975)" fill="#0000ff"/>
<use data-text="C" xlink:href="#font_3_1" transform="matrix(6.9741489,0,0,-6.9741489,164.46372,212.72483)" fill="#0000ff"/>
<path transform="matrix(1.00005,0,0,-1.00005,108.678928,72.66783)" stroke-width=".3985" stroke-linecap="butt" stroke-miterlimit="10" stroke-linejoin="miter" fill="none" stroke="#000000" d="M127.56062-141.73404C127.56062-129.99227 95.83289-120.47394 56.69362-120.47394 17.55434-120.47394-14.17339-129.99227-14.17339-141.73404-14.17339-153.47582 17.55434-162.99414 56.69362-162.99414 95.83289-162.99414 127.56062-153.47582 127.56062-141.73404ZM56.69362-141.73404"/>
<path transform="matrix(1.00005,0,0,-1.00005,108.678928,72.66783)" stroke-width=".3985" stroke-linecap="butt" stroke-miterlimit="10" stroke-linejoin="miter" fill="none" stroke="#ff0000" d="M25.76843-148.82053C20.26341-163.94289 36.43019-163.94289 31.97316-151.69957"/>
<path transform="matrix(-.34205709,-.93971696,-.93971696,.34205709,141.2414,225.98958)" d="M4.21463 0 .64343 1.34572 1.8178 0 .64343-1.34572Z" fill="#ff0000"/>
<path transform="matrix(-.34205709,-.93971696,-.93971696,.34205709,141.2414,225.98958)" stroke-width=".3985" stroke-linecap="butt" stroke-miterlimit="10" stroke-linejoin="miter" fill="none" stroke="#ff0000" d="M4.21463 0 .64343 1.34572 1.8178 0 .64343-1.34572Z"/>
<path transform="matrix(1.00005,0,0,-1.00005,108.678928,72.66783)" stroke-width=".3985" stroke-linecap="butt" stroke-miterlimit="10" stroke-linejoin="miter" fill="none" stroke="#ff0000" d="M82.48187-148.76573C77.01945-163.77143 93.0614-163.77143 88.64696-151.64479"/>
<path transform="matrix(-.34205709,-.93971696,-.93971696,.34205709,197.91803,225.93479)" d="M4.21463 0 .64343 1.34572 1.8178 0 .64343-1.34572Z" fill="#ff0000"/>
<path transform="matrix(-.34205709,-.93971696,-.93971696,.34205709,197.91803,225.93479)" stroke-width=".3985" stroke-linecap="butt" stroke-miterlimit="10" stroke-linejoin="miter" fill="none" stroke="#ff0000" d="M4.21463 0 .64343 1.34572 1.8178 0 .64343-1.34572Z"/>
<path transform="matrix(1.00005,0,0,-1.00005,108.678928,72.66783)" stroke-width=".3985" stroke-linecap="butt" stroke-miterlimit="10" stroke-linejoin="miter" fill="none" stroke="#0000ff" d="M82.20557-134.70235C72.27522-117.45996 41.14879-117.42642 32.71635-131.99582"/>
<path transform="matrix(-.500925,.8655232,.8655232,.500925,142.2576,203.1831)" d="M4.21463 0 .64343 1.34572 1.8178 0 .64343-1.34572Z" fill="#0000ff"/>
<path transform="matrix(-.500925,.8655232,.8655232,.500925,142.2576,203.1831)" stroke-width=".3985" stroke-linecap="butt" stroke-miterlimit="10" stroke-linejoin="miter" fill="none" stroke="#0000ff" d="M4.21463 0 .64343 1.34572 1.8178 0 .64343-1.34572Z"/>
<path transform="matrix(1.00005,0,0,-1.00005,108.678928,72.66783)" stroke-width=".3985" stroke-linecap="butt" stroke-miterlimit="10" stroke-linejoin="miter" fill="none" stroke="#0000ff" d="M25.51195-134.64757C33.85005-111.80194 79.5776-111.84201 86.82991-131.82233"/>
<path transform="matrix(.34120707,.94003698,.94003698,-.34120707,194.92691,202.88158)" d="M4.21463 0 .64343 1.34572 1.8178 0 .64343-1.34572Z" fill="#0000ff"/>
<path transform="matrix(.34120707,.94003698,.94003698,-.34120707,194.92691,202.88158)" stroke-width=".3985" stroke-linecap="butt" stroke-miterlimit="10" stroke-linejoin="miter" fill="none" stroke="#0000ff" d="M4.21463 0 .64343 1.34572 1.8178 0 .64343-1.34572Z"/>
<path transform="matrix(1.00005,0,0,-1.00005,108.678928,72.66783)" stroke-width=".3985" stroke-linecap="butt" stroke-miterlimit="10" stroke-linejoin="miter" fill="none" stroke="#000000" d="M-28.3468 0H-53.6297"/>
<path transform="matrix(-1.00005,-0,0,1.00005,56.76482,72.66783)" d="M4.21463 0 .64343 1.34572 1.8178 0 .64343-1.34572Z"/>
<path transform="matrix(-1.00005,-0,0,1.00005,56.76482,72.66783)" stroke-width=".3985" stroke-linecap="butt" stroke-miterlimit="10" stroke-linejoin="miter" fill="none" stroke="#000000" d="M4.21463 0 .64343 1.34572 1.8178 0 .64343-1.34572Z"/>
<path transform="matrix(1.00005,0,0,-1.00005,108.678928,72.66783)" stroke-width=".3985" stroke-linecap="butt" stroke-miterlimit="10" stroke-linejoin="miter" fill="none" stroke="#000000" d="M56.69362-85.04042V-110.32332"/>
<path transform="matrix(0,1.00005,1.00005,0,165.37537,181.27838)" d="M4.21463 0 .64343 1.34572 1.8178 0 .64343-1.34572Z"/>
<path transform="matrix(0,1.00005,1.00005,0,165.37537,181.27838)" stroke-width=".3985" stroke-linecap="butt" stroke-miterlimit="10" stroke-linejoin="miter" fill="none" stroke="#000000" d="M4.21463 0 .64343 1.34572 1.8178 0 .64343-1.34572Z"/>
</svg>
