<svg xmlns="http://www.w3.org/2000/svg" xmlns:xlink="http://www.w3.org/1999/xlink" xmlns:inkscape="http://www.inkscape.org/namespaces/inkscape" version="1.1" width="60" height="89" viewBox="0 0 60 89">
<defs>
<path id="font_1_1" d="M.45999146 .31976319C.45999146 .39982606 .45498658 .47988893 .41999818 .5539398 .37399293 .65000918 .2919922 .6660156 .25 .6660156 .18998719 .6660156 .116989139 .64001467 .07598877 .54693606 .04399109 .47789 .038986207 .39982606 .038986207 .31976319 .038986207 .24472046 .042999269 .15464783 .083999637 .07859802 .1269989-.0024719239 .19999695-.022460938 .24899292-.022460938 .30299378-.022460938 .3789978-.0014648438 .4229889 .09359741 .45498658 .16265869 .45999146 .2407074 .45999146 .31976319M.24899292-.00047302247C.20999146-.00047302247 .15098572 .024551392 .1329956 .12062073 .12199402 .18066406 .12199402 .2727356 .12199402 .3317871 .12199402 .39582826 .12199402 .46188355 .12998963 .5159149 .14898682 .63500979 .22399903 .64401248 .24899292 .64401248 .28199769 .64401248 .34799195 .6259918 .36698915 .52693179 .3769989 .47088624 .3769989 .39482118 .3769989 .3317871 .3769989 .25672914 .3769989 .18867493 .3659973 .12461853 .35099793 .029556275 .2939911-.00047302247 .24899292-.00047302247Z"/>
<path id="font_1_2" d="M.2939911 .64004519C.2939911 .66400149 .2939911 .6660156 .2709961 .6660156 .20899964 .60227969 .12098694 .60227969 .08898926 .60227969V.57128909C.10899353 .57128909 .16799927 .57128909 .21998596 .5972748V.07902527C.21998596 .042999269 .21699524 .0309906 .1269989 .0309906H.09498596V0C.12998963 .0029907227 .21699524 .0029907227 .25698854 .0029907227 .29699708 .0029907227 .38398744 .0029907227 .4189911 0V.0309906H.3869934C.29699708 .0309906 .2939911 .041992189 .2939911 .07902527V.64004519Z"/>
<path id="font_1_3" d="M.1269989 .07699585 .23298645 .18003845C.3889923 .31811524 .44898988 .3721466 .44898988 .47216798 .44898988 .5860901 .35899354 .6660156 .23699951 .6660156 .12399292 .6660156 .049987794 .57411196 .049987794 .48516847 .049987794 .4291687 .099990848 .4291687 .102996829 .4291687 .11999512 .4291687 .15499878 .44117738 .15499878 .48217774 .15499878 .5081787 .13699341 .5341797 .101989749 .5341797 .09399414 .5341797 .09199524 .5341797 .08898926 .5331726 .11199951 .59806826 .1659851 .63500979 .22399903 .63500979 .31498719 .63500979 .35798646 .5541382 .35798646 .47216798 .35798646 .39215089 .30799867 .31311036 .25299073 .25108338L.06098938 .036987306C.049987794 .025985718 .049987794 .023986817 .049987794 0H.42099L.44898988 .17404175H.42399598C.4189911 .14402771 .4119873 .1000061 .4019928 .084991458 .394989 .07699585 .32899476 .07699585 .30699159 .07699585H.1269989Z"/>
<path id="font_2_1" d="M.42199708 .38238526C.40098573 .41540528 .36698915 .44140626 .31900025 .44140626 .19099427 .44140626 .06098938 .300354 .06098938 .15628052 .06098938 .059249879 .12599182-.009765625 .21199036-.009765625 .2659912-.009765625 .31399537 .021224976 .35398866 .0602417 .37298585 .00022888184 .43099977-.009765625 .45700074-.009765625 .49299623-.009765625 .5179901 .01222229 .5359955 .04324341 .55799868 .08226013 .57099917 .13928223 .57099917 .14328003 .57099917 .15628052 .55799868 .15628052 .5549927 .15628052 .54100039 .15628052 .5399933 .15228272 .5329895 .12527466 .5209961 .07725525 .5019989 .018234253 .45999146 .018234253 .43399049 .018234253 .4269867 .040237428 .4269867 .06724548 .4269867 .08425903 .43499757 .120269779 .44198609 .14628601 .44898988 .17329407 .45899964 .21430969 .46398927 .23632813L.48399354 .3123474C.48999024 .33836366 .5019989 .38539125 .5019989 .39038087 .5019989 .4123993 .48399354 .4223938 .46798707 .4223938 .45098878 .4223938 .42799378 .4104004 .42199708 .38238526M.35798646 .12527466C.35099793 .09725952 .32899476 .07725525 .30699159 .058242799 .2979889 .050247194 .2579956 .018234253 .21499634 .018234253 .17799378 .018234253 .14199829 .04423523 .14199829 .11526489 .14199829 .16828919 .17098999 .27833558 .19400025 .31835938 .23999024 .39839173 .29100038 .4133911 .31900025 .4133911 .3889923 .4133911 .4079895 .33737184 .4079895 .32635499 .4079895 .32235719 .4059906 .3153534 .40499879 .3123474L.35798646 .12527466Z"/>
<path id="font_3_1" d="M.6009979 .31976319C.6009979 .3918152 .6009979 .6660156 .33999635 .6660156 .07899475 .6660156 .07899475 .3918152 .07899475 .31976319 .07899475 .2467041 .07899475-.022460938 .33999635-.022460938 .6009979-.022460938 .6009979 .2467041 .6009979 .31976319M.33999635 .010528564C.30299378 .010528564 .21899414 .023544312 .19400025 .12461853 .17999268 .17866516 .1789856 .24971009 .1789856 .33177186 .1789856 .405838 .1789856 .47488404 .19499207 .5319214 .21998596 .6159973 .29699708 .63301089 .33999635 .63301089 .4139862 .63301089 .46699525 .5949707 .4869995 .5249176 .5009918 .47387696 .5009918 .39082337 .5009918 .33177186 .5009918 .26371766 .5009918 .18266297 .48599244 .12261963 .45999146 .025543213 .37998963 .010528564 .33999635 .010528564Z"/>
<path id="font_3_2" d="M.397995 .63591006C.397995 .6660156 .394989 .6660156 .3619995 .6660156 .29100038 .6016083 .17999268 .6016083 .1599884 .6016083H.14299011V.5576172H.1599884C.18299866 .5576172 .24798584 .5606079 .30599977 .58561709V.08596802C.30599977 .054977418 .30599977 .04399109 .19999695 .04399109H.1499939V0C.20498657 .0039978029 .2939911 .0039978029 .35198976 .0039978029 .4099884 .0039978029 .49899293 .0039978029 .55400088 0V.04399109H.5039978C.397995 .04399109 .397995 .054977418 .397995 .08596802V.63591006Z"/>
<path id="font_3_3" d="M.58898928 .19296265H.5469971C.5439911 .17396546 .5339966 .11198425 .5179901 .101989749 .5099945 .09599304 .42599488 .09599304 .41099549 .09599304H.21499634C.2809906 .14497376 .35499574 .20095825 .4149933 .24093628 .5049896 .30291749 .58898928 .36090089 .58898928 .46687318 .58898928 .59495547 .46798707 .6660156 .32499696 .6660156 .18998719 .6660156 .09098816 .58795168 .09098816 .48986817 .09098816 .4378662 .1349945 .42886354 .14898682 .42886354 .17599488 .42886354 .20799256 .4468689 .20799256 .48786927 .20799256 .52386477 .18199158 .543869 .15098572 .546875 .1789856 .59194949 .23699951 .6220093 .3039856 .6220093 .40098573 .6220093 .48199464 .5639038 .48199464 .4658661 .48199464 .3818817 .42399598 .31791688 .34700013 .2529297L.102996829 .04598999C.09298706 .036987306 .09199524 .036987306 .09098816 .02999878V0H.55599978L.58898928 .19296265Z"/>
</defs>
<path transform="matrix(1,0,0,-1,2.0960007,86.839)" stroke-width=".3985" stroke-linecap="butt" stroke-miterlimit="10" stroke-linejoin="miter" fill="none" stroke="#000000" d="M0 0V85.04042H56.69362V0ZM56.69362 85.04042"/>
<path transform="matrix(1,0,0,-1,2.0960007,86.839)" d="M29.84116 70.867C29.84116 71.69232 29.17212 72.36136 28.3468 72.36136 27.52148 72.36136 26.85245 71.69232 26.85245 70.867 26.85245 70.04169 27.52148 69.37265 28.3468 69.37265 29.17212 69.37265 29.84116 70.04169 29.84116 70.867ZM28.3468 70.867"/>
<path transform="matrix(1,0,0,-1,2.0960007,86.839)" stroke-width=".3985" stroke-linecap="butt" stroke-miterlimit="10" stroke-linejoin="miter" fill="none" stroke="#000000" d="M29.84116 70.867C29.84116 71.69232 29.17212 72.36136 28.3468 72.36136 27.52148 72.36136 26.85245 71.69232 26.85245 70.867 26.85245 70.04169 27.52148 69.37265 28.3468 69.37265 29.17212 69.37265 29.84116 70.04169 29.84116 70.867ZM28.3468 70.867"/>
<use data-text="0" xlink:href="#font_1_1" transform="matrix(9.9626,0,0,-9.9626,33.963,19.182)"/>
<path transform="matrix(1,0,0,-1,2.0960007,86.839)" d="M29.84116 42.5202C29.84116 43.34552 29.17212 44.01456 28.3468 44.01456 27.52148 44.01456 26.85245 43.34552 26.85245 42.5202 26.85245 41.69489 27.52148 41.02585 28.3468 41.02585 29.17212 41.02585 29.84116 41.69489 29.84116 42.5202ZM28.3468 42.5202"/>
<path transform="matrix(1,0,0,-1,2.0960007,86.839)" stroke-width=".3985" stroke-linecap="butt" stroke-miterlimit="10" stroke-linejoin="miter" fill="none" stroke="#000000" d="M29.84116 42.5202C29.84116 43.34552 29.17212 44.01456 28.3468 44.01456 27.52148 44.01456 26.85245 43.34552 26.85245 42.5202 26.85245 41.69489 27.52148 41.02585 28.3468 41.02585 29.17212 41.02585 29.84116 41.69489 29.84116 42.5202ZM28.3468 42.5202"/>
<use data-text="1" xlink:href="#font_1_2" transform="matrix(9.9626,0,0,-9.9626,33.963,47.528997)"/>
<path transform="matrix(1,0,0,-1,2.0960007,86.839)" d="M29.84116 14.17339C29.84116 14.9987 29.17212 15.66774 28.3468 15.66774 27.52148 15.66774 26.85245 14.9987 26.85245 14.17339 26.85245 13.34807 27.52148 12.67903 28.3468 12.67903 29.17212 12.67903 29.84116 13.34807 29.84116 14.17339ZM28.3468 14.17339"/>
<path transform="matrix(1,0,0,-1,2.0960007,86.839)" stroke-width=".3985" stroke-linecap="butt" stroke-miterlimit="10" stroke-linejoin="miter" fill="none" stroke="#000000" d="M29.84116 14.17339C29.84116 14.9987 29.17212 15.66774 28.3468 15.66774 27.52148 15.66774 26.85245 14.9987 26.85245 14.17339 26.85245 13.34807 27.52148 12.67903 28.3468 12.67903 29.17212 12.67903 29.84116 13.34807 29.84116 14.17339ZM28.3468 14.17339"/>
<use data-text="2" xlink:href="#font_1_3" transform="matrix(9.9626,0,0,-9.9626,33.963,75.876)"/>
<path transform="matrix(1,0,0,-1,2.0960007,86.839)" stroke-width=".3985" stroke-linecap="butt" stroke-miterlimit="10" stroke-linejoin="miter" fill="none" stroke="#000000" d="M28.3468 70.867V45.5841"/>
<path transform="matrix(0,1,1,0,30.4428,39.536699)" d="M4.21463 0 .64343 1.34572 1.8178 0 .64343-1.34572Z"/>
<path transform="matrix(0,1,1,0,30.4428,39.536699)" stroke-width=".3985" stroke-linecap="butt" stroke-miterlimit="10" stroke-linejoin="miter" fill="none" stroke="#000000" d="M4.21463 0 .64343 1.34572 1.8178 0 .64343-1.34572Z"/>
<use data-text="a" xlink:href="#font_2_1" transform="matrix(6.9738,0,0,-6.9738,18.713006,31.148999)"/>
<use data-text="0" xlink:href="#font_3_1" transform="matrix(4.9813,0,0,-4.9813,23.034005,32.145)"/>
<path transform="matrix(1,0,0,-1,2.0960007,86.839)" stroke-width=".3985" stroke-linecap="butt" stroke-miterlimit="10" stroke-linejoin="miter" fill="none" stroke="#000000" d="M28.3468 42.5202C22.81964 32.94682 22.81964 23.74677 26.8149 16.82677"/>
<path transform="matrix(.49998,.86601,.86601,-.49998,28.05184,68.52426)" d="M4.21463 0 .64343 1.34572 1.8178 0 .64343-1.34572Z"/>
<path transform="matrix(.49998,.86601,.86601,-.49998,28.05184,68.52426)" stroke-width=".3985" stroke-linecap="butt" stroke-miterlimit="10" stroke-linejoin="miter" fill="none" stroke="#000000" d="M4.21463 0 .64343 1.34572 1.8178 0 .64343-1.34572Z"/>
<use data-text="a" xlink:href="#font_2_1" transform="matrix(6.9738,0,0,-6.9738,14.568001,59.494997)"/>
<use data-text="1" xlink:href="#font_3_2" transform="matrix(4.9813,0,0,-4.9813,18.889,60.490999)"/>
<path transform="matrix(1,0,0,-1,2.0960007,86.839)" stroke-width=".3985" stroke-linecap="butt" stroke-miterlimit="10" stroke-linejoin="miter" fill="none" stroke="#000000" d="M28.3468 14.17339C33.87396 23.74677 33.87396 32.94682 29.87871 39.86682"/>
<path transform="matrix(-.49998,-.86601,-.86601,.49998,32.833765,48.460149)" d="M4.21463 0 .64343 1.34572 1.8178 0 .64343-1.34572Z"/>
<path transform="matrix(-.49998,-.86601,-.86601,.49998,32.833765,48.460149)" stroke-width=".3985" stroke-linecap="butt" stroke-miterlimit="10" stroke-linejoin="miter" fill="none" stroke="#000000" d="M4.21463 0 .64343 1.34572 1.8178 0 .64343-1.34572Z"/>
<use data-text="a" xlink:href="#font_2_1" transform="matrix(6.9738,0,0,-6.9738,38.108,59.494997)"/>
<use data-text="2" xlink:href="#font_3_3" transform="matrix(4.9813,0,0,-4.9813,42.429,60.490999)"/>
</svg>
