<svg xmlns="http://www.w3.org/2000/svg" xmlns:xlink="http://www.w3.org/1999/xlink" xmlns:inkscape="http://www.inkscape.org/namespaces/inkscape" version="1.1" width="89" height="174" viewBox="0 0 89 174">
<defs>
<path id="font_1_1" d="M.33399964 .30233766C.33999635 .32835389 .36299134 .42037965 .43299867 .42037965 .43798829 .42037965 .46199037 .42037965 .48298646 .40734864 .45498658 .402359 .43499757 .37734986 .43499757 .35334779 .43499757 .33735658 .44599916 .31835938 .47299195 .31835938 .49499513 .31835938 .5269928 .3363495 .5269928 .37635804 .5269928 .42837525 .46798707 .4423828 .43399049 .4423828 .37599183 .4423828 .34098817 .38935853 .32899476 .36634828 .3039856 .43237306 .25 .4423828 .22099304 .4423828 .116989139 .4423828 .05999756 .3133545 .05999756 .28834535 .05999756 .27833558 .069992069 .27833558 .07199097 .27833558 .07998657 .27833558 .08299255 .28033448 .084991458 .28933717 .11898804 .39535523 .18499756 .42037965 .21899414 .42037965 .23799134 .42037965 .272995 .4113617 .272995 .35334779 .272995 .32235719 .2559967 .25532533 .21899414 .11528015 .20298767 .053268434 .16799927 .011245728 .12399292 .011245728 .117996219 .011245728 .09498596 .011245728 .07398987 .024276734 .09899902 .029266358 .12098694 .05027771 .12098694 .07827759 .12098694 .105270389 .09899902 .11328125 .083999637 .11328125 .053985597 .11328125 .0289917 .08728027 .0289917 .055267335 .0289917 .009246826 .07899475-.0107421879 .12298584-.0107421879 .18899536-.0107421879 .22499085 .059280397 .22799683 .0652771 .23999024 .028274537 .27598573-.0107421879 .33599855-.0107421879 .43899537-.0107421879 .49598695 .118270877 .49598695 .14328003 .49598695 .1532898 .4869995 .1532898 .48399354 .1532898 .47499085 .1532898 .47299195 .14929199 .47099305 .14228821 .43798829 .03527832 .36999513 .011245728 .33799745 .011245728 .29899598 .011245728 .2829895 .043273927 .2829895 .07727051 .2829895 .09927368 .2889862 .121276859 .2999878 .16529846L.33399964 .30233766Z"/>
<path id="font_2_2" d="M.45999146 .31976319C.45999146 .39982606 .45498658 .47988893 .41999818 .5539398 .37399293 .65000918 .2919922 .6660156 .25 .6660156 .18998719 .6660156 .116989139 .64001467 .07598877 .54693606 .04399109 .47789 .038986207 .39982606 .038986207 .31976319 .038986207 .24472046 .042999269 .15464783 .083999637 .07859802 .1269989-.0024719239 .19999695-.022460938 .24899292-.022460938 .30299378-.022460938 .3789978-.0014648438 .4229889 .09359741 .45498658 .16265869 .45999146 .2407074 .45999146 .31976319M.24899292-.00047302247C.20999146-.00047302247 .15098572 .024551392 .1329956 .12062073 .12199402 .18066406 .12199402 .2727356 .12199402 .3317871 .12199402 .39582826 .12199402 .46188355 .12998963 .5159149 .14898682 .63500979 .22399903 .64401248 .24899292 .64401248 .28199769 .64401248 .34799195 .6259918 .36698915 .52693179 .3769989 .47088624 .3769989 .39482118 .3769989 .3317871 .3769989 .25672914 .3769989 .18867493 .3659973 .12461853 .35099793 .029556275 .2939911-.00047302247 .24899292-.00047302247Z"/>
<path id="font_2_1" d="M.42999269 .5588379V.58984377H.068984989V.5588379H.42999269Z"/>
<path id="font_1_2" d="M.48599244 .38136292C.48999024 .39537049 .48999024 .39736939 .48999024 .40437318 .48999024 .42237855 .47599793 .43138124 .46099855 .43138124 .45098878 .43138124 .43499757 .42536927 .42599488 .41036988 .42399598 .405365 .41600038 .37435914 .4119873 .35635377 .40499879 .33035279 .397995 .30334474 .3919983 .27633668L.34700013 .09628296C.34298707 .08126831 .2999878 .011245728 .23399353 .011245728 .18299866 .011245728 .17199707 .055267335 .17199707 .0922699 .17199707 .1382904 .18899536 .20030213 .22299195 .28833009 .23899842 .3293457 .24299622 .3403473 .24299622 .36035157 .24299622 .405365 .21099854 .4423828 .16099549 .4423828 .06599426 .4423828 .0289917 .29733277 .0289917 .28833009 .0289917 .27833558 .038986207 .27833558 .040985109 .27833558 .050994874 .27833558 .051986696 .28033448 .056991579 .29634095 .083999637 .3903656 .12399292 .42037965 .1579895 .42037965 .1659851 .42037965 .18299866 .42037965 .18299866 .3883667 .18299866 .36335755 .17298889 .3373413 .1659851 .31834413 .12599182 .21231079 .10798645 .1552887 .10798645 .10827637 .10798645 .019256592 .17098999-.0107421879 .22999573-.0107421879 .2689972-.0107421879 .30299378 .0062561037 .33099366 .03425598 .31799317-.017745972 .30599977-.06674194 .2659912-.11973572 .23999024-.15385437 .20199585-.18309021 .1559906-.18309021 .14199829-.18309021 .09700012-.18005371 .07998657-.14074707 .09599304-.14074707 .10899353-.14074707 .12298584-.1287384 .1329956-.11973572 .14299011-.10673523 .14299011-.08773804 .14299011-.056747438 .115997318-.052734376 .10598755-.052734376 .08299255-.052734376 .049987794-.068740848 .049987794-.11773682 .049987794-.16796875 .09399414-.20507813 .1559906-.20507813 .25898744-.20507813 .3619995-.11373901 .3899994-.00074768069L.48599244 .38136292Z"/>
</defs>
<path transform="matrix(1.00003,0,0,-1.00003,-26.251355,86.84113)" stroke-width=".3985" stroke-linecap="butt" stroke-miterlimit="10" stroke-linejoin="miter" fill="none" stroke="#000000" d="M28.3468-56.69362V56.69362H56.69362V-56.69362ZM56.69362 56.69362"/>
<path transform="matrix(1.00003,0,0,-1.00003,-26.251355,86.84113)" stroke-width=".3985" stroke-linecap="butt" stroke-miterlimit="10" stroke-linejoin="miter" fill="none" stroke="#000000" d="M85.04042-85.04042V85.04042H113.38724V-85.04042ZM113.38724 85.04042"/>
<path transform="matrix(1.00003,0,0,-1.00003,-26.251355,86.84113)" d="M44.01456 28.3468C44.01456 29.17212 43.34552 29.84116 42.5202 29.84116 41.69489 29.84116 41.02585 29.17212 41.02585 28.3468 41.02585 27.52148 41.69489 26.85245 42.5202 26.85245 43.34552 26.85245 44.01456 27.52148 44.01456 28.3468ZM42.5202 28.3468"/>
<path transform="matrix(1.00003,0,0,-1.00003,-26.251355,86.84113)" stroke-width=".3985" stroke-linecap="butt" stroke-miterlimit="10" stroke-linejoin="miter" fill="none" stroke="#000000" d="M44.01456 28.3468C44.01456 29.17212 43.34552 29.84116 42.5202 29.84116 41.69489 29.84116 41.02585 29.17212 41.02585 28.3468 41.02585 27.52148 41.69489 26.85245 42.5202 26.85245 43.34552 26.85245 44.01456 27.52148 44.01456 28.3468ZM42.5202 28.3468"/>
<use data-text="x" xlink:href="#font_1_1" transform="matrix(9.962899,0,0,-9.962899,7.055645,60.638345)"/>
<path transform="matrix(1.00003,0,0,-1.00003,-26.251355,86.84113)" d="M44.01456-28.3468C44.01456-27.52148 43.34552-26.85245 42.5202-26.85245 41.69489-26.85245 41.02585-27.52148 41.02585-28.3468 41.02585-29.17212 41.69489-29.84116 42.5202-29.84116 43.34552-29.84116 44.01456-29.17212 44.01456-28.3468ZM42.5202-28.3468"/>
<path transform="matrix(1.00003,0,0,-1.00003,-26.251355,86.84113)" stroke-width=".3985" stroke-linecap="butt" stroke-miterlimit="10" stroke-linejoin="miter" fill="none" stroke="#000000" d="M44.01456-28.3468C44.01456-27.52148 43.34552-26.85245 42.5202-26.85245 41.69489-26.85245 41.02585-27.52148 41.02585-28.3468 41.02585-29.17212 41.69489-29.84116 42.5202-29.84116 43.34552-29.84116 44.01456-29.17212 44.01456-28.3468ZM42.5202-28.3468"/>
<use data-text="0" xlink:href="#font_2_2" transform="matrix(9.962899,0,0,-9.962899,7.768669,118.39908)"/>
<path transform="matrix(1.00003,0,0,-1.00003,-26.251355,86.84113)" d="M100.70818 70.867C100.70818 71.69232 100.03914 72.36136 99.21382 72.36136 98.3885 72.36136 97.71947 71.69232 97.71947 70.867 97.71947 70.04169 98.3885 69.37265 99.21382 69.37265 100.03914 69.37265 100.70818 70.04169 100.70818 70.867ZM99.21382 70.867"/>
<path transform="matrix(1.00003,0,0,-1.00003,-26.251355,86.84113)" stroke-width=".3985" stroke-linecap="butt" stroke-miterlimit="10" stroke-linejoin="miter" fill="none" stroke="#000000" d="M100.70818 70.867C100.70818 71.69232 100.03914 72.36136 99.21382 72.36136 98.3885 72.36136 97.71947 71.69232 97.71947 70.867 97.71947 70.04169 98.3885 69.37265 99.21382 69.37265 100.03914 69.37265 100.70818 70.04169 100.70818 70.867ZM99.21382 70.867"/>
<use data-text="&#x00af;" xlink:href="#font_2_1" transform="matrix(9.962899,0,0,-9.962899,77.169757,17.832055)"/>
<use data-text="y" xlink:href="#font_1_2" transform="matrix(9.962899,0,0,-9.962899,76.48573,17.832055)"/>
<path transform="matrix(1.00003,0,0,-1.00003,-26.251355,86.84113)" d="M100.70818 0C100.70818 .8253 100.03914 1.49435 99.21382 1.49435 98.3885 1.49435 97.71947 .8253 97.71947 0 97.71947-.8253 98.3885-1.49435 99.21382-1.49435 100.03914-1.49435 100.70818-.8253 100.70818 0ZM99.21382 0"/>
<path transform="matrix(1.00003,0,0,-1.00003,-26.251355,86.84113)" stroke-width=".3985" stroke-linecap="butt" stroke-miterlimit="10" stroke-linejoin="miter" fill="none" stroke="#000000" d="M100.70818 0C100.70818 .8253 100.03914 1.49435 99.21382 1.49435 98.3885 1.49435 97.71947 .8253 97.71947 0 97.71947-.8253 98.3885-1.49435 99.21382-1.49435 100.03914-1.49435 100.70818-.8253 100.70818 0ZM99.21382 0"/>
<use data-text="y" xlink:href="#font_1_2" transform="matrix(9.962899,0,0,-9.962899,76.48573,88.017169)"/>
<path transform="matrix(1.00003,0,0,-1.00003,-26.251355,86.84113)" d="M100.70818-70.867C100.70818-70.04169 100.03914-69.37265 99.21382-69.37265 98.3885-69.37265 97.71947-70.04169 97.71947-70.867 97.71947-71.69232 98.3885-72.36136 99.21382-72.36136 100.03914-72.36136 100.70818-71.69232 100.70818-70.867ZM99.21382-70.867"/>
<path transform="matrix(1.00003,0,0,-1.00003,-26.251355,86.84113)" stroke-width=".3985" stroke-linecap="butt" stroke-miterlimit="10" stroke-linejoin="miter" fill="none" stroke="#000000" d="M100.70818-70.867C100.70818-70.04169 100.03914-69.37265 99.21382-69.37265 98.3885-69.37265 97.71947-70.04169 97.71947-70.867 97.71947-71.69232 98.3885-72.36136 99.21382-72.36136 100.03914-72.36136 100.70818-71.69232 100.70818-70.867ZM99.21382-70.867"/>
<use data-text="0" xlink:href="#font_2_2" transform="matrix(9.962899,0,0,-9.962899,76.48573,160.92037)"/>
<path transform="matrix(1.00003,0,0,-1.00003,-26.251355,86.84113)" stroke-width=".3985" stroke-linecap="butt" stroke-miterlimit="10" stroke-linejoin="miter" fill="none" stroke="#000000" d="M42.5202-28.3468C52.5423-38.3689 34.39066-39.95699 40.19144-31.67264"/>
<path transform="matrix(.5735772,-.81916466,-.81916466,-.5735772,12.955753,119.92221)" d="M4.21463 0 .64343 1.34572 1.8178 0 .64343-1.34572Z"/>
<path transform="matrix(.5735772,-.81916466,-.81916466,-.5735772,12.955753,119.92221)" stroke-width=".3985" stroke-linecap="butt" stroke-miterlimit="10" stroke-linejoin="miter" fill="none" stroke="#000000" d="M4.21463 0 .64343 1.34572 1.8178 0 .64343-1.34572Z"/>
<path transform="matrix(1.00003,0,0,-1.00003,-26.251355,86.84113)" stroke-width=".3985" stroke-linecap="butt" stroke-miterlimit="10" stroke-linejoin="miter" fill="none" stroke="#000000" d="M99.21382-70.867C109.23592-80.88911 91.08427-82.47719 96.88506-74.19286"/>
<path transform="matrix(.5735772,-.81916466,-.81916466,-.5735772,69.65109,162.4437)" d="M4.21463 0 .64343 1.34572 1.8178 0 .64343-1.34572Z"/>
<path transform="matrix(.5735772,-.81916466,-.81916466,-.5735772,69.65109,162.4437)" stroke-width=".3985" stroke-linecap="butt" stroke-miterlimit="10" stroke-linejoin="miter" fill="none" stroke="#000000" d="M4.21463 0 .64343 1.34572 1.8178 0 .64343-1.34572Z"/>
<path transform="matrix(1.00003,0,0,-1.00003,-26.251355,86.84113)" stroke-width=".3985" stroke-linecap="butt" stroke-miterlimit="10" stroke-linejoin="miter" fill="none" stroke="#000000" d="M42.5202 28.3468V-25.28288"/>
<path transform="matrix(0,1.00003,1.00003,0,16.270123,110.40654)" d="M4.21463 0 .64343 1.34572 1.8178 0 .64343-1.34572Z"/>
<path transform="matrix(0,1.00003,1.00003,0,16.270123,110.40654)" stroke-width=".3985" stroke-linecap="butt" stroke-miterlimit="10" stroke-linejoin="miter" fill="none" stroke="#000000" d="M4.21463 0 .64343 1.34572 1.8178 0 .64343-1.34572Z"/>
<path transform="matrix(1.00003,0,0,-1.00003,-26.251355,86.84113)" stroke-width=".3985" stroke-linecap="butt" stroke-miterlimit="10" stroke-linejoin="miter" fill="none" stroke="#000000" d="M99.21382 0V-67.8031"/>
<path transform="matrix(0,1.00003,1.00003,0,72.965457,152.92804)" d="M4.21463 0 .64343 1.34572 1.8178 0 .64343-1.34572Z"/>
<path transform="matrix(0,1.00003,1.00003,0,72.965457,152.92804)" stroke-width=".3985" stroke-linecap="butt" stroke-miterlimit="10" stroke-linejoin="miter" fill="none" stroke="#000000" d="M4.21463 0 .64343 1.34572 1.8178 0 .64343-1.34572Z"/>
<path transform="matrix(1.00003,0,0,-1.00003,-26.251355,86.84113)" stroke-width=".3985" stroke-linecap="butt" stroke-miterlimit="10" stroke-linejoin="miter" fill="none" stroke="#000000" d="M99.21382 70.867V3.0639"/>
<path transform="matrix(0,1.00003,1.00003,0,72.965457,82.0589)" d="M4.21463 0 .64343 1.34572 1.8178 0 .64343-1.34572Z"/>
<path transform="matrix(0,1.00003,1.00003,0,72.965457,82.0589)" stroke-width=".3985" stroke-linecap="butt" stroke-miterlimit="10" stroke-linejoin="miter" fill="none" stroke="#000000" d="M4.21463 0 .64343 1.34572 1.8178 0 .64343-1.34572Z"/>
<path transform="matrix(1.00003,0,0,-1.00003,-26.251355,86.84113)" stroke-width=".3985" stroke-linecap="butt" stroke-miterlimit="10" stroke-linejoin="miter" fill="none" stroke="#000000" d="M96.37897-70.867 47.70866-30.30817"/>
<path transform="matrix(-.76819309,-.64016929,-.64016929,.76819309,22.778649,118.250148)" d="M4.21463 0 .64343 1.34572 1.8178 0 .64343-1.34572Z"/>
<path transform="matrix(-.76819309,-.64016929,-.64016929,.76819309,22.778649,118.250148)" stroke-width=".3985" stroke-linecap="butt" stroke-miterlimit="10" stroke-linejoin="miter" fill="none" stroke="#000000" d="M4.21463 0 .64343 1.34572 1.8178 0 .64343-1.34572Z"/>
<path transform="matrix(1.00003,0,0,-1.00003,-26.251355,86.84113)" stroke-width=".3985" stroke-linecap="butt" stroke-miterlimit="10" stroke-linejoin="miter" fill="none" stroke="#000000" d="M96.37897 0 48.03336 26.85884"/>
<path transform="matrix(-.87417629,-.4856546,-.4856546,.87417629,23.285435,60.81592)" d="M4.21463 0 .64343 1.34572 1.8178 0 .64343-1.34572Z"/>
<path transform="matrix(-.87417629,-.4856546,-.4856546,.87417629,23.285435,60.81592)" stroke-width=".3985" stroke-linecap="butt" stroke-miterlimit="10" stroke-linejoin="miter" fill="none" stroke="#000000" d="M4.21463 0 .64343 1.34572 1.8178 0 .64343-1.34572Z"/>
<path transform="matrix(1.00003,0,0,-1.00003,-26.251355,86.84113)" stroke-width=".3985" stroke-linecap="butt" stroke-dasharray="2.98883,2.98883" stroke-miterlimit="10" stroke-linejoin="miter" fill="none" stroke="#000000" d="M96.37897 70.867 46.78848-22.80415"/>
<path transform="matrix(-.46786408,.8837965,.8837965,.46786408,21.342427,108.12743)" d="M4.21463 0 .64343 1.34572 1.8178 0 .64343-1.34572Z"/>
<path transform="matrix(-.46786408,.8837965,.8837965,.46786408,21.342427,108.12743)" stroke-width=".3985" stroke-linecap="butt" stroke-miterlimit="10" stroke-linejoin="miter" fill="none" stroke="#000000" d="M4.21463 0 .64343 1.34572 1.8178 0 .64343-1.34572Z"/>
<path transform="matrix(1.00003,0,0,-1.00003,-26.251355,86.84113)" stroke-width=".3985" stroke-linecap="butt" stroke-dasharray="2.98883,2.98883" stroke-miterlimit="10" stroke-linejoin="miter" fill="none" stroke="#000000" d="M96.37897 70.867 47.77345 33.06265"/>
<path transform="matrix(-.7893437,.6139384,.6139384,.7893437,22.879773,52.722608)" d="M4.21463 0 .64343 1.34572 1.8178 0 .64343-1.34572Z"/>
<path transform="matrix(-.7893437,.6139384,.6139384,.7893437,22.879773,52.722608)" stroke-width=".3985" stroke-linecap="butt" stroke-miterlimit="10" stroke-linejoin="miter" fill="none" stroke="#000000" d="M4.21463 0 .64343 1.34572 1.8178 0 .64343-1.34572Z"/>
</svg>
