<svg xmlns="http://www.w3.org/2000/svg" xmlns:xlink="http://www.w3.org/1999/xlink" xmlns:inkscape="http://www.inkscape.org/namespaces/inkscape" version="1.1" width="405" height="193" viewBox="0 0 405 193">
<defs>
<path id="font_1_1" d="M.44400025 .24998474C.44400025 .35688783 .35499574 .44381715 .25 .44381715 .14199829 .44381715 .054992677 .35488893 .054992677 .24998474 .054992677 .14407349 .14199829 .056137086 .25 .056137086 .35499574 .056137086 .44400025 .14308167 .44400025 .24998474Z"/>
<path id="font_2_121" d="M.47299195 .31976319C.47299195 .38682557 .46998597 .47288514 .43499757 .5479431 .3909912 .64201357 .31498719 .6660156 .25698854 .6660156 .19699097 .6660156 .12098694 .64201357 .07699585 .5459442 .04499817 .47688294 .039993287 .39582826 .039993287 .31976319 .039993287 .25471498 .041992189 .15765381 .084991458 .07858276 .13198853-.0064697267 .20999146-.022460938 .2559967-.022460938 .32099916-.022460938 .394989 .0055389406 .43699647 .097595218 .46699525 .1646576 .47299195 .23971558 .47299195 .31976319M.3869934 .33177186C.3869934 .2697296 .3869934 .18566895 .3769989 .12661743 .35598756 .012542725 .28199769 .002532959 .25698854 .002532959 .22698975 .002532959 .15499878 .016540528 .13598633 .12962342 .12599182 .18867493 .12599182 .2747345 .12599182 .33177186 .12599182 .39982606 .12599182 .47888185 .13798523 .53393557 .1579895 .6230011 .22200012 .64100649 .2559967 .64100649 .2939911 .64100649 .35699464 .62098696 .37599183 .5279236 .3869934 .47288514 .3869934 .39482118 .3869934 .33177186Z"/>
<path id="font_2_66" d="M.25299073 0V.0309906C.18798828 .0309906 .18399048 .035995485 .18399048 .075042728V.4423828L.039993287 .43066407V.3996582C.10398865 .3996582 .11299133 .3936615 .11299133 .3447113V.07695007C.11299133 .0309906 .101989749 .0309906 .035995485 .0309906V0C.08099365 .0019989014 .101989749 .0029907227 .1459961 .0029907227 .1619873 .0029907227 .20399475 .0029907227 .25299073 0M.19699097 .6028137C.19699097 .63282778 .17298889 .6568146 .14299011 .6568146 .11299133 .6568146 .08898926 .63282778 .08898926 .6028137 .08898926 .57281497 .11299133 .5488281 .14299011 .5488281 .17298889 .5488281 .19699097 .57281497 .19699097 .6028137Z"/>
<path id="font_2_45" d="M.20698548 .0019989014C.20698548 .070999149 .18099976 .10798645 .14199829 .10798645 .10699463 .10798645 .08799744 .08099365 .08799744 .053985597 .08799744 .026992798 .10699463 0 .14199829 0 .16699219 0 .18199158 .015991211 .18199158 .015991211 .18199158-.017044068 .18199158-.09919739 .10598755-.17132569 .101989749-.17633057 .101989749-.18135071 .101989749-.18135071 .101989749-.18635559 .10798645-.19335938 .114990238-.19335938 .12599182-.19335938 .20698548-.1162262 .20698548 .0019989014Z"/>
<path id="font_2_82" d="M.43199159 0V.0309906H.3999939C.30699159 .0309906 .3039856 .042999269 .3039856 .08001709V.63912966C.3039856 .6640167 .30299378 .6660156 .27799989 .6660156 .21598816 .60227969 .12399292 .60227969 .09298706 .60227969V.57128909C.11199951 .57128909 .17298889 .57128909 .22698975 .5972748V.08001709C.22698975 .042999269 .22399903 .0309906 .1309967 .0309906H.09899902V0C.1349945 .0029907227 .22399903 .0029907227 .2649994 .0029907227 .30599977 .0029907227 .3959961 .0029907227 .43199159 0Z"/>
<path id="font_2_81" d="M.48399354 .21324158C.48399354 .34423829 .37998963 .4482422 .25698854 .4482422 .12998963 .4482422 .0289917 .3412323 .0289917 .21324158 .0289917 .08824158 .1329956-.0107421879 .2559967-.0107421879 .3829956-.0107421879 .48399354 .09024048 .48399354 .21324158M.397995 .22224427C.397995 .1852417 .397995 .12724304 .37298585 .08325195 .34498597 .037246705 .29899598 .01725769 .25698854 .01725769 .20698548 .01725769 .16499329 .042251588 .14199829 .08125305 .115997318 .12324524 .114990238 .17623902 .114990238 .22224427 .114990238 .25924684 .114990238 .3162384 .13999939 .35723878 .16999817 .40823365 .21998596 .42323304 .2559967 .42323304 .31298829 .42323304 .35398866 .39123536 .37399293 .35723878 .39698792 .31523133 .397995 .26423646 .397995 .22224427Z"/>
<path id="font_2_107" d="M.46199037 .17704773H.43399049C.43199159 .16404724 .42399598 .10501099 .41099549 .08900452 .40499879 .07998657 .33599855 .07998657 .31599427 .07998657H.13798523L.23699951 .17404175C.40098573 .3161316 .46199037 .36915589 .46199037 .4711914 .46199037 .5860901 .36698915 .6660156 .24398804 .6660156 .1289978 .6660156 .050994874 .575119 .050994874 .4841919 .050994874 .43418885 .09399414 .42919923 .102996829 .42919923 .125 .42919923 .15499878 .44519044 .15499878 .48120118 .15499878 .51119998 .13398743 .5332031 .102996829 .5332031 .09799194 .5332031 .09498596 .5332031 .09098816 .53219607 .114990238 .6030731 .1789856 .63500979 .23298645 .63500979 .33499146 .63500979 .36999513 .5401764 .36999513 .4711914 .36999513 .36915589 .29299928 .28611756 .24499512 .23408509L.06199646 .035995485C.050994874 .024993897 .050994874 .022994996 .050994874 0H.43399049L.46199037 .17704773Z"/>
<path id="font_2_106" d="M.46998597 .17008972C.46998597 .25709535 .40098573 .33110047 .30499269 .35209657 .397995 .38710023 .44198609 .46009828 .44198609 .5290985 .44198609 .60606387 .35699464 .6660156 .25299073 .6660156 .14898682 .6660156 .070999149 .60705569 .070999149 .5310974 .070999149 .49809266 .09298706 .47909547 .12199402 .47909547 .15098572 .47909547 .17199707 .50009158 .17199707 .5290985 .17199707 .5640869 .147995 .57910159 .11399841 .57910159 .13999939 .6210327 .20098877 .64100649 .25 .64100649 .33299256 .64100649 .34899903 .5750885 .34899903 .52809146 .34899903 .49809266 .34298707 .45005799 .31799317 .41201783 .2869873 .36695863 .2519989 .36495973 .22299195 .36296083 .19799805 .36094667 .19599915 .36094667 .18798828 .36094667 .1789856 .35995484 .17098999 .35894776 .17098999 .34794618 .17098999 .33496095 .1789856 .33496095 .19599915 .33496095H.24299622C.32998658 .33496095 .36799623 .2646637 .36799623 .16937256 .36799623 .04145813 .2999878 .0055389406 .24899292 .0055389406 .22999573 .0055389406 .1329956 .010528564 .08799744 .0843811 .12399292 .07939148 .1519928 .10437012 .1519928 .13838196 .1519928 .17137146 .1269989 .19238281 .09799194 .19238281 .07299805 .19238281 .042999269 .17736817 .042999269 .13537598 .042999269 .046447755 .13598633-.022460938 .2519989-.022460938 .3769989-.022460938 .46998597 .06741333 .46998597 .16937256V.17008972Z"/>
<path id="font_3_85" d="M.33099366-.2400055C.33099366-.23701477 .33099366-.23500061 .31399537-.21800232 .18899536-.0920105 .15699768 .09700012 .15699768 .25 .15699768 .42399598 .19499207 .59799197 .31799317 .72299197 .33099366 .7350006 .33099366 .7369995 .33099366 .73999026 .33099366 .746994 .32699586 .75 .32099916 .75 .31098939 .75 .22099304 .6819916 .1619873 .5549927 .11099243 .44499208 .09899902 .33399964 .09899902 .25 .09899902 .17199707 .10998535 .050994874 .16499329-.06201172 .22499085-.18501282 .31098939-.25 .32099916-.25 .32699586-.25 .33099366-.24700928 .33099366-.2400055Z"/>
<path id="font_3_28" d="M.48298646 .08912659V.14511109H.45799256V.08912659C.45799256 .03112793 .43299867 .025131226 .42199708 .025131226 .3889923 .025131226 .3849945 .070129398 .3849945 .07511902V.27508546C.3849945 .31707765 .3849945 .3560791 .34899903 .39312745 .30999757 .43223573 .2599945 .4482422 .21199036 .4482422 .12998963 .4482422 .06098938 .40115357 .06098938 .335083 .06098938 .30508424 .08099365 .28808595 .10699463 .28808595 .1349945 .28808595 .15299988 .30807496 .15299988 .33407594 .15299988 .3460846 .147995 .37908937 .101989749 .38008119 .1289978 .41519166 .17799378 .426239 .20999146 .426239 .25898744 .426239 .31599427 .38710023 .31599427 .29808045V.26107789C.2649994 .25808717 .19499207 .25508119 .13198853 .22509766 .056991579 .19110108 .03199768 .13911438 .03199768 .09512329 .03199768 .014251709 .1289978-.0107421879 .19198609-.0107421879 .2579956-.0107421879 .3039856 .029251099 .32299806 .07624817 .32699586 .036132814 .35398866-.005859375 .40098573-.005859375 .42199708-.005859375 .48298646 .008132935 .48298646 .08912659M.31599427 .14013672C.31599427 .04525757 .24398804 .011245728 .19898987 .011245728 .1499939 .011245728 .10899353 .04624939 .10899353 .09625244 .10899353 .15124512 .15098572 .23425293 .31599427 .24024964V.14013672Z"/>
<path id="font_3_86" d="M.2889862 .25C.2889862 .32798768 .27799989 .44898988 .22299195 .56199648 .16299439 .68499758 .07699585 .75 .066986087 .75 .06098938 .75 .056991579 .74598696 .056991579 .73999026 .056991579 .7369995 .056991579 .7350006 .07598877 .71699526 .17399597 .6179962 .23098755 .45899964 .23098755 .25 .23098755 .07899475 .19400025-.09700012 .069992069-.2230072 .056991579-.23500061 .056991579-.23701477 .056991579-.2400055 .056991579-.2460022 .06098938-.25 .066986087-.25 .07699585-.25 .16699219-.18200684 .22599793-.055007936 .2769928 .054992677 .2889862 .16600037 .2889862 .25Z"/>
<path id="font_3_35" d="M.5209961 .2163086C.5209961 .34335328 .4229889 .4423828 .30899049 .4423828 .23098755 .4423828 .18798828 .39537049 .17199707 .3773651V.69433596L.027999878 .68333438V.6523285C.09799194 .6523285 .10598755 .6453247 .10598755 .596344V.00024414063H.1309967L.16699219 .06227112C.18199158 .039260866 .22399903-.0107421879 .2979889-.0107421879 .4169922-.0107421879 .5209961 .08728027 .5209961 .2163086M.43798829 .21731568C.43798829 .18029785 .43598939 .120285037 .40699769 .07527161 .38598634 .044265748 .34799195 .011245728 .2939911 .011245728 .24899292 .011260986 .21299744 .03526306 .18899536 .072265628 .1749878 .09326172 .1749878 .09625244 .1749878 .11425781V.32034303C.1749878 .3393402 .1749878 .3403473 .18598938 .35635377 .22499085 .41236878 .27999879 .42037965 .3039856 .42037965 .34899903 .42037965 .3849945 .3943634 .40899659 .35635377 .43499757 .31533814 .43798829 .25831605 .43798829 .21730042V.21731568Z"/>
<path id="font_3_43" d="M.4149933 .119140628C.4149933 .12911988 .40499879 .12911988 .4019928 .12911988 .3929901 .12911988 .3909912 .12512207 .3889923 .119140628 .3600006 .026229859 .29499818 .014251709 .2579956 .014251709 .20498657 .014251709 .116989139 .0572052 .116989139 .21801758 .116989139 .38093568 .19898987 .42323304 .2519989 .42323304 .26098634 .42323304 .32398988 .42222596 .35899354 .38594056 .31799317 .38293458 .31199647 .3529358 .31199647 .3399353 .31199647 .31393434 .32998658 .2939453 .35798646 .2939453 .38398744 .2939453 .4039917 .3109436 .4039917 .34094239 .4039917 .40911866 .32798768 .4482422 .25099183 .4482422 .12599182 .4482422 .033996583 .3399353 .033996583 .21601868 .033996583 .08816528 .1329956-.0107421879 .24899292-.0107421879 .3829956-.0107421879 .4149933 .10914612 .4149933 .119140628Z"/>
<path id="font_3_47" d="M.5269928 0V.0309906C.45700074 .0309906 .44898988 .038009645 .44898988 .0871582V.69433596L.30499269 .6826172V.6516113C.375 .6516113 .3829956 .64463809 .3829956 .59580996V.38035584C.35398866 .41636659 .31098939 .4423828 .25698854 .4423828 .13899231 .4423828 .033996583 .3443451 .033996583 .21531677 .033996583 .088272098 .13198853-.0107421879 .24598694-.0107421879 .30999757-.0107421879 .35499574 .023254395 .37998963 .055267335V-.0107421879L.5269928 0M.37998963 .117996219C.37998963 .099990848 .37998963 .09799194 .36898805 .08099365 .33898927 .033218385 .2939911 .011245728 .25099183 .011245728 .20599365 .011245728 .16999817 .037216188 .1459961 .075164798 .11999512 .1161499 .116989139 .17320252 .116989139 .21421814 .116989139 .25125123 .11898804 .31129457 .147995 .35632325 .16899109 .38734437 .20698548 .42037965 .26098634 .42037965 .29599 .42037965 .33799745 .405365 .36898805 .3603363 .37998963 .34332276 .37998963 .34132386 .37998963 .32330323V.117996219Z"/>
<path id="font_3_50" d="M.4149933 .11933899C.4149933 .12934876 .40699769 .13134766 .4019928 .13134766 .3929901 .13134766 .3909912 .12535095 .3889923 .11734009 .35398866 .014251709 .2639923 .014251709 .2539978 .014251709 .20399475 .014251709 .1639862 .044281007 .14099121 .08131409 .11099243 .12934876 .11099243 .19540406 .11099243 .23144531H.3899994C.4119873 .23144531 .4149933 .23144531 .4149933 .2524414 .4149933 .35131837 .36099244 .4482422 .23599243 .4482422 .11999512 .4482422 .027999878 .34532167 .027999878 .22042847 .027999878 .08631897 .1329956-.0107421879 .24798584-.0107421879 .36999513-.0107421879 .4149933 .10032654 .4149933 .11933899M.34899903 .2524414H.11199951C.117996219 .40126039 .20199585 .426239 .23599243 .426239 .33898927 .426239 .34899903 .2913971 .34899903 .2524414Z"/>
<path id="font_3_55" d="M.35699464 .63479617C.35699464 .6717987 .31999208 .7050781 .2669983 .7050781 .19699097 .7050781 .11199951 .65179446 .11199951 .5457611V.43066407H.032989503V.3996582H.11199951V.07595825C.11199951 .0309906 .100997928 .0309906 .033996583 .0309906V0L.147995 .0029907227C.18798828 .0029907227 .23498535 .0029907227 .2749939 0V.0309906H.2539978C.17999268 .0309906 .17799378 .04197693 .17799378 .07795715V.3996582H.2919922V.43066407H.1749878V.5467529C.1749878 .63479617 .22299195 .68307498 .2669983 .68307498 .269989 .68307498 .2849884 .68307498 .2999878 .675827 .28799439 .6717987 .269989 .6587982 .269989 .6338043 .269989 .61079409 .28599549 .5907898 .31298829 .5907898 .34199525 .5907898 .35699464 .61079409 .35699464 .63479617Z"/>
</defs>
<path transform="matrix(1.00003,0,0,-1.00003,63.55748,162.8125)" stroke-width=".3985" stroke-linecap="butt" stroke-miterlimit="10" stroke-linejoin="miter" fill="none" stroke="#000000" d="M56.69362 113.38724C56.69362 129.04294 31.31142 141.73404 0 141.73404-31.31142 141.73404-56.69362 129.04294-56.69362 113.38724-56.69362 97.73152-31.31142 85.04042 0 85.04042 31.31142 85.04042 56.69362 97.73152 56.69362 113.38724ZM0 113.38724"/>
<path transform="matrix(1.00003,0,0,-1.00003,63.55748,162.8125)" stroke-width=".3985" stroke-linecap="butt" stroke-miterlimit="10" stroke-linejoin="miter" fill="none" stroke="#000000" d="M198.42766 113.38724C198.42766 129.04294 173.04547 141.73404 141.73404 141.73404 110.42262 141.73404 85.04042 129.04294 85.04042 113.38724 85.04042 97.73152 110.42262 85.04042 141.73404 85.04042 173.04547 85.04042 198.42766 97.73152 198.42766 113.38724ZM141.73404 113.38724"/>
<path transform="matrix(1.00003,0,0,-1.00003,63.55748,162.8125)" stroke-width=".3985" stroke-linecap="butt" stroke-miterlimit="10" stroke-linejoin="miter" fill="none" stroke="#000000" d="M340.1617 113.38724C340.1617 129.04294 314.7795 141.73404 283.4681 141.73404 252.15666 141.73404 226.77448 129.04294 226.77448 113.38724 226.77448 97.73152 252.15666 85.04042 283.4681 85.04042 314.7795 85.04042 340.1617 97.73152 340.1617 113.38724ZM283.4681 113.38724"/>
<path transform="matrix(1.00003,0,0,-1.00003,63.55748,162.8125)" stroke-width=".3985" stroke-linecap="butt" stroke-miterlimit="10" stroke-linejoin="miter" fill="none" stroke="#000000" d="M56.69362 0C56.69362 15.6557 31.31142 28.3468 0 28.3468-31.31142 28.3468-56.69362 15.6557-56.69362 0-56.69362-15.6557-31.31142-28.3468 0-28.3468 31.31142-28.3468 56.69362-15.6557 56.69362 0ZM0 0"/>
<path transform="matrix(1.00003,0,0,-1.00003,63.55748,162.8125)" stroke-width=".3985" stroke-linecap="butt" stroke-miterlimit="10" stroke-linejoin="miter" fill="none" stroke="#000000" d="M198.42766 0C198.42766 15.6557 173.04547 28.3468 141.73404 28.3468 110.42262 28.3468 85.04042 15.6557 85.04042 0 85.04042-15.6557 110.42262-28.3468 141.73404-28.3468 173.04547-28.3468 198.42766-15.6557 198.42766 0ZM141.73404 0"/>
<path transform="matrix(1.00003,0,0,-1.00003,63.55748,162.8125)" stroke-width=".3985" stroke-linecap="butt" stroke-miterlimit="10" stroke-linejoin="miter" fill="none" stroke="#000000" d="M340.1617 0C340.1617 15.6557 314.7795 28.3468 283.4681 28.3468 252.15666 28.3468 226.77448 15.6557 226.77448 0 226.77448-15.6557 252.15666-28.3468 283.4681-28.3468 314.7795-28.3468 340.1617-15.6557 340.1617 0ZM283.4681 0"/>
<use data-text="&#x2022;" xlink:href="#font_1_1" transform="matrix(9.962899,0,0,-9.962899,32.71955,51.63616)"/>
<use data-text="&#x2022;" xlink:href="#font_1_1" transform="matrix(9.962899,0,0,-9.962899,61.066408,51.63616)"/>
<use data-text="&#x2022;" xlink:href="#font_1_1" transform="matrix(9.962899,0,0,-9.962899,89.41426,51.63616)"/>
<use data-text="&#x2022;" xlink:href="#font_1_1" transform="matrix(9.962899,0,0,-9.962899,174.45783,51.63616)"/>
<use data-text="&#x2022;" xlink:href="#font_1_1" transform="matrix(9.962899,0,0,-9.962899,202.80466,51.63616)"/>
<use data-text="&#x2022;" xlink:href="#font_1_1" transform="matrix(9.962899,0,0,-9.962899,231.15251,51.63616)"/>
<use data-text="&#x2022;" xlink:href="#font_1_1" transform="matrix(9.962899,0,0,-9.962899,316.19606,51.63616)"/>
<use data-text="&#x2022;" xlink:href="#font_1_1" transform="matrix(9.962899,0,0,-9.962899,344.5429,51.63616)"/>
<use data-text="&#x2022;" xlink:href="#font_1_1" transform="matrix(9.962899,0,0,-9.962899,372.89076,51.63616)"/>
<use data-text="&#x2022;" xlink:href="#font_1_1" transform="matrix(9.962899,0,0,-9.962899,32.71955,165.02657)"/>
<use data-text="&#x2022;" xlink:href="#font_1_1" transform="matrix(9.962899,0,0,-9.962899,61.066408,165.02657)"/>
<use data-text="&#x2022;" xlink:href="#font_1_1" transform="matrix(9.962899,0,0,-9.962899,89.41426,165.02657)"/>
<use data-text="&#x2022;" xlink:href="#font_1_1" transform="matrix(9.962899,0,0,-9.962899,174.45783,165.02657)"/>
<use data-text="&#x2022;" xlink:href="#font_1_1" transform="matrix(9.962899,0,0,-9.962899,202.80466,165.02657)"/>
<use data-text="&#x2022;" xlink:href="#font_1_1" transform="matrix(9.962899,0,0,-9.962899,231.15251,165.02657)"/>
<use data-text="&#x2022;" xlink:href="#font_1_1" transform="matrix(9.962899,0,0,-9.962899,316.19606,165.02657)"/>
<use data-text="&#x2022;" xlink:href="#font_1_1" transform="matrix(9.962899,0,0,-9.962899,336.03865,146.60102)"/>
<use data-text="&#x2022;" xlink:href="#font_1_1" transform="matrix(9.962899,0,0,-9.962899,372.89076,179.2)"/>
<use data-text="0" xlink:href="#font_2_121" transform="matrix(8.966669,0,0,-8.966669,25.732346,65.71658)" fill="#ff0000"/>
<use data-text="i" xlink:href="#font_2_66" transform="matrix(8.966669,0,0,-8.966669,30.341233,65.71658)" fill="#ff0000"/>
<use data-text="," xlink:href="#font_2_45" transform="matrix(8.966669,0,0,-8.966669,32.9057,65.71658)" fill="#ff0000"/>
<use data-text="1" xlink:href="#font_2_82" transform="matrix(8.966669,0,0,-8.966669,35.47017,65.71658)" fill="#ff0000"/>
<use data-text="o" xlink:href="#font_2_81" transform="matrix(8.966669,0,0,-8.966669,40.07904,65.71658)" fill="#ff0000"/>
<use data-text="2" xlink:href="#font_2_107" transform="matrix(8.966669,0,0,-8.966669,54.079195,65.71658)" fill="#ff0000"/>
<use data-text="i" xlink:href="#font_2_66" transform="matrix(8.966669,0,0,-8.966669,58.68808,65.71658)" fill="#ff0000"/>
<use data-text="," xlink:href="#font_2_45" transform="matrix(8.966669,0,0,-8.966669,61.25255,65.71658)" fill="#ff0000"/>
<use data-text="1" xlink:href="#font_2_82" transform="matrix(8.966669,0,0,-8.966669,63.817018,65.71658)" fill="#ff0000"/>
<use data-text="o" xlink:href="#font_2_81" transform="matrix(8.966669,0,0,-8.966669,68.42589,65.71658)" fill="#ff0000"/>
<use data-text="1" xlink:href="#font_2_82" transform="matrix(8.966669,0,0,-8.966669,82.42705,65.71658)" fill="#ff0000"/>
<use data-text="i" xlink:href="#font_2_66" transform="matrix(8.966669,0,0,-8.966669,87.035938,65.71658)" fill="#ff0000"/>
<use data-text="," xlink:href="#font_2_45" transform="matrix(8.966669,0,0,-8.966669,89.6004,65.71658)" fill="#ff0000"/>
<use data-text="1" xlink:href="#font_2_82" transform="matrix(8.966669,0,0,-8.966669,92.16487,65.71658)" fill="#ff0000"/>
<use data-text="o" xlink:href="#font_2_81" transform="matrix(8.966669,0,0,-8.966669,96.77374,65.71658)" fill="#ff0000"/>
<use data-text="1" xlink:href="#font_2_82" transform="matrix(8.966669,0,0,-8.966669,167.47061,65.71658)" fill="#ff0000"/>
<use data-text="i" xlink:href="#font_2_66" transform="matrix(8.966669,0,0,-8.966669,172.0795,65.71658)" fill="#ff0000"/>
<use data-text="," xlink:href="#font_2_45" transform="matrix(8.966669,0,0,-8.966669,174.64395,65.71658)" fill="#ff0000"/>
<use data-text="1" xlink:href="#font_2_82" transform="matrix(8.966669,0,0,-8.966669,177.20844,65.71658)" fill="#ff0000"/>
<use data-text="o" xlink:href="#font_2_81" transform="matrix(8.966669,0,0,-8.966669,181.81729,65.71658)" fill="#ff0000"/>
<use data-text="1" xlink:href="#font_2_82" transform="matrix(8.966669,0,0,-8.966669,195.81745,65.71658)" fill="#ff0000"/>
<use data-text="i" xlink:href="#font_2_66" transform="matrix(8.966669,0,0,-8.966669,200.42633,65.71658)" fill="#ff0000"/>
<use data-text="," xlink:href="#font_2_45" transform="matrix(8.966669,0,0,-8.966669,202.9908,65.71658)" fill="#ff0000"/>
<use data-text="2" xlink:href="#font_2_107" transform="matrix(8.966669,0,0,-8.966669,205.55527,65.71658)" fill="#ff0000"/>
<use data-text="o" xlink:href="#font_2_81" transform="matrix(8.966669,0,0,-8.966669,210.16414,65.71658)" fill="#ff0000"/>
<use data-text="1" xlink:href="#font_2_82" transform="matrix(8.966669,0,0,-8.966669,224.1653,65.71658)" fill="#ff0000"/>
<use data-text="i" xlink:href="#font_2_66" transform="matrix(8.966669,0,0,-8.966669,228.77419,65.71658)" fill="#ff0000"/>
<use data-text="," xlink:href="#font_2_45" transform="matrix(8.966669,0,0,-8.966669,231.33866,65.71658)" fill="#ff0000"/>
<use data-text="0" xlink:href="#font_2_121" transform="matrix(8.966669,0,0,-8.966669,233.90312,65.71658)" fill="#ff0000"/>
<use data-text="o" xlink:href="#font_2_81" transform="matrix(8.966669,0,0,-8.966669,238.512,65.71658)" fill="#ff0000"/>
<use data-text="0" xlink:href="#font_2_121" transform="matrix(8.966669,0,0,-8.966669,309.20887,65.71658)" fill="#ff0000"/>
<use data-text="i" xlink:href="#font_2_66" transform="matrix(8.966669,0,0,-8.966669,313.81776,65.71658)" fill="#ff0000"/>
<use data-text="," xlink:href="#font_2_45" transform="matrix(8.966669,0,0,-8.966669,316.3822,65.71658)" fill="#ff0000"/>
<use data-text="3" xlink:href="#font_2_106" transform="matrix(8.966669,0,0,-8.966669,318.9467,65.71658)" fill="#ff0000"/>
<use data-text="o" xlink:href="#font_2_81" transform="matrix(8.966669,0,0,-8.966669,323.55555,65.71658)" fill="#ff0000"/>
<use data-text="2" xlink:href="#font_2_107" transform="matrix(8.966669,0,0,-8.966669,337.5567,65.71658)" fill="#ff0000"/>
<use data-text="i" xlink:href="#font_2_66" transform="matrix(8.966669,0,0,-8.966669,342.1656,65.71658)" fill="#ff0000"/>
<use data-text="," xlink:href="#font_2_45" transform="matrix(8.966669,0,0,-8.966669,344.73008,65.71658)" fill="#ff0000"/>
<use data-text="0" xlink:href="#font_2_121" transform="matrix(8.966669,0,0,-8.966669,347.29457,65.71658)" fill="#ff0000"/>
<use data-text="o" xlink:href="#font_2_81" transform="matrix(8.966669,0,0,-8.966669,351.9034,65.71658)" fill="#ff0000"/>
<use data-text="1" xlink:href="#font_2_82" transform="matrix(8.966669,0,0,-8.966669,365.90357,65.71658)" fill="#ff0000"/>
<use data-text="i" xlink:href="#font_2_66" transform="matrix(8.966669,0,0,-8.966669,370.51246,65.71658)" fill="#ff0000"/>
<use data-text="," xlink:href="#font_2_45" transform="matrix(8.966669,0,0,-8.966669,373.07695,65.71658)" fill="#ff0000"/>
<use data-text="0" xlink:href="#font_2_121" transform="matrix(8.966669,0,0,-8.966669,375.64143,65.71658)" fill="#ff0000"/>
<use data-text="o" xlink:href="#font_2_81" transform="matrix(8.966669,0,0,-8.966669,380.25028,65.71658)" fill="#ff0000"/>
<use data-text="0" xlink:href="#font_2_121" transform="matrix(8.966669,0,0,-8.966669,25.732346,150.75914)" fill="#ff0000"/>
<use data-text="i" xlink:href="#font_2_66" transform="matrix(8.966669,0,0,-8.966669,30.341233,150.75914)" fill="#ff0000"/>
<use data-text="," xlink:href="#font_2_45" transform="matrix(8.966669,0,0,-8.966669,32.9057,150.75914)" fill="#ff0000"/>
<use data-text="1" xlink:href="#font_2_82" transform="matrix(8.966669,0,0,-8.966669,35.47017,150.75914)" fill="#ff0000"/>
<use data-text="o" xlink:href="#font_2_81" transform="matrix(8.966669,0,0,-8.966669,40.07904,150.75914)" fill="#ff0000"/>
<use data-text="2" xlink:href="#font_2_107" transform="matrix(8.966669,0,0,-8.966669,54.079195,150.75914)" fill="#ff0000"/>
<use data-text="i" xlink:href="#font_2_66" transform="matrix(8.966669,0,0,-8.966669,58.68808,150.75914)" fill="#ff0000"/>
<use data-text="," xlink:href="#font_2_45" transform="matrix(8.966669,0,0,-8.966669,61.25255,150.75914)" fill="#ff0000"/>
<use data-text="1" xlink:href="#font_2_82" transform="matrix(8.966669,0,0,-8.966669,63.817018,150.75914)" fill="#ff0000"/>
<use data-text="o" xlink:href="#font_2_81" transform="matrix(8.966669,0,0,-8.966669,68.42589,150.75914)" fill="#ff0000"/>
<use data-text="1" xlink:href="#font_2_82" transform="matrix(8.966669,0,0,-8.966669,82.42705,150.75914)" fill="#ff0000"/>
<use data-text="i" xlink:href="#font_2_66" transform="matrix(8.966669,0,0,-8.966669,87.035938,150.75914)" fill="#ff0000"/>
<use data-text="," xlink:href="#font_2_45" transform="matrix(8.966669,0,0,-8.966669,89.6004,150.75914)" fill="#ff0000"/>
<use data-text="1" xlink:href="#font_2_82" transform="matrix(8.966669,0,0,-8.966669,92.16487,150.75914)" fill="#ff0000"/>
<use data-text="o" xlink:href="#font_2_81" transform="matrix(8.966669,0,0,-8.966669,96.77374,150.75914)" fill="#ff0000"/>
<use data-text="1" xlink:href="#font_2_82" transform="matrix(8.966669,0,0,-8.966669,167.47061,150.75914)" fill="#ff0000"/>
<use data-text="i" xlink:href="#font_2_66" transform="matrix(8.966669,0,0,-8.966669,172.0795,150.75914)" fill="#ff0000"/>
<use data-text="," xlink:href="#font_2_45" transform="matrix(8.966669,0,0,-8.966669,174.64395,150.75914)" fill="#ff0000"/>
<use data-text="2" xlink:href="#font_2_107" transform="matrix(8.966669,0,0,-8.966669,177.20844,150.75914)" fill="#ff0000"/>
<use data-text="o" xlink:href="#font_2_81" transform="matrix(8.966669,0,0,-8.966669,181.81729,150.75914)" fill="#ff0000"/>
<use data-text="1" xlink:href="#font_2_82" transform="matrix(8.966669,0,0,-8.966669,195.81745,150.75914)" fill="#ff0000"/>
<use data-text="i" xlink:href="#font_2_66" transform="matrix(8.966669,0,0,-8.966669,200.42633,150.75914)" fill="#ff0000"/>
<use data-text="," xlink:href="#font_2_45" transform="matrix(8.966669,0,0,-8.966669,202.9908,150.75914)" fill="#ff0000"/>
<use data-text="0" xlink:href="#font_2_121" transform="matrix(8.966669,0,0,-8.966669,205.55527,150.75914)" fill="#ff0000"/>
<use data-text="o" xlink:href="#font_2_81" transform="matrix(8.966669,0,0,-8.966669,210.16414,150.75914)" fill="#ff0000"/>
<use data-text="1" xlink:href="#font_2_82" transform="matrix(8.966669,0,0,-8.966669,224.1653,150.75914)" fill="#ff0000"/>
<use data-text="i" xlink:href="#font_2_66" transform="matrix(8.966669,0,0,-8.966669,228.77419,150.75914)" fill="#ff0000"/>
<use data-text="," xlink:href="#font_2_45" transform="matrix(8.966669,0,0,-8.966669,231.33866,150.75914)" fill="#ff0000"/>
<use data-text="1" xlink:href="#font_2_82" transform="matrix(8.966669,0,0,-8.966669,233.90312,150.75914)" fill="#ff0000"/>
<use data-text="o" xlink:href="#font_2_81" transform="matrix(8.966669,0,0,-8.966669,238.512,150.75914)" fill="#ff0000"/>
<use data-text="0" xlink:href="#font_2_121" transform="matrix(8.966669,0,0,-8.966669,309.20887,150.75914)" fill="#ff0000"/>
<use data-text="i" xlink:href="#font_2_66" transform="matrix(8.966669,0,0,-8.966669,313.81776,150.75914)" fill="#ff0000"/>
<use data-text="," xlink:href="#font_2_45" transform="matrix(8.966669,0,0,-8.966669,316.3822,150.75914)" fill="#ff0000"/>
<use data-text="3" xlink:href="#font_2_106" transform="matrix(8.966669,0,0,-8.966669,318.9467,150.75914)" fill="#ff0000"/>
<use data-text="o" xlink:href="#font_2_81" transform="matrix(8.966669,0,0,-8.966669,323.55555,150.75914)" fill="#ff0000"/>
<use data-text="2" xlink:href="#font_2_107" transform="matrix(8.966669,0,0,-8.966669,329.05146,132.33359)" fill="#ff0000"/>
<use data-text="i" xlink:href="#font_2_66" transform="matrix(8.966669,0,0,-8.966669,333.66035,132.33359)" fill="#ff0000"/>
<use data-text="," xlink:href="#font_2_45" transform="matrix(8.966669,0,0,-8.966669,336.2248,132.33359)" fill="#ff0000"/>
<use data-text="0" xlink:href="#font_2_121" transform="matrix(8.966669,0,0,-8.966669,338.78926,132.33359)" fill="#ff0000"/>
<use data-text="o" xlink:href="#font_2_81" transform="matrix(8.966669,0,0,-8.966669,343.39814,132.33359)" fill="#ff0000"/>
<use data-text="1" xlink:href="#font_2_82" transform="matrix(8.966669,0,0,-8.966669,365.90357,164.93357)" fill="#ff0000"/>
<use data-text="i" xlink:href="#font_2_66" transform="matrix(8.966669,0,0,-8.966669,370.51246,164.93357)" fill="#ff0000"/>
<use data-text="," xlink:href="#font_2_45" transform="matrix(8.966669,0,0,-8.966669,373.07695,164.93357)" fill="#ff0000"/>
<use data-text="0" xlink:href="#font_2_121" transform="matrix(8.966669,0,0,-8.966669,375.64143,164.93357)" fill="#ff0000"/>
<use data-text="o" xlink:href="#font_2_81" transform="matrix(8.966669,0,0,-8.966669,380.25028,164.93357)" fill="#ff0000"/>
<path transform="matrix(1.00003,0,0,-1.00003,63.55748,162.8125)" stroke-width=".3985" stroke-linecap="butt" stroke-miterlimit="10" stroke-linejoin="miter" fill="none" stroke="#000000" d="M-22.33629 113.38724H-9.07442"/>
<path transform="matrix(1.00003,0,0,-1.00003,52.764558,49.42186)" d="M4.21463 0 .64343 1.34572 1.8178 0 .64343-1.34572Z"/>
<path transform="matrix(1.00003,0,0,-1.00003,52.764558,49.42186)" stroke-width=".3985" stroke-linecap="butt" stroke-miterlimit="10" stroke-linejoin="miter" fill="none" stroke="#000000" d="M4.21463 0 .64343 1.34572 1.8178 0 .64343-1.34572Z"/>
<path transform="matrix(1.00003,0,0,-1.00003,63.55748,162.8125)" stroke-width=".3985" stroke-linecap="butt" stroke-miterlimit="10" stroke-linejoin="miter" fill="none" stroke="#000000" d="M6.0105 116.85646C11.52412 120.03973 16.82266 120.03973 19.6829 118.38837"/>
<path transform="matrix(.866036,.49999503,.49999503,-.866036,81.75296,43.561494)" d="M4.21463 0 .64343 1.34572 1.8178 0 .64343-1.34572Z"/>
<path transform="matrix(.866036,.49999503,.49999503,-.866036,81.75296,43.561494)" stroke-width=".3985" stroke-linecap="butt" stroke-miterlimit="10" stroke-linejoin="miter" fill="none" stroke="#000000" d="M4.21463 0 .64343 1.34572 1.8178 0 .64343-1.34572Z"/>
<path transform="matrix(1.00003,0,0,-1.00003,63.55748,162.8125)" stroke-width=".3985" stroke-linecap="butt" stroke-miterlimit="10" stroke-linejoin="miter" fill="none" stroke="#000000" d="M22.33629 109.918C16.82266 106.73473 11.52412 106.73473 8.6639 108.3861"/>
<path transform="matrix(-.866036,-.49999503,-.49999503,.866036,73.70965,55.282236)" d="M4.21463 0 .64343 1.34572 1.8178 0 .64343-1.34572Z"/>
<path transform="matrix(-.866036,-.49999503,-.49999503,.866036,73.70965,55.282236)" stroke-width=".3985" stroke-linecap="butt" stroke-miterlimit="10" stroke-linejoin="miter" fill="none" stroke="#000000" d="M4.21463 0 .64343 1.34572 1.8178 0 .64343-1.34572Z"/>
<path transform="matrix(1.00003,0,0,-1.00003,63.55748,162.8125)" stroke-width=".3985" stroke-linecap="butt" stroke-miterlimit="10" stroke-linejoin="miter" fill="none" stroke="#000000" d="M-22.33629 0H-9.07442"/>
<path transform="matrix(1.00003,0,0,-1.00003,52.764558,162.8125)" d="M4.21463 0 .64343 1.34572 1.8178 0 .64343-1.34572Z"/>
<path transform="matrix(1.00003,0,0,-1.00003,52.764558,162.8125)" stroke-width=".3985" stroke-linecap="butt" stroke-miterlimit="10" stroke-linejoin="miter" fill="none" stroke="#000000" d="M4.21463 0 .64343 1.34572 1.8178 0 .64343-1.34572Z"/>
<path transform="matrix(1.00003,0,0,-1.00003,63.55748,162.8125)" stroke-width=".3985" stroke-linecap="butt" stroke-miterlimit="10" stroke-linejoin="miter" fill="none" stroke="#000000" d="M6.0105-3.46922C11.52412-6.6525 16.82266-6.6525 19.6829-5.00113"/>
<path transform="matrix(.866036,-.49999503,-.49999503,-.866036,81.75296,168.67285)" d="M4.21463 0 .64343 1.34572 1.8178 0 .64343-1.34572Z"/>
<path transform="matrix(.866036,-.49999503,-.49999503,-.866036,81.75296,168.67285)" stroke-width=".3985" stroke-linecap="butt" stroke-miterlimit="10" stroke-linejoin="miter" fill="none" stroke="#000000" d="M4.21463 0 .64343 1.34572 1.8178 0 .64343-1.34572Z"/>
<path transform="matrix(1.00003,0,0,-1.00003,63.55748,162.8125)" stroke-width=".3985" stroke-linecap="butt" stroke-miterlimit="10" stroke-linejoin="miter" fill="none" stroke="#000000" d="M22.33629 3.46922C16.82266 6.6525 11.52412 6.6525 8.6639 5.00113"/>
<path transform="matrix(-.866036,.49999503,.49999503,.866036,73.70965,156.95215)" d="M4.21463 0 .64343 1.34572 1.8178 0 .64343-1.34572Z"/>
<path transform="matrix(-.866036,.49999503,.49999503,.866036,73.70965,156.95215)" stroke-width=".3985" stroke-linecap="butt" stroke-miterlimit="10" stroke-linejoin="miter" fill="none" stroke="#000000" d="M4.21463 0 .64343 1.34572 1.8178 0 .64343-1.34572Z"/>
<path transform="matrix(1.00003,0,0,-1.00003,63.55748,162.8125)" stroke-width=".3985" stroke-linecap="butt" stroke-miterlimit="10" stroke-linejoin="miter" fill="none" stroke="#000000" d="M119.39775 116.85646C124.91136 120.03973 130.20992 120.03973 133.07015 118.38837"/>
<path transform="matrix(.866036,.49999503,.49999503,-.866036,195.1436,43.561494)" d="M4.21463 0 .64343 1.34572 1.8178 0 .64343-1.34572Z"/>
<path transform="matrix(.866036,.49999503,.49999503,-.866036,195.1436,43.561494)" stroke-width=".3985" stroke-linecap="butt" stroke-miterlimit="10" stroke-linejoin="miter" fill="none" stroke="#000000" d="M4.21463 0 .64343 1.34572 1.8178 0 .64343-1.34572Z"/>
<path transform="matrix(1.00003,0,0,-1.00003,63.55748,162.8125)" stroke-width=".3985" stroke-linecap="butt" stroke-miterlimit="10" stroke-linejoin="miter" fill="none" stroke="#000000" d="M135.72353 109.918C130.20992 106.73473 124.91136 106.73473 122.05113 108.3861"/>
<path transform="matrix(-.866036,-.49999503,-.49999503,.866036,187.10028,55.282236)" d="M4.21463 0 .64343 1.34572 1.8178 0 .64343-1.34572Z"/>
<path transform="matrix(-.866036,-.49999503,-.49999503,.866036,187.10028,55.282236)" stroke-width=".3985" stroke-linecap="butt" stroke-miterlimit="10" stroke-linejoin="miter" fill="none" stroke="#000000" d="M4.21463 0 .64343 1.34572 1.8178 0 .64343-1.34572Z"/>
<path transform="matrix(1.00003,0,0,-1.00003,63.55748,162.8125)" stroke-width=".3985" stroke-linecap="butt" stroke-miterlimit="10" stroke-linejoin="miter" fill="none" stroke="#000000" d="M147.74456 113.38724H161.00643"/>
<path transform="matrix(1.00003,0,0,-1.00003,222.85051,49.42186)" d="M4.21463 0 .64343 1.34572 1.8178 0 .64343-1.34572Z"/>
<path transform="matrix(1.00003,0,0,-1.00003,222.85051,49.42186)" stroke-width=".3985" stroke-linecap="butt" stroke-miterlimit="10" stroke-linejoin="miter" fill="none" stroke="#000000" d="M4.21463 0 .64343 1.34572 1.8178 0 .64343-1.34572Z"/>
<path transform="matrix(1.00003,0,0,-1.00003,63.55748,162.8125)" stroke-width=".3985" stroke-linecap="butt" stroke-miterlimit="10" stroke-linejoin="miter" fill="none" stroke="#000000" d="M119.39775 3.46793C134.48482 12.17844 148.98328 12.17844 161.41696 4.99983"/>
<path transform="matrix(.866036,.49999503,.49999503,-.866036,223.49127,156.95343)" d="M4.21463 0 .64343 1.34572 1.8178 0 .64343-1.34572Z"/>
<path transform="matrix(.866036,.49999503,.49999503,-.866036,223.49127,156.95343)" stroke-width=".3985" stroke-linecap="butt" stroke-miterlimit="10" stroke-linejoin="miter" fill="none" stroke="#000000" d="M4.21463 0 .64343 1.34572 1.8178 0 .64343-1.34572Z"/>
<path transform="matrix(1.00003,0,0,-1.00003,63.55748,162.8125)" stroke-width=".3985" stroke-linecap="butt" stroke-miterlimit="10" stroke-linejoin="miter" fill="none" stroke="#000000" d="M164.07035-3.46793C148.98328-12.17844 134.48482-12.17844 122.05113-4.99983"/>
<path transform="matrix(-.866036,-.49999503,-.49999503,.866036,187.10028,168.67157)" d="M4.21463 0 .64343 1.34572 1.8178 0 .64343-1.34572Z"/>
<path transform="matrix(-.866036,-.49999503,-.49999503,.866036,187.10028,168.67157)" stroke-width=".3985" stroke-linecap="butt" stroke-miterlimit="10" stroke-linejoin="miter" fill="none" stroke="#000000" d="M4.21463 0 .64343 1.34572 1.8178 0 .64343-1.34572Z"/>
<path transform="matrix(1.00003,0,0,-1.00003,63.55748,162.8125)" stroke-width=".3985" stroke-linecap="butt" stroke-miterlimit="10" stroke-linejoin="miter" fill="none" stroke="#000000" d="M119.39775 0H132.65962"/>
<path transform="matrix(1.00003,0,0,-1.00003,194.50284,162.8125)" d="M4.21463 0 .64343 1.34572 1.8178 0 .64343-1.34572Z"/>
<path transform="matrix(1.00003,0,0,-1.00003,194.50284,162.8125)" stroke-width=".3985" stroke-linecap="butt" stroke-miterlimit="10" stroke-linejoin="miter" fill="none" stroke="#000000" d="M4.21463 0 .64343 1.34572 1.8178 0 .64343-1.34572Z"/>
<path transform="matrix(1.00003,0,0,-1.00003,63.55748,162.8125)" stroke-width=".3985" stroke-linecap="butt" stroke-miterlimit="10" stroke-linejoin="miter" fill="none" stroke="#000000" d="M261.13179 113.38724H274.39366"/>
<path transform="matrix(1.00003,0,0,-1.00003,336.24116,49.42186)" d="M4.21463 0 .64343 1.34572 1.8178 0 .64343-1.34572Z"/>
<path transform="matrix(1.00003,0,0,-1.00003,336.24116,49.42186)" stroke-width=".3985" stroke-linecap="butt" stroke-miterlimit="10" stroke-linejoin="miter" fill="none" stroke="#000000" d="M4.21463 0 .64343 1.34572 1.8178 0 .64343-1.34572Z"/>
<path transform="matrix(1.00003,0,0,-1.00003,63.55748,162.8125)" stroke-width=".3985" stroke-linecap="butt" stroke-miterlimit="10" stroke-linejoin="miter" fill="none" stroke="#000000" d="M261.13179 116.85516C276.21888 125.56567 290.71733 125.56567 303.151 118.38707"/>
<path transform="matrix(.866036,.49999503,.49999503,-.866036,365.22956,43.562776)" d="M4.21463 0 .64343 1.34572 1.8178 0 .64343-1.34572Z"/>
<path transform="matrix(.866036,.49999503,.49999503,-.866036,365.22956,43.562776)" stroke-width=".3985" stroke-linecap="butt" stroke-miterlimit="10" stroke-linejoin="miter" fill="none" stroke="#000000" d="M4.21463 0 .64343 1.34572 1.8178 0 .64343-1.34572Z"/>
<path transform="matrix(1.00003,0,0,-1.00003,63.55748,162.8125)" stroke-width=".3985" stroke-linecap="butt" stroke-miterlimit="10" stroke-linejoin="miter" fill="none" stroke="#000000" d="M261.13179 109.9193C276.21888 101.20879 290.71733 101.20879 303.151 108.38739"/>
<path transform="matrix(.866036,-.49999503,-.49999503,-.866036,365.22956,55.28093)" d="M4.21463 0 .64343 1.34572 1.8178 0 .64343-1.34572Z"/>
<path transform="matrix(.866036,-.49999503,-.49999503,-.866036,365.22956,55.28093)" stroke-width=".3985" stroke-linecap="butt" stroke-miterlimit="10" stroke-linejoin="miter" fill="none" stroke="#000000" d="M4.21463 0 .64343 1.34572 1.8178 0 .64343-1.34572Z"/>
<path transform="matrix(1.00003,0,0,-1.00003,63.55748,162.8125)" stroke-width=".3985" stroke-linecap="butt" stroke-miterlimit="10" stroke-linejoin="miter" fill="none" stroke="#000000" d="M261.13179 5.5811 266.7085 10.76003"/>
<path transform="matrix(.732732,-.68050047,-.68050047,-.732732,329.015,153.22138)" d="M4.21463 0 .64343 1.34572 1.8178 0 .64343-1.34572Z"/>
<path transform="matrix(.732732,-.68050047,-.68050047,-.732732,329.015,153.22138)" stroke-width=".3985" stroke-linecap="butt" stroke-miterlimit="10" stroke-linejoin="miter" fill="none" stroke="#000000" d="M4.21463 0 .64343 1.34572 1.8178 0 .64343-1.34572Z"/>
<path transform="matrix(1.00003,0,0,-1.00003,63.55748,162.8125)" stroke-width=".3985" stroke-linecap="butt" stroke-miterlimit="10" stroke-linejoin="miter" fill="none" stroke="#000000" d="M261.13179 1.71915C278.26914 7.02773 292.72016 3.74738 303.6378-6.35844"/>
<path transform="matrix(.73386207,.6792804,.6792804,-.73386207,365.94349,168.00402)" d="M4.21463 0 .64343 1.34572 1.8178 0 .64343-1.34572Z"/>
<path transform="matrix(.73386207,.6792804,.6792804,-.73386207,365.94349,168.00402)" stroke-width=".3985" stroke-linecap="butt" stroke-miterlimit="10" stroke-linejoin="miter" fill="none" stroke="#000000" d="M4.21463 0 .64343 1.34572 1.8178 0 .64343-1.34572Z"/>
<path transform="matrix(1.00003,0,0,-1.00003,63.55748,162.8125)" stroke-width=".3985" stroke-linecap="butt" stroke-miterlimit="10" stroke-linejoin="miter" fill="none" stroke="#000000" d="M261.04997-5.73375C274.21607-17.92076 288.66709-21.20113 302.87779-16.79906"/>
<path transform="matrix(.95520868,-.2958789,-.2958789,-.95520868,364.80317,180.12044)" d="M4.21463 0 .64343 1.34572 1.8178 0 .64343-1.34572Z"/>
<path transform="matrix(.95520868,-.2958789,-.2958789,-.95520868,364.80317,180.12044)" stroke-width=".3985" stroke-linecap="butt" stroke-miterlimit="10" stroke-linejoin="miter" fill="none" stroke="#000000" d="M4.21463 0 .64343 1.34572 1.8178 0 .64343-1.34572Z"/>
<path transform="matrix(1.00003,0,0,-1.00003,63.55748,162.8125)" stroke-width=".3985" stroke-linecap="butt" stroke-miterlimit="10" stroke-linejoin="miter" fill="none" stroke="#ff0000" d="M-28.3468 89.85039V23.53683"/>
<path transform="matrix(0,-1.00003,-1.00003,-0,35.20983,72.95941)" d="M1.99252 0-1.19551 1.59401 0 0-1.19551-1.59401" fill="#ff0000"/>
<path transform="matrix(0,1.00003,1.00003,0,35.20983,139.27497)" d="M1.99252 0-1.19551 1.59401 0 0-1.19551-1.59401" fill="#ff0000"/>
<path transform="matrix(1.00003,0,0,-1.00003,63.55748,162.8125)" stroke-width=".3985" stroke-linecap="butt" stroke-miterlimit="10" stroke-linejoin="miter" fill="none" stroke="#ff0000" d="M0 89.85039V23.53683"/>
<path transform="matrix(0,-1.00003,-1.00003,-0,63.55748,72.95941)" d="M1.99252 0-1.19551 1.59401 0 0-1.19551-1.59401" fill="#ff0000"/>
<path transform="matrix(0,1.00003,1.00003,0,63.55748,139.27497)" d="M1.99252 0-1.19551 1.59401 0 0-1.19551-1.59401" fill="#ff0000"/>
<path transform="matrix(1.00003,0,0,-1.00003,63.55748,162.8125)" stroke-width=".3985" stroke-linecap="butt" stroke-miterlimit="10" stroke-linejoin="miter" fill="none" stroke="#ff0000" d="M28.3468 89.85039V23.53683"/>
<path transform="matrix(0,-1.00003,-1.00003,-0,91.90513,72.95941)" d="M1.99252 0-1.19551 1.59401 0 0-1.19551-1.59401" fill="#ff0000"/>
<path transform="matrix(0,1.00003,1.00003,0,91.90513,139.27497)" d="M1.99252 0-1.19551 1.59401 0 0-1.19551-1.59401" fill="#ff0000"/>
<path transform="matrix(1.00003,0,0,-1.00003,63.55748,162.8125)" stroke-width=".3985" stroke-linecap="butt" stroke-miterlimit="10" stroke-linejoin="miter" fill="none" stroke="#ff0000" d="M119.40314 90.1852 164.06664 23.20203"/>
<path transform="matrix(-.5547467,-.83199498,-.83199498,.5547467,182.96422,72.62461)" d="M1.99252 0-1.19551 1.59401 0 0-1.19551-1.59401" fill="#ff0000"/>
<path transform="matrix(.5547467,.83199498,.83199498,-.5547467,227.62903,139.60977)" d="M1.99252 0-1.19551 1.59401 0 0-1.19551-1.59401" fill="#ff0000"/>
<path transform="matrix(1.00003,0,0,-1.00003,63.55748,162.8125)" stroke-width=".3985" stroke-linecap="butt" stroke-miterlimit="10" stroke-linejoin="miter" fill="none" stroke="#ff0000" d="M138.64867 89.95276 116.47182 23.43446"/>
<path transform="matrix(.3162595,-.9486485,-.9486485,-.3162595,202.2103,72.85704)" d="M1.99252 0-1.19551 1.59401 0 0-1.19551-1.59401" fill="#ff0000"/>
<path transform="matrix(-.3162595,.9486485,.9486485,.3162595,180.0328,139.37734)" d="M1.99252 0-1.19551 1.59401 0 0-1.19551-1.59401" fill="#ff0000"/>
<path transform="matrix(1.00003,0,0,-1.00003,63.55748,162.8125)" stroke-width=".3985" stroke-linecap="butt" stroke-miterlimit="10" stroke-linejoin="miter" fill="none" stroke="#ff0000" d="M166.99547 89.95276 144.81864 23.43446"/>
<path transform="matrix(.3162595,-.9486485,-.9486485,-.3162595,230.55796,72.85704)" d="M1.99252 0-1.19551 1.59401 0 0-1.19551-1.59401" fill="#ff0000"/>
<path transform="matrix(-.3162595,.9486485,.9486485,.3162595,208.38048,139.37734)" d="M1.99252 0-1.19551 1.59401 0 0-1.19551-1.59401" fill="#ff0000"/>
<path transform="matrix(1.00003,0,0,-1.00003,63.55748,162.8125)" stroke-width=".3985" stroke-linecap="butt" stroke-miterlimit="10" stroke-linejoin="miter" fill="none" stroke="#ff0000" d="M255.12128 89.85039V23.53683"/>
<path transform="matrix(0,-1.00003,-1.00003,-0,318.6864,72.95941)" d="M1.99252 0-1.19551 1.59401 0 0-1.19551-1.59401" fill="#ff0000"/>
<path transform="matrix(0,1.00003,1.00003,0,318.6864,139.27497)" d="M1.99252 0-1.19551 1.59401 0 0-1.19551-1.59401" fill="#ff0000"/>
<path transform="matrix(1.00003,0,0,-1.00003,63.55748,162.8125)" stroke-width=".3985" stroke-linecap="butt" stroke-miterlimit="10" stroke-linejoin="miter" fill="none" stroke="#ff0000" d="M282.275 89.8665 276.15708 41.94595"/>
<path transform="matrix(.1266238,-.9919398,-.9919398,-.1266238,345.84095,72.9433)" d="M1.99252 0-1.19551 1.59401 0 0-1.19551-1.59401" fill="#ff0000"/>
<path transform="matrix(-.1266238,.9919398,.9919398,.1266238,339.72285,120.865299)" d="M1.99252 0-1.19551 1.59401 0 0-1.19551-1.59401" fill="#ff0000"/>
<path transform="matrix(1.00003,0,0,-1.00003,63.55748,162.8125)" stroke-width=".3985" stroke-linecap="butt" stroke-miterlimit="10" stroke-linejoin="miter" fill="none" stroke="#ff0000" d="M311.8149 89.85039V9.36343"/>
<path transform="matrix(0,-1.00003,-1.00003,-0,375.38179,72.95941)" d="M1.99252 0-1.19551 1.59401 0 0-1.19551-1.59401" fill="#ff0000"/>
<path transform="matrix(0,1.00003,1.00003,0,375.38179,153.44879)" d="M1.99252 0-1.19551 1.59401 0 0-1.19551-1.59401" fill="#ff0000"/>
<use data-text="(" xlink:href="#font_3_85" transform="matrix(9.962899,0,0,-9.962899,.49557496,9.390884)"/>
<use data-text="a" xlink:href="#font_3_28" transform="matrix(9.962899,0,0,-9.962899,4.371155,9.390884)"/>
<use data-text=")" xlink:href="#font_3_86" transform="matrix(9.962899,0,0,-9.962899,9.3526,9.390884)"/>
<use data-text="(" xlink:href="#font_3_85" transform="matrix(9.962899,0,0,-9.962899,141.95484,9.390884)"/>
<use data-text="b" xlink:href="#font_3_35" transform="matrix(9.962899,0,0,-9.962899,145.83042,9.390884)"/>
<use data-text=")" xlink:href="#font_3_86" transform="matrix(9.962899,0,0,-9.962899,151.36978,9.390884)"/>
<use data-text="(" xlink:href="#font_3_85" transform="matrix(9.962899,0,0,-9.962899,284.2511,9.390884)"/>
<use data-text="c" xlink:href="#font_3_43" transform="matrix(9.962899,0,0,-9.962899,288.12669,9.390884)"/>
<use data-text=")" xlink:href="#font_3_86" transform="matrix(9.962899,0,0,-9.962899,292.55024,9.390884)"/>
<use data-text="(" xlink:href="#font_3_85" transform="matrix(9.962899,0,0,-9.962899,.21658325,122.7823)"/>
<use data-text="d" xlink:href="#font_3_47" transform="matrix(9.962899,0,0,-9.962899,4.092163,122.7823)"/>
<use data-text=")" xlink:href="#font_3_86" transform="matrix(9.962899,0,0,-9.962899,9.631531,122.7823)"/>
<use data-text="(" xlink:href="#font_3_85" transform="matrix(9.962899,0,0,-9.962899,142.51285,122.7823)"/>
<use data-text="e" xlink:href="#font_3_50" transform="matrix(9.962899,0,0,-9.962899,146.38843,122.7823)"/>
<use data-text=")" xlink:href="#font_3_86" transform="matrix(9.962899,0,0,-9.962899,150.81198,122.7823)"/>
<use data-text="(" xlink:href="#font_3_85" transform="matrix(9.962899,0,0,-9.962899,284.79914,122.7823)"/>
<use data-text="f" xlink:href="#font_3_55" transform="matrix(9.962899,0,0,-9.962899,288.6747,122.7823)"/>
<use data-text=")" xlink:href="#font_3_86" transform="matrix(9.962899,0,0,-9.962899,292.00233,122.7823)"/>
</svg>
