<svg xmlns="http://www.w3.org/2000/svg" xmlns:xlink="http://www.w3.org/1999/xlink" xmlns:inkscape="http://www.inkscape.org/namespaces/inkscape" version="1.1" width="365" height="201" viewBox="0 0 365 201">
<defs>
<path id="font_1_27" d="M.71699526 0V.0309906H.69898989C.6389923 .0309906 .625 .037979127 .6139984 .07095337L.397995 .6958008C.3929901 .7088165 .3909912 .7158203 .375 .7158203 .35899354 .7158203 .35598756 .70980837 .35099793 .6958008L.14399719 .09791565C.12599182 .04698181 .085998538 .03199768 .03199768 .0309906V0L.13398743 .0029907227 .24899292 0V.0309906C.19898987 .0309906 .17399597 .05596924 .17399597 .0819397 .17399597 .08493042 .1749878 .09492493 .17599488 .09692383L.22200012 .2277832H.46899415L.5219879 .07495117C.522995 .07095337 .5249939 .064956668 .5249939 .060958864 .5249939 .0309906 .46899415 .0309906 .44198609 .0309906V0C.47799684 .0029907227 .5479889 .0029907227 .58599856 .0029907227L.71699526 0M.45799256 .25878907H.23298645L.34498597 .58380129 .45799256 .25878907Z"/>
<path id="font_1_96" d="M.3639984 .38137818C.3639984 .41337586 .33299256 .4423828 .2899933 .4423828 .21699524 .4423828 .18099976 .37538148 .16699219 .3323822V.4423828L.027999878 .43066407V.3996582C.09799194 .3996582 .10598755 .39266969 .10598755 .34370423V.07595825C.10598755 .0309906 .09498596 .0309906 .027999878 .0309906V0L.14199829 .0029907227C.18199158 .0029907227 .22898865 .0029907227 .2689972 0V.0309906H.24798584C.17399597 .0309906 .17199707 .04197693 .17199707 .07795715V.23181153C.17199707 .33137513 .21398926 .42037965 .2899933 .42037965 .29699708 .42037965 .29899598 .42037965 .30099488 .41937257 .2979889 .41838075 .27799989 .40637208 .27799989 .3803711 .27799989 .35237123 .29899598 .33737184 .32099916 .33737184 .33898927 .33737184 .3639984 .3493805 .3639984 .38137818Z"/>
<path id="font_1_105" d="M.33198548 .12385559V.18066406H.30699159V.12585449C.30699159 .052108766 .2769928 .014251709 .23999024 .014251709 .17298889 .014251709 .17298889 .10491943 .17298889 .12187195V.3996582H.31599427V.43066407H.17298889V.6142578H.147995C.14698792 .5324249 .116989139 .42565919 .018997193 .42166139V.3996582H.10398865V.12408447C.10398865 .0012512207 .19699097-.0107421879 .23298645-.0107421879 .3039856-.0107421879 .33198548 .060180665 .33198548 .12408447V.12385559Z"/>
<path id="font_1_66" d="M.24699402 0V.0309906C.18099976 .0309906 .1769867 .035995485 .1769867 .075042728V.4423828L.036987306 .43066407V.3996582C.101989749 .3996582 .11099243 .3936615 .11099243 .3447113V.07595825C.11099243 .0309906 .099990848 .0309906 .032989503 .0309906V0L.14299011 .0029907227C.17799378 .0029907227 .21299744 .0009918213 .24699402 0M.19198609 .603775C.19198609 .6307678 .16899109 .6567688 .13899231 .6567688 .10499573 .6567688 .084991458 .6287689 .084991458 .603775 .084991458 .57676699 .10798645 .55078127 .13798523 .55078127 .17199707 .55078127 .19198609 .5787811 .19198609 .603775Z"/>
<path id="font_1_43" d="M.4149933 .119140628C.4149933 .12911988 .40499879 .12911988 .4019928 .12911988 .3929901 .12911988 .3909912 .12512207 .3889923 .119140628 .3600006 .026229859 .29499818 .014251709 .2579956 .014251709 .20498657 .014251709 .116989139 .0572052 .116989139 .21801758 .116989139 .38093568 .19898987 .42323304 .2519989 .42323304 .26098634 .42323304 .32398988 .42222596 .35899354 .38594056 .31799317 .38293458 .31199647 .3529358 .31199647 .3399353 .31199647 .31393434 .32998658 .2939453 .35798646 .2939453 .38398744 .2939453 .4039917 .3109436 .4039917 .34094239 .4039917 .40911866 .32798768 .4482422 .25099183 .4482422 .12599182 .4482422 .033996583 .3399353 .033996583 .21601868 .033996583 .08816528 .1329956-.0107421879 .24899292-.0107421879 .3829956-.0107421879 .4149933 .10914612 .4149933 .119140628Z"/>
<path id="font_1_72" d="M.25498963 0V.0309906C.18798828 .0309906 .1769867 .0309906 .1769867 .07601929V.69433596L.032989503 .6826172V.6516113C.102996829 .6516113 .11099243 .64460757 .11099243 .5956421V.07595825C.11099243 .0309906 .099990848 .0309906 .032989503 .0309906V0L.14399719 .0029907227 .25498963 0Z"/>
<path id="font_1_50" d="M.4149933 .11933899C.4149933 .12934876 .40699769 .13134766 .4019928 .13134766 .3929901 .13134766 .3909912 .12535095 .3889923 .11734009 .35398866 .014251709 .2639923 .014251709 .2539978 .014251709 .20399475 .014251709 .1639862 .044281007 .14099121 .08131409 .11099243 .12934876 .11099243 .19540406 .11099243 .23144531H.3899994C.4119873 .23144531 .4149933 .23144531 .4149933 .2524414 .4149933 .35131837 .36099244 .4482422 .23599243 .4482422 .11999512 .4482422 .027999878 .34532167 .027999878 .22042847 .027999878 .08631897 .1329956-.0107421879 .24798584-.0107421879 .36999513-.0107421879 .4149933 .10032654 .4149933 .11933899M.34899903 .2524414H.11199951C.117996219 .40126039 .20199585 .426239 .23599243 .426239 .33898927 .426239 .34899903 .2913971 .34899903 .2524414Z"/>
<path id="font_1_106" d="M.45700074 .17037964C.45700074 .252594 .3939972 .33088685 .2899933 .35191346 .37199403 .37893678 .42999269 .4490509 .42999269 .52809146 .42999269 .6100464 .34199525 .6660156 .24598694 .6660156 .14498902 .6660156 .068984989 .60606387 .068984989 .53009036 .068984989 .49710084 .09098816 .47808839 .11999512 .47808839 .15098572 .47808839 .17098999 .50009158 .17098999 .5290985 .17098999 .57910159 .12399292 .57910159 .10899353 .57910159 .13999939 .62802127 .20599365 .64100649 .24198914 .64100649 .2829895 .64100649 .33799745 .6190338 .33799745 .5290985 .33799745 .51708987 .33599855 .45906068 .30999757 .4149933 .27999879 .36691285 .24598694 .36390687 .22099304 .36291505 .21299744 .36190797 .18899536 .35990907 .18199158 .35990907 .17399597 .35890199 .16699219 .35791017 .16699219 .3479004 .16699219 .33691407 .17399597 .33691407 .19099427 .33691407H.23498535C.31698609 .33691407 .35398866 .2686615 .35398866 .17037964 .35398866 .034469606 .2849884 .0055389406 .24099732 .0055389406 .19799805 .0055389406 .12298584 .022491456 .08799744 .08137512 .12298584 .07637024 .1539917 .09837341 .1539917 .1363678 .1539917 .17237854 .1269989 .19238281 .09799194 .19238281 .07398987 .19238281 .041992189 .17837525 .041992189 .1343689 .041992189 .043441774 .1349945-.022460938 .24398804-.022460938 .3659973-.022460938 .45700074 .06838989 .45700074 .17037964Z"/>
<path id="font_1_49" d="M.6519928 .2579193H.6269989C.60198977 .10397339 .57899478 .0309906 .40699769 .0309906H.27398683C.22698975 .0309906 .22499085 .037994386 .22499085 .07098389V.33789063H.31498719C.4119873 .33789063 .4229889 .30589295 .4229889 .220932H.44799806V.48606874H.4229889C.4229889 .39994813 .4119873 .36888124 .31498719 .36888124H.22499085V.6087799C.22499085 .6416931 .22698975 .64868167 .27398683 .64868167H.40299989C.55599978 .64868167 .58299258 .59381106 .598999 .45507813H.6239929L.59599307 .6796875H.032989503V.64868167H.056991579C.13398743 .64868167 .13598633 .6377106 .13598633 .6017914V.07797241C.13598633 .041992189 .13398743 .0309906 .056991579 .0309906H.032989503V0H.6100006L.6519928 .2579193Z"/>
<path id="font_1_116" d="M.5159912 0V.0309906C.46199037 .03125 .44400025 .0332489 .42099 .0622406L.2869873 .23493958C.31698609 .27287293 .35499574 .3217926 .3789978 .3477478 .4099884 .38368226 .45098878 .39866639 .49798585 .3996582V.43066407C.47200013 .4286499 .44198609 .42765809 .41600038 .42765809 .38598634 .42765809 .33299256 .42965699 .31999208 .43066407V.3996582C.34098817 .3973999 .34899903 .3843994 .34899903 .3684082 .34899903 .35240174 .33898927 .33940126 .33399964 .33340455L.27198792 .2554016 .19400025 .35639955C.18499756 .3664093 .18499756 .3684082 .18499756 .3744049 .18499756 .3894043 .19999695 .39840699 .21998596 .39941407V.43066407L.11199951 .42765809C.09098816 .42765809 .04399109 .4286499 .016998291 .43066407V.3996582C.08699036 .3996582 .08799744 .39865113 .1349945 .3387146L.23399353 .20982361C.18699646 .14988709 .18699646 .14788819 .13999939 .09094238 .09199524 .032989503 .032989503 .0309906 .011993408 .0309906V0C.037994386 .0019989014 .068984989 .0029907227 .09498596 .0029907227L.18998719 0V.0309906C.16799927 .034240724 .16099549 .04724121 .16099549 .0622406 .16099549 .084243778 .18998719 .117248538 .25099183 .1892395L.32699586 .08924866C.33499146 .07824707 .34799195 .0622406 .34799195 .056243898 .34799195 .04724121 .33898927 .03224182 .31199647 .03125V0L.41999818 .0029907227C.44699098 .0029907227 .48599244 .0019989014 .5159912 0Z"/>
<path id="font_1_98" d="M.3600006 .12823487C.3600006 .18122864 .32998658 .21122742 .31799317 .22323609 .2849884 .25523377 .24598694 .26322938 .20399475 .27124024 .147995 .28224183 .08099365 .29522706 .08099365 .35324098 .08099365 .38822938 .10699463 .42922975 .19299317 .42922975 .30299378 .42922975 .30799867 .3392334 .30999757 .30822755 .31098939 .2992401 .32199098 .2992401 .32199098 .2992401 .33499146 .2992401 .33499146 .30422975 .33499146 .32322694V.4242401C.33499146 .4412384 .33499146 .4482422 .32398988 .4482422 .31900025 .4482422 .31698609 .4482422 .3039856 .43623353 .30099488 .43223573 .29100038 .42323304 .2869873 .42022706 .24899292 .4482422 .20799256 .4482422 .19299317 .4482422 .070999149 .4482422 .032989503 .38124085 .032989503 .3252411 .032989503 .29023744 .04899597 .26223756 .07598877 .24023438 .10798645 .2142334 .13598633 .2082367 .20799256 .19422913 .22999573 .19021607 .31199647 .17422486 .31199647 .10221863 .31199647 .051223756 .2769928 .011245728 .19898987 .011245728 .114990238 .011245728 .07899475 .068222049 .05999756 .1532135 .056991579 .16621399 .055999757 .17021179 .04598999 .17021179 .032989503 .17021179 .032989503 .16322327 .032989503 .1452179V.013214111C.032989503-.003753662 .032989503-.0107421879 .04399109-.0107421879 .04899597-.0107421879 .049987794-.009750366 .068984989 .009246826 .070999149 .011245728 .070999149 .013214111 .08898926 .032226564 .1329956-.009750366 .17799378-.0107421879 .19898987-.0107421879 .31399537-.0107421879 .3600006 .05621338 .3600006 .1282196V.12823487Z"/>
<path id="font_1_82" d="M.4189911 0V.0309906H.3869934C.29699708 .0309906 .2939911 .041992189 .2939911 .07902527V.64012148C.2939911 .6640167 .2939911 .6660156 .2709961 .6660156 .20899964 .60227969 .12098694 .60227969 .08898926 .60227969V.57128909C.10899353 .57128909 .16799927 .57128909 .21998596 .5972748V.07902527C.21998596 .042999269 .21699524 .0309906 .1269989 .0309906H.09498596V0C.12998963 .0029907227 .21699524 .0029907227 .25698854 .0029907227 .29699708 .0029907227 .38398744 .0029907227 .4189911 0Z"/>
<path id="font_1_100" d="M.4850006 .6435547H.24198914C.11999512 .6435547 .117996219 .6566467 .11399841 .67578127H.08898926L.055999757 .46954347H.08099365C.083999637 .48554994 .09298706 .54855349 .10598755 .5605469 .11299133 .5665436 .19099427 .5665436 .20399475 .5665436H.41099549L.29899598 .40853883C.20899964 .2735443 .17599488 .13453675 .17599488 .03253174 .17599488 .022537232 .17599488-.022460938 .22200012-.022460938 .2679901-.022460938 .2679901 .022537232 .2679901 .03253174V.08354187C.2679901 .13853455 .2709961 .19354248 .2789917 .24754334 .2829895 .27053834 .29699708 .35653688 .34098817 .41854859L.47599793 .608551C.4850006 .62054446 .4850006 .62254336 .4850006 .6435547Z"/>
<path id="font_2_2" d="M.9259949 .6056366C.93499758 .6416168 .93699648 .6516113 1.0119934 .6516113 1.0349884 .6516113 1.0439911 .6516113 1.0439911 .6716156 1.0439911 .6826172 1.0339966 .6826172 1.0169983 .6826172H.8849945C.85899356 .6826172 .8580017 .6826172 .84599307 .66360476L.48098756 .093948367 .40299989 .65960696C.3999939 .6826172 .397995 .6826172 .37199403 .6826172H.23498535C.21598816 .6826172 .20498657 .6826172 .20498657 .66360476 .20498657 .6516113 .21398926 .6516113 .23399353 .6516113 .24699402 .6516113 .2649994 .65060427 .2769928 .6496124 .29299928 .6476135 .29899598 .64460757 .29899598 .6336212 .29899598 .6296234 .2979889 .62661746 .29499818 .614624L.16799927 .10594177C.1579895 .065963748 .14099121 .033996583 .05999756 .0309906 .054992677 .0309906 .041992189 .02999878 .041992189 .011993408 .041992189 .0029907227 .04798889 0 .055999757 0 .08799744 0 .12298584 .0029907227 .1559906 .0029907227 .18998719 .0029907227 .22599793 0 .25898744 0 .2639923 0 .2769928 0 .2769928 .019989014 .2769928 .0309906 .2659912 .0309906 .25898744 .0309906 .20199585 .03199768 .19099427 .051986696 .19099427 .07496643 .19099427 .081954959 .19198609 .08695984 .19499207 .09794617L.33099366 .64260867H.33198548L.41799928 .022994996C.41999818 .010986328 .42099 0 .43299867 0 .44400025 0 .44999696 .010986328 .45498658 .017990113L.85899356 .65060427H.8600006L.71699526 .07795715C.70700076 .038986207 .7049866 .0309906 .6259918 .0309906 .60899356 .0309906 .59799197 .0309906 .59799197 .011993408 .59799197 0 .6100006 0 .61299136 0 .6409912 0 .70899966 .0029907227 .7369995 .0029907227 .7779999 .0029907227 .82099917 0 .8619995 0 .8679962 0 .8809967 0 .8809967 .019989014 .8809967 .0309906 .871994 .0309906 .8529968 .0309906 .81599429 .0309906 .7879944 .0309906 .7879944 .048980714 .7879944 .052978517 .7879944 .054977418 .79299929 .07296753L.9259949 .6056366Z"/>
<path id="font_3_1" d="M.5159912 .31925965C.5159912 .42918397 .5029907 .50813296 .45700074 .5780945 .42599488 .62405398 .3639984 .6640625 .28399659 .6640625 .051986696 .6640625 .051986696 .39120484 .051986696 .31925965 .051986696 .2472992 .051986696-.01953125 .28399659-.01953125 .5159912-.01953125 .5159912 .2472992 .5159912 .31925965M.28399659 .008468628C.23799134 .008468628 .1769867 .035446168 .15699768 .117385867 .14299011 .17634583 .14299011 .25830079 .14299011 .33224488 .14299011 .40519715 .14299011 .4811554 .1579895 .53611758 .1789856 .6150665 .24299622 .63604739 .28399659 .63604739 .33799745 .63604739 .3899994 .6030731 .4079895 .545105 .42399598 .4911499 .4249878 .41918946 .4249878 .33224488 .4249878 .25830079 .4249878 .18434143 .4119873 .12138367 .3919983 .030441285 .32398988 .008468628 .28399659 .008468628Z"/>
<path id="font_2_1" d="M.30299378 .3244629H.3999939C.47499085 .3244629 .48298646 .30848695 .48298646 .27954103 .48298646 .2725525 .48298646 .26057435 .47599793 .2306366 .47399903 .22564698 .47299195 .22164917 .47299195 .21965027 .47299195 .21166992 .47898866 .20767212 .4850006 .20767212 .49499513 .20767212 .49499513 .21066284 .5 .2286377L.5549927 .44551087C.55799868 .45651246 .55799868 .45851136 .55799868 .46151734 .55799868 .46351625 .55599978 .47251893 .54599 .47251893 .5359955 .47251893 .5349884 .46751405 .5309906 .45150758 .5099945 .37347413 .4869995 .35546876 .4019928 .35546876H.31098939L.375 .6095886C.38398744 .64460757 .3849945 .64860537 .42900086 .64860537H.5609894C.6839905 .64860537 .70700076 .6156006 .70700076 .53855898 .70700076 .5155487 .70700076 .51153567 .70399478 .4845276 .70199587 .4715271 .70199587 .46951295 .70199587 .46652223 .70199587 .46151734 .7049866 .45451356 .71398928 .45451356 .72499087 .45451356 .7259979 .46051026 .7279968 .4795227L.7480011 .65260317C.7509918 .6796112 .74598696 .6796112 .72099307 .6796112H.23098755C.21099854 .6796112 .20098877 .6796112 .20098877 .65960696 .20098877 .64860537 .20999146 .64860537 .22898865 .64860537 .2659912 .64860537 .2939911 .64860537 .2939911 .6306 .2939911 .6266022 .2939911 .6246033 .2889862 .60658267L.15699768 .07791138C.14698792 .038970949 .14498902 .0309906 .06599426 .0309906 .04899597 .0309906 .037994386 .0309906 .037994386 .011993408 .037994386 0 .049987794 0 .052993776 0 .08198547 0 .1559906 .0029907227 .18499756 .0029907227 .21798706 .0029907227 .30099488 0 .33399964 0 .34298707 0 .35499574 0 .35499574 .018997193 .35499574 .026992798 .34899903 .0289917 .34899903 .02999878 .34599305 .0309906 .34399415 .0309906 .32099916 .0309906 .29899598 .0309906 .2939911 .0309906 .2689972 .032989503 .23999024 .035980226 .23699951 .039978029 .23699951 .052947999 .23699951 .0549469 .23699951 .060943605 .24099732 .075912479L.30299378 .3244629Z"/>
<path id="font_4_2" d="M.49198915 .68133547C.49198915 .69433596 .47999574 .69433596 .47499085 .69433596 .45999146 .69433596 .45899964 .68933108 .45498658 .67233279L.397995 .44335938C.22099304 .4353485 .069992069 .30833436 .069992069 .17430115 .069992069 .061279298 .17298889-.006729126 .28399659-.010726929 .27598573-.041793825 .2689972-.0738678 .26098634-.10493469 .24899292-.15203858 .23999024-.18910218 .23999024-.19210816 .23999024-.20410156 .25299073-.20410156 .2559967-.20410156 .2709961-.20410156 .27198792-.20111084 .2769928-.18009949L.31900025-.01171875C.48999024-.0047302248 .6469879 .121292117 .6469879 .25732423 .6469879 .3623352 .5549927 .4373474 .43299867 .4423523L.49198915 .68133547M.29100038 .01727295C.21398926 .021270752 .14299011 .0632782 .14299011 .15730286 .14299011 .25732423 .21899414 .39834596 .3899994 .41435243L.29100038 .01727295M.4249878 .41435243C.5019989 .41134645 .57398989 .369339 .57398989 .2743225 .57398989 .16529846 .48799134 .031280519 .32598878 .01727295L.4249878 .41435243Z"/>
<path id="font_5_1" d="M.6009979 .31976319C.6009979 .3918152 .6009979 .6660156 .33999635 .6660156 .07899475 .6660156 .07899475 .3918152 .07899475 .31976319 .07899475 .2467041 .07899475-.022460938 .33999635-.022460938 .6009979-.022460938 .6009979 .2467041 .6009979 .31976319M.33999635 .010528564C.30299378 .010528564 .21899414 .023544312 .19400025 .12461853 .17999268 .17866516 .1789856 .24971009 .1789856 .33177186 .1789856 .405838 .1789856 .47488404 .19499207 .5319214 .21998596 .6159973 .29699708 .63301089 .33999635 .63301089 .4139862 .63301089 .46699525 .5949707 .4869995 .5249176 .5009918 .47387696 .5009918 .39082337 .5009918 .33177186 .5009918 .26371766 .5009918 .18266297 .48599244 .12261963 .45999146 .025543213 .37998963 .010528564 .33999635 .010528564Z"/>
<path id="font_4_1" d="M.053985597-.16085816C.049987794-.1758728 .049987794-.18086243 .049987794-.1818695 .049987794-.20387268 .067993167-.21386719 .083999637-.21386719 .11999512-.21386719 .12799073-.18086243 .13198853-.16386414 .13398743-.15885926 .1539917-.078811649 .17799378 .019226075 .20899964-.0017700195 .24899292-.009765625 .2849884-.009765625 .37098695-.009765625 .4269867 .0602417 .42900086 .0622406 .44799806-.0067749025 .5169983-.009765625 .5319977-.009765625 .56799319-.009765625 .59298709 .01222229 .61099246 .04324341 .6329956 .08226013 .6459961 .13928223 .6459961 .14328003 .6459961 .15628052 .6329956 .15628052 .6299896 .15628052 .6159973 .15628052 .61499026 .15228272 .60798647 .12527466 .59599307 .07725525 .57699587 .018234253 .5349884 .018234253 .5089874 .018234253 .5019989 .040237428 .5019989 .06724548 .5019989 .08425903 .5099945 .120269779 .5169983 .14628601 .5239868 .17329407 .5339966 .21430969 .5389862 .23631287L.56199648 .3253479C.56799319 .3503723 .57899478 .39437867 .57899478 .39938355 .57899478 .41938783 .5629883 .43139649 .54599 .43139649 .5349884 .43139649 .5159912 .4263916 .5049896 .4073944 .5019989 .40138246 .49398805 .3693695 .4889984 .34936524L.46798707 .2663269 .43699647 .14128113C.42999269 .11627197 .42999269 .11427307 .42099 .101257327 .3899994 .057235719 .34599305 .018234253 .2889862 .018234253 .20698548 .018234253 .20698548 .089263919 .20698548 .10726929 .20698548 .13327027 .20999146 .14628601 .22399903 .20030213 .23399353 .24432373 .23599243 .2513275 .24598694 .29034425L.2599945 .34635926C.2649994 .3673706 .2749939 .4053955 .2749939 .4093933 .2749939 .42739869 .26098634 .44140626 .24099732 .44140626 .20498657 .44140626 .19599915 .40638734 .19299317 .39437867L.053985597-.16085816Z"/>
<path id="font_6_1" d="M.3600006 .46505738C.36099244 .46606446 .36999513 .48506166 .36999513 .50006106 .36999513 .5360565 .33799745 .5590515 .30799867 .5590515 .2669983 .5590515 .2559967 .5280609 .25099183 .5130615L.09700012 .080078128C.09298706 .06808472 .09298706 .065078739 .09298706 .064071658 .09298706 .048080446 .1349945 .038085939 .13598633 .038085939 .14498902 .038085939 .14698792 .04307556 .15299988 .05508423L.3600006 .46505738Z"/>
<path id="font_3_2" d="M.33499146 .63612368C.33499146 .6630554 .33299256 .6640625 .30499269 .6640625 .24099732 .6014404 .1499939 .6004486 .10899353 .6004486V.5644531C.1329956 .5644531 .19898987 .5644531 .2539978 .592453V.08203125C.2539978 .04899597 .2539978 .035995485 .1539917 .035995485H.115997318V0C.13398743 .0009918213 .25698854 .0039978029 .2939911 .0039978029 .32499696 .0039978029 .45098878 .0009918213 .47299195 0V.035995485H.43499757C.33499146 .035995485 .33499146 .04899597 .33499146 .08203125V.63612368Z"/>
<path id="font_5_2" d="M.397995 .63591006C.397995 .6660156 .394989 .6660156 .3619995 .6660156 .29100038 .6016083 .17999268 .6016083 .1599884 .6016083H.14299011V.5576172H.1599884C.18299866 .5576172 .24798584 .5606079 .30599977 .58561709V.08596802C.30599977 .054977418 .30599977 .04399109 .19999695 .04399109H.1499939V0C.20498657 .0039978029 .2939911 .0039978029 .35198976 .0039978029 .4099884 .0039978029 .49899293 .0039978029 .55400088 0V.04399109H.5039978C.397995 .04399109 .397995 .054977418 .397995 .08596802V.63591006Z"/>
<path id="font_4_3" d="M.40699769 .39465333H.5049896C.5249939 .39465333 .5379944 .39465333 .5379944 .4166565 .5379944 .43066407 .5249939 .43066407 .5069885 .43066407H.4139862C.43699647 .5580139 .44499208 .6040497 .45298768 .63305667 .45799256 .6550598 .47999574 .6760864 .5039978 .6760864 .5049896 .6760864 .5319977 .6760864 .5509949 .6640625 .5099945 .651062 .5069885 .61505129 .5069885 .60905459 .5069885 .5870514 .5239868 .572052 .5469971 .572052 .57398989 .572052 .60398867 .59506228 .60398867 .63305667 .60398867 .6790924 .5549927 .70410159 .5039978 .70410159 .45999146 .70410159 .41099549 .6790924 .38398744 .62905886 .3639984 .5920563 .35598756 .5469818 .33499146 .43066407H.2559967C.23599243 .43066407 .22299195 .43066407 .22299195 .4086609 .22299195 .39465333 .23599243 .39465333 .2539978 .39465333H.32798768C.32699586 .38865663 .2639923 .028869629 .23999024-.078063968 .23498535-.10006714 .21798706-.17610169 .16999817-.17610169 .16899109-.17610169 .14498902-.17610169 .12599182-.1640625 .16699219-.15107727 .16999817-.11506653 .16999817-.109069827 .16999817-.08706665 .15299988-.07206726 .12998963-.07206726 .102996829-.07206726 .07299805-.095077518 .07299805-.1330719 .07299805-.17811585 .11999512-.20410156 .16999817-.20410156 .23399353-.20410156 .27799989-.13807678 .2899933-.11607361 .32598878-.049087526 .34899903 .07385254 .35099793 .08584595L.40699769 .39465333Z"/>
<path id="font_7_3" d="M1.1640015 .597641C1.1719971 .6296234 1.173996 .637619 1.25 .637619 1.276001 .637619 1.2779999 .637619 1.2819977 .64060977 1.2879944 .64660647 1.2910004 .6586151 1.2910004 .66560366 1.2910004 .6826172 1.276001 .6826172 1.2589874 .6826172H1.1080017C1.0859985 .6826172 1.074997 .6826172 1.0599976 .6626129L.644989 .09095764 .5169983 .65560916C.5109863 .6816101 .5049896 .6826172 .47799684 .6826172H.31799317C.2979889 .6826172 .2829895 .6826172 .2829895 .65460208 .2829895 .637619 .29499818 .637619 .31999208 .637619 .32998658 .637619 .36299134 .637619 .38398744 .6316223 .38398744 .6196289 .38398744 .61763 .3809967 .6066284L.25698854 .111953739C.25 .08496094 .24099732 .04699707 .147995 .04499817 .13999939 .04499817 .12298584 .04399109 .12298584 .016998291 .12298584 .0079956059 .1309967 0 .13999939 0 .1579895 0 .1789856 .0029907227 .19699097 .0029907227 .21598816 .0029907227 .23498535 .0039978029 .2539978 .0039978029 .27398683 .0039978029 .29299928 .0029907227 .31298829 .0029907227 .33099366 .0029907227 .35198976 0 .36999513 0 .3829956 0 .3939972 .0069885256 .3939972 .027999878 .3939972 .04499817 .3789978 .04499817 .36799623 .04499817 .31799317 .04598999 .29899598 .05899048 .29899598 .082962039 .29899598 .08996582 .30099488 .095962528 .30299378 .10595703L.43399049 .6316223H.43499757L.57199099 .0289917C.57598879 .011993408 .57899478 0 .59799197 0 .60798647 0 .6199951 .0039978029 .6339874 .022994996L1.0809937 .63960269 1.0820007 .63861086 .94299319 .082962039C.93499758 .052993776 .93299868 .04499817 .8569946 .04499817 .83200076 .04499817 .81599429 .04499817 .81599429 .016998291 .81599429 .008987427 .82299807 0 .83399966 0 .8549957 0 .8789978 .0029907227 .901001 .0029907227 .9229889 .0029907227 .94599917 .0039978029 .96899417 .0039978029 .99198916 .0039978029 1.0149994 .0029907227 1.0379944 .0029907227 1.0599976 .0029907227 1.0849915 0 1.1069946 0 1.1129913 0 1.1319885 0 1.1319885 .027999878 1.1319885 .04499817 1.1179962 .04499817 1.098999 .04499817 1.0970001 .04499817 1.072998 .04499817 1.0559998 .04699707 1.0309906 .04899597 1.0299988 .049987794 1.0299988 .0579834 1.0299988 .0599823 1.0299988 .0619812 1.0329895 .07197571L1.1640015 .597641Z"/>
<path id="font_7_1" d="M.40699769 .31729127H.5309906C.6199951 .31729127 .6279907 .3032837 .6279907 .2702484 .6279907 .25422669 .6230011 .22920227 .62098696 .22419739 .62098696 .2211914 .6199951 .2191925 .6199951 .21717835 .6199951 .21118164 .6239929 .2001648 .6409912 .2001648 .6549988 .2001648 .6599884 .2041626 .6639862 .2211914L.72299197 .46211244C.72299197 .46310426 .72299197 .4790802 .7029877 .4790802 .6859894 .4790802 .6839905 .4730835 .6799927 .45611573 .6569977 .37727357 .6299896 .3623047 .5349884 .3623047H.41799928L.47799684 .60084536C.48599244 .63179019 .48599244 .63378909 .5279999 .63378909H.71099856C.8529968 .63378909 .8880005 .60783389 .8880005 .50901797 .8880005 .48706056 .8849945 .46110536 .8849945 .45910646 .8849945 .44514466 .894989 .44015504 .9059906 .44015504 .9249878 .44015504 .9259949 .4491272 .9279938 .46809388L.94400027 .6457825 .94599917 .66078189C.94599917 .67878726 .93099978 .67878726 .9129944 .67878726H.31098939C.29100038 .67878726 .27598573 .67878726 .27598573 .65078738 .27598573 .63378909 .28799439 .63378909 .31298829 .63378909 .32299806 .63378909 .35598756 .63378909 .3769989 .62779238 .3769989 .6158142 .3769989 .6138153 .37399293 .60284426L.24398804 .08303833C.23599243 .053009035 .23498535 .04499817 .1579895 .04499817 .1329956 .04499817 .116989139 .04499817 .116989139 .016998291 .116989139 .008987427 .12399292 0 .1349945 0 .15699768 0 .18199158 .0029907227 .20399475 .0029907227 .22898865 .0029907227 .25498963 .0039978029 .2809906 .0039978029 .30899049 .0039978029 .33599855 .0029907227 .3639984 .0029907227 .3909912 .0029907227 .41999818 0 .44699098 0 .45298768 0 .47299195 0 .47299195 .027999878 .47299195 .04499817 .45899964 .04499817 .43299867 .04499817 .40899659 .04499817 .40098573 .04499817 .375 .04699707 .35099793 .04899597 .34399415 .05000305 .34399415 .06201172 .34399415 .06802368 .34399415 .07002258 .34799195 .08403015L.40699769 .31729127Z"/>
<path id="font_1_97" d="M.49899293 .18579102C.49899293 .2858429 .43299867 .36791993 .34899903 .38793946L.22099304 .4189453C.15899658 .43388368 .11999512 .48773194 .11999512 .5458069 .11999512 .61595156 .17399597 .677063 .2519989 .677063 .4189911 .677063 .44099427 .5127411 .44699098 .46777345 .44799806 .461792 .44799806 .45581056 .45899964 .45581056 .47200013 .45581056 .47200013 .46080018 .47200013 .47973634V.68107607C.47200013 .69807437 .47200013 .7050781 .46099855 .7050781 .45399476 .7050781 .45298768 .70407107 .44599916 .69207766L.41099549 .63497927C.3809967 .66404727 .33999635 .7050781 .25099183 .7050781 .13999939 .7050781 .055999757 .61694338 .055999757 .5107422 .055999757 .42790223 .10899353 .35490418 .18699646 .32788087 .19799805 .32388307 .24899292 .3118744 .31900025 .29486085 .34599305 .28785707 .37599183 .280838 .4039917 .24382019 .4249878 .2177887 .43499757 .18478394 .43499757 .1517334 .43499757 .0806427 .3849945 .008529663 .30099488 .008529663 .27198792 .008529663 .19599915 .013534546 .14299011 .06260681 .084991458 .11668396 .08198547 .18078614 .08099365 .21679688 .07998657 .22679138 .07199097 .22679138 .068984989 .22679138 .055999757 .22679138 .055999757 .2197876 .055999757 .20178223V.0015258789C.055999757-.015472412 .055999757-.022460938 .066986087-.022460938 .07398987-.022460938 .07499695-.020462037 .08198547-.009475708 .08198547-.009475708 .084991458-.0054626467 .117996219 .047592164 .14898682 .013534546 .21299744-.022460938 .3019867-.022460938 .4189911-.022460938 .49899293 .07562256 .49899293 .18579102Z"/>
<path id="font_1_81" d="M.47099305 .21424866C.47099305 .34223939 .37098695 .4482422 .25 .4482422 .125 .4482422 .027999878 .3392334 .027999878 .21424866 .027999878 .085250858 .13198853-.0107421879 .24899292-.0107421879 .36999513-.0107421879 .47099305 .087249759 .47099305 .21424866M.3880005 .22224427C.3880005 .18624878 .3880005 .13224793 .3659973 .08824158 .34399415 .04324341 .2999878 .014251709 .25 .014251709 .20698548 .014251709 .16299439 .035247804 .13598633 .08125305 .11099243 .12524414 .11099243 .18624878 .11099243 .22224427 .11099243 .26124574 .11099243 .31523133 .1349945 .35923768 .1619873 .40522767 .20899964 .426239 .24899292 .426239 .29299928 .426239 .33599855 .40423585 .3619995 .36123658 .3880005 .3182373 .3880005 .26023866 .3880005 .22224427Z"/>
<path id="font_1_77" d="M.5349884 0V.0309906C.48298646 .0309906 .45799256 .0309906 .45700074 .061019899V.25221253C.45700074 .3383026 .45700074 .36932374 .42599488 .405365 .4119873 .42237855 .3789978 .4423828 .32099916 .4423828 .24798584 .4423828 .20098877 .39935304 .17298889 .33729554V.4423828L.03199768 .43066407V.3996582C.101989749 .3996582 .10998535 .39266969 .10998535 .34370423V.07595825C.10998535 .0309906 .09899902 .0309906 .03199768 .0309906V0L.14498902 .0029907227 .25698854 0V.0309906C.18998719 .0309906 .1789856 .0309906 .1789856 .07595825V.25978089C.1789856 .36431886 .25 .42037965 .31399537 .42037965 .3769989 .42037965 .3880005 .36631776 .3880005 .30926515V.076034549C.3880005 .0309906 .3769989 .0309906 .30999757 .0309906V0L.4229889 .0029907227 .5349884 0Z"/>
<path id="font_1_107" d="M.44898988 .17396546H.42399598C.4189911 .14398194 .4119873 .099990848 .4019928 .084991458 .394989 .07699585 .32899476 .07699585 .30699159 .07699585H.1269989L.23298645 .17996216C.3889923 .31803895 .44898988 .37210084 .44898988 .47216798 .44898988 .5860901 .35899354 .6660156 .23699951 .6660156 .12399292 .6660156 .049987794 .57411196 .049987794 .48516847 .049987794 .4291687 .099990848 .4291687 .102996829 .4291687 .11999512 .4291687 .15499878 .44117738 .15499878 .48217774 .15499878 .5081787 .13699341 .5341797 .101989749 .5341797 .09399414 .5341797 .09199524 .5341797 .08898926 .5331726 .11199951 .59806826 .1659851 .63500979 .22399903 .63500979 .31498719 .63500979 .35798646 .5541382 .35798646 .47216798 .35798646 .39196778 .30799867 .31297303 .25299073 .25097657L.06098938 .036987306C.049987794 .025985718 .049987794 .023986817 .049987794 0H.42099L.44898988 .17396546Z"/>
<path id="font_8_2" d="M.2889862 .30177308H.46598817C.6049957 .30177308 .72099307 .37374879 .72099307 .49064637 .72099307 .6005707 .621994 .6855469 .45599366 .6855469H.038986207V.63853457H.14698792V.04699707H.038986207V0C.07699585 .0029907227 .1749878 .0029907227 .21798706 .0029907227 .26098634 .0029907227 .35899354 .0029907227 .39698792 0V.04699707H.2889862V.30177308M.4169922 .34277345H.2829895V.63853457H.41799928C.56799319 .63853457 .56799319 .56259158 .56799319 .49064637 .56799319 .41970826 .56799319 .34277345 .4169922 .34277345Z"/>
<path id="font_8_1" d="M.6529999 .05305481C.6839905 .026000977 .74398806 0 .7509918 0 .7649994 0 .7649994 .0129852299 .7649994 .027999878V.22935486H.8450012V.2763672C.80999758 .2733612 .72299197 .2733612 .6839905 .2733612 .6259918 .2733612 .5329895 .2733612 .47898866 .2763672V.22935486H.6230011V.12817383C.6230011 .109298709 .6230011 .08027649 .58399966 .057266237 .55799868 .042251588 .526001 .036254884 .49398805 .036254884 .4079895 .036254884 .32199098 .06526184 .272995 .12730408 .22999573 .18232727 .21699524 .25335694 .21699524 .3443451 .21699524 .4563141 .23699951 .5142975 .27398683 .5632782 .31399537 .613266 .3909912 .6502533 .4869995 .6502533 .59399417 .6502533 .68899539 .5742798 .71099856 .4473114 .71398928 .4283142 .71499636 .4263153 .73799136 .4263153 .7639923 .4263153 .7649994 .4283142 .7649994 .4543152V.6692505C.7649994 .68826296 .7649994 .6972656 .746994 .6972656 .73799136 .6972656 .73599246 .69525149 .7279968 .68826296L.6619873 .62927249C.58898928 .68725588 .5169983 .6972656 .46499635 .6972656 .21899414 .6972656 .06399536 .55029299 .06399536 .343338 .06399536 .14431763 .20899964-.0107421879 .46699525-.0107421879 .5-.011001587 .6029968-.009002686 .6529999 .05305481Z"/>
<path id="font_4_4" d="M.5319977 .36935426C.5359955 .3843689 .5359955 .38937379 .5359955 .39038087 .5359955 .4123993 .5179901 .4223938 .5019989 .4223938 .47898866 .4223938 .45999146 .4033966 .45599366 .3843689 .43899537 .4113922 .40499879 .44140626 .35299684 .44140626 .22799683 .44140626 .09700012 .3072815 .09700012 .1641388 .09700012 .061019899 .16699219 0 .24899292 0 .29499818 0 .33898927 .022994996 .37399293 .054016115L.35198976-.036026C.34098817-.07803345 .33399964-.105041507 .29599-.13903809 .2519989-.17610169 .20899964-.17610169 .18399048-.17610169 .13798523-.17610169 .125-.17308045 .10699463-.16903687 .13198853-.15704346 .13899231-.13304138 .13899231-.11903381 .13899231-.09503174 .11999512-.08203125 .099990848-.08203125 .07199097-.08203125 .042999269-.105041507 .042999269-.14303589 .042999269-.20310974 .1289978-.20410156 .18499756-.20410156 .34199525-.20410156 .40899659-.1240387 .4229889-.06703186L.5319977 .36935426M.3939972 .13310242C.3899994 .11808777 .3899994 .11608887 .37298585 .096069339 .33799745 .054016115 .2899933 .027999878 .2519989 .027999878 .20098877 .027999878 .1769867 .07104492 .1769867 .12309265 .1769867 .16714478 .20399475 .2792511 .22999573 .32330323 .27198792 .39338685 .31900025 .4133911 .35299684 .4133911 .4229889 .4133911 .44198609 .33831788 .44198609 .3283081 .44198609 .3263092 .44198609 .3243103 .43899537 .31329347L.3939972 .13310242Z"/>
<path id="font_4_5" d="M.43399049 .08125305C.42900086 .06124878 .41999818 .027236939 .41999818 .022232056 .41999818 .00022888184 .43798829-.009765625 .45399476-.009765625 .47200013-.009765625 .48799134 .0032196046 .49299623 .01222229 .49798585 .021224976 .5059967 .053237916 .5109863 .07424927 .5159912 .09326172 .5269928 .13928223 .5329895 .16429138 .5389862 .18629456 .54499819 .20831299 .5499878 .23132324 .5609894 .27433778 .5609894 .27633668 .58099368 .3073578 .61299136 .35636903 .6629944 .4133911 .7409973 .4133911 .7969971 .4133911 .7999878 .36738587 .7999878 .34336854 .7999878 .28334046 .7569885 .17228699 .7409973 .13027954 .7299957 .102264408 .7259979 .09326172 .7259979 .07624817 .7259979 .023223877 .769989-.009765625 .82099917-.009765625 .92099-.009765625 .96499636 .12828064 .96499636 .14328003 .96499636 .15628052 .95199587 .15628052 .94898989 .15628052 .93499758 .15628052 .9339905 .15028382 .9299927 .13928223 .9069977 .059249879 .8639984 .018234253 .82398989 .018234253 .8029938 .018234253 .798996 .032226564 .798996 .053237916 .798996 .07624817 .80400088 .089263919 .82199099 .13427735 .83399966 .1652832 .875 .2713318 .875 .32736207 .875 .34336854 .875 .38539125 .83799746 .4143982 .82099917 .42739869 .7919922 .44140626 .7449951 .44140626 .6549988 .44140626 .59999087 .38238526 .56799319 .34036256 .55999758 .42539979 .4889984 .44140626 .43798829 .44140626 .35499574 .44140626 .29899598 .39038087 .2689972 .3503723 .2619934 .41940309 .20298767 .44140626 .1619873 .44140626 .11898804 .44140626 .09599304 .4104004 .08299255 .38739015 .06098938 .3503723 .04699707 .29335023 .04699707 .28834535 .04699707 .27534486 .06098938 .27534486 .06399536 .27534486 .07798767 .27534486 .07899475 .27833558 .085998538 .3053589 .100997928 .36437989 .11999512 .4133911 .15899658 .4133911 .18499756 .4133911 .19198609 .39138795 .19198609 .36437989 .19198609 .34536744 .18299866 .3083496 .17599488 .28134156 .16899109 .2543335 .15899658 .21331787 .1539917 .19129944L.12199402 .06324768C.117996219 .050247194 .11199951 .025222779 .11199951 .022232056 .11199951 .00022888184 .12998963-.009765625 .1459961-.009765625 .1639862-.009765625 .17999268 .0032196046 .18499756 .01222229 .18998719 .021224976 .19799805 .053237916 .20298767 .07424927 .20799256 .09326172 .21899414 .13928223 .22499085 .16429138 .23098755 .18629456 .23699951 .20831299 .24198914 .23132324 .25299073 .27233888 .25498963 .28033448 .28399659 .32136537 .31199647 .3613739 .35899354 .4133911 .43399049 .4133911 .49198915 .4133911 .49299623 .36238099 .49299623 .34336854 .49299623 .31835938 .48999024 .3053589 .47599793 .24932862L.43399049 .08125305Z"/>
<path id="font_7_4" d="M.40499879 .3027954H.6230011C.7769928 .3027954 .95700076 .39675904 .95700076 .52067568 .95700076 .61361697 .8529968 .6826172 .70799258 .6826172H.31399537C.2939911 .6826172 .2789917 .6826172 .2789917 .65460208 .2789917 .63760378 .29100038 .63760378 .31599427 .63760378 .32598878 .63760378 .35899354 .63760378 .37998963 .63160708 .37998963 .61961367 .37998963 .61761477 .3769989 .6066284L.24598694 .082962039C.23799134 .052978517 .23699951 .04499817 .1599884 .04499817 .1349945 .04499817 .11898804 .04499817 .11898804 .016998291 .11898804 .008987427 .12599182 0 .13699341 0 .1579895 0 .18199158 .0029907227 .20399475 .0029907227 .22898865 .0029907227 .25299073 .0039978029 .27799989 .0039978029 .30299378 .0039978029 .32699586 .0029907227 .35198976 .0029907227 .375 .0029907227 .3999939 0 .42199708 0 .42799378 0 .44699098 0 .44699098 .027999878 .44699098 .04499817 .43299867 .04499817 .4139862 .04499817 .4119873 .04499817 .3880005 .04499817 .37098695 .04699707 .34599305 .04899597 .34498597 .049987794 .34498597 .0579834 .34498597 .0599823 .34498597 .0619812 .34799195 .07197571L.40499879 .3027954M.47698976 .6046295C.4850006 .63560488 .4850006 .63760378 .5269928 .63760378H.6749878C.7769928 .63760378 .84599307 .6106262 .84599307 .53466799 .84599307 .5056915 .83200076 .42773438 .7749939 .38676454 .71798709 .34577943 .6399994 .34179688 .59999087 .34179688H.41099549L.47698976 .6046295Z"/>
<path id="font_7_2" d="M.8549957 .21040344C.8619995 .22738648 .86698916 .23138428 .923996 .23239136 .93699648 .23239136 .95399478 .23239136 .95399478 .26039125 .95399478 .27038575 .94599917 .27738954 .93699648 .27738954 .9169922 .27738954 .894989 .27438355 .875 .27438355 .8529968 .27438355 .8299866 .27339173 .80799868 .27339173 .7779999 .27339173 .7489929 .27438355 .71899417 .27438355 .69099429 .27438355 .6599884 .27738954 .6319885 .27738954 .625 .27738954 .60598757 .27738954 .60598757 .24938965 .60598757 .23239136 .62098696 .23239136 .6380005 .23239136H.6589966C.6799927 .23239136 .71798709 .23138428 .73799136 .22738648 .7449951 .22538758 .7509918 .22439575 .7509918 .21540833 .7509918 .20840454 .73098757 .12846375 .7279968 .11647034 .70199587 .03552246 .57398989 .022537232 .5079956 .022537232 .37199403 .022537232 .22599793 .07949829 .22599793 .24938965 .22599793 .34249879 .269989 .4637146 .35598756 .54286196 .46099855 .641037 .58699038 .6600647 .6569977 .6600647 .7859955 .6600647 .8659973 .5759125 .8659973 .4617157 .8659973 .439682 .8639984 .43467713 .8639984 .42866517 .8639984 .41363526 .8779907 .41363526 .8869934 .41363526 .9059906 .41363526 .9059906 .41664125 .9109955 .43566896L.973999 .69107058C.973999 .69207766 .973999 .7050781 .95799258 .7050781 .95199587 .7050781 .95098879 .70407107 .93899539 .69306948L.8699951 .6240082C.8679962 .621994 .86099246 .61499026 .85899356 .61499026 .8569946 .61499026 .8569946 .6159973 .85398867 .6190033 .83200076 .64204409 .7719879 .7050781 .6419983 .7050781 .36898805 .7050781 .114990238 .49076844 .114990238 .27038575 .114990238 .11946106 .23899842-.022460938 .47399903-.022460938 .5099945-.022460938 .5649872-.020462037 .6179962-.007461548 .69099429 .009536743 .72499087 .038513185 .7389984 .053512575 .7509918 .03253174 .7799988-.00047302247 .7919922-.00047302247 .79499819-.00047302247 .8019867 .002532959 .8049927 .009536743 .8069916 .01852417 .81999209 .07249451 .82398989 .08648682L.8549957 .21040344Z"/>
</defs>
<use data-text="A" xlink:href="#font_1_27" transform="matrix(9.962899,0,0,-9.963197,230.26747,9.052765)"/>
<use data-text="r" xlink:href="#font_1_96" transform="matrix(9.962899,0,0,-9.963197,237.73964,9.052765)"/>
<use data-text="t" xlink:href="#font_1_105" transform="matrix(9.962899,0,0,-9.963197,241.64511,9.052765)"/>
<use data-text="i" xlink:href="#font_1_66" transform="matrix(9.962899,0,0,-9.963197,245.52066,9.052765)"/>
<use data-text="c" xlink:href="#font_1_43" transform="matrix(9.962899,0,0,-9.963197,248.29035,9.052765)"/>
<use data-text="l" xlink:href="#font_1_72" transform="matrix(9.962899,0,0,-9.963197,252.71387,9.052765)"/>
<use data-text="e" xlink:href="#font_1_50" transform="matrix(9.962899,0,0,-9.963197,255.48357,9.052765)"/>
<use data-text="3" xlink:href="#font_1_106" transform="matrix(9.962899,0,0,-9.963197,263.21479,9.052765)"/>
<use data-text="E" xlink:href="#font_1_49" transform="matrix(9.962899,0,0,-9.963197,271.5139,9.052765)"/>
<use data-text="x" xlink:href="#font_1_116" transform="matrix(9.962899,0,0,-9.963197,278.2986,9.052765)"/>
<use data-text="e" xlink:href="#font_1_50" transform="matrix(9.962899,0,0,-9.963197,283.55903,9.052765)"/>
<use data-text="r" xlink:href="#font_1_96" transform="matrix(9.962899,0,0,-9.963197,287.98255,9.052765)"/>
<use data-text="c" xlink:href="#font_1_43" transform="matrix(9.962899,0,0,-9.963197,291.888,9.052765)"/>
<use data-text="i" xlink:href="#font_1_66" transform="matrix(9.962899,0,0,-9.963197,296.31153,9.052765)"/>
<use data-text="s" xlink:href="#font_1_98" transform="matrix(9.962899,0,0,-9.963197,299.08125,9.052765)"/>
<use data-text="e" xlink:href="#font_1_50" transform="matrix(9.962899,0,0,-9.963197,303.00663,9.052765)"/>
<use data-text="1" xlink:href="#font_1_82" transform="matrix(9.962899,0,0,-9.963197,310.7478,9.052765)"/>
<use data-text="7" xlink:href="#font_1_100" transform="matrix(9.962899,0,0,-9.963197,315.72926,9.052765)"/>
<use data-text="M" xlink:href="#font_2_2" transform="matrix(9.962899,0,0,-9.963197,211.73192,64.95011)"/>
<use data-text="0" xlink:href="#font_3_1" transform="matrix(6.9740097,0,0,-6.9742186,221.39722,66.44421)"/>
<use data-text="F" xlink:href="#font_2_1" transform="matrix(9.962899,0,0,-9.963197,213.36197,178.34392)"/>
<use data-text="0" xlink:href="#font_3_1" transform="matrix(6.9740097,0,0,-6.9742186,219.76816,179.83802)"/>
<path transform="matrix(1.00003,0,0,-1.00006,20.366166,175.68675)" stroke-width=".3985" stroke-linecap="butt" stroke-miterlimit="10" stroke-linejoin="miter" fill="none" stroke="#000000" d="M187.84049 113.38724C147.0306 113.38724 198.42766 161.86808 198.42766 125.11838"/>
<path transform="matrix(0,1.00006,1.00003,0,218.79979,48.842584)" d="M4.21463 0 .64343 1.34572 1.8178 0 .64343-1.34572Z"/>
<path transform="matrix(0,1.00006,1.00003,0,218.79979,48.842584)" stroke-width=".3985" stroke-linecap="butt" stroke-miterlimit="10" stroke-linejoin="miter" fill="none" stroke="#000000" d="M4.21463 0 .64343 1.34572 1.8178 0 .64343-1.34572Z"/>
<use data-text="&#x03d5;" xlink:href="#font_4_2" transform="matrix(6.9740097,0,0,-6.9742186,186.00315,44.895906)"/>
<use data-text="0" xlink:href="#font_5_1" transform="matrix(4.9814498,0,0,-4.9815986,190.79329,45.891969)"/>
<path transform="matrix(1.00003,0,0,-1.00006,20.366166,175.68675)" stroke-width=".3985" stroke-linecap="butt" stroke-miterlimit="10" stroke-linejoin="miter" fill="none" stroke="#000000" d="M189.46982 0C152.63799 0 198.42766-44.50278 198.42766-11.73112"/>
<path transform="matrix(0,-1.00006,-1.00003,-0,218.79979,189.13689)" d="M4.21463 0 .64343 1.34572 1.8178 0 .64343-1.34572Z"/>
<path transform="matrix(0,-1.00006,-1.00003,-0,218.79979,189.13689)" stroke-width=".3985" stroke-linecap="butt" stroke-miterlimit="10" stroke-linejoin="miter" fill="none" stroke="#000000" d="M4.21463 0 .64343 1.34572 1.8178 0 .64343-1.34572Z"/>
<use data-text="&#x00b5;" xlink:href="#font_4_1" transform="matrix(6.9740097,0,0,-6.9742186,188.25522,194.15886)"/>
<use data-text="0" xlink:href="#font_5_1" transform="matrix(4.9814498,0,0,-4.9815986,193.09937,195.15493)"/>
<path transform="matrix(1.00003,0,0,-1.00006,20.366166,175.68675)" stroke-width=".3985" stroke-linecap="butt" stroke-miterlimit="10" stroke-linejoin="miter" fill="none" stroke="#000000" d="M192.75839 105.71628V10.73485"/>
<path transform="matrix(0,1.00006,1.00003,0,213.13034,163.23296)" d="M4.21463 0 .64343 1.34572 1.8178 0 .64343-1.34572Z"/>
<path transform="matrix(0,1.00006,1.00003,0,213.13034,163.23296)" stroke-width=".3985" stroke-linecap="butt" stroke-miterlimit="10" stroke-linejoin="miter" fill="none" stroke="#000000" d="M4.21463 0 .64343 1.34572 1.8178 0 .64343-1.34572Z"/>
<use data-text="&#x00b5;" xlink:href="#font_4_1" transform="matrix(6.9740097,0,0,-6.9742186,200.87758,120.88046)"/>
<use data-text="&#x2032;" xlink:href="#font_6_1" transform="matrix(4.9814498,0,0,-4.9815986,205.72173,117.87329)"/>
<use data-text="0" xlink:href="#font_5_1" transform="matrix(4.9814498,0,0,-4.9815986,205.72173,122.872577)"/>
<path transform="matrix(1.00003,0,0,-1.00006,20.366166,175.68675)" stroke-width=".3985" stroke-linecap="butt" stroke-miterlimit="10" stroke-linejoin="miter" fill="none" stroke="#000000" d="M204.09694 7.67094V102.65237"/>
<path transform="matrix(0,-1.00006,-1.00003,-0,224.46924,74.74651)" d="M4.21463 0 .64343 1.34572 1.8178 0 .64343-1.34572Z"/>
<path transform="matrix(0,-1.00006,-1.00003,-0,224.46924,74.74651)" stroke-width=".3985" stroke-linecap="butt" stroke-miterlimit="10" stroke-linejoin="miter" fill="none" stroke="#000000" d="M4.21463 0 .64343 1.34572 1.8178 0 .64343-1.34572Z"/>
<use data-text="&#x03d5;" xlink:href="#font_4_2" transform="matrix(6.9740097,0,0,-6.9742186,227.98941,120.88046)"/>
<use data-text="&#x2032;" xlink:href="#font_6_1" transform="matrix(4.9814498,0,0,-4.9815986,232.77956,117.87329)"/>
<use data-text="0" xlink:href="#font_5_1" transform="matrix(4.9814498,0,0,-4.9815986,232.77956,122.872577)"/>
<use data-text="M" xlink:href="#font_2_2" transform="matrix(9.962899,0,0,-9.963197,325.1233,64.95011)"/>
<use data-text="1" xlink:href="#font_3_2" transform="matrix(6.9740097,0,0,-6.9742186,334.7886,66.44421)"/>
<use data-text="F" xlink:href="#font_2_1" transform="matrix(9.962899,0,0,-9.963197,326.75239,178.34392)"/>
<use data-text="1" xlink:href="#font_3_2" transform="matrix(6.9740097,0,0,-6.9742186,333.15858,179.83802)"/>
<path transform="matrix(1.00003,0,0,-1.00006,20.366166,175.68675)" stroke-width=".3985" stroke-linecap="butt" stroke-miterlimit="10" stroke-linejoin="miter" fill="none" stroke="#000000" d="M322.40208 113.38724C363.21199 113.38724 311.8149 161.86808 311.8149 125.11838"/>
<path transform="matrix(0,1.00006,1.00003,0,332.19044,48.842584)" d="M4.21463 0 .64343 1.34572 1.8178 0 .64343-1.34572Z"/>
<path transform="matrix(0,1.00006,1.00003,0,332.19044,48.842584)" stroke-width=".3985" stroke-linecap="butt" stroke-miterlimit="10" stroke-linejoin="miter" fill="none" stroke="#000000" d="M4.21463 0 .64343 1.34572 1.8178 0 .64343-1.34572Z"/>
<use data-text="&#x03d5;" xlink:href="#font_4_2" transform="matrix(6.9740097,0,0,-6.9742186,356.3083,44.895906)"/>
<use data-text="1" xlink:href="#font_5_2" transform="matrix(4.9814498,0,0,-4.9815986,361.09843,45.891969)"/>
<path transform="matrix(1.00003,0,0,-1.00006,20.366166,175.68675)" stroke-width=".3985" stroke-linecap="butt" stroke-miterlimit="10" stroke-linejoin="miter" fill="none" stroke="#000000" d="M320.77275 0C357.60459 0 311.8149-44.50278 311.8149-11.73112"/>
<path transform="matrix(0,-1.00006,-1.00003,-0,332.19044,189.13689)" d="M4.21463 0 .64343 1.34572 1.8178 0 .64343-1.34572Z"/>
<path transform="matrix(0,-1.00006,-1.00003,-0,332.19044,189.13689)" stroke-width=".3985" stroke-linecap="butt" stroke-miterlimit="10" stroke-linejoin="miter" fill="none" stroke="#000000" d="M4.21463 0 .64343 1.34572 1.8178 0 .64343-1.34572Z"/>
<use data-text="&#x00b5;" xlink:href="#font_4_1" transform="matrix(6.9740097,0,0,-6.9742186,354.0022,194.15886)"/>
<use data-text="1" xlink:href="#font_5_2" transform="matrix(4.9814498,0,0,-4.9815986,358.8463,195.15493)"/>
<path transform="matrix(1.00003,0,0,-1.00006,20.366166,175.68675)" stroke-width=".3985" stroke-linecap="butt" stroke-miterlimit="10" stroke-linejoin="miter" fill="none" stroke="#000000" d="M306.14564 105.71628V10.73485"/>
<path transform="matrix(0,1.00006,1.00003,0,326.521,163.23296)" d="M4.21463 0 .64343 1.34572 1.8178 0 .64343-1.34572Z"/>
<path transform="matrix(0,1.00006,1.00003,0,326.521,163.23296)" stroke-width=".3985" stroke-linecap="butt" stroke-miterlimit="10" stroke-linejoin="miter" fill="none" stroke="#000000" d="M4.21463 0 .64343 1.34572 1.8178 0 .64343-1.34572Z"/>
<use data-text="&#x00b5;" xlink:href="#font_4_1" transform="matrix(6.9740097,0,0,-6.9742186,314.268,120.88046)"/>
<use data-text="&#x2032;" xlink:href="#font_6_1" transform="matrix(4.9814498,0,0,-4.9815986,319.11213,117.87329)"/>
<use data-text="1" xlink:href="#font_5_2" transform="matrix(4.9814498,0,0,-4.9815986,319.11213,122.872577)"/>
<path transform="matrix(1.00003,0,0,-1.00006,20.366166,175.68675)" stroke-width=".3985" stroke-linecap="butt" stroke-miterlimit="10" stroke-linejoin="miter" fill="none" stroke="#000000" d="M317.4842 7.67094V102.65237"/>
<path transform="matrix(0,-1.00006,-1.00003,-0,337.85993,74.74651)" d="M4.21463 0 .64343 1.34572 1.8178 0 .64343-1.34572Z"/>
<path transform="matrix(0,-1.00006,-1.00003,-0,337.85993,74.74651)" stroke-width=".3985" stroke-linecap="butt" stroke-miterlimit="10" stroke-linejoin="miter" fill="none" stroke="#000000" d="M4.21463 0 .64343 1.34572 1.8178 0 .64343-1.34572Z"/>
<use data-text="&#x03d5;" xlink:href="#font_4_2" transform="matrix(6.9740097,0,0,-6.9742186,341.37983,120.88046)"/>
<use data-text="&#x2032;" xlink:href="#font_6_1" transform="matrix(4.9814498,0,0,-4.9815986,346.16996,117.87329)"/>
<use data-text="1" xlink:href="#font_5_2" transform="matrix(4.9814498,0,0,-4.9815986,346.16996,122.872577)"/>
<path transform="matrix(1.00003,0,0,-1.00006,20.366166,175.68675)" stroke-width=".3985" stroke-linecap="butt" stroke-miterlimit="10" stroke-linejoin="miter" fill="none" stroke="#000000" d="M209.01483 113.38724H298.16383"/>
<path transform="matrix(1.00003,0,0,-1.00006,316.82069,62.292718)" d="M4.21463 0 .64343 1.34572 1.8178 0 .64343-1.34572Z"/>
<path transform="matrix(1.00003,0,0,-1.00006,316.82069,62.292718)" stroke-width=".3985" stroke-linecap="butt" stroke-miterlimit="10" stroke-linejoin="miter" fill="none" stroke="#000000" d="M4.21463 0 .64343 1.34572 1.8178 0 .64343-1.34572Z"/>
<use data-text="f" xlink:href="#font_4_3" transform="matrix(6.9740097,0,0,-6.9742186,269.83369,57.416666)"/>
<use data-text="M" xlink:href="#font_7_3" transform="matrix(4.9814498,0,0,-4.9815986,273.71879,58.418725)"/>
<path transform="matrix(1.00003,0,0,-1.00006,20.366166,175.68675)" stroke-width=".3985" stroke-linecap="butt" stroke-miterlimit="10" stroke-linejoin="miter" fill="none" stroke="#000000" d="M207.3855 0H299.79316"/>
<path transform="matrix(1.00003,0,0,-1.00006,318.45008,175.68675)" d="M4.21463 0 .64343 1.34572 1.8178 0 .64343-1.34572Z"/>
<path transform="matrix(1.00003,0,0,-1.00006,318.45008,175.68675)" stroke-width=".3985" stroke-linecap="butt" stroke-miterlimit="10" stroke-linejoin="miter" fill="none" stroke="#000000" d="M4.21463 0 .64343 1.34572 1.8178 0 .64343-1.34572Z"/>
<use data-text="f" xlink:href="#font_4_3" transform="matrix(6.9740097,0,0,-6.9742186,270.7107,170.81046)"/>
<use data-text="F" xlink:href="#font_7_1" transform="matrix(4.9814498,0,0,-4.9815986,274.59584,171.81252)"/>
<use data-text="S" xlink:href="#font_1_97" transform="matrix(9.962899,0,0,-9.963197,31.101487,8.997757)"/>
<use data-text="e" xlink:href="#font_1_50" transform="matrix(9.962899,0,0,-9.963197,36.64086,8.997757)"/>
<use data-text="s" xlink:href="#font_1_98" transform="matrix(9.962899,0,0,-9.963197,41.064386,8.997757)"/>
<use data-text="s" xlink:href="#font_1_98" transform="matrix(9.962899,0,0,-9.963197,44.98977,8.997757)"/>
<use data-text="i" xlink:href="#font_1_66" transform="matrix(9.962899,0,0,-9.963197,48.915147,8.997757)"/>
<use data-text="o" xlink:href="#font_1_81" transform="matrix(9.962899,0,0,-9.963197,51.68483,8.997757)"/>
<use data-text="n" xlink:href="#font_1_77" transform="matrix(9.962899,0,0,-9.963197,56.666276,8.997757)"/>
<use data-text="1" xlink:href="#font_1_82" transform="matrix(9.962899,0,0,-9.963197,65.51332,8.997757)"/>
<use data-text="2" xlink:href="#font_1_107" transform="matrix(9.962899,0,0,-9.963197,70.49477,8.997757)"/>
<use data-text="E" xlink:href="#font_1_49" transform="matrix(9.962899,0,0,-9.963197,78.79385,8.997757)"/>
<use data-text="x" xlink:href="#font_1_116" transform="matrix(9.962899,0,0,-9.963197,85.5786,8.997757)"/>
<use data-text="e" xlink:href="#font_1_50" transform="matrix(9.962899,0,0,-9.963197,90.839008,8.997757)"/>
<use data-text="r" xlink:href="#font_1_96" transform="matrix(9.962899,0,0,-9.963197,95.26254,8.997757)"/>
<use data-text="c" xlink:href="#font_1_43" transform="matrix(9.962899,0,0,-9.963197,99.167987,8.997757)"/>
<use data-text="i" xlink:href="#font_1_66" transform="matrix(9.962899,0,0,-9.963197,103.59152,8.997757)"/>
<use data-text="s" xlink:href="#font_1_98" transform="matrix(9.962899,0,0,-9.963197,106.36122,8.997757)"/>
<use data-text="e" xlink:href="#font_1_50" transform="matrix(9.962899,0,0,-9.963197,110.28659,8.997757)"/>
<use data-text="3" xlink:href="#font_1_106" transform="matrix(9.962899,0,0,-9.963197,118.02779,8.997757)"/>
<use data-text="P" xlink:href="#font_8_2" transform="matrix(9.962899,0,0,-9.963197,16.45005,65.71116)"/>
<use data-text="G" xlink:href="#font_8_1" transform="matrix(9.962899,0,0,-9.963197,129.25244,65.71116)"/>
<use data-text="P" xlink:href="#font_8_2" transform="matrix(9.962899,0,0,-9.963197,16.45005,179.10495)"/>
<use data-text="G" xlink:href="#font_8_1" transform="matrix(9.962899,0,0,-9.963197,129.25244,179.10495)"/>
<path transform="matrix(1.00003,0,0,-1.00006,20.366166,175.68675)" stroke-width=".3985" stroke-linecap="butt" stroke-miterlimit="10" stroke-linejoin="miter" fill="none" stroke="#000000" d="M7.4357 113.38724H102.29953"/>
<path transform="matrix(1.00003,0,0,-1.00006,120.95052,62.292718)" d="M4.21463 0 .64343 1.34572 1.8178 0 .64343-1.34572Z"/>
<path transform="matrix(1.00003,0,0,-1.00006,120.95052,62.292718)" stroke-width=".3985" stroke-linecap="butt" stroke-miterlimit="10" stroke-linejoin="miter" fill="none" stroke="#000000" d="M4.21463 0 .64343 1.34572 1.8178 0 .64343-1.34572Z"/>
<use data-text="g" xlink:href="#font_4_4" transform="matrix(6.9740097,0,0,-6.9742186,74.6988,57.416666)"/>
<path transform="matrix(1.00003,0,0,-1.00006,20.366166,175.68675)" stroke-width=".3985" stroke-linecap="butt" stroke-miterlimit="10" stroke-linejoin="miter" fill="none" stroke="#000000" d="M7.4357 0H102.29953"/>
<path transform="matrix(1.00003,0,0,-1.00006,120.95052,175.68675)" d="M4.21463 0 .64343 1.34572 1.8178 0 .64343-1.34572Z"/>
<path transform="matrix(1.00003,0,0,-1.00006,120.95052,175.68675)" stroke-width=".3985" stroke-linecap="butt" stroke-miterlimit="10" stroke-linejoin="miter" fill="none" stroke="#000000" d="M4.21463 0 .64343 1.34572 1.8178 0 .64343-1.34572Z"/>
<use data-text="g" xlink:href="#font_4_4" transform="matrix(6.9740097,0,0,-6.9742186,74.6988,170.81046)"/>
<path transform="matrix(1.00003,0,0,-1.00006,20.366166,175.68675)" stroke-width=".3985" stroke-linecap="butt" stroke-miterlimit="10" stroke-linejoin="miter" fill="none" stroke="#000000" d="M-2.83484 106.44963V10.00151"/>
<path transform="matrix(0,1.00006,1.00003,0,17.53124,163.96636)" d="M4.21463 0 .64343 1.34572 1.8178 0 .64343-1.34572Z"/>
<path transform="matrix(0,1.00006,1.00003,0,17.53124,163.96636)" stroke-width=".3985" stroke-linecap="butt" stroke-miterlimit="10" stroke-linejoin="miter" fill="none" stroke="#000000" d="M4.21463 0 .64343 1.34572 1.8178 0 .64343-1.34572Z"/>
<use data-text="m" xlink:href="#font_4_5" transform="matrix(6.9740097,0,0,-6.9742186,1.2175903,119.99042)"/>
<use data-text="P" xlink:href="#font_7_4" transform="matrix(4.9814498,0,0,-4.9815986,8.286804,120.99248)"/>
<path transform="matrix(1.00003,0,0,-1.00006,20.366166,175.68675)" stroke-width=".3985" stroke-linecap="butt" stroke-miterlimit="10" stroke-linejoin="miter" fill="none" stroke="#000000" d="M2.83484 106.44963V10.00151"/>
<path transform="matrix(0,1.00006,1.00003,0,23.20109,163.96636)" d="M4.21463 0 .64343 1.34572 1.8178 0 .64343-1.34572Z"/>
<path transform="matrix(0,1.00006,1.00003,0,23.20109,163.96636)" stroke-width=".3985" stroke-linecap="butt" stroke-miterlimit="10" stroke-linejoin="miter" fill="none" stroke="#000000" d="M4.21463 0 .64343 1.34572 1.8178 0 .64343-1.34572Z"/>
<use data-text="f" xlink:href="#font_4_3" transform="matrix(6.9740097,0,0,-6.9742186,26.72136,120.73346)"/>
<use data-text="P" xlink:href="#font_7_4" transform="matrix(4.9814498,0,0,-4.9815986,30.606476,121.73552)"/>
<path transform="matrix(1.00003,0,0,-1.00006,20.366166,175.68675)" stroke-width=".3985" stroke-linecap="butt" stroke-miterlimit="10" stroke-linejoin="miter" fill="none" stroke="#000000" d="M110.55238 106.44963V10.00151"/>
<path transform="matrix(0,1.00006,1.00003,0,130.92188,163.96636)" d="M4.21463 0 .64343 1.34572 1.8178 0 .64343-1.34572Z"/>
<path transform="matrix(0,1.00006,1.00003,0,130.92188,163.96636)" stroke-width=".3985" stroke-linecap="butt" stroke-miterlimit="10" stroke-linejoin="miter" fill="none" stroke="#000000" d="M4.21463 0 .64343 1.34572 1.8178 0 .64343-1.34572Z"/>
<use data-text="m" xlink:href="#font_4_5" transform="matrix(6.9740097,0,0,-6.9742186,114.533,119.99042)"/>
<use data-text="G" xlink:href="#font_7_2" transform="matrix(4.9814498,0,0,-4.9815986,121.60221,120.99248)"/>
<path transform="matrix(1.00003,0,0,-1.00006,20.366166,175.68675)" stroke-width=".3985" stroke-linecap="butt" stroke-miterlimit="10" stroke-linejoin="miter" fill="none" stroke="#000000" d="M116.22208 106.44963V10.00151"/>
<path transform="matrix(0,1.00006,1.00003,0,136.59174,163.96636)" d="M4.21463 0 .64343 1.34572 1.8178 0 .64343-1.34572Z"/>
<path transform="matrix(0,1.00006,1.00003,0,136.59174,163.96636)" stroke-width=".3985" stroke-linecap="butt" stroke-miterlimit="10" stroke-linejoin="miter" fill="none" stroke="#000000" d="M4.21463 0 .64343 1.34572 1.8178 0 .64343-1.34572Z"/>
<use data-text="f" xlink:href="#font_4_3" transform="matrix(6.9740097,0,0,-6.9742186,140.11176,120.73346)"/>
<use data-text="G" xlink:href="#font_7_2" transform="matrix(4.9814498,0,0,-4.9815986,143.99687,121.73552)"/>
</svg>
