<svg xmlns="http://www.w3.org/2000/svg" xmlns:xlink="http://www.w3.org/1999/xlink" xmlns:inkscape="http://www.inkscape.org/namespaces/inkscape" version="1.1" width="95" height="78" viewBox="0 0 95 78">
<defs>
<path id="font_1_1" d="M.4850006 .41075135 .40098573 .6096344C.397995 .61763 .3959961 .6216278 .3959961 .6226196 .3959961 .62861636 .41299439 .6476135 .45498658 .6516113 .46499635 .65260317 .47499085 .6536102 .47499085 .6706085 .47499085 .6826172 .46299745 .6826172 .45999146 .6826172 .4189911 .6826172 .37599183 .6796112 .33399964 .6796112 .30899049 .6796112 .24699402 .6826172 .22200012 .6826172 .21598816 .6826172 .20399475 .6826172 .20399475 .6626129 .20399475 .6516113 .21398926 .6516113 .22698975 .6516113 .2869873 .6516113 .29299928 .6416168 .3019867 .6196289L.41999818 .34080506 .20899964 .11393738 .19599915 .10295105C.14698792 .049987794 .099990848 .033996583 .04899597 .0309906 .035995485 .02999878 .026992798 .02999878 .026992798 .010986328 .026992798 .009994507 .026992798 0 .039993287 0 .069992069 0 .102996829 .0029907227 .13398743 .0029907227 .17098999 .0029907227 .20999146 0 .24598694 0 .2519989 0 .2639923 0 .2639923 .019989014 .2639923 .02999878 .2539978 .0309906 .2519989 .0309906 .24299622 .03199768 .21199036 .033996583 .21199036 .061965944 .21199036 .07795715 .22698975 .093948367 .23899842 .10694885L.34098817 .21487427 .43099977 .31282044 .5319977 .07395935C.5359955 .06297302 .5369873 .061965944 .5369873 .05996704 .5369873 .051986696 .5179901 .034988405 .47898866 .0309906 .46798707 .02999878 .45899964 .0289917 .45899964 .011993408 .45899964 0 .46998597 0 .47399903 0 .5019989 0 .57199099 .0029907227 .59999087 .0029907227 .625 .0029907227 .6859894 0 .71099856 0 .71798709 0 .7299957 0 .7299957 .018997193 .7299957 .0309906 .7200012 .0309906 .71199038 .0309906 .644989 .03199768 .6429901 .034988405 .6259918 .07496643 .58699038 .16790772 .519989 .32380677 .49699403 .3837738 .5649872 .45373536 .66999819 .5726471 .70199587 .6006317 .73098757 .62461856 .7689972 .64860537 .82899478 .6516113 .84199526 .65260317 .8509979 .65260317 .8509979 .6716156 .8509979 .6726074 .8509979 .6826172 .83799746 .6826172 .80799868 .6826172 .7749939 .6796112 .74398806 .6796112 .70700076 .6796112 .6689911 .6826172 .6329956 .6826172 .6269989 .6826172 .6139984 .6826172 .6139984 .6626129 .6139984 .65560916 .61898806 .65260317 .6259918 .6516113 .6349945 .65060427 .66600039 .64860537 .66600039 .6206207 .66600039 .6066284 .6549988 .5936432 .6469879 .5846405L.4850006 .41075135Z"/>
<path id="font_1_2" d="M.7200012 .6586151C.72099307 .6626129 .72299197 .66760256 .72299197 .6736145 .72299197 .6826172 .71798709 .6826172 .69799807 .6826172H.27598573C.2519989 .6826172 .25099183 .6816101 .24499512 .6626129L.18998719 .4827118C.18798828 .47772218 .18699646 .47071839 .18699646 .46871949 .18699646 .46772767 .18699646 .45773316 .19898987 .45773316 .20799256 .45773316 .20999146 .46472169 .21199036 .46772767 .25 .5856476 .3019867 .6516113 .45799256 .6516113H.62098696L.06199646 .026992798C.06199646 .025985718 .057998659 .011993408 .057998659 .008987427 .057998659 0 .06498718 0 .08299255 0H.5179901C.5419922 0 .54299929 .0009918213 .548996 .019989014L.6199951 .24085999C.62098696 .24485779 .6239929 .25186158 .6239929 .25585938 .6239929 .260849 .6199951 .2668457 .61099246 .2668457 .60198977 .2668457 .6009979 .2628479 .59399417 .24186707 .5499878 .10594177 .5019989 .033996583 .33198548 .033996583H.16099549L.7200012 .6586151Z"/>
<path id="font_2_1" d="M.33499146 .63612368C.33499146 .6630554 .33299256 .6640625 .30499269 .6640625 .24099732 .6014404 .1499939 .6004486 .10899353 .6004486V.5644531C.1329956 .5644531 .19898987 .5644531 .2539978 .592453V.08203125C.2539978 .04899597 .2539978 .035995485 .1539917 .035995485H.115997318V0C.13398743 .0009918213 .25698854 .0039978029 .2939911 .0039978029 .32499696 .0039978029 .45098878 .0009918213 .47299195 0V.035995485H.43499757C.33499146 .035995485 .33499146 .04899597 .33499146 .08203125V.63612368Z"/>
<path id="font_3_1" d="M.651001 .38078309 .86499026 .57066348C.9249878 .62461856 .9779968 .6356201 1.0379944 .637619 1.052002 .63861086 1.0579987 .65560916 1.0579987 .66560366 1.0579987 .6746063 1.0499878 .6826172 1.0410004 .6826172 1.0249939 .6826172 1.0049896 .6796112 .98799136 .6796112 .97099307 .6796112 .9529877 .6786041 .9359894 .6786041 .91400149 .6786041 .8929901 .6796112 .871994 .6796112 .8529968 .6796112 .8299866 .6826172 .8109894 .6826172 .80400088 .6826172 .7869873 .6826172 .7869873 .65460208 .7869873 .64060977 .7979889 .637619 .80599978 .637619 .81999209 .63661196 .83799746 .63261416 .83799746 .61763 .83799746 .6036377 .82899478 .5956421 .7969971 .56666567L.6299896 .41575624 .5079956 .6196289C.5239868 .63261416 .5439911 .63661196 .56199648 .637619 .56799319 .637619 .58499148 .63861086 .58499148 .66560366 .58499148 .6776123 .57499697 .6826172 .5669861 .6826172 .5439911 .6826172 .5179901 .6796112 .49499513 .6796112 .47200013 .6796112 .44799806 .6786041 .4249878 .6786041 .4039917 .6786041 .38198854 .6796112 .36099244 .6796112 .33999635 .6796112 .31799317 .6826172 .2979889 .6826172 .2809906 .6826172 .27398683 .6706085 .27398683 .65460208 .27398683 .637619 .2889862 .637619 .30699159 .637619 .37298585 .637619 .3789978 .62661746 .3880005 .6116333L.548996 .34280396 .30699159 .12394714C.3039856 .12094116 .29499818 .11494446 .29100038 .11294556 .25 .07896423 .21099854 .04798889 .115997318 .04499817 .09799194 .04399109 .09700012 .018997193 .09700012 .016998291 .09700012 .005996704 .10598755 0 .11299133 0 .12998963 0 .14898682 .0029907227 .1659851 .0029907227 .18299866 .0029907227 .20098877 .0039978029 .21798706 .0039978029 .23999024 .0039978029 .26098634 .0029907227 .28199769 .0029907227 .3019867 .0029907227 .32398988 0 .34399415 0 .35798646 0 .36799623 .0069885256 .36799623 .027999878 .36799623 .04399109 .35299684 .04499817 .34899903 .04499817 .32099916 .04699707 .31698609 .05899048 .31698609 .064971927 .31698609 .07597351 .33099366 .09196472 .33299256 .094955448 .33799745 .09996033 .5309906 .2718506 .56900027 .3078308L.70899966 .07597351C.71099856 .07197571 .71499636 .065979007 .71499636 .0639801 .71499636 .0599823 .69799807 .04699707 .6619873 .04499817 .6559906 .04499817 .6389923 .04399109 .6389923 .016998291 .6389923 .005996704 .6469879 0 .6569977 0 .6799927 0 .70599368 .0029907227 .72898867 .0029907227 .7519989 .0029907227 .776001 .0039978029 .798996 .0039978029 .81999209 .0039978029 .84199526 .0029907227 .86299136 .0029907227 .8829956 .0029907227 .9059906 0 .9259949 0 .94299319 0 .94999697 .011993408 .94999697 .027999878 .94999697 .04499817 .93499758 .04499817 .9169922 .04499817 .85198977 .04499817 .84599307 .055984498 .83699038 .06997681L.651001 .38078309Z"/>
<path id="font_4_1" d="M.5469971 .14128113C.6389923 .23632813 .6759949 .36938478 .6759949 .38038636 .6759949 .39338685 .6639862 .39338685 .6589966 .39338685 .644989 .39338685 .644989 .39038087 .6380005 .3683777 .6199951 .3023529 .58699038 .24131775 .54499819 .18730164 .5439911 .20230103 .5419922 .2693329 .5399933 .27833558 .5249939 .37738038 .44999696 .44140626 .34999085 .44140626 .20298767 .44140626 .06199646 .3043518 .06199646 .16429138 .06199646 .072250369 .1289978-.009765625 .24499512-.009765625 .33699037-.009765625 .41999818 .032226564 .47599793 .07525635 .49899293 .0022277833 .5499878-.009765625 .5799866-.009765625 .6380005-.009765625 .673996 .039230348 .673996 .0602417 .673996 .072250369 .6619873 .072250369 .6569977 .072250369 .6439972 .072250369 .6419983 .06825256 .6399994 .0622406 .6259918 .024230957 .59498599 .018234253 .58299258 .018234253 .56900027 .018234253 .5519867 .018234253 .5469971 .14128113M.46899415 .10726929C.37098695 .027236939 .28599549 .018234253 .24798584 .018234253 .18199158 .018234253 .14498902 .0622406 .14498902 .12927246 .14498902 .15829468 .15899658 .26733399 .21099854 .33636476 .25698854 .39639283 .31399537 .4133911 .34899903 .4133911 .42900086 .4133911 .45199586 .33636476 .45999146 .27433778 .46598817 .23132324 .46398927 .16029358 .46899415 .10726929Z"/>
<path id="font_3_2" d="M.8989868 .63560488C.9089966 .64460757 .9169922 .65260317 .9169922 .6696167 .9169922 .6826172 .9069977 .6826172 .8880005 .6826172H.35499574C.32998658 .6826172 .32699586 .6826172 .31999208 .660614L.2630005 .478714C.2619934 .4747162 .2579956 .4637146 .2579956 .46072389 .2579956 .45472718 .2619934 .4437256 .2789917 .4437256 .2889862 .4437256 .29599 .44473268 .2999878 .45872499 .35198976 .6066284 .44299317 .63760378 .57299807 .63760378H.7779999L.14498902 .04798889C.1349945 .038986207 .1289978 .026992798 .1289978 .01399231 .1289978 0 .13699341 0 .1579895 0H.70899966C.7350006 0 .73599246 .0009918213 .74398806 .023986817 .7539978 .051986696 .82299807 .2548523 .82299807 .26385499 .82299807 .280838 .80599978 .280838 .8019867 .280838 .7859955 .280838 .7839966 .2748413 .7779999 .2588501 .72499087 .10694885 .6649933 .04798889 .48599244 .04798889H.269989L.8989868 .63560488Z"/>
<path id="font_4_2" d="M.44699098 .1402893C.44198609 .19831848 .4079895 .44140626 .24499512 .44140626 .18598938 .44140626 .1349945 .4093933 .10699463 .38339234 .04598999 .3283844 .033996583 .26435853 .033996583 .26135255 .033996583 .24934387 .04699707 .24934387 .049987794 .24934387 .06298828 .24934387 .06399536 .25134278 .068984989 .26635743 .08999634 .32537843 .1639862 .36140443 .23098755 .36140443 .3919983 .36140443 .41299439 .20031739 .41299439 .0982666 .41299439 .04824829 .4099884 .037231447 .4059906 .026229859 .3829956-.048797609 .35299684-.15985108 .35299684-.18988037 .35299684-.20088196 .35699464-.21386719 .36999513-.21386719 .3769989-.21386719 .3880005-.21386719 .4039917-.16186524 .41600038-.12283325 .43499757-.048797609 .44299317 .023239136 .44699098 .058242799 .5029907 .1933136 .5239868 .24133301 .5379944 .27235414 .5589905 .3193817 .60598757 .4064026 .60899356 .4113922 .61099246 .41540528 .61099246 .41940309 .61099246 .43139649 .59799197 .43139649 .59498599 .43139649 .59199526 .43139649 .58299258 .43139649 .5799866 .4263916 .56799319 .4053955 .49198915 .26234437 .44699098 .1402893Z"/>
<path id="font_4_4" d="M.5319977 .36935426C.5359955 .3843689 .5359955 .38937379 .5359955 .39038087 .5359955 .4123993 .5179901 .4223938 .5019989 .4223938 .47898866 .4223938 .45999146 .4033966 .45599366 .3843689 .43899537 .4113922 .40499879 .44140626 .35299684 .44140626 .22799683 .44140626 .09700012 .3072815 .09700012 .1641388 .09700012 .061019899 .16699219 0 .24899292 0 .29499818 0 .33898927 .022994996 .37399293 .054016115L.35198976-.036026C.34098817-.07803345 .33399964-.105041507 .29599-.13903809 .2519989-.17610169 .20899964-.17610169 .18399048-.17610169 .13798523-.17610169 .125-.17308045 .10699463-.16903687 .13198853-.15704346 .13899231-.13304138 .13899231-.11903381 .13899231-.09503174 .11999512-.08203125 .099990848-.08203125 .07199097-.08203125 .042999269-.105041507 .042999269-.14303589 .042999269-.20310974 .1289978-.20410156 .18499756-.20410156 .34199525-.20410156 .40899659-.1240387 .4229889-.06703186L.5319977 .36935426M.3939972 .13310242C.3899994 .11808777 .3899994 .11608887 .37298585 .096069339 .33799745 .054016115 .2899933 .027999878 .2519989 .027999878 .20098877 .027999878 .1769867 .07104492 .1769867 .12309265 .1769867 .16714478 .20399475 .2792511 .22999573 .32330323 .27198792 .39338685 .31900025 .4133911 .35299684 .4133911 .4229889 .4133911 .44198609 .33831788 .44198609 .3283081 .44198609 .3263092 .44198609 .3243103 .43899537 .31329347L.3939972 .13310242Z"/>
<path id="font_5_1" d="M.5069885 .24998474C.5069885 .3710022 .4099884 .4650116 .2919922 .4650116 .17199707 .4650116 .07699585 .36799623 .07699585 .25097657 .07699585 .1299591 .17399597 .035949708 .2919922 .035949708 .4119873 .035949708 .5069885 .13296509 .5069885 .24998474M.2919922 .08496094C.19799805 .08496094 .12599182 .16096497 .12599182 .24998474 .12599182 .34300233 .19999695 .41601563 .2919922 .41601563 .38598634 .41601563 .45799256 .33999635 .45799256 .25097657 .45799256 .15795899 .38398744 .08496094 .2919922 .08496094Z"/>
<path id="font_4_3" d="M.40699769 .39465333H.5049896C.5249939 .39465333 .5379944 .39465333 .5379944 .4166565 .5379944 .43066407 .5249939 .43066407 .5069885 .43066407H.4139862C.43699647 .5580139 .44499208 .6040497 .45298768 .63305667 .45799256 .6550598 .47999574 .6760864 .5039978 .6760864 .5049896 .6760864 .5319977 .6760864 .5509949 .6640625 .5099945 .651062 .5069885 .61505129 .5069885 .60905459 .5069885 .5870514 .5239868 .572052 .5469971 .572052 .57398989 .572052 .60398867 .59506228 .60398867 .63305667 .60398867 .6790924 .5549927 .70410159 .5039978 .70410159 .45999146 .70410159 .41099549 .6790924 .38398744 .62905886 .3639984 .5920563 .35598756 .5469818 .33499146 .43066407H.2559967C.23599243 .43066407 .22299195 .43066407 .22299195 .4086609 .22299195 .39465333 .23599243 .39465333 .2539978 .39465333H.32798768C.32699586 .38865663 .2639923 .028869629 .23999024-.078063968 .23498535-.10006714 .21798706-.17610169 .16999817-.17610169 .16899109-.17610169 .14498902-.17610169 .12599182-.1640625 .16699219-.15107727 .16999817-.11506653 .16999817-.109069827 .16999817-.08706665 .15299988-.07206726 .12998963-.07206726 .102996829-.07206726 .07299805-.095077518 .07299805-.1330719 .07299805-.17811585 .11999512-.20410156 .16999817-.20410156 .23399353-.20410156 .27799989-.13807678 .2899933-.11607361 .32598878-.049087526 .34899903 .07385254 .35099793 .08584595L.40699769 .39465333Z"/>
</defs>
<use data-text="X" xlink:href="#font_1_1" transform="matrix(9.963197,0,0,-9.962899,17.653229,14.043062)"/>
<use data-text="X" xlink:href="#font_1_1" transform="matrix(9.963197,0,0,-9.962899,17.653229,70.73877)"/>
<use data-text="Z" xlink:href="#font_1_2" transform="matrix(9.963197,0,0,-9.962899,75.11067,14.043062)"/>
<use data-text="Z" xlink:href="#font_1_2" transform="matrix(9.963197,0,0,-9.962899,75.11067,70.73877)"/>
<path transform="matrix(1.00006,0,0,-1.00003,78.8679,38.986814)" stroke-width=".3985" stroke-linecap="butt" stroke-miterlimit="10" stroke-linejoin="miter" fill="none" stroke="#000000" d="M-64.73126 21.42305V-18.35913"/>
<path transform="matrix(0,1.00003,1.00006,0,14.132751,55.62826)" d="M4.21463 0 .64343 1.34572 1.8178 0 .64343-1.34572Z"/>
<path transform="matrix(0,1.00003,1.00006,0,14.132751,55.62826)" stroke-width=".3985" stroke-linecap="butt" stroke-miterlimit="10" stroke-linejoin="miter" fill="none" stroke="#000000" d="M4.21463 0 .64343 1.34572 1.8178 0 .64343-1.34572Z"/>
<use data-text="1" xlink:href="#font_2_1" transform="matrix(6.9742186,0,0,-6.9740097,.21717835,40.732866)"/>
<use data-text="X" xlink:href="#font_3_1" transform="matrix(4.9815986,0,0,-4.9814498,4.1884005,41.734899)"/>
<path transform="matrix(1.00006,0,0,-1.00003,78.8679,38.986814)" stroke-width=".3985" stroke-linecap="butt" stroke-miterlimit="10" stroke-linejoin="miter" fill="none" stroke="#000000" d="M-48.65596 21.42305V-18.35913"/>
<path transform="matrix(0,1.00003,1.00006,0,30.209019,55.62826)" d="M4.21463 0 .64343 1.34572 1.8178 0 .64343-1.34572Z"/>
<path transform="matrix(0,1.00003,1.00006,0,30.209019,55.62826)" stroke-width=".3985" stroke-linecap="butt" stroke-miterlimit="10" stroke-linejoin="miter" fill="none" stroke="#000000" d="M4.21463 0 .64343 1.34572 1.8178 0 .64343-1.34572Z"/>
<use data-text="&#x03b1;" xlink:href="#font_4_1" transform="matrix(6.9742186,0,0,-6.9740097,33.729188,40.487859)"/>
<path transform="matrix(1.00006,0,0,-1.00003,78.8679,38.986814)" stroke-width=".3985" stroke-linecap="butt" stroke-miterlimit="10" stroke-linejoin="miter" fill="none" stroke="#000000" d="M-7.2766 21.42305V-18.35913"/>
<path transform="matrix(0,1.00003,1.00006,0,71.59086,55.62826)" d="M4.21463 0 .64343 1.34572 1.8178 0 .64343-1.34572Z"/>
<path transform="matrix(0,1.00003,1.00006,0,71.59086,55.62826)" stroke-width=".3985" stroke-linecap="butt" stroke-miterlimit="10" stroke-linejoin="miter" fill="none" stroke="#000000" d="M4.21463 0 .64343 1.34572 1.8178 0 .64343-1.34572Z"/>
<use data-text="1" xlink:href="#font_2_1" transform="matrix(6.9742186,0,0,-6.9740097,58.563684,40.732866)"/>
<use data-text="Z" xlink:href="#font_3_2" transform="matrix(4.9815986,0,0,-4.9814498,62.534906,41.734899)"/>
<path transform="matrix(1.00006,0,0,-1.00003,78.8679,38.986814)" stroke-width=".3985" stroke-linecap="butt" stroke-miterlimit="10" stroke-linejoin="miter" fill="none" stroke="#000000" d="M7.2766 21.42305V-18.35913"/>
<path transform="matrix(0,1.00003,1.00006,0,86.144939,55.62826)" d="M4.21463 0 .64343 1.34572 1.8178 0 .64343-1.34572Z"/>
<path transform="matrix(0,1.00003,1.00006,0,86.144939,55.62826)" stroke-width=".3985" stroke-linecap="butt" stroke-miterlimit="10" stroke-linejoin="miter" fill="none" stroke="#000000" d="M4.21463 0 .64343 1.34572 1.8178 0 .64343-1.34572Z"/>
<use data-text="&#x03b3;" xlink:href="#font_4_2" transform="matrix(6.9742186,0,0,-6.9740097,89.66454,39.809839)"/>
<path transform="matrix(1.00006,0,0,-1.00003,78.8679,38.986814)" stroke-width=".3985" stroke-linecap="butt" stroke-miterlimit="10" stroke-linejoin="miter" fill="none" stroke="#000000" d="M-48.65596 28.3468H-10.34052"/>
<path transform="matrix(1.00006,0,0,-1.00003,66.80847,10.639162)" d="M4.21463 0 .64343 1.34572 1.8178 0 .64343-1.34572Z"/>
<path transform="matrix(1.00006,0,0,-1.00003,66.80847,10.639162)" stroke-width=".3985" stroke-linecap="butt" stroke-miterlimit="10" stroke-linejoin="miter" fill="none" stroke="#000000" d="M4.21463 0 .64343 1.34572 1.8178 0 .64343-1.34572Z"/>
<use data-text="g" xlink:href="#font_4_4" transform="matrix(6.9742186,0,0,-6.9740097,42.64273,5.7628138)"/>
<use data-text="&#x25e6;" xlink:href="#font_5_1" transform="matrix(6.9742186,0,0,-6.9740097,48.594087,5.7628138)"/>
<use data-text="f" xlink:href="#font_4_3" transform="matrix(6.9742186,0,0,-6.9740097,54.490434,5.7628138)"/>
<path transform="matrix(1.00006,0,0,-1.00003,78.8679,38.986814)" stroke-width=".3985" stroke-linecap="butt" stroke-miterlimit="10" stroke-linejoin="miter" fill="none" stroke="#000000" d="M-48.65596-28.3468H-10.34052"/>
<path transform="matrix(1.00006,0,0,-1.00003,66.80847,67.334468)" d="M4.21463 0 .64343 1.34572 1.8178 0 .64343-1.34572Z"/>
<path transform="matrix(1.00006,0,0,-1.00003,66.80847,67.334468)" stroke-width=".3985" stroke-linecap="butt" stroke-miterlimit="10" stroke-linejoin="miter" fill="none" stroke="#000000" d="M4.21463 0 .64343 1.34572 1.8178 0 .64343-1.34572Z"/>
<use data-text="g" xlink:href="#font_4_4" transform="matrix(6.9742186,0,0,-6.9740097,42.64273,75.697917)"/>
<use data-text="&#x25e6;" xlink:href="#font_5_1" transform="matrix(6.9742186,0,0,-6.9740097,48.594087,75.697917)"/>
<use data-text="f" xlink:href="#font_4_3" transform="matrix(6.9742186,0,0,-6.9740097,54.490434,75.697917)"/>
</svg>
