<svg xmlns="http://www.w3.org/2000/svg" xmlns:xlink="http://www.w3.org/1999/xlink" xmlns:inkscape="http://www.inkscape.org/namespaces/inkscape" version="1.1" width="389" height="378" viewBox="0 0 389 378">
<defs>
<path id="font_1_1" d="M.45999146 .31976319C.45999146 .39982606 .45498658 .47988893 .41999818 .5539398 .37399293 .65000918 .2919922 .6660156 .25 .6660156 .18998719 .6660156 .116989139 .64001467 .07598877 .54693606 .04399109 .47789 .038986207 .39982606 .038986207 .31976319 .038986207 .24472046 .042999269 .15464783 .083999637 .07859802 .1269989-.0024719239 .19999695-.022460938 .24899292-.022460938 .30299378-.022460938 .3789978-.0014648438 .4229889 .09359741 .45498658 .16265869 .45999146 .2407074 .45999146 .31976319M.24899292-.00047302247C.20999146-.00047302247 .15098572 .024551392 .1329956 .12062073 .12199402 .18066406 .12199402 .2727356 .12199402 .3317871 .12199402 .39582826 .12199402 .46188355 .12998963 .5159149 .14898682 .63500979 .22399903 .64401248 .24899292 .64401248 .28199769 .64401248 .34799195 .6259918 .36698915 .52693179 .3769989 .47088624 .3769989 .39482118 .3769989 .3317871 .3769989 .25672914 .3769989 .18867493 .3659973 .12461853 .35099793 .029556275 .2939911-.00047302247 .24899292-.00047302247Z"/>
<path id="font_1_2" d="M.2939911 .64004519C.2939911 .66400149 .2939911 .6660156 .2709961 .6660156 .20899964 .60227969 .12098694 .60227969 .08898926 .60227969V.57128909C.10899353 .57128909 .16799927 .57128909 .21998596 .5972748V.07902527C.21998596 .042999269 .21699524 .0309906 .1269989 .0309906H.09498596V0C.12998963 .0029907227 .21699524 .0029907227 .25698854 .0029907227 .29699708 .0029907227 .38398744 .0029907227 .4189911 0V.0309906H.3869934C.29699708 .0309906 .2939911 .041992189 .2939911 .07902527V.64004519Z"/>
<path id="font_1_3" d="M.1269989 .07699585 .23298645 .18003845C.3889923 .31811524 .44898988 .3721466 .44898988 .47216798 .44898988 .5860901 .35899354 .6660156 .23699951 .6660156 .12399292 .6660156 .049987794 .57411196 .049987794 .48516847 .049987794 .4291687 .099990848 .4291687 .102996829 .4291687 .11999512 .4291687 .15499878 .44117738 .15499878 .48217774 .15499878 .5081787 .13699341 .5341797 .101989749 .5341797 .09399414 .5341797 .09199524 .5341797 .08898926 .5331726 .11199951 .59806826 .1659851 .63500979 .22399903 .63500979 .31498719 .63500979 .35798646 .5541382 .35798646 .47216798 .35798646 .39215089 .30799867 .31311036 .25299073 .25108338L.06098938 .036987306C.049987794 .025985718 .049987794 .023986817 .049987794 0H.42099L.44898988 .17404175H.42399598C.4189911 .14402771 .4119873 .1000061 .4019928 .084991458 .394989 .07699585 .32899476 .07699585 .30699159 .07699585H.1269989Z"/>
<path id="font_1_4" d="M.2899933 .35191346C.37199403 .37893678 .42999269 .4490509 .42999269 .52809146 .42999269 .6100464 .34199525 .6660156 .24598694 .6660156 .14498902 .6660156 .068984989 .60606387 .068984989 .53009036 .068984989 .49710084 .09098816 .47808839 .11999512 .47808839 .15098572 .47808839 .17098999 .50009158 .17098999 .5290985 .17098999 .57910159 .12399292 .57910159 .10899353 .57910159 .13999939 .62802127 .20599365 .64100649 .24198914 .64100649 .2829895 .64100649 .33799745 .6190338 .33799745 .5290985 .33799745 .51708987 .33599855 .45906068 .30999757 .4149933 .27999879 .36691285 .24598694 .36390687 .22099304 .36291505 .21299744 .36190797 .18899536 .35990907 .18199158 .35990907 .17399597 .35890199 .16699219 .35791017 .16699219 .3479004 .16699219 .33691407 .17399597 .33691407 .19099427 .33691407H.23498535C.31698609 .33691407 .35398866 .2686615 .35398866 .17037964 .35398866 .034469606 .2849884 .0055389406 .24099732 .0055389406 .19799805 .0055389406 .12298584 .022491456 .08799744 .08137512 .12298584 .07637024 .1539917 .09837341 .1539917 .1363678 .1539917 .17237854 .1269989 .19238281 .09799194 .19238281 .07398987 .19238281 .041992189 .17837525 .041992189 .1343689 .041992189 .043441774 .1349945-.022460938 .24398804-.022460938 .3659973-.022460938 .45700074 .06838989 .45700074 .17037964 .45700074 .252594 .3939972 .33088685 .2899933 .35191346Z"/>
<path id="font_1_5" d="M.2939911 .16503906V.07800293C.2939911 .041992189 .2919922 .0309906 .21798706 .0309906H.19699097V0C.23799134 .0029907227 .2899933 .0029907227 .33198548 .0029907227 .37399293 .0029907227 .4269867 .0029907227 .46798707 0V.0309906H.44699098C.37298585 .0309906 .37098695 .041992189 .37098695 .07800293V.16503906H.47099305V.19602967H.37098695V.65075686C.37098695 .67074587 .37098695 .6767578 .35499574 .6767578 .34599305 .6767578 .34298707 .6767578 .33499146 .66474917L.027999878 .19602967V.16503906H.2939911M.2999878 .19602967H.055999757L.2999878 .5688019V.19602967Z"/>
<path id="font_2_1" d="M.19198609 .052993776C.19198609 .08198547 .16799927 .10598755 .13899231 .10598755 .10998535 .10598755 .085998538 .08198547 .085998538 .052993776 .085998538 .023986817 .10998535 0 .13899231 0 .16799927 0 .19198609 .023986817 .19198609 .052993776Z"/>
<path id="font_3_1" d="M.44400025 .24998474C.44400025 .35688783 .35499574 .44381715 .25 .44381715 .14199829 .44381715 .054992677 .35488893 .054992677 .24998474 .054992677 .14407349 .14199829 .056137086 .25 .056137086 .35499574 .056137086 .44400025 .14308167 .44400025 .24998474Z"/>
</defs>
<use data-text="0" xlink:href="#font_1_1" transform="matrix(9.962899,0,0,-9.962799,22.294129,27.68924)"/>
<use data-text="1" xlink:href="#font_1_2" transform="matrix(9.962899,0,0,-9.962799,44.957826,27.68724)"/>
<use data-text="2" xlink:href="#font_1_3" transform="matrix(9.962899,0,0,-9.962799,67.63547,27.68724)"/>
<use data-text="3" xlink:href="#font_1_4" transform="matrix(9.962899,0,0,-9.962799,90.31418,27.68724)"/>
<use data-text="4" xlink:href="#font_1_5" transform="matrix(9.962899,0,0,-9.962799,112.99185,27.68724)"/>
<use data-text="." xlink:href="#font_2_1" transform="matrix(9.962899,0,0,-9.962799,134.01049,25.002186)"/>
<use data-text="." xlink:href="#font_2_1" transform="matrix(9.962899,0,0,-9.962799,136.77022,25.002186)"/>
<use data-text="." xlink:href="#font_2_1" transform="matrix(9.962899,0,0,-9.962799,139.52996,25.002186)"/>
<path transform="matrix(1.00003,0,0,-1.00002,308.27473,69.83508)" stroke-width=".3985" stroke-linecap="butt" stroke-miterlimit="10" stroke-linejoin="miter" fill="none" stroke="#000000" d="M-306.17353 22.67989V68.03732H-147.43973V22.67989ZM-147.43973 68.03732"/>
<use data-text="&#x2022;" xlink:href="#font_3_1" transform="matrix(9.962899,0,0,-9.962799,101.656528,117.407039)"/>
<use data-text="&#x2022;" xlink:href="#font_3_1" transform="matrix(9.962899,0,0,-9.962799,78.977848,140.08548)"/>
<use data-text="&#x2022;" xlink:href="#font_3_1" transform="matrix(9.962899,0,0,-9.962799,56.30014,117.407039)"/>
<use data-text="&#x2022;" xlink:href="#font_3_1" transform="matrix(9.962899,0,0,-9.962799,78.977848,94.72958)"/>
<path transform="matrix(1.00003,0,0,-1.00002,308.27473,69.83508)" stroke-width=".3985" stroke-linecap="butt" stroke-miterlimit="10" stroke-linejoin="miter" fill="none" stroke="#000000" d="M-192.78287-45.35742C-192.78287-26.57051-208.01226-11.34113-226.79917-11.34113-245.58608-11.34113-260.81547-26.57051-260.81547-45.35742-260.81547-64.14433-245.58608-79.37372-226.79917-79.37372-208.01226-79.37372-192.78287-64.14433-192.78287-45.35742ZM-226.79917-45.35742"/>
<path transform="matrix(1.00003,0,0,-1.00002,308.27473,69.83508)" stroke-width=".3985" stroke-linecap="butt" stroke-miterlimit="10" stroke-linejoin="miter" fill="none" stroke="#000000" d="M-277.48515 45.35907-269.9069 45.35979"/>
<path transform="matrix(1.00003,0,0,-1.00002,36.64148,24.474385)" d="M4.21463 0 .64343 1.34572 1.8178 0 .64343-1.34572Z"/>
<path transform="matrix(1.00003,0,0,-1.00002,36.64148,24.474385)" stroke-width=".3985" stroke-linecap="butt" stroke-miterlimit="10" stroke-linejoin="miter" fill="none" stroke="#000000" d="M4.21463 0 .64343 1.34572 1.8178 0 .64343-1.34572Z"/>
<path transform="matrix(1.00003,0,0,-1.00002,308.27473,69.83508)" stroke-width=".3985" stroke-linecap="butt" stroke-miterlimit="10" stroke-linejoin="miter" fill="none" stroke="#000000" d="M-254.82134 45.3608-247.22818 45.36034"/>
<path transform="matrix(1.00003,0,0,-1.00002,59.32086,24.473835)" d="M4.21463 0 .64343 1.34572 1.8178 0 .64343-1.34572Z"/>
<path transform="matrix(1.00003,0,0,-1.00002,59.32086,24.473835)" stroke-width=".3985" stroke-linecap="butt" stroke-miterlimit="10" stroke-linejoin="miter" fill="none" stroke="#000000" d="M4.21463 0 .64343 1.34572 1.8178 0 .64343-1.34572Z"/>
<path transform="matrix(1.00003,0,0,-1.00002,308.27473,69.83508)" stroke-width=".3985" stroke-linecap="butt" stroke-miterlimit="10" stroke-linejoin="miter" fill="none" stroke="#000000" d="M-232.14261 45.3608-224.54946 45.36034"/>
<path transform="matrix(1.00003,0,0,-1.00002,82.00029,24.473835)" d="M4.21463 0 .64343 1.34572 1.8178 0 .64343-1.34572Z"/>
<path transform="matrix(1.00003,0,0,-1.00002,82.00029,24.473835)" stroke-width=".3985" stroke-linecap="butt" stroke-miterlimit="10" stroke-linejoin="miter" fill="none" stroke="#000000" d="M4.21463 0 .64343 1.34572 1.8178 0 .64343-1.34572Z"/>
<path transform="matrix(1.00003,0,0,-1.00002,308.27473,69.83508)" stroke-width=".3985" stroke-linecap="butt" stroke-miterlimit="10" stroke-linejoin="miter" fill="none" stroke="#000000" d="M-209.46389 45.3608-201.87071 45.36034"/>
<path transform="matrix(1.00003,0,0,-1.00002,104.6797,24.473835)" d="M4.21463 0 .64343 1.34572 1.8178 0 .64343-1.34572Z"/>
<path transform="matrix(1.00003,0,0,-1.00002,104.6797,24.473835)" stroke-width=".3985" stroke-linecap="butt" stroke-miterlimit="10" stroke-linejoin="miter" fill="none" stroke="#000000" d="M4.21463 0 .64343 1.34572 1.8178 0 .64343-1.34572Z"/>
<path transform="matrix(1.00003,0,0,-1.00002,308.27473,69.83508)" stroke-width=".3985" stroke-linecap="butt" stroke-miterlimit="10" stroke-linejoin="miter" fill="none" stroke="#000000" d="M-186.78516 45.36098-180.85257 45.36049"/>
<path transform="matrix(1.00003,0,0,-1.00002,125.69849,24.473687)" d="M4.21463 0 .64343 1.34572 1.8178 0 .64343-1.34572Z"/>
<path transform="matrix(1.00003,0,0,-1.00002,125.69849,24.473687)" stroke-width=".3985" stroke-linecap="butt" stroke-miterlimit="10" stroke-linejoin="miter" fill="none" stroke="#000000" d="M4.21463 0 .64343 1.34572 1.8178 0 .64343-1.34572Z"/>
<path transform="matrix(1.00003,0,0,-1.00002,308.27473,69.83508)" stroke-width=".3985" stroke-linecap="butt" stroke-miterlimit="10" stroke-linejoin="miter" fill="none" stroke="#000000" d="M-209.86923-51.09386-218.91359-60.138"/>
<path transform="matrix(-.7071212,.7071042,.70711126,.70711418,90.56952,128.75937)" d="M4.21463 0 .64343 1.34572 1.8178 0 .64343-1.34572Z"/>
<path transform="matrix(-.7071212,.7071042,.70711126,.70711418,90.56952,128.75937)" stroke-width=".3985" stroke-linecap="butt" stroke-miterlimit="10" stroke-linejoin="miter" fill="none" stroke="#000000" d="M4.21463 0 .64343 1.34572 1.8178 0 .64343-1.34572Z"/>
<path transform="matrix(1.00003,0,0,-1.00002,308.27473,69.83508)" stroke-width=".3985" stroke-linecap="butt" stroke-miterlimit="10" stroke-linejoin="miter" fill="none" stroke="#000000" d="M-232.55207-62.30446-241.59477-53.26045"/>
<path transform="matrix(-.70707127,-.7071542,-.70716127,.7070642,67.88756,124.31163)" d="M4.21463 0 .64343 1.34572 1.8178 0 .64343-1.34572Z"/>
<path transform="matrix(-.70707127,-.7071542,-.70716127,.7070642,67.88756,124.31163)" stroke-width=".3985" stroke-linecap="butt" stroke-miterlimit="10" stroke-linejoin="miter" fill="none" stroke="#000000" d="M4.21463 0 .64343 1.34572 1.8178 0 .64343-1.34572Z"/>
<path transform="matrix(1.00003,0,0,-1.00002,308.27473,69.83508)" stroke-width=".3985" stroke-linecap="butt" stroke-miterlimit="10" stroke-linejoin="miter" fill="none" stroke="#000000" d="M-243.76093-39.62573-234.713-30.58118"/>
<path transform="matrix(.7072512,-.7069642,-.7069712,-.70724418,72.33951,101.63157)" d="M4.21463 0 .64343 1.34572 1.8178 0 .64343-1.34572Z"/>
<path transform="matrix(.7072512,-.7069642,-.7069712,-.70724418,72.33951,101.63157)" stroke-width=".3985" stroke-linecap="butt" stroke-miterlimit="10" stroke-linejoin="miter" fill="none" stroke="#000000" d="M4.21463 0 .64343 1.34572 1.8178 0 .64343-1.34572Z"/>
<path transform="matrix(1.00003,0,0,-1.00002,308.27473,69.83508)" stroke-width=".3985" stroke-linecap="butt" stroke-miterlimit="10" stroke-linejoin="miter" fill="none" stroke="#000000" d="M-221.08383-28.41513-212.03597-37.45969"/>
<path transform="matrix(.7072312,.7069642,.7069712,-.7072242,95.0172,106.08082)" d="M4.21463 0 .64343 1.34572 1.8178 0 .64343-1.34572Z"/>
<path transform="matrix(.7072312,.7069642,.7069712,-.7072242,95.0172,106.08082)" stroke-width=".3985" stroke-linecap="butt" stroke-miterlimit="10" stroke-linejoin="miter" fill="none" stroke="#000000" d="M4.21463 0 .64343 1.34572 1.8178 0 .64343-1.34572Z"/>
<path transform="matrix(1.00003,0,0,-1.00002,308.27473,69.83508)" stroke-width=".3985" stroke-linecap="butt" stroke-miterlimit="10" stroke-linejoin="miter" fill="none" stroke="#ff0000" d="M-277.61427 38.62703-206.13925-43.05179"/>
<path transform="matrix(.6585298,.7525351,.7525426,-.6585232,100.99782,111.59472)" d="M4.21463 0 .64343 1.34572 1.8178 0 .64343-1.34572Z" fill="#ff0000"/>
<path transform="matrix(.6585298,.7525351,.7525426,-.6585232,100.99782,111.59472)" stroke-width=".3985" stroke-linecap="butt" stroke-miterlimit="10" stroke-linejoin="miter" fill="none" stroke="#ff0000" d="M4.21463 0 .64343 1.34572 1.8178 0 .64343-1.34572Z"/>
<path transform="matrix(1.00003,0,0,-1.00002,308.27473,69.83508)" stroke-width=".3985" stroke-linecap="butt" stroke-miterlimit="10" stroke-linejoin="miter" fill="none" stroke="#ff0000" d="M-258.8158 38.62941-227.67995-65.10056"/>
<path transform="matrix(.28748865,.9577492,.9577588,-.28748576,80.09398,133.29135)" d="M4.21463 0 .64343 1.34572 1.8178 0 .64343-1.34572Z" fill="#ff0000"/>
<path transform="matrix(.28748865,.9577492,.9577588,-.28748576,80.09398,133.29135)" stroke-width=".3985" stroke-linecap="butt" stroke-miterlimit="10" stroke-linejoin="miter" fill="none" stroke="#ff0000" d="M4.21463 0 .64343 1.34572 1.8178 0 .64343-1.34572Z"/>
<path transform="matrix(1.00003,0,0,-1.00002,308.27473,69.83508)" stroke-width=".3985" stroke-linecap="butt" stroke-miterlimit="10" stroke-linejoin="miter" fill="none" stroke="#ff0000" d="M-238.9935 38.62941-249.09728-42.31718"/>
<path transform="matrix(-.123843718,.99229988,.9923098,.12384248,59.38275,110.448139)" d="M4.21463 0 .64343 1.34572 1.8178 0 .64343-1.34572Z" fill="#ff0000"/>
<path transform="matrix(-.123843718,.99229988,.9923098,.12384248,59.38275,110.448139)" stroke-width=".3985" stroke-linecap="butt" stroke-miterlimit="10" stroke-linejoin="miter" fill="none" stroke="#ff0000" d="M4.21463 0 .64343 1.34572 1.8178 0 .64343-1.34572Z"/>
<path transform="matrix(1.00003,0,0,-1.00002,308.27473,69.83508)" stroke-width=".3985" stroke-linecap="butt" stroke-miterlimit="10" stroke-linejoin="miter" fill="none" stroke="#ff0000" d="M-216.59523 38.62941-226.29627-19.65768"/>
<path transform="matrix(-.16414494,.9864097,.9864196,.1641433,82.25369,87.798328)" d="M4.21463 0 .64343 1.34572 1.8178 0 .64343-1.34572Z" fill="#ff0000"/>
<path transform="matrix(-.16414494,.9864097,.9864196,.1641433,82.25369,87.798328)" stroke-width=".3985" stroke-linecap="butt" stroke-miterlimit="10" stroke-linejoin="miter" fill="none" stroke="#ff0000" d="M4.21463 0 .64343 1.34572 1.8178 0 .64343-1.34572Z"/>
<path transform="matrix(1.00003,0,0,-1.00002,308.27473,69.83508)" stroke-width=".3985" stroke-linecap="butt" stroke-miterlimit="10" stroke-linejoin="miter" fill="none" stroke="#ff0000" d="M-193.63603 38.62941-203.74208-42.31723"/>
<path transform="matrix(-.12389372,.9922798,.9922898,.12389248,104.73938,110.44821)" d="M4.21463 0 .64343 1.34572 1.8178 0 .64343-1.34572Z" fill="#ff0000"/>
<path transform="matrix(-.12389372,.9922798,.9922898,.12389248,104.73938,110.44821)" stroke-width=".3985" stroke-linecap="butt" stroke-miterlimit="10" stroke-linejoin="miter" fill="none" stroke="#ff0000" d="M4.21463 0 .64343 1.34572 1.8178 0 .64343-1.34572Z"/>
<use data-text="0" xlink:href="#font_1_1" transform="matrix(9.962899,0,0,-9.962799,22.294129,254.48078)"/>
<use data-text="1" xlink:href="#font_1_2" transform="matrix(9.962899,0,0,-9.962799,44.957826,254.49076)"/>
<use data-text="2" xlink:href="#font_1_3" transform="matrix(9.962899,0,0,-9.962799,67.63547,254.49076)"/>
<use data-text="3" xlink:href="#font_1_4" transform="matrix(9.962899,0,0,-9.962799,90.31418,254.49076)"/>
<use data-text="4" xlink:href="#font_1_5" transform="matrix(9.962899,0,0,-9.962799,112.99185,254.49076)"/>
<use data-text="." xlink:href="#font_2_1" transform="matrix(9.962899,0,0,-9.962799,134.01049,251.80673)"/>
<use data-text="." xlink:href="#font_2_1" transform="matrix(9.962899,0,0,-9.962799,136.77022,251.80673)"/>
<use data-text="." xlink:href="#font_2_1" transform="matrix(9.962899,0,0,-9.962799,139.52996,251.80673)"/>
<path transform="matrix(1.00003,0,0,-1.00002,308.27473,69.83508)" stroke-width=".3985" stroke-linecap="butt" stroke-miterlimit="10" stroke-linejoin="miter" fill="none" stroke="#000000" d="M-306.17353-204.11927V-158.77375H-147.43973V-204.11927ZM-147.43973-158.77375"/>
<use data-text="&#x2022;" xlink:href="#font_3_1" transform="matrix(9.962899,0,0,-9.962799,101.656528,344.21159)"/>
<use data-text="&#x2022;" xlink:href="#font_3_1" transform="matrix(9.962899,0,0,-9.962799,78.977848,366.88905)"/>
<use data-text="&#x2022;" xlink:href="#font_3_1" transform="matrix(9.962899,0,0,-9.962799,56.30014,344.21159)"/>
<use data-text="&#x2022;" xlink:href="#font_3_1" transform="matrix(9.962899,0,0,-9.962799,78.977848,321.5331)"/>
<path transform="matrix(1.00003,0,0,-1.00002,308.27473,69.83508)" stroke-width=".3985" stroke-linecap="butt" stroke-miterlimit="10" stroke-linejoin="miter" fill="none" stroke="#000000" d="M-192.78287-272.15663C-192.78287-253.36972-208.01226-238.14034-226.79917-238.14034-245.58608-238.14034-260.81547-253.36972-260.81547-272.15663-260.81547-290.94355-245.58608-306.17295-226.79917-306.17295-208.01226-306.17295-192.78287-290.94355-192.78287-272.15663ZM-226.79917-272.15663"/>
<path transform="matrix(1.00003,0,0,-1.00002,308.27473,69.83508)" stroke-width=".3985" stroke-linecap="butt" stroke-miterlimit="10" stroke-linejoin="miter" fill="none" stroke="#000000" d="M-277.48515-181.44861-269.90687-181.45058"/>
<path transform="matrix(1.00001,.00023000462,.00023000692,-1,36.64154,251.28891)" d="M4.21463 0 .64343 1.34572 1.8178 0 .64343-1.34572Z"/>
<path transform="matrix(1.00001,.00023000462,.00023000692,-1,36.64154,251.28891)" stroke-width=".3985" stroke-linecap="butt" stroke-miterlimit="10" stroke-linejoin="miter" fill="none" stroke="#000000" d="M4.21463 0 .64343 1.34572 1.8178 0 .64343-1.34572Z"/>
<path transform="matrix(1.00003,0,0,-1.00002,308.27473,69.83508)" stroke-width=".3985" stroke-linecap="butt" stroke-miterlimit="10" stroke-linejoin="miter" fill="none" stroke="#000000" d="M-254.82134-181.45557-247.22812-181.45423"/>
<path transform="matrix(1.00001,-.0001700034,-.0001700051,-1,59.32094,251.29323)" d="M4.21463 0 .64343 1.34572 1.8178 0 .64343-1.34572Z"/>
<path transform="matrix(1.00001,-.0001700034,-.0001700051,-1,59.32094,251.29323)" stroke-width=".3985" stroke-linecap="butt" stroke-miterlimit="10" stroke-linejoin="miter" fill="none" stroke="#000000" d="M4.21463 0 .64343 1.34572 1.8178 0 .64343-1.34572Z"/>
<path transform="matrix(1.00003,0,0,-1.00002,308.27473,69.83508)" stroke-width=".3985" stroke-linecap="butt" stroke-miterlimit="10" stroke-linejoin="miter" fill="none" stroke="#000000" d="M-232.14261-181.45557-224.5494-181.45423"/>
<path transform="matrix(1.00001,-.0001700034,-.0001700051,-1,82.00037,251.29323)" d="M4.21463 0 .64343 1.34572 1.8178 0 .64343-1.34572Z"/>
<path transform="matrix(1.00001,-.0001700034,-.0001700051,-1,82.00037,251.29323)" stroke-width=".3985" stroke-linecap="butt" stroke-miterlimit="10" stroke-linejoin="miter" fill="none" stroke="#000000" d="M4.21463 0 .64343 1.34572 1.8178 0 .64343-1.34572Z"/>
<path transform="matrix(1.00003,0,0,-1.00002,308.27473,69.83508)" stroke-width=".3985" stroke-linecap="butt" stroke-miterlimit="10" stroke-linejoin="miter" fill="none" stroke="#000000" d="M-209.46389-181.45557-201.87065-181.45423"/>
<path transform="matrix(1.00001,-.0001700034,-.0001700051,-1,104.67978,251.29323)" d="M4.21463 0 .64343 1.34572 1.8178 0 .64343-1.34572Z"/>
<path transform="matrix(1.00001,-.0001700034,-.0001700051,-1,104.67978,251.29323)" stroke-width=".3985" stroke-linecap="butt" stroke-miterlimit="10" stroke-linejoin="miter" fill="none" stroke="#000000" d="M4.21463 0 .64343 1.34572 1.8178 0 .64343-1.34572Z"/>
<path transform="matrix(1.00003,0,0,-1.00002,308.27473,69.83508)" stroke-width=".3985" stroke-linecap="butt" stroke-miterlimit="10" stroke-linejoin="miter" fill="none" stroke="#000000" d="M-186.78516-181.4563-180.85251-181.455"/>
<path transform="matrix(1.00001,-.000200004,-.000200006,-1,125.69856,251.29407)" d="M4.21463 0 .64343 1.34572 1.8178 0 .64343-1.34572Z"/>
<path transform="matrix(1.00001,-.000200004,-.000200006,-1,125.69856,251.29407)" stroke-width=".3985" stroke-linecap="butt" stroke-miterlimit="10" stroke-linejoin="miter" fill="none" stroke="#000000" d="M4.21463 0 .64343 1.34572 1.8178 0 .64343-1.34572Z"/>
<path transform="matrix(1.00003,0,0,-1.00002,308.27473,69.83508)" stroke-width=".3985" stroke-linecap="butt" stroke-miterlimit="10" stroke-linejoin="miter" fill="none" stroke="#000000" d="M-209.86406-277.905-218.91127-286.9495"/>
<path transform="matrix(-.7072312,.7070042,.7070112,.7072242,90.57205,355.57557)" d="M4.21463 0 .64343 1.34572 1.8178 0 .64343-1.34572Z"/>
<path transform="matrix(-.7072312,.7070042,.7070112,.7072242,90.57205,355.57557)" stroke-width=".3985" stroke-linecap="butt" stroke-miterlimit="10" stroke-linejoin="miter" fill="none" stroke="#000000" d="M4.21463 0 .64343 1.34572 1.8178 0 .64343-1.34572Z"/>
<path transform="matrix(1.00003,0,0,-1.00002,308.27473,69.83508)" stroke-width=".3985" stroke-linecap="butt" stroke-miterlimit="10" stroke-linejoin="miter" fill="none" stroke="#000000" d="M-232.55573-289.11564-241.59699-280.07176"/>
<path transform="matrix(-.7070112,-.7071942,-.70720127,.7070042,67.88527,351.12757)" d="M4.21463 0 .64343 1.34572 1.8178 0 .64343-1.34572Z"/>
<path transform="matrix(-.7070112,-.7071942,-.70720127,.7070042,67.88527,351.12757)" stroke-width=".3985" stroke-linecap="butt" stroke-miterlimit="10" stroke-linejoin="miter" fill="none" stroke="#000000" d="M4.21463 0 .64343 1.34572 1.8178 0 .64343-1.34572Z"/>
<path transform="matrix(1.00003,0,0,-1.00002,308.27473,69.83508)" stroke-width=".3985" stroke-linecap="butt" stroke-miterlimit="10" stroke-linejoin="miter" fill="none" stroke="#000000" d="M-243.75576-266.4369-234.71065-257.39265"/>
<path transform="matrix(.7071412,-.70707419,-.7070812,-.7071342,72.34201,328.44779)" d="M4.21463 0 .64343 1.34572 1.8178 0 .64343-1.34572Z"/>
<path transform="matrix(.7071412,-.70707419,-.7070812,-.7071342,72.34201,328.44779)" stroke-width=".3985" stroke-linecap="butt" stroke-miterlimit="10" stroke-linejoin="miter" fill="none" stroke="#000000" d="M4.21463 0 .64343 1.34572 1.8178 0 .64343-1.34572Z"/>
<path transform="matrix(1.00003,0,0,-1.00002,308.27473,69.83508)" stroke-width=".3985" stroke-linecap="butt" stroke-miterlimit="10" stroke-linejoin="miter" fill="none" stroke="#000000" d="M-221.08754-255.22629-212.0381-264.27098"/>
<path transform="matrix(.7073012,.7069242,.70693126,-.70729419,95.014987,332.89674)" d="M4.21463 0 .64343 1.34572 1.8178 0 .64343-1.34572Z"/>
<path transform="matrix(.7073012,.7069242,.70693126,-.70729419,95.014987,332.89674)" stroke-width=".3985" stroke-linecap="butt" stroke-miterlimit="10" stroke-linejoin="miter" fill="none" stroke="#000000" d="M4.21463 0 .64343 1.34572 1.8178 0 .64343-1.34572Z"/>
<path transform="matrix(1.00003,0,0,-1.00002,308.27473,69.83508)" stroke-width=".3985" stroke-linecap="butt" stroke-miterlimit="10" stroke-linejoin="miter" fill="none" stroke="#ff0000" d="M-280.97578-188.17212-250.55254-269.28804"/>
<path transform="matrix(.35115055,.93627879,.9362881,-.35114704,57.111345,337.5198)" d="M4.21463 0 .64343 1.34572 1.8178 0 .64343-1.34572Z" fill="#ff0000"/>
<path transform="matrix(.35115055,.93627879,.9362881,-.35114704,57.111345,337.5198)" stroke-width=".3985" stroke-linecap="butt" stroke-miterlimit="10" stroke-linejoin="miter" fill="none" stroke="#ff0000" d="M4.21463 0 .64343 1.34572 1.8178 0 .64343-1.34572Z"/>
<path transform="matrix(1.00003,0,0,-1.00002,308.27473,69.83508)" stroke-width=".3985" stroke-linecap="butt" stroke-miterlimit="10" stroke-linejoin="miter" fill="none" stroke="#ff0000" d="M-257.46925-188.18167-228.17005-246.73918"/>
<path transform="matrix(.44744347,.8942779,.8942869,-.447439,79.32901,315.04267)" d="M4.21463 0 .64343 1.34572 1.8178 0 .64343-1.34572Z" fill="#ff0000"/>
<path transform="matrix(.44744347,.8942779,.8942869,-.447439,79.32901,315.04267)" stroke-width=".3985" stroke-linecap="butt" stroke-miterlimit="10" stroke-linejoin="miter" fill="none" stroke="#ff0000" d="M4.21463 0 .64343 1.34572 1.8178 0 .64343-1.34572Z"/>
<path transform="matrix(1.00003,0,0,-1.00002,308.27473,69.83508)" stroke-width=".3985" stroke-linecap="butt" stroke-miterlimit="10" stroke-linejoin="miter" fill="none" stroke="#ff0000" d="M-235.63211-188.18167-205.19795-269.28816"/>
<path transform="matrix(.35130055,.93623879,.9362481,-.35129703,102.467029,337.52)" d="M4.21463 0 .64343 1.34572 1.8178 0 .64343-1.34572Z" fill="#ff0000"/>
<path transform="matrix(.35130055,.93623879,.9362481,-.35129703,102.467029,337.52)" stroke-width=".3985" stroke-linecap="butt" stroke-miterlimit="10" stroke-linejoin="miter" fill="none" stroke="#ff0000" d="M4.21463 0 .64343 1.34572 1.8178 0 .64343-1.34572Z"/>
<path transform="matrix(1.00003,0,0,-1.00002,308.27473,69.83508)" stroke-width=".3985" stroke-linecap="butt" stroke-miterlimit="10" stroke-linejoin="miter" fill="none" stroke="#ff0000" d="M-216.14656-188.18167-226.49472-291.7856"/>
<path transform="matrix(-.09937299,.9950199,.99502989,.09937199,81.943927,359.91688)" d="M4.21463 0 .64343 1.34572 1.8178 0 .64343-1.34572Z" fill="#ff0000"/>
<path transform="matrix(-.09937299,.9950199,.99502989,.09937199,81.943927,359.91688)" stroke-width=".3985" stroke-linecap="butt" stroke-miterlimit="10" stroke-linejoin="miter" fill="none" stroke="#ff0000" d="M4.21463 0 .64343 1.34572 1.8178 0 .64343-1.34572Z"/>
<path transform="matrix(1.00003,0,0,-1.00002,308.27473,69.83508)" stroke-width=".3985" stroke-linecap="butt" stroke-miterlimit="10" stroke-linejoin="miter" fill="none" stroke="#ff0000" d="M-196.99764-188.18167-247.85297-269.5584"/>
<path transform="matrix(-.52996596,.848017,.84802547,.52996066,61.32489,337.94184)" d="M4.21463 0 .64343 1.34572 1.8178 0 .64343-1.34572Z" fill="#ff0000"/>
<path transform="matrix(-.52996596,.848017,.84802547,.52996066,61.32489,337.94184)" stroke-width=".3985" stroke-linecap="butt" stroke-miterlimit="10" stroke-linejoin="miter" fill="none" stroke="#ff0000" d="M4.21463 0 .64343 1.34572 1.8178 0 .64343-1.34572Z"/>
<use data-text="0" xlink:href="#font_1_1" transform="matrix(9.962899,0,0,-9.962799,249.08794,27.68924)"/>
<use data-text="1" xlink:href="#font_1_2" transform="matrix(9.962899,0,0,-9.962799,271.7636,27.68724)"/>
<use data-text="2" xlink:href="#font_1_3" transform="matrix(9.962899,0,0,-9.962799,294.44233,27.68724)"/>
<use data-text="3" xlink:href="#font_1_4" transform="matrix(9.962899,0,0,-9.962799,317.12,27.68724)"/>
<use data-text="4" xlink:href="#font_1_5" transform="matrix(9.962899,0,0,-9.962799,339.79869,27.68724)"/>
<use data-text="." xlink:href="#font_2_1" transform="matrix(9.962899,0,0,-9.962799,360.81629,25.002186)"/>
<use data-text="." xlink:href="#font_2_1" transform="matrix(9.962899,0,0,-9.962799,363.57606,25.002186)"/>
<use data-text="." xlink:href="#font_2_1" transform="matrix(9.962899,0,0,-9.962799,366.33576,25.002186)"/>
<path transform="matrix(1.00003,0,0,-1.00002,308.27473,69.83508)" stroke-width=".3985" stroke-linecap="butt" stroke-miterlimit="10" stroke-linejoin="miter" fill="none" stroke="#000000" d="M-79.37431 22.67989V68.03732H79.37137V22.67989ZM79.37137 68.03732"/>
<use data-text="&#x2022;" xlink:href="#font_3_1" transform="matrix(9.962899,0,0,-9.962799,328.46235,117.407039)"/>
<use data-text="&#x2022;" xlink:href="#font_3_1" transform="matrix(9.962899,0,0,-9.962799,305.78364,140.08548)"/>
<use data-text="&#x2022;" xlink:href="#font_3_1" transform="matrix(9.962899,0,0,-9.962799,283.10597,117.407039)"/>
<use data-text="&#x2022;" xlink:href="#font_3_1" transform="matrix(9.962899,0,0,-9.962799,305.78364,94.72958)"/>
<path transform="matrix(1.00003,0,0,-1.00002,308.27473,69.83508)" stroke-width=".3985" stroke-linecap="butt" stroke-miterlimit="10" stroke-linejoin="miter" fill="none" stroke="#000000" d="M34.0163-45.35742C34.0163-26.57051 18.7869-11.34113 0-11.34113-18.7869-11.34113-34.0163-26.57051-34.0163-45.35742-34.0163-64.14433-18.7869-79.37372 0-79.37372 18.7869-79.37372 34.0163-64.14433 34.0163-45.35742ZM0-45.35742"/>
<path transform="matrix(1.00003,0,0,-1.00002,308.27473,69.83508)" stroke-width=".3985" stroke-linecap="butt" stroke-miterlimit="10" stroke-linejoin="miter" fill="none" stroke="#000000" d="M-50.68594 45.35907-43.09578 45.35979"/>
<path transform="matrix(1.00003,0,0,-1.00002,263.4594,24.474385)" d="M4.21463 0 .64343 1.34572 1.8178 0 .64343-1.34572Z"/>
<path transform="matrix(1.00003,0,0,-1.00002,263.4594,24.474385)" stroke-width=".3985" stroke-linecap="butt" stroke-miterlimit="10" stroke-linejoin="miter" fill="none" stroke="#000000" d="M4.21463 0 .64343 1.34572 1.8178 0 .64343-1.34572Z"/>
<path transform="matrix(1.00003,0,0,-1.00002,308.27473,69.83508)" stroke-width=".3985" stroke-linecap="butt" stroke-miterlimit="10" stroke-linejoin="miter" fill="none" stroke="#000000" d="M-28.0102 45.3608-20.41704 45.36034"/>
<path transform="matrix(1.00003,0,0,-1.00002,286.13883,24.473835)" d="M4.21463 0 .64343 1.34572 1.8178 0 .64343-1.34572Z"/>
<path transform="matrix(1.00003,0,0,-1.00002,286.13883,24.473835)" stroke-width=".3985" stroke-linecap="butt" stroke-miterlimit="10" stroke-linejoin="miter" fill="none" stroke="#000000" d="M4.21463 0 .64343 1.34572 1.8178 0 .64343-1.34572Z"/>
<path transform="matrix(1.00003,0,0,-1.00002,308.27473,69.83508)" stroke-width=".3985" stroke-linecap="butt" stroke-miterlimit="10" stroke-linejoin="miter" fill="none" stroke="#000000" d="M-5.33148 45.3608 2.26163 45.36034"/>
<path transform="matrix(1.00003,0,0,-1.00002,308.81819,24.473835)" d="M4.21463 0 .64343 1.34572 1.8178 0 .64343-1.34572Z"/>
<path transform="matrix(1.00003,0,0,-1.00002,308.81819,24.473835)" stroke-width=".3985" stroke-linecap="butt" stroke-miterlimit="10" stroke-linejoin="miter" fill="none" stroke="#000000" d="M4.21463 0 .64343 1.34572 1.8178 0 .64343-1.34572Z"/>
<path transform="matrix(1.00003,0,0,-1.00002,308.27473,69.83508)" stroke-width=".3985" stroke-linecap="butt" stroke-miterlimit="10" stroke-linejoin="miter" fill="none" stroke="#000000" d="M17.3472 45.3608 24.94035 45.36034"/>
<path transform="matrix(1.00003,0,0,-1.00002,331.4976,24.473835)" d="M4.21463 0 .64343 1.34572 1.8178 0 .64343-1.34572Z"/>
<path transform="matrix(1.00003,0,0,-1.00002,331.4976,24.473835)" stroke-width=".3985" stroke-linecap="butt" stroke-miterlimit="10" stroke-linejoin="miter" fill="none" stroke="#000000" d="M4.21463 0 .64343 1.34572 1.8178 0 .64343-1.34572Z"/>
<path transform="matrix(1.00003,0,0,-1.00002,308.27473,69.83508)" stroke-width=".3985" stroke-linecap="butt" stroke-miterlimit="10" stroke-linejoin="miter" fill="none" stroke="#000000" d="M40.02592 45.36098 45.95854 45.36049"/>
<path transform="matrix(1.00003,0,0,-1.00002,352.51643,24.473687)" d="M4.21463 0 .64343 1.34572 1.8178 0 .64343-1.34572Z"/>
<path transform="matrix(1.00003,0,0,-1.00002,352.51643,24.473687)" stroke-width=".3985" stroke-linecap="butt" stroke-miterlimit="10" stroke-linejoin="miter" fill="none" stroke="#000000" d="M4.21463 0 .64343 1.34572 1.8178 0 .64343-1.34572Z"/>
<path transform="matrix(1.00003,0,0,-1.00002,308.27473,69.83508)" stroke-width=".3985" stroke-linecap="butt" stroke-miterlimit="10" stroke-linejoin="miter" fill="none" stroke="#000000" d="M16.94691-51.09386 7.90065-60.13824"/>
<path transform="matrix(-.7071912,.7070342,.7070412,.7071842,317.3907,128.7597)" d="M4.21463 0 .64343 1.34572 1.8178 0 .64343-1.34572Z"/>
<path transform="matrix(-.7071912,.7070342,.7070412,.7071842,317.3907,128.7597)" stroke-width=".3985" stroke-linecap="butt" stroke-miterlimit="10" stroke-linejoin="miter" fill="none" stroke="#000000" d="M4.21463 0 .64343 1.34572 1.8178 0 .64343-1.34572Z"/>
<path transform="matrix(1.00003,0,0,-1.00002,308.27473,69.83508)" stroke-width=".3985" stroke-linecap="butt" stroke-miterlimit="10" stroke-linejoin="miter" fill="none" stroke="#000000" d="M-5.73587-62.30446-14.7805-53.26027"/>
<path transform="matrix(-.7071212,-.7070942,-.7071012,.70711418,294.70878,124.31133)" d="M4.21463 0 .64343 1.34572 1.8178 0 .64343-1.34572Z"/>
<path transform="matrix(-.7071212,-.7070942,-.7071012,.70711418,294.70878,124.31133)" stroke-width=".3985" stroke-linecap="butt" stroke-miterlimit="10" stroke-linejoin="miter" fill="none" stroke="#000000" d="M4.21463 0 .64343 1.34572 1.8178 0 .64343-1.34572Z"/>
<path transform="matrix(1.00003,0,0,-1.00002,308.27473,69.83508)" stroke-width=".3985" stroke-linecap="butt" stroke-miterlimit="10" stroke-linejoin="miter" fill="none" stroke="#000000" d="M-16.94482-39.62573-7.89871-30.58136"/>
<path transform="matrix(.7071912,-.7070342,-.7070412,-.7071842,299.1607,101.63186)" d="M4.21463 0 .64343 1.34572 1.8178 0 .64343-1.34572Z"/>
<path transform="matrix(.7071912,-.7070342,-.7070412,-.7071842,299.1607,101.63186)" stroke-width=".3985" stroke-linecap="butt" stroke-miterlimit="10" stroke-linejoin="miter" fill="none" stroke="#000000" d="M4.21463 0 .64343 1.34572 1.8178 0 .64343-1.34572Z"/>
<path transform="matrix(1.00003,0,0,-1.00002,308.27473,69.83508)" stroke-width=".3985" stroke-linecap="butt" stroke-miterlimit="10" stroke-linejoin="miter" fill="none" stroke="#000000" d="M5.73228-28.41513 14.7783-37.45944"/>
<path transform="matrix(.7071912,.7070442,.7070512,-.7071842,321.83839,106.080448)" d="M4.21463 0 .64343 1.34572 1.8178 0 .64343-1.34572Z"/>
<path transform="matrix(.7071912,.7070442,.7070512,-.7071842,321.83839,106.080448)" stroke-width=".3985" stroke-linecap="butt" stroke-miterlimit="10" stroke-linejoin="miter" fill="none" stroke="#000000" d="M4.21463 0 .64343 1.34572 1.8178 0 .64343-1.34572Z"/>
<path transform="matrix(1.00003,0,0,-1.00002,308.27473,69.83508)" stroke-width=".3985" stroke-linecap="butt" stroke-miterlimit="10" stroke-linejoin="miter" fill="none" stroke="#ff0000" d="M-53.33653 38.62703-1.37018-65.29471"/>
<path transform="matrix(.44721345,.89437797,.8943869,-.44720898,306.13609,133.59439)" d="M4.21463 0 .64343 1.34572 1.8178 0 .64343-1.34572Z" fill="#ff0000"/>
<path transform="matrix(.44721345,.89437797,.8943869,-.44720898,306.13609,133.59439)" stroke-width=".3985" stroke-linecap="butt" stroke-miterlimit="10" stroke-linejoin="miter" fill="none" stroke="#ff0000" d="M4.21463 0 .64343 1.34572 1.8178 0 .64343-1.34572Z"/>
<path transform="matrix(1.00003,0,0,-1.00002,308.27473,69.83508)" stroke-width=".3985" stroke-linecap="butt" stroke-miterlimit="10" stroke-linejoin="miter" fill="none" stroke="#ff0000" d="M-33.18045 38.62941-23.05768-42.31726"/>
<path transform="matrix(.12408373,.9922699,.9922798,-.12408249,285.00315,110.448299)" d="M4.21463 0 .64343 1.34572 1.8178 0 .64343-1.34572Z" fill="#ff0000"/>
<path transform="matrix(.12408373,.9922699,.9922798,-.12408249,285.00315,110.448299)" stroke-width=".3985" stroke-linecap="butt" stroke-miterlimit="10" stroke-linejoin="miter" fill="none" stroke="#ff0000" d="M4.21463 0 .64343 1.34572 1.8178 0 .64343-1.34572Z"/>
<path transform="matrix(1.00003,0,0,-1.00002,308.27473,69.83508)" stroke-width=".3985" stroke-linecap="butt" stroke-miterlimit="10" stroke-linejoin="miter" fill="none" stroke="#ff0000" d="M-10.22115 38.62941-.50374-19.65782"/>
<path transform="matrix(.16441493,.9863597,.9863696,-.16441329,307.48847,87.79854)" d="M4.21463 0 .64343 1.34572 1.8178 0 .64343-1.34572Z" fill="#ff0000"/>
<path transform="matrix(.16441493,.9863597,.9863696,-.16441329,307.48847,87.79854)" stroke-width=".3985" stroke-linecap="butt" stroke-miterlimit="10" stroke-linejoin="miter" fill="none" stroke="#ff0000" d="M4.21463 0 .64343 1.34572 1.8178 0 .64343-1.34572Z"/>
<path transform="matrix(1.00003,0,0,-1.00002,308.27473,69.83508)" stroke-width=".3985" stroke-linecap="butt" stroke-miterlimit="10" stroke-linejoin="miter" fill="none" stroke="#ff0000" d="M12.17694 38.62941 22.29744-42.31726"/>
<path transform="matrix(.124053727,.9922699,.9922798,-.12405248,330.35969,110.448299)" d="M4.21463 0 .64343 1.34572 1.8178 0 .64343-1.34572Z" fill="#ff0000"/>
<path transform="matrix(.124053727,.9922699,.9922798,-.12405248,330.35969,110.448299)" stroke-width=".3985" stroke-linecap="butt" stroke-miterlimit="10" stroke-linejoin="miter" fill="none" stroke="#ff0000" d="M4.21463 0 .64343 1.34572 1.8178 0 .64343-1.34572Z"/>
<path transform="matrix(1.00003,0,0,-1.00002,308.27473,69.83508)" stroke-width=".3985" stroke-linecap="butt" stroke-miterlimit="10" stroke-linejoin="miter" fill="none" stroke="#ff0000" d="M31.99916 38.62941 .88037-65.10042"/>
<path transform="matrix(-.28734864,.9577992,.9578088,.28734575,309.64884,133.29113)" d="M4.21463 0 .64343 1.34572 1.8178 0 .64343-1.34572Z" fill="#ff0000"/>
<path transform="matrix(-.28734864,.9577992,.9578088,.28734575,309.64884,133.29113)" stroke-width=".3985" stroke-linecap="butt" stroke-miterlimit="10" stroke-linejoin="miter" fill="none" stroke="#ff0000" d="M4.21463 0 .64343 1.34572 1.8178 0 .64343-1.34572Z"/>
<use data-text="0" xlink:href="#font_1_1" transform="matrix(9.962899,0,0,-9.962799,249.08794,254.48078)"/>
<use data-text="1" xlink:href="#font_1_2" transform="matrix(9.962899,0,0,-9.962799,271.7636,254.49076)"/>
<use data-text="2" xlink:href="#font_1_3" transform="matrix(9.962899,0,0,-9.962799,294.44233,254.49076)"/>
<use data-text="3" xlink:href="#font_1_4" transform="matrix(9.962899,0,0,-9.962799,317.12,254.49076)"/>
<use data-text="4" xlink:href="#font_1_5" transform="matrix(9.962899,0,0,-9.962799,339.79869,254.49076)"/>
<use data-text="." xlink:href="#font_2_1" transform="matrix(9.962899,0,0,-9.962799,360.81629,251.80673)"/>
<use data-text="." xlink:href="#font_2_1" transform="matrix(9.962899,0,0,-9.962799,363.57606,251.80673)"/>
<use data-text="." xlink:href="#font_2_1" transform="matrix(9.962899,0,0,-9.962799,366.33576,251.80673)"/>
<path transform="matrix(1.00003,0,0,-1.00002,308.27473,69.83508)" stroke-width=".3985" stroke-linecap="butt" stroke-miterlimit="10" stroke-linejoin="miter" fill="none" stroke="#000000" d="M-79.37431-204.11927V-158.77375H79.37137V-204.11927ZM79.37137-158.77375"/>
<use data-text="&#x2022;" xlink:href="#font_3_1" transform="matrix(9.962899,0,0,-9.962799,328.46235,344.21159)"/>
<use data-text="&#x2022;" xlink:href="#font_3_1" transform="matrix(9.962899,0,0,-9.962799,305.78364,366.88905)"/>
<use data-text="&#x2022;" xlink:href="#font_3_1" transform="matrix(9.962899,0,0,-9.962799,283.10597,344.21159)"/>
<use data-text="&#x2022;" xlink:href="#font_3_1" transform="matrix(9.962899,0,0,-9.962799,305.78364,321.5331)"/>
<path transform="matrix(1.00003,0,0,-1.00002,308.27473,69.83508)" stroke-width=".3985" stroke-linecap="butt" stroke-miterlimit="10" stroke-linejoin="miter" fill="none" stroke="#000000" d="M34.0163-272.15663C34.0163-253.36972 18.7869-238.14034 0-238.14034-18.7869-238.14034-34.0163-253.36972-34.0163-272.15663-34.0163-290.94355-18.7869-306.17295 0-306.17295 18.7869-306.17295 34.0163-290.94355 34.0163-272.15663ZM0-272.15663"/>
<path transform="matrix(1.00003,0,0,-1.00002,308.27473,69.83508)" stroke-width=".3985" stroke-linecap="butt" stroke-miterlimit="10" stroke-linejoin="miter" fill="none" stroke="#000000" d="M-50.68594-181.44861-43.09572-181.45058"/>
<path transform="matrix(1.00001,.00023000462,.00023000692,-1,263.45948,251.28891)" d="M4.21463 0 .64343 1.34572 1.8178 0 .64343-1.34572Z"/>
<path transform="matrix(1.00001,.00023000462,.00023000692,-1,263.45948,251.28891)" stroke-width=".3985" stroke-linecap="butt" stroke-miterlimit="10" stroke-linejoin="miter" fill="none" stroke="#000000" d="M4.21463 0 .64343 1.34572 1.8178 0 .64343-1.34572Z"/>
<path transform="matrix(1.00003,0,0,-1.00002,308.27473,69.83508)" stroke-width=".3985" stroke-linecap="butt" stroke-miterlimit="10" stroke-linejoin="miter" fill="none" stroke="#000000" d="M-28.0102-181.45557-20.41698-181.45423"/>
<path transform="matrix(1.00001,-.0001700034,-.0001700051,-1,286.13893,251.29323)" d="M4.21463 0 .64343 1.34572 1.8178 0 .64343-1.34572Z"/>
<path transform="matrix(1.00001,-.0001700034,-.0001700051,-1,286.13893,251.29323)" stroke-width=".3985" stroke-linecap="butt" stroke-miterlimit="10" stroke-linejoin="miter" fill="none" stroke="#000000" d="M4.21463 0 .64343 1.34572 1.8178 0 .64343-1.34572Z"/>
<path transform="matrix(1.00003,0,0,-1.00002,308.27473,69.83508)" stroke-width=".3985" stroke-linecap="butt" stroke-miterlimit="10" stroke-linejoin="miter" fill="none" stroke="#000000" d="M-5.33148-181.45557 2.26169-181.45423"/>
<path transform="matrix(1.00001,-.0001700034,-.0001700051,-1,308.81825,251.29323)" d="M4.21463 0 .64343 1.34572 1.8178 0 .64343-1.34572Z"/>
<path transform="matrix(1.00001,-.0001700034,-.0001700051,-1,308.81825,251.29323)" stroke-width=".3985" stroke-linecap="butt" stroke-miterlimit="10" stroke-linejoin="miter" fill="none" stroke="#000000" d="M4.21463 0 .64343 1.34572 1.8178 0 .64343-1.34572Z"/>
<path transform="matrix(1.00003,0,0,-1.00002,308.27473,69.83508)" stroke-width=".3985" stroke-linecap="butt" stroke-miterlimit="10" stroke-linejoin="miter" fill="none" stroke="#000000" d="M17.3472-181.45557 24.94041-181.45423"/>
<path transform="matrix(1.00001,-.0001700034,-.0001700051,-1,331.49766,251.29323)" d="M4.21463 0 .64343 1.34572 1.8178 0 .64343-1.34572Z"/>
<path transform="matrix(1.00001,-.0001700034,-.0001700051,-1,331.49766,251.29323)" stroke-width=".3985" stroke-linecap="butt" stroke-miterlimit="10" stroke-linejoin="miter" fill="none" stroke="#000000" d="M4.21463 0 .64343 1.34572 1.8178 0 .64343-1.34572Z"/>
<path transform="matrix(1.00003,0,0,-1.00002,308.27473,69.83508)" stroke-width=".3985" stroke-linecap="butt" stroke-miterlimit="10" stroke-linejoin="miter" fill="none" stroke="#000000" d="M40.02592-181.4563 45.9586-181.455"/>
<path transform="matrix(1.00001,-.000200004,-.000200006,-1,352.51649,251.29407)" d="M4.21463 0 .64343 1.34572 1.8178 0 .64343-1.34572Z"/>
<path transform="matrix(1.00001,-.000200004,-.000200006,-1,352.51649,251.29407)" stroke-width=".3985" stroke-linecap="butt" stroke-miterlimit="10" stroke-linejoin="miter" fill="none" stroke="#000000" d="M4.21463 0 .64343 1.34572 1.8178 0 .64343-1.34572Z"/>
<path transform="matrix(1.00003,0,0,-1.00002,308.27473,69.83508)" stroke-width=".3985" stroke-linecap="butt" stroke-miterlimit="10" stroke-linejoin="miter" fill="none" stroke="#000000" d="M16.95209-277.905 7.90298-286.9497"/>
<path transform="matrix(-.7073012,.7069242,.70693126,.70729419,317.3932,355.57594)" d="M4.21463 0 .64343 1.34572 1.8178 0 .64343-1.34572Z"/>
<path transform="matrix(-.7073012,.7069242,.70693126,.70729419,317.3932,355.57594)" stroke-width=".3985" stroke-linecap="butt" stroke-miterlimit="10" stroke-linejoin="miter" fill="none" stroke="#000000" d="M4.21463 0 .64343 1.34572 1.8178 0 .64343-1.34572Z"/>
<path transform="matrix(1.00003,0,0,-1.00002,308.27473,69.83508)" stroke-width=".3985" stroke-linecap="butt" stroke-miterlimit="10" stroke-linejoin="miter" fill="none" stroke="#000000" d="M-5.73955-289.11564-14.78256-280.07164"/>
<path transform="matrix(-.7070812,-.7071542,-.70716127,.70707419,294.7066,351.12733)" d="M4.21463 0 .64343 1.34572 1.8178 0 .64343-1.34572Z"/>
<path transform="matrix(-.7070812,-.7071542,-.70716127,.70707419,294.7066,351.12733)" stroke-width=".3985" stroke-linecap="butt" stroke-miterlimit="10" stroke-linejoin="miter" fill="none" stroke="#000000" d="M4.21463 0 .64343 1.34572 1.8178 0 .64343-1.34572Z"/>
<path transform="matrix(1.00003,0,0,-1.00002,308.27473,69.83508)" stroke-width=".3985" stroke-linecap="butt" stroke-miterlimit="10" stroke-linejoin="miter" fill="none" stroke="#000000" d="M-16.93965-266.4369-7.8964-257.39286"/>
<path transform="matrix(.7070812,-.7071342,-.7071412,-.70707419,299.1632,328.44807)" d="M4.21463 0 .64343 1.34572 1.8178 0 .64343-1.34572Z"/>
<path transform="matrix(.7070812,-.7071342,-.7071412,-.70707419,299.1632,328.44807)" stroke-width=".3985" stroke-linecap="butt" stroke-miterlimit="10" stroke-linejoin="miter" fill="none" stroke="#000000" d="M4.21463 0 .64343 1.34572 1.8178 0 .64343-1.34572Z"/>
<path transform="matrix(1.00003,0,0,-1.00002,308.27473,69.83508)" stroke-width=".3985" stroke-linecap="butt" stroke-miterlimit="10" stroke-linejoin="miter" fill="none" stroke="#000000" d="M5.7286-255.22629 14.77615-264.2708"/>
<path transform="matrix(.7072312,.70698419,.7069912,-.7072242,321.83613,332.89646)" d="M4.21463 0 .64343 1.34572 1.8178 0 .64343-1.34572Z"/>
<path transform="matrix(.7072312,.70698419,.7069912,-.7072242,321.83613,332.89646)" stroke-width=".3985" stroke-linecap="butt" stroke-miterlimit="10" stroke-linejoin="miter" fill="none" stroke="#000000" d="M4.21463 0 .64343 1.34572 1.8178 0 .64343-1.34572Z"/>
<path transform="matrix(1.00003,0,0,-1.00002,308.27473,69.83508)" stroke-width=".3985" stroke-linecap="butt" stroke-miterlimit="10" stroke-linejoin="miter" fill="none" stroke="#ff0000" d="M-51.09236-188.17212-1.96144-247.12549"/>
<path transform="matrix(.64019927,.7681854,.76819309,-.6401928,305.21324,315.64564)" d="M4.21463 0 .64343 1.34572 1.8178 0 .64343-1.34572Z" fill="#ff0000"/>
<path transform="matrix(.64019927,.7681854,.76819309,-.6401928,305.21324,315.64564)" stroke-width=".3985" stroke-linecap="butt" stroke-miterlimit="10" stroke-linejoin="miter" fill="none" stroke="#ff0000" d="M4.21463 0 .64343 1.34572 1.8178 0 .64343-1.34572Z"/>
<path transform="matrix(1.00003,0,0,-1.00002,308.27473,69.83508)" stroke-width=".3985" stroke-linecap="butt" stroke-miterlimit="10" stroke-linejoin="miter" fill="none" stroke="#ff0000" d="M-29.81894-188.18167 21.0534-269.55867"/>
<path transform="matrix(.53009596,.847947,.84795549,-.53009065,328.41798,337.9422)" d="M4.21463 0 .64343 1.34572 1.8178 0 .64343-1.34572Z" fill="#ff0000"/>
<path transform="matrix(.53009596,.847947,.84795549,-.53009065,328.41798,337.9422)" stroke-width=".3985" stroke-linecap="butt" stroke-miterlimit="10" stroke-linejoin="miter" fill="none" stroke="#ff0000" d="M4.21463 0 .64343 1.34572 1.8178 0 .64343-1.34572Z"/>
<path transform="matrix(1.00003,0,0,-1.00002,308.27473,69.83508)" stroke-width=".3985" stroke-linecap="butt" stroke-miterlimit="10" stroke-linejoin="miter" fill="none" stroke="#ff0000" d="M-10.67015-188.18167-.30495-291.78565"/>
<path transform="matrix(.099532987,.9949999,.99500986,-.09953199,307.79875,359.91697)" d="M4.21463 0 .64343 1.34572 1.8178 0 .64343-1.34572Z" fill="#ff0000"/>
<path transform="matrix(.099532987,.9949999,.99500986,-.09953199,307.79875,359.91697)" stroke-width=".3985" stroke-linecap="butt" stroke-miterlimit="10" stroke-linejoin="miter" fill="none" stroke="#ff0000" d="M4.21463 0 .64343 1.34572 1.8178 0 .64343-1.34572Z"/>
<path transform="matrix(1.00003,0,0,-1.00002,308.27473,69.83508)" stroke-width=".3985" stroke-linecap="butt" stroke-miterlimit="10" stroke-linejoin="miter" fill="none" stroke="#ff0000" d="M8.81557-188.18167-21.60172-269.28797"/>
<path transform="matrix(-.35113056,.9362988,.93630817,.35112704,287.27568,337.5197)" d="M4.21463 0 .64343 1.34572 1.8178 0 .64343-1.34572Z" fill="#ff0000"/>
<path transform="matrix(-.35113056,.9362988,.93630817,.35112704,287.27568,337.5197)" stroke-width=".3985" stroke-linecap="butt" stroke-miterlimit="10" stroke-linejoin="miter" fill="none" stroke="#ff0000" d="M4.21463 0 .64343 1.34572 1.8178 0 .64343-1.34572Z"/>
<path transform="matrix(1.00003,0,0,-1.00002,308.27473,69.83508)" stroke-width=".3985" stroke-linecap="butt" stroke-miterlimit="10" stroke-linejoin="miter" fill="none" stroke="#ff0000" d="M30.6528-188.18167 1.37022-246.73885"/>
<path transform="matrix(-.44723345,.89437797,.8943869,.44722898,310.41343,315.04219)" d="M4.21463 0 .64343 1.34572 1.8178 0 .64343-1.34572Z" fill="#ff0000"/>
<path transform="matrix(-.44723345,.89437797,.8943869,.44722898,310.41343,315.04219)" stroke-width=".3985" stroke-linecap="butt" stroke-miterlimit="10" stroke-linejoin="miter" fill="none" stroke="#ff0000" d="M4.21463 0 .64343 1.34572 1.8178 0 .64343-1.34572Z"/>
</svg>
