<svg xmlns="http://www.w3.org/2000/svg" xmlns:xlink="http://www.w3.org/1999/xlink" xmlns:inkscape="http://www.inkscape.org/namespaces/inkscape" version="1.1" width="212" height="175" viewBox="0 0 212 175">
<defs>
<path id="font_1_1" d="M.6589966 .23046875C.6759949 .23046875 .69400027 .23046875 .69400027 .25045777 .69400027 .27046205 .6759949 .27046205 .6589966 .27046205H.117996219C.100997928 .27046205 .08299255 .27046205 .08299255 .25045777 .08299255 .23046875 .100997928 .23046875 .117996219 .23046875H.6589966Z"/>
<path id="font_2_4" d="M.2939911 .16503906V.07800293C.2939911 .041992189 .2919922 .0309906 .21798706 .0309906H.19699097V0C.23799134 .0029907227 .2899933 .0029907227 .33198548 .0029907227 .37399293 .0029907227 .4269867 .0029907227 .46798707 0V.0309906H.44699098C.37298585 .0309906 .37098695 .041992189 .37098695 .07800293V.16503906H.47099305V.19602967H.37098695V.65075686C.37098695 .67074587 .37098695 .6767578 .35499574 .6767578 .34599305 .6767578 .34298707 .6767578 .33499146 .66474917L.027999878 .19602967V.16503906H.2939911M.2999878 .19602967H.055999757L.2999878 .5688019V.19602967Z"/>
<path id="font_2_3" d="M.1269989 .07699585 .23298645 .18003845C.3889923 .31811524 .44898988 .3721466 .44898988 .47216798 .44898988 .5860901 .35899354 .6660156 .23699951 .6660156 .12399292 .6660156 .049987794 .57411196 .049987794 .48516847 .049987794 .4291687 .099990848 .4291687 .102996829 .4291687 .11999512 .4291687 .15499878 .44117738 .15499878 .48217774 .15499878 .5081787 .13699341 .5341797 .101989749 .5341797 .09399414 .5341797 .09199524 .5341797 .08898926 .5331726 .11199951 .59806826 .1659851 .63500979 .22399903 .63500979 .31498719 .63500979 .35798646 .5541382 .35798646 .47216798 .35798646 .39215089 .30799867 .31311036 .25299073 .25108338L.06098938 .036987306C.049987794 .025985718 .049987794 .023986817 .049987794 0H.42099L.44898988 .17404175H.42399598C.4189911 .14402771 .4119873 .1000061 .4019928 .084991458 .394989 .07699585 .32899476 .07699585 .30699159 .07699585H.1269989Z"/>
<path id="font_2_1" d="M.45999146 .31976319C.45999146 .39982606 .45498658 .47988893 .41999818 .5539398 .37399293 .65000918 .2919922 .6660156 .25 .6660156 .18998719 .6660156 .116989139 .64001467 .07598877 .54693606 .04399109 .47789 .038986207 .39982606 .038986207 .31976319 .038986207 .24472046 .042999269 .15464783 .083999637 .07859802 .1269989-.0024719239 .19999695-.022460938 .24899292-.022460938 .30299378-.022460938 .3789978-.0014648438 .4229889 .09359741 .45498658 .16265869 .45999146 .2407074 .45999146 .31976319M.24899292-.00047302247C.20999146-.00047302247 .15098572 .024551392 .1329956 .12062073 .12199402 .18066406 .12199402 .2727356 .12199402 .3317871 .12199402 .39582826 .12199402 .46188355 .12998963 .5159149 .14898682 .63500979 .22399903 .64401248 .24899292 .64401248 .28199769 .64401248 .34799195 .6259918 .36698915 .52693179 .3769989 .47088624 .3769989 .39482118 .3769989 .3317871 .3769989 .25672914 .3769989 .18867493 .3659973 .12461853 .35099793 .029556275 .2939911-.00047302247 .24899292-.00047302247Z"/>
<clipPath id="clip_3">
<path transform="matrix(1.00005,0,0,-1.00008,16.467125,163.20578)" d="M0 0H194.28128V161.39636H0Z"/>
</clipPath>
<path id="font_4_1" d="M.33399964 .30233766C.33999635 .32835389 .36299134 .42037965 .43299867 .42037965 .43798829 .42037965 .46199037 .42037965 .48298646 .40734864 .45498658 .402359 .43499757 .37734986 .43499757 .35334779 .43499757 .33735658 .44599916 .31835938 .47299195 .31835938 .49499513 .31835938 .5269928 .3363495 .5269928 .37635804 .5269928 .42837525 .46798707 .4423828 .43399049 .4423828 .37599183 .4423828 .34098817 .38935853 .32899476 .36634828 .3039856 .43237306 .25 .4423828 .22099304 .4423828 .116989139 .4423828 .05999756 .3133545 .05999756 .28834535 .05999756 .27833558 .069992069 .27833558 .07199097 .27833558 .07998657 .27833558 .08299255 .28033448 .084991458 .28933717 .11898804 .39535523 .18499756 .42037965 .21899414 .42037965 .23799134 .42037965 .272995 .4113617 .272995 .35334779 .272995 .32235719 .2559967 .25532533 .21899414 .11528015 .20298767 .053268434 .16799927 .011245728 .12399292 .011245728 .117996219 .011245728 .09498596 .011245728 .07398987 .024276734 .09899902 .029266358 .12098694 .05027771 .12098694 .07827759 .12098694 .105270389 .09899902 .11328125 .083999637 .11328125 .053985597 .11328125 .0289917 .08728027 .0289917 .055267335 .0289917 .009246826 .07899475-.0107421879 .12298584-.0107421879 .18899536-.0107421879 .22499085 .059280397 .22799683 .0652771 .23999024 .028274537 .27598573-.0107421879 .33599855-.0107421879 .43899537-.0107421879 .49598695 .118270877 .49598695 .14328003 .49598695 .1532898 .4869995 .1532898 .48399354 .1532898 .47499085 .1532898 .47299195 .14929199 .47099305 .14228821 .43798829 .03527832 .36999513 .011245728 .33799745 .011245728 .29899598 .011245728 .2829895 .043273927 .2829895 .07727051 .2829895 .09927368 .2889862 .121276859 .2999878 .16529846L.33399964 .30233766Z"/>
<path id="font_5_1" d="M.5049896 .18203736H.47099305C.46798707 .16001892 .45799256 .100997928 .44499208 .09098816 .43699647 .084991458 .3600006 .084991458 .34599305 .084991458H.1619873C.2669983 .17803955 .3019867 .20603943 .3619995 .25306703 .43598939 .312088 .5049896 .374115 .5049896 .46914674 .5049896 .5900879 .39898683 .6640625 .2709961 .6640625 .14698792 .6640625 .06298828 .57710269 .06298828 .4851532 .06298828 .43414308 .10598755 .42915345 .115997318 .42915345 .13999939 .42915345 .16899109 .44615174 .16899109 .48214723 .16899109 .5001526 .1619873 .53515627 .10998535 .53515627 .14099121 .6060791 .20899964 .62805178 .2559967 .62805178 .35598756 .62805178 .4079895 .5501404 .4079895 .46914674 .4079895 .38212586 .34599305 .3130951 .31399537 .27708436L.07299805 .038986207C.06298828 .02999878 .06298828 .027999878 .06298828 0H.47499085L.5049896 .18203736Z"/>
<path id="font_1_2" d="M.3889923-.8549652 .21299744-.4659729C.20599365-.44996644 .20098877-.44996644 .19799805-.44996644 .19699097-.44996644 .19198609-.44996644 .18099976-.45796205L.085998538-.52996829C.07299805-.53996279 .07299805-.54296877 .07299805-.54597476 .07299805-.55096438 .07598877-.55696108 .08299255-.55696108 .08898926-.55696108 .10598755-.54296877 .116989139-.53497317 .12298584-.52996829 .13798523-.5189667 .14898682-.51097109L.34599305-.9439697C.35299684-.95996096 .35798646-.95996096 .36698915-.95996096 .38198854-.95996096 .3849945-.95396426 .3919983-.9399719L.84599307 .000030517579C.8529968 .014038086 .8529968 .018035889 .8529968 .02003479 .8529968 .030029297 .8450012 .040039064 .83299258 .040039064 .82499697 .040039064 .81799319 .03503418 .80999758 .01902771L.3889923-.8549652Z"/>
<path id="font_2_2" d="M.2939911 .64004519C.2939911 .66400149 .2939911 .6660156 .2709961 .6660156 .20899964 .60227969 .12098694 .60227969 .08898926 .60227969V.57128909C.10899353 .57128909 .16799927 .57128909 .21998596 .5972748V.07902527C.21998596 .042999269 .21699524 .0309906 .1269989 .0309906H.09498596V0C.12998963 .0029907227 .21699524 .0029907227 .25698854 .0029907227 .29699708 .0029907227 .38398744 .0029907227 .4189911 0V.0309906H.3869934C.29699708 .0309906 .2939911 .041992189 .2939911 .07902527V.64004519Z"/>
<path id="font_6_1" d="M.2679901 .31362916H.3039856L.45399476 .08192444C.46398927 .06594849 .48799134 .026992798 .49899293 .011993408 .5059967 0 .5089874 0 .5319977 0H.66999819C.6879883 0 .7029877 0 .7029877 .017990113 .7029877 .025985718 .69699099 .032989503 .6879883 .034988405 .651001 .04298401 .60198977 .10890198 .5779877 .14085388 .57099917 .15083313 .5209961 .2167511 .45399476 .32463075 .54299929 .34062196 .6289978 .37861634 .6289978 .4975891 .6289978 .63656619 .48199464 .6845703 .3639984 .6845703H.049987794C.03199768 .6845703 .015991211 .6845703 .015991211 .66656497 .015991211 .64956668 .034988405 .64956668 .042999269 .64956668 .099990848 .64956668 .10499573 .64256289 .10499573 .5925751V.091918949C.10499573 .04197693 .099990848 .034988405 .042999269 .034988405 .034988405 .034988405 .015991211 .034988405 .015991211 .017990113 .015991211 0 .03199768 0 .049987794 0H.32398988C.34199525 0 .35699464 0 .35699464 .017990113 .35699464 .034988405 .33999635 .034988405 .32899476 .034988405 .27198792 .034988405 .2679901 .04298401 .2679901 .091918949V.31362916M.46099855 .36262513C.4889984 .39961244 .49198915 .4526062 .49198915 .4965973 .49198915 .5445862 .48599244 .59757998 .45399476 .63856509 .49499513 .6295624 .59399417 .5985718 .59399417 .4975891 .59399417 .43260194 .56399539 .3816223 .46099855 .36262513M.2679901 .59558108C.2679901 .61657717 .2679901 .64956668 .32998658 .64956668 .4149933 .64956668 .45700074 .614563 .45700074 .4965973 .45700074 .36761476 .42599488 .3486328 .2679901 .3486328V.59558108M.13198853 .034988405C.13999939 .052963258 .13999939 .08093262 .13999939 .089920047V.594574C.13999939 .6045685 .13999939 .6315613 .13198853 .64956668H.24598694C.23298645 .6335602 .23298645 .61357119 .23298645 .5985718V.089920047C.23298645 .079940799 .23298645 .052963258 .24099732 .034988405H.13198853M.34498597 .31362916C.35198976 .31462098 .35598756 .31562806 .3639984 .31562806 .3789978 .31562806 .40098573 .31762696 .41600038 .31962586 .43099977 .2956543 .5389862 .117889408 .621994 .034988405H.5249939L.34498597 .31362916Z"/>
</defs>
<path transform="matrix(1.00005,0,0,-1.00008,16.467125,163.20578)" stroke-width=".19925" stroke-linecap="butt" stroke-miterlimit="10" stroke-linejoin="miter" fill="none" stroke="#929292" d="M19.42812 0V4.25218M58.28438 0V4.25218M97.14064 0V4.25218M135.99689 0V4.25218M174.85315 0V4.25218M19.42812 161.39636V157.14415M58.28438 161.39636V157.14415M97.14064 161.39636V157.14415M135.99689 161.39636V157.14415M174.85315 161.39636V157.14415"/>
<path transform="matrix(1.00005,0,0,-1.00008,16.467125,163.20578)" stroke-width=".19925" stroke-linecap="butt" stroke-miterlimit="10" stroke-linejoin="miter" fill="none" stroke="#929292" d="M0 16.13963H4.252M0 48.4189H4.252M0 80.69818H4.252M0 112.97745H4.252M0 145.25672H4.252M194.28128 16.13963H190.02925M194.28128 48.4189H190.02925M194.28128 80.69818H190.02925M194.28128 112.97745H190.02925M194.28128 145.25672H190.02925"/>
<path transform="matrix(1.00005,0,0,-1.00008,16.467125,163.20578)" stroke-width=".3985" stroke-linecap="butt" stroke-miterlimit="10" stroke-linejoin="miter" fill="none" stroke="#000000" d="M0 0V161.39636H194.28128V0H0Z"/>
<use data-text="&#x2212;" xlink:href="#font_1_1" transform="matrix(9.963098,0,0,-9.963397,29.530777,173.14658)"/>
<use data-text="4" xlink:href="#font_2_4" transform="matrix(9.963098,0,0,-9.963397,37.28016,173.14658)"/>
<use data-text="&#x2212;" xlink:href="#font_1_1" transform="matrix(9.963098,0,0,-9.963397,68.38872,173.14658)"/>
<use data-text="2" xlink:href="#font_2_3" transform="matrix(9.963098,0,0,-9.963397,76.1381,173.14658)"/>
<use data-text="0" xlink:href="#font_2_1" transform="matrix(9.963098,0,0,-9.963397,111.12186,173.14658)"/>
<use data-text="2" xlink:href="#font_2_3" transform="matrix(9.963098,0,0,-9.963397,149.9798,173.14658)"/>
<use data-text="4" xlink:href="#font_2_4" transform="matrix(9.963098,0,0,-9.963397,188.83774,173.14658)"/>
<use data-text="&#x2212;" xlink:href="#font_1_1" transform="matrix(9.963098,0,0,-9.963397,.21631623,149.85971)"/>
<use data-text="4" xlink:href="#font_2_4" transform="matrix(9.963098,0,0,-9.963397,7.9656984,149.85971)"/>
<use data-text="&#x2212;" xlink:href="#font_1_1" transform="matrix(9.963098,0,0,-9.963397,.21631623,117.578128)"/>
<use data-text="2" xlink:href="#font_2_3" transform="matrix(9.963098,0,0,-9.963397,7.9656984,117.578128)"/>
<use data-text="0" xlink:href="#font_2_1" transform="matrix(9.963098,0,0,-9.963397,7.9656984,85.711589)"/>
<use data-text="2" xlink:href="#font_2_3" transform="matrix(9.963098,0,0,-9.963397,7.9656984,53.43)"/>
<use data-text="4" xlink:href="#font_2_4" transform="matrix(9.963098,0,0,-9.963397,7.9656984,21.147416)"/>
<g clip-path="url(#clip_3)">
<path transform="matrix(1.00005,0,0,-1.00008,16.467125,163.20578)" stroke-width=".79701" stroke-linecap="butt" stroke-miterlimit="10" stroke-linejoin="miter" fill="none" stroke="#0000ff" d="M0 484.1891C0 484.1891 1.41771 472.48487 1.96222 468.05278 2.50673 463.62065 3.37996 456.58625 3.92445 452.2455 4.46896 447.9048 5.3422 441.01707 5.8867 436.76777 6.4312 432.51847 7.30444 425.77726 7.84894 421.6193 8.39345 417.46134 9.26668 410.86668 9.81119 406.80009 10.35568 402.73347 11.22891 396.2852 11.77342 392.30995 12.31793 388.33473 13.19116 382.03318 13.73566 378.14933 14.28017 374.2655 15.1534 368.11048 15.6979 364.318 16.24242 360.5255 17.11563 354.5168 17.66013 350.8157 18.20464 347.1146 19.07787 341.25267 19.62238 337.64295 20.16687 334.03324 21.04012 328.31776 21.58461 324.79939 22.12912 321.281 23.00235 315.71195 23.54686 312.28498 24.09135 308.858 24.96458 303.4356 25.5091 300.1 26.0536 296.76445 26.92683 291.48857 27.47133 288.24433 28.01584 285.0001 28.88907 279.87077 29.43358 276.7179 29.97809 273.56507 30.85132 268.5821 31.39581 265.5206 31.94032 262.45915 32.81355 257.6229 33.35806 254.65279 33.90256 251.6827 34.77577 246.99297 35.32028 244.11423 35.86479 241.23549 36.73802 236.69216 37.28253 233.90477 37.82703 231.1174 38.70026 226.72074 39.24477 224.02477 39.78928 221.3288 40.6625 217.07866 41.207 214.47405 41.75151 211.86943 42.62474 207.76569 43.16925 205.25244 43.71375 202.73918 44.58699 198.7821 45.13148 196.36028 45.676 193.93843 46.54922 190.12787 47.09373 187.7974 47.63823 185.4669 48.51146 181.80287 49.05597 179.56375 49.60048 177.32465 50.4737 173.80707 51.0182 171.65932 51.5627 169.51157 52.43593 166.14061 52.98044 164.08425 53.52495 162.0279 54.39818 158.80348 54.94267 156.83849 55.48718 154.87349 56.36041 151.7955 56.90492 149.92188 57.44942 148.04825 58.32266 145.1169 58.86716 143.33466 59.41167 141.55243 60.2849 138.7676 60.8294 137.07672 61.3739 135.38585 62.24713 132.74745 62.79164 131.14795 63.33615 129.54845 64.20938 127.0567 64.75389 125.54858 65.29839 124.04048 66.17162 121.69522 66.71613 120.27847 67.26064 118.86172 68.13385 116.66295 68.67834 115.33759 69.22285 114.01222 70.09608 111.96002 70.6406 110.72603 71.18509 109.49205 72.05833 107.58638 72.60283 106.44376 73.14734 105.30113 74.02057 103.542 74.56508 102.49075 75.10957 101.43951 75.9828 99.82689 76.52731 98.867 77.07182 97.90712 77.94505 96.44107 78.48955 95.57257 79.03406 94.70406 79.90729 93.38454 80.4518 92.6074 80.9963 91.83028 81.86954 90.65727 82.41403 89.97151 82.95854 89.28575 83.83176 88.2593 84.37627 87.6649 84.92076 87.07053 85.794 86.19057 86.3385 85.68758 86.88301 85.18457 87.75624 84.45114 88.30075 84.03952 88.84525 83.6279 89.71848 83.04103 90.26299 82.72076 90.8075 82.40051 91.68073 81.96014 92.22522 81.73128 92.76973 81.5024 93.64296 81.20857 94.18747 81.07106 94.73198 80.93356 95.60521 80.7863 96.1497 80.74016 96.69421 80.69403 97.56744 80.69328 98.11195 80.73851 98.65645 80.78374 99.52968 80.92955 100.07419 81.06613 100.6187 81.20273 101.49191 81.49507 102.03642 81.72305 102.58092 81.95102 103.45415 82.38992 103.99866 82.70927 104.54317 83.02863 105.4164 83.61401 105.96089 84.02473 106.5054 84.43544 107.37863 85.1674 107.92314 85.6695 108.46764 86.17159 109.34088 87.05006 109.88538 87.64354 110.42989 88.237 111.30312 89.262 111.84763 89.94682 112.39212 90.63167 113.26535 91.80322 113.80986 92.57944 114.35437 93.35565 115.2276 94.67372 115.77211 95.5413 116.3166 96.4089 117.18982 97.87352 117.73433 98.83247 118.27884 99.79143 119.15207 101.40256 119.69656 102.4529 120.24107 103.50322 121.1143 105.26096 121.65881 106.40266 122.20331 107.54439 123.07655 109.44855 123.62105 110.68163 124.16556 111.9147 125.03879 113.96544 125.5833 115.2899 126.12779 116.61435 127.00102 118.81158 127.54553 120.22742 128.09004 121.64326 128.96327 123.98712 129.50778 125.49432 130.05228 127.00154 130.9255 129.49184 131.47002 131.09043 132.01453 132.689 132.88776 135.32584 133.43225 137.0158 133.97676 138.70575 134.84998 141.4892 135.39449 143.27054 135.93898 145.05188 136.81223 147.98177 137.35672 149.85446 137.90123 151.72718 138.77446 154.80359 139.31897 156.76767 139.86347 158.73175 140.7367 161.95482 141.2812 164.01027 141.82572 166.06574 142.69895 169.43523 143.24344 171.58203 143.78795 173.72884 144.66118 177.24489 145.20569 179.48308 145.7502 181.72127 146.62343 185.38384 147.16793 187.71341 147.71244 190.043 148.58567 193.85219 149.13018 196.27315 149.67467 198.6941 150.5479 202.64972 151.09239 205.16204 151.6369 207.67435 152.51013 211.77649 153.05464 214.38019 153.59914 216.9839 154.47237 221.23268 155.01688 223.92777 155.56139 226.62285 156.43462 231.01804 156.97911 233.80448 157.52362 236.59091 158.39685 241.13265 158.94136 244.01047 159.48587 246.8883 160.3591 251.5767 160.9036 254.54592 161.4481 257.5151 162.32134 262.3499 162.86585 265.41047 163.41034 268.471 164.28359 273.4524 164.82808 276.6043 165.37259 279.75624 166.24582 284.8841 166.79033 288.12745 167.33483 291.37074 168.20804 296.64533 168.75255 299.98 169.29706 303.31468 170.17029 308.7356 170.71479 312.16166 171.2593 315.58769 172.13253 321.15516 172.67704 324.67259 173.22153 328.19007 174.09477 333.90419 174.63927 337.51304 175.18378 341.12184 176.057 346.98234 176.60152 350.6825 177.14601 354.3827 178.01924 360.38975 178.56375 364.1813 179.10826 367.9729 179.98149 374.12663 180.526 378.00959 181.0705 381.89253 181.94373 388.19264 182.48824 392.16694 183.03275 396.1412 183.90598 402.5879 184.45047 406.65357 184.99498 410.7192 185.8682 417.31239 186.4127 421.46946 186.9572 425.62654 187.83045 432.36643 188.37494 436.61485 188.91945 440.8633 189.79268 447.74955 190.33719 452.08934 190.88169 456.4291 191.75492 463.46189 192.29943 467.89308 192.84394 472.32426 194.26168 484.0263 194.26168 484.0263"/>
<path transform="matrix(1.00005,0,0,-1.00008,16.467125,163.20578)" stroke-width=".79701" stroke-linecap="butt" stroke-miterlimit="10" stroke-linejoin="miter" fill="none" stroke="#ff0000" d="M97.14064 80.69818C97.14064 80.69818 98.57297 84.84215 99.12308 85.85376 99.67319 86.86537 100.5554 87.46562 101.10553 87.98927 101.65564 88.51292 102.53786 89.20888 103.08797 89.62791 103.63808 90.04694 104.5203 90.64882 105.07042 91.00934 105.62053 91.36987 106.50275 91.9049 107.05286 92.22643 107.60297 92.54794 108.48518 93.03368 109.0353 93.32674 109.58542 93.61978 110.46764 94.06754 111.01775 94.3386 111.56786 94.60963 112.45007 95.02698 113.00018 95.28038 113.55031 95.53378 114.43253 95.9262 114.98264 96.16498 115.53275 96.40375 116.41496 96.7749 116.96507 97.00136 117.5152 97.2278 118.39742 97.5812 118.94753 97.79709 119.49763 98.01297 120.37985 98.35072 120.92996 98.5574 121.48009 98.76407 122.3623 99.08812 122.91241 99.28665 123.46252 99.48518 124.34474 99.79706 124.89485 99.98834 125.44498 100.17963 126.32718 100.4806 126.8773 100.66539 127.42741 100.85019 128.30963 101.14133 128.85974 101.32024 129.40985 101.49915 130.29207 101.78134 130.8422 101.95491 131.3923 102.12846 132.27452 102.40251 132.82463 102.57118 133.37474 102.73984 134.25698 103.0064 134.8071 103.17055 135.35721 103.3347 136.23943 103.59435 136.78954 103.75433 137.33965 103.91432 138.22187 104.16757 138.77199 104.3237 139.3221 104.47984 140.20432 104.72716 140.75443 104.87968 141.30454 105.03223 142.18675 105.27399 142.73688 105.42316 143.28699 105.57234 144.1692 105.8089 144.71932 105.95494 145.26943 106.10098 146.15164 106.33267 146.70177 106.47575 147.25188 106.61884 148.1341 106.84596 148.6842 106.98625 149.23432 107.12656 150.11653 107.34933 150.66664 107.48703 151.21677 107.62471 152.09899 107.8434 152.6491 107.97859 153.1992 108.11378 154.08142 108.32864 154.63153 108.46149 155.18166 108.59433 156.06388 108.8055 156.61399 108.93611 157.1641 109.06673 158.04631 109.2744 158.59642 109.40288 159.14655 109.53137 160.02877 109.73572 160.57888 109.86218 161.12899 109.98865 162.0112 110.18985 162.56131 110.31436 163.11144 110.43889 163.99365 110.63705 164.54376 110.75974 165.09387 110.88242 165.97609 111.0777 166.5262 111.19862 167.07633 111.31953 167.95853 111.51204 168.50865 111.63127 169.05876 111.75049 169.94098 111.94035 170.49109 112.05795 171.0412 112.17555 171.92343 112.36287 172.47356 112.47891 173.02367 112.59496 173.90589 112.77982 174.456 112.89436 175.0061 113.00891 175.88832 113.19142 176.43845 113.30452 176.98856 113.41762 177.87078 113.59785 178.42089 113.70958 178.971 113.82129 179.85321 113.99937 180.40334 114.10976 180.95345 114.22014 181.83567 114.39607 182.38578 114.50516 182.93589 114.61424 183.8181 114.78818 184.36823 114.89601 184.91834 115.00386 185.80055 115.17583 186.35066 115.28244 186.90077 115.38907 187.78299 115.55914 188.3331 115.66461 188.88323 115.77008 189.76544 115.93831 190.31555 116.04263 190.86566 116.14697 191.74788 116.3134 192.29799 116.41664 192.84812 116.51987 194.28044 116.78679 194.28044 116.78679"/>
<path transform="matrix(1.00005,0,0,-1.00008,16.467125,163.20578)" stroke-width=".3985" stroke-linecap="butt" stroke-dasharray="2.98883,2.98883" stroke-miterlimit="10" stroke-linejoin="miter" fill="none" stroke="#000000" d="M0 0 8.09491 6.72473 16.18982 13.44948 24.28476 20.17421 32.37967 26.89896 40.47461 33.62369 48.56952 40.34843 56.66446 47.07317 64.75937 53.79791 72.85431 60.52266 80.94922 67.24739 89.04416 73.97214 97.13907 80.69688 105.234 87.42162 113.32892 94.14635 121.42384 100.8711 129.51877 107.59584 137.6137 114.32057 145.70862 121.04532 153.80355 127.77007 161.89847 134.4948 169.9934 141.21953 178.08832 147.94429 186.18325 154.66902 194.27816 161.39376"/>
</g>
<path transform="matrix(1.00005,0,0,-1.00008,16.467125,163.20578)" d="M148.43123 115.04192H190.19556V157.96846H148.43123Z" fill="#ffffff"/>
<path transform="matrix(1.00005,0,0,-1.00008,16.467125,163.20578)" stroke-width=".3985" stroke-linecap="butt" stroke-miterlimit="10" stroke-linejoin="miter" fill="none" stroke="#000000" d="M148.43123 115.04192H190.19556V157.96846H148.43123Z"/>
<path transform="matrix(1.00005,0,0,-1.00008,168.2937,14.012848)" stroke-width=".79701" stroke-linecap="butt" stroke-miterlimit="10" stroke-linejoin="miter" fill="none" stroke="#0000ff" d="M0 0C0 0 6.14426 0 8.50412 0 10.86398 0 17.00826 0 17.00826 0"/>
<use data-text="x" xlink:href="#font_4_1" transform="matrix(9.963098,0,0,-9.963397,189.60977,17.321114)"/>
<use data-text="2" xlink:href="#font_5_1" transform="matrix(6.9741489,0,0,-6.974358,195.30405,13.705826)"/>
<path transform="matrix(1.00005,0,0,-1.00008,168.2937,27.534935)" stroke-width=".79701" stroke-linecap="butt" stroke-miterlimit="10" stroke-linejoin="miter" fill="none" stroke="#ff0000" d="M0 0C0 0 6.14426 0 8.50412 0 10.86398 0 17.00826 0 17.00826 0"/>
<use data-text="&#x221a;" xlink:href="#font_1_2" transform="matrix(9.963098,0,0,-9.963397,187.69367,23.597619)"/>
<path transform="matrix(1.00005,0,0,-1.00008,38.853246,-89.675449)" stroke-width=".3985" stroke-linecap="butt" stroke-miterlimit="10" stroke-linejoin="miter" fill="none" stroke="#000000" d="M157.135-113.065H162.829"/>
<use data-text="x" xlink:href="#font_4_1" transform="matrix(9.963098,0,0,-9.963397,195.99608,30.774193)"/>
<path transform="matrix(1.00005,0,0,-1.00008,168.2937,40.211946)" stroke-width=".3985" stroke-linecap="butt" stroke-dasharray="2.98883,2.98883" stroke-miterlimit="10" stroke-linejoin="miter" fill="none" stroke="#000000" d="M0 0H8.50412 17.00826"/>
<use data-text="1" xlink:href="#font_2_2" transform="matrix(9.963098,0,0,-9.963397,189.43375,42.67514)"/>
<use data-text="R" xlink:href="#font_6_1" transform="matrix(6.9741489,0,0,-6.974358,194.41501,44.169267)"/>
</svg>
