<svg xmlns="http://www.w3.org/2000/svg" xmlns:xlink="http://www.w3.org/1999/xlink" xmlns:inkscape="http://www.inkscape.org/namespaces/inkscape" version="1.1" width="372" height="344" viewBox="0 0 372 344">
<defs>
<path id="font_1_1" d="M.33399964 .30233766C.33999635 .32835389 .36299134 .42037965 .43299867 .42037965 .43798829 .42037965 .46199037 .42037965 .48298646 .40734864 .45498658 .402359 .43499757 .37734986 .43499757 .35334779 .43499757 .33735658 .44599916 .31835938 .47299195 .31835938 .49499513 .31835938 .5269928 .3363495 .5269928 .37635804 .5269928 .42837525 .46798707 .4423828 .43399049 .4423828 .37599183 .4423828 .34098817 .38935853 .32899476 .36634828 .3039856 .43237306 .25 .4423828 .22099304 .4423828 .116989139 .4423828 .05999756 .3133545 .05999756 .28834535 .05999756 .27833558 .069992069 .27833558 .07199097 .27833558 .07998657 .27833558 .08299255 .28033448 .084991458 .28933717 .11898804 .39535523 .18499756 .42037965 .21899414 .42037965 .23799134 .42037965 .272995 .4113617 .272995 .35334779 .272995 .32235719 .2559967 .25532533 .21899414 .11528015 .20298767 .053268434 .16799927 .011245728 .12399292 .011245728 .117996219 .011245728 .09498596 .011245728 .07398987 .024276734 .09899902 .029266358 .12098694 .05027771 .12098694 .07827759 .12098694 .105270389 .09899902 .11328125 .083999637 .11328125 .053985597 .11328125 .0289917 .08728027 .0289917 .055267335 .0289917 .009246826 .07899475-.0107421879 .12298584-.0107421879 .18899536-.0107421879 .22499085 .059280397 .22799683 .0652771 .23999024 .028274537 .27598573-.0107421879 .33599855-.0107421879 .43899537-.0107421879 .49598695 .118270877 .49598695 .14328003 .49598695 .1532898 .4869995 .1532898 .48399354 .1532898 .47499085 .1532898 .47299195 .14929199 .47099305 .14228821 .43798829 .03527832 .36999513 .011245728 .33799745 .011245728 .29899598 .011245728 .2829895 .043273927 .2829895 .07727051 .2829895 .09927368 .2889862 .121276859 .2999878 .16529846L.33399964 .30233766Z"/>
<path id="font_2_1" d="M.33499146 .63612368C.33499146 .6630554 .33299256 .6640625 .30499269 .6640625 .24099732 .6014404 .1499939 .6004486 .10899353 .6004486V.5644531C.1329956 .5644531 .19898987 .5644531 .2539978 .592453V.08203125C.2539978 .04899597 .2539978 .035995485 .1539917 .035995485H.115997318V0C.13398743 .0009918213 .25698854 .0039978029 .2939911 .0039978029 .32499696 .0039978029 .45098878 .0009918213 .47299195 0V.035995485H.43499757C.33499146 .035995485 .33499146 .04899597 .33499146 .08203125V.63612368Z"/>
<path id="font_2_2" d="M.5049896 .18203736H.47099305C.46798707 .16001892 .45799256 .100997928 .44499208 .09098816 .43699647 .084991458 .3600006 .084991458 .34599305 .084991458H.1619873C.2669983 .17803955 .3019867 .20603943 .3619995 .25306703 .43598939 .312088 .5049896 .374115 .5049896 .46914674 .5049896 .5900879 .39898683 .6640625 .2709961 .6640625 .14698792 .6640625 .06298828 .57710269 .06298828 .4851532 .06298828 .43414308 .10598755 .42915345 .115997318 .42915345 .13999939 .42915345 .16899109 .44615174 .16899109 .48214723 .16899109 .5001526 .1619873 .53515627 .10998535 .53515627 .14099121 .6060791 .20899964 .62805178 .2559967 .62805178 .35598756 .62805178 .4079895 .5501404 .4079895 .46914674 .4079895 .38212586 .34599305 .3130951 .31399537 .27708436L.07299805 .038986207C.06298828 .02999878 .06298828 .027999878 .06298828 0H.47499085L.5049896 .18203736Z"/>
<path id="font_2_3" d="M.272995 .33428956C.35099793 .33428956 .40699769 .2803192 .40699769 .1733551 .40699769 .04940796 .33499146 .012466431 .2769928 .012466431 .23699951 .012466431 .14898682 .0234375 .10699463 .082351688 .1539917 .084350589 .16499329 .11735535 .16499329 .13835144 .16499329 .17034912 .14099121 .19335938 .10998535 .19335938 .08198547 .19335938 .053985597 .17634583 .053985597 .13534546 .053985597 .041412355 .1579895-.01953125 .2789917-.01953125 .41799928-.01953125 .5139923 .07336426 .5139923 .1733551 .5139923 .2513275 .44999696 .32929994 .33999635 .35229493 .44499208 .39024354 .48298646 .4650879 .48298646 .5260773 .48298646 .60505679 .3919983 .6640625 .2809906 .6640625 .16999817 .6640625 .084991458 .61006167 .084991458 .5300751 .084991458 .49606324 .10699463 .47706605 .13699341 .47706605 .16799927 .47706605 .18798828 .5000763 .18798828 .5280762 .18798828 .5570679 .16799927 .57806399 .13699341 .5800781 .17199707 .62405398 .24099732 .63505557 .27799989 .63505557 .32299806 .63505557 .38598634 .6130676 .38598634 .5260773 .38598634 .48406983 .37199403 .43814088 .34599305 .4072113 .31298829 .36927796 .2849884 .3672943 .23498535 .36428834 .20999146 .3623047 .20799256 .3623047 .20298767 .3612976 .20098877 .3612976 .19299317 .3592987 .19299317 .34829713 .19299317 .33428956 .20199585 .33428956 .21899414 .33428956H.272995Z"/>
<path id="font_2_4" d="M.5289917 .1640625V.20005799H.41799928V.64582827C.41799928 .66682437 .41799928 .6738281 .3959961 .6738281 .38398744 .6738281 .37998963 .6738281 .36999513 .65982058L.038986207 .20005799V.1640625H.33299256V.08201599C.33299256 .04800415 .33299256 .035995485 .2519989 .035995485H.22499085V0C.2749939 .0019989014 .33898927 .0039978029 .375 .0039978029 .4119873 .0039978029 .47599793 .0019989014 .526001 0V.035995485H.49899293C.41799928 .035995485 .41799928 .04800415 .41799928 .08201599V.1640625H.5289917M.33999635 .5658722V.20005799H.07598877L.33999635 .5658722Z"/>
<path id="font_2_5" d="M.15499878 .5588074C.20599365 .5458069 .23599243 .5458069 .2519989 .5458069 .38398744 .5458069 .46199037 .6358032 .46199037 .6508026 .46199037 .6618042 .45498658 .6648102 .44999696 .6648102 .44799806 .6648102 .44599916 .6648102 .44198609 .6618042 .41799928 .6528015 .36499024 .6328125 .29100038 .6328125 .2630005 .6328125 .20999146 .6348114 .14498902 .6598053 .1349945 .6648102 .1329956 .6648102 .13198853 .6648102 .11898804 .6648102 .11898804 .6538086 .11898804 .6378021V.34251405C.11898804 .32548524 .11898804 .3134613 .1349945 .3134613 .14399719 .3134613 .14498902 .3154602 .15499878 .32748414 .19799805 .38259889 .25898744 .390625 .2939911 .390625 .35398866 .390625 .3809967 .34251405 .38598634 .33450318 .4039917 .30143739 .4099884 .26335145 .4099884 .20524597 .4099884 .17524719 .4099884 .116256717 .37998963 .07234192 .35499574 .03640747 .31199647 .012466431 .2630005 .012466431 .19799805 .012466431 .1309967 .04838562 .10598755 .11425781 .14399719 .11125183 .16299439 .13624573 .16299439 .16325379 .16299439 .20625305 .12599182 .21424866 .11299133 .21424866 .11099243 .21424866 .06298828 .21424866 .06298828 .1602478 .06298828 .07034302 .14498902-.01953125 .2649994-.01953125 .3929901-.01953125 .5049896 .07533264 .5049896 .20124817 .5049896 .31445313 .4189911 .41862489 .29499818 .41862489 .25099183 .41862489 .19898987 .4076233 .15499878 .36956788V.5588074Z"/>
<path id="font_2_6" d="M.1499939 .3274536C.1499939 .40945436 .15699768 .48303224 .19499207 .543869 .22898865 .5978699 .2829895 .63505557 .34700013 .63505557 .3769989 .63505557 .4169922 .62701418 .43699647 .5998688 .4119873 .5978699 .3909912 .5808716 .3909912 .5518799 .3909912 .5268707 .4079895 .5048828 .43798829 .5048828 .46798707 .5048828 .48599244 .5248718 .48599244 .5538788 .48599244 .6119385 .44400025 .6640625 .34498597 .6640625 .20098877 .6640625 .053985597 .5318756 .053985597 .3174591 .053985597 .05845642 .17599488-.01953125 .28599549-.01953125 .4079895-.01953125 .5139923 .07345581 .5139923 .20445252 .5139923 .33145143 .41299439 .42546083 .29599 .42546083 .21598816 .42546083 .17199707 .37245179 .1499939 .3274536M.28599549 .012466431C.23599243 .012466431 .19699097 .04145813 .17599488 .08546448 .16099549 .11546326 .15299988 .16545105 .15299988 .22544861 .15299988 .32244874 .21099854 .39746095 .29100038 .39746095 .33699037 .39746095 .36799623 .37945558 .3929901 .342453 .4169922 .30445863 .41799928 .26245118 .41799928 .20445252 .41799928 .14746094 .41799928 .10545349 .3909912 .066467288 .36698915 .031463624 .33499146 .012466431 .28599549 .012466431Z"/>
<path id="font_2_7" d="M.5349884 .6045227C.54499819 .6165161 .54499819 .6185303 .54499819 .64453127H.2829895C.24299622 .64453127 .23199463 .6455078 .19599915 .6484375 .14399719 .65234377 .14199829 .6592407 .13899231 .676239H.10499573L.069992069 .46250917H.10398865C.10598755 .47750855 .115997318 .54351809 .13198853 .5535126 .13999939 .55952456 .22099304 .55952456 .23599243 .55952456H.45399476C.42199708 .5175171 .37098695 .45550538 .34999085 .4275055 .21899414 .25549317 .20698548 .096466068 .20698548 .037460329 .20698548 .02645874 .20698548-.01953125 .2539978-.01953125 .3019867-.01953125 .3019867 .025466919 .3019867 .038467409V.07847595C.3019867 .27249146 .34199525 .36149598 .3849945 .41551209L.5349884 .6045227Z"/>
<path id="font_2_8" d="M.35499574 .36123658C.43299867 .3992157 .48298646 .44618226 .48298646 .5151367 .48298646 .6120758 .38198854 .6640625 .2849884 .6640625 .1749878 .6640625 .084991458 .5920868 .084991458 .4971466 .084991458 .45018006 .10699463 .41619874 .125 .39620973 .14299011 .37522889 .1499939 .37123109 .20899964 .33624269 .15299988 .31227113 .053985597 .25830079 .053985597 .15336609 .053985597 .042434694 .16899109-.01953125 .2829895-.01953125 .4099884-.01953125 .5139923 .061431886 .5139923 .1693573 .5139923 .23532105 .47499085 .29127503 .4169922 .32525636 .4039917 .33325196 .36898805 .35324098 .35499574 .36123658M.19198609 .45617677C.1659851 .4711609 .13798523 .49813844 .13798523 .53512576 .13798523 .5980835 .21099854 .63505557 .2829895 .63505557 .36099244 .63505557 .42999269 .5860901 .42999269 .5151367 .42999269 .42619325 .32598878 .3812256 .32398988 .3812256 .32199098 .3812256 .31999208 .3822174 .31298829 .3862152L.19198609 .45617677M.24099732 .31726075 .37799073 .23831177C.4039917 .22332764 .45399476 .19334412 .45399476 .13438416 .45399476 .059432985 .37098695 .012466431 .2849884 .012466431 .19299317 .012466431 .11399841 .07142639 .11399841 .15336609 .11399841 .22732544 .16899109 .2842865 .24099732 .31726075Z"/>
<path id="font_1_2" d="M.48599244 .38136292C.48999024 .39537049 .48999024 .39736939 .48999024 .40437318 .48999024 .42237855 .47599793 .43138124 .46099855 .43138124 .45098878 .43138124 .43499757 .42536927 .42599488 .41036988 .42399598 .405365 .41600038 .37435914 .4119873 .35635377 .40499879 .33035279 .397995 .30334474 .3919983 .27633668L.34700013 .09628296C.34298707 .08126831 .2999878 .011245728 .23399353 .011245728 .18299866 .011245728 .17199707 .055267335 .17199707 .0922699 .17199707 .1382904 .18899536 .20030213 .22299195 .28833009 .23899842 .3293457 .24299622 .3403473 .24299622 .36035157 .24299622 .405365 .21099854 .4423828 .16099549 .4423828 .06599426 .4423828 .0289917 .29733277 .0289917 .28833009 .0289917 .27833558 .038986207 .27833558 .040985109 .27833558 .050994874 .27833558 .051986696 .28033448 .056991579 .29634095 .083999637 .3903656 .12399292 .42037965 .1579895 .42037965 .1659851 .42037965 .18299866 .42037965 .18299866 .3883667 .18299866 .36335755 .17298889 .3373413 .1659851 .31834413 .12599182 .21231079 .10798645 .1552887 .10798645 .10827637 .10798645 .019256592 .17098999-.0107421879 .22999573-.0107421879 .2689972-.0107421879 .30299378 .0062561037 .33099366 .03425598 .31799317-.017745972 .30599977-.06674194 .2659912-.11973572 .23999024-.15385437 .20199585-.18309021 .1559906-.18309021 .14199829-.18309021 .09700012-.18005371 .07998657-.14074707 .09599304-.14074707 .10899353-.14074707 .12298584-.1287384 .1329956-.11973572 .14299011-.10673523 .14299011-.08773804 .14299011-.056747438 .115997318-.052734376 .10598755-.052734376 .08299255-.052734376 .049987794-.068740848 .049987794-.11773682 .049987794-.16796875 .09399414-.20507813 .1559906-.20507813 .25898744-.20507813 .3619995-.11373901 .3899994-.00074768069L.48599244 .38136292Z"/>
<path id="font_2_9" d="M.41799928 .29803468C.41799928 .05064392 .29499818 .012466431 .23498535 .012466431 .21299744 .012466431 .1599884 .014465332 .1329956 .045639039 .17399597 .04963684 .1769867 .08363342 .1769867 .09263611 .1769867 .11764526 .1599884 .13964844 .12998963 .13964844 .099990848 .13964844 .08198547 .119644168 .08198547 .09063721 .08198547 .022521973 .13899231-.01953125 .23599243-.01953125 .3789978-.01953125 .5139923 .11564636 .5139923 .32904054 .5139923 .5770569 .4039917 .6640625 .2869873 .6640625 .2539978 .6640625 .18499756 .6590576 .12799073 .60305789 .09399414 .5700531 .053985597 .53105166 .053985597 .4410553 .053985597 .31404115 .15499878 .22003174 .27198792 .22003174 .35198976 .22003174 .394989 .27304078 .41799928 .31803895V.29803468M.2769928 .24804688C.23799134 .24804688 .20098877 .26104737 .17298889 .30703736 .1499939 .34403993 .1499939 .38604737 .1499939 .4410553 .1499939 .49905396 .1499939 .53904727 .1789856 .5790558 .20298767 .61405947 .23599243 .63505557 .28799439 .63505557 .33898927 .63505557 .36898805 .60305789 .3849945 .5770569 .4119873 .53504946 .4149933 .4650421 .4149933 .4300537 .4149933 .30004884 .33999635 .24804688 .2769928 .24804688Z"/>
<path id="font_3_1" d="M.44400025 .24998474C.44400025 .35688783 .35499574 .44381715 .25 .44381715 .14199829 .44381715 .054992677 .35488893 .054992677 .24998474 .054992677 .14407349 .14199829 .056137086 .25 .056137086 .35499574 .056137086 .44400025 .14308167 .44400025 .24998474Z"/>
</defs>
<use data-text="x" xlink:href="#font_1_1" transform="matrix(9.962799,0,0,-9.963197,39.534418,18.105366)"/>
<use data-text="1" xlink:href="#font_2_1" transform="matrix(6.97394,0,0,-6.9742186,45.227518,19.599457)"/>
<use data-text="x" xlink:href="#font_1_1" transform="matrix(9.962799,0,0,-9.963197,39.534418,46.453069)"/>
<use data-text="2" xlink:href="#font_2_2" transform="matrix(6.97394,0,0,-6.9742186,45.227518,47.94716)"/>
<use data-text="x" xlink:href="#font_1_1" transform="matrix(9.962799,0,0,-9.963197,39.534418,74.80176)"/>
<use data-text="3" xlink:href="#font_2_3" transform="matrix(6.97394,0,0,-6.9742186,45.227518,76.29585)"/>
<use data-text="x" xlink:href="#font_1_1" transform="matrix(9.962799,0,0,-9.963197,39.534418,103.15047)"/>
<use data-text="4" xlink:href="#font_2_4" transform="matrix(6.97394,0,0,-6.9742186,45.227518,104.64456)"/>
<use data-text="x" xlink:href="#font_1_1" transform="matrix(9.962799,0,0,-9.963197,39.534418,131.49916)"/>
<use data-text="5" xlink:href="#font_2_5" transform="matrix(6.97394,0,0,-6.9742186,45.227518,132.99326)"/>
<use data-text="x" xlink:href="#font_1_1" transform="matrix(9.962799,0,0,-9.963197,39.534418,159.84786)"/>
<use data-text="6" xlink:href="#font_2_6" transform="matrix(6.97394,0,0,-6.9742186,45.227518,161.34195)"/>
<use data-text="x" xlink:href="#font_1_1" transform="matrix(9.962799,0,0,-9.963197,39.534418,188.19556)"/>
<use data-text="7" xlink:href="#font_2_7" transform="matrix(6.97394,0,0,-6.9742186,45.227518,189.68965)"/>
<use data-text="x" xlink:href="#font_1_1" transform="matrix(9.962799,0,0,-9.963197,39.534418,216.54425)"/>
<use data-text="8" xlink:href="#font_2_8" transform="matrix(6.97394,0,0,-6.9742186,45.227518,218.03835)"/>
<use data-text="y" xlink:href="#font_1_2" transform="matrix(9.962799,0,0,-9.963197,124.981128,301.36839)"/>
<use data-text="1" xlink:href="#font_2_1" transform="matrix(6.97394,0,0,-6.9742186,129.86522,302.86247)"/>
<use data-text="y" xlink:href="#font_1_2" transform="matrix(9.962799,0,0,-9.963197,153.32869,301.36839)"/>
<use data-text="2" xlink:href="#font_2_2" transform="matrix(6.97394,0,0,-6.9742186,158.21279,302.86247)"/>
<use data-text="y" xlink:href="#font_1_2" transform="matrix(9.962799,0,0,-9.963197,181.67627,301.36839)"/>
<use data-text="3" xlink:href="#font_2_3" transform="matrix(6.97394,0,0,-6.9742186,186.56037,302.86247)"/>
<use data-text="y" xlink:href="#font_1_2" transform="matrix(9.962799,0,0,-9.963197,210.02384,301.36839)"/>
<use data-text="4" xlink:href="#font_2_4" transform="matrix(6.97394,0,0,-6.9742186,214.90793,302.86247)"/>
<use data-text="y" xlink:href="#font_1_2" transform="matrix(9.962799,0,0,-9.963197,238.3714,301.36839)"/>
<use data-text="5" xlink:href="#font_2_5" transform="matrix(6.97394,0,0,-6.9742186,243.2555,302.86247)"/>
<use data-text="y" xlink:href="#font_1_2" transform="matrix(9.962799,0,0,-9.963197,266.71797,301.36839)"/>
<use data-text="6" xlink:href="#font_2_6" transform="matrix(6.97394,0,0,-6.9742186,271.60206,302.86247)"/>
<use data-text="y" xlink:href="#font_1_2" transform="matrix(9.962799,0,0,-9.963197,295.06556,301.36839)"/>
<use data-text="7" xlink:href="#font_2_7" transform="matrix(6.97394,0,0,-6.9742186,299.94966,302.86247)"/>
<use data-text="y" xlink:href="#font_1_2" transform="matrix(9.962799,0,0,-9.963197,323.4131,301.36839)"/>
<use data-text="8" xlink:href="#font_2_8" transform="matrix(6.97394,0,0,-6.9742186,328.29719,302.86247)"/>
<use data-text="y" xlink:href="#font_1_2" transform="matrix(9.962799,0,0,-9.963197,351.76069,301.36839)"/>
<use data-text="9" xlink:href="#font_2_9" transform="matrix(6.97394,0,0,-6.9742186,356.64479,302.86247)"/>
<path transform="matrix(1.00002,0,0,-1.00006,44.616518,16.707283)" stroke-width=".3985" stroke-linecap="butt" stroke-miterlimit="10" stroke-linejoin="miter" fill="none" stroke="#000000" d="M42.5202-99.21382C42.5202-36.59097 23.48355 14.1734 0 14.1734-23.48355 14.1734-42.5202-36.59097-42.5202-99.21382-42.5202-161.83667-23.48355-212.60106 0-212.60106 23.48355-212.60106 42.5202-161.83667 42.5202-99.21382ZM0-99.21382"/>
<path transform="matrix(1.00002,0,0,-1.00006,44.616518,16.707283)" stroke-width=".3985" stroke-linecap="butt" stroke-miterlimit="10" stroke-linejoin="miter" fill="none" stroke="#000000" d="M325.9883-283.4681C325.9883-259.98454 268.87837-240.94789 198.42766-240.94789 127.97696-240.94789 70.86702-259.98454 70.86702-283.4681 70.86702-306.95164 127.97696-325.9883 198.42766-325.9883 268.87837-325.9883 325.9883-306.95164 325.9883-283.4681ZM198.42766-283.4681"/>
<use data-text="&#x2022;" xlink:href="#font_3_1" transform="matrix(9.962799,0,0,-9.963197,127.168178,18.921416)"/>
<use data-text="&#x2022;" xlink:href="#font_3_1" transform="matrix(9.962799,0,0,-9.963197,155.51575,18.921416)"/>
<use data-text="&#x2022;" xlink:href="#font_3_1" transform="matrix(9.962799,0,0,-9.963197,183.8623,18.921416)"/>
<use data-text="&#x2022;" xlink:href="#font_3_1" transform="matrix(9.962799,0,0,-9.963197,212.20987,18.921416)"/>
<use data-text="&#x2022;" xlink:href="#font_3_1" transform="matrix(9.962799,0,0,-9.963197,240.55744,18.921416)"/>
<use data-text="&#x2022;" xlink:href="#font_3_1" transform="matrix(9.962799,0,0,-9.963197,268.905,18.921416)"/>
<use data-text="&#x2022;" xlink:href="#font_3_1" transform="matrix(9.962799,0,0,-9.963197,297.25257,18.921416)"/>
<use data-text="&#x2022;" xlink:href="#font_3_1" transform="matrix(9.962799,0,0,-9.963197,325.59913,18.921416)"/>
<use data-text="&#x2022;" xlink:href="#font_3_1" transform="matrix(9.962799,0,0,-9.963197,353.94673,18.921416)"/>
<use data-text="&#x2022;" xlink:href="#font_3_1" transform="matrix(9.962799,0,0,-9.963197,127.168178,47.270116)"/>
<use data-text="&#x2022;" xlink:href="#font_3_1" transform="matrix(9.962799,0,0,-9.963197,155.51575,47.270116)"/>
<use data-text="&#x2022;" xlink:href="#font_3_1" transform="matrix(9.962799,0,0,-9.963197,183.8623,47.270116)"/>
<use data-text="&#x2022;" xlink:href="#font_3_1" transform="matrix(9.962799,0,0,-9.963197,212.20987,47.270116)"/>
<use data-text="&#x2022;" xlink:href="#font_3_1" transform="matrix(9.962799,0,0,-9.963197,240.55744,47.270116)"/>
<use data-text="&#x2022;" xlink:href="#font_3_1" transform="matrix(9.962799,0,0,-9.963197,268.905,47.270116)"/>
<use data-text="&#x2022;" xlink:href="#font_3_1" transform="matrix(9.962799,0,0,-9.963197,297.25257,47.270116)"/>
<use data-text="&#x2022;" xlink:href="#font_3_1" transform="matrix(9.962799,0,0,-9.963197,325.59913,47.270116)"/>
<use data-text="&#x2022;" xlink:href="#font_3_1" transform="matrix(9.962799,0,0,-9.963197,353.94673,47.270116)"/>
<use data-text="&#x2022;" xlink:href="#font_3_1" transform="matrix(9.962799,0,0,-9.963197,127.168178,75.61882)"/>
<use data-text="&#x2022;" xlink:href="#font_3_1" transform="matrix(9.962799,0,0,-9.963197,155.51575,75.61882)"/>
<use data-text="&#x2022;" xlink:href="#font_3_1" transform="matrix(9.962799,0,0,-9.963197,183.8623,75.61882)"/>
<use data-text="&#x2022;" xlink:href="#font_3_1" transform="matrix(9.962799,0,0,-9.963197,212.20987,75.61882)"/>
<use data-text="&#x2022;" xlink:href="#font_3_1" transform="matrix(9.962799,0,0,-9.963197,240.55744,75.61882)"/>
<use data-text="&#x2022;" xlink:href="#font_3_1" transform="matrix(9.962799,0,0,-9.963197,268.905,75.61882)"/>
<use data-text="&#x2022;" xlink:href="#font_3_1" transform="matrix(9.962799,0,0,-9.963197,297.25257,75.61882)"/>
<use data-text="&#x2022;" xlink:href="#font_3_1" transform="matrix(9.962799,0,0,-9.963197,325.59913,75.61882)"/>
<use data-text="&#x2022;" xlink:href="#font_3_1" transform="matrix(9.962799,0,0,-9.963197,353.94673,75.61882)"/>
<use data-text="&#x2022;" xlink:href="#font_3_1" transform="matrix(9.962799,0,0,-9.963197,127.168178,103.96651)"/>
<use data-text="&#x2022;" xlink:href="#font_3_1" transform="matrix(9.962799,0,0,-9.963197,155.51575,103.96651)"/>
<use data-text="&#x2022;" xlink:href="#font_3_1" transform="matrix(9.962799,0,0,-9.963197,183.8623,103.96651)"/>
<use data-text="&#x2022;" xlink:href="#font_3_1" transform="matrix(9.962799,0,0,-9.963197,212.20987,103.96651)"/>
<use data-text="&#x2022;" xlink:href="#font_3_1" transform="matrix(9.962799,0,0,-9.963197,240.55744,103.96651)"/>
<use data-text="&#x2022;" xlink:href="#font_3_1" transform="matrix(9.962799,0,0,-9.963197,268.905,103.96651)"/>
<use data-text="&#x2022;" xlink:href="#font_3_1" transform="matrix(9.962799,0,0,-9.963197,297.25257,103.96651)"/>
<use data-text="&#x2022;" xlink:href="#font_3_1" transform="matrix(9.962799,0,0,-9.963197,325.59913,103.96651)"/>
<use data-text="&#x2022;" xlink:href="#font_3_1" transform="matrix(9.962799,0,0,-9.963197,353.94673,103.96651)"/>
<use data-text="&#x2022;" xlink:href="#font_3_1" transform="matrix(9.962799,0,0,-9.963197,127.168178,132.31522)"/>
<use data-text="&#x2022;" xlink:href="#font_3_1" transform="matrix(9.962799,0,0,-9.963197,155.51575,132.31522)"/>
<use data-text="&#x2022;" xlink:href="#font_3_1" transform="matrix(9.962799,0,0,-9.963197,183.8623,132.31522)"/>
<use data-text="&#x2022;" xlink:href="#font_3_1" transform="matrix(9.962799,0,0,-9.963197,212.20987,132.31522)"/>
<use data-text="&#x2022;" xlink:href="#font_3_1" transform="matrix(9.962799,0,0,-9.963197,240.55744,132.31522)"/>
<use data-text="&#x2022;" xlink:href="#font_3_1" transform="matrix(9.962799,0,0,-9.963197,268.905,132.31522)"/>
<use data-text="&#x2022;" xlink:href="#font_3_1" transform="matrix(9.962799,0,0,-9.963197,297.25257,132.31522)"/>
<use data-text="&#x2022;" xlink:href="#font_3_1" transform="matrix(9.962799,0,0,-9.963197,325.59913,132.31522)"/>
<use data-text="&#x2022;" xlink:href="#font_3_1" transform="matrix(9.962799,0,0,-9.963197,353.94673,132.31522)"/>
<use data-text="&#x2022;" xlink:href="#font_3_1" transform="matrix(9.962799,0,0,-9.963197,127.168178,160.66391)"/>
<use data-text="&#x2022;" xlink:href="#font_3_1" transform="matrix(9.962799,0,0,-9.963197,155.51575,160.66391)"/>
<use data-text="&#x2022;" xlink:href="#font_3_1" transform="matrix(9.962799,0,0,-9.963197,183.8623,160.66391)"/>
<use data-text="&#x2022;" xlink:href="#font_3_1" transform="matrix(9.962799,0,0,-9.963197,212.20987,160.66391)"/>
<use data-text="&#x2022;" xlink:href="#font_3_1" transform="matrix(9.962799,0,0,-9.963197,240.55744,160.66391)"/>
<use data-text="&#x2022;" xlink:href="#font_3_1" transform="matrix(9.962799,0,0,-9.963197,268.905,160.66391)"/>
<use data-text="&#x2022;" xlink:href="#font_3_1" transform="matrix(9.962799,0,0,-9.963197,297.25257,160.66391)"/>
<use data-text="&#x2022;" xlink:href="#font_3_1" transform="matrix(9.962799,0,0,-9.963197,325.59913,160.66391)"/>
<use data-text="&#x2022;" xlink:href="#font_3_1" transform="matrix(9.962799,0,0,-9.963197,353.94673,160.66391)"/>
<use data-text="&#x2022;" xlink:href="#font_3_1" transform="matrix(9.962799,0,0,-9.963197,127.168178,189.0126)"/>
<use data-text="&#x2022;" xlink:href="#font_3_1" transform="matrix(9.962799,0,0,-9.963197,155.51575,189.0126)"/>
<use data-text="&#x2022;" xlink:href="#font_3_1" transform="matrix(9.962799,0,0,-9.963197,183.8623,189.0126)"/>
<use data-text="&#x2022;" xlink:href="#font_3_1" transform="matrix(9.962799,0,0,-9.963197,212.20987,189.0126)"/>
<use data-text="&#x2022;" xlink:href="#font_3_1" transform="matrix(9.962799,0,0,-9.963197,240.55744,189.0126)"/>
<use data-text="&#x2022;" xlink:href="#font_3_1" transform="matrix(9.962799,0,0,-9.963197,268.905,189.0126)"/>
<use data-text="&#x2022;" xlink:href="#font_3_1" transform="matrix(9.962799,0,0,-9.963197,297.25257,189.0126)"/>
<use data-text="&#x2022;" xlink:href="#font_3_1" transform="matrix(9.962799,0,0,-9.963197,325.59913,189.0126)"/>
<use data-text="&#x2022;" xlink:href="#font_3_1" transform="matrix(9.962799,0,0,-9.963197,353.94673,189.0126)"/>
<use data-text="&#x2022;" xlink:href="#font_3_1" transform="matrix(9.962799,0,0,-9.963197,127.168178,217.3613)"/>
<use data-text="&#x2022;" xlink:href="#font_3_1" transform="matrix(9.962799,0,0,-9.963197,155.51575,217.3613)"/>
<use data-text="&#x2022;" xlink:href="#font_3_1" transform="matrix(9.962799,0,0,-9.963197,183.8623,217.3613)"/>
<use data-text="&#x2022;" xlink:href="#font_3_1" transform="matrix(9.962799,0,0,-9.963197,212.20987,217.3613)"/>
<use data-text="&#x2022;" xlink:href="#font_3_1" transform="matrix(9.962799,0,0,-9.963197,240.55744,217.3613)"/>
<use data-text="&#x2022;" xlink:href="#font_3_1" transform="matrix(9.962799,0,0,-9.963197,268.905,217.3613)"/>
<use data-text="&#x2022;" xlink:href="#font_3_1" transform="matrix(9.962799,0,0,-9.963197,297.25257,217.3613)"/>
<use data-text="&#x2022;" xlink:href="#font_3_1" transform="matrix(9.962799,0,0,-9.963197,325.59913,217.3613)"/>
<use data-text="&#x2022;" xlink:href="#font_3_1" transform="matrix(9.962799,0,0,-9.963197,353.94673,217.3613)"/>
<path transform="matrix(1.00002,0,0,-1.00006,44.616518,16.707283)" stroke-width=".3985" stroke-linecap="butt" stroke-dasharray="2.98883,2.98883" stroke-miterlimit="10" stroke-linejoin="miter" fill="none" stroke="#ff0000" d="M8.60152 5.36519C34.0362 18.907 57.76062 18.09093 80.51524 3.88974"/>
<path transform="matrix(.848347,.52946177,.5294406,-.84838089,125.13337,12.817289)" d="M1.99252 0-1.19551 1.59401 0 0-1.19551-1.59401" fill="#ff0000"/>
<path transform="matrix(1.00002,0,0,-1.00006,44.616518,16.707283)" stroke-width=".3985" stroke-linecap="butt" stroke-dasharray=".3985,1.99255" stroke-miterlimit="10" stroke-linejoin="miter" fill="none" stroke="#0000ff" d="M8.60152-4.57715C34.97629-16.4579 58.7291-14.06595 80.58855 1.67079"/>
<path transform="matrix(.8115563,-.584245,-.58422169,-.81158867,125.20668,15.036403)" d="M1.99252 0-1.19551 1.59401 0 0-1.19551-1.59401" fill="#0000ff"/>
<path transform="matrix(1.00002,0,0,-1.00006,44.616518,16.707283)" stroke-width=".3985" stroke-linecap="butt" stroke-dasharray="2.98883,2.98883" stroke-miterlimit="10" stroke-linejoin="miter" fill="none" stroke="#ff0000" d="M8.60152-51.53409C62.83665-21.27205 113.92062-22.0209 165.53528-52.83737"/>
<path transform="matrix(.85858717,.5126507,.5126302,-.8586215,210.1551,69.54781)" d="M1.99252 0-1.19551 1.59401 0 0-1.19551-1.59401" fill="#ff0000"/>
<path transform="matrix(1.00002,0,0,-1.00006,44.616518,16.707283)" stroke-width=".3985" stroke-linecap="butt" stroke-dasharray=".3985,1.99255" stroke-miterlimit="10" stroke-linejoin="miter" fill="none" stroke="#0000ff" d="M8.60152-61.46266C63.81158-89.90527 115.00883-87.45065 165.57015-54.93643"/>
<path transform="matrix(.84107688,-.5408924,-.54087087,-.8411104,210.18996,71.64703)" d="M1.99252 0-1.19551 1.59401 0 0-1.19551-1.59401" fill="#0000ff"/>
<path transform="matrix(1.00002,0,0,-1.00006,44.616518,16.707283)" stroke-width=".3985" stroke-linecap="butt" stroke-dasharray="2.98883,2.98883" stroke-miterlimit="10" stroke-linejoin="miter" fill="none" stroke="#ff0000" d="M8.60152-79.8809C62.83665-49.61885 113.92062-50.36772 165.53528-81.18419"/>
<path transform="matrix(.85858717,.5126507,.5126302,-.8586215,210.1551,97.896327)" d="M1.99252 0-1.19551 1.59401 0 0-1.19551-1.59401" fill="#ff0000"/>
<path transform="matrix(1.00002,0,0,-1.00006,44.616518,16.707283)" stroke-width=".3985" stroke-linecap="butt" stroke-dasharray=".3985,1.99255" stroke-miterlimit="10" stroke-linejoin="miter" fill="none" stroke="#0000ff" d="M8.60152-89.80946C63.81158-118.25208 115.00883-115.79745 165.57015-83.28323"/>
<path transform="matrix(.84107688,-.5408924,-.54087087,-.8411104,210.18996,99.99553)" d="M1.99252 0-1.19551 1.59401 0 0-1.19551-1.59401" fill="#0000ff"/>
<path transform="matrix(1.00002,0,0,-1.00006,44.616518,16.707283)" stroke-width=".3985" stroke-linecap="butt" stroke-dasharray="2.98883,2.98883" stroke-miterlimit="10" stroke-linejoin="miter" fill="none" stroke="#ff0000" d="M8.60152-108.26303C72.44014-72.4403 132.65003-73.178 193.87963-109.53513"/>
<path transform="matrix(.8598172,.51057067,.51055029,-.85985156,238.50002,126.24896)" d="M1.99252 0-1.19551 1.59401 0 0-1.19551-1.59401" fill="#ff0000"/>
<path transform="matrix(1.00002,0,0,-1.00006,44.616518,16.707283)" stroke-width=".3985" stroke-linecap="butt" stroke-dasharray=".3985,1.99255" stroke-miterlimit="10" stroke-linejoin="miter" fill="none" stroke="#0000ff" d="M8.60152-118.20589C83.05965-157.73775 152.47484-155.26892 222.25055-111.60922"/>
<path transform="matrix(.847717,-.5304418,-.5304206,-.84775087,266.87153,128.32321)" d="M1.99252 0-1.19551 1.59401 0 0-1.19551-1.59401" fill="#0000ff"/>
<path transform="matrix(1.00002,0,0,-1.00006,44.616518,16.707283)" stroke-width=".3985" stroke-linecap="butt" stroke-dasharray="2.98883,2.98883" stroke-miterlimit="10" stroke-linejoin="miter" fill="none" stroke="#ff0000" d="M8.60152-136.60984C72.44014-100.78712 132.65003-101.52481 193.87963-137.88195"/>
<path transform="matrix(.8598172,.51057067,.51055029,-.85985156,238.50002,154.59748)" d="M1.99252 0-1.19551 1.59401 0 0-1.19551-1.59401" fill="#ff0000"/>
<path transform="matrix(1.00002,0,0,-1.00006,44.616518,16.707283)" stroke-width=".3985" stroke-linecap="butt" stroke-dasharray=".3985,1.99255" stroke-miterlimit="10" stroke-linejoin="miter" fill="none" stroke="#0000ff" d="M8.60152-146.5527C83.05965-186.08455 152.47484-183.61574 222.25055-139.95604"/>
<path transform="matrix(.847717,-.5304418,-.5304206,-.84775087,266.87153,156.67173)" d="M1.99252 0-1.19551 1.59401 0 0-1.19551-1.59401" fill="#0000ff"/>
<path transform="matrix(1.00002,0,0,-1.00006,44.616518,16.707283)" stroke-width=".3985" stroke-linecap="butt" stroke-dasharray="2.98883,2.98883" stroke-miterlimit="10" stroke-linejoin="miter" fill="none" stroke="#ff0000" d="M8.60152-164.9985C91.65373-118.06369 170.11342-118.78828 250.5702-166.23395"/>
<path transform="matrix(.8613472,.50796046,.5079402,-.8613816,295.19175,182.95117)" d="M1.99252 0-1.19551 1.59401 0 0-1.19551-1.59401" fill="#ff0000"/>
<path transform="matrix(1.00002,0,0,-1.00006,44.616518,16.707283)" stroke-width=".3985" stroke-linecap="butt" stroke-dasharray=".3985,1.99255" stroke-miterlimit="10" stroke-linejoin="miter" fill="none" stroke="#0000ff" d="M8.60152-174.92996C102.29404-225.55368 189.9454-223.07402 278.93656-168.29047"/>
<path transform="matrix(.85154709,-.52423146,-.5242105,-.8515811,323.55867,185.00785)" d="M1.99252 0-1.19551 1.59401 0 0-1.19551-1.59401" fill="#0000ff"/>
<path transform="matrix(1.00002,0,0,-1.00006,44.616518,16.707283)" stroke-width=".3985" stroke-linecap="butt" stroke-dasharray="2.98883,2.98883" stroke-miterlimit="10" stroke-linejoin="miter" fill="none" stroke="#ff0000" d="M8.60152-193.3494C101.26424-140.86397 188.84803-141.5875 278.91606-194.58243"/>
<path transform="matrix(.86183729,.5071304,.5071101,-.86187168,323.53813,211.30136)" d="M1.99252 0-1.19551 1.59401 0 0-1.19551-1.59401" fill="#ff0000"/>
<path transform="matrix(1.00002,0,0,-1.00006,44.616518,16.707283)" stroke-width=".3985" stroke-linecap="butt" stroke-dasharray=".3985,1.99255" stroke-miterlimit="10" stroke-linejoin="miter" fill="none" stroke="#0000ff" d="M8.60152-203.25078C92.67548-248.33147 171.20829-245.86246 250.59304-196.64269"/>
<path transform="matrix(.8498871,-.5269516,-.5269306,-.849921,295.21458,213.36179)" d="M1.99252 0-1.19551 1.59401 0 0-1.19551-1.59401" fill="#0000ff"/>
</svg>
