<svg xmlns="http://www.w3.org/2000/svg" xmlns:xlink="http://www.w3.org/1999/xlink" xmlns:inkscape="http://www.inkscape.org/namespaces/inkscape" version="1.1" width="372" height="379" viewBox="0 0 372 379">
<defs>
<path id="font_1_3" d="M.45199586 .43138124C.45199586 .43537904 .44898988 .44137574 .44198609 .44137574 .43099977 .44137574 .3909912 .4013672 .37399293 .37236024 .35198976 .42637635 .31298829 .4423828 .2809906 .4423828 .16299439 .4423828 .039993287 .29434205 .039993287 .14929199 .039993287 .05126953 .09899902-.0107421879 .17199707-.0107421879 .21499634-.0107421879 .2539978 .013244629 .2899933 .04925537 .2809906 .014251709 .24798584-.1211853 .24499512-.1302185 .23699951-.1583252 .22898865-.16233826 .17298889-.16334534 .1599884-.16334534 .1499939-.16334534 .1499939-.18334961 .1499939-.18434143 .1499939-.19433594 .16299439-.19433594 .19499207-.19433594 .22999573-.19134522 .2630005-.19134522 .29699708-.19134522 .33299256-.19433594 .3659973-.19433594 .37098695-.19433594 .38398744-.19433594 .38398744-.17434693 .38398744-.16334534 .37399293-.16334534 .35798646-.16334534 .30999757-.16334534 .30999757-.15631104 .30999757-.14727783 .30999757-.14025879 .31199647-.13423157 .31399537-.12519837L.45199586 .43138124M.1749878 .011245728C.114990238 .011245728 .11099243 .088272098 .11099243 .105285648 .11099243 .1532898 .13999939 .2623291 .15699768 .30433656 .18798828 .37835694 .23999024 .42037965 .2809906 .42037965 .34599305 .42037965 .3600006 .33935548 .3600006 .33235169 .3600006 .32633973 .30499269 .107284549 .3019867 .103271488 .2869873 .07527161 .23098755 .011245728 .1749878 .011245728Z"/>
<path id="font_1_2" d="M.04499817-.122177127C.036987306-.15631104 .034988405-.16334534-.009002686-.16334534-.021011353-.16334534-.03201294-.16334534-.03201294-.18234253-.03201294-.19033814-.027008057-.19433594-.019012452-.19433594 .0079956059-.19433594 .036987306-.19134522 .06498718-.19134522 .09799194-.19134522 .13198853-.19433594 .1639862-.19433594 .16899109-.19433594 .18199158-.19433594 .18199158-.17434693 .18199158-.16334534 .17199707-.16334534 .1579895-.16334534 .10798645-.16334534 .10798645-.15631104 .10798645-.14727783 .10798645-.13523865 .1499939 .028259278 .15699768 .053268434 .16999817 .024261475 .19799805-.0107421879 .24899292-.0107421879 .36499024-.0107421879 .48999024 .13528443 .48999024 .28233338 .48999024 .37635804 .43299867 .4423828 .35699464 .4423828 .30699159 .4423828 .25898744 .40637208 .22599793 .36735536 .21598816 .42137147 .17298889 .4423828 .13598633 .4423828 .08999634 .4423828 .070999149 .4033661 .06199646 .38536073 .04399109 .35134889 .0309906 .29133607 .0309906 .28833009 .0309906 .27833558 .040985109 .27833558 .042999269 .27833558 .052993776 .27833558 .053985597 .2793274 .05999756 .30133058 .07699585 .37236024 .09700012 .42037965 .1329956 .42037965 .1499939 .42037965 .1639862 .41236878 .1639862 .37435914 .1639862 .35134889 .16099549 .3403473 .15699768 .323349L.04499817-.122177127M.22099304 .3123474C.22799683 .33935548 .25498963 .36735536 .272995 .38235475 .30799867 .41337586 .33699037 .42037965 .35398866 .42037965 .3939972 .42037965 .41799928 .38536073 .41799928 .32633973 .41799928 .26733399 .3849945 .15229798 .36698915 .11428833 .33299256 .044265748 .2849884 .011245728 .24798584 .011245728 .18199158 .011245728 .16899109 .0942688 .16899109 .10028076 .16899109 .10227966 .16899109 .104278568 .17199707 .11628723L.22099304 .3123474Z"/>
<path id="font_1_1" d="M.23899842 .68333438C.23899842 .6843262 .23899842 .69433596 .22599793 .69433596 .20298767 .69433596 .12998963 .6863251 .10398865 .6843262 .09599304 .68333438 .084991458 .6823273 .084991458 .6643219 .084991458 .6523285 .09399414 .6523285 .10899353 .6523285 .15699768 .6523285 .15899658 .6453247 .15899658 .6353302 .15899658 .6283264 .1499939 .5943451 .14498902 .573349L.06298828 .24731446C.050994874 .1973114 .04699707 .18130493 .04699707 .14628601 .04699707 .05126953 .099990848-.0107421879 .17399597-.0107421879 .2919922-.0107421879 .4149933 .1382904 .4149933 .28233338 .4149933 .37335206 .3619995 .4423828 .28199769 .4423828 .23599243 .4423828 .19499207 .41337586 .16499329 .38235475L.23899842 .68333438M.14498902 .30534364C.15098572 .3273468 .15098572 .3293457 .1599884 .3403473 .20899964 .405365 .2539978 .42037965 .27999879 .42037965 .31599427 .42037965 .34298707 .3903656 .34298707 .32633973 .34298707 .26733399 .30999757 .15229798 .2919922 .11428833 .25898744 .04725647 .21299744 .011245728 .17399597 .011245728 .13999939 .011245728 .10699463 .038253786 .10699463 .11227417 .10699463 .13128662 .10699463 .15029907 .12298584 .21331787L.14498902 .30534364Z"/>
<path id="font_1_4" d="M.08799744 .059265138C.084991458 .044265748 .07899475 .021255494 .07899475 .01625061 .07899475-.0017547608 .09298706-.0107421879 .10798645-.0107421879 .11999512-.0107421879 .13798523-.002746582 .14498902 .01725769 .14698792 .021255494 .18099976 .15730286 .18499756 .17530823 .19299317 .20831299 .21099854 .27833558 .21699524 .30534364 .22099304 .31835938 .24899292 .36535646 .272995 .38734437 .2809906 .39434815 .30999757 .42037965 .35299684 .42037965 .3789978 .42037965 .3939972 .4083557 .394989 .4083557 .36499024 .40335084 .34298707 .37934876 .34298707 .35334779 .34298707 .33735658 .35398866 .31835938 .3809967 .31835938 .4079895 .31835938 .43598939 .34135438 .43598939 .37734986 .43598939 .41235353 .4039917 .4423828 .35299684 .4423828 .28799439 .4423828 .24398804 .39335633 .22499085 .36535646 .21699524 .4103546 .18099976 .4423828 .13398743 .4423828 .08799744 .4423828 .068984989 .40335084 .05999756 .38534547 .041992189 .35134889 .0289917 .29133607 .0289917 .28834535 .0289917 .27833558 .038986207 .27833558 .040985109 .27833558 .050994874 .27833558 .051986696 .27934266 .057998659 .30134584 .07499695 .37234498 .09498596 .42037965 .1309967 .42037965 .147995 .42037965 .1619873 .41235353 .1619873 .37435914 .1619873 .35334779 .15899658 .3423462 .1459961 .29034425L.08799744 .059265138Z"/>
<path id="font_1_5" d="M.3909912 .37405396C.36299134 .37304688 .34298707 .3510437 .34298707 .32904054 .34298707 .31503297 .35198976 .30003358 .37399293 .30003358 .3959961 .30003358 .41999818 .31703187 .41999818 .35603334 .41999818 .40124513 .3769989 .4423828 .30099488 .4423828 .16899109 .4423828 .13198853 .3400421 .13198853 .29605104 .13198853 .21820069 .20599365 .20323181 .23498535 .19725037 .2869873 .18727112 .33898927 .17628479 .33898927 .12133789 .33898927 .095336917 .31599427 .011245728 .19599915 .011245728 .18199158 .011245728 .10499573 .011245728 .08198547 .064331058 .11999512 .059326173 .14498902 .08934021 .14498902 .11734009 .14498902 .14033509 .1289978 .15234375 .10798645 .15234375 .08198547 .15234375 .051986696 .1313324 .051986696 .08633423 .051986696 .029281617 .10899353-.0107421879 .19499207-.0107421879 .35699464-.0107421879 .3959961 .1103363 .3959961 .15533448 .3959961 .19125366 .3769989 .21620178 .36499024 .22817993 .33799745 .25613404 .30899049 .26112367 .2649994 .27009584 .22898865 .27807618 .18899536 .2850647 .18899536 .33003236 .18899536 .3590393 .21299744 .42037965 .30099488 .42037965 .32598878 .42037965 .37599183 .41333009 .3909912 .37405396Z"/>
<path id="font_2_1" d="M.45999146 .31976319C.45999146 .39982606 .45498658 .47988893 .41999818 .5539398 .37399293 .65000918 .2919922 .6660156 .25 .6660156 .18998719 .6660156 .116989139 .64001467 .07598877 .54693606 .04399109 .47789 .038986207 .39982606 .038986207 .31976319 .038986207 .24472046 .042999269 .15464783 .083999637 .07859802 .1269989-.0024719239 .19999695-.022460938 .24899292-.022460938 .30299378-.022460938 .3789978-.0014648438 .4229889 .09359741 .45498658 .16265869 .45999146 .2407074 .45999146 .31976319M.24899292-.00047302247C.20999146-.00047302247 .15098572 .024551392 .1329956 .12062073 .12199402 .18066406 .12199402 .2727356 .12199402 .3317871 .12199402 .39582826 .12199402 .46188355 .12998963 .5159149 .14898682 .63500979 .22399903 .64401248 .24899292 .64401248 .28199769 .64401248 .34799195 .6259918 .36698915 .52693179 .3769989 .47088624 .3769989 .39482118 .3769989 .3317871 .3769989 .25672914 .3769989 .18867493 .3659973 .12461853 .35099793 .029556275 .2939911-.00047302247 .24899292-.00047302247Z"/>
<path id="font_2_2" d="M.2939911 .64004519C.2939911 .66400149 .2939911 .6660156 .2709961 .6660156 .20899964 .60227969 .12098694 .60227969 .08898926 .60227969V.57128909C.10899353 .57128909 .16799927 .57128909 .21998596 .5972748V.07902527C.21998596 .042999269 .21699524 .0309906 .1269989 .0309906H.09498596V0C.12998963 .0029907227 .21699524 .0029907227 .25698854 .0029907227 .29699708 .0029907227 .38398744 .0029907227 .4189911 0V.0309906H.3869934C.29699708 .0309906 .2939911 .041992189 .2939911 .07902527V.64004519Z"/>
</defs>
<use data-text="q" xlink:href="#font_1_3" transform="matrix(9.962799,0,0,-9.963197,42.21447,20.692282)"/>
<use data-text="p" xlink:href="#font_1_2" transform="matrix(9.962799,0,0,-9.963197,27.93618,20.692282)"/>
<use data-text="b" xlink:href="#font_1_1" transform="matrix(9.962799,0,0,-9.963197,14.130905,22.975419)"/>
<use data-text="r" xlink:href="#font_1_4" transform="matrix(9.962799,0,0,-9.963197,56.404756,21.661339)"/>
<use data-text="s" xlink:href="#font_1_5" transform="matrix(9.962799,0,0,-9.963197,70.629039,21.661339)"/>
<path transform="matrix(1.00002,0,0,-1.00006,44.616518,47.86491)" stroke-width=".3985" stroke-linecap="butt" stroke-miterlimit="10" stroke-linejoin="miter" fill="none" stroke="#000000" d="M42.5202 28.3468C42.5202 38.13162 23.48355 46.06355 0 46.06355-23.48355 46.06355-42.5202 38.13162-42.5202 28.3468-42.5202 18.56198-23.48355 10.63005 0 10.63005 23.48355 10.63005 42.5202 18.56198 42.5202 28.3468ZM0 28.3468"/>
<use data-text="0" xlink:href="#font_2_1" transform="matrix(9.962799,0,0,-9.963197,20.865044,79.4238)"/>
<use data-text="1" xlink:href="#font_2_2" transform="matrix(9.962799,0,0,-9.963197,63.38589,79.4238)"/>
<path transform="matrix(1.00002,0,0,-1.00006,44.616518,47.86491)" stroke-width=".3985" stroke-linecap="butt" stroke-miterlimit="10" stroke-linejoin="miter" fill="none" stroke="#000000" d="M42.5202-28.3468C42.5202-18.56198 23.48355-10.63005 0-10.63005-23.48355-10.63005-42.5202-18.56198-42.5202-28.3468-42.5202-38.13162-23.48355-46.06355 0-46.06355 23.48355-46.06355 42.5202-38.13162 42.5202-28.3468ZM0-28.3468"/>
<path transform="matrix(1.00002,0,0,-1.00006,44.616518,47.86491)" stroke-width=".3985" stroke-linecap="butt" stroke-miterlimit="10" stroke-linejoin="miter" fill="none" stroke="#000000" d="M-27.47496 21.36769-22.48091-18.57661"/>
<path transform="matrix(.12405248,.9923095,.9922699,-.124057438,21.922013,64.737659)" d="M4.21463 0 .64343 1.34572 1.8178 0 .64343-1.34572Z"/>
<path transform="matrix(.12405248,.9923095,.9922699,-.124057438,21.922013,64.737659)" stroke-width=".3985" stroke-linecap="butt" stroke-miterlimit="10" stroke-linejoin="miter" fill="none" stroke="#000000" d="M4.21463 0 .64343 1.34572 1.8178 0 .64343-1.34572Z"/>
<path transform="matrix(1.00002,0,0,-1.00006,44.616518,47.86491)" stroke-width=".3985" stroke-linecap="butt" stroke-miterlimit="10" stroke-linejoin="miter" fill="none" stroke="#000000" d="M14.88103 22.68222 20.03934-18.57661"/>
<path transform="matrix(.12404248,.9923095,.9922699,-.124047439,64.44313,64.737659)" d="M4.21463 0 .64343 1.34572 1.8178 0 .64343-1.34572Z"/>
<path transform="matrix(.12404248,.9923095,.9922699,-.124047439,64.44313,64.737659)" stroke-width=".3985" stroke-linecap="butt" stroke-miterlimit="10" stroke-linejoin="miter" fill="none" stroke="#000000" d="M4.21463 0 .64343 1.34572 1.8178 0 .64343-1.34572Z"/>
<path transform="matrix(1.00002,0,0,-1.00006,44.616518,47.86491)" stroke-width=".3985" stroke-linecap="butt" stroke-miterlimit="10" stroke-linejoin="miter" fill="none" stroke="#000000" d="M-15.11356 21.71364-20.82985-18.58334"/>
<path transform="matrix(-.14043282,.9901094,.99006989,.14043843,24.027544,64.74817)" d="M4.21463 0 .64343 1.34572 1.8178 0 .64343-1.34572Z"/>
<path transform="matrix(-.14043282,.9901094,.99006989,.14043843,24.027544,64.74817)" stroke-width=".3985" stroke-linecap="butt" stroke-miterlimit="10" stroke-linejoin="miter" fill="none" stroke="#000000" d="M4.21463 0 .64343 1.34572 1.8178 0 .64343-1.34572Z"/>
<path transform="matrix(1.00002,0,0,-1.00006,44.616518,47.86491)" stroke-width=".3985" stroke-linecap="butt" stroke-miterlimit="10" stroke-linejoin="miter" fill="none" stroke="#000000" d="M-2.82072 21.71364-20.06041-18.7976"/>
<path transform="matrix(-.39156784,.9201752,.9201384,.39158348,25.228497,65.0826)" d="M4.21463 0 .64343 1.34572 1.8178 0 .64343-1.34572Z"/>
<path transform="matrix(-.39156784,.9201752,.9201384,.39158348,25.228497,65.0826)" stroke-width=".3985" stroke-linecap="butt" stroke-miterlimit="10" stroke-linejoin="miter" fill="none" stroke="#000000" d="M4.21463 0 .64343 1.34572 1.8178 0 .64343-1.34572Z"/>
<path transform="matrix(1.00002,0,0,-1.00006,44.616518,47.86491)" stroke-width=".3985" stroke-linecap="butt" stroke-miterlimit="10" stroke-linejoin="miter" fill="none" stroke="#000000" d="M22.72615 22.68222-19.10135-19.44269"/>
<path transform="matrix(-.7045841,.70962259,.7095942,.70461228,26.725398,66.089488)" d="M4.21463 0 .64343 1.34572 1.8178 0 .64343-1.34572Z"/>
<path transform="matrix(-.7045841,.70962259,.7095942,.70461228,26.725398,66.089488)" stroke-width=".3985" stroke-linecap="butt" stroke-miterlimit="10" stroke-linejoin="miter" fill="none" stroke="#000000" d="M4.21463 0 .64343 1.34572 1.8178 0 .64343-1.34572Z"/>
<use data-text="q" xlink:href="#font_1_3" transform="matrix(9.962799,0,0,-9.963197,183.95131,162.43479)"/>
<use data-text="p" xlink:href="#font_1_2" transform="matrix(9.962799,0,0,-9.963197,169.67302,162.43479)"/>
<use data-text="b" xlink:href="#font_1_1" transform="matrix(9.962799,0,0,-9.963197,155.86774,164.71892)"/>
<use data-text="r" xlink:href="#font_1_4" transform="matrix(9.962799,0,0,-9.963197,198.14159,163.40384)"/>
<use data-text="s" xlink:href="#font_1_5" transform="matrix(9.962799,0,0,-9.963197,212.36588,163.40384)"/>
<path transform="matrix(1.00002,0,0,-1.00006,44.616518,47.86491)" stroke-width=".3985" stroke-linecap="butt" stroke-miterlimit="10" stroke-linejoin="miter" fill="none" stroke="#000000" d="M184.25424-113.38724C184.25424-103.60242 165.2176-95.67049 141.73404-95.67049 118.25049-95.67049 99.21384-103.60242 99.21384-113.38724 99.21384-123.17204 118.25049-131.10399 141.73404-131.10399 165.2176-131.10399 184.25424-123.17204 184.25424-113.38724ZM141.73404-113.38724"/>
<use data-text="0" xlink:href="#font_2_1" transform="matrix(9.962799,0,0,-9.963197,162.60189,221.1663)"/>
<use data-text="1" xlink:href="#font_2_2" transform="matrix(9.962799,0,0,-9.963197,205.12274,221.1663)"/>
<path transform="matrix(1.00002,0,0,-1.00006,44.616518,47.86491)" stroke-width=".3985" stroke-linecap="butt" stroke-miterlimit="10" stroke-linejoin="miter" fill="none" stroke="#000000" d="M184.25424-170.08086C184.25424-160.29604 165.2176-152.3641 141.73404-152.3641 118.25049-152.3641 99.21384-160.29604 99.21384-170.08086 99.21384-179.86566 118.25049-187.7976 141.73404-187.7976 165.2176-187.7976 184.25424-179.86566 184.25424-170.08086ZM141.73404-170.08086"/>
<path transform="matrix(1.00002,0,0,-1.00006,44.616518,47.86491)" stroke-width=".3985" stroke-linecap="butt" stroke-miterlimit="10" stroke-linejoin="miter" fill="none" stroke="#000000" d="M114.25908-120.36633 119.25313-160.31067"/>
<path transform="matrix(.12405248,.9923095,.9922699,-.124057438,163.65888,206.48021)" d="M4.21463 0 .64343 1.34572 1.8178 0 .64343-1.34572Z"/>
<path transform="matrix(.12405248,.9923095,.9922699,-.124057438,163.65888,206.48021)" stroke-width=".3985" stroke-linecap="butt" stroke-miterlimit="10" stroke-linejoin="miter" fill="none" stroke="#000000" d="M4.21463 0 .64343 1.34572 1.8178 0 .64343-1.34572Z"/>
<path transform="matrix(1.00002,0,0,-1.00006,44.616518,47.86491)" stroke-width=".3985" stroke-linecap="butt" stroke-miterlimit="10" stroke-linejoin="miter" fill="none" stroke="#000000" d="M156.61508-119.0518 161.77338-160.31067"/>
<path transform="matrix(.12404248,.9923095,.9922699,-.124047439,206.18001,206.48021)" d="M4.21463 0 .64343 1.34572 1.8178 0 .64343-1.34572Z"/>
<path transform="matrix(.12404248,.9923095,.9922699,-.124047439,206.18001,206.48021)" stroke-width=".3985" stroke-linecap="butt" stroke-miterlimit="10" stroke-linejoin="miter" fill="none" stroke="#000000" d="M4.21463 0 .64343 1.34572 1.8178 0 .64343-1.34572Z"/>
<path transform="matrix(1.00002,0,0,-1.00006,44.616518,47.86491)" stroke-width=".3985" stroke-linecap="butt" stroke-miterlimit="10" stroke-linejoin="miter" fill="none" stroke="#000000" d="M126.62047-120.0204 120.90419-160.3174"/>
<path transform="matrix(-.14043282,.9901094,.99006989,.14043843,165.76442,206.4907)" d="M4.21463 0 .64343 1.34572 1.8178 0 .64343-1.34572Z"/>
<path transform="matrix(-.14043282,.9901094,.99006989,.14043843,165.76442,206.4907)" stroke-width=".3985" stroke-linecap="butt" stroke-miterlimit="10" stroke-linejoin="miter" fill="none" stroke="#000000" d="M4.21463 0 .64343 1.34572 1.8178 0 .64343-1.34572Z"/>
<path transform="matrix(1.00002,0,0,-1.00006,44.616518,47.86491)" stroke-width=".3985" stroke-linecap="butt" stroke-miterlimit="10" stroke-linejoin="miter" fill="none" stroke="#000000" d="M138.91332-120.0204 121.67361-160.53165"/>
<path transform="matrix(-.39156784,.9201752,.9201384,.39158348,166.96537,206.82517)" d="M4.21463 0 .64343 1.34572 1.8178 0 .64343-1.34572Z"/>
<path transform="matrix(-.39156784,.9201752,.9201384,.39158348,166.96537,206.82517)" stroke-width=".3985" stroke-linecap="butt" stroke-miterlimit="10" stroke-linejoin="miter" fill="none" stroke="#000000" d="M4.21463 0 .64343 1.34572 1.8178 0 .64343-1.34572Z"/>
<path transform="matrix(1.00002,0,0,-1.00006,44.616518,47.86491)" stroke-width=".3985" stroke-linecap="butt" stroke-miterlimit="10" stroke-linejoin="miter" fill="none" stroke="#000000" d="M169.27797-119.0518 163.4244-160.3174"/>
<path transform="matrix(-.14043282,.9901094,.99006989,.14043843,208.28548,206.4907)" d="M4.21463 0 .64343 1.34572 1.8178 0 .64343-1.34572Z"/>
<path transform="matrix(-.14043282,.9901094,.99006989,.14043843,208.28548,206.4907)" stroke-width=".3985" stroke-linecap="butt" stroke-miterlimit="10" stroke-linejoin="miter" fill="none" stroke="#000000" d="M4.21463 0 .64343 1.34572 1.8178 0 .64343-1.34572Z"/>
<use data-text="q" xlink:href="#font_1_3" transform="matrix(9.962799,0,0,-9.963197,325.68815,20.692282)"/>
<use data-text="p" xlink:href="#font_1_2" transform="matrix(9.962799,0,0,-9.963197,311.40986,20.692282)"/>
<use data-text="b" xlink:href="#font_1_1" transform="matrix(9.962799,0,0,-9.963197,297.60459,22.975419)"/>
<use data-text="r" xlink:href="#font_1_4" transform="matrix(9.962799,0,0,-9.963197,339.87846,21.661339)"/>
<use data-text="s" xlink:href="#font_1_5" transform="matrix(9.962799,0,0,-9.963197,354.10273,21.661339)"/>
<path transform="matrix(1.00002,0,0,-1.00006,44.616518,47.86491)" stroke-width=".3985" stroke-linecap="butt" stroke-miterlimit="10" stroke-linejoin="miter" fill="none" stroke="#000000" d="M325.9883 28.3468C325.9883 38.13162 306.95164 46.06355 283.4681 46.06355 259.98454 46.06355 240.94789 38.13162 240.94789 28.3468 240.94789 18.56198 259.98454 10.63005 283.4681 10.63005 306.95164 10.63005 325.9883 18.56198 325.9883 28.3468ZM283.4681 28.3468"/>
<use data-text="0" xlink:href="#font_2_1" transform="matrix(9.962799,0,0,-9.963197,304.3387,79.4238)"/>
<use data-text="1" xlink:href="#font_2_2" transform="matrix(9.962799,0,0,-9.963197,346.86058,79.4238)"/>
<path transform="matrix(1.00002,0,0,-1.00006,44.616518,47.86491)" stroke-width=".3985" stroke-linecap="butt" stroke-miterlimit="10" stroke-linejoin="miter" fill="none" stroke="#000000" d="M325.9883-28.3468C325.9883-18.56198 306.95164-10.63005 283.4681-10.63005 259.98454-10.63005 240.94789-18.56198 240.94789-28.3468 240.94789-38.13162 259.98454-46.06355 283.4681-46.06355 306.95164-46.06355 325.9883-38.13162 325.9883-28.3468ZM283.4681-28.3468"/>
<path transform="matrix(1.00002,0,0,-1.00006,44.616518,47.86491)" stroke-width=".3985" stroke-linecap="butt" stroke-miterlimit="10" stroke-linejoin="miter" fill="none" stroke="#000000" d="M255.99314 21.36769 260.98719-18.57661"/>
<path transform="matrix(.12405248,.9923095,.9922699,-.124057438,305.39576,64.737659)" d="M4.21463 0 .64343 1.34572 1.8178 0 .64343-1.34572Z"/>
<path transform="matrix(.12405248,.9923095,.9922699,-.124057438,305.39576,64.737659)" stroke-width=".3985" stroke-linecap="butt" stroke-miterlimit="10" stroke-linejoin="miter" fill="none" stroke="#000000" d="M4.21463 0 .64343 1.34572 1.8178 0 .64343-1.34572Z"/>
<path transform="matrix(1.00002,0,0,-1.00006,44.616518,47.86491)" stroke-width=".3985" stroke-linecap="butt" stroke-miterlimit="10" stroke-linejoin="miter" fill="none" stroke="#000000" d="M298.34913 22.68222 303.50743-18.57661"/>
<path transform="matrix(.12404248,.9923095,.9922699,-.124047439,347.9169,64.737659)" d="M4.21463 0 .64343 1.34572 1.8178 0 .64343-1.34572Z"/>
<path transform="matrix(.12404248,.9923095,.9922699,-.124047439,347.9169,64.737659)" stroke-width=".3985" stroke-linecap="butt" stroke-miterlimit="10" stroke-linejoin="miter" fill="none" stroke="#000000" d="M4.21463 0 .64343 1.34572 1.8178 0 .64343-1.34572Z"/>
<path transform="matrix(1.00002,0,0,-1.00006,44.616518,47.86491)" stroke-width=".3985" stroke-linecap="butt" stroke-miterlimit="10" stroke-linejoin="miter" fill="none" stroke="#000000" d="M268.3545 21.71364 262.63825-18.58334"/>
<path transform="matrix(-.14043282,.9901094,.99006989,.14043843,307.5013,64.74817)" d="M4.21463 0 .64343 1.34572 1.8178 0 .64343-1.34572Z"/>
<path transform="matrix(-.14043282,.9901094,.99006989,.14043843,307.5013,64.74817)" stroke-width=".3985" stroke-linecap="butt" stroke-miterlimit="10" stroke-linejoin="miter" fill="none" stroke="#000000" d="M4.21463 0 .64343 1.34572 1.8178 0 .64343-1.34572Z"/>
<path transform="matrix(1.00002,0,0,-1.00006,44.616518,47.86491)" stroke-width=".3985" stroke-linecap="butt" stroke-miterlimit="10" stroke-linejoin="miter" fill="none" stroke="#000000" d="M286.28883 21.71364 303.52854-18.7976"/>
<path transform="matrix(.39156784,.9201752,.9201384,-.39158348,347.47834,65.0826)" d="M4.21463 0 .64343 1.34572 1.8178 0 .64343-1.34572Z"/>
<path transform="matrix(.39156784,.9201752,.9201384,-.39158348,347.47834,65.0826)" stroke-width=".3985" stroke-linecap="butt" stroke-miterlimit="10" stroke-linejoin="miter" fill="none" stroke="#000000" d="M4.21463 0 .64343 1.34572 1.8178 0 .64343-1.34572Z"/>
<path transform="matrix(1.00002,0,0,-1.00006,44.616518,47.86491)" stroke-width=".3985" stroke-linecap="butt" stroke-miterlimit="10" stroke-linejoin="miter" fill="none" stroke="#000000" d="M306.19425 22.68222 264.36674-19.44269"/>
<path transform="matrix(-.7045841,.70962259,.7095942,.70461228,310.19917,66.089488)" d="M4.21463 0 .64343 1.34572 1.8178 0 .64343-1.34572Z"/>
<path transform="matrix(-.7045841,.70962259,.7095942,.70461228,310.19917,66.089488)" stroke-width=".3985" stroke-linecap="butt" stroke-miterlimit="10" stroke-linejoin="miter" fill="none" stroke="#000000" d="M4.21463 0 .64343 1.34572 1.8178 0 .64343-1.34572Z"/>
<use data-text="q" xlink:href="#font_1_3" transform="matrix(9.962799,0,0,-9.963197,42.21447,304.17729)"/>
<use data-text="p" xlink:href="#font_1_2" transform="matrix(9.962799,0,0,-9.963197,27.93618,304.17729)"/>
<use data-text="b" xlink:href="#font_1_1" transform="matrix(9.962799,0,0,-9.963197,14.130905,306.4614)"/>
<use data-text="r" xlink:href="#font_1_4" transform="matrix(9.962799,0,0,-9.963197,56.404756,305.1463)"/>
<use data-text="s" xlink:href="#font_1_5" transform="matrix(9.962799,0,0,-9.963197,70.629039,305.1463)"/>
<path transform="matrix(1.00002,0,0,-1.00006,44.616518,47.86491)" stroke-width=".3985" stroke-linecap="butt" stroke-miterlimit="10" stroke-linejoin="miter" fill="none" stroke="#000000" d="M42.5202-255.12128C42.5202-245.33647 23.48355-237.40453 0-237.40453-23.48355-237.40453-42.5202-245.33647-42.5202-255.12128-42.5202-264.9061-23.48355-272.83805 0-272.83805 23.48355-272.83805 42.5202-264.9061 42.5202-255.12128ZM0-255.12128"/>
<use data-text="0" xlink:href="#font_2_1" transform="matrix(9.962799,0,0,-9.963197,20.865044,362.90879)"/>
<use data-text="1" xlink:href="#font_2_2" transform="matrix(9.962799,0,0,-9.963197,63.38589,362.90879)"/>
<path transform="matrix(1.00002,0,0,-1.00006,44.616518,47.86491)" stroke-width=".3985" stroke-linecap="butt" stroke-miterlimit="10" stroke-linejoin="miter" fill="none" stroke="#000000" d="M42.5202-311.8149C42.5202-302.0301 23.48355-294.09815 0-294.09815-23.48355-294.09815-42.5202-302.0301-42.5202-311.8149-42.5202-321.59974-23.48355-329.53166 0-329.53166 23.48355-329.53166 42.5202-321.59974 42.5202-311.8149ZM0-311.8149"/>
<path transform="matrix(1.00002,0,0,-1.00006,44.616518,47.86491)" stroke-width=".3985" stroke-linecap="butt" stroke-miterlimit="10" stroke-linejoin="miter" fill="none" stroke="#000000" d="M-27.47496-262.1004-22.48091-302.0447"/>
<path transform="matrix(.12405248,.9923095,.9922699,-.124057438,21.922013,348.22276)" d="M4.21463 0 .64343 1.34572 1.8178 0 .64343-1.34572Z"/>
<path transform="matrix(.12405248,.9923095,.9922699,-.124057438,21.922013,348.22276)" stroke-width=".3985" stroke-linecap="butt" stroke-miterlimit="10" stroke-linejoin="miter" fill="none" stroke="#000000" d="M4.21463 0 .64343 1.34572 1.8178 0 .64343-1.34572Z"/>
<path transform="matrix(1.00002,0,0,-1.00006,44.616518,47.86491)" stroke-width=".3985" stroke-linecap="butt" stroke-miterlimit="10" stroke-linejoin="miter" fill="none" stroke="#000000" d="M14.88103-260.78587 20.03934-302.0447"/>
<path transform="matrix(.12404248,.9923095,.9922699,-.124047439,64.44313,348.22276)" d="M4.21463 0 .64343 1.34572 1.8178 0 .64343-1.34572Z"/>
<path transform="matrix(.12404248,.9923095,.9922699,-.124047439,64.44313,348.22276)" stroke-width=".3985" stroke-linecap="butt" stroke-miterlimit="10" stroke-linejoin="miter" fill="none" stroke="#000000" d="M4.21463 0 .64343 1.34572 1.8178 0 .64343-1.34572Z"/>
<path transform="matrix(1.00002,0,0,-1.00006,44.616518,47.86491)" stroke-width=".3985" stroke-linecap="butt" stroke-miterlimit="10" stroke-linejoin="miter" fill="none" stroke="#000000" d="M-15.11356-261.75447-20.82985-302.05146"/>
<path transform="matrix(-.14043282,.9901094,.99006989,.14043843,24.027544,348.23326)" d="M4.21463 0 .64343 1.34572 1.8178 0 .64343-1.34572Z"/>
<path transform="matrix(-.14043282,.9901094,.99006989,.14043843,24.027544,348.23326)" stroke-width=".3985" stroke-linecap="butt" stroke-miterlimit="10" stroke-linejoin="miter" fill="none" stroke="#000000" d="M4.21463 0 .64343 1.34572 1.8178 0 .64343-1.34572Z"/>
<path transform="matrix(1.00002,0,0,-1.00006,44.616518,47.86491)" stroke-width=".3985" stroke-linecap="butt" stroke-miterlimit="10" stroke-linejoin="miter" fill="none" stroke="#000000" d="M2.82072-261.75447 20.06041-302.2657"/>
<path transform="matrix(.39156784,.9201752,.9201384,-.39158348,64.00453,348.5677)" d="M4.21463 0 .64343 1.34572 1.8178 0 .64343-1.34572Z"/>
<path transform="matrix(.39156784,.9201752,.9201384,-.39158348,64.00453,348.5677)" stroke-width=".3985" stroke-linecap="butt" stroke-miterlimit="10" stroke-linejoin="miter" fill="none" stroke="#000000" d="M4.21463 0 .64343 1.34572 1.8178 0 .64343-1.34572Z"/>
<path transform="matrix(1.00002,0,0,-1.00006,44.616518,47.86491)" stroke-width=".3985" stroke-linecap="butt" stroke-miterlimit="10" stroke-linejoin="miter" fill="none" stroke="#000000" d="M27.54393-260.78587 21.69034-302.05146"/>
<path transform="matrix(-.14043282,.9901094,.99006989,.14043843,66.548587,348.23326)" d="M4.21463 0 .64343 1.34572 1.8178 0 .64343-1.34572Z"/>
<path transform="matrix(-.14043282,.9901094,.99006989,.14043843,66.548587,348.23326)" stroke-width=".3985" stroke-linecap="butt" stroke-miterlimit="10" stroke-linejoin="miter" fill="none" stroke="#000000" d="M4.21463 0 .64343 1.34572 1.8178 0 .64343-1.34572Z"/>
<use data-text="q" xlink:href="#font_1_3" transform="matrix(9.962799,0,0,-9.963197,183.95131,20.692282)"/>
<use data-text="p" xlink:href="#font_1_2" transform="matrix(9.962799,0,0,-9.963197,169.67302,20.692282)"/>
<use data-text="b" xlink:href="#font_1_1" transform="matrix(9.962799,0,0,-9.963197,155.86774,22.975419)"/>
<use data-text="r" xlink:href="#font_1_4" transform="matrix(9.962799,0,0,-9.963197,198.14159,21.661339)"/>
<use data-text="s" xlink:href="#font_1_5" transform="matrix(9.962799,0,0,-9.963197,212.36588,21.661339)"/>
<path transform="matrix(1.00002,0,0,-1.00006,44.616518,47.86491)" stroke-width=".3985" stroke-linecap="butt" stroke-miterlimit="10" stroke-linejoin="miter" fill="none" stroke="#000000" d="M184.25424 28.3468C184.25424 38.13162 165.2176 46.06355 141.73404 46.06355 118.25049 46.06355 99.21384 38.13162 99.21384 28.3468 99.21384 18.56198 118.25049 10.63005 141.73404 10.63005 165.2176 10.63005 184.25424 18.56198 184.25424 28.3468ZM141.73404 28.3468"/>
<use data-text="0" xlink:href="#font_2_1" transform="matrix(9.962799,0,0,-9.963197,162.60189,79.4238)"/>
<use data-text="1" xlink:href="#font_2_2" transform="matrix(9.962799,0,0,-9.963197,205.12274,79.4238)"/>
<path transform="matrix(1.00002,0,0,-1.00006,44.616518,47.86491)" stroke-width=".3985" stroke-linecap="butt" stroke-miterlimit="10" stroke-linejoin="miter" fill="none" stroke="#000000" d="M184.25424-28.3468C184.25424-18.56198 165.2176-10.63005 141.73404-10.63005 118.25049-10.63005 99.21384-18.56198 99.21384-28.3468 99.21384-38.13162 118.25049-46.06355 141.73404-46.06355 165.2176-46.06355 184.25424-38.13162 184.25424-28.3468ZM141.73404-28.3468"/>
<path transform="matrix(1.00002,0,0,-1.00006,44.616518,47.86491)" stroke-width=".3985" stroke-linecap="butt" stroke-miterlimit="10" stroke-linejoin="miter" fill="none" stroke="#000000" d="M114.25908 21.36769 119.25313-18.57661"/>
<path transform="matrix(.12405248,.9923095,.9922699,-.124057438,163.65888,64.737659)" d="M4.21463 0 .64343 1.34572 1.8178 0 .64343-1.34572Z"/>
<path transform="matrix(.12405248,.9923095,.9922699,-.124057438,163.65888,64.737659)" stroke-width=".3985" stroke-linecap="butt" stroke-miterlimit="10" stroke-linejoin="miter" fill="none" stroke="#000000" d="M4.21463 0 .64343 1.34572 1.8178 0 .64343-1.34572Z"/>
<path transform="matrix(1.00002,0,0,-1.00006,44.616518,47.86491)" stroke-width=".3985" stroke-linecap="butt" stroke-miterlimit="10" stroke-linejoin="miter" fill="none" stroke="#000000" d="M156.61508 22.68222 161.77338-18.57661"/>
<path transform="matrix(.12404248,.9923095,.9922699,-.124047439,206.18001,64.737659)" d="M4.21463 0 .64343 1.34572 1.8178 0 .64343-1.34572Z"/>
<path transform="matrix(.12404248,.9923095,.9922699,-.124047439,206.18001,64.737659)" stroke-width=".3985" stroke-linecap="butt" stroke-miterlimit="10" stroke-linejoin="miter" fill="none" stroke="#000000" d="M4.21463 0 .64343 1.34572 1.8178 0 .64343-1.34572Z"/>
<path transform="matrix(1.00002,0,0,-1.00006,44.616518,47.86491)" stroke-width=".3985" stroke-linecap="butt" stroke-miterlimit="10" stroke-linejoin="miter" fill="none" stroke="#000000" d="M132.26192 21.71364 161.2217-19.11775"/>
<path transform="matrix(.5785016,.81567898,.81564638,-.5785247,204.84748,65.582347)" d="M4.21463 0 .64343 1.34572 1.8178 0 .64343-1.34572Z"/>
<path transform="matrix(.5785016,.81567898,.81564638,-.5785247,204.84748,65.582347)" stroke-width=".3985" stroke-linecap="butt" stroke-miterlimit="10" stroke-linejoin="miter" fill="none" stroke="#000000" d="M4.21463 0 .64343 1.34572 1.8178 0 .64343-1.34572Z"/>
<path transform="matrix(1.00002,0,0,-1.00006,44.616518,47.86491)" stroke-width=".3985" stroke-linecap="butt" stroke-miterlimit="10" stroke-linejoin="miter" fill="none" stroke="#000000" d="M138.91332 21.71364 121.67361-18.7976"/>
<path transform="matrix(-.39156784,.9201752,.9201384,.39158348,166.96537,65.0826)" d="M4.21463 0 .64343 1.34572 1.8178 0 .64343-1.34572Z"/>
<path transform="matrix(-.39156784,.9201752,.9201384,.39158348,166.96537,65.0826)" stroke-width=".3985" stroke-linecap="butt" stroke-miterlimit="10" stroke-linejoin="miter" fill="none" stroke="#000000" d="M4.21463 0 .64343 1.34572 1.8178 0 .64343-1.34572Z"/>
<path transform="matrix(1.00002,0,0,-1.00006,44.616518,47.86491)" stroke-width=".3985" stroke-linecap="butt" stroke-miterlimit="10" stroke-linejoin="miter" fill="none" stroke="#000000" d="M164.46019 22.68222 122.63268-19.44269"/>
<path transform="matrix(-.7045841,.70962259,.7095942,.70461228,168.46228,66.089488)" d="M4.21463 0 .64343 1.34572 1.8178 0 .64343-1.34572Z"/>
<path transform="matrix(-.7045841,.70962259,.7095942,.70461228,168.46228,66.089488)" stroke-width=".3985" stroke-linecap="butt" stroke-miterlimit="10" stroke-linejoin="miter" fill="none" stroke="#000000" d="M4.21463 0 .64343 1.34572 1.8178 0 .64343-1.34572Z"/>
<use data-text="q" xlink:href="#font_1_3" transform="matrix(9.962799,0,0,-9.963197,325.68815,162.43479)"/>
<use data-text="p" xlink:href="#font_1_2" transform="matrix(9.962799,0,0,-9.963197,311.40986,162.43479)"/>
<use data-text="b" xlink:href="#font_1_1" transform="matrix(9.962799,0,0,-9.963197,297.60459,164.71892)"/>
<use data-text="r" xlink:href="#font_1_4" transform="matrix(9.962799,0,0,-9.963197,339.87846,163.40384)"/>
<use data-text="s" xlink:href="#font_1_5" transform="matrix(9.962799,0,0,-9.963197,354.10273,163.40384)"/>
<path transform="matrix(1.00002,0,0,-1.00006,44.616518,47.86491)" stroke-width=".3985" stroke-linecap="butt" stroke-miterlimit="10" stroke-linejoin="miter" fill="none" stroke="#000000" d="M325.9883-113.38724C325.9883-103.60242 306.95164-95.67049 283.4681-95.67049 259.98454-95.67049 240.94789-103.60242 240.94789-113.38724 240.94789-123.17204 259.98454-131.10399 283.4681-131.10399 306.95164-131.10399 325.9883-123.17204 325.9883-113.38724ZM283.4681-113.38724"/>
<use data-text="0" xlink:href="#font_2_1" transform="matrix(9.962799,0,0,-9.963197,304.3387,221.1663)"/>
<use data-text="1" xlink:href="#font_2_2" transform="matrix(9.962799,0,0,-9.963197,346.86058,221.1663)"/>
<path transform="matrix(1.00002,0,0,-1.00006,44.616518,47.86491)" stroke-width=".3985" stroke-linecap="butt" stroke-miterlimit="10" stroke-linejoin="miter" fill="none" stroke="#000000" d="M325.9883-170.08086C325.9883-160.29604 306.95164-152.3641 283.4681-152.3641 259.98454-152.3641 240.94789-160.29604 240.94789-170.08086 240.94789-179.86566 259.98454-187.7976 283.4681-187.7976 306.95164-187.7976 325.9883-179.86566 325.9883-170.08086ZM283.4681-170.08086"/>
<path transform="matrix(1.00002,0,0,-1.00006,44.616518,47.86491)" stroke-width=".3985" stroke-linecap="butt" stroke-miterlimit="10" stroke-linejoin="miter" fill="none" stroke="#000000" d="M255.99314-120.36633 260.98719-160.31067"/>
<path transform="matrix(.12405248,.9923095,.9922699,-.124057438,305.39576,206.48021)" d="M4.21463 0 .64343 1.34572 1.8178 0 .64343-1.34572Z"/>
<path transform="matrix(.12405248,.9923095,.9922699,-.124057438,305.39576,206.48021)" stroke-width=".3985" stroke-linecap="butt" stroke-miterlimit="10" stroke-linejoin="miter" fill="none" stroke="#000000" d="M4.21463 0 .64343 1.34572 1.8178 0 .64343-1.34572Z"/>
<path transform="matrix(1.00002,0,0,-1.00006,44.616518,47.86491)" stroke-width=".3985" stroke-linecap="butt" stroke-miterlimit="10" stroke-linejoin="miter" fill="none" stroke="#000000" d="M298.34913-119.0518 303.50743-160.31067"/>
<path transform="matrix(.12404248,.9923095,.9922699,-.124047439,347.9169,206.48021)" d="M4.21463 0 .64343 1.34572 1.8178 0 .64343-1.34572Z"/>
<path transform="matrix(.12404248,.9923095,.9922699,-.124047439,347.9169,206.48021)" stroke-width=".3985" stroke-linecap="butt" stroke-miterlimit="10" stroke-linejoin="miter" fill="none" stroke="#000000" d="M4.21463 0 .64343 1.34572 1.8178 0 .64343-1.34572Z"/>
<path transform="matrix(1.00002,0,0,-1.00006,44.616518,47.86491)" stroke-width=".3985" stroke-linecap="butt" stroke-miterlimit="10" stroke-linejoin="miter" fill="none" stroke="#000000" d="M273.99598-120.0204 302.95576-160.8518"/>
<path transform="matrix(.5785016,.81567898,.81564638,-.5785247,346.58436,207.32489)" d="M4.21463 0 .64343 1.34572 1.8178 0 .64343-1.34572Z"/>
<path transform="matrix(.5785016,.81567898,.81564638,-.5785247,346.58436,207.32489)" stroke-width=".3985" stroke-linecap="butt" stroke-miterlimit="10" stroke-linejoin="miter" fill="none" stroke="#000000" d="M4.21463 0 .64343 1.34572 1.8178 0 .64343-1.34572Z"/>
<path transform="matrix(1.00002,0,0,-1.00006,44.616518,47.86491)" stroke-width=".3985" stroke-linecap="butt" stroke-miterlimit="10" stroke-linejoin="miter" fill="none" stroke="#000000" d="M280.64738-120.0204 263.40769-160.53165"/>
<path transform="matrix(-.39156784,.9201752,.9201384,.39158348,308.70225,206.82517)" d="M4.21463 0 .64343 1.34572 1.8178 0 .64343-1.34572Z"/>
<path transform="matrix(-.39156784,.9201752,.9201384,.39158348,308.70225,206.82517)" stroke-width=".3985" stroke-linecap="butt" stroke-miterlimit="10" stroke-linejoin="miter" fill="none" stroke="#000000" d="M4.21463 0 .64343 1.34572 1.8178 0 .64343-1.34572Z"/>
<path transform="matrix(1.00002,0,0,-1.00006,44.616518,47.86491)" stroke-width=".3985" stroke-linecap="butt" stroke-miterlimit="10" stroke-linejoin="miter" fill="none" stroke="#000000" d="M311.01203-119.0518 305.15846-160.3174"/>
<path transform="matrix(-.14043282,.9901094,.99006989,.14043843,350.02235,206.4907)" d="M4.21463 0 .64343 1.34572 1.8178 0 .64343-1.34572Z"/>
<path transform="matrix(-.14043282,.9901094,.99006989,.14043843,350.02235,206.4907)" stroke-width=".3985" stroke-linecap="butt" stroke-miterlimit="10" stroke-linejoin="miter" fill="none" stroke="#000000" d="M4.21463 0 .64343 1.34572 1.8178 0 .64343-1.34572Z"/>
<use data-text="q" xlink:href="#font_1_3" transform="matrix(9.962799,0,0,-9.963197,42.21447,162.43479)"/>
<use data-text="p" xlink:href="#font_1_2" transform="matrix(9.962799,0,0,-9.963197,27.93618,162.43479)"/>
<use data-text="b" xlink:href="#font_1_1" transform="matrix(9.962799,0,0,-9.963197,14.130905,164.71892)"/>
<use data-text="r" xlink:href="#font_1_4" transform="matrix(9.962799,0,0,-9.963197,56.404756,163.40384)"/>
<use data-text="s" xlink:href="#font_1_5" transform="matrix(9.962799,0,0,-9.963197,70.629039,163.40384)"/>
<path transform="matrix(1.00002,0,0,-1.00006,44.616518,47.86491)" stroke-width=".3985" stroke-linecap="butt" stroke-miterlimit="10" stroke-linejoin="miter" fill="none" stroke="#000000" d="M42.5202-113.38724C42.5202-103.60242 23.48355-95.67049 0-95.67049-23.48355-95.67049-42.5202-103.60242-42.5202-113.38724-42.5202-123.17204-23.48355-131.10399 0-131.10399 23.48355-131.10399 42.5202-123.17204 42.5202-113.38724ZM0-113.38724"/>
<use data-text="0" xlink:href="#font_2_1" transform="matrix(9.962799,0,0,-9.963197,20.865044,221.1663)"/>
<use data-text="1" xlink:href="#font_2_2" transform="matrix(9.962799,0,0,-9.963197,63.38589,221.1663)"/>
<path transform="matrix(1.00002,0,0,-1.00006,44.616518,47.86491)" stroke-width=".3985" stroke-linecap="butt" stroke-miterlimit="10" stroke-linejoin="miter" fill="none" stroke="#000000" d="M42.5202-170.08086C42.5202-160.29604 23.48355-152.3641 0-152.3641-23.48355-152.3641-42.5202-160.29604-42.5202-170.08086-42.5202-179.86566-23.48355-187.7976 0-187.7976 23.48355-187.7976 42.5202-179.86566 42.5202-170.08086ZM0-170.08086"/>
<path transform="matrix(1.00002,0,0,-1.00006,44.616518,47.86491)" stroke-width=".3985" stroke-linecap="butt" stroke-miterlimit="10" stroke-linejoin="miter" fill="none" stroke="#000000" d="M-27.47496-120.36633-22.48091-160.31067"/>
<path transform="matrix(.12405248,.9923095,.9922699,-.124057438,21.922013,206.48021)" d="M4.21463 0 .64343 1.34572 1.8178 0 .64343-1.34572Z"/>
<path transform="matrix(.12405248,.9923095,.9922699,-.124057438,21.922013,206.48021)" stroke-width=".3985" stroke-linecap="butt" stroke-miterlimit="10" stroke-linejoin="miter" fill="none" stroke="#000000" d="M4.21463 0 .64343 1.34572 1.8178 0 .64343-1.34572Z"/>
<path transform="matrix(1.00002,0,0,-1.00006,44.616518,47.86491)" stroke-width=".3985" stroke-linecap="butt" stroke-miterlimit="10" stroke-linejoin="miter" fill="none" stroke="#000000" d="M14.88103-119.0518 20.03934-160.31067"/>
<path transform="matrix(.12404248,.9923095,.9922699,-.124047439,64.44313,206.48021)" d="M4.21463 0 .64343 1.34572 1.8178 0 .64343-1.34572Z"/>
<path transform="matrix(.12404248,.9923095,.9922699,-.124047439,64.44313,206.48021)" stroke-width=".3985" stroke-linecap="butt" stroke-miterlimit="10" stroke-linejoin="miter" fill="none" stroke="#000000" d="M4.21463 0 .64343 1.34572 1.8178 0 .64343-1.34572Z"/>
<path transform="matrix(1.00002,0,0,-1.00006,44.616518,47.86491)" stroke-width=".3985" stroke-linecap="butt" stroke-miterlimit="10" stroke-linejoin="miter" fill="none" stroke="#000000" d="M-9.4721-120.0204 19.48766-160.8518"/>
<path transform="matrix(.5785016,.81567898,.81564638,-.5785247,63.110589,207.32489)" d="M4.21463 0 .64343 1.34572 1.8178 0 .64343-1.34572Z"/>
<path transform="matrix(.5785016,.81567898,.81564638,-.5785247,63.110589,207.32489)" stroke-width=".3985" stroke-linecap="butt" stroke-miterlimit="10" stroke-linejoin="miter" fill="none" stroke="#000000" d="M4.21463 0 .64343 1.34572 1.8178 0 .64343-1.34572Z"/>
<path transform="matrix(1.00002,0,0,-1.00006,44.616518,47.86491)" stroke-width=".3985" stroke-linecap="butt" stroke-miterlimit="10" stroke-linejoin="miter" fill="none" stroke="#000000" d="M2.82072-120.0204 20.06041-160.53165"/>
<path transform="matrix(.39156784,.9201752,.9201384,-.39158348,64.00453,206.82517)" d="M4.21463 0 .64343 1.34572 1.8178 0 .64343-1.34572Z"/>
<path transform="matrix(.39156784,.9201752,.9201384,-.39158348,64.00453,206.82517)" stroke-width=".3985" stroke-linecap="butt" stroke-miterlimit="10" stroke-linejoin="miter" fill="none" stroke="#000000" d="M4.21463 0 .64343 1.34572 1.8178 0 .64343-1.34572Z"/>
<path transform="matrix(1.00002,0,0,-1.00006,44.616518,47.86491)" stroke-width=".3985" stroke-linecap="butt" stroke-miterlimit="10" stroke-linejoin="miter" fill="none" stroke="#000000" d="M22.72615-119.0518-19.10135-161.17673"/>
<path transform="matrix(-.7045841,.70962259,.7095942,.70461228,26.725398,207.83205)" d="M4.21463 0 .64343 1.34572 1.8178 0 .64343-1.34572Z"/>
<path transform="matrix(-.7045841,.70962259,.7095942,.70461228,26.725398,207.83205)" stroke-width=".3985" stroke-linecap="butt" stroke-miterlimit="10" stroke-linejoin="miter" fill="none" stroke="#000000" d="M4.21463 0 .64343 1.34572 1.8178 0 .64343-1.34572Z"/>
<use data-text="q" xlink:href="#font_1_3" transform="matrix(9.962799,0,0,-9.963197,183.95131,304.17729)"/>
<use data-text="p" xlink:href="#font_1_2" transform="matrix(9.962799,0,0,-9.963197,169.67302,304.17729)"/>
<use data-text="b" xlink:href="#font_1_1" transform="matrix(9.962799,0,0,-9.963197,155.86774,306.4614)"/>
<use data-text="r" xlink:href="#font_1_4" transform="matrix(9.962799,0,0,-9.963197,198.14159,305.1463)"/>
<use data-text="s" xlink:href="#font_1_5" transform="matrix(9.962799,0,0,-9.963197,212.36588,305.1463)"/>
<path transform="matrix(1.00002,0,0,-1.00006,44.616518,47.86491)" stroke-width=".3985" stroke-linecap="butt" stroke-miterlimit="10" stroke-linejoin="miter" fill="none" stroke="#000000" d="M184.25424-255.12128C184.25424-245.33647 165.2176-237.40453 141.73404-237.40453 118.25049-237.40453 99.21384-245.33647 99.21384-255.12128 99.21384-264.9061 118.25049-272.83805 141.73404-272.83805 165.2176-272.83805 184.25424-264.9061 184.25424-255.12128ZM141.73404-255.12128"/>
<use data-text="0" xlink:href="#font_2_1" transform="matrix(9.962799,0,0,-9.963197,162.60189,362.90879)"/>
<use data-text="1" xlink:href="#font_2_2" transform="matrix(9.962799,0,0,-9.963197,205.12274,362.90879)"/>
<path transform="matrix(1.00002,0,0,-1.00006,44.616518,47.86491)" stroke-width=".3985" stroke-linecap="butt" stroke-miterlimit="10" stroke-linejoin="miter" fill="none" stroke="#000000" d="M184.25424-311.8149C184.25424-302.0301 165.2176-294.09815 141.73404-294.09815 118.25049-294.09815 99.21384-302.0301 99.21384-311.8149 99.21384-321.59974 118.25049-329.53166 141.73404-329.53166 165.2176-329.53166 184.25424-321.59974 184.25424-311.8149ZM141.73404-311.8149"/>
<path transform="matrix(1.00002,0,0,-1.00006,44.616518,47.86491)" stroke-width=".3985" stroke-linecap="butt" stroke-miterlimit="10" stroke-linejoin="miter" fill="none" stroke="#000000" d="M114.25908-262.1004 119.25313-302.0447"/>
<path transform="matrix(.12405248,.9923095,.9922699,-.124057438,163.65888,348.22276)" d="M4.21463 0 .64343 1.34572 1.8178 0 .64343-1.34572Z"/>
<path transform="matrix(.12405248,.9923095,.9922699,-.124057438,163.65888,348.22276)" stroke-width=".3985" stroke-linecap="butt" stroke-miterlimit="10" stroke-linejoin="miter" fill="none" stroke="#000000" d="M4.21463 0 .64343 1.34572 1.8178 0 .64343-1.34572Z"/>
<path transform="matrix(1.00002,0,0,-1.00006,44.616518,47.86491)" stroke-width=".3985" stroke-linecap="butt" stroke-miterlimit="10" stroke-linejoin="miter" fill="none" stroke="#000000" d="M156.61508-260.78587 161.77338-302.0447"/>
<path transform="matrix(.12404248,.9923095,.9922699,-.124047439,206.18001,348.22276)" d="M4.21463 0 .64343 1.34572 1.8178 0 .64343-1.34572Z"/>
<path transform="matrix(.12404248,.9923095,.9922699,-.124047439,206.18001,348.22276)" stroke-width=".3985" stroke-linecap="butt" stroke-miterlimit="10" stroke-linejoin="miter" fill="none" stroke="#000000" d="M4.21463 0 .64343 1.34572 1.8178 0 .64343-1.34572Z"/>
<path transform="matrix(1.00002,0,0,-1.00006,44.616518,47.86491)" stroke-width=".3985" stroke-linecap="butt" stroke-miterlimit="10" stroke-linejoin="miter" fill="none" stroke="#000000" d="M132.26192-261.75447 161.2217-302.58586"/>
<path transform="matrix(.5785016,.81567898,.81564638,-.5785247,204.84748,349.0674)" d="M4.21463 0 .64343 1.34572 1.8178 0 .64343-1.34572Z"/>
<path transform="matrix(.5785016,.81567898,.81564638,-.5785247,204.84748,349.0674)" stroke-width=".3985" stroke-linecap="butt" stroke-miterlimit="10" stroke-linejoin="miter" fill="none" stroke="#000000" d="M4.21463 0 .64343 1.34572 1.8178 0 .64343-1.34572Z"/>
<path transform="matrix(1.00002,0,0,-1.00006,44.616518,47.86491)" stroke-width=".3985" stroke-linecap="butt" stroke-miterlimit="10" stroke-linejoin="miter" fill="none" stroke="#000000" d="M144.55477-261.75447 161.79447-302.2657"/>
<path transform="matrix(.39156784,.9201752,.9201384,-.39158348,205.74143,348.5677)" d="M4.21463 0 .64343 1.34572 1.8178 0 .64343-1.34572Z"/>
<path transform="matrix(.39156784,.9201752,.9201384,-.39158348,205.74143,348.5677)" stroke-width=".3985" stroke-linecap="butt" stroke-miterlimit="10" stroke-linejoin="miter" fill="none" stroke="#000000" d="M4.21463 0 .64343 1.34572 1.8178 0 .64343-1.34572Z"/>
<path transform="matrix(1.00002,0,0,-1.00006,44.616518,47.86491)" stroke-width=".3985" stroke-linecap="butt" stroke-miterlimit="10" stroke-linejoin="miter" fill="none" stroke="#000000" d="M169.27797-260.78587 163.4244-302.05146"/>
<path transform="matrix(-.14043282,.9901094,.99006989,.14043843,208.28548,348.23326)" d="M4.21463 0 .64343 1.34572 1.8178 0 .64343-1.34572Z"/>
<path transform="matrix(-.14043282,.9901094,.99006989,.14043843,208.28548,348.23326)" stroke-width=".3985" stroke-linecap="butt" stroke-miterlimit="10" stroke-linejoin="miter" fill="none" stroke="#000000" d="M4.21463 0 .64343 1.34572 1.8178 0 .64343-1.34572Z"/>
</svg>
