<?xml version="1.0" encoding="UTF-8"?>
<svg xmlns="http://www.w3.org/2000/svg" xmlns:xlink="http://www.w3.org/1999/xlink" width="105pt" height="60pt" viewBox="0 0 105 60" version="1.1">
<g id="surface1">
<path style="fill:none;stroke-width:0.3985;stroke-linecap:butt;stroke-linejoin:miter;stroke:rgb(0%,0%,0%);stroke-opacity:1;stroke-miterlimit:10;" d="M 0.00116334 -0.00154396 L 0.00116334 56.694273 L 56.690869 56.694273 L 56.690869 -0.00154396 Z M 0.00116334 -0.00154396 " transform="matrix(1.00003,0,0,-1.00006,1.096493,58.49455)"/>
<path style="fill:none;stroke-width:0.3985;stroke-linecap:butt;stroke-linejoin:miter;stroke:rgb(0%,0%,0%);stroke-opacity:1;stroke-miterlimit:10;" d="M 79.369876 -0.00154396 L 79.369876 56.694273 L 102.048883 56.694273 L 102.048883 -0.00154396 Z M 79.369876 -0.00154396 " transform="matrix(1.00003,0,0,-1.00006,1.096493,58.49455)"/>
<path style="fill-rule:nonzero;fill:rgb(0%,0%,0%);fill-opacity:1;stroke-width:0.3985;stroke-linecap:butt;stroke-linejoin:miter;stroke:rgb(0%,0%,0%);stroke-opacity:1;stroke-miterlimit:10;" d="M 12.133612 11.337619 C 12.133612 11.778999 11.778154 12.134447 11.336761 12.134447 C 10.899274 12.134447 10.53991 11.778999 10.53991 11.337619 C 10.53991 10.900146 10.899274 10.540792 11.336761 10.540792 C 11.778154 10.540792 12.133612 10.900146 12.133612 11.337619 Z M 12.133612 11.337619 " transform="matrix(1.00003,0,0,-1.00006,1.096493,58.49455)"/>
<path style="fill:none;stroke-width:0.3985;stroke-linecap:butt;stroke-linejoin:miter;stroke:rgb(0%,0%,0%);stroke-opacity:1;stroke-miterlimit:10;" d="M 11.336761 11.337619 L 87.674314 22.243215 " transform="matrix(1.00003,0,0,-1.00006,1.096493,58.49455)"/>
<path style="fill-rule:nonzero;fill:rgb(0%,0%,0%);fill-opacity:1;stroke-width:0.3985;stroke-linecap:butt;stroke-linejoin:miter;stroke:rgb(0%,0%,0%);stroke-opacity:1;stroke-miterlimit:10;" d="M 4.215157 0.00176712 L 0.642543 1.344654 L 1.819805 0.000635083 L 0.644806 -1.346725 Z M 4.215157 0.00176712 " transform="matrix(0.98994,-0.141408,-0.141404,-0.989969,87.073592,36.49234)"/>
<path style="fill-rule:nonzero;fill:rgb(0%,0%,0%);fill-opacity:1;stroke-width:0.3985;stroke-linecap:butt;stroke-linejoin:miter;stroke:rgb(0%,0%,0%);stroke-opacity:1;stroke-miterlimit:10;" d="M 12.133612 22.676783 C 12.133612 23.118163 11.778154 23.47361 11.336761 23.47361 C 10.899274 23.47361 10.53991 23.118163 10.53991 22.676783 C 10.53991 22.235403 10.899274 21.879956 11.336761 21.879956 C 11.778154 21.879956 12.133612 22.235403 12.133612 22.676783 Z M 12.133612 22.676783 " transform="matrix(1.00003,0,0,-1.00006,1.096493,58.49455)"/>
<path style="fill:none;stroke-width:0.3985;stroke-linecap:butt;stroke-linejoin:miter;stroke:rgb(0%,0%,0%);stroke-opacity:1;stroke-miterlimit:10;" d="M 11.336761 22.676783 L 87.674314 33.582379 " transform="matrix(1.00003,0,0,-1.00006,1.096493,58.49455)"/>
<path style="fill-rule:nonzero;fill:rgb(0%,0%,0%);fill-opacity:1;stroke-width:0.3985;stroke-linecap:butt;stroke-linejoin:miter;stroke:rgb(0%,0%,0%);stroke-opacity:1;stroke-miterlimit:10;" d="M 4.214693 -0.00148265 L 0.642631 1.345271 L 1.819894 0.00125224 L 0.644894 -1.346108 Z M 4.214693 -0.00148265 " transform="matrix(0.98994,-0.141408,-0.141404,-0.989969,87.073592,25.153119)"/>
<path style="fill-rule:nonzero;fill:rgb(0%,0%,0%);fill-opacity:1;stroke-width:0.3985;stroke-linecap:butt;stroke-linejoin:miter;stroke:rgb(0%,0%,0%);stroke-opacity:1;stroke-miterlimit:10;" d="M 12.133612 34.015946 C 12.133612 34.457326 11.778154 34.812773 11.336761 34.812773 C 10.899274 34.812773 10.53991 34.457326 10.53991 34.015946 C 10.53991 33.574566 10.899274 33.219119 11.336761 33.219119 C 11.778154 33.219119 12.133612 33.574566 12.133612 34.015946 Z M 12.133612 34.015946 " transform="matrix(1.00003,0,0,-1.00006,1.096493,58.49455)"/>
<path style="fill:none;stroke-width:0.3985;stroke-linecap:butt;stroke-linejoin:miter;stroke:rgb(0%,0%,0%);stroke-opacity:1;stroke-miterlimit:10;" d="M 11.336761 34.015946 L 87.674314 44.921542 " transform="matrix(1.00003,0,0,-1.00006,1.096493,58.49455)"/>
<path style="fill-rule:nonzero;fill:rgb(0%,0%,0%);fill-opacity:1;stroke-width:0.3985;stroke-linecap:butt;stroke-linejoin:miter;stroke:rgb(0%,0%,0%);stroke-opacity:1;stroke-miterlimit:10;" d="M 4.21478 -0.000875383 L 0.642718 1.345878 L 1.819428 -0.00200742 L 0.644981 -1.3455 Z M 4.21478 -0.000875383 " transform="matrix(0.98994,-0.141408,-0.141404,-0.989969,87.073592,13.813889)"/>
<path style="fill-rule:nonzero;fill:rgb(0%,0%,0%);fill-opacity:1;stroke-width:0.3985;stroke-linecap:butt;stroke-linejoin:miter;stroke:rgb(0%,0%,0%);stroke-opacity:1;stroke-miterlimit:10;" d="M 12.133612 45.35511 C 12.133612 45.792583 11.778154 46.151937 11.336761 46.151937 C 10.899274 46.151937 10.53991 45.792583 10.53991 45.35511 C 10.53991 44.91373 10.899274 44.558282 11.336761 44.558282 C 11.778154 44.558282 12.133612 44.91373 12.133612 45.35511 Z M 12.133612 45.35511 " transform="matrix(1.00003,0,0,-1.00006,1.096493,58.49455)"/>
<path style="fill:none;stroke-width:0.3985;stroke-linecap:butt;stroke-linejoin:miter;stroke:rgb(0%,0%,0%);stroke-opacity:1;stroke-miterlimit:10;" d="M 11.336761 45.35511 L 87.893058 12.544578 " transform="matrix(1.00003,0,0,-1.00006,1.096493,58.49455)"/>
<path style="fill-rule:nonzero;fill:rgb(0%,0%,0%);fill-opacity:1;stroke-width:0.3985;stroke-linecap:butt;stroke-linejoin:miter;stroke:rgb(0%,0%,0%);stroke-opacity:1;stroke-miterlimit:10;" d="M 4.214552 -0.00197779 L 0.645171 1.345444 L 1.817162 -0.000946529 L 0.642542 -1.345793 Z M 4.214552 -0.00197779 " transform="matrix(0.919138,0.393914,0.393902,-0.919165,87.412182,45.271606)"/>
<path style="fill-rule:nonzero;fill:rgb(0%,0%,0%);fill-opacity:1;stroke-width:0.3985;stroke-linecap:butt;stroke-linejoin:miter;stroke:rgb(0%,0%,0%);stroke-opacity:1;stroke-miterlimit:10;" d="M 91.506231 11.337619 C 91.506231 11.778999 91.146866 12.134447 90.70938 12.134447 C 90.267987 12.134447 89.912528 11.778999 89.912528 11.337619 C 89.912528 10.900146 90.267987 10.540792 90.70938 10.540792 C 91.146866 10.540792 91.506231 10.900146 91.506231 11.337619 Z M 91.506231 11.337619 " transform="matrix(1.00003,0,0,-1.00006,1.096493,58.49455)"/>
<path style="fill-rule:nonzero;fill:rgb(0%,0%,0%);fill-opacity:1;stroke-width:0.3985;stroke-linecap:butt;stroke-linejoin:miter;stroke:rgb(0%,0%,0%);stroke-opacity:1;stroke-miterlimit:10;" d="M 23.473115 11.337619 C 23.473115 11.778999 23.117657 12.134447 22.676264 12.134447 C 22.238777 12.134447 21.879413 11.778999 21.879413 11.337619 C 21.879413 10.900146 22.238777 10.540792 22.676264 10.540792 C 23.117657 10.540792 23.473115 10.900146 23.473115 11.337619 Z M 23.473115 11.337619 " transform="matrix(1.00003,0,0,-1.00006,1.096493,58.49455)"/>
<path style="fill:none;stroke-width:0.3985;stroke-linecap:butt;stroke-linejoin:miter;stroke:rgb(0%,0%,0%);stroke-opacity:1;stroke-miterlimit:10;" d="M 22.676264 11.337619 L 87.803217 33.047254 " transform="matrix(1.00003,0,0,-1.00006,1.096493,58.49455)"/>
<path style="fill-rule:nonzero;fill:rgb(0%,0%,0%);fill-opacity:1;stroke-width:0.3985;stroke-linecap:butt;stroke-linejoin:miter;stroke:rgb(0%,0%,0%);stroke-opacity:1;stroke-miterlimit:10;" d="M 4.214899 -0.0000355898 L 0.644919 1.34641 L 1.818453 -0.0000216016 L 0.644952 -1.346439 Z M 4.214899 -0.0000355898 " transform="matrix(0.948668,-0.316229,-0.316219,-0.948697,87.270978,25.989089)"/>
<path style="fill-rule:nonzero;fill:rgb(0%,0%,0%);fill-opacity:1;stroke-width:0.3985;stroke-linecap:butt;stroke-linejoin:miter;stroke:rgb(0%,0%,0%);stroke-opacity:1;stroke-miterlimit:10;" d="M 23.473115 22.676783 C 23.473115 23.118163 23.117657 23.47361 22.676264 23.47361 C 22.238777 23.47361 21.879413 23.118163 21.879413 22.676783 C 21.879413 22.235403 22.238777 21.879956 22.676264 21.879956 C 23.117657 21.879956 23.473115 22.235403 23.473115 22.676783 Z M 23.473115 22.676783 " transform="matrix(1.00003,0,0,-1.00006,1.096493,58.49455)"/>
<path style="fill:none;stroke-width:0.3985;stroke-linecap:butt;stroke-linejoin:miter;stroke:rgb(0%,0%,0%);stroke-opacity:1;stroke-miterlimit:10;" d="M 22.676264 22.676783 L 87.686033 11.841495 " transform="matrix(1.00003,0,0,-1.00006,1.096493,58.49455)"/>
<path style="fill-rule:nonzero;fill:rgb(0%,0%,0%);fill-opacity:1;stroke-width:0.3985;stroke-linecap:butt;stroke-linejoin:miter;stroke:rgb(0%,0%,0%);stroke-opacity:1;stroke-miterlimit:10;" d="M 4.212969 -0.000748617 L 0.642357 1.34464 L 1.816921 -0.0000944557 L 0.64296 -1.344175 Z M 4.212969 -0.000748617 " transform="matrix(0.98637,0.16439,0.164385,-0.986399,87.090673,46.369192)"/>
<path style="fill-rule:nonzero;fill:rgb(0%,0%,0%);fill-opacity:1;stroke-width:0.3985;stroke-linecap:butt;stroke-linejoin:miter;stroke:rgb(0%,0%,0%);stroke-opacity:1;stroke-miterlimit:10;" d="M 23.473115 34.015946 C 23.473115 34.457326 23.117657 34.812773 22.676264 34.812773 C 22.238777 34.812773 21.879413 34.457326 21.879413 34.015946 C 21.879413 33.574566 22.238777 33.219119 22.676264 33.219119 C 23.117657 33.219119 23.473115 33.574566 23.473115 34.015946 Z M 23.473115 34.015946 " transform="matrix(1.00003,0,0,-1.00006,1.096493,58.49455)"/>
<path style="fill:none;stroke-width:0.3985;stroke-linecap:butt;stroke-linejoin:miter;stroke:rgb(0%,0%,0%);stroke-opacity:1;stroke-miterlimit:10;" d="M 22.676264 34.015946 L 87.643065 34.015946 " transform="matrix(1.00003,0,0,-1.00006,1.096493,58.49455)"/>
<path style="fill-rule:nonzero;fill:rgb(0%,0%,0%);fill-opacity:1;stroke-width:0.3985;stroke-linecap:butt;stroke-linejoin:miter;stroke:rgb(0%,0%,0%);stroke-opacity:1;stroke-miterlimit:10;" d="M 4.212804 0.000306243 L 0.642599 1.343976 L 1.818345 0.000306243 L 0.642599 -1.347269 Z M 4.212804 0.000306243 " transform="matrix(1.00003,0,0,-1.00006,87.025351,24.476869)"/>
<path style="fill-rule:nonzero;fill:rgb(0%,0%,0%);fill-opacity:1;stroke-width:0.3985;stroke-linecap:butt;stroke-linejoin:miter;stroke:rgb(0%,0%,0%);stroke-opacity:1;stroke-miterlimit:10;" d="M 23.473115 45.35511 C 23.473115 45.792583 23.117657 46.151937 22.676264 46.151937 C 22.238777 46.151937 21.879413 45.792583 21.879413 45.35511 C 21.879413 44.91373 22.238777 44.558282 22.676264 44.558282 C 23.117657 44.558282 23.473115 44.91373 23.473115 45.35511 Z M 23.473115 45.35511 " transform="matrix(1.00003,0,0,-1.00006,1.096493,58.49455)"/>
<path style="fill:none;stroke-width:0.3985;stroke-linecap:butt;stroke-linejoin:miter;stroke:rgb(0%,0%,0%);stroke-opacity:1;stroke-miterlimit:10;" d="M 22.676264 45.35511 L 87.967274 12.708631 " transform="matrix(1.00003,0,0,-1.00006,1.096493,58.49455)"/>
<path style="fill-rule:nonzero;fill:rgb(0%,0%,0%);fill-opacity:1;stroke-width:0.3985;stroke-linecap:butt;stroke-linejoin:miter;stroke:rgb(0%,0%,0%);stroke-opacity:1;stroke-miterlimit:10;" d="M 4.215634 -0.000385113 L 0.643039 1.344773 L 1.816997 0.00135453 L 0.642982 -1.345565 Z M 4.215634 -0.000385113 " transform="matrix(0.894387,0.447197,0.447183,-0.894414,87.530546,45.016781)"/>
<path style="fill-rule:nonzero;fill:rgb(0%,0%,0%);fill-opacity:1;stroke-width:0.3985;stroke-linecap:butt;stroke-linejoin:miter;stroke:rgb(0%,0%,0%);stroke-opacity:1;stroke-miterlimit:10;" d="M 91.506231 22.676783 C 91.506231 23.118163 91.146866 23.47361 90.70938 23.47361 C 90.267987 23.47361 89.912528 23.118163 89.912528 22.676783 C 89.912528 22.235403 90.267987 21.879956 90.70938 21.879956 C 91.146866 21.879956 91.506231 22.235403 91.506231 22.676783 Z M 91.506231 22.676783 " transform="matrix(1.00003,0,0,-1.00006,1.096493,58.49455)"/>
<path style="fill-rule:nonzero;fill:rgb(0%,0%,0%);fill-opacity:1;stroke-width:0.3985;stroke-linecap:butt;stroke-linejoin:miter;stroke:rgb(0%,0%,0%);stroke-opacity:1;stroke-miterlimit:10;" d="M 34.812619 11.337619 C 34.812619 11.778999 34.457161 12.134447 34.015768 12.134447 C 33.574375 12.134447 33.218917 11.778999 33.218917 11.337619 C 33.218917 10.900146 33.574375 10.540792 34.015768 10.540792 C 34.457161 10.540792 34.812619 10.900146 34.812619 11.337619 Z M 34.812619 11.337619 " transform="matrix(1.00003,0,0,-1.00006,1.096493,58.49455)"/>
<path style="fill:none;stroke-width:0.3985;stroke-linecap:butt;stroke-linejoin:miter;stroke:rgb(0%,0%,0%);stroke-opacity:1;stroke-miterlimit:10;" d="M 34.015768 11.337619 L 88.080552 43.777079 " transform="matrix(1.00003,0,0,-1.00006,1.096493,58.49455)"/>
<path style="fill-rule:nonzero;fill:rgb(0%,0%,0%);fill-opacity:1;stroke-width:0.3985;stroke-linecap:butt;stroke-linejoin:miter;stroke:rgb(0%,0%,0%);stroke-opacity:1;stroke-miterlimit:10;" d="M 4.213984 0.000295692 L 0.643406 1.345544 L 1.817073 -0.000975376 L 0.641391 -1.345417 Z M 4.213984 0.000295692 " transform="matrix(0.857496,-0.514531,-0.514515,-0.857521,87.706991,15.598166)"/>
<path style="fill-rule:nonzero;fill:rgb(0%,0%,0%);fill-opacity:1;stroke-width:0.3985;stroke-linecap:butt;stroke-linejoin:miter;stroke:rgb(0%,0%,0%);stroke-opacity:1;stroke-miterlimit:10;" d="M 34.812619 22.676783 C 34.812619 23.118163 34.457161 23.47361 34.015768 23.47361 C 33.574375 23.47361 33.218917 23.118163 33.218917 22.676783 C 33.218917 22.235403 33.574375 21.879956 34.015768 21.879956 C 34.457161 21.879956 34.812619 22.235403 34.812619 22.676783 Z M 34.812619 22.676783 " transform="matrix(1.00003,0,0,-1.00006,1.096493,58.49455)"/>
<path style="fill:none;stroke-width:0.3985;stroke-linecap:butt;stroke-linejoin:miter;stroke:rgb(0%,0%,0%);stroke-opacity:1;stroke-miterlimit:10;" d="M 34.015768 22.676783 L 87.705563 33.41442 " transform="matrix(1.00003,0,0,-1.00006,1.096493,58.49455)"/>
<path style="fill-rule:nonzero;fill:rgb(0%,0%,0%);fill-opacity:1;stroke-width:0.3985;stroke-linecap:butt;stroke-linejoin:miter;stroke:rgb(0%,0%,0%);stroke-opacity:1;stroke-miterlimit:10;" d="M 4.213155 -0.00139502 L 0.642434 1.346088 L 1.819154 -0.000638625 L 0.64171 -1.346609 Z M 4.213155 -0.00139502 " transform="matrix(0.980579,-0.196112,-0.196106,-0.980609,87.118393,25.414725)"/>
<path style="fill-rule:nonzero;fill:rgb(0%,0%,0%);fill-opacity:1;stroke-width:0.3985;stroke-linecap:butt;stroke-linejoin:miter;stroke:rgb(0%,0%,0%);stroke-opacity:1;stroke-miterlimit:10;" d="M 34.812619 34.015946 C 34.812619 34.457326 34.457161 34.812773 34.015768 34.812773 C 33.574375 34.812773 33.218917 34.457326 33.218917 34.015946 C 33.218917 33.574566 33.574375 33.219119 34.015768 33.219119 C 34.457161 33.219119 34.812619 33.574566 34.812619 34.015946 Z M 34.812619 34.015946 " transform="matrix(1.00003,0,0,-1.00006,1.096493,58.49455)"/>
<path style="fill:none;stroke-width:0.3985;stroke-linecap:butt;stroke-linejoin:miter;stroke:rgb(0%,0%,0%);stroke-opacity:1;stroke-miterlimit:10;" d="M 34.015768 34.015946 L 87.705563 23.278309 " transform="matrix(1.00003,0,0,-1.00006,1.096493,58.49455)"/>
<path style="fill-rule:nonzero;fill:rgb(0%,0%,0%);fill-opacity:1;stroke-width:0.3985;stroke-linecap:butt;stroke-linejoin:miter;stroke:rgb(0%,0%,0%);stroke-opacity:1;stroke-miterlimit:10;" d="M 4.213153 0.00140393 L 0.641708 1.346618 L 1.819152 0.000647535 L 0.642432 -1.34608 Z M 4.213153 0.00140393 " transform="matrix(0.980579,0.196112,0.196106,-0.980609,87.118393,34.878253)"/>
<path style="fill-rule:nonzero;fill:rgb(0%,0%,0%);fill-opacity:1;stroke-width:0.3985;stroke-linecap:butt;stroke-linejoin:miter;stroke:rgb(0%,0%,0%);stroke-opacity:1;stroke-miterlimit:10;" d="M 34.812619 45.35511 C 34.812619 45.792583 34.457161 46.151937 34.015768 46.151937 C 33.574375 46.151937 33.218917 45.792583 33.218917 45.35511 C 33.218917 44.91373 33.574375 44.558282 34.015768 44.558282 C 34.457161 44.558282 34.812619 44.91373 34.812619 45.35511 Z M 34.812619 45.35511 " transform="matrix(1.00003,0,0,-1.00006,1.096493,58.49455)"/>
<path style="fill:none;stroke-width:0.3985;stroke-linecap:butt;stroke-linejoin:miter;stroke:rgb(0%,0%,0%);stroke-opacity:1;stroke-miterlimit:10;" d="M 34.015768 45.35511 L 88.080552 12.91565 " transform="matrix(1.00003,0,0,-1.00006,1.096493,58.49455)"/>
<path style="fill-rule:nonzero;fill:rgb(0%,0%,0%);fill-opacity:1;stroke-width:0.3985;stroke-linecap:butt;stroke-linejoin:miter;stroke:rgb(0%,0%,0%);stroke-opacity:1;stroke-miterlimit:10;" d="M 4.213974 -0.000279325 L 0.641381 1.345434 L 1.817063 0.000991742 L 0.643396 -1.345527 Z M 4.213974 -0.000279325 " transform="matrix(0.857496,0.514531,0.514515,-0.857521,87.706991,44.694822)"/>
<path style="fill-rule:nonzero;fill:rgb(0%,0%,0%);fill-opacity:1;stroke-width:0.3985;stroke-linecap:butt;stroke-linejoin:miter;stroke:rgb(0%,0%,0%);stroke-opacity:1;stroke-miterlimit:10;" d="M 91.506231 34.015946 C 91.506231 34.457326 91.146866 34.812773 90.70938 34.812773 C 90.267987 34.812773 89.912528 34.457326 89.912528 34.015946 C 89.912528 33.574566 90.267987 33.219119 90.70938 33.219119 C 91.146866 33.219119 91.506231 33.574566 91.506231 34.015946 Z M 91.506231 34.015946 " transform="matrix(1.00003,0,0,-1.00006,1.096493,58.49455)"/>
<path style="fill-rule:nonzero;fill:rgb(0%,0%,0%);fill-opacity:1;stroke-width:0.3985;stroke-linecap:butt;stroke-linejoin:miter;stroke:rgb(0%,0%,0%);stroke-opacity:1;stroke-miterlimit:10;" d="M 46.152123 11.337619 C 46.152123 11.778999 45.792758 12.134447 45.355271 12.134447 C 44.913878 12.134447 44.55842 11.778999 44.55842 11.337619 C 44.55842 10.900146 44.913878 10.540792 45.355271 10.540792 C 45.792758 10.540792 46.152123 10.900146 46.152123 11.337619 Z M 46.152123 11.337619 " transform="matrix(1.00003,0,0,-1.00006,1.096493,58.49455)"/>
<path style="fill:none;stroke-width:0.3985;stroke-linecap:butt;stroke-linejoin:miter;stroke:rgb(0%,0%,0%);stroke-opacity:1;stroke-miterlimit:10;" d="M 45.355271 11.337619 L 87.643065 11.337619 " transform="matrix(1.00003,0,0,-1.00006,1.096493,58.49455)"/>
<path style="fill-rule:nonzero;fill:rgb(0%,0%,0%);fill-opacity:1;stroke-width:0.3985;stroke-linecap:butt;stroke-linejoin:miter;stroke:rgb(0%,0%,0%);stroke-opacity:1;stroke-miterlimit:10;" d="M 4.212804 -0.000930557 L 0.642599 1.346645 L 1.818345 -0.000930557 L 0.642599 -1.3446 Z M 4.212804 -0.000930557 " transform="matrix(1.00003,0,0,-1.00006,87.025351,47.155319)"/>
<path style="fill-rule:nonzero;fill:rgb(0%,0%,0%);fill-opacity:1;stroke-width:0.3985;stroke-linecap:butt;stroke-linejoin:miter;stroke:rgb(0%,0%,0%);stroke-opacity:1;stroke-miterlimit:10;" d="M 46.152123 22.676783 C 46.152123 23.118163 45.792758 23.47361 45.355271 23.47361 C 44.913878 23.47361 44.55842 23.118163 44.55842 22.676783 C 44.55842 22.235403 44.913878 21.879956 45.355271 21.879956 C 45.792758 21.879956 46.152123 22.235403 46.152123 22.676783 Z M 46.152123 22.676783 " transform="matrix(1.00003,0,0,-1.00006,1.096493,58.49455)"/>
<path style="fill:none;stroke-width:0.3985;stroke-linecap:butt;stroke-linejoin:miter;stroke:rgb(0%,0%,0%);stroke-opacity:1;stroke-miterlimit:10;" d="M 45.355271 22.676783 L 87.736813 12.079762 " transform="matrix(1.00003,0,0,-1.00006,1.096493,58.49455)"/>
<path style="fill-rule:nonzero;fill:rgb(0%,0%,0%);fill-opacity:1;stroke-width:0.3985;stroke-linecap:butt;stroke-linejoin:miter;stroke:rgb(0%,0%,0%);stroke-opacity:1;stroke-miterlimit:10;" d="M 4.21579 -0.00157571 L 0.642304 1.343734 L 1.819859 -0.000587152 L 0.64222 -1.345815 Z M 4.21579 -0.00157571 " transform="matrix(0.970169,0.242525,0.242517,-0.970198,87.168165,45.99557)"/>
<path style="fill-rule:nonzero;fill:rgb(0%,0%,0%);fill-opacity:1;stroke-width:0.3985;stroke-linecap:butt;stroke-linejoin:miter;stroke:rgb(0%,0%,0%);stroke-opacity:1;stroke-miterlimit:10;" d="M 46.152123 34.015946 C 46.152123 34.457326 45.792758 34.812773 45.355271 34.812773 C 44.913878 34.812773 44.55842 34.457326 44.55842 34.015946 C 44.55842 33.574566 44.913878 33.219119 45.355271 33.219119 C 45.792758 33.219119 46.152123 33.574566 46.152123 34.015946 Z M 46.152123 34.015946 " transform="matrix(1.00003,0,0,-1.00006,1.096493,58.49455)"/>
<path style="fill:none;stroke-width:0.3985;stroke-linecap:butt;stroke-linejoin:miter;stroke:rgb(0%,0%,0%);stroke-opacity:1;stroke-miterlimit:10;" d="M 45.355271 34.015946 L 87.967274 12.708631 " transform="matrix(1.00003,0,0,-1.00006,1.096493,58.49455)"/>
<path style="fill-rule:nonzero;fill:rgb(0%,0%,0%);fill-opacity:1;stroke-width:0.3985;stroke-linecap:butt;stroke-linejoin:miter;stroke:rgb(0%,0%,0%);stroke-opacity:1;stroke-miterlimit:10;" d="M 4.215634 -0.000385113 L 0.643039 1.344773 L 1.816997 0.00135453 L 0.642982 -1.345565 Z M 4.215634 -0.000385113 " transform="matrix(0.894387,0.447197,0.447183,-0.894414,87.530546,45.016781)"/>
<path style="fill-rule:nonzero;fill:rgb(0%,0%,0%);fill-opacity:1;stroke-width:0.3985;stroke-linecap:butt;stroke-linejoin:miter;stroke:rgb(0%,0%,0%);stroke-opacity:1;stroke-miterlimit:10;" d="M 46.152123 45.35511 C 46.152123 45.792583 45.792758 46.151937 45.355271 46.151937 C 44.913878 46.151937 44.55842 45.792583 44.55842 45.35511 C 44.55842 44.91373 44.913878 44.558282 45.355271 44.558282 C 45.792758 44.558282 46.152123 44.91373 46.152123 45.35511 Z M 46.152123 45.35511 " transform="matrix(1.00003,0,0,-1.00006,1.096493,58.49455)"/>
<path style="fill:none;stroke-width:0.3985;stroke-linecap:butt;stroke-linejoin:miter;stroke:rgb(0%,0%,0%);stroke-opacity:1;stroke-miterlimit:10;" d="M 45.355271 45.35511 L 88.256328 13.177353 " transform="matrix(1.00003,0,0,-1.00006,1.096493,58.49455)"/>
<path style="fill-rule:nonzero;fill:rgb(0%,0%,0%);fill-opacity:1;stroke-width:0.3985;stroke-linecap:butt;stroke-linejoin:miter;stroke:rgb(0%,0%,0%);stroke-opacity:1;stroke-miterlimit:10;" d="M 4.217053 -0.000146682 L 0.642879 1.347396 L 1.817861 0.00213848 L 0.642867 -1.347864 Z M 4.217053 -0.000146682 " transform="matrix(0.799994,0.600026,0.600008,-0.800018,87.981939,44.285947)"/>
<path style="fill-rule:nonzero;fill:rgb(0%,0%,0%);fill-opacity:1;stroke-width:0.3985;stroke-linecap:butt;stroke-linejoin:miter;stroke:rgb(0%,0%,0%);stroke-opacity:1;stroke-miterlimit:10;" d="M 91.506231 45.35511 C 91.506231 45.792583 91.146866 46.151937 90.70938 46.151937 C 90.267987 46.151937 89.912528 45.792583 89.912528 45.35511 C 89.912528 44.91373 90.267987 44.558282 90.70938 44.558282 C 91.146866 44.558282 91.506231 44.91373 91.506231 45.35511 Z M 91.506231 45.35511 " transform="matrix(1.00003,0,0,-1.00006,1.096493,58.49455)"/>
</g>
</svg>
