<svg xmlns="http://www.w3.org/2000/svg" xmlns:xlink="http://www.w3.org/1999/xlink" xmlns:inkscape="http://www.inkscape.org/namespaces/inkscape" version="1.1" width="212" height="175" viewBox="0 0 212 175">
<defs>
<path id="font_1_1" d="M.6589966 .23046875C.6759949 .23046875 .69400027 .23046875 .69400027 .25045777 .69400027 .27046205 .6759949 .27046205 .6589966 .27046205H.117996219C.100997928 .27046205 .08299255 .27046205 .08299255 .25045777 .08299255 .23046875 .100997928 .23046875 .117996219 .23046875H.6589966Z"/>
<path id="font_2_4" d="M.2939911 .16503906V.07800293C.2939911 .041992189 .2919922 .0309906 .21798706 .0309906H.19699097V0C.23799134 .0029907227 .2899933 .0029907227 .33198548 .0029907227 .37399293 .0029907227 .4269867 .0029907227 .46798707 0V.0309906H.44699098C.37298585 .0309906 .37098695 .041992189 .37098695 .07800293V.16503906H.47099305V.19602967H.37098695V.65075686C.37098695 .67074587 .37098695 .6767578 .35499574 .6767578 .34599305 .6767578 .34298707 .6767578 .33499146 .66474917L.027999878 .19602967V.16503906H.2939911M.2999878 .19602967H.055999757L.2999878 .5688019V.19602967Z"/>
<path id="font_2_3" d="M.1269989 .07699585 .23298645 .18003845C.3889923 .31811524 .44898988 .3721466 .44898988 .47216798 .44898988 .5860901 .35899354 .6660156 .23699951 .6660156 .12399292 .6660156 .049987794 .57411196 .049987794 .48516847 .049987794 .4291687 .099990848 .4291687 .102996829 .4291687 .11999512 .4291687 .15499878 .44117738 .15499878 .48217774 .15499878 .5081787 .13699341 .5341797 .101989749 .5341797 .09399414 .5341797 .09199524 .5341797 .08898926 .5331726 .11199951 .59806826 .1659851 .63500979 .22399903 .63500979 .31498719 .63500979 .35798646 .5541382 .35798646 .47216798 .35798646 .39215089 .30799867 .31311036 .25299073 .25108338L.06098938 .036987306C.049987794 .025985718 .049987794 .023986817 .049987794 0H.42099L.44898988 .17404175H.42399598C.4189911 .14402771 .4119873 .1000061 .4019928 .084991458 .394989 .07699585 .32899476 .07699585 .30699159 .07699585H.1269989Z"/>
<path id="font_2_1" d="M.45999146 .31976319C.45999146 .39982606 .45498658 .47988893 .41999818 .5539398 .37399293 .65000918 .2919922 .6660156 .25 .6660156 .18998719 .6660156 .116989139 .64001467 .07598877 .54693606 .04399109 .47789 .038986207 .39982606 .038986207 .31976319 .038986207 .24472046 .042999269 .15464783 .083999637 .07859802 .1269989-.0024719239 .19999695-.022460938 .24899292-.022460938 .30299378-.022460938 .3789978-.0014648438 .4229889 .09359741 .45498658 .16265869 .45999146 .2407074 .45999146 .31976319M.24899292-.00047302247C.20999146-.00047302247 .15098572 .024551392 .1329956 .12062073 .12199402 .18066406 .12199402 .2727356 .12199402 .3317871 .12199402 .39582826 .12199402 .46188355 .12998963 .5159149 .14898682 .63500979 .22399903 .64401248 .24899292 .64401248 .28199769 .64401248 .34799195 .6259918 .36698915 .52693179 .3769989 .47088624 .3769989 .39482118 .3769989 .3317871 .3769989 .25672914 .3769989 .18867493 .3659973 .12461853 .35099793 .029556275 .2939911-.00047302247 .24899292-.00047302247Z"/>
<clipPath id="clip_3">
<path transform="matrix(1.00005,0,0,-1,16.467125,204.81601)" d="M0 41.62004H194.28128V203.01946H0Z"/>
</clipPath>
<path id="font_4_2" d="M.33499146 .63612368C.33499146 .6630554 .33299256 .6640625 .30499269 .6640625 .24099732 .6014404 .1499939 .6004486 .10899353 .6004486V.5644531C.1329956 .5644531 .19898987 .5644531 .2539978 .592453V.08203125C.2539978 .04899597 .2539978 .035995485 .1539917 .035995485H.115997318V0C.13398743 .0009918213 .25698854 .0039978029 .2939911 .0039978029 .32499696 .0039978029 .45098878 .0009918213 .47299195 0V.035995485H.43499757C.33499146 .035995485 .33499146 .04899597 .33499146 .08203125V.63612368Z"/>
<path id="font_5_1" d="M.24899292 .10601807C.23899842 .072021488 .20599365 .018234253 .15499878 .018234253 .1519928 .018234253 .12199402 .018234253 .100997928 .03215027 .14199829 .04508972 .14498902 .08100891 .14498902 .087020877 .14498902 .10900879 .12799073 .12402344 .10499573 .12402344 .07699585 .12402344 .04798889 .10002136 .04798889 .0630188 .04798889 .01322937 .10398865-.009765625 .15299988-.009765625 .19898987-.009765625 .23999024 .019226075 .2649994 .061019899 .2889862 .008224487 .34399415-.009765625 .38398744-.009765625 .49899293-.009765625 .55999758 .11502075 .55999758 .14305115 .55999758 .15608216 .5469971 .15608216 .5439911 .15608216 .5299988 .15608216 .5289917 .15107727 .5249939 .13905335 .5039978 .07002258 .44400025 .018234253 .3880005 .018234253 .34799195 .018234253 .32699586 .04508972 .32699586 .08302307 .32699586 .10900879 .35099793 .20018006 .3789978 .31140138 .39898683 .38841249 .44400025 .4133911 .47698976 .4133911 .47898866 .4133911 .5099945 .4133911 .5309906 .39941407 .49899293 .39041139 .4869995 .3624115 .4869995 .34440614 .4869995 .32240296 .5039978 .30740357 .5269928 .30740357 .5499878 .30740357 .58299258 .32640077 .58299258 .3684082 .58299258 .4243927 .5189972 .44140626 .47898866 .44140626 .42900086 .44140626 .3889923 .4084015 .36698915 .3704071 .34899903 .4113922 .30299378 .44140626 .24699402 .44140626 .1349945 .44140626 .070999149 .31840516 .070999149 .2883606 .070999149 .27534486 .084991458 .27534486 .08799744 .27534486 .100997928 .27534486 .101989749 .27934266 .10699463 .29237367 .13198853 .3704071 .19499207 .4133911 .24398804 .4133911 .2769928 .4133911 .3039856 .395401 .3039856 .3474121 .3039856 .32740785 .2919922 .27734376 .2829895 .24327088L.24899292 .10601807Z"/>
<path id="font_4_1" d="M.46299745 .2263794H.7689972C.7819977 .2263794 .80599978 .2263794 .80599978 .25038148 .80599978 .27539063 .7829895 .27539063 .7689972 .27539063H.46299745V.5821533C.46299745 .59513857 .46299745 .6191406 .43899537 .6191406 .4139862 .6191406 .4139862 .5961304 .4139862 .5821533V.27539063H.10699463C.09399414 .27539063 .069992069 .27539063 .069992069 .25138856 .069992069 .2263794 .09298706 .2263794 .10699463 .2263794H.4139862V-.08114624C.4139862-.09416199 .4139862-.11816406 .43798829-.11816406 .46299745-.11816406 .46299745-.09516907 .46299745-.08114624V.2263794Z"/>
<path id="font_2_2" d="M.2939911 .64004519C.2939911 .66400149 .2939911 .6660156 .2709961 .6660156 .20899964 .60227969 .12098694 .60227969 .08898926 .60227969V.57128909C.10899353 .57128909 .16799927 .57128909 .21998596 .5972748V.07902527C.21998596 .042999269 .21699524 .0309906 .1269989 .0309906H.09498596V0C.12998963 .0029907227 .21699524 .0029907227 .25698854 .0029907227 .29699708 .0029907227 .38398744 .0029907227 .4189911 0V.0309906H.3869934C.29699708 .0309906 .2939911 .041992189 .2939911 .07902527V.64004519Z"/>
<path id="font_6_1" d="M.2679901 .31362916H.3039856L.45399476 .08192444C.46398927 .06594849 .48799134 .026992798 .49899293 .011993408 .5059967 0 .5089874 0 .5319977 0H.66999819C.6879883 0 .7029877 0 .7029877 .017990113 .7029877 .025985718 .69699099 .032989503 .6879883 .034988405 .651001 .04298401 .60198977 .10890198 .5779877 .14085388 .57099917 .15083313 .5209961 .2167511 .45399476 .32463075 .54299929 .34062196 .6289978 .37861634 .6289978 .4975891 .6289978 .63656619 .48199464 .6845703 .3639984 .6845703H.049987794C.03199768 .6845703 .015991211 .6845703 .015991211 .66656497 .015991211 .64956668 .034988405 .64956668 .042999269 .64956668 .099990848 .64956668 .10499573 .64256289 .10499573 .5925751V.091918949C.10499573 .04197693 .099990848 .034988405 .042999269 .034988405 .034988405 .034988405 .015991211 .034988405 .015991211 .017990113 .015991211 0 .03199768 0 .049987794 0H.32398988C.34199525 0 .35699464 0 .35699464 .017990113 .35699464 .034988405 .33999635 .034988405 .32899476 .034988405 .27198792 .034988405 .2679901 .04298401 .2679901 .091918949V.31362916M.46099855 .36262513C.4889984 .39961244 .49198915 .4526062 .49198915 .4965973 .49198915 .5445862 .48599244 .59757998 .45399476 .63856509 .49499513 .6295624 .59399417 .5985718 .59399417 .4975891 .59399417 .43260194 .56399539 .3816223 .46099855 .36262513M.2679901 .59558108C.2679901 .61657717 .2679901 .64956668 .32998658 .64956668 .4149933 .64956668 .45700074 .614563 .45700074 .4965973 .45700074 .36761476 .42599488 .3486328 .2679901 .3486328V.59558108M.13198853 .034988405C.13999939 .052963258 .13999939 .08093262 .13999939 .089920047V.594574C.13999939 .6045685 .13999939 .6315613 .13198853 .64956668H.24598694C.23298645 .6335602 .23298645 .61357119 .23298645 .5985718V.089920047C.23298645 .079940799 .23298645 .052963258 .24099732 .034988405H.13198853M.34498597 .31362916C.35198976 .31462098 .35598756 .31562806 .3639984 .31562806 .3789978 .31562806 .40098573 .31762696 .41600038 .31962586 .43099977 .2956543 .5389862 .117889408 .621994 .034988405H.5249939L.34498597 .31362916Z"/>
</defs>
<path transform="matrix(1.00005,0,0,-1,16.467125,204.81601)" stroke-width=".19925" stroke-linecap="butt" stroke-miterlimit="10" stroke-linejoin="miter" fill="none" stroke="#929292" d="M19.42812 41.62004V45.87195M58.28438 41.62004V45.87195M97.14064 41.62004V45.87195M135.99689 41.62004V45.87195M174.85315 41.62004V45.87195M19.42812 203.01946V198.76755M58.28438 203.01946V198.76755M97.14064 203.01946V198.76755M135.99689 203.01946V198.76755M174.85315 203.01946V198.76755"/>
<path transform="matrix(1.00005,0,0,-1,16.467125,204.81601)" stroke-width=".19925" stroke-linecap="butt" stroke-miterlimit="10" stroke-linejoin="miter" fill="none" stroke="#929292" d="M0 57.75998H4.252M0 90.03987H4.252M0 122.31975H4.252M0 154.59963H4.252M0 186.8795H4.252M194.28128 57.75998H190.02925M194.28128 90.03987H190.02925M194.28128 122.31975H190.02925M194.28128 154.59963H190.02925M194.28128 186.8795H190.02925"/>
<path transform="matrix(1.00005,0,0,-1,16.467125,204.81601)" stroke-width=".3985" stroke-linecap="butt" stroke-miterlimit="10" stroke-linejoin="miter" fill="none" stroke="#000000" d="M0 41.62004V203.01946H194.28128V41.62004H0Z"/>
<use data-text="&#x2212;" xlink:href="#font_1_1" transform="matrix(9.963098,0,0,-9.9626,29.530777,173.13602)"/>
<use data-text="4" xlink:href="#font_2_4" transform="matrix(9.963098,0,0,-9.9626,37.28016,173.13602)"/>
<use data-text="&#x2212;" xlink:href="#font_1_1" transform="matrix(9.963098,0,0,-9.9626,68.38872,173.13602)"/>
<use data-text="2" xlink:href="#font_2_3" transform="matrix(9.963098,0,0,-9.9626,76.1381,173.13602)"/>
<use data-text="0" xlink:href="#font_2_1" transform="matrix(9.963098,0,0,-9.9626,111.12186,173.13602)"/>
<use data-text="2" xlink:href="#font_2_3" transform="matrix(9.963098,0,0,-9.9626,149.9798,173.13602)"/>
<use data-text="4" xlink:href="#font_2_4" transform="matrix(9.963098,0,0,-9.9626,188.83774,173.13602)"/>
<use data-text="&#x2212;" xlink:href="#font_1_1" transform="matrix(9.963098,0,0,-9.9626,.21631623,149.85102)"/>
<use data-text="4" xlink:href="#font_2_4" transform="matrix(9.963098,0,0,-9.9626,7.9656984,149.85102)"/>
<use data-text="&#x2212;" xlink:href="#font_1_1" transform="matrix(9.963098,0,0,-9.9626,.21631623,117.57101)"/>
<use data-text="2" xlink:href="#font_2_3" transform="matrix(9.963098,0,0,-9.9626,7.9656984,117.57101)"/>
<use data-text="0" xlink:href="#font_2_1" transform="matrix(9.963098,0,0,-9.9626,7.9656984,85.70601)"/>
<use data-text="2" xlink:href="#font_2_3" transform="matrix(9.963098,0,0,-9.9626,7.9656984,53.427003)"/>
<use data-text="4" xlink:href="#font_2_4" transform="matrix(9.963098,0,0,-9.9626,7.9656984,21.147004)"/>
<g clip-path="url(#clip_3)">
<path transform="matrix(1.00005,0,0,-1,16.467125,204.81601)" stroke-width=".79701" stroke-linecap="butt" stroke-miterlimit="10" stroke-linejoin="miter" fill="none" stroke="#0000ff" d="M0 118.28476C0 118.28476 1.41771 118.21008 1.96222 118.18034 2.50673 118.15059 3.37996 118.1017 3.92445 118.07027 4.46896 118.03882 5.3422 117.98688 5.8867 117.95374 6.4312 117.9206 7.30444 117.86635 7.84894 117.83139 8.39345 117.79645 9.26668 117.73888 9.81119 117.7018 10.35568 117.66472 11.22891 117.60342 11.77342 117.56412 12.31793 117.5248 13.19116 117.46008 13.73566 117.41837 14.28017 117.37666 15.1534 117.30785 15.6979 117.26343 16.24242 117.21901 17.11563 117.14554 17.66013 117.09816 18.20464 117.05077 19.07787 116.97258 19.62238 116.9219 20.16687 116.87123 21.04012 116.78722 21.58461 116.73291 22.12912 116.67862 23.00235 116.58876 23.54686 116.53052 24.09135 116.47227 24.96458 116.37581 25.5091 116.31311 26.0536 116.25041 26.92683 116.14635 27.47133 116.07858 28.01584 116.01083 28.88907 115.8981 29.43358 115.82472 29.97809 115.75134 30.85132 115.62941 31.39581 115.5497 31.94032 115.46999 32.81355 115.33705 33.35806 115.25012 33.90256 115.16321 34.77577 115.01837 35.32028 114.92313 35.86479 114.8279 36.73802 114.66843 37.28253 114.56369 37.82703 114.45897 38.70026 114.28394 39.24477 114.16827 39.78928 114.05263 40.6625 113.85854 41.207 113.73007 41.75151 113.6016 42.62474 113.38586 43.16925 113.24232 43.71375 113.09879 44.58699 112.8569 45.13148 112.6955 45.676 112.5341 46.54922 112.2618 47.09373 112.07896 47.63823 111.89613 48.51146 111.58661 49.05597 111.37769 49.60048 111.16876 50.4737 110.81404 51.0182 110.5731 51.5627 110.33217 52.43593 109.92207 52.98044 109.64117 53.52495 109.36028 54.39818 108.88028 54.94267 108.54851 55.48718 108.21672 56.36041 107.64772 56.90492 107.2499 57.44942 106.85205 58.32266 106.16704 58.86716 105.68109 59.41167 105.19514 60.2849 104.35461 60.8294 103.74753 61.3739 103.14043 62.24713 102.08597 62.79164 101.30556 63.33615 100.52513 64.20938 99.16362 64.75389 98.12276 65.29839 97.0819 66.17162 95.26245 66.71613 93.80371 67.26064 92.34497 68.13385 89.80467 68.67834 87.60919 69.22285 85.41371 70.09608 81.67867 70.6406 77.9801 71.18509 74.28154 72.05833 68.62325 72.60283 60.95247 73.14734 53.28168 74.56508 22.69435 74.56508 22.69435M80.4518 236.79067C80.4518 236.79067 81.86954 198.3669 82.41403 189.01322 82.95854 179.65953 83.83176 173.58579 84.37627 169.37575 84.92076 165.16571 85.794 161.09001 86.3385 158.67012 86.88301 156.25025 87.75624 153.5119 88.30075 151.93494 88.84525 150.35797 89.71848 148.41556 90.26299 147.30438 90.8075 146.1932 91.68073 144.75217 92.22522 143.92629 92.76973 143.10042 93.64296 141.98996 94.18747 141.35198 94.73198 140.71398 95.60521 139.8359 96.1497 139.32802 96.69421 138.82015 97.56744 138.10567 98.11195 137.69142 98.65645 137.27719 99.52968 136.68659 100.07419 136.34246 100.6187 135.9983 101.49191 135.50156 102.03642 135.21105 102.58092 134.92053 103.45415 134.49715 103.99866 134.24861 104.54317 134.00009 105.4164 133.6348 105.96089 133.41983 106.5054 133.20488 107.37863 132.88715 107.92314 132.69934 108.46764 132.51154 109.34088 132.23177 109.88538 132.06618 110.42989 131.90058 111.30312 131.65283 111.84763 131.5058 112.39212 131.35877 113.26535 131.13784 113.80986 131.00643 114.35437 130.87503 115.2276 130.6769 115.77211 130.5587 116.3166 130.4405 117.18982 130.26142 117.73433 130.15456 118.27884 130.0477 119.15207 129.88553 119.69656 129.78852 120.24107 129.6915 121.1143 129.54381 121.65881 129.45522 122.20331 129.36664 123.07655 129.23119 123.62105 129.15001 124.16556 129.06884 125.03879 128.94477 125.5833 128.87015 126.12779 128.79552 127.00102 128.68096 127.54553 128.61208 128.09004 128.5432 128.96327 128.43741 129.50778 128.37368 130.05228 128.30995 130.9255 128.21187 131.47002 128.15273 132.01453 128.0936 132.88776 128.0025 133.43225 127.94743 133.97676 127.89235 134.84998 127.80707 135.39449 127.75569 135.93898 127.7043 136.81223 127.62505 137.35672 127.57701 137.90123 127.52899 138.77446 127.45447 139.31897 127.40947 139.86347 127.36447 140.7367 127.29485 141.2812 127.25261 141.82572 127.21036 142.69895 127.1447 143.24344 127.10492 143.78795 127.06514 144.66118 127.00331 145.20569 126.96579 145.7502 126.92827 146.62343 126.86986 147.16793 126.83441 147.71244 126.79898 148.58567 126.74377 149.13018 126.71031 149.67467 126.67683 150.5479 126.62483 151.09239 126.59312 151.6369 126.56143 152.51013 126.51189 153.05464 126.48177 153.59914 126.45163 154.47237 126.40448 155.01688 126.37589 155.56139 126.34729 156.43462 126.3028 156.97911 126.27565 157.52362 126.2485 158.39685 126.20598 158.94136 126.1801 159.48587 126.15424 160.3591 126.11377 160.9036 126.08908 161.4481 126.06439 162.32134 126.02562 162.86585 126.00208 163.41034 125.97853 164.28359 125.94176 164.82808 125.91928 165.37259 125.89682 166.24582 125.86156 166.79033 125.84004 167.33483 125.81853 168.20804 125.78477 168.75255 125.76418 169.29706 125.74358 170.17029 125.71129 170.71479 125.69154 171.2593 125.6718 172.13253 125.64078 172.67704 125.62181 173.22153 125.60286 174.09477 125.57303 174.63927 125.55484 175.18378 125.53664 176.057 125.50806 176.60152 125.4906 177.14601 125.47316 178.01924 125.44572 178.56375 125.42894 179.10826 125.41217 179.98149 125.38571 180.526 125.36955 181.0705 125.3534 181.94373 125.32796 182.48824 125.31242 183.03275 125.29689 183.90598 125.27252 184.45047 125.25754 184.99498 125.24257 185.8682 125.21889 186.4127 125.20444 186.9572 125.19 187.83045 125.16739 188.37494 125.15344 188.91945 125.1395 189.79268 125.11739 190.33719 125.10388 190.88169 125.09038 191.75492 125.06912 192.29943 125.05612 192.84394 125.04312 194.26168 125.01012 194.26168 125.01012"/>
<path transform="matrix(1.00005,0,0,-1,16.467125,204.81601)" stroke-width=".79701" stroke-linecap="butt" stroke-miterlimit="10" stroke-linejoin="miter" fill="none" stroke="#ff0000" d="M0 102.95181C0 102.95181 1.41771 102.90417 1.96222 102.88533 2.50673 102.86647 3.37996 102.83559 3.92445 102.81593 4.46896 102.79626 5.3422 102.76411 5.8867 102.7436 6.4312 102.7231 7.30444 102.68951 7.84894 102.66809 8.39345 102.64667 9.26668 102.61156 9.81119 102.58916 10.35568 102.56677 11.22891 102.53014 11.77342 102.50668 12.31793 102.48325 13.19116 102.44472 13.73566 102.42018 14.28017 102.39565 15.1534 102.3555 15.6979 102.32979 16.24242 102.30406 17.11563 102.26178 17.66013 102.23473 18.20464 102.20767 19.07787 102.16312 19.62238 102.13466 20.16687 102.10619 21.04012 102.05951 21.58461 102.02959 22.12912 101.99968 23.00235 101.95056 23.54686 101.91902 24.09135 101.8875 24.96458 101.83565 25.5091 101.80234 26.0536 101.76903 26.92683 101.71407 27.47133 101.67886 28.01584 101.64368 28.88907 101.58585 29.43358 101.54861 29.97809 101.51138 30.85132 101.45001 31.39581 101.41046 31.94032 101.37091 32.81355 101.30545 33.35806 101.26343 33.90256 101.2214 34.77577 101.1522 35.32028 101.10751 35.86479 101.06282 36.73802 100.98895 37.28253 100.94127 37.82703 100.89357 38.70026 100.81473 39.24477 100.76373 39.78928 100.71275 40.6625 100.62839 41.207 100.57376 41.75151 100.51912 42.62474 100.42859 43.16925 100.36992 43.71375 100.31123 44.58699 100.21394 45.13148 100.15073 45.676 100.08752 46.54922 99.98256 47.09373 99.91428 47.63823 99.84601 48.51146 99.73257 49.05597 99.65863 49.60048 99.58469 50.4737 99.46173 51.0182 99.38135 51.5627 99.30096 52.43593 99.16693 52.98044 99.07921 53.52495 98.99147 54.39818 98.84506 54.94267 98.749 55.48718 98.65291 56.36041 98.49237 56.90492 98.38664 57.44942 98.28093 58.32266 98.10387 58.86716 97.98701 59.41167 97.87018 60.2849 97.67432 60.8294 97.54446 61.3739 97.41461 62.24713 97.19627 62.79164 97.05107 63.33615 96.90585 64.20938 96.6612 64.75389 96.49779 65.29839 96.33438 66.17162 96.05855 66.71613 95.87334 67.26064 95.68813 68.13385 95.37459 68.67834 95.16286 69.22285 94.95113 70.09608 94.59177 70.6406 94.3473 71.18509 94.10284 72.05833 93.6863 72.60283 93.40086 73.14734 93.11542 74.02057 92.62766 74.56508 92.2901 75.10957 91.95253 75.9828 91.3735 76.52731 90.96791 77.07182 90.56233 77.94505 89.86307 78.48955 89.36684 79.03406 88.87059 79.90729 88.01294 80.4518 87.3913 80.9963 86.76967 81.86954 85.68787 82.41403 84.8864 82.95854 84.08493 83.83176 82.68816 84.37627 81.61482 84.92076 80.54149 85.794 78.66367 86.3385 77.15051 86.88301 75.63737 87.75624 73.00734 88.30075 70.70906 88.84525 68.41078 89.71848 64.51576 90.26299 60.58609 90.8075 56.65643 91.68073 50.79291 92.22522 42.38669 92.76973 33.98048 94.18747 0 94.18747 0M100.07419 213.07141C100.07419 213.07141 101.49191 178.71315 102.03642 170.22632 102.58092 161.7395 103.45415 155.85811 103.99866 151.90425 104.54317 147.95041 105.4164 144.0389 105.96089 141.72965 106.5054 139.42041 107.37863 136.7795 107.92314 135.26076 108.46764 133.742 109.34088 131.86023 109.88538 130.78354 110.42989 129.70685 111.30312 128.30438 111.84763 127.50067 112.39212 126.69696 113.26535 125.6139 113.80986 124.99092 114.35437 124.36792 115.2276 123.50792 115.77211 123.01054 116.3166 122.51317 117.18982 121.81248 117.73433 121.40607 118.27884 120.99963 119.15207 120.41943 119.69656 120.0813 120.24107 119.74316 121.1143 119.25478 121.65881 118.96895 122.20331 118.68312 123.07655 118.26604 123.62105 118.02121 124.16556 117.77638 125.03879 117.4164 125.5833 117.20436 126.12779 116.99232 127.00102 116.67839 127.54553 116.4929 128.09004 116.30742 128.96327 116.03105 129.50778 115.86748 130.05228 115.7039 130.9255 115.45923 131.47002 115.31389 132.01453 115.16853 132.88776 114.94984 133.43225 114.81984 133.97676 114.68983 134.84998 114.49379 135.39449 114.3768 135.93898 114.25983 136.81223 114.08249 137.35672 113.97668 137.90123 113.87088 138.77446 113.71033 139.31897 113.61418 139.86347 113.51804 140.7367 113.37146 141.2812 113.28365 141.82572 113.19583 142.69895 113.06166 143.24344 112.98119 143.78795 112.90071 144.66118 112.77757 145.20569 112.70357 145.7502 112.62956 146.62343 112.51604 147.16793 112.44775 147.71244 112.37946 148.58567 112.27455 149.13018 112.2113 149.67467 112.14804 150.5479 112.05055 151.09239 111.99179 151.6369 111.93304 152.51013 111.84247 153.05464 111.78778 153.59914 111.73311 154.47237 111.64867 155.01688 111.59767 155.56139 111.54666 156.43462 111.46786 156.97911 111.42012 157.52362 111.37239 158.39685 111.29831 158.94136 111.25356 159.48587 111.2088 160.3591 111.1395 160.9036 111.09749 161.4481 111.0555 162.32134 110.99033 162.86585 110.95078 163.41034 110.91124 164.28359 110.84973 164.82808 110.81245 165.37259 110.77518 166.24582 110.71727 166.79033 110.68204 167.33483 110.64682 168.20804 110.59187 168.75255 110.55856 169.29706 110.52527 170.17029 110.47345 170.71479 110.44188 171.2593 110.41031 172.13253 110.36095 172.67704 110.331 173.22153 110.30104 174.09477 110.25436 174.63927 110.22594 175.18378 110.19751 176.057 110.15309 176.60152 110.12602 177.14601 110.09897 178.01924 110.05656 178.56375 110.0308 179.10826 110.00504 179.98149 109.96481 180.526 109.94026 181.0705 109.91571 181.94373 109.87718 182.48824 109.85374 183.03275 109.8303 183.90598 109.79364 184.45047 109.77127 184.99498 109.74892 185.8682 109.71393 186.4127 109.69252 186.9572 109.6711 187.83045 109.63733 188.37494 109.6168 188.91945 109.59628 189.79268 109.56418 190.33719 109.54451 190.88169 109.52484 191.75492 109.4938 192.29943 109.47495 192.84394 109.45607 194.26168 109.40845 194.26168 109.40845"/>
<path transform="matrix(1.00005,0,0,-1,16.467125,204.81601)" stroke-width=".3985" stroke-linecap="butt" stroke-dasharray="2.98883,2.98883" stroke-miterlimit="10" stroke-linejoin="miter" fill="none" stroke="#000000" d="M0 41.62004 8.09491 48.34491 16.18982 55.06978 24.28476 61.79465 32.37967 68.51952 40.47461 75.24438 48.56952 81.96925 56.66446 88.69412 64.75937 95.41899 72.85431 102.14386 80.94922 108.86871 89.04416 115.59358 97.13907 122.31845 105.234 129.04332 113.32892 135.76819 121.42384 142.49306 129.51877 149.21793 137.6137 155.9428 145.70862 162.66767 153.80355 169.39253 161.89847 176.1174 169.9934 182.84227 178.08832 189.56714 186.18325 196.292 194.27816 203.01686"/>
</g>
<path transform="matrix(1.00005,0,0,-1,16.467125,204.81601)" d="M138.36061 155.91364H190.19556V199.59149H138.36061Z" fill="#ffffff"/>
<path transform="matrix(1.00005,0,0,-1,16.467125,204.81601)" stroke-width=".3985" stroke-linecap="butt" stroke-miterlimit="10" stroke-linejoin="miter" fill="none" stroke="#000000" d="M138.36061 155.91364H190.19556V199.59149H138.36061Z"/>
<path transform="matrix(1.00005,0,0,-1,158.2222,14.166)" stroke-width=".79701" stroke-linecap="butt" stroke-miterlimit="10" stroke-linejoin="miter" fill="none" stroke="#0000ff" d="M0 0C0 0 6.14426 0 8.50412 0 10.86398 0 17.00826 0 17.00826 0"/>
<use data-text="1" xlink:href="#font_4_2" transform="matrix(6.9741489,0,0,-6.9738,187.67067,13.703995)"/>
<path transform="matrix(1.00005,0,0,-1,27.281666,-130.304)" stroke-width=".3985" stroke-linecap="butt" stroke-miterlimit="10" stroke-linejoin="miter" fill="none" stroke="#000000" d="M155.064-145.44H169.669"/>
<use data-text="x" xlink:href="#font_5_1" transform="matrix(6.9741489,0,0,-6.9738,182.35341,21.061997)"/>
<use data-text="+" xlink:href="#font_4_1" transform="matrix(6.9741489,0,0,-6.9738,186.87163,21.061997)"/>
<use data-text="1" xlink:href="#font_4_2" transform="matrix(6.9741489,0,0,-6.9738,192.98796,21.061997)"/>
<path transform="matrix(1.00005,0,0,-1,158.2222,28.061997)" stroke-width=".79701" stroke-linecap="butt" stroke-miterlimit="10" stroke-linejoin="miter" fill="none" stroke="#ff0000" d="M0 0C0 0 6.14426 0 8.50412 0 10.86398 0 17.00826 0 17.00826 0"/>
<use data-text="1" xlink:href="#font_4_2" transform="matrix(6.9741489,0,0,-6.9738,179.09125,27.600998)"/>
<path transform="matrix(1.00005,0,0,-1,23.74649,-130.304)" stroke-width=".3985" stroke-linecap="butt" stroke-miterlimit="10" stroke-linejoin="miter" fill="none" stroke="#000000" d="M155.064-159.337H159.582"/>
<use data-text="x" xlink:href="#font_5_1" transform="matrix(6.9741489,0,0,-6.9738,178.81824,34.959)"/>
<use data-text="&#x2212;" xlink:href="#font_1_1" transform="matrix(9.963098,0,0,-9.9626,186.74564,31.522995)"/>
<use data-text="1" xlink:href="#font_2_2" transform="matrix(9.963098,0,0,-9.9626,196.70912,31.522995)"/>
<path transform="matrix(1.00005,0,0,-1,158.2222,40.960008)" stroke-width=".3985" stroke-linecap="butt" stroke-dasharray="2.98883,2.98883" stroke-miterlimit="10" stroke-linejoin="miter" fill="none" stroke="#000000" d="M0 0H8.50412 17.00826"/>
<use data-text="1" xlink:href="#font_2_2" transform="matrix(9.963098,0,0,-9.9626,184.39752,43.423006)"/>
<use data-text="R" xlink:href="#font_6_1" transform="matrix(6.9741489,0,0,-6.9738,189.37976,44.918)"/>
</svg>
