<svg xmlns="http://www.w3.org/2000/svg" xmlns:xlink="http://www.w3.org/1999/xlink" xmlns:inkscape="http://www.inkscape.org/namespaces/inkscape" version="1.1" width="366" height="230" viewBox="0 0 366 230">
<defs>
<path id="font_1_1" d="M.1789856 .114868167C.13899231 .047973634 .099990848 .033981325 .055999757 .0309906 .04399109 .02999878 .034988405 .02999878 .034988405 .010986328 .034988405 .004989624 .039993287 0 .04798889 0 .07499695 0 .10598755 .0029907227 .13398743 .0029907227 .16699219 .0029907227 .20199585 0 .23399353 0 .23999024 0 .25299073 0 .25299073 .018997193 .25299073 .02999878 .24398804 .0309906 .23699951 .0309906 .21398926 .032989503 .18998719 .04096985 .18998719 .06593323 .18998719 .077926639 .19599915 .088897708 .20399475 .102890018L.27999879 .23068238H.5309906C.5329895 .2097168 .5469971 .07392883 .5469971 .063949588 .5469971 .033981325 .49499513 .0309906 .47499085 .0309906 .46099855 .0309906 .45098878 .0309906 .45098878 .010986328 .45098878 0 .46299745 0 .46499635 0 .5059967 0 .548996 .0029907227 .58999636 .0029907227 .61499026 .0029907227 .6779938 0 .7029877 0 .70899966 0 .72099307 0 .72099307 .019989014 .72099307 .0309906 .71099856 .0309906 .69799807 .0309906 .6359863 .0309906 .6359863 .037979127 .6329956 .06694031L.57199099 .691803C.56999209 .71180728 .56999209 .7158203 .5529938 .7158203 .5369873 .7158203 .5329895 .7088165 .5269928 .69880679L.1789856 .114868167M.29899598 .26168824 .49598695 .5917816 .5279999 .26168824H.29899598Z"/>
<path id="font_2_1" d="M.68699648 .32714845C.70199587 .32714845 .72099307 .32714845 .72099307 .34713746 .72099307 .36714173 .70199587 .36714173 .6879883 .36714173H.08898926C.07499695 .36714173 .055999757 .36714173 .055999757 .34713746 .055999757 .32714845 .07499695 .32714845 .08999634 .32714845H.68699648M.6879883 .13284302C.70199587 .13284302 .72099307 .13284302 .72099307 .15284729 .72099307 .17285156 .70199587 .17285156 .68699648 .17285156H.08999634C.07499695 .17285156 .055999757 .17285156 .055999757 .15284729 .055999757 .13284302 .07499695 .13284302 .08898926 .13284302H.6879883Z"/>
<path id="font_1_2" d="M.1599884 .07795715C.1499939 .038986207 .147995 .0309906 .068984989 .0309906 .051986696 .0309906 .041992189 .0309906 .041992189 .010986328 .041992189 0 .050994874 0 .068984989 0H.42599488C.58399966 0 .70199587 .11791992 .70199587 .21585083 .70199587 .28778077 .6439972 .3457489 .5469971 .35673524 .651001 .37573243 .7559967 .44970704 .7559967 .5446625 .7559967 .6186218 .6899872 .6826172 .56999209 .6826172H.23399353C.21499634 .6826172 .20498657 .6826172 .20498657 .6626129 .20498657 .6516113 .21398926 .6516113 .23298645 .6516113 .23498535 .6516113 .2539978 .6516113 .2709961 .6496124 .2889862 .6476135 .2979889 .64660647 .2979889 .6336212 .2979889 .6296234 .29699708 .62661746 .2939911 .614624L.1599884 .07795715M.31098939 .36573792 .37298585 .6136322C.38198854 .64860537 .38398744 .6516113 .4269867 .6516113H.55599978C.6439972 .6516113 .6649933 .5926361 .6649933 .5486603 .6649933 .46069337 .57899478 .36573792 .45700074 .36573792H.31098939M.2659912 .0309906C.2519989 .0309906 .25 .0309906 .24398804 .03199768 .23399353 .032989503 .23098755 .033996583 .23098755 .04197693 .23098755 .04498291 .23098755 .04698181 .23599243 .064971927L.30499269 .34375H.49398805C.58999636 .34375 .60899356 .2698059 .60899356 .22683716 .60899356 .12791443 .519989 .0309906 .4019928 .0309906H.2659912Z"/>
</defs>
<path transform="matrix(1.00003,0,0,-1.00006,24.678299,58.49555)" stroke-width=".3985" stroke-linecap="butt" stroke-miterlimit="10" stroke-linejoin="miter" fill="none" stroke="#000000" d="M0 28.3468V56.69362H56.69362V28.3468ZM56.69362 56.69362"/>
<use data-text="A" xlink:href="#font_1_1" transform="matrix(9.962899,0,0,-9.963197,1.5096054,19.377202)"/>
<use data-text="=" xlink:href="#font_2_1" transform="matrix(9.962899,0,0,-9.963197,11.748909,19.377202)"/>
<path transform="matrix(1.00003,0,0,-1.00006,24.678299,58.49555)" d="M14.92056 51.02432C14.92056 51.43698 14.58604 51.7715 14.17339 51.7715 13.76073 51.7715 13.42621 51.43698 13.42621 51.02432 13.42621 50.61166 13.76073 50.27715 14.17339 50.27715 14.58604 50.27715 14.92056 50.61166 14.92056 51.02432ZM14.17339 51.02432"/>
<path transform="matrix(1.00003,0,0,-1.00006,24.678299,58.49555)" stroke-width=".3985" stroke-linecap="butt" stroke-miterlimit="10" stroke-linejoin="miter" fill="none" stroke="#000000" d="M14.92056 51.02432C14.92056 51.43698 14.58604 51.7715 14.17339 51.7715 13.76073 51.7715 13.42621 51.43698 13.42621 51.02432 13.42621 50.61166 13.76073 50.27715 14.17339 50.27715 14.58604 50.27715 14.92056 50.61166 14.92056 51.02432ZM14.17339 51.02432"/>
<path transform="matrix(1.00003,0,0,-1.00006,24.678299,58.49555)" d="M14.92056 45.35484C14.92056 45.76749 14.58604 46.10202 14.17339 46.10202 13.76073 46.10202 13.42621 45.76749 13.42621 45.35484 13.42621 44.94218 13.76073 44.60767 14.17339 44.60767 14.58604 44.60767 14.92056 44.94218 14.92056 45.35484ZM14.17339 45.35484"/>
<path transform="matrix(1.00003,0,0,-1.00006,24.678299,58.49555)" stroke-width=".3985" stroke-linecap="butt" stroke-miterlimit="10" stroke-linejoin="miter" fill="none" stroke="#000000" d="M14.92056 45.35484C14.92056 45.76749 14.58604 46.10202 14.17339 46.10202 13.76073 46.10202 13.42621 45.76749 13.42621 45.35484 13.42621 44.94218 13.76073 44.60767 14.17339 44.60767 14.58604 44.60767 14.92056 44.94218 14.92056 45.35484ZM14.17339 45.35484"/>
<path transform="matrix(1.00003,0,0,-1.00006,24.678299,58.49555)" d="M14.92056 39.68556C14.92056 40.09822 14.58604 40.43274 14.17339 40.43274 13.76073 40.43274 13.42621 40.09822 13.42621 39.68556 13.42621 39.2729 13.76073 38.93839 14.17339 38.93839 14.58604 38.93839 14.92056 39.2729 14.92056 39.68556ZM14.17339 39.68556"/>
<path transform="matrix(1.00003,0,0,-1.00006,24.678299,58.49555)" stroke-width=".3985" stroke-linecap="butt" stroke-miterlimit="10" stroke-linejoin="miter" fill="none" stroke="#000000" d="M14.92056 39.68556C14.92056 40.09822 14.58604 40.43274 14.17339 40.43274 13.76073 40.43274 13.42621 40.09822 13.42621 39.68556 13.42621 39.2729 13.76073 38.93839 14.17339 38.93839 14.58604 38.93839 14.92056 39.2729 14.92056 39.68556ZM14.17339 39.68556"/>
<path transform="matrix(1.00003,0,0,-1.00006,24.678299,58.49555)" d="M14.92056 34.01608C14.92056 34.42873 14.58604 34.76326 14.17339 34.76326 13.76073 34.76326 13.42621 34.42873 13.42621 34.01608 13.42621 33.60342 13.76073 33.2689 14.17339 33.2689 14.58604 33.2689 14.92056 33.60342 14.92056 34.01608ZM14.17339 34.01608"/>
<path transform="matrix(1.00003,0,0,-1.00006,24.678299,58.49555)" stroke-width=".3985" stroke-linecap="butt" stroke-miterlimit="10" stroke-linejoin="miter" fill="none" stroke="#000000" d="M14.92056 34.01608C14.92056 34.42873 14.58604 34.76326 14.17339 34.76326 13.76073 34.76326 13.42621 34.42873 13.42621 34.01608 13.42621 33.60342 13.76073 33.2689 14.17339 33.2689 14.58604 33.2689 14.92056 33.60342 14.92056 34.01608ZM14.17339 34.01608"/>
<path transform="matrix(1.00003,0,0,-1.00006,24.678299,58.49555)" d="M43.26738 39.68556C43.26738 40.09822 42.93286 40.43274 42.5202 40.43274 42.10754 40.43274 41.77303 40.09822 41.77303 39.68556 41.77303 39.2729 42.10754 38.93839 42.5202 38.93839 42.93286 38.93839 43.26738 39.2729 43.26738 39.68556ZM42.5202 39.68556"/>
<path transform="matrix(1.00003,0,0,-1.00006,24.678299,58.49555)" stroke-width=".3985" stroke-linecap="butt" stroke-miterlimit="10" stroke-linejoin="miter" fill="none" stroke="#000000" d="M43.26738 39.68556C43.26738 40.09822 42.93286 40.43274 42.5202 40.43274 42.10754 40.43274 41.77303 40.09822 41.77303 39.68556 41.77303 39.2729 42.10754 38.93839 42.5202 38.93839 42.93286 38.93839 43.26738 39.2729 43.26738 39.68556ZM42.5202 39.68556"/>
<path transform="matrix(1.00003,0,0,-1.00006,24.678299,58.49555)" d="M43.26738 34.01608C43.26738 34.42873 42.93286 34.76326 42.5202 34.76326 42.10754 34.76326 41.77303 34.42873 41.77303 34.01608 41.77303 33.60342 42.10754 33.2689 42.5202 33.2689 42.93286 33.2689 43.26738 33.60342 43.26738 34.01608ZM42.5202 34.01608"/>
<path transform="matrix(1.00003,0,0,-1.00006,24.678299,58.49555)" stroke-width=".3985" stroke-linecap="butt" stroke-miterlimit="10" stroke-linejoin="miter" fill="none" stroke="#000000" d="M43.26738 34.01608C43.26738 34.42873 42.93286 34.76326 42.5202 34.76326 42.10754 34.76326 41.77303 34.42873 41.77303 34.01608 41.77303 33.60342 42.10754 33.2689 42.5202 33.2689 42.93286 33.2689 43.26738 33.60342 43.26738 34.01608ZM42.5202 34.01608"/>
<path transform="matrix(1.00003,0,0,-1.00006,24.678299,58.49555)" stroke-width=".3985" stroke-linecap="butt" stroke-miterlimit="10" stroke-linejoin="miter" fill="none" stroke="#000000" d="M0 0V14.17339H56.69362V0ZM56.69362 14.17339"/>
<use data-text="B" xlink:href="#font_1_2" transform="matrix(9.962899,0,0,-9.963197,1.217598,54.81233)"/>
<use data-text="=" xlink:href="#font_2_1" transform="matrix(9.962899,0,0,-9.963197,12.041916,54.81233)"/>
<path transform="matrix(1.00003,0,0,-1.00006,24.678299,58.49555)" d="M14.92056 7.08669C14.92056 7.49934 14.58604 7.83386 14.17339 7.83386 13.76073 7.83386 13.42621 7.49934 13.42621 7.08669 13.42621 6.67403 13.76073 6.33951 14.17339 6.33951 14.58604 6.33951 14.92056 6.67403 14.92056 7.08669ZM14.17339 7.08669"/>
<path transform="matrix(1.00003,0,0,-1.00006,24.678299,58.49555)" stroke-width=".3985" stroke-linecap="butt" stroke-miterlimit="10" stroke-linejoin="miter" fill="none" stroke="#000000" d="M14.92056 7.08669C14.92056 7.49934 14.58604 7.83386 14.17339 7.83386 13.76073 7.83386 13.42621 7.49934 13.42621 7.08669 13.42621 6.67403 13.76073 6.33951 14.17339 6.33951 14.58604 6.33951 14.92056 6.67403 14.92056 7.08669ZM14.17339 7.08669"/>
<path transform="matrix(1.00003,0,0,-1.00006,24.678299,58.49555)" d="M43.26738 7.08669C43.26738 7.49934 42.93286 7.83386 42.5202 7.83386 42.10754 7.83386 41.77303 7.49934 41.77303 7.08669 41.77303 6.67403 42.10754 6.33951 42.5202 6.33951 42.93286 6.33951 43.26738 6.67403 43.26738 7.08669ZM42.5202 7.08669"/>
<path transform="matrix(1.00003,0,0,-1.00006,24.678299,58.49555)" stroke-width=".3985" stroke-linecap="butt" stroke-miterlimit="10" stroke-linejoin="miter" fill="none" stroke="#000000" d="M43.26738 7.08669C43.26738 7.49934 42.93286 7.83386 42.5202 7.83386 42.10754 7.83386 41.77303 7.49934 41.77303 7.08669 41.77303 6.67403 42.10754 6.33951 42.5202 6.33951 42.93286 6.33951 43.26738 6.67403 43.26738 7.08669ZM42.5202 7.08669"/>
<path transform="matrix(1.00003,0,0,-1.00006,24.678299,58.49555)" stroke-width=".3985" stroke-linecap="butt" stroke-miterlimit="10" stroke-linejoin="miter" fill="none" stroke="#000000" d="M45.35484 7.08669C50.60567 16.18141 50.60567 24.92134 46.88673 31.36269"/>
<path transform="matrix(-.49999503,-.8660619,-.866036,.50000998,72.42554,28.619029)" d="M4.21463 0 .64343 1.34572 1.8178 0 .64343-1.34572Z"/>
<path transform="matrix(-.49999503,-.8660619,-.866036,.50000998,72.42554,28.619029)" stroke-width=".3985" stroke-linecap="butt" stroke-miterlimit="10" stroke-linejoin="miter" fill="none" stroke="#000000" d="M4.21463 0 .64343 1.34572 1.8178 0 .64343-1.34572Z"/>
<path transform="matrix(1.00003,0,0,-1.00006,24.678299,58.49555)" stroke-width=".3985" stroke-linecap="butt" stroke-miterlimit="10" stroke-linejoin="miter" fill="none" stroke="#000000" d="M17.00803 7.08669C22.25885 16.18141 22.25885 24.92134 18.53993 31.36269"/>
<path transform="matrix(-.49999503,-.8660619,-.866036,.50000998,44.077875,28.619029)" d="M4.21463 0 .64343 1.34572 1.8178 0 .64343-1.34572Z"/>
<path transform="matrix(-.49999503,-.8660619,-.866036,.50000998,44.077875,28.619029)" stroke-width=".3985" stroke-linecap="butt" stroke-miterlimit="10" stroke-linejoin="miter" fill="none" stroke="#000000" d="M4.21463 0 .64343 1.34572 1.8178 0 .64343-1.34572Z"/>
<path transform="matrix(1.00003,0,0,-1.00006,24.678299,58.49555)" stroke-width=".3985" stroke-linecap="butt" stroke-miterlimit="10" stroke-linejoin="miter" fill="none" stroke="#000000" d="M141.73404-56.69362V-28.3468H198.42766V-56.69362ZM198.42766-28.3468"/>
<use data-text="A" xlink:href="#font_1_1" transform="matrix(9.962899,0,0,-9.963197,143.24787,104.4223)"/>
<use data-text="=" xlink:href="#font_2_1" transform="matrix(9.962899,0,0,-9.963197,153.48717,104.4223)"/>
<path transform="matrix(1.00003,0,0,-1.00006,24.678299,58.49555)" d="M156.65462-34.01608C156.65462-33.60342 156.3201-33.2689 155.90744-33.2689 155.49478-33.2689 155.16027-33.60342 155.16027-34.01608 155.16027-34.42873 155.49478-34.76326 155.90744-34.76326 156.3201-34.76326 156.65462-34.42873 156.65462-34.01608ZM155.90744-34.01608"/>
<path transform="matrix(1.00003,0,0,-1.00006,24.678299,58.49555)" stroke-width=".3985" stroke-linecap="butt" stroke-miterlimit="10" stroke-linejoin="miter" fill="none" stroke="#000000" d="M156.65462-34.01608C156.65462-33.60342 156.3201-33.2689 155.90744-33.2689 155.49478-33.2689 155.16027-33.60342 155.16027-34.01608 155.16027-34.42873 155.49478-34.76326 155.90744-34.76326 156.3201-34.76326 156.65462-34.42873 156.65462-34.01608ZM155.90744-34.01608"/>
<path transform="matrix(1.00003,0,0,-1.00006,24.678299,58.49555)" d="M156.65462-39.68556C156.65462-39.2729 156.3201-38.93839 155.90744-38.93839 155.49478-38.93839 155.16027-39.2729 155.16027-39.68556 155.16027-40.09822 155.49478-40.43274 155.90744-40.43274 156.3201-40.43274 156.65462-40.09822 156.65462-39.68556ZM155.90744-39.68556"/>
<path transform="matrix(1.00003,0,0,-1.00006,24.678299,58.49555)" stroke-width=".3985" stroke-linecap="butt" stroke-miterlimit="10" stroke-linejoin="miter" fill="none" stroke="#000000" d="M156.65462-39.68556C156.65462-39.2729 156.3201-38.93839 155.90744-38.93839 155.49478-38.93839 155.16027-39.2729 155.16027-39.68556 155.16027-40.09822 155.49478-40.43274 155.90744-40.43274 156.3201-40.43274 156.65462-40.09822 156.65462-39.68556ZM155.90744-39.68556"/>
<path transform="matrix(1.00003,0,0,-1.00006,24.678299,58.49555)" d="M156.65462-45.35486C156.65462-44.9422 156.3201-44.60768 155.90744-44.60768 155.49478-44.60768 155.16027-44.9422 155.16027-45.35486 155.16027-45.7675 155.49478-46.10204 155.90744-46.10204 156.3201-46.10204 156.65462-45.7675 156.65462-45.35486ZM155.90744-45.35486"/>
<path transform="matrix(1.00003,0,0,-1.00006,24.678299,58.49555)" stroke-width=".3985" stroke-linecap="butt" stroke-miterlimit="10" stroke-linejoin="miter" fill="none" stroke="#000000" d="M156.65462-45.35486C156.65462-44.9422 156.3201-44.60768 155.90744-44.60768 155.49478-44.60768 155.16027-44.9422 155.16027-45.35486 155.16027-45.7675 155.49478-46.10204 155.90744-46.10204 156.3201-46.10204 156.65462-45.7675 156.65462-45.35486ZM155.90744-45.35486"/>
<path transform="matrix(1.00003,0,0,-1.00006,24.678299,58.49555)" d="M156.65462-51.02434C156.65462-50.61168 156.3201-50.27716 155.90744-50.27716 155.49478-50.27716 155.16027-50.61168 155.16027-51.02434 155.16027-51.437 155.49478-51.77151 155.90744-51.77151 156.3201-51.77151 156.65462-51.437 156.65462-51.02434ZM155.90744-51.02434"/>
<path transform="matrix(1.00003,0,0,-1.00006,24.678299,58.49555)" stroke-width=".3985" stroke-linecap="butt" stroke-miterlimit="10" stroke-linejoin="miter" fill="none" stroke="#000000" d="M156.65462-51.02434C156.65462-50.61168 156.3201-50.27716 155.90744-50.27716 155.49478-50.27716 155.16027-50.61168 155.16027-51.02434 155.16027-51.437 155.49478-51.77151 155.90744-51.77151 156.3201-51.77151 156.65462-51.437 156.65462-51.02434ZM155.90744-51.02434"/>
<path transform="matrix(1.00003,0,0,-1.00006,24.678299,58.49555)" d="M185.00142-45.35486C185.00142-44.9422 184.6669-44.60768 184.25424-44.60768 183.8416-44.60768 183.50707-44.9422 183.50707-45.35486 183.50707-45.7675 183.8416-46.10204 184.25424-46.10204 184.6669-46.10204 185.00142-45.7675 185.00142-45.35486ZM184.25424-45.35486"/>
<path transform="matrix(1.00003,0,0,-1.00006,24.678299,58.49555)" stroke-width=".3985" stroke-linecap="butt" stroke-miterlimit="10" stroke-linejoin="miter" fill="none" stroke="#000000" d="M185.00142-45.35486C185.00142-44.9422 184.6669-44.60768 184.25424-44.60768 183.8416-44.60768 183.50707-44.9422 183.50707-45.35486 183.50707-45.7675 183.8416-46.10204 184.25424-46.10204 184.6669-46.10204 185.00142-45.7675 185.00142-45.35486ZM184.25424-45.35486"/>
<path transform="matrix(1.00003,0,0,-1.00006,24.678299,58.49555)" d="M185.00142-51.02434C185.00142-50.61168 184.6669-50.27716 184.25424-50.27716 183.8416-50.27716 183.50707-50.61168 183.50707-51.02434 183.50707-51.437 183.8416-51.77151 184.25424-51.77151 184.6669-51.77151 185.00142-51.437 185.00142-51.02434ZM184.25424-51.02434"/>
<path transform="matrix(1.00003,0,0,-1.00006,24.678299,58.49555)" stroke-width=".3985" stroke-linecap="butt" stroke-miterlimit="10" stroke-linejoin="miter" fill="none" stroke="#000000" d="M185.00142-51.02434C185.00142-50.61168 184.6669-50.27716 184.25424-50.27716 183.8416-50.27716 183.50707-50.61168 183.50707-51.02434 183.50707-51.437 183.8416-51.77151 184.25424-51.77151 184.6669-51.77151 185.00142-51.437 185.00142-51.02434ZM184.25424-51.02434"/>
<path transform="matrix(1.00003,0,0,-1.00006,24.678299,58.49555)" stroke-width=".3985" stroke-linecap="butt" stroke-miterlimit="10" stroke-linejoin="miter" fill="none" stroke="#000000" d="M141.73404-85.04042V-70.867H198.42766V-85.04042ZM198.42766-70.867"/>
<use data-text="B" xlink:href="#font_1_2" transform="matrix(9.962899,0,0,-9.963197,142.95586,139.85843)"/>
<use data-text="=" xlink:href="#font_2_1" transform="matrix(9.962899,0,0,-9.963197,153.78018,139.85843)"/>
<path transform="matrix(1.00003,0,0,-1.00006,24.678299,58.49555)" d="M156.65462-77.95372C156.65462-77.54106 156.3201-77.20654 155.90744-77.20654 155.49478-77.20654 155.16027-77.54106 155.16027-77.95372 155.16027-78.36638 155.49478-78.7009 155.90744-78.7009 156.3201-78.7009 156.65462-78.36638 156.65462-77.95372ZM155.90744-77.95372"/>
<path transform="matrix(1.00003,0,0,-1.00006,24.678299,58.49555)" stroke-width=".3985" stroke-linecap="butt" stroke-miterlimit="10" stroke-linejoin="miter" fill="none" stroke="#000000" d="M156.65462-77.95372C156.65462-77.54106 156.3201-77.20654 155.90744-77.20654 155.49478-77.20654 155.16027-77.54106 155.16027-77.95372 155.16027-78.36638 155.49478-78.7009 155.90744-78.7009 156.3201-78.7009 156.65462-78.36638 156.65462-77.95372ZM155.90744-77.95372"/>
<path transform="matrix(1.00003,0,0,-1.00006,24.678299,58.49555)" d="M185.00142-77.95372C185.00142-77.54106 184.6669-77.20654 184.25424-77.20654 183.8416-77.20654 183.50707-77.54106 183.50707-77.95372 183.50707-78.36638 183.8416-78.7009 184.25424-78.7009 184.6669-78.7009 185.00142-78.36638 185.00142-77.95372ZM184.25424-77.95372"/>
<path transform="matrix(1.00003,0,0,-1.00006,24.678299,58.49555)" stroke-width=".3985" stroke-linecap="butt" stroke-miterlimit="10" stroke-linejoin="miter" fill="none" stroke="#000000" d="M185.00142-77.95372C185.00142-77.54106 184.6669-77.20654 184.25424-77.20654 183.8416-77.20654 183.50707-77.54106 183.50707-77.95372 183.50707-78.36638 183.8416-78.7009 184.25424-78.7009 184.6669-78.7009 185.00142-78.36638 185.00142-77.95372ZM184.25424-77.95372"/>
<path transform="matrix(1.00003,0,0,-1.00006,24.678299,58.49555)" stroke-width=".3985" stroke-linecap="butt" stroke-miterlimit="10" stroke-linejoin="miter" fill="none" stroke="#000000" d="M187.08889-77.95372C193.44515-66.9443 193.44515-56.36446 188.62079-48.00845"/>
<path transform="matrix(-.49999503,-.8660619,-.866036,.50000998,214.16385,107.99493)" d="M4.21463 0 .64343 1.34572 1.8178 0 .64343-1.34572Z"/>
<path transform="matrix(-.49999503,-.8660619,-.866036,.50000998,214.16385,107.99493)" stroke-width=".3985" stroke-linecap="butt" stroke-miterlimit="10" stroke-linejoin="miter" fill="none" stroke="#000000" d="M4.21463 0 .64343 1.34572 1.8178 0 .64343-1.34572Z"/>
<path transform="matrix(1.00003,0,0,-1.00006,24.678299,58.49555)" stroke-width=".3985" stroke-linecap="butt" stroke-miterlimit="10" stroke-linejoin="miter" fill="none" stroke="#000000" d="M158.74208-77.95372C163.9929-68.85898 163.9929-60.11908 160.27399-53.67772"/>
<path transform="matrix(-.49999503,-.8660619,-.866036,.50000998,185.81618,113.66455)" d="M4.21463 0 .64343 1.34572 1.8178 0 .64343-1.34572Z"/>
<path transform="matrix(-.49999503,-.8660619,-.866036,.50000998,185.81618,113.66455)" stroke-width=".3985" stroke-linecap="butt" stroke-miterlimit="10" stroke-linejoin="miter" fill="none" stroke="#000000" d="M4.21463 0 .64343 1.34572 1.8178 0 .64343-1.34572Z"/>
<path transform="matrix(1.00003,0,0,-1.00006,24.678299,58.49555)" stroke-width=".3985" stroke-linecap="butt" stroke-miterlimit="10" stroke-linejoin="miter" fill="none" stroke="#000000" d="M141.73404 28.3468V56.69362H198.42766V28.3468ZM198.42766 56.69362"/>
<use data-text="A" xlink:href="#font_1_1" transform="matrix(9.962899,0,0,-9.963197,143.24787,19.377202)"/>
<use data-text="=" xlink:href="#font_2_1" transform="matrix(9.962899,0,0,-9.963197,153.48717,19.377202)"/>
<path transform="matrix(1.00003,0,0,-1.00006,24.678299,58.49555)" d="M156.65462 51.02432C156.65462 51.43698 156.3201 51.7715 155.90744 51.7715 155.49478 51.7715 155.16027 51.43698 155.16027 51.02432 155.16027 50.61166 155.49478 50.27715 155.90744 50.27715 156.3201 50.27715 156.65462 50.61166 156.65462 51.02432ZM155.90744 51.02432"/>
<path transform="matrix(1.00003,0,0,-1.00006,24.678299,58.49555)" stroke-width=".3985" stroke-linecap="butt" stroke-miterlimit="10" stroke-linejoin="miter" fill="none" stroke="#000000" d="M156.65462 51.02432C156.65462 51.43698 156.3201 51.7715 155.90744 51.7715 155.49478 51.7715 155.16027 51.43698 155.16027 51.02432 155.16027 50.61166 155.49478 50.27715 155.90744 50.27715 156.3201 50.27715 156.65462 50.61166 156.65462 51.02432ZM155.90744 51.02432"/>
<path transform="matrix(1.00003,0,0,-1.00006,24.678299,58.49555)" d="M156.65462 45.35484C156.65462 45.76749 156.3201 46.10202 155.90744 46.10202 155.49478 46.10202 155.16027 45.76749 155.16027 45.35484 155.16027 44.94218 155.49478 44.60767 155.90744 44.60767 156.3201 44.60767 156.65462 44.94218 156.65462 45.35484ZM155.90744 45.35484"/>
<path transform="matrix(1.00003,0,0,-1.00006,24.678299,58.49555)" stroke-width=".3985" stroke-linecap="butt" stroke-miterlimit="10" stroke-linejoin="miter" fill="none" stroke="#000000" d="M156.65462 45.35484C156.65462 45.76749 156.3201 46.10202 155.90744 46.10202 155.49478 46.10202 155.16027 45.76749 155.16027 45.35484 155.16027 44.94218 155.49478 44.60767 155.90744 44.60767 156.3201 44.60767 156.65462 44.94218 156.65462 45.35484ZM155.90744 45.35484"/>
<path transform="matrix(1.00003,0,0,-1.00006,24.678299,58.49555)" d="M156.65462 39.68556C156.65462 40.09822 156.3201 40.43274 155.90744 40.43274 155.49478 40.43274 155.16027 40.09822 155.16027 39.68556 155.16027 39.2729 155.49478 38.93839 155.90744 38.93839 156.3201 38.93839 156.65462 39.2729 156.65462 39.68556ZM155.90744 39.68556"/>
<path transform="matrix(1.00003,0,0,-1.00006,24.678299,58.49555)" stroke-width=".3985" stroke-linecap="butt" stroke-miterlimit="10" stroke-linejoin="miter" fill="none" stroke="#000000" d="M156.65462 39.68556C156.65462 40.09822 156.3201 40.43274 155.90744 40.43274 155.49478 40.43274 155.16027 40.09822 155.16027 39.68556 155.16027 39.2729 155.49478 38.93839 155.90744 38.93839 156.3201 38.93839 156.65462 39.2729 156.65462 39.68556ZM155.90744 39.68556"/>
<path transform="matrix(1.00003,0,0,-1.00006,24.678299,58.49555)" d="M156.65462 34.01608C156.65462 34.42873 156.3201 34.76326 155.90744 34.76326 155.49478 34.76326 155.16027 34.42873 155.16027 34.01608 155.16027 33.60342 155.49478 33.2689 155.90744 33.2689 156.3201 33.2689 156.65462 33.60342 156.65462 34.01608ZM155.90744 34.01608"/>
<path transform="matrix(1.00003,0,0,-1.00006,24.678299,58.49555)" stroke-width=".3985" stroke-linecap="butt" stroke-miterlimit="10" stroke-linejoin="miter" fill="none" stroke="#000000" d="M156.65462 34.01608C156.65462 34.42873 156.3201 34.76326 155.90744 34.76326 155.49478 34.76326 155.16027 34.42873 155.16027 34.01608 155.16027 33.60342 155.49478 33.2689 155.90744 33.2689 156.3201 33.2689 156.65462 33.60342 156.65462 34.01608ZM155.90744 34.01608"/>
<path transform="matrix(1.00003,0,0,-1.00006,24.678299,58.49555)" d="M185.00142 39.68556C185.00142 40.09822 184.6669 40.43274 184.25424 40.43274 183.8416 40.43274 183.50707 40.09822 183.50707 39.68556 183.50707 39.2729 183.8416 38.93839 184.25424 38.93839 184.6669 38.93839 185.00142 39.2729 185.00142 39.68556ZM184.25424 39.68556"/>
<path transform="matrix(1.00003,0,0,-1.00006,24.678299,58.49555)" stroke-width=".3985" stroke-linecap="butt" stroke-miterlimit="10" stroke-linejoin="miter" fill="none" stroke="#000000" d="M185.00142 39.68556C185.00142 40.09822 184.6669 40.43274 184.25424 40.43274 183.8416 40.43274 183.50707 40.09822 183.50707 39.68556 183.50707 39.2729 183.8416 38.93839 184.25424 38.93839 184.6669 38.93839 185.00142 39.2729 185.00142 39.68556ZM184.25424 39.68556"/>
<path transform="matrix(1.00003,0,0,-1.00006,24.678299,58.49555)" d="M185.00142 34.01608C185.00142 34.42873 184.6669 34.76326 184.25424 34.76326 183.8416 34.76326 183.50707 34.42873 183.50707 34.01608 183.50707 33.60342 183.8416 33.2689 184.25424 33.2689 184.6669 33.2689 185.00142 33.60342 185.00142 34.01608ZM184.25424 34.01608"/>
<path transform="matrix(1.00003,0,0,-1.00006,24.678299,58.49555)" stroke-width=".3985" stroke-linecap="butt" stroke-miterlimit="10" stroke-linejoin="miter" fill="none" stroke="#000000" d="M185.00142 34.01608C185.00142 34.42873 184.6669 34.76326 184.25424 34.76326 183.8416 34.76326 183.50707 34.42873 183.50707 34.01608 183.50707 33.60342 183.8416 33.2689 184.25424 33.2689 184.6669 33.2689 185.00142 33.60342 185.00142 34.01608ZM184.25424 34.01608"/>
<path transform="matrix(1.00003,0,0,-1.00006,24.678299,58.49555)" stroke-width=".3985" stroke-linecap="butt" stroke-miterlimit="10" stroke-linejoin="miter" fill="none" stroke="#000000" d="M141.73404 0V14.17339H198.42766V0ZM198.42766 14.17339"/>
<use data-text="B" xlink:href="#font_1_2" transform="matrix(9.962899,0,0,-9.963197,142.95586,54.81233)"/>
<use data-text="=" xlink:href="#font_2_1" transform="matrix(9.962899,0,0,-9.963197,153.78018,54.81233)"/>
<path transform="matrix(1.00003,0,0,-1.00006,24.678299,58.49555)" d="M156.65462 7.08669C156.65462 7.49934 156.3201 7.83386 155.90744 7.83386 155.49478 7.83386 155.16027 7.49934 155.16027 7.08669 155.16027 6.67403 155.49478 6.33951 155.90744 6.33951 156.3201 6.33951 156.65462 6.67403 156.65462 7.08669ZM155.90744 7.08669"/>
<path transform="matrix(1.00003,0,0,-1.00006,24.678299,58.49555)" stroke-width=".3985" stroke-linecap="butt" stroke-miterlimit="10" stroke-linejoin="miter" fill="none" stroke="#000000" d="M156.65462 7.08669C156.65462 7.49934 156.3201 7.83386 155.90744 7.83386 155.49478 7.83386 155.16027 7.49934 155.16027 7.08669 155.16027 6.67403 155.49478 6.33951 155.90744 6.33951 156.3201 6.33951 156.65462 6.67403 156.65462 7.08669ZM155.90744 7.08669"/>
<path transform="matrix(1.00003,0,0,-1.00006,24.678299,58.49555)" d="M185.00142 7.08669C185.00142 7.49934 184.6669 7.83386 184.25424 7.83386 183.8416 7.83386 183.50707 7.49934 183.50707 7.08669 183.50707 6.67403 183.8416 6.33951 184.25424 6.33951 184.6669 6.33951 185.00142 6.67403 185.00142 7.08669ZM184.25424 7.08669"/>
<path transform="matrix(1.00003,0,0,-1.00006,24.678299,58.49555)" stroke-width=".3985" stroke-linecap="butt" stroke-miterlimit="10" stroke-linejoin="miter" fill="none" stroke="#000000" d="M185.00142 7.08669C185.00142 7.49934 184.6669 7.83386 184.25424 7.83386 183.8416 7.83386 183.50707 7.49934 183.50707 7.08669 183.50707 6.67403 183.8416 6.33951 184.25424 6.33951 184.6669 6.33951 185.00142 6.67403 185.00142 7.08669ZM184.25424 7.08669"/>
<path transform="matrix(1.00003,0,0,-1.00006,24.678299,58.49555)" stroke-width=".3985" stroke-linecap="butt" stroke-miterlimit="10" stroke-linejoin="miter" fill="none" stroke="#000000" d="M187.08889 7.08669C192.3397 16.18141 192.3397 24.92134 188.62079 31.36269"/>
<path transform="matrix(-.49999503,-.8660619,-.866036,.50000998,214.16385,28.619029)" d="M4.21463 0 .64343 1.34572 1.8178 0 .64343-1.34572Z"/>
<path transform="matrix(-.49999503,-.8660619,-.866036,.50000998,214.16385,28.619029)" stroke-width=".3985" stroke-linecap="butt" stroke-miterlimit="10" stroke-linejoin="miter" fill="none" stroke="#000000" d="M4.21463 0 .64343 1.34572 1.8178 0 .64343-1.34572Z"/>
<path transform="matrix(1.00003,0,0,-1.00006,24.678299,58.49555)" stroke-width=".3985" stroke-linecap="butt" stroke-miterlimit="10" stroke-linejoin="miter" fill="none" stroke="#000000" d="M158.74208 7.08669C165.09835 18.09608 165.09835 28.67593 160.27399 37.03197"/>
<path transform="matrix(-.49999503,-.8660619,-.866036,.50000998,185.81618,22.949425)" d="M4.21463 0 .64343 1.34572 1.8178 0 .64343-1.34572Z"/>
<path transform="matrix(-.49999503,-.8660619,-.866036,.50000998,185.81618,22.949425)" stroke-width=".3985" stroke-linecap="butt" stroke-miterlimit="10" stroke-linejoin="miter" fill="none" stroke="#000000" d="M4.21463 0 .64343 1.34572 1.8178 0 .64343-1.34572Z"/>
<path transform="matrix(1.00003,0,0,-1.00006,24.678299,58.49555)" stroke-width=".3985" stroke-linecap="butt" stroke-miterlimit="10" stroke-linejoin="miter" fill="none" stroke="#000000" d="M283.4681-56.69362V-28.3468H340.1617V-56.69362ZM340.1617-28.3468"/>
<use data-text="A" xlink:href="#font_1_1" transform="matrix(9.962899,0,0,-9.963197,284.98713,104.4223)"/>
<use data-text="=" xlink:href="#font_2_1" transform="matrix(9.962899,0,0,-9.963197,295.2264,104.4223)"/>
<path transform="matrix(1.00003,0,0,-1.00006,24.678299,58.49555)" d="M298.38868-34.01608C298.38868-33.60342 298.05415-33.2689 297.6415-33.2689 297.22886-33.2689 296.89433-33.60342 296.89433-34.01608 296.89433-34.42873 297.22886-34.76326 297.6415-34.76326 298.05415-34.76326 298.38868-34.42873 298.38868-34.01608ZM297.6415-34.01608"/>
<path transform="matrix(1.00003,0,0,-1.00006,24.678299,58.49555)" stroke-width=".3985" stroke-linecap="butt" stroke-miterlimit="10" stroke-linejoin="miter" fill="none" stroke="#000000" d="M298.38868-34.01608C298.38868-33.60342 298.05415-33.2689 297.6415-33.2689 297.22886-33.2689 296.89433-33.60342 296.89433-34.01608 296.89433-34.42873 297.22886-34.76326 297.6415-34.76326 298.05415-34.76326 298.38868-34.42873 298.38868-34.01608ZM297.6415-34.01608"/>
<path transform="matrix(1.00003,0,0,-1.00006,24.678299,58.49555)" d="M298.38868-39.68556C298.38868-39.2729 298.05415-38.93839 297.6415-38.93839 297.22886-38.93839 296.89433-39.2729 296.89433-39.68556 296.89433-40.09822 297.22886-40.43274 297.6415-40.43274 298.05415-40.43274 298.38868-40.09822 298.38868-39.68556ZM297.6415-39.68556"/>
<path transform="matrix(1.00003,0,0,-1.00006,24.678299,58.49555)" stroke-width=".3985" stroke-linecap="butt" stroke-miterlimit="10" stroke-linejoin="miter" fill="none" stroke="#000000" d="M298.38868-39.68556C298.38868-39.2729 298.05415-38.93839 297.6415-38.93839 297.22886-38.93839 296.89433-39.2729 296.89433-39.68556 296.89433-40.09822 297.22886-40.43274 297.6415-40.43274 298.05415-40.43274 298.38868-40.09822 298.38868-39.68556ZM297.6415-39.68556"/>
<path transform="matrix(1.00003,0,0,-1.00006,24.678299,58.49555)" d="M298.38868-45.35486C298.38868-44.9422 298.05415-44.60768 297.6415-44.60768 297.22886-44.60768 296.89433-44.9422 296.89433-45.35486 296.89433-45.7675 297.22886-46.10204 297.6415-46.10204 298.05415-46.10204 298.38868-45.7675 298.38868-45.35486ZM297.6415-45.35486"/>
<path transform="matrix(1.00003,0,0,-1.00006,24.678299,58.49555)" stroke-width=".3985" stroke-linecap="butt" stroke-miterlimit="10" stroke-linejoin="miter" fill="none" stroke="#000000" d="M298.38868-45.35486C298.38868-44.9422 298.05415-44.60768 297.6415-44.60768 297.22886-44.60768 296.89433-44.9422 296.89433-45.35486 296.89433-45.7675 297.22886-46.10204 297.6415-46.10204 298.05415-46.10204 298.38868-45.7675 298.38868-45.35486ZM297.6415-45.35486"/>
<path transform="matrix(1.00003,0,0,-1.00006,24.678299,58.49555)" d="M298.38868-51.02434C298.38868-50.61168 298.05415-50.27716 297.6415-50.27716 297.22886-50.27716 296.89433-50.61168 296.89433-51.02434 296.89433-51.437 297.22886-51.77151 297.6415-51.77151 298.05415-51.77151 298.38868-51.437 298.38868-51.02434ZM297.6415-51.02434"/>
<path transform="matrix(1.00003,0,0,-1.00006,24.678299,58.49555)" stroke-width=".3985" stroke-linecap="butt" stroke-miterlimit="10" stroke-linejoin="miter" fill="none" stroke="#000000" d="M298.38868-51.02434C298.38868-50.61168 298.05415-50.27716 297.6415-50.27716 297.22886-50.27716 296.89433-50.61168 296.89433-51.02434 296.89433-51.437 297.22886-51.77151 297.6415-51.77151 298.05415-51.77151 298.38868-51.437 298.38868-51.02434ZM297.6415-51.02434"/>
<path transform="matrix(1.00003,0,0,-1.00006,24.678299,58.49555)" d="M326.73548-45.35486C326.73548-44.9422 326.40098-44.60768 325.9883-44.60768 325.57566-44.60768 325.24113-44.9422 325.24113-45.35486 325.24113-45.7675 325.57566-46.10204 325.9883-46.10204 326.40098-46.10204 326.73548-45.7675 326.73548-45.35486ZM325.9883-45.35486"/>
<path transform="matrix(1.00003,0,0,-1.00006,24.678299,58.49555)" stroke-width=".3985" stroke-linecap="butt" stroke-miterlimit="10" stroke-linejoin="miter" fill="none" stroke="#000000" d="M326.73548-45.35486C326.73548-44.9422 326.40098-44.60768 325.9883-44.60768 325.57566-44.60768 325.24113-44.9422 325.24113-45.35486 325.24113-45.7675 325.57566-46.10204 325.9883-46.10204 326.40098-46.10204 326.73548-45.7675 326.73548-45.35486ZM325.9883-45.35486"/>
<path transform="matrix(1.00003,0,0,-1.00006,24.678299,58.49555)" d="M326.73548-51.02434C326.73548-50.61168 326.40098-50.27716 325.9883-50.27716 325.57566-50.27716 325.24113-50.61168 325.24113-51.02434 325.24113-51.437 325.57566-51.77151 325.9883-51.77151 326.40098-51.77151 326.73548-51.437 326.73548-51.02434ZM325.9883-51.02434"/>
<path transform="matrix(1.00003,0,0,-1.00006,24.678299,58.49555)" stroke-width=".3985" stroke-linecap="butt" stroke-miterlimit="10" stroke-linejoin="miter" fill="none" stroke="#000000" d="M326.73548-51.02434C326.73548-50.61168 326.40098-50.27716 325.9883-50.27716 325.57566-50.27716 325.24113-50.61168 325.24113-51.02434 325.24113-51.437 325.57566-51.77151 325.9883-51.77151 326.40098-51.77151 326.73548-51.437 326.73548-51.02434ZM325.9883-51.02434"/>
<path transform="matrix(1.00003,0,0,-1.00006,24.678299,58.49555)" stroke-width=".3985" stroke-linecap="butt" stroke-miterlimit="10" stroke-linejoin="miter" fill="none" stroke="#000000" d="M283.4681-85.04042V-70.867H340.1617V-85.04042ZM340.1617-70.867"/>
<use data-text="B" xlink:href="#font_1_2" transform="matrix(9.962899,0,0,-9.963197,284.6941,139.85843)"/>
<use data-text="=" xlink:href="#font_2_1" transform="matrix(9.962899,0,0,-9.963197,295.51844,139.85843)"/>
<path transform="matrix(1.00003,0,0,-1.00006,24.678299,58.49555)" d="M298.38868-77.95372C298.38868-77.54106 298.05415-77.20654 297.6415-77.20654 297.22886-77.20654 296.89433-77.54106 296.89433-77.95372 296.89433-78.36638 297.22886-78.7009 297.6415-78.7009 298.05415-78.7009 298.38868-78.36638 298.38868-77.95372ZM297.6415-77.95372"/>
<path transform="matrix(1.00003,0,0,-1.00006,24.678299,58.49555)" stroke-width=".3985" stroke-linecap="butt" stroke-miterlimit="10" stroke-linejoin="miter" fill="none" stroke="#000000" d="M298.38868-77.95372C298.38868-77.54106 298.05415-77.20654 297.6415-77.20654 297.22886-77.20654 296.89433-77.54106 296.89433-77.95372 296.89433-78.36638 297.22886-78.7009 297.6415-78.7009 298.05415-78.7009 298.38868-78.36638 298.38868-77.95372ZM297.6415-77.95372"/>
<path transform="matrix(1.00003,0,0,-1.00006,24.678299,58.49555)" d="M326.73548-77.95372C326.73548-77.54106 326.40098-77.20654 325.9883-77.20654 325.57566-77.20654 325.24113-77.54106 325.24113-77.95372 325.24113-78.36638 325.57566-78.7009 325.9883-78.7009 326.40098-78.7009 326.73548-78.36638 326.73548-77.95372ZM325.9883-77.95372"/>
<path transform="matrix(1.00003,0,0,-1.00006,24.678299,58.49555)" stroke-width=".3985" stroke-linecap="butt" stroke-miterlimit="10" stroke-linejoin="miter" fill="none" stroke="#000000" d="M326.73548-77.95372C326.73548-77.54106 326.40098-77.20654 325.9883-77.20654 325.57566-77.20654 325.24113-77.54106 325.24113-77.95372 325.24113-78.36638 325.57566-78.7009 325.9883-78.7009 326.40098-78.7009 326.73548-78.36638 326.73548-77.95372ZM325.9883-77.95372"/>
<path transform="matrix(1.00003,0,0,-1.00006,24.678299,58.49555)" stroke-width=".3985" stroke-linecap="butt" stroke-miterlimit="10" stroke-linejoin="miter" fill="none" stroke="#000000" d="M328.82295-77.95372C335.1792-66.9443 335.1792-56.36446 330.35484-48.00845"/>
<path transform="matrix(-.49999503,-.8660619,-.866036,.50000998,355.90217,107.99493)" d="M4.21463 0 .64343 1.34572 1.8178 0 .64343-1.34572Z"/>
<path transform="matrix(-.49999503,-.8660619,-.866036,.50000998,355.90217,107.99493)" stroke-width=".3985" stroke-linecap="butt" stroke-miterlimit="10" stroke-linejoin="miter" fill="none" stroke="#000000" d="M4.21463 0 .64343 1.34572 1.8178 0 .64343-1.34572Z"/>
<path transform="matrix(1.00003,0,0,-1.00006,24.678299,58.49555)" stroke-width=".3985" stroke-linecap="butt" stroke-miterlimit="10" stroke-linejoin="miter" fill="none" stroke="#000000" d="M300.47615-77.95372C306.8324-66.9443 306.8324-56.36446 302.00804-48.00845"/>
<path transform="matrix(-.49999503,-.8660619,-.866036,.50000998,327.5545,107.99493)" d="M4.21463 0 .64343 1.34572 1.8178 0 .64343-1.34572Z"/>
<path transform="matrix(-.49999503,-.8660619,-.866036,.50000998,327.5545,107.99493)" stroke-width=".3985" stroke-linecap="butt" stroke-miterlimit="10" stroke-linejoin="miter" fill="none" stroke="#000000" d="M4.21463 0 .64343 1.34572 1.8178 0 .64343-1.34572Z"/>
<path transform="matrix(1.00003,0,0,-1.00006,24.678299,58.49555)" stroke-width=".3985" stroke-linecap="butt" stroke-miterlimit="10" stroke-linejoin="miter" fill="none" stroke="#000000" d="M283.4681 28.3468V56.69362H340.1617V28.3468ZM340.1617 56.69362"/>
<use data-text="A" xlink:href="#font_1_1" transform="matrix(9.962899,0,0,-9.963197,284.98713,19.377202)"/>
<use data-text="=" xlink:href="#font_2_1" transform="matrix(9.962899,0,0,-9.963197,295.2264,19.377202)"/>
<path transform="matrix(1.00003,0,0,-1.00006,24.678299,58.49555)" d="M298.38868 51.02432C298.38868 51.43698 298.05415 51.7715 297.6415 51.7715 297.22886 51.7715 296.89433 51.43698 296.89433 51.02432 296.89433 50.61166 297.22886 50.27715 297.6415 50.27715 298.05415 50.27715 298.38868 50.61166 298.38868 51.02432ZM297.6415 51.02432"/>
<path transform="matrix(1.00003,0,0,-1.00006,24.678299,58.49555)" stroke-width=".3985" stroke-linecap="butt" stroke-miterlimit="10" stroke-linejoin="miter" fill="none" stroke="#000000" d="M298.38868 51.02432C298.38868 51.43698 298.05415 51.7715 297.6415 51.7715 297.22886 51.7715 296.89433 51.43698 296.89433 51.02432 296.89433 50.61166 297.22886 50.27715 297.6415 50.27715 298.05415 50.27715 298.38868 50.61166 298.38868 51.02432ZM297.6415 51.02432"/>
<path transform="matrix(1.00003,0,0,-1.00006,24.678299,58.49555)" d="M298.38868 45.35484C298.38868 45.76749 298.05415 46.10202 297.6415 46.10202 297.22886 46.10202 296.89433 45.76749 296.89433 45.35484 296.89433 44.94218 297.22886 44.60767 297.6415 44.60767 298.05415 44.60767 298.38868 44.94218 298.38868 45.35484ZM297.6415 45.35484"/>
<path transform="matrix(1.00003,0,0,-1.00006,24.678299,58.49555)" stroke-width=".3985" stroke-linecap="butt" stroke-miterlimit="10" stroke-linejoin="miter" fill="none" stroke="#000000" d="M298.38868 45.35484C298.38868 45.76749 298.05415 46.10202 297.6415 46.10202 297.22886 46.10202 296.89433 45.76749 296.89433 45.35484 296.89433 44.94218 297.22886 44.60767 297.6415 44.60767 298.05415 44.60767 298.38868 44.94218 298.38868 45.35484ZM297.6415 45.35484"/>
<path transform="matrix(1.00003,0,0,-1.00006,24.678299,58.49555)" d="M298.38868 39.68556C298.38868 40.09822 298.05415 40.43274 297.6415 40.43274 297.22886 40.43274 296.89433 40.09822 296.89433 39.68556 296.89433 39.2729 297.22886 38.93839 297.6415 38.93839 298.05415 38.93839 298.38868 39.2729 298.38868 39.68556ZM297.6415 39.68556"/>
<path transform="matrix(1.00003,0,0,-1.00006,24.678299,58.49555)" stroke-width=".3985" stroke-linecap="butt" stroke-miterlimit="10" stroke-linejoin="miter" fill="none" stroke="#000000" d="M298.38868 39.68556C298.38868 40.09822 298.05415 40.43274 297.6415 40.43274 297.22886 40.43274 296.89433 40.09822 296.89433 39.68556 296.89433 39.2729 297.22886 38.93839 297.6415 38.93839 298.05415 38.93839 298.38868 39.2729 298.38868 39.68556ZM297.6415 39.68556"/>
<path transform="matrix(1.00003,0,0,-1.00006,24.678299,58.49555)" d="M298.38868 34.01608C298.38868 34.42873 298.05415 34.76326 297.6415 34.76326 297.22886 34.76326 296.89433 34.42873 296.89433 34.01608 296.89433 33.60342 297.22886 33.2689 297.6415 33.2689 298.05415 33.2689 298.38868 33.60342 298.38868 34.01608ZM297.6415 34.01608"/>
<path transform="matrix(1.00003,0,0,-1.00006,24.678299,58.49555)" stroke-width=".3985" stroke-linecap="butt" stroke-miterlimit="10" stroke-linejoin="miter" fill="none" stroke="#000000" d="M298.38868 34.01608C298.38868 34.42873 298.05415 34.76326 297.6415 34.76326 297.22886 34.76326 296.89433 34.42873 296.89433 34.01608 296.89433 33.60342 297.22886 33.2689 297.6415 33.2689 298.05415 33.2689 298.38868 33.60342 298.38868 34.01608ZM297.6415 34.01608"/>
<path transform="matrix(1.00003,0,0,-1.00006,24.678299,58.49555)" d="M326.73548 39.68556C326.73548 40.09822 326.40098 40.43274 325.9883 40.43274 325.57566 40.43274 325.24113 40.09822 325.24113 39.68556 325.24113 39.2729 325.57566 38.93839 325.9883 38.93839 326.40098 38.93839 326.73548 39.2729 326.73548 39.68556ZM325.9883 39.68556"/>
<path transform="matrix(1.00003,0,0,-1.00006,24.678299,58.49555)" stroke-width=".3985" stroke-linecap="butt" stroke-miterlimit="10" stroke-linejoin="miter" fill="none" stroke="#000000" d="M326.73548 39.68556C326.73548 40.09822 326.40098 40.43274 325.9883 40.43274 325.57566 40.43274 325.24113 40.09822 325.24113 39.68556 325.24113 39.2729 325.57566 38.93839 325.9883 38.93839 326.40098 38.93839 326.73548 39.2729 326.73548 39.68556ZM325.9883 39.68556"/>
<path transform="matrix(1.00003,0,0,-1.00006,24.678299,58.49555)" d="M326.73548 34.01608C326.73548 34.42873 326.40098 34.76326 325.9883 34.76326 325.57566 34.76326 325.24113 34.42873 325.24113 34.01608 325.24113 33.60342 325.57566 33.2689 325.9883 33.2689 326.40098 33.2689 326.73548 33.60342 326.73548 34.01608ZM325.9883 34.01608"/>
<path transform="matrix(1.00003,0,0,-1.00006,24.678299,58.49555)" stroke-width=".3985" stroke-linecap="butt" stroke-miterlimit="10" stroke-linejoin="miter" fill="none" stroke="#000000" d="M326.73548 34.01608C326.73548 34.42873 326.40098 34.76326 325.9883 34.76326 325.57566 34.76326 325.24113 34.42873 325.24113 34.01608 325.24113 33.60342 325.57566 33.2689 325.9883 33.2689 326.40098 33.2689 326.73548 33.60342 326.73548 34.01608ZM325.9883 34.01608"/>
<path transform="matrix(1.00003,0,0,-1.00006,24.678299,58.49555)" stroke-width=".3985" stroke-linecap="butt" stroke-miterlimit="10" stroke-linejoin="miter" fill="none" stroke="#000000" d="M283.4681 0V14.17339H340.1617V0ZM340.1617 14.17339"/>
<use data-text="B" xlink:href="#font_1_2" transform="matrix(9.962899,0,0,-9.963197,284.6941,54.81233)"/>
<use data-text="=" xlink:href="#font_2_1" transform="matrix(9.962899,0,0,-9.963197,295.51844,54.81233)"/>
<path transform="matrix(1.00003,0,0,-1.00006,24.678299,58.49555)" d="M298.38868 7.08669C298.38868 7.49934 298.05415 7.83386 297.6415 7.83386 297.22886 7.83386 296.89433 7.49934 296.89433 7.08669 296.89433 6.67403 297.22886 6.33951 297.6415 6.33951 298.05415 6.33951 298.38868 6.67403 298.38868 7.08669ZM297.6415 7.08669"/>
<path transform="matrix(1.00003,0,0,-1.00006,24.678299,58.49555)" stroke-width=".3985" stroke-linecap="butt" stroke-miterlimit="10" stroke-linejoin="miter" fill="none" stroke="#000000" d="M298.38868 7.08669C298.38868 7.49934 298.05415 7.83386 297.6415 7.83386 297.22886 7.83386 296.89433 7.49934 296.89433 7.08669 296.89433 6.67403 297.22886 6.33951 297.6415 6.33951 298.05415 6.33951 298.38868 6.67403 298.38868 7.08669ZM297.6415 7.08669"/>
<path transform="matrix(1.00003,0,0,-1.00006,24.678299,58.49555)" d="M326.73548 7.08669C326.73548 7.49934 326.40098 7.83386 325.9883 7.83386 325.57566 7.83386 325.24113 7.49934 325.24113 7.08669 325.24113 6.67403 325.57566 6.33951 325.9883 6.33951 326.40098 6.33951 326.73548 6.67403 326.73548 7.08669ZM325.9883 7.08669"/>
<path transform="matrix(1.00003,0,0,-1.00006,24.678299,58.49555)" stroke-width=".3985" stroke-linecap="butt" stroke-miterlimit="10" stroke-linejoin="miter" fill="none" stroke="#000000" d="M326.73548 7.08669C326.73548 7.49934 326.40098 7.83386 325.9883 7.83386 325.57566 7.83386 325.24113 7.49934 325.24113 7.08669 325.24113 6.67403 325.57566 6.33951 325.9883 6.33951 326.40098 6.33951 326.73548 6.67403 326.73548 7.08669ZM325.9883 7.08669"/>
<path transform="matrix(1.00003,0,0,-1.00006,24.678299,58.49555)" stroke-width=".3985" stroke-linecap="butt" stroke-miterlimit="10" stroke-linejoin="miter" fill="none" stroke="#000000" d="M328.82295 7.08669C334.07377 16.18141 334.07377 24.92134 330.35484 31.36269"/>
<path transform="matrix(-.49999503,-.8660619,-.866036,.50000998,355.90217,28.619029)" d="M4.21463 0 .64343 1.34572 1.8178 0 .64343-1.34572Z"/>
<path transform="matrix(-.49999503,-.8660619,-.866036,.50000998,355.90217,28.619029)" stroke-width=".3985" stroke-linecap="butt" stroke-miterlimit="10" stroke-linejoin="miter" fill="none" stroke="#000000" d="M4.21463 0 .64343 1.34572 1.8178 0 .64343-1.34572Z"/>
<path transform="matrix(1.00003,0,0,-1.00006,24.678299,58.49555)" stroke-width=".3985" stroke-linecap="butt" stroke-miterlimit="10" stroke-linejoin="miter" fill="none" stroke="#000000" d="M300.47615 7.08669C307.9378 20.01076 307.9378 32.43056 302.00804 42.70123"/>
<path transform="matrix(-.49999503,-.8660619,-.866036,.50000998,327.5545,17.279808)" d="M4.21463 0 .64343 1.34572 1.8178 0 .64343-1.34572Z"/>
<path transform="matrix(-.49999503,-.8660619,-.866036,.50000998,327.5545,17.279808)" stroke-width=".3985" stroke-linecap="butt" stroke-miterlimit="10" stroke-linejoin="miter" fill="none" stroke="#000000" d="M4.21463 0 .64343 1.34572 1.8178 0 .64343-1.34572Z"/>
<path transform="matrix(1.00003,0,0,-1.00006,24.678299,58.49555)" stroke-width=".3985" stroke-linecap="butt" stroke-miterlimit="10" stroke-linejoin="miter" fill="none" stroke="#000000" d="M0-141.73404V-113.38724H56.69362V-141.73404ZM56.69362-113.38724"/>
<use data-text="A" xlink:href="#font_1_1" transform="matrix(9.962899,0,0,-9.963197,1.5096054,189.4684)"/>
<use data-text="=" xlink:href="#font_2_1" transform="matrix(9.962899,0,0,-9.963197,11.748909,189.4684)"/>
<path transform="matrix(1.00003,0,0,-1.00006,24.678299,58.49555)" d="M14.92056-119.0565C14.92056-118.64384 14.58604-118.30933 14.17339-118.30933 13.76073-118.30933 13.42621-118.64384 13.42621-119.0565 13.42621-119.46916 13.76073-119.80368 14.17339-119.80368 14.58604-119.80368 14.92056-119.46916 14.92056-119.0565ZM14.17339-119.0565"/>
<path transform="matrix(1.00003,0,0,-1.00006,24.678299,58.49555)" stroke-width=".3985" stroke-linecap="butt" stroke-miterlimit="10" stroke-linejoin="miter" fill="none" stroke="#000000" d="M14.92056-119.0565C14.92056-118.64384 14.58604-118.30933 14.17339-118.30933 13.76073-118.30933 13.42621-118.64384 13.42621-119.0565 13.42621-119.46916 13.76073-119.80368 14.17339-119.80368 14.58604-119.80368 14.92056-119.46916 14.92056-119.0565ZM14.17339-119.0565"/>
<path transform="matrix(1.00003,0,0,-1.00006,24.678299,58.49555)" d="M14.92056-124.726C14.92056-124.31334 14.58604-123.97882 14.17339-123.97882 13.76073-123.97882 13.42621-124.31334 13.42621-124.726 13.42621-125.13866 13.76073-125.47318 14.17339-125.47318 14.58604-125.47318 14.92056-125.13866 14.92056-124.726ZM14.17339-124.726"/>
<path transform="matrix(1.00003,0,0,-1.00006,24.678299,58.49555)" stroke-width=".3985" stroke-linecap="butt" stroke-miterlimit="10" stroke-linejoin="miter" fill="none" stroke="#000000" d="M14.92056-124.726C14.92056-124.31334 14.58604-123.97882 14.17339-123.97882 13.76073-123.97882 13.42621-124.31334 13.42621-124.726 13.42621-125.13866 13.76073-125.47318 14.17339-125.47318 14.58604-125.47318 14.92056-125.13866 14.92056-124.726ZM14.17339-124.726"/>
<path transform="matrix(1.00003,0,0,-1.00006,24.678299,58.49555)" d="M14.92056-130.39528C14.92056-129.98262 14.58604-129.6481 14.17339-129.6481 13.76073-129.6481 13.42621-129.98262 13.42621-130.39528 13.42621-130.80794 13.76073-131.14246 14.17339-131.14246 14.58604-131.14246 14.92056-130.80794 14.92056-130.39528ZM14.17339-130.39528"/>
<path transform="matrix(1.00003,0,0,-1.00006,24.678299,58.49555)" stroke-width=".3985" stroke-linecap="butt" stroke-miterlimit="10" stroke-linejoin="miter" fill="none" stroke="#000000" d="M14.92056-130.39528C14.92056-129.98262 14.58604-129.6481 14.17339-129.6481 13.76073-129.6481 13.42621-129.98262 13.42621-130.39528 13.42621-130.80794 13.76073-131.14246 14.17339-131.14246 14.58604-131.14246 14.92056-130.80794 14.92056-130.39528ZM14.17339-130.39528"/>
<path transform="matrix(1.00003,0,0,-1.00006,24.678299,58.49555)" d="M14.92056-136.06478C14.92056-135.65212 14.58604-135.3176 14.17339-135.3176 13.76073-135.3176 13.42621-135.65212 13.42621-136.06478 13.42621-136.47743 13.76073-136.81195 14.17339-136.81195 14.58604-136.81195 14.92056-136.47743 14.92056-136.06478ZM14.17339-136.06478"/>
<path transform="matrix(1.00003,0,0,-1.00006,24.678299,58.49555)" stroke-width=".3985" stroke-linecap="butt" stroke-miterlimit="10" stroke-linejoin="miter" fill="none" stroke="#000000" d="M14.92056-136.06478C14.92056-135.65212 14.58604-135.3176 14.17339-135.3176 13.76073-135.3176 13.42621-135.65212 13.42621-136.06478 13.42621-136.47743 13.76073-136.81195 14.17339-136.81195 14.58604-136.81195 14.92056-136.47743 14.92056-136.06478ZM14.17339-136.06478"/>
<path transform="matrix(1.00003,0,0,-1.00006,24.678299,58.49555)" d="M43.26738-130.39528C43.26738-129.98262 42.93286-129.6481 42.5202-129.6481 42.10754-129.6481 41.77303-129.98262 41.77303-130.39528 41.77303-130.80794 42.10754-131.14246 42.5202-131.14246 42.93286-131.14246 43.26738-130.80794 43.26738-130.39528ZM42.5202-130.39528"/>
<path transform="matrix(1.00003,0,0,-1.00006,24.678299,58.49555)" stroke-width=".3985" stroke-linecap="butt" stroke-miterlimit="10" stroke-linejoin="miter" fill="none" stroke="#000000" d="M43.26738-130.39528C43.26738-129.98262 42.93286-129.6481 42.5202-129.6481 42.10754-129.6481 41.77303-129.98262 41.77303-130.39528 41.77303-130.80794 42.10754-131.14246 42.5202-131.14246 42.93286-131.14246 43.26738-130.80794 43.26738-130.39528ZM42.5202-130.39528"/>
<path transform="matrix(1.00003,0,0,-1.00006,24.678299,58.49555)" d="M43.26738-136.06478C43.26738-135.65212 42.93286-135.3176 42.5202-135.3176 42.10754-135.3176 41.77303-135.65212 41.77303-136.06478 41.77303-136.47743 42.10754-136.81195 42.5202-136.81195 42.93286-136.81195 43.26738-136.47743 43.26738-136.06478ZM42.5202-136.06478"/>
<path transform="matrix(1.00003,0,0,-1.00006,24.678299,58.49555)" stroke-width=".3985" stroke-linecap="butt" stroke-miterlimit="10" stroke-linejoin="miter" fill="none" stroke="#000000" d="M43.26738-136.06478C43.26738-135.65212 42.93286-135.3176 42.5202-135.3176 42.10754-135.3176 41.77303-135.65212 41.77303-136.06478 41.77303-136.47743 42.10754-136.81195 42.5202-136.81195 42.93286-136.81195 43.26738-136.47743 43.26738-136.06478ZM42.5202-136.06478"/>
<path transform="matrix(1.00003,0,0,-1.00006,24.678299,58.49555)" stroke-width=".3985" stroke-linecap="butt" stroke-miterlimit="10" stroke-linejoin="miter" fill="none" stroke="#000000" d="M0-170.08086V-155.90744H56.69362V-170.08086ZM56.69362-155.90744"/>
<use data-text="B" xlink:href="#font_1_2" transform="matrix(9.962899,0,0,-9.963197,1.217598,224.90352)"/>
<use data-text="=" xlink:href="#font_2_1" transform="matrix(9.962899,0,0,-9.963197,12.041916,224.90352)"/>
<path transform="matrix(1.00003,0,0,-1.00006,24.678299,58.49555)" d="M14.92056-162.99414C14.92056-162.58148 14.58604-162.24697 14.17339-162.24697 13.76073-162.24697 13.42621-162.58148 13.42621-162.99414 13.42621-163.4068 13.76073-163.74132 14.17339-163.74132 14.58604-163.74132 14.92056-163.4068 14.92056-162.99414ZM14.17339-162.99414"/>
<path transform="matrix(1.00003,0,0,-1.00006,24.678299,58.49555)" stroke-width=".3985" stroke-linecap="butt" stroke-miterlimit="10" stroke-linejoin="miter" fill="none" stroke="#000000" d="M14.92056-162.99414C14.92056-162.58148 14.58604-162.24697 14.17339-162.24697 13.76073-162.24697 13.42621-162.58148 13.42621-162.99414 13.42621-163.4068 13.76073-163.74132 14.17339-163.74132 14.58604-163.74132 14.92056-163.4068 14.92056-162.99414ZM14.17339-162.99414"/>
<path transform="matrix(1.00003,0,0,-1.00006,24.678299,58.49555)" d="M43.26738-162.99414C43.26738-162.58148 42.93286-162.24697 42.5202-162.24697 42.10754-162.24697 41.77303-162.58148 41.77303-162.99414 41.77303-163.4068 42.10754-163.74132 42.5202-163.74132 42.93286-163.74132 43.26738-163.4068 43.26738-162.99414ZM42.5202-162.99414"/>
<path transform="matrix(1.00003,0,0,-1.00006,24.678299,58.49555)" stroke-width=".3985" stroke-linecap="butt" stroke-miterlimit="10" stroke-linejoin="miter" fill="none" stroke="#000000" d="M43.26738-162.99414C43.26738-162.58148 42.93286-162.24697 42.5202-162.24697 42.10754-162.24697 41.77303-162.58148 41.77303-162.99414 41.77303-163.4068 42.10754-163.74132 42.5202-163.74132 42.93286-163.74132 43.26738-163.4068 43.26738-162.99414ZM42.5202-162.99414"/>
<path transform="matrix(1.00003,0,0,-1.00006,24.678299,58.49555)" stroke-width=".3985" stroke-linecap="butt" stroke-miterlimit="10" stroke-linejoin="miter" fill="none" stroke="#000000" d="M45.35484-162.99414C51.7111-151.98474 51.7111-141.40489 46.88673-133.04888"/>
<path transform="matrix(-.49999503,-.8660619,-.866036,.50000998,72.42554,193.04047)" d="M4.21463 0 .64343 1.34572 1.8178 0 .64343-1.34572Z"/>
<path transform="matrix(-.49999503,-.8660619,-.866036,.50000998,72.42554,193.04047)" stroke-width=".3985" stroke-linecap="butt" stroke-miterlimit="10" stroke-linejoin="miter" fill="none" stroke="#000000" d="M4.21463 0 .64343 1.34572 1.8178 0 .64343-1.34572Z"/>
<path transform="matrix(1.00003,0,0,-1.00006,24.678299,58.49555)" stroke-width=".3985" stroke-linecap="butt" stroke-miterlimit="10" stroke-linejoin="miter" fill="none" stroke="#000000" d="M17.00803-162.99414C24.46973-150.07009 24.46973-137.65029 18.53993-127.37961"/>
<path transform="matrix(-.49999503,-.8660619,-.866036,.50000998,44.077875,187.37084)" d="M4.21463 0 .64343 1.34572 1.8178 0 .64343-1.34572Z"/>
<path transform="matrix(-.49999503,-.8660619,-.866036,.50000998,44.077875,187.37084)" stroke-width=".3985" stroke-linecap="butt" stroke-miterlimit="10" stroke-linejoin="miter" fill="none" stroke="#000000" d="M4.21463 0 .64343 1.34572 1.8178 0 .64343-1.34572Z"/>
<path transform="matrix(1.00003,0,0,-1.00006,24.678299,58.49555)" stroke-width=".3985" stroke-linecap="butt" stroke-miterlimit="10" stroke-linejoin="miter" fill="none" stroke="#000000" d="M0-56.69362V-28.3468H56.69362V-56.69362ZM56.69362-28.3468"/>
<use data-text="A" xlink:href="#font_1_1" transform="matrix(9.962899,0,0,-9.963197,1.5096054,104.4223)"/>
<use data-text="=" xlink:href="#font_2_1" transform="matrix(9.962899,0,0,-9.963197,11.748909,104.4223)"/>
<path transform="matrix(1.00003,0,0,-1.00006,24.678299,58.49555)" d="M14.92056-34.01608C14.92056-33.60342 14.58604-33.2689 14.17339-33.2689 13.76073-33.2689 13.42621-33.60342 13.42621-34.01608 13.42621-34.42873 13.76073-34.76326 14.17339-34.76326 14.58604-34.76326 14.92056-34.42873 14.92056-34.01608ZM14.17339-34.01608"/>
<path transform="matrix(1.00003,0,0,-1.00006,24.678299,58.49555)" stroke-width=".3985" stroke-linecap="butt" stroke-miterlimit="10" stroke-linejoin="miter" fill="none" stroke="#000000" d="M14.92056-34.01608C14.92056-33.60342 14.58604-33.2689 14.17339-33.2689 13.76073-33.2689 13.42621-33.60342 13.42621-34.01608 13.42621-34.42873 13.76073-34.76326 14.17339-34.76326 14.58604-34.76326 14.92056-34.42873 14.92056-34.01608ZM14.17339-34.01608"/>
<path transform="matrix(1.00003,0,0,-1.00006,24.678299,58.49555)" d="M14.92056-39.68556C14.92056-39.2729 14.58604-38.93839 14.17339-38.93839 13.76073-38.93839 13.42621-39.2729 13.42621-39.68556 13.42621-40.09822 13.76073-40.43274 14.17339-40.43274 14.58604-40.43274 14.92056-40.09822 14.92056-39.68556ZM14.17339-39.68556"/>
<path transform="matrix(1.00003,0,0,-1.00006,24.678299,58.49555)" stroke-width=".3985" stroke-linecap="butt" stroke-miterlimit="10" stroke-linejoin="miter" fill="none" stroke="#000000" d="M14.92056-39.68556C14.92056-39.2729 14.58604-38.93839 14.17339-38.93839 13.76073-38.93839 13.42621-39.2729 13.42621-39.68556 13.42621-40.09822 13.76073-40.43274 14.17339-40.43274 14.58604-40.43274 14.92056-40.09822 14.92056-39.68556ZM14.17339-39.68556"/>
<path transform="matrix(1.00003,0,0,-1.00006,24.678299,58.49555)" d="M14.92056-45.35486C14.92056-44.9422 14.58604-44.60768 14.17339-44.60768 13.76073-44.60768 13.42621-44.9422 13.42621-45.35486 13.42621-45.7675 13.76073-46.10204 14.17339-46.10204 14.58604-46.10204 14.92056-45.7675 14.92056-45.35486ZM14.17339-45.35486"/>
<path transform="matrix(1.00003,0,0,-1.00006,24.678299,58.49555)" stroke-width=".3985" stroke-linecap="butt" stroke-miterlimit="10" stroke-linejoin="miter" fill="none" stroke="#000000" d="M14.92056-45.35486C14.92056-44.9422 14.58604-44.60768 14.17339-44.60768 13.76073-44.60768 13.42621-44.9422 13.42621-45.35486 13.42621-45.7675 13.76073-46.10204 14.17339-46.10204 14.58604-46.10204 14.92056-45.7675 14.92056-45.35486ZM14.17339-45.35486"/>
<path transform="matrix(1.00003,0,0,-1.00006,24.678299,58.49555)" d="M14.92056-51.02434C14.92056-50.61168 14.58604-50.27716 14.17339-50.27716 13.76073-50.27716 13.42621-50.61168 13.42621-51.02434 13.42621-51.437 13.76073-51.77151 14.17339-51.77151 14.58604-51.77151 14.92056-51.437 14.92056-51.02434ZM14.17339-51.02434"/>
<path transform="matrix(1.00003,0,0,-1.00006,24.678299,58.49555)" stroke-width=".3985" stroke-linecap="butt" stroke-miterlimit="10" stroke-linejoin="miter" fill="none" stroke="#000000" d="M14.92056-51.02434C14.92056-50.61168 14.58604-50.27716 14.17339-50.27716 13.76073-50.27716 13.42621-50.61168 13.42621-51.02434 13.42621-51.437 13.76073-51.77151 14.17339-51.77151 14.58604-51.77151 14.92056-51.437 14.92056-51.02434ZM14.17339-51.02434"/>
<path transform="matrix(1.00003,0,0,-1.00006,24.678299,58.49555)" d="M43.26738-45.35486C43.26738-44.9422 42.93286-44.60768 42.5202-44.60768 42.10754-44.60768 41.77303-44.9422 41.77303-45.35486 41.77303-45.7675 42.10754-46.10204 42.5202-46.10204 42.93286-46.10204 43.26738-45.7675 43.26738-45.35486ZM42.5202-45.35486"/>
<path transform="matrix(1.00003,0,0,-1.00006,24.678299,58.49555)" stroke-width=".3985" stroke-linecap="butt" stroke-miterlimit="10" stroke-linejoin="miter" fill="none" stroke="#000000" d="M43.26738-45.35486C43.26738-44.9422 42.93286-44.60768 42.5202-44.60768 42.10754-44.60768 41.77303-44.9422 41.77303-45.35486 41.77303-45.7675 42.10754-46.10204 42.5202-46.10204 42.93286-46.10204 43.26738-45.7675 43.26738-45.35486ZM42.5202-45.35486"/>
<path transform="matrix(1.00003,0,0,-1.00006,24.678299,58.49555)" d="M43.26738-51.02434C43.26738-50.61168 42.93286-50.27716 42.5202-50.27716 42.10754-50.27716 41.77303-50.61168 41.77303-51.02434 41.77303-51.437 42.10754-51.77151 42.5202-51.77151 42.93286-51.77151 43.26738-51.437 43.26738-51.02434ZM42.5202-51.02434"/>
<path transform="matrix(1.00003,0,0,-1.00006,24.678299,58.49555)" stroke-width=".3985" stroke-linecap="butt" stroke-miterlimit="10" stroke-linejoin="miter" fill="none" stroke="#000000" d="M43.26738-51.02434C43.26738-50.61168 42.93286-50.27716 42.5202-50.27716 42.10754-50.27716 41.77303-50.61168 41.77303-51.02434 41.77303-51.437 42.10754-51.77151 42.5202-51.77151 42.93286-51.77151 43.26738-51.437 43.26738-51.02434ZM42.5202-51.02434"/>
<path transform="matrix(1.00003,0,0,-1.00006,24.678299,58.49555)" stroke-width=".3985" stroke-linecap="butt" stroke-miterlimit="10" stroke-linejoin="miter" fill="none" stroke="#000000" d="M0-85.04042V-70.867H56.69362V-85.04042ZM56.69362-70.867"/>
<use data-text="B" xlink:href="#font_1_2" transform="matrix(9.962899,0,0,-9.963197,1.217598,139.85843)"/>
<use data-text="=" xlink:href="#font_2_1" transform="matrix(9.962899,0,0,-9.963197,12.041916,139.85843)"/>
<path transform="matrix(1.00003,0,0,-1.00006,24.678299,58.49555)" d="M14.92056-77.95372C14.92056-77.54106 14.58604-77.20654 14.17339-77.20654 13.76073-77.20654 13.42621-77.54106 13.42621-77.95372 13.42621-78.36638 13.76073-78.7009 14.17339-78.7009 14.58604-78.7009 14.92056-78.36638 14.92056-77.95372ZM14.17339-77.95372"/>
<path transform="matrix(1.00003,0,0,-1.00006,24.678299,58.49555)" stroke-width=".3985" stroke-linecap="butt" stroke-miterlimit="10" stroke-linejoin="miter" fill="none" stroke="#000000" d="M14.92056-77.95372C14.92056-77.54106 14.58604-77.20654 14.17339-77.20654 13.76073-77.20654 13.42621-77.54106 13.42621-77.95372 13.42621-78.36638 13.76073-78.7009 14.17339-78.7009 14.58604-78.7009 14.92056-78.36638 14.92056-77.95372ZM14.17339-77.95372"/>
<path transform="matrix(1.00003,0,0,-1.00006,24.678299,58.49555)" d="M43.26738-77.95372C43.26738-77.54106 42.93286-77.20654 42.5202-77.20654 42.10754-77.20654 41.77303-77.54106 41.77303-77.95372 41.77303-78.36638 42.10754-78.7009 42.5202-78.7009 42.93286-78.7009 43.26738-78.36638 43.26738-77.95372ZM42.5202-77.95372"/>
<path transform="matrix(1.00003,0,0,-1.00006,24.678299,58.49555)" stroke-width=".3985" stroke-linecap="butt" stroke-miterlimit="10" stroke-linejoin="miter" fill="none" stroke="#000000" d="M43.26738-77.95372C43.26738-77.54106 42.93286-77.20654 42.5202-77.20654 42.10754-77.20654 41.77303-77.54106 41.77303-77.95372 41.77303-78.36638 42.10754-78.7009 42.5202-78.7009 42.93286-78.7009 43.26738-78.36638 43.26738-77.95372ZM42.5202-77.95372"/>
<path transform="matrix(1.00003,0,0,-1.00006,24.678299,58.49555)" stroke-width=".3985" stroke-linecap="butt" stroke-miterlimit="10" stroke-linejoin="miter" fill="none" stroke="#000000" d="M45.35484-77.95372C50.60567-68.85898 50.60567-60.11908 46.88673-53.67772"/>
<path transform="matrix(-.49999503,-.8660619,-.866036,.50000998,72.42554,113.66455)" d="M4.21463 0 .64343 1.34572 1.8178 0 .64343-1.34572Z"/>
<path transform="matrix(-.49999503,-.8660619,-.866036,.50000998,72.42554,113.66455)" stroke-width=".3985" stroke-linecap="butt" stroke-miterlimit="10" stroke-linejoin="miter" fill="none" stroke="#000000" d="M4.21463 0 .64343 1.34572 1.8178 0 .64343-1.34572Z"/>
<path transform="matrix(1.00003,0,0,-1.00006,24.678299,58.49555)" stroke-width=".3985" stroke-linecap="butt" stroke-miterlimit="10" stroke-linejoin="miter" fill="none" stroke="#000000" d="M17.00803-77.95372C25.57512-63.11502 25.57512-48.85521 18.53993-36.6699"/>
<path transform="matrix(-.49999503,-.8660619,-.866036,.50000998,44.077875,96.65571)" d="M4.21463 0 .64343 1.34572 1.8178 0 .64343-1.34572Z"/>
<path transform="matrix(-.49999503,-.8660619,-.866036,.50000998,44.077875,96.65571)" stroke-width=".3985" stroke-linecap="butt" stroke-miterlimit="10" stroke-linejoin="miter" fill="none" stroke="#000000" d="M4.21463 0 .64343 1.34572 1.8178 0 .64343-1.34572Z"/>
<path transform="matrix(1.00003,0,0,-1.00006,24.678299,58.49555)" stroke-width=".3985" stroke-linecap="butt" stroke-miterlimit="10" stroke-linejoin="miter" fill="none" stroke="#000000" d="M141.73404-141.73404V-113.38724H198.42766V-141.73404ZM198.42766-113.38724"/>
<use data-text="A" xlink:href="#font_1_1" transform="matrix(9.962899,0,0,-9.963197,143.24787,189.4684)"/>
<use data-text="=" xlink:href="#font_2_1" transform="matrix(9.962899,0,0,-9.963197,153.48717,189.4684)"/>
<path transform="matrix(1.00003,0,0,-1.00006,24.678299,58.49555)" d="M156.65462-119.0565C156.65462-118.64384 156.3201-118.30933 155.90744-118.30933 155.49478-118.30933 155.16027-118.64384 155.16027-119.0565 155.16027-119.46916 155.49478-119.80368 155.90744-119.80368 156.3201-119.80368 156.65462-119.46916 156.65462-119.0565ZM155.90744-119.0565"/>
<path transform="matrix(1.00003,0,0,-1.00006,24.678299,58.49555)" stroke-width=".3985" stroke-linecap="butt" stroke-miterlimit="10" stroke-linejoin="miter" fill="none" stroke="#000000" d="M156.65462-119.0565C156.65462-118.64384 156.3201-118.30933 155.90744-118.30933 155.49478-118.30933 155.16027-118.64384 155.16027-119.0565 155.16027-119.46916 155.49478-119.80368 155.90744-119.80368 156.3201-119.80368 156.65462-119.46916 156.65462-119.0565ZM155.90744-119.0565"/>
<path transform="matrix(1.00003,0,0,-1.00006,24.678299,58.49555)" d="M156.65462-124.726C156.65462-124.31334 156.3201-123.97882 155.90744-123.97882 155.49478-123.97882 155.16027-124.31334 155.16027-124.726 155.16027-125.13866 155.49478-125.47318 155.90744-125.47318 156.3201-125.47318 156.65462-125.13866 156.65462-124.726ZM155.90744-124.726"/>
<path transform="matrix(1.00003,0,0,-1.00006,24.678299,58.49555)" stroke-width=".3985" stroke-linecap="butt" stroke-miterlimit="10" stroke-linejoin="miter" fill="none" stroke="#000000" d="M156.65462-124.726C156.65462-124.31334 156.3201-123.97882 155.90744-123.97882 155.49478-123.97882 155.16027-124.31334 155.16027-124.726 155.16027-125.13866 155.49478-125.47318 155.90744-125.47318 156.3201-125.47318 156.65462-125.13866 156.65462-124.726ZM155.90744-124.726"/>
<path transform="matrix(1.00003,0,0,-1.00006,24.678299,58.49555)" d="M156.65462-130.39528C156.65462-129.98262 156.3201-129.6481 155.90744-129.6481 155.49478-129.6481 155.16027-129.98262 155.16027-130.39528 155.16027-130.80794 155.49478-131.14246 155.90744-131.14246 156.3201-131.14246 156.65462-130.80794 156.65462-130.39528ZM155.90744-130.39528"/>
<path transform="matrix(1.00003,0,0,-1.00006,24.678299,58.49555)" stroke-width=".3985" stroke-linecap="butt" stroke-miterlimit="10" stroke-linejoin="miter" fill="none" stroke="#000000" d="M156.65462-130.39528C156.65462-129.98262 156.3201-129.6481 155.90744-129.6481 155.49478-129.6481 155.16027-129.98262 155.16027-130.39528 155.16027-130.80794 155.49478-131.14246 155.90744-131.14246 156.3201-131.14246 156.65462-130.80794 156.65462-130.39528ZM155.90744-130.39528"/>
<path transform="matrix(1.00003,0,0,-1.00006,24.678299,58.49555)" d="M156.65462-136.06478C156.65462-135.65212 156.3201-135.3176 155.90744-135.3176 155.49478-135.3176 155.16027-135.65212 155.16027-136.06478 155.16027-136.47743 155.49478-136.81195 155.90744-136.81195 156.3201-136.81195 156.65462-136.47743 156.65462-136.06478ZM155.90744-136.06478"/>
<path transform="matrix(1.00003,0,0,-1.00006,24.678299,58.49555)" stroke-width=".3985" stroke-linecap="butt" stroke-miterlimit="10" stroke-linejoin="miter" fill="none" stroke="#000000" d="M156.65462-136.06478C156.65462-135.65212 156.3201-135.3176 155.90744-135.3176 155.49478-135.3176 155.16027-135.65212 155.16027-136.06478 155.16027-136.47743 155.49478-136.81195 155.90744-136.81195 156.3201-136.81195 156.65462-136.47743 156.65462-136.06478ZM155.90744-136.06478"/>
<path transform="matrix(1.00003,0,0,-1.00006,24.678299,58.49555)" d="M185.00142-130.39528C185.00142-129.98262 184.6669-129.6481 184.25424-129.6481 183.8416-129.6481 183.50707-129.98262 183.50707-130.39528 183.50707-130.80794 183.8416-131.14246 184.25424-131.14246 184.6669-131.14246 185.00142-130.80794 185.00142-130.39528ZM184.25424-130.39528"/>
<path transform="matrix(1.00003,0,0,-1.00006,24.678299,58.49555)" stroke-width=".3985" stroke-linecap="butt" stroke-miterlimit="10" stroke-linejoin="miter" fill="none" stroke="#000000" d="M185.00142-130.39528C185.00142-129.98262 184.6669-129.6481 184.25424-129.6481 183.8416-129.6481 183.50707-129.98262 183.50707-130.39528 183.50707-130.80794 183.8416-131.14246 184.25424-131.14246 184.6669-131.14246 185.00142-130.80794 185.00142-130.39528ZM184.25424-130.39528"/>
<path transform="matrix(1.00003,0,0,-1.00006,24.678299,58.49555)" d="M185.00142-136.06478C185.00142-135.65212 184.6669-135.3176 184.25424-135.3176 183.8416-135.3176 183.50707-135.65212 183.50707-136.06478 183.50707-136.47743 183.8416-136.81195 184.25424-136.81195 184.6669-136.81195 185.00142-136.47743 185.00142-136.06478ZM184.25424-136.06478"/>
<path transform="matrix(1.00003,0,0,-1.00006,24.678299,58.49555)" stroke-width=".3985" stroke-linecap="butt" stroke-miterlimit="10" stroke-linejoin="miter" fill="none" stroke="#000000" d="M185.00142-136.06478C185.00142-135.65212 184.6669-135.3176 184.25424-135.3176 183.8416-135.3176 183.50707-135.65212 183.50707-136.06478 183.50707-136.47743 183.8416-136.81195 184.25424-136.81195 184.6669-136.81195 185.00142-136.47743 185.00142-136.06478ZM184.25424-136.06478"/>
<path transform="matrix(1.00003,0,0,-1.00006,24.678299,58.49555)" stroke-width=".3985" stroke-linecap="butt" stroke-miterlimit="10" stroke-linejoin="miter" fill="none" stroke="#000000" d="M141.73404-170.08086V-155.90744H198.42766V-170.08086ZM198.42766-155.90744"/>
<use data-text="B" xlink:href="#font_1_2" transform="matrix(9.962899,0,0,-9.963197,142.95586,224.90352)"/>
<use data-text="=" xlink:href="#font_2_1" transform="matrix(9.962899,0,0,-9.963197,153.78018,224.90352)"/>
<path transform="matrix(1.00003,0,0,-1.00006,24.678299,58.49555)" d="M156.65462-162.99414C156.65462-162.58148 156.3201-162.24697 155.90744-162.24697 155.49478-162.24697 155.16027-162.58148 155.16027-162.99414 155.16027-163.4068 155.49478-163.74132 155.90744-163.74132 156.3201-163.74132 156.65462-163.4068 156.65462-162.99414ZM155.90744-162.99414"/>
<path transform="matrix(1.00003,0,0,-1.00006,24.678299,58.49555)" stroke-width=".3985" stroke-linecap="butt" stroke-miterlimit="10" stroke-linejoin="miter" fill="none" stroke="#000000" d="M156.65462-162.99414C156.65462-162.58148 156.3201-162.24697 155.90744-162.24697 155.49478-162.24697 155.16027-162.58148 155.16027-162.99414 155.16027-163.4068 155.49478-163.74132 155.90744-163.74132 156.3201-163.74132 156.65462-163.4068 156.65462-162.99414ZM155.90744-162.99414"/>
<path transform="matrix(1.00003,0,0,-1.00006,24.678299,58.49555)" d="M185.00142-162.99414C185.00142-162.58148 184.6669-162.24697 184.25424-162.24697 183.8416-162.24697 183.50707-162.58148 183.50707-162.99414 183.50707-163.4068 183.8416-163.74132 184.25424-163.74132 184.6669-163.74132 185.00142-163.4068 185.00142-162.99414ZM184.25424-162.99414"/>
<path transform="matrix(1.00003,0,0,-1.00006,24.678299,58.49555)" stroke-width=".3985" stroke-linecap="butt" stroke-miterlimit="10" stroke-linejoin="miter" fill="none" stroke="#000000" d="M185.00142-162.99414C185.00142-162.58148 184.6669-162.24697 184.25424-162.24697 183.8416-162.24697 183.50707-162.58148 183.50707-162.99414 183.50707-163.4068 183.8416-163.74132 184.25424-163.74132 184.6669-163.74132 185.00142-163.4068 185.00142-162.99414ZM184.25424-162.99414"/>
<path transform="matrix(1.00003,0,0,-1.00006,24.678299,58.49555)" stroke-width=".3985" stroke-linecap="butt" stroke-miterlimit="10" stroke-linejoin="miter" fill="none" stroke="#000000" d="M187.08889-162.99414C193.44515-151.98474 193.44515-141.40489 188.62079-133.04888"/>
<path transform="matrix(-.49999503,-.8660619,-.866036,.50000998,214.16385,193.04047)" d="M4.21463 0 .64343 1.34572 1.8178 0 .64343-1.34572Z"/>
<path transform="matrix(-.49999503,-.8660619,-.866036,.50000998,214.16385,193.04047)" stroke-width=".3985" stroke-linecap="butt" stroke-miterlimit="10" stroke-linejoin="miter" fill="none" stroke="#000000" d="M4.21463 0 .64343 1.34572 1.8178 0 .64343-1.34572Z"/>
<path transform="matrix(1.00003,0,0,-1.00006,24.678299,58.49555)" stroke-width=".3985" stroke-linecap="butt" stroke-miterlimit="10" stroke-linejoin="miter" fill="none" stroke="#000000" d="M158.74208-162.99414C167.30918-148.15544 167.30918-133.89565 160.27399-121.71033"/>
<path transform="matrix(-.49999503,-.8660619,-.866036,.50000998,185.81618,181.70124)" d="M4.21463 0 .64343 1.34572 1.8178 0 .64343-1.34572Z"/>
<path transform="matrix(-.49999503,-.8660619,-.866036,.50000998,185.81618,181.70124)" stroke-width=".3985" stroke-linecap="butt" stroke-miterlimit="10" stroke-linejoin="miter" fill="none" stroke="#000000" d="M4.21463 0 .64343 1.34572 1.8178 0 .64343-1.34572Z"/>
</svg>
