<svg xmlns="http://www.w3.org/2000/svg" xmlns:xlink="http://www.w3.org/1999/xlink" xmlns:inkscape="http://www.inkscape.org/namespaces/inkscape" version="1.1" width="106" height="131" viewBox="0 0 106 131">
<defs>
<path id="font_1_1" d="M.35398866 .62316897C.35398866 .6452637 .35398866 .65527346 .32798768 .65527346 .31698609 .65527346 .31498719 .65527346 .30599977 .64826968 .22898865 .5909424 .12599182 .5909424 .10499573 .5909424H.084991458V.5439453H.10499573C.12098694 .5439453 .17599488 .54493716 .23498535 .5639343V.04699707H.09599304V0C.13999939 .0029907227 .24598694 .0029907227 .29499818 .0029907227 .34399415 .0029907227 .44999696 .0029907227 .49398805 0V.04699707H.35398866V.62316897Z"/>
<path id="font_2_1" d="M.644989 .69506838C.644989 .69807437 .6429901 .7050781 .6339874 .7050781 .6289978 .7050781 .6279907 .70407107 .6159973 .6900635L.56799319 .6330414C.5419922 .68006899 .48999024 .7050781 .4249878 .7050781 .2979889 .7050781 .17799378 .58999636 .17799378 .4689026 .17799378 .38783265 .23098755 .34179688 .28199769 .32678224L.3889923 .2987671C.42599488 .2897644 .48098756 .27474977 .48098756 .19267273 .48098756 .1026001 .39898683 .008529663 .30099488 .008529663 .23699951 .008529663 .12599182 .030548096 .12599182 .15464783 .12599182 .17866516 .1309967 .2026825 .13198853 .20869446 .1329956 .21269226 .13398743 .21369934 .13398743 .21569824 .13398743 .22570801 .1269989 .22669983 .12199402 .22669983 .116989139 .22669983 .114990238 .22570801 .11199951 .22270203 .10798645 .21870423 .051986696-.009475708 .051986696-.012466431 .051986696-.018463135 .056991579-.022460938 .06298828-.022460938 .067993167-.022460938 .068984989-.021469117 .08099365-.007461548L.12998963 .049560548C.17298889-.008468628 .24099732-.022460938 .29899598-.022460938 .43499757-.022460938 .5529938 .11061096 .5529938 .2347107 .5529938 .30377198 .5189972 .33779908 .5039978 .35180665 .48098756 .37483216 .46598817 .37882997 .3769989 .40185548 .35499574 .40785218 .31900025 .41786195 .30999757 .41986085 .2829895 .42886354 .24899292 .457901 .24899292 .51094058 .24899292 .59199526 .32899476 .677063 .42399598 .677063 .5069885 .677063 .56799319 .6340332 .56799319 .52194216 .56799319 .48991395 .56399539 .47190858 .56399539 .4658966 .56399539 .4649048 .56399539 .45588685 .57598879 .45588685 .58599856 .45588685 .58699038 .45889283 .59098818 .47590638L.644989 .69506838Z"/>
<path id="font_3_1" d="M.43099977 .37594605C.40499879 .36994935 .3889923 .348938 .3889923 .32894898 .3889923 .30593873 .40899659 .2969513 .42199708 .2969513 .43199159 .2969513 .46998597 .302948 .46998597 .35394288 .46998597 .41940309 .397995 .44140626 .33699037 .44140626 .18099976 .44140626 .15299988 .325943 .15299988 .2949524 .15299988 .25804139 .17399597 .23410034 .18798828 .22212219 .21398926 .20217896 .23199463 .19818115 .30099488 .18621826 .32199098 .18222046 .38598634 .17025757 .38598634 .120285037 .38598634 .10328674 .375 .06529236 .33299256 .040252687 .2939911 .018234253 .24499512 .018234253 .23298645 .018234253 .19299317 .018234253 .13598633 .027236939 .11299133 .060287477 .1459961 .06428528 .16799927 .08929443 .16799927 .11729431 .16799927 .14228821 .1499939 .15429688 .1289978 .15429688 .099990848 .15429688 .070999149 .13128662 .070999149 .08729553 .070999149 .027236939 .1349945-.009765625 .23199463-.009765625 .41600038-.009765625 .44999696 .11628723 .44999696 .1552887 .44999696 .24707031 .34899903 .26501466 .31199647 .27200318 .30299378 .27400209 .27799989 .27798463 .27198792 .27998353 .23498535 .28697206 .21699524 .30795289 .21699524 .3299408 .21699524 .35295106 .23498535 .37998963 .25698854 .39416505 .28399659 .41137696 .31900025 .4133911 .33599855 .4133911 .35699464 .4133911 .40899659 .4103546 .43099977 .37594605Z"/>
<path id="font_3_2" d="M.24598694 .39465333H.34799195C.36698915 .39465333 .37998963 .39465333 .37998963 .4166565 .37998963 .43066407 .36698915 .43066407 .34999085 .43066407H.25498963L.2919922 .57850649C.29299928 .58351138 .29499818 .588501 .29499818 .5924988 .29499818 .6104889 .2809906 .6244812 .26098634 .6244812 .23599243 .6244812 .22099304 .6074829 .21398926 .58151248 .20698548 .5565338 .21998596 .6044922 .17599488 .43066407H.07398987C.054992677 .43066407 .041992189 .43066407 .041992189 .4086609 .041992189 .39465333 .053985597 .39465333 .07199097 .39465333H.16699219L.10798645 .15901184C.101989749 .13404846 .09298706 .098098758 .09298706 .085128787 .09298706 .0262146 .14299011-.009765625 .19999695-.009765625 .31098939-.009765625 .37399293 .13005066 .37399293 .14303589 .37399293 .15602112 .36099244 .15602112 .35798646 .15602112 .34599305 .15602112 .34498597 .15402222 .33699037 .13703919 .30899049 .074142459 .2579956 .018234253 .20298767 .018234253 .18199158 .018234253 .16799927 .031204224 .16799927 .06715393 .16799927 .07713318 .17199707 .098098758 .17399597 .10809326L.24598694 .39465333Z"/>
</defs>
<use data-text="1" xlink:href="#font_1_1" transform="matrix(9.963098,0,0,-9.963496,33.248704,13.359032)"/>
<use data-text="S" xlink:href="#font_2_1" transform="matrix(9.963098,0,0,-9.963496,66.790378,13.553055)"/>
<path transform="matrix(1.00005,0,0,-1.00009,53.122697,78.18787)" d="M-33.12189 0C-33.12189 .49518-33.5233 .8966-34.0185 .8966-34.51369 .8966-34.9151 .49518-34.9151 0-34.9151-.49518-34.51369-.8966-34.0185-.8966-33.5233-.8966-33.12189-.49518-33.12189 0ZM-34.0185 0"/>
<path transform="matrix(1.00005,0,0,-1.00009,53.122697,78.18787)" stroke-width=".3985" stroke-linecap="butt" stroke-miterlimit="10" stroke-linejoin="miter" fill="none" stroke="#000000" d="M-33.12189 0C-33.12189 .49518-33.5233 .8966-34.0185 .8966-34.51369 .8966-34.9151 .49518-34.9151 0-34.9151-.49518-34.51369-.8966-34.0185-.8966-33.5233-.8966-33.12189-.49518-33.12189 0ZM-34.0185 0"/>
<path transform="matrix(1.00005,0,0,-1.00009,53.122697,78.18787)" d="M34.9151 34.0185C34.9151 34.51369 34.51369 34.9151 34.0185 34.9151 33.5233 34.9151 33.12189 34.51369 33.12189 34.0185 33.12189 33.5233 33.5233 33.12189 34.0185 33.12189 34.51369 33.12189 34.9151 33.5233 34.9151 34.0185ZM34.0185 34.0185"/>
<path transform="matrix(1.00005,0,0,-1.00009,53.122697,78.18787)" stroke-width=".3985" stroke-linecap="butt" stroke-miterlimit="10" stroke-linejoin="miter" fill="none" stroke="#000000" d="M34.9151 34.0185C34.9151 34.51369 34.51369 34.9151 34.0185 34.9151 33.5233 34.9151 33.12189 34.51369 33.12189 34.0185 33.12189 33.5233 33.5233 33.12189 34.0185 33.12189 34.51369 33.12189 34.9151 33.5233 34.9151 34.0185ZM34.0185 34.0185"/>
<path transform="matrix(1.00005,0,0,-1.00009,53.122697,78.18787)" d="M34.9151-34.0185C34.9151-33.5233 34.51369-33.12189 34.0185-33.12189 33.5233-33.12189 33.12189-33.5233 33.12189-34.0185 33.12189-34.51369 33.5233-34.9151 34.0185-34.9151 34.51369-34.9151 34.9151-34.51369 34.9151-34.0185ZM34.0185-34.0185"/>
<path transform="matrix(1.00005,0,0,-1.00009,53.122697,78.18787)" stroke-width=".3985" stroke-linecap="butt" stroke-miterlimit="10" stroke-linejoin="miter" fill="none" stroke="#000000" d="M34.9151-34.0185C34.9151-33.5233 34.51369-33.12189 34.0185-33.12189 33.5233-33.12189 33.12189-33.5233 33.12189-34.0185 33.12189-34.51369 33.5233-34.9151 34.0185-34.9151 34.51369-34.9151 34.9151-34.51369 34.9151-34.0185ZM34.0185-34.0185"/>
<path transform="matrix(1.00005,0,0,-1.00009,53.122697,78.18787)" stroke-width=".3985" stroke-linecap="butt" stroke-miterlimit="10" stroke-linejoin="miter" fill="none" stroke="#000000" d="M-51.02477-17.00824V17.00824H-17.00824V-17.00824ZM-17.00824 17.00824"/>
<path transform="matrix(1.00005,0,0,-1.00009,53.122697,78.18787)" stroke-width=".3985" stroke-linecap="butt" stroke-miterlimit="10" stroke-linejoin="miter" fill="none" stroke="#000000" d="M17.00824-51.02477V51.02477H51.02477V-51.02477ZM51.02477 51.02477"/>
<path transform="matrix(1.00005,0,0,-1.00009,53.122697,78.18787)" stroke-width=".3985" stroke-linecap="butt" stroke-miterlimit="10" stroke-linejoin="miter" fill="none" stroke="#000000" d="M34.0185 34.0185V-30.95457"/>
<path transform="matrix(0,1.00009,1.00005,0,87.1429,107.42689)" d="M4.21463 0 .64343 1.34572 1.8178 0 .64343-1.34572Z"/>
<path transform="matrix(0,1.00009,1.00005,0,87.1429,107.42689)" stroke-width=".3985" stroke-linecap="butt" stroke-miterlimit="10" stroke-linejoin="miter" fill="none" stroke="#000000" d="M4.21463 0 .64343 1.34572 1.8178 0 .64343-1.34572Z"/>
<path transform="matrix(1.00005,0,0,-1.00009,53.122697,78.18787)" stroke-width=".3985" stroke-linecap="butt" stroke-miterlimit="10" stroke-linejoin="miter" fill="none" stroke="#000000" d="M-34.0185 0 31.27824 32.6484"/>
<path transform="matrix(.89440467,-.44721023,-.4471923,-.8944405,82.86574,46.304918)" d="M4.21463 0 .64343 1.34572 1.8178 0 .64343-1.34572Z"/>
<path transform="matrix(.89440467,-.44721023,-.4471923,-.8944405,82.86574,46.304918)" stroke-width=".3985" stroke-linecap="butt" stroke-miterlimit="10" stroke-linejoin="miter" fill="none" stroke="#000000" d="M4.21463 0 .64343 1.34572 1.8178 0 .64343-1.34572Z"/>
<use data-text="s" xlink:href="#font_3_1" transform="matrix(6.9741489,0,0,-6.9744279,51.2426,57.65702)"/>
<path transform="matrix(1.00005,0,0,-1.00009,53.122697,78.18787)" stroke-width=".3985" stroke-linecap="butt" stroke-miterlimit="10" stroke-linejoin="miter" fill="none" stroke="#000000" d="M-34.0185 0 31.27824-32.6484"/>
<path transform="matrix(.89440467,.44721023,.4471923,-.8944405,82.86574,110.070819)" d="M4.21463 0 .64343 1.34572 1.8178 0 .64343-1.34572Z"/>
<path transform="matrix(.89440467,.44721023,.4471923,-.8944405,82.86574,110.070819)" stroke-width=".3985" stroke-linecap="butt" stroke-miterlimit="10" stroke-linejoin="miter" fill="none" stroke="#000000" d="M4.21463 0 .64343 1.34572 1.8178 0 .64343-1.34572Z"/>
<use data-text="t" xlink:href="#font_3_2" transform="matrix(6.9741489,0,0,-6.9744279,51.617624,103.0091)"/>
<path transform="matrix(1.00005,0,0,-1.00009,53.122697,78.18787)" stroke-width=".3985" stroke-linecap="butt" stroke-miterlimit="10" stroke-linejoin="miter" fill="none" stroke="#000000" d="M-10.62474 69.73796H7.08342"/>
<path transform="matrix(1.00005,0,0,-1.00009,58.488183,8.443626)" d="M4.21463 0 .64343 1.34572 1.8178 0 .64343-1.34572Z"/>
<path transform="matrix(1.00005,0,0,-1.00009,58.488183,8.443626)" stroke-width=".3985" stroke-linecap="butt" stroke-miterlimit="10" stroke-linejoin="miter" fill="none" stroke="#000000" d="M4.21463 0 .64343 1.34572 1.8178 0 .64343-1.34572Z"/>
<use data-text="s" xlink:href="#font_3_1" transform="matrix(6.9741489,0,0,-6.9744279,51.003595,4.923271)"/>
<path transform="matrix(1.00005,0,0,-1.00009,53.122697,78.18787)" stroke-width=".3985" stroke-linecap="butt" stroke-miterlimit="10" stroke-linejoin="miter" fill="none" stroke="#000000" d="M-10.62474 66.33609H7.08342"/>
<path transform="matrix(1.00005,0,0,-1.00009,58.488183,11.845802)" d="M4.21463 0 .64343 1.34572 1.8178 0 .64343-1.34572Z"/>
<path transform="matrix(1.00005,0,0,-1.00009,58.488183,11.845802)" stroke-width=".3985" stroke-linecap="butt" stroke-miterlimit="10" stroke-linejoin="miter" fill="none" stroke="#000000" d="M4.21463 0 .64343 1.34572 1.8178 0 .64343-1.34572Z"/>
<use data-text="t" xlink:href="#font_3_2" transform="matrix(6.9741489,0,0,-6.9744279,51.37961,19.655598)"/>
</svg>
