<svg xmlns="http://www.w3.org/2000/svg" xmlns:xlink="http://www.w3.org/1999/xlink" xmlns:inkscape="http://www.inkscape.org/namespaces/inkscape" version="1.1" width="157" height="136" viewBox="0 0 157 136">
<defs>
<path id="font_1_4" d="M.4850006 .41075135 .40098573 .6096344C.397995 .61763 .3959961 .6216278 .3959961 .6226196 .3959961 .62861636 .41299439 .6476135 .45498658 .6516113 .46499635 .65260317 .47499085 .6536102 .47499085 .6706085 .47499085 .6826172 .46299745 .6826172 .45999146 .6826172 .4189911 .6826172 .37599183 .6796112 .33399964 .6796112 .30899049 .6796112 .24699402 .6826172 .22200012 .6826172 .21598816 .6826172 .20399475 .6826172 .20399475 .6626129 .20399475 .6516113 .21398926 .6516113 .22698975 .6516113 .2869873 .6516113 .29299928 .6416168 .3019867 .6196289L.41999818 .34080506 .20899964 .11393738 .19599915 .10295105C.14698792 .049987794 .099990848 .033996583 .04899597 .0309906 .035995485 .02999878 .026992798 .02999878 .026992798 .010986328 .026992798 .009994507 .026992798 0 .039993287 0 .069992069 0 .102996829 .0029907227 .13398743 .0029907227 .17098999 .0029907227 .20999146 0 .24598694 0 .2519989 0 .2639923 0 .2639923 .019989014 .2639923 .02999878 .2539978 .0309906 .2519989 .0309906 .24299622 .03199768 .21199036 .033996583 .21199036 .061965944 .21199036 .07795715 .22698975 .093948367 .23899842 .10694885L.34098817 .21487427 .43099977 .31282044 .5319977 .07395935C.5359955 .06297302 .5369873 .061965944 .5369873 .05996704 .5369873 .051986696 .5179901 .034988405 .47898866 .0309906 .46798707 .02999878 .45899964 .0289917 .45899964 .011993408 .45899964 0 .46998597 0 .47399903 0 .5019989 0 .57199099 .0029907227 .59999087 .0029907227 .625 .0029907227 .6859894 0 .71099856 0 .71798709 0 .7299957 0 .7299957 .018997193 .7299957 .0309906 .7200012 .0309906 .71199038 .0309906 .644989 .03199768 .6429901 .034988405 .6259918 .07496643 .58699038 .16790772 .519989 .32380677 .49699403 .3837738 .5649872 .45373536 .66999819 .5726471 .70199587 .6006317 .73098757 .62461856 .7689972 .64860537 .82899478 .6516113 .84199526 .65260317 .8509979 .65260317 .8509979 .6716156 .8509979 .6726074 .8509979 .6826172 .83799746 .6826172 .80799868 .6826172 .7749939 .6796112 .74398806 .6796112 .70700076 .6796112 .6689911 .6826172 .6329956 .6826172 .6269989 .6826172 .6139984 .6826172 .6139984 .6626129 .6139984 .65560916 .61898806 .65260317 .6259918 .6516113 .6349945 .65060427 .66600039 .64860537 .66600039 .6206207 .66600039 .6066284 .6549988 .5936432 .6469879 .5846405L.4850006 .41075135Z"/>
<path id="font_1_2" d="M.30299378 .3157959H.47299195C.61499026 .3157959 .7539978 .41973878 .7539978 .53167727 .7539978 .6086273 .6879883 .6826172 .5569916 .6826172H.23298645C.21398926 .6826172 .20298767 .6826172 .20298767 .66360476 .20298767 .6516113 .21199036 .6516113 .23199463 .6516113 .24499512 .6516113 .2630005 .65060427 .2749939 .6496124 .29100038 .6476135 .29699708 .64460757 .29699708 .6336212 .29699708 .6296234 .29599 .62661746 .29299928 .614624L.15899658 .07795715C.14898682 .038986207 .14698792 .0309906 .067993167 .0309906 .050994874 .0309906 .039993287 .0309906 .039993287 .011993408 .039993287 0 .051986696 0 .054992677 0 .08299255 0 .1539917 .0029907227 .18199158 .0029907227 .20298767 .0029907227 .22499085 .0019989014 .24598694 .0019989014 .2679901 .0019989014 .2899933 0 .31098939 0 .31799317 0 .33099366 0 .33099366 .019989014 .33099366 .0309906 .32199098 .0309906 .30299378 .0309906 .2659912 .0309906 .23799134 .0309906 .23799134 .048980714 .23799134 .054977418 .23999024 .05996704 .24099732 .065963748L.30299378 .3157959M.375 .6136322C.38398744 .64860537 .38598634 .6516113 .42900086 .6516113H.5249939C.60798647 .6516113 .6609955 .62461856 .6609955 .55566409 .6609955 .5166931 .6409912 .43074037 .60198977 .39476014 .5519867 .34977723 .49198915 .34179688 .44799806 .34179688H.30699159L.375 .6136322Z"/>
<path id="font_1_3" d="M.43798829 .0055236818C.59298709 .0644989 .73999026 .24256897 .73999026 .43579103 .73999026 .5969696 .6339874 .7050781 .4850006 .7050781 .2689972 .7050781 .04899597 .47784425 .04899597 .24456787 .04899597 .07847595 .16099549-.022460938 .30499269-.022460938 .32998658-.022460938 .3639984-.018463135 .40299989-.007461548 .39898683-.06939697 .39898683-.071380618 .39898683-.084365848 .39898683-.11634827 .39898683-.19433594 .48199464-.19433594 .6009979-.19433594 .6489868-.011474609 .6489868-.00047302247 .6489868 .0065307619 .6419983 .009521484 .6380005 .009521484 .6299896 .009521484 .6279907 .0045318605 .6259918-.0014648438 .60198977-.072387699 .5439911-.097335819 .5089874-.097335819 .46299745-.097335819 .44799806-.070388797 .43798829 .0055236818M.24899292 .013519287C.17098999 .044509889 .13699341 .12245178 .13699341 .21252442 .13699341 .2816162 .16299439 .4237671 .23899842 .5319061 .31199647 .63401797 .4059906 .68006899 .47898866 .68006899 .57899478 .68006899 .6519928 .6019745 .6519928 .4678192 .6519928 .3677063 .6009979 .13345337 .43299867 .039505006 .42799378 .07447815 .41799928 .14746094 .34498597 .14746094 .2919922 .14746094 .24299622 .097473148 .24299622 .04550171 .24299622 .025512696 .24899292 .014526367 .24899292 .013519287M.31098939 .002532959C.29699708 .002532959 .2649994 .002532959 .2649994 .04550171 .2649994 .08547974 .30299378 .12545777 .34498597 .12545777 .3869934 .12545777 .4059906 .10147095 .4059906 .040512086 .4059906 .025512696 .40499879 .024520874 .394989 .020523072 .36898805 .009521484 .33898927 .002532959 .31098939 .002532959Z"/>
<path id="font_1_1" d="M.7599945 .69506838C.7599945 .69807437 .7579956 .7050781 .7489929 .7050781 .74598696 .7050781 .7449951 .70407107 .73399356 .69306948L.6639862 .61602786C.6549988 .6300354 .60899356 .7050781 .49798585 .7050781 .2749939 .7050781 .049987794 .48391725 .049987794 .25172425 .049987794 .08659363 .16799927-.022460938 .32099916-.022460938 .4079895-.022460938 .48399354 .017532349 .5369873 .063583377 .6299896 .14564514 .6469879 .2367096 .6469879 .23971558 .6469879 .24972534 .6369934 .24972534 .6349945 .24972534 .6289978 .24972534 .6239929 .24772644 .621994 .23971558 .61299136 .21069336 .58999636 .13963318 .5209961 .081588748 .45199586 .025543213 .3889923 .008529663 .33699037 .008529663 .24699402 .008529663 .14099121 .060577394 .14099121 .21670532 .14099121 .27374269 .1619873 .43588258 .2619934 .55296328 .32299806 .62402346 .4169922 .67407229 .5059967 .67407229 .60798647 .67407229 .6669922 .5970001 .6669922 .48091126 .6669922 .44088746 .6639862 .43988038 .6639862 .4298706 .6639862 .41986085 .6749878 .41986085 .67900088 .41986085 .69200137 .41986085 .69200137 .42185975 .69699099 .43988038L.7599945 .69506838Z"/>
<path id="font_2_3" d="M.42199708 .38238526C.40098573 .41540528 .36698915 .44140626 .31900025 .44140626 .19099427 .44140626 .06098938 .300354 .06098938 .15628052 .06098938 .059249879 .12599182-.009765625 .21199036-.009765625 .2659912-.009765625 .31399537 .021224976 .35398866 .0602417 .37298585 .00022888184 .43099977-.009765625 .45700074-.009765625 .49299623-.009765625 .5179901 .01222229 .5359955 .04324341 .55799868 .08226013 .57099917 .13928223 .57099917 .14328003 .57099917 .15628052 .55799868 .15628052 .5549927 .15628052 .54100039 .15628052 .5399933 .15228272 .5329895 .12527466 .5209961 .07725525 .5019989 .018234253 .45999146 .018234253 .43399049 .018234253 .4269867 .040237428 .4269867 .06724548 .4269867 .08425903 .43499757 .120269779 .44198609 .14628601 .44898988 .17329407 .45899964 .21430969 .46398927 .23632813L.48399354 .3123474C.48999024 .33836366 .5019989 .38539125 .5019989 .39038087 .5019989 .4123993 .48399354 .4223938 .46798707 .4223938 .45098878 .4223938 .42799378 .4104004 .42199708 .38238526M.35798646 .12527466C.35099793 .09725952 .32899476 .07725525 .30699159 .058242799 .2979889 .050247194 .2579956 .018234253 .21499634 .018234253 .17799378 .018234253 .14199829 .04423523 .14199829 .11526489 .14199829 .16828919 .17098999 .27833558 .19400025 .31835938 .23999024 .39839173 .29100038 .4133911 .31900025 .4133911 .3889923 .4133911 .4079895 .33737184 .4079895 .32635499 .4079895 .32235719 .4059906 .3153534 .40499879 .3123474L.35798646 .12527466Z"/>
<path id="font_2_4" d="M.2639923 .66430667C.2649994 .66630557 .2679901 .67930606 .2679901 .68029788 .2679901 .68530276 .2639923 .6943054 .2519989 .6943054 .23199463 .6943054 .14898682 .6863098 .12399292 .6843109 .115997318 .68330386 .101989749 .682312 .101989749 .66130068 .101989749 .64730837 .115997318 .64730837 .12799073 .64730837 .17599488 .64730837 .17599488 .64030459 .17599488 .63230898 .17599488 .62532046 .1659851 .58532717 .1599884 .5623474L.13699341 .4703827C.12799073 .43640138 .07299805 .21731568 .070999149 .20431519 .06599426 .18029785 .06599426 .16729737 .06599426 .1552887 .06599426 .054244996 .12998963-.009765625 .21299744-.009765625 .33799745-.009765625 .47099305 .12626648 .47099305 .27433778 .47099305 .39138795 .3899994 .44140626 .32099916 .44140626 .2689972 .44140626 .22499085 .4123993 .19499207 .38638307L.2639923 .66430667M.21398926 .018234253C.16499329 .018234253 .13699341 .06124878 .13699341 .120269779 .13699341 .1572876 .1459961 .19129944 .17399597 .3043518 .17999268 .32336427 .17999268 .32536317 .19898987 .34736634 .23699951 .39138795 .28199769 .4133911 .31799317 .4133911 .35699464 .4133911 .3909912 .38438417 .3909912 .31636048 .3909912 .27534486 .36898805 .17329407 .33898927 .11526489 .31498719 .06625366 .2649994 .018234253 .21398926 .018234253Z"/>
<path id="font_2_5" d="M.43798829 .38304139C.4019928 .37702943 .3869934 .34902955 .3869934 .32702638 .3869934 .30003358 .4079895 .29003907 .42599488 .29003907 .44799806 .29003907 .48298646 .30603028 .48298646 .35403443 .48298646 .4223938 .40499879 .44140626 .35099793 .44140626 .20098877 .44140626 .06199646 .3030243 .06199646 .16412354 .06199646 .078186038 .12199402-.009765625 .24699402-.009765625 .41600038-.009765625 .49499513 .08917236 .49499513 .10316467 .49499513 .10916138 .48599244 .120147708 .47799684 .120147708 .47200013 .120147708 .46998597 .1181488 .46199037 .11016846 .38398744 .018234253 .2669983 .018234253 .24899292 .018234253 .1769867 .018234253 .14498902 .06718445 .14498902 .12915039 .14498902 .15812683 .15899658 .26704408 .21099854 .33602906 .24899292 .3850708 .30099488 .4133911 .35099793 .4133911 .36499024 .4133911 .41299439 .41137696 .43798829 .38304139Z"/>
<path id="font_1_6" d="M.04499817-.122177127C.036987306-.15631104 .034988405-.16334534-.009002686-.16334534-.021011353-.16334534-.03201294-.16334534-.03201294-.18234253-.03201294-.19033814-.027008057-.19433594-.019012452-.19433594 .0079956059-.19433594 .036987306-.19134522 .06498718-.19134522 .09799194-.19134522 .13198853-.19433594 .1639862-.19433594 .16899109-.19433594 .18199158-.19433594 .18199158-.17434693 .18199158-.16334534 .17199707-.16334534 .1579895-.16334534 .10798645-.16334534 .10798645-.15631104 .10798645-.14727783 .10798645-.13523865 .1499939 .028259278 .15699768 .053268434 .16999817 .024261475 .19799805-.0107421879 .24899292-.0107421879 .36499024-.0107421879 .48999024 .13528443 .48999024 .28233338 .48999024 .37635804 .43299867 .4423828 .35699464 .4423828 .30699159 .4423828 .25898744 .40637208 .22599793 .36735536 .21598816 .42137147 .17298889 .4423828 .13598633 .4423828 .08999634 .4423828 .070999149 .4033661 .06199646 .38536073 .04399109 .35134889 .0309906 .29133607 .0309906 .28833009 .0309906 .27833558 .040985109 .27833558 .042999269 .27833558 .052993776 .27833558 .053985597 .2793274 .05999756 .30133058 .07699585 .37236024 .09700012 .42037965 .1329956 .42037965 .1499939 .42037965 .1639862 .41236878 .1639862 .37435914 .1639862 .35134889 .16099549 .3403473 .15699768 .323349L.04499817-.122177127M.22099304 .3123474C.22799683 .33935548 .25498963 .36735536 .272995 .38235475 .30799867 .41337586 .33699037 .42037965 .35398866 .42037965 .3939972 .42037965 .41799928 .38536073 .41799928 .32633973 .41799928 .26733399 .3849945 .15229798 .36698915 .11428833 .33299256 .044265748 .2849884 .011245728 .24798584 .011245728 .18199158 .011245728 .16899109 .0942688 .16899109 .10028076 .16899109 .10227966 .16899109 .104278568 .17199707 .11628723L.22099304 .3123474Z"/>
<path id="font_1_7" d="M.45199586 .43138124C.45199586 .43537904 .44898988 .44137574 .44198609 .44137574 .43099977 .44137574 .3909912 .4013672 .37399293 .37236024 .35198976 .42637635 .31298829 .4423828 .2809906 .4423828 .16299439 .4423828 .039993287 .29434205 .039993287 .14929199 .039993287 .05126953 .09899902-.0107421879 .17199707-.0107421879 .21499634-.0107421879 .2539978 .013244629 .2899933 .04925537 .2809906 .014251709 .24798584-.1211853 .24499512-.1302185 .23699951-.1583252 .22898865-.16233826 .17298889-.16334534 .1599884-.16334534 .1499939-.16334534 .1499939-.18334961 .1499939-.18434143 .1499939-.19433594 .16299439-.19433594 .19499207-.19433594 .22999573-.19134522 .2630005-.19134522 .29699708-.19134522 .33299256-.19433594 .3659973-.19433594 .37098695-.19433594 .38398744-.19433594 .38398744-.17434693 .38398744-.16334534 .37399293-.16334534 .35798646-.16334534 .30999757-.16334534 .30999757-.15631104 .30999757-.14727783 .30999757-.14025879 .31199647-.13423157 .31399537-.12519837L.45199586 .43138124M.1749878 .011245728C.114990238 .011245728 .11099243 .088272098 .11099243 .105285648 .11099243 .1532898 .13999939 .2623291 .15699768 .30433656 .18798828 .37835694 .23999024 .42037965 .2809906 .42037965 .34599305 .42037965 .3600006 .33935548 .3600006 .33235169 .3600006 .32633973 .30499269 .107284549 .3019867 .103271488 .2869873 .07527161 .23098755 .011245728 .1749878 .011245728Z"/>
<path id="font_1_5" d="M.36698915 .3996582H.45298768C.47299195 .3996582 .48298646 .3996582 .48298646 .41966249 .48298646 .43066407 .47299195 .43066407 .45599366 .43066407H.37298585L.3939972 .5449524C.397995 .5660095 .4119873 .6370239 .41799928 .6490326 .4269867 .66804507 .44400025 .68307498 .46499635 .68307498 .46899415 .68307498 .49499513 .68307498 .5139923 .66503909 .46998597 .661026 .45999146 .6260376 .45999146 .6110382 .45999146 .58802798 .47799684 .57603457 .49699403 .57603457 .522995 .57603457 .5519867 .5980377 .5519867 .6360321 .5519867 .6820679 .5059967 .7050781 .46499635 .7050781 .43099977 .7050781 .36799623 .68707278 .33799745 .58802798 .33198548 .56700137 .32899476 .5569763 .30499269 .43066407H.23599243C.21699524 .43066407 .20599365 .43066407 .20599365 .4116516 .20599365 .3996582 .21499634 .3996582 .23399353 .3996582H.2999878L.22499085 .0048828127C.20698548-.09207153 .18998719-.18309021 .13798523-.18309021 .13398743-.18309021 .10899353-.18309021 .08999634-.16506958 .13598633-.1620636 .14498902-.12606812 .14498902-.111068729 .14498902-.08807373 .1269989-.07606506 .10798645-.07606506 .08198547-.07606506 .052993776-.09806824 .052993776-.13606262 .052993776-.18109131 .09700012-.20507813 .13798523-.20507813 .19299317-.20507813 .23298645-.14607239 .25099183-.108062747 .2829895-.04508972 .30599977 .07583618 .30699159 .082839969L.36698915 .3996582Z"/>
<path id="font_2_1" d="M.34098817 .30978395H.5219879C.69099429 .30978395 .83399966 .41773988 .83399966 .52667239 .83399966 .6106262 .7519989 .6826172 .61499026 .6826172H.2649994C.24499512 .6826172 .23298645 .6826172 .23298645 .660614 .23298645 .64660647 .24398804 .64660647 .2659912 .64660647 .28199769 .64660647 .28599549 .64660647 .3039856 .64460757 .32398988 .64260867 .32598878 .64060977 .32598878 .63061526 .32598878 .62861636 .32598878 .6236267 .32199098 .6086273L.18998719 .081954959C.17999268 .04298401 .1789856 .035995485 .100997928 .035995485 .08299255 .035995485 .070999149 .035995485 .070999149 .01399231 .070999149 .0129852299 .070999149 0 .08699036 0 .115997318 0 .18798828 .0039978029 .21699524 .0039978029 .23399353 .0039978029 .2689972 .0039978029 .28599549 .0029907227 .30599977 .0019989014 .33099366 0 .34999085 0 .35598756 0 .37098695 0 .37098695 .021987915 .37098695 .035995485 .35899354 .035995485 .33898927 .035995485 .33799745 .035995485 .31900025 .035995485 .30099488 .037994386 .27799989 .039993287 .27799989 .04298401 .27799989 .052978517 .27799989 .053985597 .27799989 .05996704 .28199769 .07496643L.34098817 .30978395M.41299439 .6126251C.42099 .6436157 .42199708 .64660647 .46398927 .64660647H.58099368C.673996 .64660647 .7319946 .6186218 .7319946 .54766848 .7319946 .51667788 .7200012 .43772889 .66999819 .39276124 .6339874 .3607788 .57699587 .34179688 .5049896 .34179688H.34498597L.41299439 .6126251Z"/>
<path id="font_2_2" d="M.46499635-.060012819C.46499635-.12535095 .47799684-.19433594 .55999758-.19433594 .68099978-.19433594 .7389984-.021560669 .7389984 .00045776368 .7389984 .007461548 .73298647 .014465332 .72499087 .014465332 .71499636 .014465332 .71199038 .0054626467 .71099856 .0014648438 .68699648-.069107059 .62098696-.08934021 .58699038-.08934021 .5469971-.08934021 .526001-.072143558 .5079956 .008468628 .6859894 .07141113 .82899478 .24832154 .82899478 .42523194 .82899478 .5821686 .71598818 .703125 .5389862 .703125 .2999878 .703125 .068984989 .47920228 .068984989 .25431825 .068984989 .09338379 .18798828-.01953125 .3600006-.01953125 .3789978-.01953125 .41299439-.018539429 .46499635-.0055389406V-.060012819M.2919922 .02545166C.23999024 .043426515 .1659851 .09538269 .1659851 .22932434 .1659851 .29328919 .18699646 .426239 .27799989 .5391846 .34098817 .6161499 .43798829 .67111209 .5309906 .67111209 .6399994 .67111209 .7319946 .5981598 .7319946 .45222474 .7319946 .3522644 .68299868 .13735962 .5 .046432496 .48399354 .109375 .45799256 .15136719 .39898683 .15136719 .34298707 .15136719 .28799439 .10437012 .28799439 .05142212 .28799439 .033447267 .2889862 .032440187 .2919922 .02545166M.46499635 .030441285C.44299317 .022445679 .4059906 .012466431 .36698915 .012466431 .35099793 .012466431 .31599427 .012466431 .31599427 .05142212 .31599427 .08938599 .35699464 .12335205 .39898683 .12335205 .43499757 .12335205 .46199037 .1073761 .46499635 .030441285Z"/>
</defs>
<use data-text="X" xlink:href="#font_1_4" transform="matrix(9.963197,0,0,-9.963397,1.2171745,71.76771)"/>
<use data-text="P" xlink:href="#font_1_2" transform="matrix(9.963197,0,0,-9.963397,143.5877,15.069168)"/>
<use data-text="Q" xlink:href="#font_1_3" transform="matrix(9.963197,0,0,-9.963397,143.53972,127.49716)"/>
<use data-text="C" xlink:href="#font_1_1" transform="matrix(9.963197,0,0,-9.963397,84.81018,14.322113)"/>
<use data-text="a" xlink:href="#font_2_3" transform="matrix(6.9742186,0,0,-6.974358,91.93161,15.817215)"/>
<use data-text="C" xlink:href="#font_1_1" transform="matrix(9.963197,0,0,-9.963397,85.21921,71.020648)"/>
<use data-text="b" xlink:href="#font_2_4" transform="matrix(6.9742186,0,0,-6.974358,92.34063,72.51575)"/>
<use data-text="C" xlink:href="#font_1_1" transform="matrix(9.963197,0,0,-9.963397,85.19121,127.718189)"/>
<use data-text="c" xlink:href="#font_2_5" transform="matrix(6.9742186,0,0,-6.974358,92.31263,129.21329)"/>
<path transform="matrix(1.00006,0,0,-1.00008,-22.613255,181.7595)" stroke-width=".3985" stroke-linecap="butt" stroke-miterlimit="10" stroke-linejoin="miter" fill="none" stroke="#000000" d="M162.67105 170.08086H124.86969"/>
<path transform="matrix(-1.00006,-0,0,1.00008,102.263919,11.665039)" d="M1.99252 0-1.19551 1.59401 0 0-1.19551-1.59401"/>
<use data-text="p" xlink:href="#font_1_6" transform="matrix(9.963197,0,0,-9.963397,115.25302,6.2074739)"/>
<use data-text="a" xlink:href="#font_2_3" transform="matrix(6.9742186,0,0,-6.974358,120.26632,7.7025759)"/>
<path transform="matrix(1.00006,0,0,-1.00008,-22.613255,181.7595)" stroke-width=".3985" stroke-linecap="butt" stroke-miterlimit="10" stroke-linejoin="miter" fill="none" stroke="#000000" d="M163.16112 163.15709 122.46277 122.46695"/>
<path transform="matrix(-.7072124,.70708659,.7070724,.7072266,99.85686,59.28276)" d="M1.99252 0-1.19551 1.59401 0 0-1.19551-1.59401"/>
<use data-text="p" xlink:href="#font_1_6" transform="matrix(9.963197,0,0,-9.963397,114.99501,47.45076)"/>
<use data-text="b" xlink:href="#font_2_4" transform="matrix(6.9742186,0,0,-6.974358,120.00831,48.94586)"/>
<path transform="matrix(1.00006,0,0,-1.00008,-22.613255,181.7595)" stroke-width=".3985" stroke-linecap="butt" stroke-miterlimit="10" stroke-linejoin="miter" fill="none" stroke="#000000" d="M170.08086 64.58597V161.16457"/>
<path transform="matrix(0,-1.00008,-1.00006,-0,147.4778,20.582047)" d="M1.99252 0-1.19551 1.59401 0 0-1.19551-1.59401"/>
<use data-text="q" xlink:href="#font_1_7" transform="matrix(9.963197,0,0,-9.963397,150.99816,69.05549)"/>
<path transform="matrix(1.00006,0,0,-1.00008,-22.613255,181.7595)" stroke-width=".3985" stroke-linecap="butt" stroke-miterlimit="10" stroke-linejoin="miter" fill="none" stroke="#000000" d="M162.62297 56.69362H124.48917"/>
<path transform="matrix(-1.00006,-0,0,1.00008,101.88338,125.061359)" d="M1.99252 0-1.19551 1.59401 0 0-1.19551-1.59401"/>
<use data-text="q" xlink:href="#font_1_7" transform="matrix(9.963197,0,0,-9.963397,115.70206,132.8716)"/>
<use data-text="c" xlink:href="#font_2_5" transform="matrix(6.9742186,0,0,-6.974358,120.150318,134.3667)"/>
<path transform="matrix(1.00006,0,0,-1.00008,-22.613255,181.7595)" stroke-width=".3985" stroke-linecap="butt" stroke-miterlimit="10" stroke-linejoin="miter" fill="none" stroke="#000000" d="M36.38446 116.60199 160.82112 166.3813"/>
<path transform="matrix(.92849567,-.3714097,-.37140227,-.92851427,138.21752,15.364899)" d="M1.99252 0-1.19551 1.59401 0 0-1.19551-1.59401"/>
<use data-text="f" xlink:href="#font_1_5" transform="matrix(9.963197,0,0,-9.963397,71.15936,34.428728)"/>
<use data-text="P" xlink:href="#font_2_1" transform="matrix(6.9742186,0,0,-6.974358,76.03766,35.92383)"/>
<path transform="matrix(1.00006,0,0,-1.00008,-22.613255,181.7595)" stroke-width=".3985" stroke-linecap="butt" stroke-miterlimit="10" stroke-linejoin="miter" fill="none" stroke="#000000" d="M36.38446 110.1737 160.77304 60.41237"/>
<path transform="matrix(.92849567,.3714097,.37140227,-.92851427,138.16944,121.3423)" d="M1.99252 0-1.19551 1.59401 0 0-1.19551-1.59401"/>
<use data-text="f" xlink:href="#font_1_5" transform="matrix(9.963197,0,0,-9.963397,71.071369,90.459209)"/>
<use data-text="Q" xlink:href="#font_2_2" transform="matrix(6.9742186,0,0,-6.974358,75.94965,91.95431)"/>
<path transform="matrix(1.00006,0,0,-1.00008,-22.613255,181.7595)" stroke-width=".3985" stroke-linecap="butt" stroke-miterlimit="10" stroke-linejoin="miter" fill="none" stroke="#000000" d="M36.38446 118.74495 102.23958 162.6554"/>
<path transform="matrix(.83201989,-.55477437,-.55476328,-.83203658,79.63245,19.09111)" d="M1.99252 0-1.19551 1.59401 0 0-1.19551-1.59401"/>
<use data-text="f" xlink:href="#font_1_5" transform="matrix(9.963197,0,0,-9.963397,34.31416,35.037767)"/>
<use data-text="a" xlink:href="#font_2_3" transform="matrix(6.9742186,0,0,-6.974358,39.19245,36.532869)"/>
<path transform="matrix(1.00006,0,0,-1.00008,-22.613255,181.7595)" stroke-width=".3985" stroke-linecap="butt" stroke-miterlimit="10" stroke-linejoin="miter" fill="none" stroke="#000000" d="M36.38446 113.38724H102.31374"/>
<path transform="matrix(1.00006,0,0,-1.00008,79.70662,68.3632)" d="M1.99252 0-1.19551 1.59401 0 0-1.19551-1.59401"/>
<use data-text="f" xlink:href="#font_1_5" transform="matrix(9.963197,0,0,-9.963397,43.296697,62.906)"/>
<use data-text="b" xlink:href="#font_2_4" transform="matrix(6.9742186,0,0,-6.974358,48.174989,64.4011)"/>
<path transform="matrix(1.00006,0,0,-1.00008,-22.613255,181.7595)" stroke-width=".3985" stroke-linecap="butt" stroke-miterlimit="10" stroke-linejoin="miter" fill="none" stroke="#000000" d="M36.38446 108.03368 102.62015 63.86569"/>
<path transform="matrix(.8319999,.5548043,.55479326,-.8320165,80.01305,117.8887)" d="M1.99252 0-1.19551 1.59401 0 0-1.19551-1.59401"/>
<use data-text="f" xlink:href="#font_1_5" transform="matrix(9.963197,0,0,-9.963397,35.265218,106.79451)"/>
<use data-text="c" xlink:href="#font_2_5" transform="matrix(6.9742186,0,0,-6.974358,40.14351,108.28961)"/>
</svg>
