<svg xmlns="http://www.w3.org/2000/svg" xmlns:xlink="http://www.w3.org/1999/xlink" xmlns:inkscape="http://www.inkscape.org/namespaces/inkscape" version="1.1" width="287" height="60" viewBox="0 0 287 60">
<defs>
<path id="font_1_2" d="M.23899842 .1570282C.23999024 .1590271 .24699402 .16601563 .25 .16601563 .2539978 .16601563 .2919922 .122039798 .29899598 .11505127 .32798768 .08306885 .35699464 .051086427 .3869934 .021102906 .3909912 .016098023 .3939972 .016098023 .394989 .016098023 .40299989 .016098023 .4059906 .023101807 .4059906 .02709961 .4059906 .032104494 .375 .08607483 .34599305 .13703919L.30699159 .20898438 .48098756 .28894044C.49499513 .29592896 .49598695 .29992677 .49598695 .30392457 .49598695 .30891419 .49198915 .31391908 .4850006 .31391908 .48399354 .31391908 .43499757 .30491639 .2849884 .27494813L.2619934 .46281434C.2599945 .4808197 .25898744 .4848175 .25 .4848175 .24198914 .4848175 .23899842 .47981263 .23699951 .46281434L.21499634 .27494813 .02999878 .31192018C.024993897 .312912 .017990113 .31391908 .01499939 .31391908 .0079956059 .31391908 .0039978029 .30891419 .0039978029 .30392457 .0039978029 .29592896 .008987427 .29393006 .019989014 .28894044L.19400025 .20898438 .100997928 .04309082C.09498596 .031097413 .09399414 .03010559 .09399414 .02709961 .09399414 .023101807 .09700012 .016098023 .10499573 .016098023 .10699463 .016098023 .10998535 .016098023 .11999512 .02709961L.23899842 .1570282Z"/>
<path id="font_2_1" d="M.44400025 .24998474C.44400025 .35688783 .35499574 .44381715 .25 .44381715 .14199829 .44381715 .054992677 .35488893 .054992677 .24998474 .054992677 .14407349 .14199829 .056137086 .25 .056137086 .35499574 .056137086 .44400025 .14308167 .44400025 .24998474Z"/>
<path id="font_1_1" d="M.19198609 .052993776C.19198609 .08198547 .16799927 .10598755 .13899231 .10598755 .10998535 .10598755 .085998538 .08198547 .085998538 .052993776 .085998538 .023986817 .10998535 0 .13899231 0 .16799927 0 .19198609 .023986817 .19198609 .052993776Z"/>
</defs>
<path transform="matrix(1.00008,0,0,-1,2.0966492,58.492)" stroke-width=".3985" stroke-linecap="butt" stroke-miterlimit="10" stroke-linejoin="miter" fill="none" stroke="#000000" d="M0 0V56.69362H283.4681V0ZM283.4681 56.69362"/>
<use data-text="&#x22c6;" xlink:href="#font_1_2" transform="matrix(9.963397,0,0,-9.9626,27.95472,32.463)"/>
<use data-text="&#x2022;" xlink:href="#font_2_1" transform="matrix(9.963397,0,0,-9.9626,56.303987,32.359)"/>
<use data-text="&#x2022;" xlink:href="#font_2_1" transform="matrix(9.963397,0,0,-9.9626,84.65325,32.359)"/>
<use data-text="&#x2022;" xlink:href="#font_2_1" transform="matrix(9.963397,0,0,-9.9626,113.002529,32.359)"/>
<use data-text="&#x2022;" xlink:href="#font_2_1" transform="matrix(9.963397,0,0,-9.9626,141.35079,32.359)"/>
<use data-text="&#x2022;" xlink:href="#font_2_1" transform="matrix(9.963397,0,0,-9.9626,169.70006,32.359)"/>
<use data-text="&#x2022;" xlink:href="#font_2_1" transform="matrix(9.963397,0,0,-9.9626,198.04932,32.359)"/>
<use data-text="." xlink:href="#font_1_1" transform="matrix(9.963397,0,0,-9.9626,224.73746,30.671002)"/>
<use data-text="." xlink:href="#font_1_1" transform="matrix(9.963397,0,0,-9.9626,227.49732,30.671002)"/>
<use data-text="." xlink:href="#font_1_1" transform="matrix(9.963397,0,0,-9.9626,230.25719,30.671002)"/>
<path transform="matrix(1.00008,0,0,-1,2.0966492,58.492)" stroke-width=".3985" stroke-linecap="butt" stroke-miterlimit="10" stroke-linejoin="miter" fill="none" stroke="#000000" d="M26.78285 34.18434C23.11415 47.8748 33.57945 47.8748 30.96161 38.10612"/>
<path transform="matrix(-.2588407,.96591,.96598729,.25882,33.50547,18.726269)" d="M4.21463 0 .64343 1.34572 1.8178 0 .64343-1.34572Z"/>
<path transform="matrix(-.2588407,.96591,.96598729,.25882,33.50547,18.726269)" stroke-width=".3985" stroke-linecap="butt" stroke-miterlimit="10" stroke-linejoin="miter" fill="none" stroke="#000000" d="M4.21463 0 .64343 1.34572 1.8178 0 .64343-1.34572Z"/>
<path transform="matrix(1.00008,0,0,-1,2.0966492,58.492)" stroke-width=".3985" stroke-linecap="butt" stroke-miterlimit="10" stroke-linejoin="miter" fill="none" stroke="#000000" d="M55.15747 34.08057C51.48877 47.77103 61.89845 47.77103 59.28061 38.00233"/>
<path transform="matrix(-.2588407,.96591,.96598729,.25882,61.826738,18.83004)" d="M4.21463 0 .64343 1.34572 1.8178 0 .64343-1.34572Z"/>
<path transform="matrix(-.2588407,.96591,.96598729,.25882,61.826738,18.83004)" stroke-width=".3985" stroke-linecap="butt" stroke-miterlimit="10" stroke-linejoin="miter" fill="none" stroke="#000000" d="M4.21463 0 .64343 1.34572 1.8178 0 .64343-1.34572Z"/>
<path transform="matrix(1.00008,0,0,-1,2.0966492,58.492)" stroke-width=".3985" stroke-linecap="butt" stroke-miterlimit="10" stroke-linejoin="miter" fill="none" stroke="#000000" d="M91.05093 24.87758C96.56456 21.69429 101.8631 21.69429 105.65117 23.88135"/>
<path transform="matrix(.8660793,-.49998,-.50001999,-.86601,107.756259,34.61065)" d="M1.99252 0-1.19551 1.59401 0 0-1.19551-1.59401"/>
<path transform="matrix(1.00008,0,0,-1,2.0966492,58.492)" stroke-width=".3985" stroke-linecap="butt" stroke-miterlimit="10" stroke-linejoin="miter" fill="none" stroke="#000000" d="M107.37672 31.81602C101.8631 34.99931 96.56456 34.99931 92.77647 32.81226"/>
<path transform="matrix(-.8660793,.49998,.50001999,.86601,94.88056,25.67974)" d="M1.99252 0-1.19551 1.59401 0 0-1.19551-1.59401"/>
<path transform="matrix(1.00008,0,0,-1,2.0966492,58.492)" stroke-width=".3985" stroke-linecap="butt" stroke-miterlimit="10" stroke-linejoin="miter" fill="none" stroke="#000000" d="M147.74456 24.87758C153.25818 21.69429 158.55672 21.69429 162.34479 23.88135"/>
<path transform="matrix(.8660793,-.49998,-.50001999,-.86601,164.4544,34.61065)" d="M1.99252 0-1.19551 1.59401 0 0-1.19551-1.59401"/>
<path transform="matrix(1.00008,0,0,-1,2.0966492,58.492)" stroke-width=".3985" stroke-linecap="butt" stroke-miterlimit="10" stroke-linejoin="miter" fill="none" stroke="#000000" d="M176.09137 24.87758C181.60498 21.69429 186.90354 21.69429 190.6916 23.88135"/>
<path transform="matrix(.8660793,-.49998,-.50001999,-.86601,192.8035,34.61065)" d="M1.99252 0-1.19551 1.59401 0 0-1.19551-1.59401"/>
<path transform="matrix(1.00008,0,0,-1,2.0966492,58.492)" stroke-width=".3985" stroke-linecap="butt" stroke-miterlimit="10" stroke-linejoin="miter" fill="none" stroke="#000000" d="M192.41715 31.81474C177.33008 40.52524 162.83162 40.52524 149.47011 32.81097"/>
<path transform="matrix(-.8660793,.49998,.50001999,.86601,151.57872,25.68103)" d="M1.99252 0-1.19551 1.59401 0 0-1.19551-1.59401"/>
</svg>
