<svg xmlns="http://www.w3.org/2000/svg" xmlns:xlink="http://www.w3.org/1999/xlink" xmlns:inkscape="http://www.inkscape.org/namespaces/inkscape" version="1.1" width="287" height="396" viewBox="0 0 287 396">
<defs>
<path id="font_1_1" d="M.4850006 .41075135 .40098573 .6096344C.397995 .61763 .3959961 .6216278 .3959961 .6226196 .3959961 .62861636 .41299439 .6476135 .45498658 .6516113 .46499635 .65260317 .47499085 .6536102 .47499085 .6706085 .47499085 .6826172 .46299745 .6826172 .45999146 .6826172 .4189911 .6826172 .37599183 .6796112 .33399964 .6796112 .30899049 .6796112 .24699402 .6826172 .22200012 .6826172 .21598816 .6826172 .20399475 .6826172 .20399475 .6626129 .20399475 .6516113 .21398926 .6516113 .22698975 .6516113 .2869873 .6516113 .29299928 .6416168 .3019867 .6196289L.41999818 .34080506 .20899964 .11393738 .19599915 .10295105C.14698792 .049987794 .099990848 .033996583 .04899597 .0309906 .035995485 .02999878 .026992798 .02999878 .026992798 .010986328 .026992798 .009994507 .026992798 0 .039993287 0 .069992069 0 .102996829 .0029907227 .13398743 .0029907227 .17098999 .0029907227 .20999146 0 .24598694 0 .2519989 0 .2639923 0 .2639923 .019989014 .2639923 .02999878 .2539978 .0309906 .2519989 .0309906 .24299622 .03199768 .21199036 .033996583 .21199036 .061965944 .21199036 .07795715 .22698975 .093948367 .23899842 .10694885L.34098817 .21487427 .43099977 .31282044 .5319977 .07395935C.5359955 .06297302 .5369873 .061965944 .5369873 .05996704 .5369873 .051986696 .5179901 .034988405 .47898866 .0309906 .46798707 .02999878 .45899964 .0289917 .45899964 .011993408 .45899964 0 .46998597 0 .47399903 0 .5019989 0 .57199099 .0029907227 .59999087 .0029907227 .625 .0029907227 .6859894 0 .71099856 0 .71798709 0 .7299957 0 .7299957 .018997193 .7299957 .0309906 .7200012 .0309906 .71199038 .0309906 .644989 .03199768 .6429901 .034988405 .6259918 .07496643 .58699038 .16790772 .519989 .32380677 .49699403 .3837738 .5649872 .45373536 .66999819 .5726471 .70199587 .6006317 .73098757 .62461856 .7689972 .64860537 .82899478 .6516113 .84199526 .65260317 .8509979 .65260317 .8509979 .6716156 .8509979 .6726074 .8509979 .6826172 .83799746 .6826172 .80799868 .6826172 .7749939 .6796112 .74398806 .6796112 .70700076 .6796112 .6689911 .6826172 .6329956 .6826172 .6269989 .6826172 .6139984 .6826172 .6139984 .6626129 .6139984 .65560916 .61898806 .65260317 .6259918 .6516113 .6349945 .65060427 .66600039 .64860537 .66600039 .6206207 .66600039 .6066284 .6549988 .5936432 .6469879 .5846405L.4850006 .41075135Z"/>
<path id="font_1_2" d="M.5970001 .5686493 .61099246 .5826416C.6409912 .6126251 .673996 .64660647 .74198916 .6516113 .7529907 .65260317 .7619934 .65260317 .7619934 .6706085 .7619934 .6786041 .7569885 .6826172 .7489929 .6826172 .72299197 .6826172 .69400027 .6796112 .6669922 .6796112 .6339874 .6796112 .598999 .6826172 .5669861 .6826172 .5609894 .6826172 .5479889 .6826172 .5479889 .66360476 .5479889 .65260317 .55799868 .6516113 .5629883 .6516113 .56999209 .6516113 .598999 .6496124 .598999 .62861636 .598999 .6116333 .57598879 .5856476 .57199099 .5806427L.33999635 .31381227 .22999573 .6106262C.22399903 .62461856 .22399903 .62661746 .22399903 .6276245 .22399903 .6516113 .272995 .6516113 .2829895 .6516113 .29699708 .6516113 .30699159 .6516113 .30699159 .6716156 .30699159 .6826172 .29499818 .6826172 .2919922 .6826172 .2639923 .6826172 .19400025 .6796112 .1659851 .6796112 .14099121 .6796112 .07899475 .6826172 .053985597 .6826172 .04798889 .6826172 .034988405 .6826172 .034988405 .6626129 .034988405 .6516113 .04499817 .6516113 .057998659 .6516113 .117996219 .6516113 .12199402 .64260867 .1309967 .61763L.2539978 .28883363C.25498963 .28582765 .2579956 .2748413 .2579956 .27183534 .2579956 .2688446 .21798706 .107940677 .21299744 .08995056 .19999695 .034988405 .19898987 .03199768 .11898804 .0309906 .099990848 .0309906 .09199524 .0309906 .09199524 .010986328 .09199524 0 .10398865 0 .10598755 0 .13398743 0 .20399475 .0029907227 .23199463 .0029907227 .2599945 .0029907227 .33198548 0 .3600006 0 .36698915 0 .3789978 0 .3789978 .019989014 .3789978 .0309906 .36999513 .0309906 .35099793 .0309906 .34899903 .0309906 .32998658 .0309906 .31298829 .032989503 .2919922 .034988405 .28599549 .036987306 .28599549 .048980714 .28599549 .05596924 .29499818 .09095764 .2999878 .11193848L.33499146 .2528534C.33999635 .27183534 .34098817 .2748413 .34899903 .28382875L.5970001 .5686493Z"/>
<path id="font_1_3" d="M.36698915 .3996582H.45298768C.47299195 .3996582 .48298646 .3996582 .48298646 .41966249 .48298646 .43066407 .47299195 .43066407 .45599366 .43066407H.37298585L.3939972 .5449524C.397995 .5660095 .4119873 .6370239 .41799928 .6490326 .4269867 .66804507 .44400025 .68307498 .46499635 .68307498 .46899415 .68307498 .49499513 .68307498 .5139923 .66503909 .46998597 .661026 .45999146 .6260376 .45999146 .6110382 .45999146 .58802798 .47799684 .57603457 .49699403 .57603457 .522995 .57603457 .5519867 .5980377 .5519867 .6360321 .5519867 .6820679 .5059967 .7050781 .46499635 .7050781 .43099977 .7050781 .36799623 .68707278 .33799745 .58802798 .33198548 .56700137 .32899476 .5569763 .30499269 .43066407H.23599243C.21699524 .43066407 .20599365 .43066407 .20599365 .4116516 .20599365 .3996582 .21499634 .3996582 .23399353 .3996582H.2999878L.22499085 .0048828127C.20698548-.09207153 .18998719-.18309021 .13798523-.18309021 .13398743-.18309021 .10899353-.18309021 .08999634-.16506958 .13598633-.1620636 .14498902-.12606812 .14498902-.111068729 .14498902-.08807373 .1269989-.07606506 .10798645-.07606506 .08198547-.07606506 .052993776-.09806824 .052993776-.13606262 .052993776-.18109131 .09700012-.20507813 .13798523-.20507813 .19299317-.20507813 .23298645-.14607239 .25099183-.108062747 .2829895-.04508972 .30599977 .07583618 .30699159 .082839969L.36698915 .3996582Z"/>
<path id="font_1_4" d="M.47099305 .3773346C.47200013 .3833313 .47399903 .38833619 .47399903 .39535523 .47399903 .41236878 .46199037 .42237855 .44499208 .42237855 .43499757 .42237855 .4079895 .41537477 .4039917 .3793335 .38598634 .41636659 .35099793 .4423828 .31098939 .4423828 .19699097 .4423828 .07299805 .30226136 .07299805 .15812683 .07299805 .059020997 .13398743 0 .20599365 0 .2649994 0 .31199647 .04701233 .32199098 .058029176L.32299806 .057022096C.3019867-.031982423 .2899933-.07295227 .2899933-.07495117 .28599549-.08395386 .2519989-.18309021 .1459961-.18309021 .1269989-.18309021 .09399414-.18206787 .06599426-.17297364 .09599304-.16394043 .10699463-.13793946 .10699463-.12094116 .10699463-.10494995 .09599304-.0859375 .068984989-.0859375 .04699707-.0859375 .01499939-.10394287 .01499939-.14395142 .01499939-.18508911 .051986696-.20507813 .147995-.20507813 .272995-.20507813 .34498597-.12693787 .3600006-.06695557L.47099305 .3773346M.34098817 .12809754C.33499146 .10206604 .31199647 .077041629 .2899933 .058029176 .2689972 .040008546 .23799134 .021987915 .20899964 .021987915 .15899658 .021987915 .14399719 .074035648 .14399719 .11407471 .14399719 .16212464 .17298889 .28024293 .19999695 .33128358 .22698975 .38034059 .269989 .42037965 .31199647 .42037965 .37799073 .42037965 .3919983 .33929444 .3919983 .33428956 .3919983 .32928468 .3899994 .3232727 .3889923 .3192749L.34098817 .12809754Z"/>
<path id="font_1_5" d="M.33399964 .30233766C.33999635 .32835389 .36299134 .42037965 .43299867 .42037965 .43798829 .42037965 .46199037 .42037965 .48298646 .40734864 .45498658 .402359 .43499757 .37734986 .43499757 .35334779 .43499757 .33735658 .44599916 .31835938 .47299195 .31835938 .49499513 .31835938 .5269928 .3363495 .5269928 .37635804 .5269928 .42837525 .46798707 .4423828 .43399049 .4423828 .37599183 .4423828 .34098817 .38935853 .32899476 .36634828 .3039856 .43237306 .25 .4423828 .22099304 .4423828 .116989139 .4423828 .05999756 .3133545 .05999756 .28834535 .05999756 .27833558 .069992069 .27833558 .07199097 .27833558 .07998657 .27833558 .08299255 .28033448 .084991458 .28933717 .11898804 .39535523 .18499756 .42037965 .21899414 .42037965 .23799134 .42037965 .272995 .4113617 .272995 .35334779 .272995 .32235719 .2559967 .25532533 .21899414 .11528015 .20298767 .053268434 .16799927 .011245728 .12399292 .011245728 .117996219 .011245728 .09498596 .011245728 .07398987 .024276734 .09899902 .029266358 .12098694 .05027771 .12098694 .07827759 .12098694 .105270389 .09899902 .11328125 .083999637 .11328125 .053985597 .11328125 .0289917 .08728027 .0289917 .055267335 .0289917 .009246826 .07899475-.0107421879 .12298584-.0107421879 .18899536-.0107421879 .22499085 .059280397 .22799683 .0652771 .23999024 .028274537 .27598573-.0107421879 .33599855-.0107421879 .43899537-.0107421879 .49598695 .118270877 .49598695 .14328003 .49598695 .1532898 .4869995 .1532898 .48399354 .1532898 .47499085 .1532898 .47299195 .14929199 .47099305 .14228821 .43798829 .03527832 .36999513 .011245728 .33799745 .011245728 .29899598 .011245728 .2829895 .043273927 .2829895 .07727051 .2829895 .09927368 .2889862 .121276859 .2999878 .16529846L.33399964 .30233766Z"/>
<path id="font_2_1" d="M.33499146 .63612368C.33499146 .6630554 .33299256 .6640625 .30499269 .6640625 .24099732 .6014404 .1499939 .6004486 .10899353 .6004486V.5644531C.1329956 .5644531 .19898987 .5644531 .2539978 .592453V.08203125C.2539978 .04899597 .2539978 .035995485 .1539917 .035995485H.115997318V0C.13398743 .0009918213 .25698854 .0039978029 .2939911 .0039978029 .32499696 .0039978029 .45098878 .0009918213 .47299195 0V.035995485H.43499757C.33499146 .035995485 .33499146 .04899597 .33499146 .08203125V.63612368Z"/>
<path id="font_2_2" d="M.5049896 .18203736H.47099305C.46798707 .16001892 .45799256 .100997928 .44499208 .09098816 .43699647 .084991458 .3600006 .084991458 .34599305 .084991458H.1619873C.2669983 .17803955 .3019867 .20603943 .3619995 .25306703 .43598939 .312088 .5049896 .374115 .5049896 .46914674 .5049896 .5900879 .39898683 .6640625 .2709961 .6640625 .14698792 .6640625 .06298828 .57710269 .06298828 .4851532 .06298828 .43414308 .10598755 .42915345 .115997318 .42915345 .13999939 .42915345 .16899109 .44615174 .16899109 .48214723 .16899109 .5001526 .1619873 .53515627 .10998535 .53515627 .14099121 .6060791 .20899964 .62805178 .2559967 .62805178 .35598756 .62805178 .4079895 .5501404 .4079895 .46914674 .4079895 .38212586 .34599305 .3130951 .31399537 .27708436L.07299805 .038986207C.06298828 .02999878 .06298828 .027999878 .06298828 0H.47499085L.5049896 .18203736Z"/>
<path id="font_2_3" d="M.272995 .33428956C.35099793 .33428956 .40699769 .2803192 .40699769 .1733551 .40699769 .04940796 .33499146 .012466431 .2769928 .012466431 .23699951 .012466431 .14898682 .0234375 .10699463 .082351688 .1539917 .084350589 .16499329 .11735535 .16499329 .13835144 .16499329 .17034912 .14099121 .19335938 .10998535 .19335938 .08198547 .19335938 .053985597 .17634583 .053985597 .13534546 .053985597 .041412355 .1579895-.01953125 .2789917-.01953125 .41799928-.01953125 .5139923 .07336426 .5139923 .1733551 .5139923 .2513275 .44999696 .32929994 .33999635 .35229493 .44499208 .39024354 .48298646 .4650879 .48298646 .5260773 .48298646 .60505679 .3919983 .6640625 .2809906 .6640625 .16999817 .6640625 .084991458 .61006167 .084991458 .5300751 .084991458 .49606324 .10699463 .47706605 .13699341 .47706605 .16799927 .47706605 .18798828 .5000763 .18798828 .5280762 .18798828 .5570679 .16799927 .57806399 .13699341 .5800781 .17199707 .62405398 .24099732 .63505557 .27799989 .63505557 .32299806 .63505557 .38598634 .6130676 .38598634 .5260773 .38598634 .48406983 .37199403 .43814088 .34599305 .4072113 .31298829 .36927796 .2849884 .3672943 .23498535 .36428834 .20999146 .3623047 .20799256 .3623047 .20298767 .3612976 .20098877 .3612976 .19299317 .3592987 .19299317 .34829713 .19299317 .33428956 .20199585 .33428956 .21899414 .33428956H.272995Z"/>
<path id="font_2_4" d="M.5289917 .1640625V.20005799H.41799928V.64582827C.41799928 .66682437 .41799928 .6738281 .3959961 .6738281 .38398744 .6738281 .37998963 .6738281 .36999513 .65982058L.038986207 .20005799V.1640625H.33299256V.08201599C.33299256 .04800415 .33299256 .035995485 .2519989 .035995485H.22499085V0C.2749939 .0019989014 .33898927 .0039978029 .375 .0039978029 .4119873 .0039978029 .47599793 .0019989014 .526001 0V.035995485H.49899293C.41799928 .035995485 .41799928 .04800415 .41799928 .08201599V.1640625H.5289917M.33999635 .5658722V.20005799H.07598877L.33999635 .5658722Z"/>
<path id="font_2_5" d="M.15499878 .5588074C.20599365 .5458069 .23599243 .5458069 .2519989 .5458069 .38398744 .5458069 .46199037 .6358032 .46199037 .6508026 .46199037 .6618042 .45498658 .6648102 .44999696 .6648102 .44799806 .6648102 .44599916 .6648102 .44198609 .6618042 .41799928 .6528015 .36499024 .6328125 .29100038 .6328125 .2630005 .6328125 .20999146 .6348114 .14498902 .6598053 .1349945 .6648102 .1329956 .6648102 .13198853 .6648102 .11898804 .6648102 .11898804 .6538086 .11898804 .6378021V.34251405C.11898804 .32548524 .11898804 .3134613 .1349945 .3134613 .14399719 .3134613 .14498902 .3154602 .15499878 .32748414 .19799805 .38259889 .25898744 .390625 .2939911 .390625 .35398866 .390625 .3809967 .34251405 .38598634 .33450318 .4039917 .30143739 .4099884 .26335145 .4099884 .20524597 .4099884 .17524719 .4099884 .116256717 .37998963 .07234192 .35499574 .03640747 .31199647 .012466431 .2630005 .012466431 .19799805 .012466431 .1309967 .04838562 .10598755 .11425781 .14399719 .11125183 .16299439 .13624573 .16299439 .16325379 .16299439 .20625305 .12599182 .21424866 .11299133 .21424866 .11099243 .21424866 .06298828 .21424866 .06298828 .1602478 .06298828 .07034302 .14498902-.01953125 .2649994-.01953125 .3929901-.01953125 .5049896 .07533264 .5049896 .20124817 .5049896 .31445313 .4189911 .41862489 .29499818 .41862489 .25099183 .41862489 .19898987 .4076233 .15499878 .36956788V.5588074Z"/>
<path id="font_2_6" d="M.1499939 .3274536C.1499939 .40945436 .15699768 .48303224 .19499207 .543869 .22898865 .5978699 .2829895 .63505557 .34700013 .63505557 .3769989 .63505557 .4169922 .62701418 .43699647 .5998688 .4119873 .5978699 .3909912 .5808716 .3909912 .5518799 .3909912 .5268707 .4079895 .5048828 .43798829 .5048828 .46798707 .5048828 .48599244 .5248718 .48599244 .5538788 .48599244 .6119385 .44400025 .6640625 .34498597 .6640625 .20098877 .6640625 .053985597 .5318756 .053985597 .3174591 .053985597 .05845642 .17599488-.01953125 .28599549-.01953125 .4079895-.01953125 .5139923 .07345581 .5139923 .20445252 .5139923 .33145143 .41299439 .42546083 .29599 .42546083 .21598816 .42546083 .17199707 .37245179 .1499939 .3274536M.28599549 .012466431C.23599243 .012466431 .19699097 .04145813 .17599488 .08546448 .16099549 .11546326 .15299988 .16545105 .15299988 .22544861 .15299988 .32244874 .21099854 .39746095 .29100038 .39746095 .33699037 .39746095 .36799623 .37945558 .3929901 .342453 .4169922 .30445863 .41799928 .26245118 .41799928 .20445252 .41799928 .14746094 .41799928 .10545349 .3909912 .066467288 .36698915 .031463624 .33499146 .012466431 .28599549 .012466431Z"/>
<path id="font_2_7" d="M.5349884 .6045227C.54499819 .6165161 .54499819 .6185303 .54499819 .64453127H.2829895C.24299622 .64453127 .23199463 .6455078 .19599915 .6484375 .14399719 .65234377 .14199829 .6592407 .13899231 .676239H.10499573L.069992069 .46250917H.10398865C.10598755 .47750855 .115997318 .54351809 .13198853 .5535126 .13999939 .55952456 .22099304 .55952456 .23599243 .55952456H.45399476C.42199708 .5175171 .37098695 .45550538 .34999085 .4275055 .21899414 .25549317 .20698548 .096466068 .20698548 .037460329 .20698548 .02645874 .20698548-.01953125 .2539978-.01953125 .3019867-.01953125 .3019867 .025466919 .3019867 .038467409V.07847595C.3019867 .27249146 .34199525 .36149598 .3849945 .41551209L.5349884 .6045227Z"/>
<path id="font_2_8" d="M.35499574 .36123658C.43299867 .3992157 .48298646 .44618226 .48298646 .5151367 .48298646 .6120758 .38198854 .6640625 .2849884 .6640625 .1749878 .6640625 .084991458 .5920868 .084991458 .4971466 .084991458 .45018006 .10699463 .41619874 .125 .39620973 .14299011 .37522889 .1499939 .37123109 .20899964 .33624269 .15299988 .31227113 .053985597 .25830079 .053985597 .15336609 .053985597 .042434694 .16899109-.01953125 .2829895-.01953125 .4099884-.01953125 .5139923 .061431886 .5139923 .1693573 .5139923 .23532105 .47499085 .29127503 .4169922 .32525636 .4039917 .33325196 .36898805 .35324098 .35499574 .36123658M.19198609 .45617677C.1659851 .4711609 .13798523 .49813844 .13798523 .53512576 .13798523 .5980835 .21099854 .63505557 .2829895 .63505557 .36099244 .63505557 .42999269 .5860901 .42999269 .5151367 .42999269 .42619325 .32598878 .3812256 .32398988 .3812256 .32199098 .3812256 .31999208 .3822174 .31298829 .3862152L.19198609 .45617677M.24099732 .31726075 .37799073 .23831177C.4039917 .22332764 .45399476 .19334412 .45399476 .13438416 .45399476 .059432985 .37098695 .012466431 .2849884 .012466431 .19299317 .012466431 .11399841 .07142639 .11399841 .15336609 .11399841 .22732544 .16899109 .2842865 .24099732 .31726075Z"/>
<path id="font_1_6" d="M.48599244 .38136292C.48999024 .39537049 .48999024 .39736939 .48999024 .40437318 .48999024 .42237855 .47599793 .43138124 .46099855 .43138124 .45098878 .43138124 .43499757 .42536927 .42599488 .41036988 .42399598 .405365 .41600038 .37435914 .4119873 .35635377 .40499879 .33035279 .397995 .30334474 .3919983 .27633668L.34700013 .09628296C.34298707 .08126831 .2999878 .011245728 .23399353 .011245728 .18299866 .011245728 .17199707 .055267335 .17199707 .0922699 .17199707 .1382904 .18899536 .20030213 .22299195 .28833009 .23899842 .3293457 .24299622 .3403473 .24299622 .36035157 .24299622 .405365 .21099854 .4423828 .16099549 .4423828 .06599426 .4423828 .0289917 .29733277 .0289917 .28833009 .0289917 .27833558 .038986207 .27833558 .040985109 .27833558 .050994874 .27833558 .051986696 .28033448 .056991579 .29634095 .083999637 .3903656 .12399292 .42037965 .1579895 .42037965 .1659851 .42037965 .18299866 .42037965 .18299866 .3883667 .18299866 .36335755 .17298889 .3373413 .1659851 .31834413 .12599182 .21231079 .10798645 .1552887 .10798645 .10827637 .10798645 .019256592 .17098999-.0107421879 .22999573-.0107421879 .2689972-.0107421879 .30299378 .0062561037 .33099366 .03425598 .31799317-.017745972 .30599977-.06674194 .2659912-.11973572 .23999024-.15385437 .20199585-.18309021 .1559906-.18309021 .14199829-.18309021 .09700012-.18005371 .07998657-.14074707 .09599304-.14074707 .10899353-.14074707 .12298584-.1287384 .1329956-.11973572 .14299011-.10673523 .14299011-.08773804 .14299011-.056747438 .115997318-.052734376 .10598755-.052734376 .08299255-.052734376 .049987794-.068740848 .049987794-.11773682 .049987794-.16796875 .09399414-.20507813 .1559906-.20507813 .25898744-.20507813 .3619995-.11373901 .3899994-.00074768069L.48599244 .38136292Z"/>
<path id="font_2_9" d="M.41799928 .29803468C.41799928 .05064392 .29499818 .012466431 .23498535 .012466431 .21299744 .012466431 .1599884 .014465332 .1329956 .045639039 .17399597 .04963684 .1769867 .08363342 .1769867 .09263611 .1769867 .11764526 .1599884 .13964844 .12998963 .13964844 .099990848 .13964844 .08198547 .119644168 .08198547 .09063721 .08198547 .022521973 .13899231-.01953125 .23599243-.01953125 .3789978-.01953125 .5139923 .11564636 .5139923 .32904054 .5139923 .5770569 .4039917 .6640625 .2869873 .6640625 .2539978 .6640625 .18499756 .6590576 .12799073 .60305789 .09399414 .5700531 .053985597 .53105166 .053985597 .4410553 .053985597 .31404115 .15499878 .22003174 .27198792 .22003174 .35198976 .22003174 .394989 .27304078 .41799928 .31803895V.29803468M.2769928 .24804688C.23799134 .24804688 .20098877 .26104737 .17298889 .30703736 .1499939 .34403993 .1499939 .38604737 .1499939 .4410553 .1499939 .49905396 .1499939 .53904727 .1789856 .5790558 .20298767 .61405947 .23599243 .63505557 .28799439 .63505557 .33898927 .63505557 .36898805 .60305789 .3849945 .5770569 .4119873 .53504946 .4149933 .4650421 .4149933 .4300537 .4149933 .30004884 .33999635 .24804688 .2769928 .24804688Z"/>
</defs>
<use data-text="X" xlink:href="#font_1_1" transform="matrix(9.963397,0,0,-9.962899,54.275827,43.872949)"/>
<use data-text="Y" xlink:href="#font_1_2" transform="matrix(9.963397,0,0,-9.962899,224.88948,43.872949)"/>
<path transform="matrix(1.00008,0,0,-1.00003,58.79419,153.85926)" stroke-width=".3985" stroke-linecap="butt" stroke-dasharray="2.98883,2.98883" stroke-miterlimit="10" stroke-linejoin="miter" fill="none" stroke="#ff0000" d="M8.03764 118.0248C60.48538 148.17008 110.23155 148.07372 160.83852 118.72496"/>
<path transform="matrix(.8650892,.50167509,.5017001,-.86504599,219.64556,35.130708)" d="M1.99252 0-1.19551 1.59401 0 0-1.19551-1.59401" fill="#ff0000"/>
<use data-text="f" xlink:href="#font_1_3" transform="matrix(9.963397,0,0,-9.962899,141.16979,7.8378756)" fill="#ff0000"/>
<path transform="matrix(1.00008,0,0,-1.00003,58.79419,153.85926)" stroke-width=".3985" stroke-linecap="butt" stroke-dasharray=".3985,1.99255" stroke-miterlimit="10" stroke-linejoin="miter" fill="none" stroke="#0000ff" d="M8.03764 108.74966C60.48538 78.60439 110.23155 78.70074 160.83852 108.0495"/>
<path transform="matrix(.8650892,-.50167509,-.5017001,-.86504599,219.64556,45.806535)" d="M1.99252 0-1.19551 1.59401 0 0-1.19551-1.59401" fill="#0000ff"/>
<use data-text="g" xlink:href="#font_1_4" transform="matrix(9.963397,0,0,-9.962899,141.58982,75.4519)" fill="#0000ff"/>
<path transform="matrix(1.00008,0,0,-1.00003,58.79419,153.85926)" stroke-width=".3985" stroke-linecap="butt" stroke-miterlimit="10" stroke-linejoin="miter" fill="none" stroke="#000000" d="M56.69362-99.21382C56.69362-36.59097 31.31142 14.1734 0 14.1734-31.31142 14.1734-56.69362-36.59097-56.69362-99.21382-56.69362-161.83667-31.31142-212.60106 0-212.60106 31.31142-212.60106 56.69362-161.83667 56.69362-99.21382ZM0-99.21382"/>
<path transform="matrix(1.00008,0,0,-1.00003,58.79419,153.85926)" stroke-width=".3985" stroke-linecap="butt" stroke-miterlimit="10" stroke-linejoin="miter" fill="none" stroke="#000000" d="M226.77448-113.38724C226.77448-42.93654 201.39228 14.17339 170.08086 14.17339 138.76943 14.17339 113.38724-42.93654 113.38724-113.38724 113.38724-183.83792 138.76943-240.94788 170.08086-240.94788 201.39228-240.94788 226.77448-183.83792 226.77448-113.38724ZM170.08086-113.38724"/>
<use data-text="x" xlink:href="#font_1_5" transform="matrix(9.963397,0,0,-9.962899,53.711786,155.2573)"/>
<use data-text="1" xlink:href="#font_2_1" transform="matrix(6.974358,0,0,-6.9740097,59.406244,156.75234)"/>
<use data-text="x" xlink:href="#font_1_5" transform="matrix(9.963397,0,0,-9.962899,53.711786,183.60414)"/>
<use data-text="2" xlink:href="#font_2_2" transform="matrix(6.974358,0,0,-6.9740097,59.406244,185.09918)"/>
<use data-text="x" xlink:href="#font_1_5" transform="matrix(9.963397,0,0,-9.962899,53.711786,211.952)"/>
<use data-text="3" xlink:href="#font_2_3" transform="matrix(6.974358,0,0,-6.9740097,59.406244,213.44704)"/>
<use data-text="x" xlink:href="#font_1_5" transform="matrix(9.963397,0,0,-9.962899,53.711786,240.29985)"/>
<use data-text="4" xlink:href="#font_2_4" transform="matrix(6.974358,0,0,-6.9740097,59.406244,241.79489)"/>
<use data-text="x" xlink:href="#font_1_5" transform="matrix(9.963397,0,0,-9.962899,53.711786,268.6477)"/>
<use data-text="5" xlink:href="#font_2_5" transform="matrix(6.974358,0,0,-6.9740097,59.406244,270.14277)"/>
<use data-text="x" xlink:href="#font_1_5" transform="matrix(9.963397,0,0,-9.962899,53.711786,296.99555)"/>
<use data-text="6" xlink:href="#font_2_6" transform="matrix(6.974358,0,0,-6.9740097,59.406244,298.4906)"/>
<use data-text="x" xlink:href="#font_1_5" transform="matrix(9.963397,0,0,-9.962899,53.711786,325.3424)"/>
<use data-text="7" xlink:href="#font_2_7" transform="matrix(6.974358,0,0,-6.9740097,59.406244,326.83747)"/>
<use data-text="x" xlink:href="#font_1_5" transform="matrix(9.963397,0,0,-9.962899,53.711786,353.69026)"/>
<use data-text="8" xlink:href="#font_2_8" transform="matrix(6.974358,0,0,-6.9740097,59.406244,355.1853)"/>
<use data-text="y" xlink:href="#font_1_6" transform="matrix(9.963397,0,0,-9.962899,224.21143,155.0353)"/>
<use data-text="1" xlink:href="#font_2_1" transform="matrix(6.974358,0,0,-6.9740097,229.09581,156.53034)"/>
<use data-text="y" xlink:href="#font_1_6" transform="matrix(9.963397,0,0,-9.962899,224.21143,183.38315)"/>
<use data-text="2" xlink:href="#font_2_2" transform="matrix(6.974358,0,0,-6.9740097,229.09581,184.87818)"/>
<use data-text="y" xlink:href="#font_1_6" transform="matrix(9.963397,0,0,-9.962899,224.21143,211.73099)"/>
<use data-text="3" xlink:href="#font_2_3" transform="matrix(6.974358,0,0,-6.9740097,229.09581,213.22603)"/>
<use data-text="y" xlink:href="#font_1_6" transform="matrix(9.963397,0,0,-9.962899,224.21143,240.07884)"/>
<use data-text="4" xlink:href="#font_2_4" transform="matrix(6.974358,0,0,-6.9740097,229.09581,241.57389)"/>
<use data-text="y" xlink:href="#font_1_6" transform="matrix(9.963397,0,0,-9.962899,224.21143,268.4257)"/>
<use data-text="5" xlink:href="#font_2_5" transform="matrix(6.974358,0,0,-6.9740097,229.09581,269.92076)"/>
<use data-text="y" xlink:href="#font_1_6" transform="matrix(9.963397,0,0,-9.962899,224.21143,296.77357)"/>
<use data-text="6" xlink:href="#font_2_6" transform="matrix(6.974358,0,0,-6.9740097,229.09581,298.2686)"/>
<use data-text="y" xlink:href="#font_1_6" transform="matrix(9.963397,0,0,-9.962899,224.21143,325.1214)"/>
<use data-text="7" xlink:href="#font_2_7" transform="matrix(6.974358,0,0,-6.9740097,229.09581,326.61647)"/>
<use data-text="y" xlink:href="#font_1_6" transform="matrix(9.963397,0,0,-9.962899,224.21143,353.46925)"/>
<use data-text="8" xlink:href="#font_2_8" transform="matrix(6.974358,0,0,-6.9740097,229.09581,354.9643)"/>
<use data-text="y" xlink:href="#font_1_6" transform="matrix(9.963397,0,0,-9.962899,224.21143,381.8171)"/>
<use data-text="9" xlink:href="#font_2_9" transform="matrix(6.974358,0,0,-6.9740097,229.09581,383.31214)"/>
<path transform="matrix(1.00008,0,0,-1.00003,58.79419,153.85926)" stroke-width=".3985" stroke-linecap="butt" stroke-dasharray="2.98883,2.98883" stroke-miterlimit="10" stroke-linejoin="miter" fill="none" stroke="#ff0000" d="M8.60152 4.96289C60.41377 34.77133 110.16295 34.6958 160.16004 5.72826"/>
<path transform="matrix(.8652992,.5013251,.5013501,-.865256,218.96703,148.13082)" d="M1.99252 0-1.19551 1.59401 0 0-1.19551-1.59401" fill="#ff0000"/>
<path transform="matrix(1.00008,0,0,-1.00003,58.79419,153.85926)" stroke-width=".3985" stroke-linecap="butt" stroke-dasharray=".3985,1.99255" stroke-miterlimit="10" stroke-linejoin="miter" fill="none" stroke="#0000ff" d="M8.60152-4.96289C60.41377-34.77133 110.16295-34.6958 160.16004-5.72826"/>
<path transform="matrix(.8652992,-.5013251,-.5013501,-.865256,218.96703,159.58769)" d="M1.99252 0-1.19551 1.59401 0 0-1.19551-1.59401" fill="#0000ff"/>
<path transform="matrix(1.00008,0,0,-1.00003,58.79419,153.85926)" stroke-width=".3985" stroke-linecap="butt" stroke-dasharray="2.98883,2.98883" stroke-miterlimit="10" stroke-linejoin="miter" fill="none" stroke="#ff0000" d="M8.60152-23.38391C60.41377 6.42451 110.16295 6.349 160.16004-22.61855"/>
<path transform="matrix(.8652992,.5013251,.5013501,-.865256,218.96703,176.47846)" d="M1.99252 0-1.19551 1.59401 0 0-1.19551-1.59401" fill="#ff0000"/>
<path transform="matrix(1.00008,0,0,-1.00003,58.79419,153.85926)" stroke-width=".3985" stroke-linecap="butt" stroke-dasharray=".3985,1.99255" stroke-miterlimit="10" stroke-linejoin="miter" fill="none" stroke="#0000ff" d="M7.77823-34.75858C55.07446-73.35349 104.81168-81.42368 160.02124-60.46854"/>
<path transform="matrix(.9349648,-.35484068,-.35485838,-.93491807,218.82823,214.3296)" d="M1.99252 0-1.19551 1.59401 0 0-1.19551-1.59401" fill="#0000ff"/>
<path transform="matrix(1.00008,0,0,-1.00003,58.79419,153.85926)" stroke-width=".3985" stroke-linecap="butt" stroke-dasharray="2.98883,2.98883" stroke-miterlimit="10" stroke-linejoin="miter" fill="none" stroke="#ff0000" d="M8.60152-53.47421C65.42905-31.92015 114.9538-39.97029 160.49063-77.14725"/>
<path transform="matrix(.774662,.632389,.6324206,-.7746233,219.29764,231.0088)" d="M1.99252 0-1.19551 1.59401 0 0-1.19551-1.59401" fill="#ff0000"/>
<path transform="matrix(1.00008,0,0,-1.00003,58.79419,153.85926)" stroke-width=".3985" stroke-linecap="butt" stroke-dasharray=".3985,1.99255" stroke-miterlimit="10" stroke-linejoin="miter" fill="none" stroke="#0000ff" d="M7.77823-63.10538C55.07446-101.7003 104.81168-109.77048 160.02124-88.81535"/>
<path transform="matrix(.9349648,-.35484068,-.35485838,-.93491807,218.82823,242.67728)" d="M1.99252 0-1.19551 1.59401 0 0-1.19551-1.59401" fill="#0000ff"/>
<path transform="matrix(1.00008,0,0,-1.00003,58.79419,153.85926)" stroke-width=".3985" stroke-linecap="butt" stroke-dasharray="2.98883,2.98883" stroke-miterlimit="10" stroke-linejoin="miter" fill="none" stroke="#ff0000" d="M8.60152-80.07753C60.41377-50.26909 110.16295-50.34462 160.16004-79.31216"/>
<path transform="matrix(.8652992,.5013251,.5013501,-.865256,218.96703,233.17378)" d="M1.99252 0-1.19551 1.59401 0 0-1.19551-1.59401" fill="#ff0000"/>
<path transform="matrix(1.00008,0,0,-1.00003,58.79419,153.85926)" stroke-width=".3985" stroke-linecap="butt" stroke-dasharray=".3985,1.99255" stroke-miterlimit="10" stroke-linejoin="miter" fill="none" stroke="#0000ff" d="M8.60152-90.00333C60.41377-119.81175 110.16295-119.73624 160.16004-90.76868"/>
<path transform="matrix(.8652992,-.5013251,-.5013501,-.865256,218.96703,244.63068)" d="M1.99252 0-1.19551 1.59401 0 0-1.19551-1.59401" fill="#0000ff"/>
<path transform="matrix(1.00008,0,0,-1.00003,58.79419,153.85926)" stroke-width=".3985" stroke-linecap="butt" stroke-dasharray="2.98883,2.98883" stroke-miterlimit="10" stroke-linejoin="miter" fill="none" stroke="#ff0000" d="M8.60152-108.42433C60.41377-78.6159 110.16295-78.69142 160.16004-107.65898"/>
<path transform="matrix(.8652992,.5013251,.5013501,-.865256,218.96703,261.52146)" d="M1.99252 0-1.19551 1.59401 0 0-1.19551-1.59401" fill="#ff0000"/>
<path transform="matrix(1.00008,0,0,-1.00003,58.79419,153.85926)" stroke-width=".3985" stroke-linecap="butt" stroke-dasharray=".3985,1.99255" stroke-miterlimit="10" stroke-linejoin="miter" fill="none" stroke="#0000ff" d="M7.77823-119.799C55.07446-158.39392 104.81168-166.4641 160.02124-145.50897"/>
<path transform="matrix(.9349648,-.35484068,-.35485838,-.93491807,218.82823,299.3726)" d="M1.99252 0-1.19551 1.59401 0 0-1.19551-1.59401" fill="#0000ff"/>
<path transform="matrix(1.00008,0,0,-1.00003,58.79419,153.85926)" stroke-width=".3985" stroke-linecap="butt" stroke-dasharray="2.98883,2.98883" stroke-miterlimit="10" stroke-linejoin="miter" fill="none" stroke="#ff0000" d="M7.77823-135.32227C55.07446-96.72736 104.81168-88.65717 160.02124-109.6123"/>
<path transform="matrix(.9349648,.35484068,.35485838,-.93491807,218.82823,263.47486)" d="M1.99252 0-1.19551 1.59401 0 0-1.19551-1.59401" fill="#ff0000"/>
<path transform="matrix(1.00008,0,0,-1.00003,58.79419,153.85926)" stroke-width=".3985" stroke-linecap="butt" stroke-dasharray=".3985,1.99255" stroke-miterlimit="10" stroke-linejoin="miter" fill="none" stroke="#0000ff" d="M8.60152-146.69695C60.41377-176.50537 110.16295-176.42986 160.16004-147.4623"/>
<path transform="matrix(.8652992,-.5013251,-.5013501,-.865256,218.96703,301.326)" d="M1.99252 0-1.19551 1.59401 0 0-1.19551-1.59401" fill="#0000ff"/>
<path transform="matrix(1.00008,0,0,-1.00003,58.79419,153.85926)" stroke-width=".3985" stroke-linecap="butt" stroke-dasharray="2.98883,2.98883" stroke-miterlimit="10" stroke-linejoin="miter" fill="none" stroke="#ff0000" d="M8.60152-165.11795C60.41377-135.30953 110.16295-135.38504 160.16004-164.3526"/>
<path transform="matrix(.8652992,.5013251,.5013501,-.865256,218.96703,318.2168)" d="M1.99252 0-1.19551 1.59401 0 0-1.19551-1.59401" fill="#ff0000"/>
<path transform="matrix(1.00008,0,0,-1.00003,58.79419,153.85926)" stroke-width=".3985" stroke-linecap="butt" stroke-dasharray=".3985,1.99255" stroke-miterlimit="10" stroke-linejoin="miter" fill="none" stroke="#0000ff" d="M7.77823-176.49262C55.07446-215.08754 104.81168-223.15773 160.02124-202.20259"/>
<path transform="matrix(.9349648,-.35484068,-.35485838,-.93491807,218.82823,356.06794)" d="M1.99252 0-1.19551 1.59401 0 0-1.19551-1.59401" fill="#0000ff"/>
<path transform="matrix(1.00008,0,0,-1.00003,58.79419,153.85926)" stroke-width=".3985" stroke-linecap="butt" stroke-dasharray="2.98883,2.98883" stroke-miterlimit="10" stroke-linejoin="miter" fill="none" stroke="#ff0000" d="M8.60152-193.46477C60.41377-163.65633 110.16295-163.73186 160.16004-192.6994"/>
<path transform="matrix(.8652992,.5013251,.5013501,-.865256,218.96703,346.56443)" d="M1.99252 0-1.19551 1.59401 0 0-1.19551-1.59401" fill="#ff0000"/>
<path transform="matrix(1.00008,0,0,-1.00003,58.79419,153.85926)" stroke-width=".3985" stroke-linecap="butt" stroke-dasharray=".3985,1.99255" stroke-miterlimit="10" stroke-linejoin="miter" fill="none" stroke="#0000ff" d="M8.60152-201.64707C65.42905-223.20113 114.9538-215.15097 160.49063-177.97403"/>
<path transform="matrix(.774662,-.632389,-.6324206,-.7746233,219.29764,331.83863)" d="M1.99252 0-1.19551 1.59401 0 0-1.19551-1.59401" fill="#0000ff"/>
</svg>
