<svg xmlns="http://www.w3.org/2000/svg" xmlns:xlink="http://www.w3.org/1999/xlink" xmlns:inkscape="http://www.inkscape.org/namespaces/inkscape" version="1.1" width="279" height="248" viewBox="0 0 279 248">
<defs>
<path id="font_1_1" d="M.1329956 .08345032C.18699646 .14138794 .21598816 .16636658 .2519989 .19732666 .2519989 .19833374 .31399537 .25128175 .34999085 .2872467 .44499208 .3803711 .46699525 .42837525 .46699525 .43237306 .46699525 .4423828 .45799256 .4423828 .45599366 .4423828 .44898988 .4423828 .44599916 .44036866 .44099427 .43138124 .41099549 .38337709 .3899994 .3671875 .3659973 .3671875 .34199525 .3671875 .32998658 .38237 .31498719 .3993683 .29599 .42237855 .2789917 .4423828 .24598694 .4423828 .17098999 .4423828 .125 .34918214 .125 .3282013 .125 .3231964 .12799073 .31721498 .13699341 .31721498 .1459961 .31721498 .147995 .3222046 .1499939 .3282013 .16899109 .37434388 .22698975 .37538148 .23498535 .37538148 .2559967 .37538148 .2749939 .36820985 .2979889 .36018373 .33799745 .34518434 .34899903 .34518434 .375 .34518434 .33898927 .30223084 .25498963 .2303009 .23599243 .21430969L.1459961 .13040161C.07798767 .06341553 .042999269 .0062561037 .042999269-.00074768069 .042999269-.0107421879 .052993776-.0107421879 .054992677-.0107421879 .06298828-.0107421879 .06498718-.008743286 .070999149 .002243042 .09399414 .037246705 .12399292 .064453128 .1559906 .064453128 .1789856 .064453128 .18899536 .055252077 .21398926 .026245118 .23098755 .0052490236 .24899292-.0107421879 .27799989-.0107421879 .3769989-.0107421879 .43499757 .1164093 .43499757 .14338684 .43499757 .14837647 .43099977 .15338135 .4229889 .15338135 .4139862 .15338135 .4119873 .14738465 .40899659 .14039612 .38598634 .07543945 .32199098 .056243898 .2889862 .056243898 .2689972 .056243898 .25099183 .06239319 .22999573 .06944275 .19599915 .08244324 .18099976 .08644104 .1599884 .08644104 .1579895 .08644104 .14199829 .08644104 .1329956 .08345032Z"/>
<path id="font_2_1" d="M.44400025 .24998474C.44400025 .35688783 .35499574 .44381715 .25 .44381715 .14199829 .44381715 .054992677 .35488893 .054992677 .24998474 .054992677 .14407349 .14199829 .056137086 .25 .056137086 .35499574 .056137086 .44400025 .14308167 .44400025 .24998474Z"/>
</defs>
<use data-text="z" xlink:href="#font_1_1" transform="matrix(9.9626,0,0,-9.9626,12.5099949,240.822)"/>
<use data-text="&#x2022;" xlink:href="#font_2_1" transform="matrix(9.9626,0,0,-9.9626,1.2169952,184.197)"/>
<use data-text="&#x2022;" xlink:href="#font_2_1" transform="matrix(9.9626,0,0,-9.9626,69.24899,195.53601)"/>
<use data-text="&#x2022;" xlink:href="#font_2_1" transform="matrix(9.9626,0,0,-9.9626,125.943,127.504009)"/>
<use data-text="&#x2022;" xlink:href="#font_2_1" transform="matrix(9.9626,0,0,-9.9626,171.298,76.479999)"/>
<use data-text="&#x2022;" xlink:href="#font_2_1" transform="matrix(9.9626,0,0,-9.9626,216.65299,31.125)"/>
<use data-text="&#x2022;" xlink:href="#font_2_1" transform="matrix(9.9626,0,0,-9.9626,273.34599,87.81801)"/>
<use data-text="&#x2022;" xlink:href="#font_2_1" transform="matrix(9.9626,0,0,-9.9626,91.925998,246.561)"/>
<path transform="matrix(1,0,0,-1,15.045998,238.677)" stroke-width=".3985" stroke-linecap="butt" stroke-dasharray="2.98883,2.98883" stroke-miterlimit="10" stroke-linejoin="miter" fill="none" stroke="#000000" d="M6.05548 4.84373 48.29082 38.63544"/>
<path transform="matrix(.78079,-.6247,-.6247,-.78079,61.99526,201.1149)" d="M4.21463 0 .64343 1.34572 1.8178 0 .64343-1.34572Z"/>
<path transform="matrix(.78079,-.6247,-.6247,-.78079,61.99526,201.1149)" stroke-width=".3985" stroke-linecap="butt" stroke-miterlimit="10" stroke-linejoin="miter" fill="none" stroke="#000000" d="M4.21463 0 .64343 1.34572 1.8178 0 .64343-1.34572Z"/>
<path transform="matrix(1,0,0,-1,15.045998,238.677)" stroke-width=".3985" stroke-linecap="butt" stroke-miterlimit="10" stroke-linejoin="miter" fill="none" stroke="#929292" d="M-5.32802 55.69257 47.66103 46.85965"/>
<path transform="matrix(.98634,.1644,.1644,-.98634,61.0123,191.53488)" d="M4.21463 0 .64343 1.34572 1.8178 0 .64343-1.34572Z" fill="#929292"/>
<path transform="matrix(.98634,.1644,.1644,-.98634,61.0123,191.53488)" stroke-width=".3985" stroke-linecap="butt" stroke-miterlimit="10" stroke-linejoin="miter" fill="none" stroke="#929292" d="M4.21463 0 .64343 1.34572 1.8178 0 .64343-1.34572Z"/>
<path transform="matrix(1,0,0,-1,15.045998,238.677)" stroke-width=".3985" stroke-linecap="butt" stroke-miterlimit="10" stroke-linejoin="miter" fill="none" stroke="#929292" d="M76.82344 .06406 60.48499 36.82155"/>
<path transform="matrix(-.40614,-.91377,-.91377,.40614,76.22882,203.42548)" d="M4.21463 0 .64343 1.34572 1.8178 0 .64343-1.34572Z" fill="#929292"/>
<path transform="matrix(-.40614,-.91377,-.91377,.40614,76.22882,203.42548)" stroke-width=".3985" stroke-linecap="butt" stroke-miterlimit="10" stroke-linejoin="miter" fill="none" stroke="#929292" d="M4.21463 0 .64343 1.34572 1.8178 0 .64343-1.34572Z"/>
<path transform="matrix(1,0,0,-1,15.045998,238.677)" stroke-width=".3985" stroke-linecap="butt" stroke-dasharray="2.98883,2.98883" stroke-miterlimit="10" stroke-linejoin="miter" fill="none" stroke="#000000" d="M61.47177 51.08879 106.65126 105.29996"/>
<path transform="matrix(.64018,-.76814,-.76814,-.64018,120.59732,134.69686)" d="M4.21463 0 .64343 1.34572 1.8178 0 .64343-1.34572Z"/>
<path transform="matrix(.64018,-.76814,-.76814,-.64018,120.59732,134.69686)" stroke-width=".3985" stroke-linecap="butt" stroke-miterlimit="10" stroke-linejoin="miter" fill="none" stroke="#000000" d="M4.21463 0 .64343 1.34572 1.8178 0 .64343-1.34572Z"/>
<path transform="matrix(1,0,0,-1,15.045998,238.677)" stroke-width=".3985" stroke-linecap="butt" stroke-dasharray="2.98883,2.98883" stroke-miterlimit="10" stroke-linejoin="miter" fill="none" stroke="#000000" d="M118.48196 119.12099 151.6126 156.38767"/>
<path transform="matrix(.66437,-.74731,-.74731,-.66437,165.51709,83.573368)" d="M4.21463 0 .64343 1.34572 1.8178 0 .64343-1.34572Z"/>
<path transform="matrix(.66437,-.74731,-.74731,-.66437,165.51709,83.573368)" stroke-width=".3985" stroke-linecap="butt" stroke-miterlimit="10" stroke-linejoin="miter" fill="none" stroke="#000000" d="M4.21463 0 .64343 1.34572 1.8178 0 .64343-1.34572Z"/>
<path transform="matrix(1,0,0,-1,15.045998,238.677)" stroke-width=".3985" stroke-linecap="butt" stroke-dasharray="2.98883,2.98883" stroke-miterlimit="10" stroke-linejoin="miter" fill="none" stroke="#000000" d="M164.4732 170.14488 196.19936 201.86615"/>
<path transform="matrix(.70714,-.70703,-.70703,-.70714,210.03037,38.02565)" d="M4.21463 0 .64343 1.34572 1.8178 0 .64343-1.34572Z"/>
<path transform="matrix(.70714,-.70703,-.70703,-.70714,210.03037,38.02565)" stroke-width=".3985" stroke-linecap="butt" stroke-miterlimit="10" stroke-linejoin="miter" fill="none" stroke="#000000" d="M4.21463 0 .64343 1.34572 1.8178 0 .64343-1.34572Z"/>
<path transform="matrix(1,0,0,-1,15.045998,238.677)" stroke-width=".3985" stroke-linecap="butt" stroke-miterlimit="10" stroke-linejoin="miter" fill="none" stroke="#929292" d="M255.058 158.80634 211.99433 201.86606"/>
<path transform="matrix(-.70712,-.70706,-.70706,.70712,228.25528,38.025804)" d="M4.21463 0 .64343 1.34572 1.8178 0 .64343-1.34572Z" fill="#929292"/>
<path transform="matrix(-.70712,-.70706,-.70706,.70712,228.25528,38.025804)" stroke-width=".3985" stroke-linecap="butt" stroke-miterlimit="10" stroke-linejoin="miter" fill="none" stroke="#929292" d="M4.21463 0 .64343 1.34572 1.8178 0 .64343-1.34572Z"/>
<path transform="matrix(1,0,0,-1,15.045998,238.677)" stroke-width=".3985" stroke-linecap="butt" stroke-miterlimit="10" stroke-linejoin="miter" fill="none" stroke="#000000" d="M202.56156 215.49996C195.22417 242.88088 212.97052 242.88088 206.68399 219.42174"/>
<path transform="matrix(-.25882,.96591,.96591,.25882,222.17469,17.595658)" d="M4.21463 0 .64343 1.34572 1.8178 0 .64343-1.34572Z"/>
<path transform="matrix(-.25882,.96591,.96591,.25882,222.17469,17.595658)" stroke-width=".3985" stroke-linecap="butt" stroke-miterlimit="10" stroke-linejoin="miter" fill="none" stroke="#000000" d="M4.21463 0 .64343 1.34572 1.8178 0 .64343-1.34572Z"/>
</svg>
