<svg xmlns="http://www.w3.org/2000/svg" xmlns:xlink="http://www.w3.org/1999/xlink" xmlns:inkscape="http://www.inkscape.org/namespaces/inkscape" version="1.1" width="76" height="71" viewBox="0 0 76 71">
<defs>
<path id="font_1_2" d="M.5970001 .5686493 .61099246 .5826416C.6409912 .6126251 .673996 .64660647 .74198916 .6516113 .7529907 .65260317 .7619934 .65260317 .7619934 .6706085 .7619934 .6786041 .7569885 .6826172 .7489929 .6826172 .72299197 .6826172 .69400027 .6796112 .6669922 .6796112 .6339874 .6796112 .598999 .6826172 .5669861 .6826172 .5609894 .6826172 .5479889 .6826172 .5479889 .66360476 .5479889 .65260317 .55799868 .6516113 .5629883 .6516113 .56999209 .6516113 .598999 .6496124 .598999 .62861636 .598999 .6116333 .57598879 .5856476 .57199099 .5806427L.33999635 .31381227 .22999573 .6106262C.22399903 .62461856 .22399903 .62661746 .22399903 .6276245 .22399903 .6516113 .272995 .6516113 .2829895 .6516113 .29699708 .6516113 .30699159 .6516113 .30699159 .6716156 .30699159 .6826172 .29499818 .6826172 .2919922 .6826172 .2639923 .6826172 .19400025 .6796112 .1659851 .6796112 .14099121 .6796112 .07899475 .6826172 .053985597 .6826172 .04798889 .6826172 .034988405 .6826172 .034988405 .6626129 .034988405 .6516113 .04499817 .6516113 .057998659 .6516113 .117996219 .6516113 .12199402 .64260867 .1309967 .61763L.2539978 .28883363C.25498963 .28582765 .2579956 .2748413 .2579956 .27183534 .2579956 .2688446 .21798706 .107940677 .21299744 .08995056 .19999695 .034988405 .19898987 .03199768 .11898804 .0309906 .099990848 .0309906 .09199524 .0309906 .09199524 .010986328 .09199524 0 .10398865 0 .10598755 0 .13398743 0 .20399475 .0029907227 .23199463 .0029907227 .2599945 .0029907227 .33198548 0 .3600006 0 .36698915 0 .3789978 0 .3789978 .019989014 .3789978 .0309906 .36999513 .0309906 .35099793 .0309906 .34899903 .0309906 .32998658 .0309906 .31298829 .032989503 .2919922 .034988405 .28599549 .036987306 .28599549 .048980714 .28599549 .05596924 .29499818 .09095764 .2999878 .11193848L.33499146 .2528534C.33999635 .27183534 .34098817 .2748413 .34899903 .28382875L.5970001 .5686493Z"/>
<path id="font_1_1" d="M.4850006 .41075135 .40098573 .6096344C.397995 .61763 .3959961 .6216278 .3959961 .6226196 .3959961 .62861636 .41299439 .6476135 .45498658 .6516113 .46499635 .65260317 .47499085 .6536102 .47499085 .6706085 .47499085 .6826172 .46299745 .6826172 .45999146 .6826172 .4189911 .6826172 .37599183 .6796112 .33399964 .6796112 .30899049 .6796112 .24699402 .6826172 .22200012 .6826172 .21598816 .6826172 .20399475 .6826172 .20399475 .6626129 .20399475 .6516113 .21398926 .6516113 .22698975 .6516113 .2869873 .6516113 .29299928 .6416168 .3019867 .6196289L.41999818 .34080506 .20899964 .11393738 .19599915 .10295105C.14698792 .049987794 .099990848 .033996583 .04899597 .0309906 .035995485 .02999878 .026992798 .02999878 .026992798 .010986328 .026992798 .009994507 .026992798 0 .039993287 0 .069992069 0 .102996829 .0029907227 .13398743 .0029907227 .17098999 .0029907227 .20999146 0 .24598694 0 .2519989 0 .2639923 0 .2639923 .019989014 .2639923 .02999878 .2539978 .0309906 .2519989 .0309906 .24299622 .03199768 .21199036 .033996583 .21199036 .061965944 .21199036 .07795715 .22698975 .093948367 .23899842 .10694885L.34098817 .21487427 .43099977 .31282044 .5319977 .07395935C.5359955 .06297302 .5369873 .061965944 .5369873 .05996704 .5369873 .051986696 .5179901 .034988405 .47898866 .0309906 .46798707 .02999878 .45899964 .0289917 .45899964 .011993408 .45899964 0 .46998597 0 .47399903 0 .5019989 0 .57199099 .0029907227 .59999087 .0029907227 .625 .0029907227 .6859894 0 .71099856 0 .71798709 0 .7299957 0 .7299957 .018997193 .7299957 .0309906 .7200012 .0309906 .71199038 .0309906 .644989 .03199768 .6429901 .034988405 .6259918 .07496643 .58699038 .16790772 .519989 .32380677 .49699403 .3837738 .5649872 .45373536 .66999819 .5726471 .70199587 .6006317 .73098757 .62461856 .7689972 .64860537 .82899478 .6516113 .84199526 .65260317 .8509979 .65260317 .8509979 .6716156 .8509979 .6726074 .8509979 .6826172 .83799746 .6826172 .80799868 .6826172 .7749939 .6796112 .74398806 .6796112 .70700076 .6796112 .6689911 .6826172 .6329956 .6826172 .6269989 .6826172 .6139984 .6826172 .6139984 .6626129 .6139984 .65560916 .61898806 .65260317 .6259918 .6516113 .6349945 .65060427 .66600039 .64860537 .66600039 .6206207 .66600039 .6066284 .6549988 .5936432 .6469879 .5846405L.4850006 .41075135Z"/>
<path id="font_2_2" d="M.6329956 .5659027C.6329956 .65405276 .5569916 .7050934 .46899415 .7050934 .33198548 .7050934 .23098755 .5488739 .20599365 .44769288L.04899597-.18234253C.04699707-.18934632 .056991579-.19433594 .06298828-.19433594 .07199097-.19433594 .07998657-.19334412 .08198547-.18734741L.14898682 .08015442C.16999817 .034240724 .21798706-.008728027 .29899598-.008728027 .43899537-.008728027 .5970001 .09213257 .5970001 .24482727 .5970001 .30371095 .56999209 .36358644 .5189972 .3966217 .56799319 .42765809 .6329956 .48475648 .6329956 .5659027M.43499757 .39762879C.41999818 .39460755 .41299439 .39059449 .38398744 .39059449 .36799623 .39059449 .34399415 .39160157 .33699037 .39561463 .34700013 .4016571 .375 .40264894 .38398744 .40264894 .39898683 .40264894 .42099 .4016571 .43499757 .39762879M.5669861 .58392336C.5669861 .530838 .54100039 .45269776 .47898866 .41766358 .45999146 .42366029 .44099427 .43066407 .3849945 .43066407 .34999085 .43066407 .2999878 .4286499 .2999878 .39259339 .2999878 .3675995 .33099366 .36358644 .38198854 .36358644 .41600038 .36358644 .44599916 .3685913 .47698976 .377594 .5069885 .35661317 .522995 .3156891 .522995 .2717743 .522995 .12705994 .42399598 .01927185 .3019867 .01927185 .22499085 .01927185 .16999817 .06617737 .16999817 .14501953 .16999817 .15499878 .17098999 .16497803 .17298889 .17396546L.23899842 .43966676C.2630005 .5348358 .35099793 .6770935 .46699525 .6770935 .526001 .6770935 .5669861 .6450348 .5669861 .58392336Z"/>
<path id="font_2_1" d="M.5469971 .14128113C.6389923 .23632813 .6759949 .36938478 .6759949 .38038636 .6759949 .39338685 .6639862 .39338685 .6589966 .39338685 .644989 .39338685 .644989 .39038087 .6380005 .3683777 .6199951 .3023529 .58699038 .24131775 .54499819 .18730164 .5439911 .20230103 .5419922 .2693329 .5399933 .27833558 .5249939 .37738038 .44999696 .44140626 .34999085 .44140626 .20298767 .44140626 .06199646 .3043518 .06199646 .16429138 .06199646 .072250369 .1289978-.009765625 .24499512-.009765625 .33699037-.009765625 .41999818 .032226564 .47599793 .07525635 .49899293 .0022277833 .5499878-.009765625 .5799866-.009765625 .6380005-.009765625 .673996 .039230348 .673996 .0602417 .673996 .072250369 .6619873 .072250369 .6569977 .072250369 .6439972 .072250369 .6419983 .06825256 .6399994 .0622406 .6259918 .024230957 .59498599 .018234253 .58299258 .018234253 .56900027 .018234253 .5519867 .018234253 .5469971 .14128113M.46899415 .10726929C.37098695 .027236939 .28599549 .018234253 .24798584 .018234253 .18199158 .018234253 .14498902 .0622406 .14498902 .12927246 .14498902 .15829468 .15899658 .26733399 .21099854 .33636476 .25698854 .39639283 .31399537 .4133911 .34899903 .4133911 .42900086 .4133911 .45199586 .33636476 .45999146 .27433778 .46598817 .23132324 .46398927 .16029358 .46899415 .10726929Z"/>
<path id="font_2_3" d="M.07499695-.12220764C.067993167-.15031433 .06599426-.15834046 .025985718-.15834046 .0129852299-.15834046-.0010070801-.15834046-.0010070801-.17933655-.0010070801-.19033814 .0079956059-.19433594 .0129852299-.19433594 .038986207-.19433594 .07199097-.19033814 .09899902-.19033814 .1329956-.19033814 .17098999-.19433594 .20399475-.19433594 .21299744-.19433594 .22399903-.19134522 .22399903-.17234802 .22399903-.15834046 .20999146-.15834046 .19799805-.15834046 .17599488-.15834046 .14898682-.15834046 .14898682-.14630127 .14898682-.14128113 .1559906-.11517334 .1599884-.100112918 .17199707-.046920778 .18598938 .007232666 .19699097 .049240114 .20899964 .02923584 .23999024-.009765625 .2999878-.009765625 .42199708-.009765625 .5569916 .12527466 .5569916 .27433778 .5569916 .39138795 .47599793 .44140626 .40699769 .44140626 .34498597 .44140626 .2919922 .3993988 .2649994 .37138368 .24798584 .42840577 .19198609 .44140626 .1619873 .44140626 .12298584 .44140626 .09899902 .41540528 .08299255 .38838197 .06298828 .35437013 .04699707 .29434205 .04699707 .28834535 .04699707 .27534486 .06098938 .27534486 .06399536 .27534486 .07798767 .27534486 .07899475 .27833558 .085998538 .3053589 .100997928 .3633728 .11999512 .4133911 .15899658 .4133911 .18499756 .4133911 .19198609 .39138795 .19198609 .36437989 .19198609 .3533783 .18998719 .34036256 .18899536 .33436585L.07499695-.12220764M.2639923 .32136537C.32199098 .39839173 .37199403 .4133911 .4039917 .4133911 .44299317 .4133911 .47698976 .38438417 .47698976 .31636048 .47698976 .27534486 .45498658 .17329407 .4249878 .11526489 .3999939 .06625366 .35099793 .018234253 .2999878 .018234253 .22898865 .018234253 .21099854 .09526062 .21099854 .105270389 .21099854 .10926819 .21299744 .11627197 .21398926 .120269779L.2639923 .32136537Z"/>
</defs>
<use data-text="Y" xlink:href="#font_1_2" transform="matrix(9.963397,0,0,-9.963197,5.61425,13.202011)"/>
<use data-text="Y" xlink:href="#font_1_2" transform="matrix(9.963397,0,0,-9.963197,5.61425,69.899417)"/>
<use data-text="X" xlink:href="#font_1_1" transform="matrix(9.963397,0,0,-9.963197,61.793745,13.202011)"/>
<use data-text="X" xlink:href="#font_1_1" transform="matrix(9.963397,0,0,-9.963197,61.793745,69.899417)"/>
<path transform="matrix(1.00008,0,0,-1.00006,37.962839,66.49521)" stroke-width=".3985" stroke-linecap="butt" stroke-miterlimit="10" stroke-linejoin="miter" fill="none" stroke="#000000" d="M-28.3468 49.76985V9.98766"/>
<path transform="matrix(0,1.00006,1.00008,0,9.61377,54.788648)" d="M4.21463 0 .64343 1.34572 1.8178 0 .64343-1.34572Z"/>
<path transform="matrix(0,1.00006,1.00008,0,9.61377,54.788648)" stroke-width=".3985" stroke-linecap="butt" stroke-miterlimit="10" stroke-linejoin="miter" fill="none" stroke="#000000" d="M4.21463 0 .64343 1.34572 1.8178 0 .64343-1.34572Z"/>
<use data-text="&#x03b2;" xlink:href="#font_2_2" transform="matrix(6.974358,0,0,-6.9742186,1.216896,39.890615)"/>
<path transform="matrix(1.00008,0,0,-1.00006,37.962839,66.49521)" stroke-width=".3985" stroke-linecap="butt" stroke-miterlimit="10" stroke-linejoin="miter" fill="none" stroke="#000000" d="M28.3468 49.76985V9.98766"/>
<path transform="matrix(0,1.00006,1.00008,0,66.311908,54.788648)" d="M4.21463 0 .64343 1.34572 1.8178 0 .64343-1.34572Z"/>
<path transform="matrix(0,1.00006,1.00008,0,66.311908,54.788648)" stroke-width=".3985" stroke-linecap="butt" stroke-miterlimit="10" stroke-linejoin="miter" fill="none" stroke="#000000" d="M4.21463 0 .64343 1.34572 1.8178 0 .64343-1.34572Z"/>
<use data-text="&#x03b1;" xlink:href="#font_2_1" transform="matrix(6.974358,0,0,-6.9742186,69.83238,39.648599)"/>
<path transform="matrix(1.00008,0,0,-1.00006,37.962839,66.49521)" stroke-width=".3985" stroke-linecap="butt" stroke-miterlimit="10" stroke-linejoin="miter" fill="none" stroke="#000000" d="M-20.82803 56.69362H17.24524"/>
<path transform="matrix(1.00008,0,0,-1.00006,53.491128,9.798191)" d="M4.21463 0 .64343 1.34572 1.8178 0 .64343-1.34572Z"/>
<path transform="matrix(1.00008,0,0,-1.00006,53.491128,9.798191)" stroke-width=".3985" stroke-linecap="butt" stroke-miterlimit="10" stroke-linejoin="miter" fill="none" stroke="#000000" d="M4.21463 0 .64343 1.34572 1.8178 0 .64343-1.34572Z"/>
<use data-text="p" xlink:href="#font_2_3" transform="matrix(6.974358,0,0,-6.9742186,35.64965,4.922516)"/>
<path transform="matrix(1.00008,0,0,-1.00006,37.962839,66.49521)" stroke-width=".3985" stroke-linecap="butt" stroke-miterlimit="10" stroke-linejoin="miter" fill="none" stroke="#000000" d="M-20.82803 0H17.24524"/>
<path transform="matrix(1.00008,0,0,-1.00006,53.491128,66.49521)" d="M4.21463 0 .64343 1.34572 1.8178 0 .64343-1.34572Z"/>
<path transform="matrix(1.00008,0,0,-1.00006,53.491128,66.49521)" stroke-width=".3985" stroke-linecap="butt" stroke-miterlimit="10" stroke-linejoin="miter" fill="none" stroke="#000000" d="M4.21463 0 .64343 1.34572 1.8178 0 .64343-1.34572Z"/>
<use data-text="p" xlink:href="#font_2_3" transform="matrix(6.974358,0,0,-6.9742186,35.64965,61.618917)"/>
</svg>
