<svg xmlns="http://www.w3.org/2000/svg" xmlns:xlink="http://www.w3.org/1999/xlink" xmlns:inkscape="http://www.inkscape.org/namespaces/inkscape" version="1.1" width="401" height="78" viewBox="0 0 401 78">
<defs>
<path id="font_1_1" d="M.1789856 .114868167C.13899231 .047973634 .099990848 .033981325 .055999757 .0309906 .04399109 .02999878 .034988405 .02999878 .034988405 .010986328 .034988405 .004989624 .039993287 0 .04798889 0 .07499695 0 .10598755 .0029907227 .13398743 .0029907227 .16699219 .0029907227 .20199585 0 .23399353 0 .23999024 0 .25299073 0 .25299073 .018997193 .25299073 .02999878 .24398804 .0309906 .23699951 .0309906 .21398926 .032989503 .18998719 .04096985 .18998719 .06593323 .18998719 .077926639 .19599915 .088897708 .20399475 .102890018L.27999879 .23068238H.5309906C.5329895 .2097168 .5469971 .07392883 .5469971 .063949588 .5469971 .033981325 .49499513 .0309906 .47499085 .0309906 .46099855 .0309906 .45098878 .0309906 .45098878 .010986328 .45098878 0 .46299745 0 .46499635 0 .5059967 0 .548996 .0029907227 .58999636 .0029907227 .61499026 .0029907227 .6779938 0 .7029877 0 .70899966 0 .72099307 0 .72099307 .019989014 .72099307 .0309906 .71099856 .0309906 .69799807 .0309906 .6359863 .0309906 .6359863 .037979127 .6329956 .06694031L.57199099 .691803C.56999209 .71180728 .56999209 .7158203 .5529938 .7158203 .5369873 .7158203 .5329895 .7088165 .5269928 .69880679L.1789856 .114868167M.29899598 .26168824 .49598695 .5917816 .5279999 .26168824H.29899598Z"/>
<path id="font_1_2" d="M.1599884 .07795715C.1499939 .038986207 .147995 .0309906 .068984989 .0309906 .051986696 .0309906 .041992189 .0309906 .041992189 .010986328 .041992189 0 .050994874 0 .068984989 0H.42599488C.58399966 0 .70199587 .11791992 .70199587 .21585083 .70199587 .28778077 .6439972 .3457489 .5469971 .35673524 .651001 .37573243 .7559967 .44970704 .7559967 .5446625 .7559967 .6186218 .6899872 .6826172 .56999209 .6826172H.23399353C.21499634 .6826172 .20498657 .6826172 .20498657 .6626129 .20498657 .6516113 .21398926 .6516113 .23298645 .6516113 .23498535 .6516113 .2539978 .6516113 .2709961 .6496124 .2889862 .6476135 .2979889 .64660647 .2979889 .6336212 .2979889 .6296234 .29699708 .62661746 .2939911 .614624L.1599884 .07795715M.31098939 .36573792 .37298585 .6136322C.38198854 .64860537 .38398744 .6516113 .4269867 .6516113H.55599978C.6439972 .6516113 .6649933 .5926361 .6649933 .5486603 .6649933 .46069337 .57899478 .36573792 .45700074 .36573792H.31098939M.2659912 .0309906C.2519989 .0309906 .25 .0309906 .24398804 .03199768 .23399353 .032989503 .23098755 .033996583 .23098755 .04197693 .23098755 .04498291 .23098755 .04698181 .23599243 .064971927L.30499269 .34375H.49398805C.58999636 .34375 .60899356 .2698059 .60899356 .22683716 .60899356 .12791443 .519989 .0309906 .4019928 .0309906H.2659912Z"/>
<path id="font_1_3" d="M.7599945 .69506838C.7599945 .69807437 .7579956 .7050781 .7489929 .7050781 .74598696 .7050781 .7449951 .70407107 .73399356 .69306948L.6639862 .61602786C.6549988 .6300354 .60899356 .7050781 .49798585 .7050781 .2749939 .7050781 .049987794 .48391725 .049987794 .25172425 .049987794 .08659363 .16799927-.022460938 .32099916-.022460938 .4079895-.022460938 .48399354 .017532349 .5369873 .063583377 .6299896 .14564514 .6469879 .2367096 .6469879 .23971558 .6469879 .24972534 .6369934 .24972534 .6349945 .24972534 .6289978 .24972534 .6239929 .24772644 .621994 .23971558 .61299136 .21069336 .58999636 .13963318 .5209961 .081588748 .45199586 .025543213 .3889923 .008529663 .33699037 .008529663 .24699402 .008529663 .14099121 .060577394 .14099121 .21670532 .14099121 .27374269 .1619873 .43588258 .2619934 .55296328 .32299806 .62402346 .4169922 .67407229 .5059967 .67407229 .60798647 .67407229 .6669922 .5970001 .6669922 .48091126 .6669922 .44088746 .6639862 .43988038 .6639862 .4298706 .6639862 .41986085 .6749878 .41986085 .67900088 .41986085 .69200137 .41986085 .69200137 .42185975 .69699099 .43988038L.7599945 .69506838Z"/>
<path id="font_1_4" d="M.15899658 .07795715C.14898682 .038986207 .14698792 .0309906 .067993167 .0309906 .050994874 .0309906 .039993287 .0309906 .039993287 .011993408 .039993287 0 .04899597 0 .067993167 0H.39898683C.6069946 0 .80400088 .21087647 .80400088 .42974855 .80400088 .5706482 .71899417 .6826172 .56900027 .6826172H.23298645C.21398926 .6826172 .20298767 .6826172 .20298767 .66360476 .20298767 .6516113 .21199036 .6516113 .23199463 .6516113 .24499512 .6516113 .2630005 .65060427 .2749939 .6496124 .29100038 .6476135 .29699708 .64460757 .29699708 .6336212 .29699708 .6296234 .29599 .62661746 .29299928 .614624L.15899658 .07795715M.375 .6136322C.38398744 .64860537 .38598634 .6516113 .42900086 .6516113H.5359955C.6339874 .6516113 .71699526 .5986328 .71699526 .46672059 .71699526 .41775514 .69699099 .25386048 .6119995 .1439209 .58299258 .10694885 .5039978 .0309906 .3809967 .0309906H.2679901C.2539978 .0309906 .2519989 .0309906 .24598694 .03199768 .23599243 .032989503 .23298645 .033996583 .23298645 .041992189 .23298645 .04498291 .23298645 .04698181 .23799134 .064971927L.375 .6136322Z"/>
<path id="font_2_1" d="M.40699769 .39465333H.5049896C.5249939 .39465333 .5379944 .39465333 .5379944 .4166565 .5379944 .43066407 .5249939 .43066407 .5069885 .43066407H.4139862C.43699647 .5580139 .44499208 .6040497 .45298768 .63305667 .45799256 .6550598 .47999574 .6760864 .5039978 .6760864 .5049896 .6760864 .5319977 .6760864 .5509949 .6640625 .5099945 .651062 .5069885 .61505129 .5069885 .60905459 .5069885 .5870514 .5239868 .572052 .5469971 .572052 .57398989 .572052 .60398867 .59506228 .60398867 .63305667 .60398867 .6790924 .5549927 .70410159 .5039978 .70410159 .45999146 .70410159 .41099549 .6790924 .38398744 .62905886 .3639984 .5920563 .35598756 .5469818 .33499146 .43066407H.2559967C.23599243 .43066407 .22299195 .43066407 .22299195 .4086609 .22299195 .39465333 .23599243 .39465333 .2539978 .39465333H.32798768C.32699586 .38865663 .2639923 .028869629 .23999024-.078063968 .23498535-.10006714 .21798706-.17610169 .16999817-.17610169 .16899109-.17610169 .14498902-.17610169 .12599182-.1640625 .16699219-.15107727 .16999817-.11506653 .16999817-.109069827 .16999817-.08706665 .15299988-.07206726 .12998963-.07206726 .102996829-.07206726 .07299805-.095077518 .07299805-.1330719 .07299805-.17811585 .11999512-.20410156 .16999817-.20410156 .23399353-.20410156 .27799989-.13807678 .2899933-.11607361 .32598878-.049087526 .34899903 .07385254 .35099793 .08584595L.40699769 .39465333Z"/>
<path id="font_2_2" d="M.5319977 .36935426C.5359955 .3843689 .5359955 .38937379 .5359955 .39038087 .5359955 .4123993 .5179901 .4223938 .5019989 .4223938 .47898866 .4223938 .45999146 .4033966 .45599366 .3843689 .43899537 .4113922 .40499879 .44140626 .35299684 .44140626 .22799683 .44140626 .09700012 .3072815 .09700012 .1641388 .09700012 .061019899 .16699219 0 .24899292 0 .29499818 0 .33898927 .022994996 .37399293 .054016115L.35198976-.036026C.34098817-.07803345 .33399964-.105041507 .29599-.13903809 .2519989-.17610169 .20899964-.17610169 .18399048-.17610169 .13798523-.17610169 .125-.17308045 .10699463-.16903687 .13198853-.15704346 .13899231-.13304138 .13899231-.11903381 .13899231-.09503174 .11999512-.08203125 .099990848-.08203125 .07199097-.08203125 .042999269-.105041507 .042999269-.14303589 .042999269-.20310974 .1289978-.20410156 .18499756-.20410156 .34199525-.20410156 .40899659-.1240387 .4229889-.06703186L.5319977 .36935426M.3939972 .13310242C.3899994 .11808777 .3899994 .11608887 .37298585 .096069339 .33799745 .054016115 .2899933 .027999878 .2519989 .027999878 .20098877 .027999878 .1769867 .07104492 .1769867 .12309265 .1769867 .16714478 .20399475 .2792511 .22999573 .32330323 .27198792 .39338685 .31900025 .4133911 .35299684 .4133911 .4229889 .4133911 .44198609 .33831788 .44198609 .3283081 .44198609 .3263092 .44198609 .3243103 .43899537 .31329347L.3939972 .13310242Z"/>
<path id="font_2_3" d="M.31298829 .66430667C.31399537 .66630557 .31698609 .67930606 .31698609 .68029788 .31698609 .68530276 .31298829 .6943054 .30099488 .6943054 .2809906 .6943054 .19799805 .6863098 .17298889 .6843109 .16499329 .68330386 .15098572 .682312 .15098572 .66130068 .15098572 .64730837 .16499329 .64730837 .1769867 .64730837 .22499085 .64730837 .22499085 .64030459 .22499085 .63230898 .22499085 .62532046 .22299195 .61932376 .22099304 .61032107L.07998657 .04423523C.07499695 .026229859 .07499695 .024230957 .07499695 .022232056 .07499695 .007232666 .08699036-.009765625 .10899353-.009765625 .11999512-.009765625 .13899231-.004776001 .1499939 .016220093 .15299988 .022232056 .1619873 .058242799 .16699219 .07925415L.18998719 .16828919C.19299317 .18330384 .20298767 .22131348 .20599365 .23632813 .21598816 .27433778 .21598816 .27534486 .23599243 .3073578 .2679901 .35636903 .31799317 .4133911 .3959961 .4133911 .45199586 .4133911 .45498658 .36738587 .45498658 .34336854 .45498658 .28334046 .4119873 .17228699 .3959961 .13027954 .3849945 .102264408 .3809967 .09326172 .3809967 .07624817 .3809967 .023223877 .4249878-.009765625 .47599793-.009765625 .57598879-.009765625 .6199951 .12828064 .6199951 .14328003 .6199951 .15628052 .6069946 .15628052 .60398867 .15628052 .58999636 .15628052 .58898928 .15028382 .58499148 .13928223 .56199648 .059249879 .5179901 .018234253 .47898866 .018234253 .45799256 .018234253 .45399476 .032226564 .45399476 .053237916 .45399476 .07624817 .45899964 .089263919 .47698976 .13427735 .4889984 .1652832 .5299988 .2713318 .5299988 .32736207 .5299988 .34336854 .5299988 .38539125 .49299623 .4143982 .47599793 .42739869 .44699098 .44140626 .3999939 .44140626 .32699586 .44140626 .27398683 .4013977 .23699951 .35836793L.31298829 .66430667Z"/>
</defs>
<path transform="matrix(1.00005,0,0,-1.00003,30.443573,104.53975)" stroke-width=".3985" stroke-linecap="butt" stroke-miterlimit="10" stroke-linejoin="miter" fill="none" stroke="#000000" d="M28.3468 56.69362C28.3468 72.34932 15.6557 85.04042 0 85.04042-15.6557 85.04042-28.3468 72.34932-28.3468 56.69362-28.3468 41.0379-15.6557 28.3468 0 28.3468 15.6557 28.3468 28.3468 41.0379 28.3468 56.69362ZM0 56.69362"/>
<use data-text="A" xlink:href="#font_1_1" transform="matrix(9.963098,0,0,-9.962899,26.70739,8.726875)"/>
<path transform="matrix(1.00005,0,0,-1.00003,30.443573,104.53975)" d="M1.49435 76.53629C1.49435 77.3616 .8253 78.03064 0 78.03064-.8253 78.03064-1.49435 77.3616-1.49435 76.53629-1.49435 75.71097-.8253 75.04193 0 75.04193 .8253 75.04193 1.49435 75.71097 1.49435 76.53629ZM0 76.53629"/>
<path transform="matrix(1.00005,0,0,-1.00003,30.443573,104.53975)" stroke-width=".3985" stroke-linecap="butt" stroke-miterlimit="10" stroke-linejoin="miter" fill="none" stroke="#000000" d="M1.49435 76.53629C1.49435 77.3616 .8253 78.03064 0 78.03064-.8253 78.03064-1.49435 77.3616-1.49435 76.53629-1.49435 75.71097-.8253 75.04193 0 75.04193 .8253 75.04193 1.49435 75.71097 1.49435 76.53629ZM0 76.53629"/>
<path transform="matrix(1.00005,0,0,-1.00003,30.443573,104.53975)" d="M1.49435 56.69362C1.49435 57.51892 .8253 58.18797 0 58.18797-.8253 58.18797-1.49435 57.51892-1.49435 56.69362-1.49435 55.8683-.8253 55.19926 0 55.19926 .8253 55.19926 1.49435 55.8683 1.49435 56.69362ZM0 56.69362"/>
<path transform="matrix(1.00005,0,0,-1.00003,30.443573,104.53975)" stroke-width=".3985" stroke-linecap="butt" stroke-miterlimit="10" stroke-linejoin="miter" fill="none" stroke="#000000" d="M1.49435 56.69362C1.49435 57.51892 .8253 58.18797 0 58.18797-.8253 58.18797-1.49435 57.51892-1.49435 56.69362-1.49435 55.8683-.8253 55.19926 0 55.19926 .8253 55.19926 1.49435 55.8683 1.49435 56.69362ZM0 56.69362"/>
<path transform="matrix(1.00005,0,0,-1.00003,30.443573,104.53975)" d="M1.49435 36.85092C1.49435 37.67624 .8253 38.34528 0 38.34528-.8253 38.34528-1.49435 37.67624-1.49435 36.85092-1.49435 36.0256-.8253 35.35657 0 35.35657 .8253 35.35657 1.49435 36.0256 1.49435 36.85092ZM0 36.85092"/>
<path transform="matrix(1.00005,0,0,-1.00003,30.443573,104.53975)" stroke-width=".3985" stroke-linecap="butt" stroke-miterlimit="10" stroke-linejoin="miter" fill="none" stroke="#000000" d="M1.49435 36.85092C1.49435 37.67624 .8253 38.34528 0 38.34528-.8253 38.34528-1.49435 37.67624-1.49435 36.85092-1.49435 36.0256-.8253 35.35657 0 35.35657 .8253 35.35657 1.49435 36.0256 1.49435 36.85092ZM0 36.85092"/>
<use data-text="B" xlink:href="#font_1_2" transform="matrix(9.963098,0,0,-9.962899,139.80805,8.726875)"/>
<path transform="matrix(1.00005,0,0,-1.00003,30.443573,104.53975)" stroke-width=".3985" stroke-linecap="butt" stroke-miterlimit="10" stroke-linejoin="miter" fill="none" stroke="#000000" d="M141.73404 56.69362C141.73404 72.34932 129.04294 85.04042 113.38724 85.04042 97.73152 85.04042 85.04042 72.34932 85.04042 56.69362 85.04042 41.0379 97.73152 28.3468 113.38724 28.3468 129.04294 28.3468 141.73404 41.0379 141.73404 56.69362ZM113.38724 56.69362"/>
<path transform="matrix(1.00005,0,0,-1.00003,30.443573,104.53975)" d="M114.88159 76.53629C114.88159 77.3616 114.21254 78.03064 113.38724 78.03064 112.56192 78.03064 111.89288 77.3616 111.89288 76.53629 111.89288 75.71097 112.56192 75.04193 113.38724 75.04193 114.21254 75.04193 114.88159 75.71097 114.88159 76.53629ZM113.38724 76.53629"/>
<path transform="matrix(1.00005,0,0,-1.00003,30.443573,104.53975)" stroke-width=".3985" stroke-linecap="butt" stroke-miterlimit="10" stroke-linejoin="miter" fill="none" stroke="#000000" d="M114.88159 76.53629C114.88159 77.3616 114.21254 78.03064 113.38724 78.03064 112.56192 78.03064 111.89288 77.3616 111.89288 76.53629 111.89288 75.71097 112.56192 75.04193 113.38724 75.04193 114.21254 75.04193 114.88159 75.71097 114.88159 76.53629ZM113.38724 76.53629"/>
<path transform="matrix(1.00005,0,0,-1.00003,30.443573,104.53975)" d="M97.87332 56.69362C97.87332 57.51892 97.20428 58.18797 96.37897 58.18797 95.55365 58.18797 94.88461 57.51892 94.88461 56.69362 94.88461 55.8683 95.55365 55.19926 96.37897 55.19926 97.20428 55.19926 97.87332 55.8683 97.87332 56.69362ZM96.37897 56.69362"/>
<path transform="matrix(1.00005,0,0,-1.00003,30.443573,104.53975)" stroke-width=".3985" stroke-linecap="butt" stroke-miterlimit="10" stroke-linejoin="miter" fill="none" stroke="#000000" d="M97.87332 56.69362C97.87332 57.51892 97.20428 58.18797 96.37897 58.18797 95.55365 58.18797 94.88461 57.51892 94.88461 56.69362 94.88461 55.8683 95.55365 55.19926 96.37897 55.19926 97.20428 55.19926 97.87332 55.8683 97.87332 56.69362ZM96.37897 56.69362"/>
<path transform="matrix(1.00005,0,0,-1.00003,30.443573,104.53975)" d="M129.05498 51.02432C129.05498 51.84964 128.38594 52.51868 127.56062 52.51868 126.73532 52.51868 126.06627 51.84964 126.06627 51.02432 126.06627 50.199 126.73532 49.52997 127.56062 49.52997 128.38594 49.52997 129.05498 50.199 129.05498 51.02432ZM127.56062 51.02432"/>
<path transform="matrix(1.00005,0,0,-1.00003,30.443573,104.53975)" stroke-width=".3985" stroke-linecap="butt" stroke-miterlimit="10" stroke-linejoin="miter" fill="none" stroke="#000000" d="M129.05498 51.02432C129.05498 51.84964 128.38594 52.51868 127.56062 52.51868 126.73532 52.51868 126.06627 51.84964 126.06627 51.02432 126.06627 50.199 126.73532 49.52997 127.56062 49.52997 128.38594 49.52997 129.05498 50.199 129.05498 51.02432ZM127.56062 51.02432"/>
<path transform="matrix(1.00005,0,0,-1.00003,30.443573,104.53975)" d="M114.88159 36.85092C114.88159 37.67624 114.21254 38.34528 113.38724 38.34528 112.56192 38.34528 111.89288 37.67624 111.89288 36.85092 111.89288 36.0256 112.56192 35.35657 113.38724 35.35657 114.21254 35.35657 114.88159 36.0256 114.88159 36.85092ZM113.38724 36.85092"/>
<path transform="matrix(1.00005,0,0,-1.00003,30.443573,104.53975)" stroke-width=".3985" stroke-linecap="butt" stroke-miterlimit="10" stroke-linejoin="miter" fill="none" stroke="#000000" d="M114.88159 36.85092C114.88159 37.67624 114.21254 38.34528 113.38724 38.34528 112.56192 38.34528 111.89288 37.67624 111.89288 36.85092 111.89288 36.0256 112.56192 35.35657 113.38724 35.35657 114.21254 35.35657 114.88159 36.0256 114.88159 36.85092ZM113.38724 36.85092"/>
<use data-text="C" xlink:href="#font_1_3" transform="matrix(9.963098,0,0,-9.962899,253.31272,8.726875)"/>
<path transform="matrix(1.00005,0,0,-1.00003,30.443573,104.53975)" stroke-width=".3985" stroke-linecap="butt" stroke-miterlimit="10" stroke-linejoin="miter" fill="none" stroke="#000000" d="M255.12128 56.69362C255.12128 72.34932 242.43018 85.04042 226.77448 85.04042 211.11876 85.04042 198.42766 72.34932 198.42766 56.69362 198.42766 41.0379 211.11876 28.3468 226.77448 28.3468 242.43018 28.3468 255.12128 41.0379 255.12128 56.69362ZM226.77448 56.69362"/>
<path transform="matrix(1.00005,0,0,-1.00003,30.443573,104.53975)" d="M228.26883 76.53629C228.26883 77.3616 227.5998 78.03064 226.77448 78.03064 225.94916 78.03064 225.28012 77.3616 225.28012 76.53629 225.28012 75.71097 225.94916 75.04193 226.77448 75.04193 227.5998 75.04193 228.26883 75.71097 228.26883 76.53629ZM226.77448 76.53629"/>
<path transform="matrix(1.00005,0,0,-1.00003,30.443573,104.53975)" stroke-width=".3985" stroke-linecap="butt" stroke-miterlimit="10" stroke-linejoin="miter" fill="none" stroke="#000000" d="M228.26883 76.53629C228.26883 77.3616 227.5998 78.03064 226.77448 78.03064 225.94916 78.03064 225.28012 77.3616 225.28012 76.53629 225.28012 75.71097 225.94916 75.04193 226.77448 75.04193 227.5998 75.04193 228.26883 75.71097 228.26883 76.53629ZM226.77448 76.53629"/>
<path transform="matrix(1.00005,0,0,-1.00003,30.443573,104.53975)" d="M208.42613 62.36288C208.42613 63.1882 207.7571 63.85724 206.93178 63.85724 206.10648 63.85724 205.43743 63.1882 205.43743 62.36288 205.43743 61.53757 206.10648 60.86853 206.93178 60.86853 207.7571 60.86853 208.42613 61.53757 208.42613 62.36288ZM206.93178 62.36288"/>
<path transform="matrix(1.00005,0,0,-1.00003,30.443573,104.53975)" stroke-width=".3985" stroke-linecap="butt" stroke-miterlimit="10" stroke-linejoin="miter" fill="none" stroke="#000000" d="M208.42613 62.36288C208.42613 63.1882 207.7571 63.85724 206.93178 63.85724 206.10648 63.85724 205.43743 63.1882 205.43743 62.36288 205.43743 61.53757 206.10648 60.86853 206.93178 60.86853 207.7571 60.86853 208.42613 61.53757 208.42613 62.36288ZM206.93178 62.36288"/>
<path transform="matrix(1.00005,0,0,-1.00003,30.443573,104.53975)" d="M236.77295 56.69362C236.77295 57.51892 236.10391 58.18797 235.2786 58.18797 234.45328 58.18797 233.78424 57.51892 233.78424 56.69362 233.78424 55.8683 234.45328 55.19926 235.2786 55.19926 236.10391 55.19926 236.77295 55.8683 236.77295 56.69362ZM235.2786 56.69362"/>
<path transform="matrix(1.00005,0,0,-1.00003,30.443573,104.53975)" stroke-width=".3985" stroke-linecap="butt" stroke-miterlimit="10" stroke-linejoin="miter" fill="none" stroke="#000000" d="M236.77295 56.69362C236.77295 57.51892 236.10391 58.18797 235.2786 58.18797 234.45328 58.18797 233.78424 57.51892 233.78424 56.69362 233.78424 55.8683 234.45328 55.19926 235.2786 55.19926 236.10391 55.19926 236.77295 55.8683 236.77295 56.69362ZM235.2786 56.69362"/>
<path transform="matrix(1.00005,0,0,-1.00003,30.443573,104.53975)" d="M216.93027 42.5202C216.93027 43.34552 216.26123 44.01456 215.43592 44.01456 214.6106 44.01456 213.94156 43.34552 213.94156 42.5202 213.94156 41.69489 214.6106 41.02585 215.43592 41.02585 216.26123 41.02585 216.93027 41.69489 216.93027 42.5202ZM215.43592 42.5202"/>
<path transform="matrix(1.00005,0,0,-1.00003,30.443573,104.53975)" stroke-width=".3985" stroke-linecap="butt" stroke-miterlimit="10" stroke-linejoin="miter" fill="none" stroke="#000000" d="M216.93027 42.5202C216.93027 43.34552 216.26123 44.01456 215.43592 44.01456 214.6106 44.01456 213.94156 43.34552 213.94156 42.5202 213.94156 41.69489 214.6106 41.02585 215.43592 41.02585 216.26123 41.02585 216.93027 41.69489 216.93027 42.5202ZM215.43592 42.5202"/>
<path transform="matrix(1.00005,0,0,-1.00003,30.443573,104.53975)" d="M233.9381 36.85092C233.9381 37.67624 233.26906 38.34528 232.44374 38.34528 231.61843 38.34528 230.94939 37.67624 230.94939 36.85092 230.94939 36.0256 231.61843 35.35657 232.44374 35.35657 233.26906 35.35657 233.9381 36.0256 233.9381 36.85092ZM232.44374 36.85092"/>
<path transform="matrix(1.00005,0,0,-1.00003,30.443573,104.53975)" stroke-width=".3985" stroke-linecap="butt" stroke-miterlimit="10" stroke-linejoin="miter" fill="none" stroke="#000000" d="M233.9381 36.85092C233.9381 37.67624 233.26906 38.34528 232.44374 38.34528 231.61843 38.34528 230.94939 37.67624 230.94939 36.85092 230.94939 36.0256 231.61843 35.35657 232.44374 35.35657 233.26906 35.35657 233.9381 36.0256 233.9381 36.85092ZM232.44374 36.85092"/>
<path transform="matrix(1.00005,0,0,-1.00003,30.443573,104.53975)" stroke-width=".3985" stroke-linecap="butt" stroke-miterlimit="10" stroke-linejoin="miter" fill="none" stroke="#000000" d="M368.5085 56.69362C368.5085 72.34932 355.81745 85.04042 340.1617 85.04042 324.506 85.04042 311.8149 72.34932 311.8149 56.69362 311.8149 41.0379 324.506 28.3468 340.1617 28.3468 355.81745 28.3468 368.5085 41.0379 368.5085 56.69362ZM340.1617 56.69362"/>
<use data-text="D" xlink:href="#font_1_4" transform="matrix(9.963098,0,0,-9.962899,366.35935,8.726875)"/>
<path transform="matrix(1.00005,0,0,-1.00003,30.443573,104.53975)" d="M333.15193 76.53629C333.15193 77.3616 332.4829 78.03064 331.6576 78.03064 330.83226 78.03064 330.1632 77.3616 330.1632 76.53629 330.1632 75.71097 330.83226 75.04193 331.6576 75.04193 332.4829 75.04193 333.15193 75.71097 333.15193 76.53629ZM331.6576 76.53629"/>
<path transform="matrix(1.00005,0,0,-1.00003,30.443573,104.53975)" stroke-width=".3985" stroke-linecap="butt" stroke-miterlimit="10" stroke-linejoin="miter" fill="none" stroke="#000000" d="M333.15193 76.53629C333.15193 77.3616 332.4829 78.03064 331.6576 78.03064 330.83226 78.03064 330.1632 77.3616 330.1632 76.53629 330.1632 75.71097 330.83226 75.04193 331.6576 75.04193 332.4829 75.04193 333.15193 75.71097 333.15193 76.53629ZM331.6576 76.53629"/>
<path transform="matrix(1.00005,0,0,-1.00003,30.443573,104.53975)" d="M350.1602 76.53629C350.1602 77.3616 349.49116 78.03064 348.66584 78.03064 347.8405 78.03064 347.17149 77.3616 347.17149 76.53629 347.17149 75.71097 347.8405 75.04193 348.66584 75.04193 349.49116 75.04193 350.1602 75.71097 350.1602 76.53629ZM348.66584 76.53629"/>
<path transform="matrix(1.00005,0,0,-1.00003,30.443573,104.53975)" stroke-width=".3985" stroke-linecap="butt" stroke-miterlimit="10" stroke-linejoin="miter" fill="none" stroke="#000000" d="M350.1602 76.53629C350.1602 77.3616 349.49116 78.03064 348.66584 78.03064 347.8405 78.03064 347.17149 77.3616 347.17149 76.53629 347.17149 75.71097 347.8405 75.04193 348.66584 75.04193 349.49116 75.04193 350.1602 75.71097 350.1602 76.53629ZM348.66584 76.53629"/>
<path transform="matrix(1.00005,0,0,-1.00003,30.443573,104.53975)" d="M333.15193 56.69362C333.15193 57.51892 332.4829 58.18797 331.6576 58.18797 330.83226 58.18797 330.1632 57.51892 330.1632 56.69362 330.1632 55.8683 330.83226 55.19926 331.6576 55.19926 332.4829 55.19926 333.15193 55.8683 333.15193 56.69362ZM331.6576 56.69362"/>
<path transform="matrix(1.00005,0,0,-1.00003,30.443573,104.53975)" stroke-width=".3985" stroke-linecap="butt" stroke-miterlimit="10" stroke-linejoin="miter" fill="none" stroke="#000000" d="M333.15193 56.69362C333.15193 57.51892 332.4829 58.18797 331.6576 58.18797 330.83226 58.18797 330.1632 57.51892 330.1632 56.69362 330.1632 55.8683 330.83226 55.19926 331.6576 55.19926 332.4829 55.19926 333.15193 55.8683 333.15193 56.69362ZM331.6576 56.69362"/>
<path transform="matrix(1.00005,0,0,-1.00003,30.443573,104.53975)" d="M350.1602 56.69362C350.1602 57.51892 349.49116 58.18797 348.66584 58.18797 347.8405 58.18797 347.17149 57.51892 347.17149 56.69362 347.17149 55.8683 347.8405 55.19926 348.66584 55.19926 349.49116 55.19926 350.1602 55.8683 350.1602 56.69362ZM348.66584 56.69362"/>
<path transform="matrix(1.00005,0,0,-1.00003,30.443573,104.53975)" stroke-width=".3985" stroke-linecap="butt" stroke-miterlimit="10" stroke-linejoin="miter" fill="none" stroke="#000000" d="M350.1602 56.69362C350.1602 57.51892 349.49116 58.18797 348.66584 58.18797 347.8405 58.18797 347.17149 57.51892 347.17149 56.69362 347.17149 55.8683 347.8405 55.19926 348.66584 55.19926 349.49116 55.19926 350.1602 55.8683 350.1602 56.69362ZM348.66584 56.69362"/>
<path transform="matrix(1.00005,0,0,-1.00003,30.443573,104.53975)" d="M333.15193 36.85092C333.15193 37.67624 332.4829 38.34528 331.6576 38.34528 330.83226 38.34528 330.1632 37.67624 330.1632 36.85092 330.1632 36.0256 330.83226 35.35657 331.6576 35.35657 332.4829 35.35657 333.15193 36.0256 333.15193 36.85092ZM331.6576 36.85092"/>
<path transform="matrix(1.00005,0,0,-1.00003,30.443573,104.53975)" stroke-width=".3985" stroke-linecap="butt" stroke-miterlimit="10" stroke-linejoin="miter" fill="none" stroke="#000000" d="M333.15193 36.85092C333.15193 37.67624 332.4829 38.34528 331.6576 38.34528 330.83226 38.34528 330.1632 37.67624 330.1632 36.85092 330.1632 36.0256 330.83226 35.35657 331.6576 35.35657 332.4829 35.35657 333.15193 36.0256 333.15193 36.85092ZM331.6576 36.85092"/>
<path transform="matrix(1.00005,0,0,-1.00003,30.443573,104.53975)" d="M350.1602 36.85092C350.1602 37.67624 349.49116 38.34528 348.66584 38.34528 347.8405 38.34528 347.17149 37.67624 347.17149 36.85092 347.17149 36.0256 347.8405 35.35657 348.66584 35.35657 349.49116 35.35657 350.1602 36.0256 350.1602 36.85092ZM348.66584 36.85092"/>
<path transform="matrix(1.00005,0,0,-1.00003,30.443573,104.53975)" stroke-width=".3985" stroke-linecap="butt" stroke-miterlimit="10" stroke-linejoin="miter" fill="none" stroke="#000000" d="M350.1602 36.85092C350.1602 37.67624 349.49116 38.34528 348.66584 38.34528 347.8405 38.34528 347.17149 37.67624 347.17149 36.85092 347.17149 36.0256 347.8405 35.35657 348.66584 35.35657 349.49116 35.35657 350.1602 36.0256 350.1602 36.85092ZM348.66584 36.85092"/>
<path transform="matrix(1.00005,0,0,-1.00003,30.443573,104.53975)" stroke-width=".3985" stroke-linecap="butt" stroke-miterlimit="10" stroke-linejoin="miter" fill="none" stroke="#000000" d="M0 76.53629H110.32332"/>
<path transform="matrix(1.00005,0,0,-1.00003,139.05414,28.00116)" d="M4.21463 0 .64343 1.34572 1.8178 0 .64343-1.34572Z"/>
<path transform="matrix(1.00005,0,0,-1.00003,139.05414,28.00116)" stroke-width=".3985" stroke-linecap="butt" stroke-miterlimit="10" stroke-linejoin="miter" fill="none" stroke="#000000" d="M4.21463 0 .64343 1.34572 1.8178 0 .64343-1.34572Z"/>
<use data-text="f" xlink:href="#font_2_1" transform="matrix(6.9741489,0,0,-6.9740097,84.80629,23.125298)"/>
<path transform="matrix(1.00005,0,0,-1.00003,30.443573,104.53975)" stroke-width=".3985" stroke-linecap="butt" stroke-miterlimit="10" stroke-linejoin="miter" fill="none" stroke="#000000" d="M0 56.69362H93.31506"/>
<path transform="matrix(1.00005,0,0,-1.00003,122.04501,47.84443)" d="M4.21463 0 .64343 1.34572 1.8178 0 .64343-1.34572Z"/>
<path transform="matrix(1.00005,0,0,-1.00003,122.04501,47.84443)" stroke-width=".3985" stroke-linecap="butt" stroke-miterlimit="10" stroke-linejoin="miter" fill="none" stroke="#000000" d="M4.21463 0 .64343 1.34572 1.8178 0 .64343-1.34572Z"/>
<path transform="matrix(1.00005,0,0,-1.00003,30.443573,104.53975)" stroke-width=".3985" stroke-linecap="butt" stroke-miterlimit="10" stroke-linejoin="miter" fill="none" stroke="#000000" d="M0 36.85092 124.51556 50.68604"/>
<path transform="matrix(.99389967,-.11041331,-.11041551,-.99387988,153.25765,54.041913)" d="M4.21463 0 .64343 1.34572 1.8178 0 .64343-1.34572Z"/>
<path transform="matrix(.99389967,-.11041331,-.11041551,-.99387988,153.25765,54.041913)" stroke-width=".3985" stroke-linecap="butt" stroke-miterlimit="10" stroke-linejoin="miter" fill="none" stroke="#000000" d="M4.21463 0 .64343 1.34572 1.8178 0 .64343-1.34572Z"/>
<path transform="matrix(1.00005,0,0,-1.00003,30.443573,104.53975)" stroke-width=".3985" stroke-linecap="butt" stroke-miterlimit="10" stroke-linejoin="miter" fill="none" stroke="#000000" d="M113.38724 76.53629 203.90267 62.82184"/>
<path transform="matrix(.9886994,.1498045,.14980749,-.9886797,232.65766,41.458635)" d="M4.21463 0 .64343 1.34572 1.8178 0 .64343-1.34572Z"/>
<path transform="matrix(.9886994,.1498045,.14980749,-.9886797,232.65766,41.458635)" stroke-width=".3985" stroke-linecap="butt" stroke-miterlimit="10" stroke-linejoin="miter" fill="none" stroke="#000000" d="M4.21463 0 .64343 1.34572 1.8178 0 .64343-1.34572Z"/>
<use data-text="g" xlink:href="#font_2_2" transform="matrix(6.9741489,0,0,-6.9740097,188.54248,30.212517)"/>
<path transform="matrix(1.00005,0,0,-1.00003,30.443573,104.53975)" stroke-width=".3985" stroke-linecap="butt" stroke-miterlimit="10" stroke-linejoin="miter" fill="none" stroke="#000000" d="M96.37897 56.69362 203.872 62.20605"/>
<path transform="matrix(.9987099,-.051201539,-.051202556,-.99869,232.60979,42.419794)" d="M4.21463 0 .64343 1.34572 1.8178 0 .64343-1.34572Z"/>
<path transform="matrix(.9987099,-.051201539,-.051202556,-.99869,232.60979,42.419794)" stroke-width=".3985" stroke-linecap="butt" stroke-miterlimit="10" stroke-linejoin="miter" fill="none" stroke="#000000" d="M4.21463 0 .64343 1.34572 1.8178 0 .64343-1.34572Z"/>
<path transform="matrix(1.00005,0,0,-1.00003,30.443573,104.53975)" stroke-width=".3985" stroke-linecap="butt" stroke-miterlimit="10" stroke-linejoin="miter" fill="none" stroke="#000000" d="M127.56062 51.02432 212.38646 42.81525"/>
<path transform="matrix(.9953397,.09630289,.09630481,-.9953199,241.13047,61.55776)" d="M4.21463 0 .64343 1.34572 1.8178 0 .64343-1.34572Z"/>
<path transform="matrix(.9953397,.09630289,.09630481,-.9953199,241.13047,61.55776)" stroke-width=".3985" stroke-linecap="butt" stroke-miterlimit="10" stroke-linejoin="miter" fill="none" stroke="#000000" d="M4.21463 0 .64343 1.34572 1.8178 0 .64343-1.34572Z"/>
<path transform="matrix(1.00005,0,0,-1.00003,30.443573,104.53975)" stroke-width=".3985" stroke-linecap="butt" stroke-miterlimit="10" stroke-linejoin="miter" fill="none" stroke="#000000" d="M113.38724 36.85092H229.37984"/>
<path transform="matrix(1.00005,0,0,-1.00003,258.11659,67.68772)" d="M4.21463 0 .64343 1.34572 1.8178 0 .64343-1.34572Z"/>
<path transform="matrix(1.00005,0,0,-1.00003,258.11659,67.68772)" stroke-width=".3985" stroke-linecap="butt" stroke-miterlimit="10" stroke-linejoin="miter" fill="none" stroke="#000000" d="M4.21463 0 .64343 1.34572 1.8178 0 .64343-1.34572Z"/>
<path transform="matrix(1.00005,0,0,-1.00003,30.443573,104.53975)" stroke-width=".3985" stroke-linecap="butt" stroke-miterlimit="10" stroke-linejoin="miter" fill="none" stroke="#000000" d="M226.77448 76.53629H328.59367"/>
<path transform="matrix(1.00005,0,0,-1.00003,357.33537,28.00116)" d="M4.21463 0 .64343 1.34572 1.8178 0 .64343-1.34572Z"/>
<path transform="matrix(1.00005,0,0,-1.00003,357.33537,28.00116)" stroke-width=".3985" stroke-linecap="butt" stroke-miterlimit="10" stroke-linejoin="miter" fill="none" stroke="#000000" d="M4.21463 0 .64343 1.34572 1.8178 0 .64343-1.34572Z"/>
<use data-text="h" xlink:href="#font_2_3" transform="matrix(6.9741489,0,0,-6.9740097,307.3414,24.481347)"/>
<path transform="matrix(1.00005,0,0,-1.00003,30.443573,104.53975)" stroke-width=".3985" stroke-linecap="butt" stroke-miterlimit="10" stroke-linejoin="miter" fill="none" stroke="#000000" d="M206.93178 62.36288 328.6134 76.19043"/>
<path transform="matrix(.99360969,-.11288339,-.11288564,-.9935899,357.36619,28.541008)" d="M4.21463 0 .64343 1.34572 1.8178 0 .64343-1.34572Z"/>
<path transform="matrix(.99360969,-.11288339,-.11288564,-.9935899,357.36619,28.541008)" stroke-width=".3985" stroke-linecap="butt" stroke-miterlimit="10" stroke-linejoin="miter" fill="none" stroke="#000000" d="M4.21463 0 .64343 1.34572 1.8178 0 .64343-1.34572Z"/>
<path transform="matrix(1.00005,0,0,-1.00003,30.443573,104.53975)" stroke-width=".3985" stroke-linecap="butt" stroke-miterlimit="10" stroke-linejoin="miter" fill="none" stroke="#000000" d="M235.2786 56.69362H328.59367"/>
<path transform="matrix(1.00005,0,0,-1.00003,357.33537,47.84443)" d="M4.21463 0 .64343 1.34572 1.8178 0 .64343-1.34572Z"/>
<path transform="matrix(1.00005,0,0,-1.00003,357.33537,47.84443)" stroke-width=".3985" stroke-linecap="butt" stroke-miterlimit="10" stroke-linejoin="miter" fill="none" stroke="#000000" d="M4.21463 0 .64343 1.34572 1.8178 0 .64343-1.34572Z"/>
<path transform="matrix(1.00005,0,0,-1.00003,30.443573,104.53975)" stroke-width=".3985" stroke-linecap="butt" stroke-miterlimit="10" stroke-linejoin="miter" fill="none" stroke="#000000" d="M215.43592 42.5202 328.6162 56.32278"/>
<path transform="matrix(.99269959,-.12103364,-.121036048,-.9926798,357.37055,48.423246)" d="M4.21463 0 .64343 1.34572 1.8178 0 .64343-1.34572Z"/>
<path transform="matrix(.99269959,-.12103364,-.121036048,-.9926798,357.37055,48.423246)" stroke-width=".3985" stroke-linecap="butt" stroke-miterlimit="10" stroke-linejoin="miter" fill="none" stroke="#000000" d="M4.21463 0 .64343 1.34572 1.8178 0 .64343-1.34572Z"/>
<path transform="matrix(1.00005,0,0,-1.00003,30.443573,104.53975)" stroke-width=".3985" stroke-linecap="butt" stroke-miterlimit="10" stroke-linejoin="miter" fill="none" stroke="#000000" d="M232.44374 36.85092H328.59367"/>
<path transform="matrix(1.00005,0,0,-1.00003,357.33537,67.68772)" d="M4.21463 0 .64343 1.34572 1.8178 0 .64343-1.34572Z"/>
<path transform="matrix(1.00005,0,0,-1.00003,357.33537,67.68772)" stroke-width=".3985" stroke-linecap="butt" stroke-miterlimit="10" stroke-linejoin="miter" fill="none" stroke="#000000" d="M4.21463 0 .64343 1.34572 1.8178 0 .64343-1.34572Z"/>
</svg>
