<svg xmlns="http://www.w3.org/2000/svg" xmlns:xlink="http://www.w3.org/1999/xlink" xmlns:inkscape="http://www.inkscape.org/namespaces/inkscape" version="1.1" width="365" height="429" viewBox="0 0 365 429">
<defs>
<path id="font_1_1" d="M.33399964 .30233766C.33999635 .32835389 .36299134 .42037965 .43299867 .42037965 .43798829 .42037965 .46199037 .42037965 .48298646 .40734864 .45498658 .402359 .43499757 .37734986 .43499757 .35334779 .43499757 .33735658 .44599916 .31835938 .47299195 .31835938 .49499513 .31835938 .5269928 .3363495 .5269928 .37635804 .5269928 .42837525 .46798707 .4423828 .43399049 .4423828 .37599183 .4423828 .34098817 .38935853 .32899476 .36634828 .3039856 .43237306 .25 .4423828 .22099304 .4423828 .116989139 .4423828 .05999756 .3133545 .05999756 .28834535 .05999756 .27833558 .069992069 .27833558 .07199097 .27833558 .07998657 .27833558 .08299255 .28033448 .084991458 .28933717 .11898804 .39535523 .18499756 .42037965 .21899414 .42037965 .23799134 .42037965 .272995 .4113617 .272995 .35334779 .272995 .32235719 .2559967 .25532533 .21899414 .11528015 .20298767 .053268434 .16799927 .011245728 .12399292 .011245728 .117996219 .011245728 .09498596 .011245728 .07398987 .024276734 .09899902 .029266358 .12098694 .05027771 .12098694 .07827759 .12098694 .105270389 .09899902 .11328125 .083999637 .11328125 .053985597 .11328125 .0289917 .08728027 .0289917 .055267335 .0289917 .009246826 .07899475-.0107421879 .12298584-.0107421879 .18899536-.0107421879 .22499085 .059280397 .22799683 .0652771 .23999024 .028274537 .27598573-.0107421879 .33599855-.0107421879 .43899537-.0107421879 .49598695 .118270877 .49598695 .14328003 .49598695 .1532898 .4869995 .1532898 .48399354 .1532898 .47499085 .1532898 .47299195 .14929199 .47099305 .14228821 .43798829 .03527832 .36999513 .011245728 .33799745 .011245728 .29899598 .011245728 .2829895 .043273927 .2829895 .07727051 .2829895 .09927368 .2889862 .121276859 .2999878 .16529846L.33399964 .30233766Z"/>
<path id="font_2_2" d="M.45999146 .31976319C.45999146 .39982606 .45498658 .47988893 .41999818 .5539398 .37399293 .65000918 .2919922 .6660156 .25 .6660156 .18998719 .6660156 .116989139 .64001467 .07598877 .54693606 .04399109 .47789 .038986207 .39982606 .038986207 .31976319 .038986207 .24472046 .042999269 .15464783 .083999637 .07859802 .1269989-.0024719239 .19999695-.022460938 .24899292-.022460938 .30299378-.022460938 .3789978-.0014648438 .4229889 .09359741 .45498658 .16265869 .45999146 .2407074 .45999146 .31976319M.24899292-.00047302247C.20999146-.00047302247 .15098572 .024551392 .1329956 .12062073 .12199402 .18066406 .12199402 .2727356 .12199402 .3317871 .12199402 .39582826 .12199402 .46188355 .12998963 .5159149 .14898682 .63500979 .22399903 .64401248 .24899292 .64401248 .28199769 .64401248 .34799195 .6259918 .36698915 .52693179 .3769989 .47088624 .3769989 .39482118 .3769989 .3317871 .3769989 .25672914 .3769989 .18867493 .3659973 .12461853 .35099793 .029556275 .2939911-.00047302247 .24899292-.00047302247Z"/>
<path id="font_2_1" d="M.42999269 .5588379V.58984377H.068984989V.5588379H.42999269Z"/>
<path id="font_1_2" d="M.48599244 .38136292C.48999024 .39537049 .48999024 .39736939 .48999024 .40437318 .48999024 .42237855 .47599793 .43138124 .46099855 .43138124 .45098878 .43138124 .43499757 .42536927 .42599488 .41036988 .42399598 .405365 .41600038 .37435914 .4119873 .35635377 .40499879 .33035279 .397995 .30334474 .3919983 .27633668L.34700013 .09628296C.34298707 .08126831 .2999878 .011245728 .23399353 .011245728 .18299866 .011245728 .17199707 .055267335 .17199707 .0922699 .17199707 .1382904 .18899536 .20030213 .22299195 .28833009 .23899842 .3293457 .24299622 .3403473 .24299622 .36035157 .24299622 .405365 .21099854 .4423828 .16099549 .4423828 .06599426 .4423828 .0289917 .29733277 .0289917 .28833009 .0289917 .27833558 .038986207 .27833558 .040985109 .27833558 .050994874 .27833558 .051986696 .28033448 .056991579 .29634095 .083999637 .3903656 .12399292 .42037965 .1579895 .42037965 .1659851 .42037965 .18299866 .42037965 .18299866 .3883667 .18299866 .36335755 .17298889 .3373413 .1659851 .31834413 .12599182 .21231079 .10798645 .1552887 .10798645 .10827637 .10798645 .019256592 .17098999-.0107421879 .22999573-.0107421879 .2689972-.0107421879 .30299378 .0062561037 .33099366 .03425598 .31799317-.017745972 .30599977-.06674194 .2659912-.11973572 .23999024-.15385437 .20199585-.18309021 .1559906-.18309021 .14199829-.18309021 .09700012-.18005371 .07998657-.14074707 .09599304-.14074707 .10899353-.14074707 .12298584-.1287384 .1329956-.11973572 .14299011-.10673523 .14299011-.08773804 .14299011-.056747438 .115997318-.052734376 .10598755-.052734376 .08299255-.052734376 .049987794-.068740848 .049987794-.11773682 .049987794-.16796875 .09399414-.20507813 .1559906-.20507813 .25898744-.20507813 .3619995-.11373901 .3899994-.00074768069L.48599244 .38136292Z"/>
</defs>
<path transform="matrix(1,0,0,-1.00002,-19.782998,65.57799)" stroke-width=".3985" stroke-linecap="butt" stroke-miterlimit="10" stroke-linejoin="miter" fill="none" stroke="#000000" d="M63.7803-42.5202V42.5202H85.04042V-42.5202ZM85.04042 42.5202"/>
<path transform="matrix(1,0,0,-1.00002,-19.782998,65.57799)" stroke-width=".3985" stroke-linecap="butt" stroke-miterlimit="10" stroke-linejoin="miter" fill="none" stroke="#000000" d="M21.2601-63.7803V63.7803H42.5202V-63.7803ZM42.5202 63.7803"/>
<path transform="matrix(1,0,0,-1.00002,-19.782998,65.57799)" d="M75.53339 21.26073C75.53339 21.87971 75.0316 22.3815 74.41263 22.3815 73.79366 22.3815 73.29185 21.87971 73.29185 21.26073 73.29185 20.64175 73.79366 20.13997 74.41263 20.13997 75.0316 20.13997 75.53339 20.64175 75.53339 21.26073ZM74.41263 21.26073"/>
<path transform="matrix(1,0,0,-1.00002,-19.782998,65.57799)" stroke-width=".3985" stroke-linecap="butt" stroke-miterlimit="10" stroke-linejoin="miter" fill="none" stroke="#000000" d="M75.53339 21.26073C75.53339 21.87971 75.0316 22.3815 74.41263 22.3815 73.79366 22.3815 73.29185 21.87971 73.29185 21.26073 73.29185 20.64175 73.79366 20.13997 74.41263 20.13997 75.0316 20.13997 75.53339 20.64175 75.53339 21.26073ZM74.41263 21.26073"/>
<use data-text="x" xlink:href="#font_1_1" transform="matrix(9.9626,0,0,-9.962799,58.149003,46.461606)"/>
<path transform="matrix(1,0,0,-1.00002,-19.782998,65.57799)" d="M75.53339-21.26073C75.53339-20.64175 75.0316-20.13997 74.41263-20.13997 73.79366-20.13997 73.29185-20.64175 73.29185-21.26073 73.29185-21.87971 73.79366-22.3815 74.41263-22.3815 75.0316-22.3815 75.53339-21.87971 75.53339-21.26073ZM74.41263-21.26073"/>
<path transform="matrix(1,0,0,-1.00002,-19.782998,65.57799)" stroke-width=".3985" stroke-linecap="butt" stroke-miterlimit="10" stroke-linejoin="miter" fill="none" stroke="#000000" d="M75.53339-21.26073C75.53339-20.64175 75.0316-20.13997 74.41263-20.13997 73.79366-20.13997 73.29185-20.64175 73.29185-21.26073 73.29185-21.87971 73.79366-22.3815 74.41263-22.3815 75.0316-22.3815 75.53339-21.87971 75.53339-21.26073ZM74.41263-21.26073"/>
<use data-text="0" xlink:href="#font_2_2" transform="matrix(9.9626,0,0,-9.962799,58.149003,90.04948)"/>
<path transform="matrix(1,0,0,-1.00002,-19.782998,65.57799)" d="M33.01187 53.15186C33.01187 53.77083 32.51007 54.27261 31.8911 54.27261 31.27213 54.27261 30.77032 53.77083 30.77032 53.15186 30.77032 52.53288 31.27213 52.03108 31.8911 52.03108 32.51007 52.03108 33.01187 52.53288 33.01187 53.15186ZM31.8911 53.15186"/>
<path transform="matrix(1,0,0,-1.00002,-19.782998,65.57799)" stroke-width=".3985" stroke-linecap="butt" stroke-miterlimit="10" stroke-linejoin="miter" fill="none" stroke="#000000" d="M33.01187 53.15186C33.01187 53.77083 32.51007 54.27261 31.8911 54.27261 31.27213 54.27261 30.77032 53.77083 30.77032 53.15186 30.77032 52.53288 31.27213 52.03108 31.8911 52.03108 32.51007 52.03108 33.01187 52.53288 33.01187 53.15186ZM31.8911 53.15186"/>
<use data-text="&#x00af;" xlink:href="#font_2_1" transform="matrix(9.9626,0,0,-9.962799,4.029999,14.284962)"/>
<use data-text="y" xlink:href="#font_1_2" transform="matrix(9.9626,0,0,-9.962799,3.3460007,14.284962)"/>
<path transform="matrix(1,0,0,-1.00002,-19.782998,65.57799)" d="M33.01187 0C33.01187 .61897 32.51007 1.12076 31.8911 1.12076 31.27213 1.12076 30.77032 .61897 30.77032 0 30.77032-.61897 31.27213-1.12076 31.8911-1.12076 32.51007-1.12076 33.01187-.61897 33.01187 0ZM31.8911 0"/>
<path transform="matrix(1,0,0,-1.00002,-19.782998,65.57799)" stroke-width=".3985" stroke-linecap="butt" stroke-miterlimit="10" stroke-linejoin="miter" fill="none" stroke="#000000" d="M33.01187 0C33.01187 .61897 32.51007 1.12076 31.8911 1.12076 31.27213 1.12076 30.77032 .61897 30.77032 0 30.77032-.61897 31.27213-1.12076 31.8911-1.12076 32.51007-1.12076 33.01187-.61897 33.01187 0ZM31.8911 0"/>
<use data-text="y" xlink:href="#font_1_2" transform="matrix(9.9626,0,0,-9.962799,3.3460007,66.75401)"/>
<path transform="matrix(1,0,0,-1.00002,-19.782998,65.57799)" d="M33.01187-53.15186C33.01187-52.53288 32.51007-52.03108 31.8911-52.03108 31.27213-52.03108 30.77032-52.53288 30.77032-53.15186 30.77032-53.77083 31.27213-54.27261 31.8911-54.27261 32.51007-54.27261 33.01187-53.77083 33.01187-53.15186ZM31.8911-53.15186"/>
<path transform="matrix(1,0,0,-1.00002,-19.782998,65.57799)" stroke-width=".3985" stroke-linecap="butt" stroke-miterlimit="10" stroke-linejoin="miter" fill="none" stroke="#000000" d="M33.01187-53.15186C33.01187-52.53288 32.51007-52.03108 31.8911-52.03108 31.27213-52.03108 30.77032-52.53288 30.77032-53.15186 30.77032-53.77083 31.27213-54.27261 31.8911-54.27261 32.51007-54.27261 33.01187-53.77083 33.01187-53.15186ZM31.8911-53.15186"/>
<use data-text="0" xlink:href="#font_2_2" transform="matrix(9.9626,0,0,-9.962799,3.6070023,121.94112)"/>
<path transform="matrix(1,0,0,-1.00002,-19.782998,65.57799)" stroke-width=".3985" stroke-linecap="butt" stroke-miterlimit="10" stroke-linejoin="miter" fill="none" stroke="#000000" d="M74.41263-21.26073C81.9292-28.77731 68.31546-29.96837 72.08386-24.58658"/>
<path transform="matrix(.57356,-.8191564,-.81914,-.5735715,51.315378,91.57251)" d="M4.21463 0 .64343 1.34572 1.8178 0 .64343-1.34572Z"/>
<path transform="matrix(.57356,-.8191564,-.81914,-.5735715,51.315378,91.57251)" stroke-width=".3985" stroke-linecap="butt" stroke-miterlimit="10" stroke-linejoin="miter" fill="none" stroke="#000000" d="M4.21463 0 .64343 1.34572 1.8178 0 .64343-1.34572Z"/>
<path transform="matrix(1,0,0,-1.00002,-19.782998,65.57799)" stroke-width=".3985" stroke-linecap="butt" stroke-miterlimit="10" stroke-linejoin="miter" fill="none" stroke="#000000" d="M31.8911-53.15186C39.40767-60.66843 25.79393-61.85948 29.56233-56.47769"/>
<path transform="matrix(.57356,-.8191564,-.81914,-.5735715,8.793842,123.46428)" d="M4.21463 0 .64343 1.34572 1.8178 0 .64343-1.34572Z"/>
<path transform="matrix(.57356,-.8191564,-.81914,-.5735715,8.793842,123.46428)" stroke-width=".3985" stroke-linecap="butt" stroke-miterlimit="10" stroke-linejoin="miter" fill="none" stroke="#000000" d="M4.21463 0 .64343 1.34572 1.8178 0 .64343-1.34572Z"/>
<path transform="matrix(1,0,0,-1.00002,-19.782998,65.57799)" stroke-width=".3985" stroke-linecap="butt" stroke-miterlimit="10" stroke-linejoin="miter" fill="none" stroke="#000000" d="M74.41263 21.26073V-18.19682"/>
<path transform="matrix(0,1.00002,1,0,54.62963,82.05696)" d="M4.21463 0 .64343 1.34572 1.8178 0 .64343-1.34572Z"/>
<path transform="matrix(0,1.00002,1,0,54.62963,82.05696)" stroke-width=".3985" stroke-linecap="butt" stroke-miterlimit="10" stroke-linejoin="miter" fill="none" stroke="#000000" d="M4.21463 0 .64343 1.34572 1.8178 0 .64343-1.34572Z"/>
<path transform="matrix(1,0,0,-1.00002,-19.782998,65.57799)" stroke-width=".3985" stroke-linecap="butt" stroke-miterlimit="10" stroke-linejoin="miter" fill="none" stroke="#000000" d="M31.8911 0V-50.08794"/>
<path transform="matrix(0,1.00002,1,0,12.108103,113.94871)" d="M4.21463 0 .64343 1.34572 1.8178 0 .64343-1.34572Z"/>
<path transform="matrix(0,1.00002,1,0,12.108103,113.94871)" stroke-width=".3985" stroke-linecap="butt" stroke-miterlimit="10" stroke-linejoin="miter" fill="none" stroke="#000000" d="M4.21463 0 .64343 1.34572 1.8178 0 .64343-1.34572Z"/>
<path transform="matrix(1,0,0,-1.00002,-19.782998,65.57799)" stroke-width=".3985" stroke-linecap="butt" stroke-miterlimit="10" stroke-linejoin="miter" fill="none" stroke="#000000" d="M31.8911 53.15186V3.0639"/>
<path transform="matrix(0,1.00002,1,0,12.108103,60.795804)" d="M4.21463 0 .64343 1.34572 1.8178 0 .64343-1.34572Z"/>
<path transform="matrix(0,1.00002,1,0,12.108103,60.795804)" stroke-width=".3985" stroke-linecap="butt" stroke-miterlimit="10" stroke-linejoin="miter" fill="none" stroke="#000000" d="M4.21463 0 .64343 1.34572 1.8178 0 .64343-1.34572Z"/>
<path transform="matrix(1,0,0,-1.00002,-19.782998,65.57799)" stroke-width=".3985" stroke-linecap="butt" stroke-miterlimit="10" stroke-linejoin="miter" fill="none" stroke="#000000" d="M34.01723-53.15186 69.93283-23.22209"/>
<path transform="matrix(.76819,-.6401628,-.64015,-.7682054,48.829957,89.900478)" d="M4.21463 0 .64343 1.34572 1.8178 0 .64343-1.34572Z"/>
<path transform="matrix(.76819,-.6401628,-.64015,-.7682054,48.829957,89.900478)" stroke-width=".3985" stroke-linecap="butt" stroke-miterlimit="10" stroke-linejoin="miter" fill="none" stroke="#000000" d="M4.21463 0 .64343 1.34572 1.8178 0 .64343-1.34572Z"/>
<path transform="matrix(1,0,0,-1.00002,-19.782998,65.57799)" stroke-width=".3985" stroke-linecap="butt" stroke-miterlimit="10" stroke-linejoin="miter" fill="none" stroke="#000000" d="M34.01723 0 69.6082-19.77278"/>
<path transform="matrix(.87415,.4856497,.48564,-.8741675,48.32325,84.516719)" d="M4.21463 0 .64343 1.34572 1.8178 0 .64343-1.34572Z"/>
<path transform="matrix(.87415,.4856497,.48564,-.8741675,48.32325,84.516719)" stroke-width=".3985" stroke-linecap="butt" stroke-miterlimit="10" stroke-linejoin="miter" fill="none" stroke="#000000" d="M4.21463 0 .64343 1.34572 1.8178 0 .64343-1.34572Z"/>
<path transform="matrix(1,0,0,-1.00002,-19.782998,65.57799)" stroke-width=".3985" stroke-linecap="butt" stroke-miterlimit="10" stroke-linejoin="miter" fill="none" stroke="#000000" d="M34.01723 53.15186 70.88531-18.53615"/>
<path transform="matrix(.45732,.8892678,.88925,-.45732916,50.31655,82.58659)" d="M4.21463 0 .64343 1.34572 1.8178 0 .64343-1.34572Z"/>
<path transform="matrix(.45732,.8892678,.88925,-.45732916,50.31655,82.58659)" stroke-width=".3985" stroke-linecap="butt" stroke-miterlimit="10" stroke-linejoin="miter" fill="none" stroke="#000000" d="M4.21463 0 .64343 1.34572 1.8178 0 .64343-1.34572Z"/>
<path transform="matrix(1,0,0,-1.00002,-19.782998,65.57799)" stroke-width=".3985" stroke-linecap="butt" stroke-miterlimit="10" stroke-linejoin="miter" fill="none" stroke="#000000" d="M212.60559-191.34549V-106.30505H233.86569V-191.34549ZM233.86569-106.30505"/>
<path transform="matrix(1,0,0,-1.00002,-19.782998,65.57799)" stroke-width=".3985" stroke-linecap="butt" stroke-miterlimit="10" stroke-linejoin="miter" fill="none" stroke="#000000" d="M170.08538-212.60559V-85.04494H191.34549V-212.60559ZM191.34549-85.04494"/>
<path transform="matrix(1,0,0,-1.00002,-19.782998,65.57799)" d="M224.36319-127.56905C224.36319-126.95007 223.8614-126.44829 223.24243-126.44829 222.62345-126.44829 222.12166-126.95007 222.12166-127.56905 222.12166-128.18804 222.62345-128.68982 223.24243-128.68982 223.8614-128.68982 224.36319-128.18804 224.36319-127.56905ZM223.24243-127.56905"/>
<path transform="matrix(1,0,0,-1.00002,-19.782998,65.57799)" stroke-width=".3985" stroke-linecap="butt" stroke-miterlimit="10" stroke-linejoin="miter" fill="none" stroke="#000000" d="M224.36319-127.56905C224.36319-126.95007 223.8614-126.44829 223.24243-126.44829 222.62345-126.44829 222.12166-126.95007 222.12166-127.56905 222.12166-128.18804 222.62345-128.68982 223.24243-128.68982 223.8614-128.68982 224.36319-128.18804 224.36319-127.56905ZM223.24243-127.56905"/>
<use data-text="x" xlink:href="#font_1_1" transform="matrix(9.9626,0,0,-9.962799,206.979,195.29459)"/>
<path transform="matrix(1,0,0,-1.00002,-19.782998,65.57799)" d="M224.36319-170.09055C224.36319-169.47158 223.8614-168.96979 223.24243-168.96979 222.62345-168.96979 222.12166-169.47158 222.12166-170.09055 222.12166-170.70954 222.62345-171.21132 223.24243-171.21132 223.8614-171.21132 224.36319-170.70954 224.36319-170.09055ZM223.24243-170.09055"/>
<path transform="matrix(1,0,0,-1.00002,-19.782998,65.57799)" stroke-width=".3985" stroke-linecap="butt" stroke-miterlimit="10" stroke-linejoin="miter" fill="none" stroke="#000000" d="M224.36319-170.09055C224.36319-169.47158 223.8614-168.96979 223.24243-168.96979 222.62345-168.96979 222.12166-169.47158 222.12166-170.09055 222.12166-170.70954 222.62345-171.21132 223.24243-171.21132 223.8614-171.21132 224.36319-170.70954 224.36319-170.09055ZM223.24243-170.09055"/>
<use data-text="0" xlink:href="#font_2_2" transform="matrix(9.9626,0,0,-9.962799,206.979,238.88245)"/>
<path transform="matrix(1,0,0,-1.00002,-19.782998,65.57799)" d="M181.84169-95.67792C181.84169-95.05893 181.3399-94.55714 180.72093-94.55714 180.10195-94.55714 179.60016-95.05893 179.60016-95.67792 179.60016-96.29689 180.10195-96.79868 180.72093-96.79868 181.3399-96.79868 181.84169-96.29689 181.84169-95.67792ZM180.72093-95.67792"/>
<path transform="matrix(1,0,0,-1.00002,-19.782998,65.57799)" stroke-width=".3985" stroke-linecap="butt" stroke-miterlimit="10" stroke-linejoin="miter" fill="none" stroke="#000000" d="M181.84169-95.67792C181.84169-95.05893 181.3399-94.55714 180.72093-94.55714 180.10195-94.55714 179.60016-95.05893 179.60016-95.67792 179.60016-96.29689 180.10195-96.79868 180.72093-96.79868 181.3399-96.79868 181.84169-96.29689 181.84169-95.67792ZM180.72093-95.67792"/>
<use data-text="&#x00af;" xlink:href="#font_2_1" transform="matrix(9.9626,0,0,-9.962799,152.86,163.11795)"/>
<use data-text="y" xlink:href="#font_1_2" transform="matrix(9.9626,0,0,-9.962799,152.176,163.11795)"/>
<path transform="matrix(1,0,0,-1.00002,-19.782998,65.57799)" d="M181.84169-148.82979C181.84169-148.21082 181.3399-147.70903 180.72093-147.70903 180.10195-147.70903 179.60016-148.21082 179.60016-148.82979 179.60016-149.44878 180.10195-149.95056 180.72093-149.95056 181.3399-149.95056 181.84169-149.44878 181.84169-148.82979ZM180.72093-148.82979"/>
<path transform="matrix(1,0,0,-1.00002,-19.782998,65.57799)" stroke-width=".3985" stroke-linecap="butt" stroke-miterlimit="10" stroke-linejoin="miter" fill="none" stroke="#000000" d="M181.84169-148.82979C181.84169-148.21082 181.3399-147.70903 180.72093-147.70903 180.10195-147.70903 179.60016-148.21082 179.60016-148.82979 179.60016-149.44878 180.10195-149.95056 180.72093-149.95056 181.3399-149.95056 181.84169-149.44878 181.84169-148.82979ZM180.72093-148.82979"/>
<use data-text="y" xlink:href="#font_1_2" transform="matrix(9.9626,0,0,-9.962799,152.176,215.587)"/>
<path transform="matrix(1,0,0,-1.00002,-19.782998,65.57799)" d="M181.84169-201.98169C181.84169-201.3627 181.3399-200.86092 180.72093-200.86092 180.10195-200.86092 179.60016-201.3627 179.60016-201.98169 179.60016-202.60066 180.10195-203.10245 180.72093-203.10245 181.3399-203.10245 181.84169-202.60066 181.84169-201.98169ZM180.72093-201.98169"/>
<path transform="matrix(1,0,0,-1.00002,-19.782998,65.57799)" stroke-width=".3985" stroke-linecap="butt" stroke-miterlimit="10" stroke-linejoin="miter" fill="none" stroke="#000000" d="M181.84169-201.98169C181.84169-201.3627 181.3399-200.86092 180.72093-200.86092 180.10195-200.86092 179.60016-201.3627 179.60016-201.98169 179.60016-202.60066 180.10195-203.10245 180.72093-203.10245 181.3399-203.10245 181.84169-202.60066 181.84169-201.98169ZM180.72093-201.98169"/>
<use data-text="0" xlink:href="#font_2_2" transform="matrix(9.9626,0,0,-9.962799,152.43701,270.7741)"/>
<path transform="matrix(1,0,0,-1.00002,-19.782998,65.57799)" stroke-width=".3985" stroke-linecap="butt" stroke-miterlimit="10" stroke-linejoin="miter" fill="none" stroke="#000000" d="M223.24243-170.09055C230.759-177.60712 217.14527-178.79819 220.91367-173.4164"/>
<path transform="matrix(.57356,-.8191564,-.81914,-.5735715,200.14517,240.4053)" d="M4.21463 0 .64343 1.34572 1.8178 0 .64343-1.34572Z"/>
<path transform="matrix(.57356,-.8191564,-.81914,-.5735715,200.14517,240.4053)" stroke-width=".3985" stroke-linecap="butt" stroke-miterlimit="10" stroke-linejoin="miter" fill="none" stroke="#000000" d="M4.21463 0 .64343 1.34572 1.8178 0 .64343-1.34572Z"/>
<path transform="matrix(1,0,0,-1.00002,-19.782998,65.57799)" stroke-width=".3985" stroke-linecap="butt" stroke-miterlimit="10" stroke-linejoin="miter" fill="none" stroke="#000000" d="M180.72093-201.98169C188.2375-209.49826 174.62377-210.68932 178.39217-205.30753"/>
<path transform="matrix(.57356,-.8191564,-.81914,-.5735715,157.62369,272.2971)" d="M4.21463 0 .64343 1.34572 1.8178 0 .64343-1.34572Z"/>
<path transform="matrix(.57356,-.8191564,-.81914,-.5735715,157.62369,272.2971)" stroke-width=".3985" stroke-linecap="butt" stroke-miterlimit="10" stroke-linejoin="miter" fill="none" stroke="#000000" d="M4.21463 0 .64343 1.34572 1.8178 0 .64343-1.34572Z"/>
<path transform="matrix(1,0,0,-1.00002,-19.782998,65.57799)" stroke-width=".3985" stroke-linecap="butt" stroke-miterlimit="10" stroke-linejoin="miter" fill="none" stroke="#000000" d="M223.24243-127.56905V-167.02664"/>
<path transform="matrix(0,1.00002,1,0,203.45944,230.88976)" d="M4.21463 0 .64343 1.34572 1.8178 0 .64343-1.34572Z"/>
<path transform="matrix(0,1.00002,1,0,203.45944,230.88976)" stroke-width=".3985" stroke-linecap="butt" stroke-miterlimit="10" stroke-linejoin="miter" fill="none" stroke="#000000" d="M4.21463 0 .64343 1.34572 1.8178 0 .64343-1.34572Z"/>
<path transform="matrix(1,0,0,-1.00002,-19.782998,65.57799)" stroke-width=".3985" stroke-linecap="butt" stroke-miterlimit="10" stroke-linejoin="miter" fill="none" stroke="#000000" d="M180.72093-148.82979V-198.91777"/>
<path transform="matrix(0,1.00002,1,0,160.93793,262.78153)" d="M4.21463 0 .64343 1.34572 1.8178 0 .64343-1.34572Z"/>
<path transform="matrix(0,1.00002,1,0,160.93793,262.78153)" stroke-width=".3985" stroke-linecap="butt" stroke-miterlimit="10" stroke-linejoin="miter" fill="none" stroke="#000000" d="M4.21463 0 .64343 1.34572 1.8178 0 .64343-1.34572Z"/>
<path transform="matrix(1,0,0,-1.00002,-19.782998,65.57799)" stroke-width=".3985" stroke-linecap="butt" stroke-miterlimit="10" stroke-linejoin="miter" fill="none" stroke="#000000" d="M180.72093-95.67792V-145.76589"/>
<path transform="matrix(0,1.00002,1,0,160.93793,209.62857)" d="M4.21463 0 .64343 1.34572 1.8178 0 .64343-1.34572Z"/>
<path transform="matrix(0,1.00002,1,0,160.93793,209.62857)" stroke-width=".3985" stroke-linecap="butt" stroke-miterlimit="10" stroke-linejoin="miter" fill="none" stroke="#000000" d="M4.21463 0 .64343 1.34572 1.8178 0 .64343-1.34572Z"/>
<path transform="matrix(1,0,0,-1.00002,-19.782998,65.57799)" stroke-width=".3985" stroke-linecap="butt" stroke-miterlimit="10" stroke-linejoin="miter" fill="none" stroke="#000000" d="M182.84706-201.98169 218.76268-172.05191"/>
<path transform="matrix(.76817,-.6401628,-.64015,-.7681854,197.65982,238.73328)" d="M4.21463 0 .64343 1.34572 1.8178 0 .64343-1.34572Z"/>
<path transform="matrix(.76817,-.6401628,-.64015,-.7681854,197.65982,238.73328)" stroke-width=".3985" stroke-linecap="butt" stroke-miterlimit="10" stroke-linejoin="miter" fill="none" stroke="#000000" d="M4.21463 0 .64343 1.34572 1.8178 0 .64343-1.34572Z"/>
<path transform="matrix(1,0,0,-1.00002,-19.782998,65.57799)" stroke-width=".3985" stroke-linecap="butt" stroke-miterlimit="10" stroke-linejoin="miter" fill="none" stroke="#000000" d="M182.84706-148.82979 218.43799-168.6026"/>
<path transform="matrix(.87415,.4856497,.48564,-.8741675,197.15305,233.34952)" d="M4.21463 0 .64343 1.34572 1.8178 0 .64343-1.34572Z"/>
<path transform="matrix(.87415,.4856497,.48564,-.8741675,197.15305,233.34952)" stroke-width=".3985" stroke-linecap="butt" stroke-miterlimit="10" stroke-linejoin="miter" fill="none" stroke="#000000" d="M4.21463 0 .64343 1.34572 1.8178 0 .64343-1.34572Z"/>
<path transform="matrix(1,0,0,-1.00002,-19.782998,65.57799)" stroke-width=".3985" stroke-linecap="butt" stroke-miterlimit="10" stroke-linejoin="miter" fill="none" stroke="#000000" d="M182.84706-95.67792 218.76268-125.60892"/>
<path transform="matrix(.76817,.6401828,.64017,-.7681854,197.65982,190.08948)" d="M4.21463 0 .64343 1.34572 1.8178 0 .64343-1.34572Z"/>
<path transform="matrix(.76817,.6401828,.64017,-.7681854,197.65982,190.08948)" stroke-width=".3985" stroke-linecap="butt" stroke-miterlimit="10" stroke-linejoin="miter" fill="none" stroke="#000000" d="M4.21463 0 .64343 1.34572 1.8178 0 .64343-1.34572Z"/>
<path transform="matrix(1,0,0,-1.00002,-19.782998,65.57799)" stroke-width=".3985" stroke-linecap="butt" stroke-miterlimit="10" stroke-linejoin="miter" fill="none" stroke="#000000" d="M361.4309-42.5202V42.5202H382.691V-42.5202ZM382.691 42.5202"/>
<path transform="matrix(1,0,0,-1.00002,-19.782998,65.57799)" stroke-width=".3985" stroke-linecap="butt" stroke-miterlimit="10" stroke-linejoin="miter" fill="none" stroke="#000000" d="M318.91069-63.7803V63.7803H340.17079V-63.7803ZM340.17079 63.7803"/>
<path transform="matrix(1,0,0,-1.00002,-19.782998,65.57799)" d="M373.19306 21.26073C373.19306 21.87971 372.69126 22.3815 372.07228 22.3815 371.4533 22.3815 370.9515 21.87971 370.9515 21.26073 370.9515 20.64175 371.4533 20.13997 372.07228 20.13997 372.69126 20.13997 373.19306 20.64175 373.19306 21.26073ZM372.07228 21.26073"/>
<path transform="matrix(1,0,0,-1.00002,-19.782998,65.57799)" stroke-width=".3985" stroke-linecap="butt" stroke-miterlimit="10" stroke-linejoin="miter" fill="none" stroke="#000000" d="M373.19306 21.26073C373.19306 21.87971 372.69126 22.3815 372.07228 22.3815 371.4533 22.3815 370.9515 21.87971 370.9515 21.26073 370.9515 20.64175 371.4533 20.13997 372.07228 20.13997 372.69126 20.13997 373.19306 20.64175 373.19306 21.26073ZM372.07228 21.26073"/>
<use data-text="x" xlink:href="#font_1_1" transform="matrix(9.9626,0,0,-9.962799,355.80903,46.461606)"/>
<path transform="matrix(1,0,0,-1.00002,-19.782998,65.57799)" d="M373.19306-21.26073C373.19306-20.64175 372.69126-20.13997 372.07228-20.13997 371.4533-20.13997 370.9515-20.64175 370.9515-21.26073 370.9515-21.87971 371.4533-22.3815 372.07228-22.3815 372.69126-22.3815 373.19306-21.87971 373.19306-21.26073ZM372.07228-21.26073"/>
<path transform="matrix(1,0,0,-1.00002,-19.782998,65.57799)" stroke-width=".3985" stroke-linecap="butt" stroke-miterlimit="10" stroke-linejoin="miter" fill="none" stroke="#000000" d="M373.19306-21.26073C373.19306-20.64175 372.69126-20.13997 372.07228-20.13997 371.4533-20.13997 370.9515-20.64175 370.9515-21.26073 370.9515-21.87971 371.4533-22.3815 372.07228-22.3815 372.69126-22.3815 373.19306-21.87971 373.19306-21.26073ZM372.07228-21.26073"/>
<use data-text="0" xlink:href="#font_2_2" transform="matrix(9.9626,0,0,-9.962799,355.80903,90.04948)"/>
<path transform="matrix(1,0,0,-1.00002,-19.782998,65.57799)" d="M330.67155 53.15186C330.67155 53.77083 330.16975 54.27261 329.55079 54.27261 328.9318 54.27261 328.43003 53.77083 328.43003 53.15186 328.43003 52.53288 328.9318 52.03108 329.55079 52.03108 330.16975 52.03108 330.67155 52.53288 330.67155 53.15186ZM329.55079 53.15186"/>
<path transform="matrix(1,0,0,-1.00002,-19.782998,65.57799)" stroke-width=".3985" stroke-linecap="butt" stroke-miterlimit="10" stroke-linejoin="miter" fill="none" stroke="#000000" d="M330.67155 53.15186C330.67155 53.77083 330.16975 54.27261 329.55079 54.27261 328.9318 54.27261 328.43003 53.77083 328.43003 53.15186 328.43003 52.53288 328.9318 52.03108 329.55079 52.03108 330.16975 52.03108 330.67155 52.53288 330.67155 53.15186ZM329.55079 53.15186"/>
<use data-text="&#x00af;" xlink:href="#font_2_1" transform="matrix(9.9626,0,0,-9.962799,301.69,14.284962)"/>
<use data-text="y" xlink:href="#font_1_2" transform="matrix(9.9626,0,0,-9.962799,301.006,14.284962)"/>
<path transform="matrix(1,0,0,-1.00002,-19.782998,65.57799)" d="M330.67155 0C330.67155 .61897 330.16975 1.12076 329.55079 1.12076 328.9318 1.12076 328.43003 .61897 328.43003 0 328.43003-.61897 328.9318-1.12076 329.55079-1.12076 330.16975-1.12076 330.67155-.61897 330.67155 0ZM329.55079 0"/>
<path transform="matrix(1,0,0,-1.00002,-19.782998,65.57799)" stroke-width=".3985" stroke-linecap="butt" stroke-miterlimit="10" stroke-linejoin="miter" fill="none" stroke="#000000" d="M330.67155 0C330.67155 .61897 330.16975 1.12076 329.55079 1.12076 328.9318 1.12076 328.43003 .61897 328.43003 0 328.43003-.61897 328.9318-1.12076 329.55079-1.12076 330.16975-1.12076 330.67155-.61897 330.67155 0ZM329.55079 0"/>
<use data-text="y" xlink:href="#font_1_2" transform="matrix(9.9626,0,0,-9.962799,301.006,66.75401)"/>
<path transform="matrix(1,0,0,-1.00002,-19.782998,65.57799)" d="M330.67155-53.15186C330.67155-52.53288 330.16975-52.03108 329.55079-52.03108 328.9318-52.03108 328.43003-52.53288 328.43003-53.15186 328.43003-53.77083 328.9318-54.27261 329.55079-54.27261 330.16975-54.27261 330.67155-53.77083 330.67155-53.15186ZM329.55079-53.15186"/>
<path transform="matrix(1,0,0,-1.00002,-19.782998,65.57799)" stroke-width=".3985" stroke-linecap="butt" stroke-miterlimit="10" stroke-linejoin="miter" fill="none" stroke="#000000" d="M330.67155-53.15186C330.67155-52.53288 330.16975-52.03108 329.55079-52.03108 328.9318-52.03108 328.43003-52.53288 328.43003-53.15186 328.43003-53.77083 328.9318-54.27261 329.55079-54.27261 330.16975-54.27261 330.67155-53.77083 330.67155-53.15186ZM329.55079-53.15186"/>
<use data-text="0" xlink:href="#font_2_2" transform="matrix(9.9626,0,0,-9.962799,301.267,121.94112)"/>
<path transform="matrix(1,0,0,-1.00002,-19.782998,65.57799)" stroke-width=".3985" stroke-linecap="butt" stroke-miterlimit="10" stroke-linejoin="miter" fill="none" stroke="#000000" d="M372.07228-21.26073C379.58888-28.77731 365.97514-29.96837 369.74354-24.58658"/>
<path transform="matrix(.57356,-.8191564,-.81914,-.5735715,348.975,91.57251)" d="M4.21463 0 .64343 1.34572 1.8178 0 .64343-1.34572Z"/>
<path transform="matrix(.57356,-.8191564,-.81914,-.5735715,348.975,91.57251)" stroke-width=".3985" stroke-linecap="butt" stroke-miterlimit="10" stroke-linejoin="miter" fill="none" stroke="#000000" d="M4.21463 0 .64343 1.34572 1.8178 0 .64343-1.34572Z"/>
<path transform="matrix(1,0,0,-1.00002,-19.782998,65.57799)" stroke-width=".3985" stroke-linecap="butt" stroke-miterlimit="10" stroke-linejoin="miter" fill="none" stroke="#000000" d="M329.55079-53.15186C337.06736-60.66843 323.4536-61.85948 327.22203-56.47769"/>
<path transform="matrix(.57356,-.8191564,-.81914,-.5735715,306.45353,123.46428)" d="M4.21463 0 .64343 1.34572 1.8178 0 .64343-1.34572Z"/>
<path transform="matrix(.57356,-.8191564,-.81914,-.5735715,306.45353,123.46428)" stroke-width=".3985" stroke-linecap="butt" stroke-miterlimit="10" stroke-linejoin="miter" fill="none" stroke="#000000" d="M4.21463 0 .64343 1.34572 1.8178 0 .64343-1.34572Z"/>
<path transform="matrix(1,0,0,-1.00002,-19.782998,65.57799)" stroke-width=".3985" stroke-linecap="butt" stroke-miterlimit="10" stroke-linejoin="miter" fill="none" stroke="#000000" d="M372.07228 21.26073V-18.19682"/>
<path transform="matrix(0,1.00002,1,0,352.28929,82.05696)" d="M4.21463 0 .64343 1.34572 1.8178 0 .64343-1.34572Z"/>
<path transform="matrix(0,1.00002,1,0,352.28929,82.05696)" stroke-width=".3985" stroke-linecap="butt" stroke-miterlimit="10" stroke-linejoin="miter" fill="none" stroke="#000000" d="M4.21463 0 .64343 1.34572 1.8178 0 .64343-1.34572Z"/>
<path transform="matrix(1,0,0,-1.00002,-19.782998,65.57799)" stroke-width=".3985" stroke-linecap="butt" stroke-miterlimit="10" stroke-linejoin="miter" fill="none" stroke="#000000" d="M329.55079 0V-50.08794"/>
<path transform="matrix(0,1.00002,1,0,309.7678,113.94871)" d="M4.21463 0 .64343 1.34572 1.8178 0 .64343-1.34572Z"/>
<path transform="matrix(0,1.00002,1,0,309.7678,113.94871)" stroke-width=".3985" stroke-linecap="butt" stroke-miterlimit="10" stroke-linejoin="miter" fill="none" stroke="#000000" d="M4.21463 0 .64343 1.34572 1.8178 0 .64343-1.34572Z"/>
<path transform="matrix(1,0,0,-1.00002,-19.782998,65.57799)" stroke-width=".3985" stroke-linecap="butt" stroke-miterlimit="10" stroke-linejoin="miter" fill="none" stroke="#000000" d="M329.55079 53.15186V3.0639"/>
<path transform="matrix(0,1.00002,1,0,309.7678,60.795804)" d="M4.21463 0 .64343 1.34572 1.8178 0 .64343-1.34572Z"/>
<path transform="matrix(0,1.00002,1,0,309.7678,60.795804)" stroke-width=".3985" stroke-linecap="butt" stroke-miterlimit="10" stroke-linejoin="miter" fill="none" stroke="#000000" d="M4.21463 0 .64343 1.34572 1.8178 0 .64343-1.34572Z"/>
<path transform="matrix(1,0,0,-1.00002,-19.782998,65.57799)" stroke-width=".3985" stroke-linecap="butt" stroke-miterlimit="10" stroke-linejoin="miter" fill="none" stroke="#000000" d="M331.6769-53.15186 367.59248-23.22209"/>
<path transform="matrix(.76819,-.6401628,-.64015,-.7682054,346.48963,89.900478)" d="M4.21463 0 .64343 1.34572 1.8178 0 .64343-1.34572Z"/>
<path transform="matrix(.76819,-.6401628,-.64015,-.7682054,346.48963,89.900478)" stroke-width=".3985" stroke-linecap="butt" stroke-miterlimit="10" stroke-linejoin="miter" fill="none" stroke="#000000" d="M4.21463 0 .64343 1.34572 1.8178 0 .64343-1.34572Z"/>
<path transform="matrix(1,0,0,-1.00002,-19.782998,65.57799)" stroke-width=".3985" stroke-linecap="butt" stroke-miterlimit="10" stroke-linejoin="miter" fill="none" stroke="#000000" d="M331.6769 0 367.26786 19.77155"/>
<path transform="matrix(.87415,-.48563973,-.48563,-.8741675,345.9829,46.64045)" d="M4.21463 0 .64343 1.34572 1.8178 0 .64343-1.34572Z"/>
<path transform="matrix(.87415,-.48563973,-.48563,-.8741675,345.9829,46.64045)" stroke-width=".3985" stroke-linecap="butt" stroke-miterlimit="10" stroke-linejoin="miter" fill="none" stroke="#000000" d="M4.21463 0 .64343 1.34572 1.8178 0 .64343-1.34572Z"/>
<path transform="matrix(1,0,0,-1.00002,-19.782998,65.57799)" stroke-width=".3985" stroke-linecap="butt" stroke-miterlimit="10" stroke-linejoin="miter" fill="none" stroke="#000000" d="M331.6769 53.15186 368.54496-18.53615"/>
<path transform="matrix(.45732,.8892678,.88925,-.45732916,347.9762,82.58659)" d="M4.21463 0 .64343 1.34572 1.8178 0 .64343-1.34572Z"/>
<path transform="matrix(.45732,.8892678,.88925,-.45732916,347.9762,82.58659)" stroke-width=".3985" stroke-linecap="butt" stroke-miterlimit="10" stroke-linejoin="miter" fill="none" stroke="#000000" d="M4.21463 0 .64343 1.34572 1.8178 0 .64343-1.34572Z"/>
<path transform="matrix(1,0,0,-1.00002,-19.782998,65.57799)" stroke-width=".3985" stroke-linecap="butt" stroke-miterlimit="10" stroke-linejoin="miter" fill="none" stroke="#000000" d="M63.7803-340.17079V-255.13036H85.04042V-340.17079ZM85.04042-255.13036"/>
<path transform="matrix(1,0,0,-1.00002,-19.782998,65.57799)" stroke-width=".3985" stroke-linecap="butt" stroke-miterlimit="10" stroke-linejoin="miter" fill="none" stroke="#000000" d="M21.2601-361.4309V-233.87024H42.5202V-361.4309ZM42.5202-233.87024"/>
<path transform="matrix(1,0,0,-1.00002,-19.782998,65.57799)" d="M75.53339-276.39888C75.53339-275.7799 75.0316-275.2781 74.41263-275.2781 73.79366-275.2781 73.29185-275.7799 73.29185-276.39888 73.29185-277.01789 73.79366-277.51966 74.41263-277.51966 75.0316-277.51966 75.53339-277.01789 75.53339-276.39888ZM74.41263-276.39888"/>
<path transform="matrix(1,0,0,-1.00002,-19.782998,65.57799)" stroke-width=".3985" stroke-linecap="butt" stroke-miterlimit="10" stroke-linejoin="miter" fill="none" stroke="#000000" d="M75.53339-276.39888C75.53339-275.7799 75.0316-275.2781 74.41263-275.2781 73.79366-275.2781 73.29185-275.7799 73.29185-276.39888 73.29185-277.01789 73.79366-277.51966 74.41263-277.51966 75.0316-277.51966 75.53339-277.01789 75.53339-276.39888ZM74.41263-276.39888"/>
<use data-text="x" xlink:href="#font_1_1" transform="matrix(9.9626,0,0,-9.962799,58.149003,344.1276)"/>
<path transform="matrix(1,0,0,-1.00002,-19.782998,65.57799)" d="M75.53339-318.92039C75.53339-318.3014 75.0316-317.79963 74.41263-317.79963 73.79366-317.79963 73.29185-318.3014 73.29185-318.92039 73.29185-319.53938 73.79366-320.04115 74.41263-320.04115 75.0316-320.04115 75.53339-319.53938 75.53339-318.92039ZM74.41263-318.92039"/>
<path transform="matrix(1,0,0,-1.00002,-19.782998,65.57799)" stroke-width=".3985" stroke-linecap="butt" stroke-miterlimit="10" stroke-linejoin="miter" fill="none" stroke="#000000" d="M75.53339-318.92039C75.53339-318.3014 75.0316-317.79963 74.41263-317.79963 73.79366-317.79963 73.29185-318.3014 73.29185-318.92039 73.29185-319.53938 73.79366-320.04115 74.41263-320.04115 75.0316-320.04115 75.53339-319.53938 75.53339-318.92039ZM74.41263-318.92039"/>
<use data-text="0" xlink:href="#font_2_2" transform="matrix(9.9626,0,0,-9.962799,58.149003,387.71546)"/>
<path transform="matrix(1,0,0,-1.00002,-19.782998,65.57799)" d="M33.01187-244.50775C33.01187-243.88877 32.51007-243.38698 31.8911-243.38698 31.27213-243.38698 30.77032-243.88877 30.77032-244.50775 30.77032-245.12673 31.27213-245.62851 31.8911-245.62851 32.51007-245.62851 33.01187-245.12673 33.01187-244.50775ZM31.8911-244.50775"/>
<path transform="matrix(1,0,0,-1.00002,-19.782998,65.57799)" stroke-width=".3985" stroke-linecap="butt" stroke-miterlimit="10" stroke-linejoin="miter" fill="none" stroke="#000000" d="M33.01187-244.50775C33.01187-243.88877 32.51007-243.38698 31.8911-243.38698 31.27213-243.38698 30.77032-243.88877 30.77032-244.50775 30.77032-245.12673 31.27213-245.62851 31.8911-245.62851 32.51007-245.62851 33.01187-245.12673 33.01187-244.50775ZM31.8911-244.50775"/>
<use data-text="&#x00af;" xlink:href="#font_2_1" transform="matrix(9.9626,0,0,-9.962799,4.029999,311.94993)"/>
<use data-text="y" xlink:href="#font_1_2" transform="matrix(9.9626,0,0,-9.962799,3.3460007,311.94993)"/>
<path transform="matrix(1,0,0,-1.00002,-19.782998,65.57799)" d="M33.01187-297.65965C33.01187-297.04066 32.51007-296.53889 31.8911-296.53889 31.27213-296.53889 30.77032-297.04066 30.77032-297.65965 30.77032-298.27864 31.27213-298.7804 31.8911-298.7804 32.51007-298.7804 33.01187-298.27864 33.01187-297.65965ZM31.8911-297.65965"/>
<path transform="matrix(1,0,0,-1.00002,-19.782998,65.57799)" stroke-width=".3985" stroke-linecap="butt" stroke-miterlimit="10" stroke-linejoin="miter" fill="none" stroke="#000000" d="M33.01187-297.65965C33.01187-297.04066 32.51007-296.53889 31.8911-296.53889 31.27213-296.53889 30.77032-297.04066 30.77032-297.65965 30.77032-298.27864 31.27213-298.7804 31.8911-298.7804 32.51007-298.7804 33.01187-298.27864 33.01187-297.65965ZM31.8911-297.65965"/>
<use data-text="y" xlink:href="#font_1_2" transform="matrix(9.9626,0,0,-9.962799,3.3460007,364.41999)"/>
<path transform="matrix(1,0,0,-1.00002,-19.782998,65.57799)" d="M33.01187-350.81153C33.01187-350.19255 32.51007-349.69075 31.8911-349.69075 31.27213-349.69075 30.77032-350.19255 30.77032-350.81153 30.77032-351.4305 31.27213-351.93229 31.8911-351.93229 32.51007-351.93229 33.01187-351.4305 33.01187-350.81153ZM31.8911-350.81153"/>
<path transform="matrix(1,0,0,-1.00002,-19.782998,65.57799)" stroke-width=".3985" stroke-linecap="butt" stroke-miterlimit="10" stroke-linejoin="miter" fill="none" stroke="#000000" d="M33.01187-350.81153C33.01187-350.19255 32.51007-349.69075 31.8911-349.69075 31.27213-349.69075 30.77032-350.19255 30.77032-350.81153 30.77032-351.4305 31.27213-351.93229 31.8911-351.93229 32.51007-351.93229 33.01187-351.4305 33.01187-350.81153ZM31.8911-350.81153"/>
<use data-text="0" xlink:href="#font_2_2" transform="matrix(9.9626,0,0,-9.962799,3.6070023,419.6071)"/>
<path transform="matrix(1,0,0,-1.00002,-19.782998,65.57799)" stroke-width=".3985" stroke-linecap="butt" stroke-miterlimit="10" stroke-linejoin="miter" fill="none" stroke="#000000" d="M74.41263-318.92039C81.9292-326.43699 68.31546-327.62803 72.08386-322.24623"/>
<path transform="matrix(.57356,-.8191564,-.81914,-.5735715,51.315378,389.2381)" d="M4.21463 0 .64343 1.34572 1.8178 0 .64343-1.34572Z"/>
<path transform="matrix(.57356,-.8191564,-.81914,-.5735715,51.315378,389.2381)" stroke-width=".3985" stroke-linecap="butt" stroke-miterlimit="10" stroke-linejoin="miter" fill="none" stroke="#000000" d="M4.21463 0 .64343 1.34572 1.8178 0 .64343-1.34572Z"/>
<path transform="matrix(1,0,0,-1.00002,-19.782998,65.57799)" stroke-width=".3985" stroke-linecap="butt" stroke-miterlimit="10" stroke-linejoin="miter" fill="none" stroke="#000000" d="M31.8911-350.81153C39.40767-358.32814 25.79393-359.51918 29.56233-354.13737"/>
<path transform="matrix(.57356,-.8191564,-.81914,-.5735715,8.793842,421.12989)" d="M4.21463 0 .64343 1.34572 1.8178 0 .64343-1.34572Z"/>
<path transform="matrix(.57356,-.8191564,-.81914,-.5735715,8.793842,421.12989)" stroke-width=".3985" stroke-linecap="butt" stroke-miterlimit="10" stroke-linejoin="miter" fill="none" stroke="#000000" d="M4.21463 0 .64343 1.34572 1.8178 0 .64343-1.34572Z"/>
<path transform="matrix(1,0,0,-1.00002,-19.782998,65.57799)" stroke-width=".3985" stroke-linecap="butt" stroke-miterlimit="10" stroke-linejoin="miter" fill="none" stroke="#000000" d="M74.41263-276.39888V-315.85649"/>
<path transform="matrix(0,1.00002,1,0,54.62963,379.72254)" d="M4.21463 0 .64343 1.34572 1.8178 0 .64343-1.34572Z"/>
<path transform="matrix(0,1.00002,1,0,54.62963,379.72254)" stroke-width=".3985" stroke-linecap="butt" stroke-miterlimit="10" stroke-linejoin="miter" fill="none" stroke="#000000" d="M4.21463 0 .64343 1.34572 1.8178 0 .64343-1.34572Z"/>
<path transform="matrix(1,0,0,-1.00002,-19.782998,65.57799)" stroke-width=".3985" stroke-linecap="butt" stroke-miterlimit="10" stroke-linejoin="miter" fill="none" stroke="#000000" d="M31.8911-297.65965V-347.7476"/>
<path transform="matrix(0,1.00002,1,0,12.108103,411.61433)" d="M4.21463 0 .64343 1.34572 1.8178 0 .64343-1.34572Z"/>
<path transform="matrix(0,1.00002,1,0,12.108103,411.61433)" stroke-width=".3985" stroke-linecap="butt" stroke-miterlimit="10" stroke-linejoin="miter" fill="none" stroke="#000000" d="M4.21463 0 .64343 1.34572 1.8178 0 .64343-1.34572Z"/>
<path transform="matrix(1,0,0,-1.00002,-19.782998,65.57799)" stroke-width=".3985" stroke-linecap="butt" stroke-miterlimit="10" stroke-linejoin="miter" fill="none" stroke="#000000" d="M31.8911-244.50775V-294.59574"/>
<path transform="matrix(0,1.00002,1,0,12.108103,358.46138)" d="M4.21463 0 .64343 1.34572 1.8178 0 .64343-1.34572Z"/>
<path transform="matrix(0,1.00002,1,0,12.108103,358.46138)" stroke-width=".3985" stroke-linecap="butt" stroke-miterlimit="10" stroke-linejoin="miter" fill="none" stroke="#000000" d="M4.21463 0 .64343 1.34572 1.8178 0 .64343-1.34572Z"/>
<path transform="matrix(1,0,0,-1.00002,-19.782998,65.57799)" stroke-width=".3985" stroke-linecap="butt" stroke-miterlimit="10" stroke-linejoin="miter" fill="none" stroke="#000000" d="M34.01723-350.81153 69.93288-320.88175"/>
<path transform="matrix(.76817,-.6401628,-.64015,-.7681854,48.83,387.56605)" d="M4.21463 0 .64343 1.34572 1.8178 0 .64343-1.34572Z"/>
<path transform="matrix(.76817,-.6401628,-.64015,-.7681854,48.83,387.56605)" stroke-width=".3985" stroke-linecap="butt" stroke-miterlimit="10" stroke-linejoin="miter" fill="none" stroke="#000000" d="M4.21463 0 .64343 1.34572 1.8178 0 .64343-1.34572Z"/>
<path transform="matrix(1,0,0,-1.00002,-19.782998,65.57799)" stroke-width=".3985" stroke-linecap="butt" stroke-miterlimit="10" stroke-linejoin="miter" fill="none" stroke="#000000" d="M34.01723-297.65965 69.6082-277.8881"/>
<path transform="matrix(.87415,-.48563973,-.48563,-.8741675,48.32325,344.30604)" d="M4.21463 0 .64343 1.34572 1.8178 0 .64343-1.34572Z"/>
<path transform="matrix(.87415,-.48563973,-.48563,-.8741675,48.32325,344.30604)" stroke-width=".3985" stroke-linecap="butt" stroke-miterlimit="10" stroke-linejoin="miter" fill="none" stroke="#000000" d="M4.21463 0 .64343 1.34572 1.8178 0 .64343-1.34572Z"/>
<path transform="matrix(1,0,0,-1.00002,-19.782998,65.57799)" stroke-width=".3985" stroke-linecap="butt" stroke-miterlimit="10" stroke-linejoin="miter" fill="none" stroke="#000000" d="M34.01723-244.50775 69.93288-274.43879"/>
<path transform="matrix(.76817,.6401828,.64017,-.7681854,48.83,338.9223)" d="M4.21463 0 .64343 1.34572 1.8178 0 .64343-1.34572Z"/>
<path transform="matrix(.76817,.6401828,.64017,-.7681854,48.83,338.9223)" stroke-width=".3985" stroke-linecap="butt" stroke-miterlimit="10" stroke-linejoin="miter" fill="none" stroke="#000000" d="M4.21463 0 .64343 1.34572 1.8178 0 .64343-1.34572Z"/>
<path transform="matrix(1,0,0,-1.00002,-19.782998,65.57799)" stroke-width=".3985" stroke-linecap="butt" stroke-miterlimit="10" stroke-linejoin="miter" fill="none" stroke="#000000" d="M212.60559-42.5202V42.5202H233.86569V-42.5202ZM233.86569 42.5202"/>
<path transform="matrix(1,0,0,-1.00002,-19.782998,65.57799)" stroke-width=".3985" stroke-linecap="butt" stroke-miterlimit="10" stroke-linejoin="miter" fill="none" stroke="#000000" d="M170.08538-63.7803V63.7803H191.34549V-63.7803ZM191.34549 63.7803"/>
<path transform="matrix(1,0,0,-1.00002,-19.782998,65.57799)" d="M224.36319 21.26073C224.36319 21.87971 223.8614 22.3815 223.24243 22.3815 222.62345 22.3815 222.12166 21.87971 222.12166 21.26073 222.12166 20.64175 222.62345 20.13997 223.24243 20.13997 223.8614 20.13997 224.36319 20.64175 224.36319 21.26073ZM223.24243 21.26073"/>
<path transform="matrix(1,0,0,-1.00002,-19.782998,65.57799)" stroke-width=".3985" stroke-linecap="butt" stroke-miterlimit="10" stroke-linejoin="miter" fill="none" stroke="#000000" d="M224.36319 21.26073C224.36319 21.87971 223.8614 22.3815 223.24243 22.3815 222.62345 22.3815 222.12166 21.87971 222.12166 21.26073 222.12166 20.64175 222.62345 20.13997 223.24243 20.13997 223.8614 20.13997 224.36319 20.64175 224.36319 21.26073ZM223.24243 21.26073"/>
<use data-text="x" xlink:href="#font_1_1" transform="matrix(9.9626,0,0,-9.962799,206.979,46.461606)"/>
<path transform="matrix(1,0,0,-1.00002,-19.782998,65.57799)" d="M224.36319-21.26073C224.36319-20.64175 223.8614-20.13997 223.24243-20.13997 222.62345-20.13997 222.12166-20.64175 222.12166-21.26073 222.12166-21.87971 222.62345-22.3815 223.24243-22.3815 223.8614-22.3815 224.36319-21.87971 224.36319-21.26073ZM223.24243-21.26073"/>
<path transform="matrix(1,0,0,-1.00002,-19.782998,65.57799)" stroke-width=".3985" stroke-linecap="butt" stroke-miterlimit="10" stroke-linejoin="miter" fill="none" stroke="#000000" d="M224.36319-21.26073C224.36319-20.64175 223.8614-20.13997 223.24243-20.13997 222.62345-20.13997 222.12166-20.64175 222.12166-21.26073 222.12166-21.87971 222.62345-22.3815 223.24243-22.3815 223.8614-22.3815 224.36319-21.87971 224.36319-21.26073ZM223.24243-21.26073"/>
<use data-text="0" xlink:href="#font_2_2" transform="matrix(9.9626,0,0,-9.962799,206.979,90.04948)"/>
<path transform="matrix(1,0,0,-1.00002,-19.782998,65.57799)" d="M181.84169 53.15186C181.84169 53.77083 181.3399 54.27261 180.72093 54.27261 180.10195 54.27261 179.60016 53.77083 179.60016 53.15186 179.60016 52.53288 180.10195 52.03108 180.72093 52.03108 181.3399 52.03108 181.84169 52.53288 181.84169 53.15186ZM180.72093 53.15186"/>
<path transform="matrix(1,0,0,-1.00002,-19.782998,65.57799)" stroke-width=".3985" stroke-linecap="butt" stroke-miterlimit="10" stroke-linejoin="miter" fill="none" stroke="#000000" d="M181.84169 53.15186C181.84169 53.77083 181.3399 54.27261 180.72093 54.27261 180.10195 54.27261 179.60016 53.77083 179.60016 53.15186 179.60016 52.53288 180.10195 52.03108 180.72093 52.03108 181.3399 52.03108 181.84169 52.53288 181.84169 53.15186ZM180.72093 53.15186"/>
<use data-text="&#x00af;" xlink:href="#font_2_1" transform="matrix(9.9626,0,0,-9.962799,152.86,14.284962)"/>
<use data-text="y" xlink:href="#font_1_2" transform="matrix(9.9626,0,0,-9.962799,152.176,14.284962)"/>
<path transform="matrix(1,0,0,-1.00002,-19.782998,65.57799)" d="M181.84169 0C181.84169 .61897 181.3399 1.12076 180.72093 1.12076 180.10195 1.12076 179.60016 .61897 179.60016 0 179.60016-.61897 180.10195-1.12076 180.72093-1.12076 181.3399-1.12076 181.84169-.61897 181.84169 0ZM180.72093 0"/>
<path transform="matrix(1,0,0,-1.00002,-19.782998,65.57799)" stroke-width=".3985" stroke-linecap="butt" stroke-miterlimit="10" stroke-linejoin="miter" fill="none" stroke="#000000" d="M181.84169 0C181.84169 .61897 181.3399 1.12076 180.72093 1.12076 180.10195 1.12076 179.60016 .61897 179.60016 0 179.60016-.61897 180.10195-1.12076 180.72093-1.12076 181.3399-1.12076 181.84169-.61897 181.84169 0ZM180.72093 0"/>
<use data-text="y" xlink:href="#font_1_2" transform="matrix(9.9626,0,0,-9.962799,152.176,66.75401)"/>
<path transform="matrix(1,0,0,-1.00002,-19.782998,65.57799)" d="M181.84169-53.15186C181.84169-52.53288 181.3399-52.03108 180.72093-52.03108 180.10195-52.03108 179.60016-52.53288 179.60016-53.15186 179.60016-53.77083 180.10195-54.27261 180.72093-54.27261 181.3399-54.27261 181.84169-53.77083 181.84169-53.15186ZM180.72093-53.15186"/>
<path transform="matrix(1,0,0,-1.00002,-19.782998,65.57799)" stroke-width=".3985" stroke-linecap="butt" stroke-miterlimit="10" stroke-linejoin="miter" fill="none" stroke="#000000" d="M181.84169-53.15186C181.84169-52.53288 181.3399-52.03108 180.72093-52.03108 180.10195-52.03108 179.60016-52.53288 179.60016-53.15186 179.60016-53.77083 180.10195-54.27261 180.72093-54.27261 181.3399-54.27261 181.84169-53.77083 181.84169-53.15186ZM180.72093-53.15186"/>
<use data-text="0" xlink:href="#font_2_2" transform="matrix(9.9626,0,0,-9.962799,152.43701,121.94112)"/>
<path transform="matrix(1,0,0,-1.00002,-19.782998,65.57799)" stroke-width=".3985" stroke-linecap="butt" stroke-miterlimit="10" stroke-linejoin="miter" fill="none" stroke="#000000" d="M223.24243-21.26073C230.759-28.77731 217.14527-29.96837 220.91367-24.58658"/>
<path transform="matrix(.57356,-.8191564,-.81914,-.5735715,200.14517,91.57251)" d="M4.21463 0 .64343 1.34572 1.8178 0 .64343-1.34572Z"/>
<path transform="matrix(.57356,-.8191564,-.81914,-.5735715,200.14517,91.57251)" stroke-width=".3985" stroke-linecap="butt" stroke-miterlimit="10" stroke-linejoin="miter" fill="none" stroke="#000000" d="M4.21463 0 .64343 1.34572 1.8178 0 .64343-1.34572Z"/>
<path transform="matrix(1,0,0,-1.00002,-19.782998,65.57799)" stroke-width=".3985" stroke-linecap="butt" stroke-miterlimit="10" stroke-linejoin="miter" fill="none" stroke="#000000" d="M180.72093-53.15186C188.2375-60.66843 174.62377-61.85948 178.39217-56.47769"/>
<path transform="matrix(.57356,-.8191564,-.81914,-.5735715,157.62369,123.46428)" d="M4.21463 0 .64343 1.34572 1.8178 0 .64343-1.34572Z"/>
<path transform="matrix(.57356,-.8191564,-.81914,-.5735715,157.62369,123.46428)" stroke-width=".3985" stroke-linecap="butt" stroke-miterlimit="10" stroke-linejoin="miter" fill="none" stroke="#000000" d="M4.21463 0 .64343 1.34572 1.8178 0 .64343-1.34572Z"/>
<path transform="matrix(1,0,0,-1.00002,-19.782998,65.57799)" stroke-width=".3985" stroke-linecap="butt" stroke-miterlimit="10" stroke-linejoin="miter" fill="none" stroke="#000000" d="M223.24243 21.26073V-18.19682"/>
<path transform="matrix(0,1.00002,1,0,203.45944,82.05696)" d="M4.21463 0 .64343 1.34572 1.8178 0 .64343-1.34572Z"/>
<path transform="matrix(0,1.00002,1,0,203.45944,82.05696)" stroke-width=".3985" stroke-linecap="butt" stroke-miterlimit="10" stroke-linejoin="miter" fill="none" stroke="#000000" d="M4.21463 0 .64343 1.34572 1.8178 0 .64343-1.34572Z"/>
<path transform="matrix(1,0,0,-1.00002,-19.782998,65.57799)" stroke-width=".3985" stroke-linecap="butt" stroke-miterlimit="10" stroke-linejoin="miter" fill="none" stroke="#000000" d="M180.72093 0V-50.08794"/>
<path transform="matrix(0,1.00002,1,0,160.93793,113.94871)" d="M4.21463 0 .64343 1.34572 1.8178 0 .64343-1.34572Z"/>
<path transform="matrix(0,1.00002,1,0,160.93793,113.94871)" stroke-width=".3985" stroke-linecap="butt" stroke-miterlimit="10" stroke-linejoin="miter" fill="none" stroke="#000000" d="M4.21463 0 .64343 1.34572 1.8178 0 .64343-1.34572Z"/>
<path transform="matrix(1,0,0,-1.00002,-19.782998,65.57799)" stroke-width=".3985" stroke-linecap="butt" stroke-miterlimit="10" stroke-linejoin="miter" fill="none" stroke="#000000" d="M180.72093 53.15186V3.0639"/>
<path transform="matrix(0,1.00002,1,0,160.93793,60.795804)" d="M4.21463 0 .64343 1.34572 1.8178 0 .64343-1.34572Z"/>
<path transform="matrix(0,1.00002,1,0,160.93793,60.795804)" stroke-width=".3985" stroke-linecap="butt" stroke-miterlimit="10" stroke-linejoin="miter" fill="none" stroke="#000000" d="M4.21463 0 .64343 1.34572 1.8178 0 .64343-1.34572Z"/>
<path transform="matrix(1,0,0,-1.00002,-19.782998,65.57799)" stroke-width=".3985" stroke-linecap="butt" stroke-miterlimit="10" stroke-linejoin="miter" fill="none" stroke="#000000" d="M182.84706-53.15186 219.71508 18.53487"/>
<path transform="matrix(.45734,-.8892678,-.88925,-.45734916,199.14627,48.57068)" d="M4.21463 0 .64343 1.34572 1.8178 0 .64343-1.34572Z"/>
<path transform="matrix(.45734,-.8892678,-.88925,-.45734916,199.14627,48.57068)" stroke-width=".3985" stroke-linecap="butt" stroke-miterlimit="10" stroke-linejoin="miter" fill="none" stroke="#000000" d="M4.21463 0 .64343 1.34572 1.8178 0 .64343-1.34572Z"/>
<path transform="matrix(1,0,0,-1.00002,-19.782998,65.57799)" stroke-width=".3985" stroke-linecap="butt" stroke-miterlimit="10" stroke-linejoin="miter" fill="none" stroke="#000000" d="M182.84706 0 218.43799-19.77278"/>
<path transform="matrix(.87415,.4856497,.48564,-.8741675,197.15305,84.516719)" d="M4.21463 0 .64343 1.34572 1.8178 0 .64343-1.34572Z"/>
<path transform="matrix(.87415,.4856497,.48564,-.8741675,197.15305,84.516719)" stroke-width=".3985" stroke-linecap="butt" stroke-miterlimit="10" stroke-linejoin="miter" fill="none" stroke="#000000" d="M4.21463 0 .64343 1.34572 1.8178 0 .64343-1.34572Z"/>
<path transform="matrix(1,0,0,-1.00002,-19.782998,65.57799)" stroke-width=".3985" stroke-linecap="butt" stroke-miterlimit="10" stroke-linejoin="miter" fill="none" stroke="#000000" d="M182.84706 53.15186 219.71512-18.53615"/>
<path transform="matrix(.45732,.8892678,.88925,-.45732916,199.14636,82.58659)" d="M4.21463 0 .64343 1.34572 1.8178 0 .64343-1.34572Z"/>
<path transform="matrix(.45732,.8892678,.88925,-.45732916,199.14636,82.58659)" stroke-width=".3985" stroke-linecap="butt" stroke-miterlimit="10" stroke-linejoin="miter" fill="none" stroke="#000000" d="M4.21463 0 .64343 1.34572 1.8178 0 .64343-1.34572Z"/>
<path transform="matrix(1,0,0,-1.00002,-19.782998,65.57799)" stroke-width=".3985" stroke-linecap="butt" stroke-miterlimit="10" stroke-linejoin="miter" fill="none" stroke="#000000" d="M361.4309-191.34549V-106.30505H382.691V-191.34549ZM382.691-106.30505"/>
<path transform="matrix(1,0,0,-1.00002,-19.782998,65.57799)" stroke-width=".3985" stroke-linecap="butt" stroke-miterlimit="10" stroke-linejoin="miter" fill="none" stroke="#000000" d="M318.91069-212.60559V-85.04494H340.17079V-212.60559ZM340.17079-85.04494"/>
<path transform="matrix(1,0,0,-1.00002,-19.782998,65.57799)" d="M373.19306-127.56905C373.19306-126.95007 372.69126-126.44829 372.07228-126.44829 371.4533-126.44829 370.9515-126.95007 370.9515-127.56905 370.9515-128.18804 371.4533-128.68982 372.07228-128.68982 372.69126-128.68982 373.19306-128.18804 373.19306-127.56905ZM372.07228-127.56905"/>
<path transform="matrix(1,0,0,-1.00002,-19.782998,65.57799)" stroke-width=".3985" stroke-linecap="butt" stroke-miterlimit="10" stroke-linejoin="miter" fill="none" stroke="#000000" d="M373.19306-127.56905C373.19306-126.95007 372.69126-126.44829 372.07228-126.44829 371.4533-126.44829 370.9515-126.95007 370.9515-127.56905 370.9515-128.18804 371.4533-128.68982 372.07228-128.68982 372.69126-128.68982 373.19306-128.18804 373.19306-127.56905ZM372.07228-127.56905"/>
<use data-text="x" xlink:href="#font_1_1" transform="matrix(9.9626,0,0,-9.962799,355.80903,195.29459)"/>
<path transform="matrix(1,0,0,-1.00002,-19.782998,65.57799)" d="M373.19306-170.09055C373.19306-169.47158 372.69126-168.96979 372.07228-168.96979 371.4533-168.96979 370.9515-169.47158 370.9515-170.09055 370.9515-170.70954 371.4533-171.21132 372.07228-171.21132 372.69126-171.21132 373.19306-170.70954 373.19306-170.09055ZM372.07228-170.09055"/>
<path transform="matrix(1,0,0,-1.00002,-19.782998,65.57799)" stroke-width=".3985" stroke-linecap="butt" stroke-miterlimit="10" stroke-linejoin="miter" fill="none" stroke="#000000" d="M373.19306-170.09055C373.19306-169.47158 372.69126-168.96979 372.07228-168.96979 371.4533-168.96979 370.9515-169.47158 370.9515-170.09055 370.9515-170.70954 371.4533-171.21132 372.07228-171.21132 372.69126-171.21132 373.19306-170.70954 373.19306-170.09055ZM372.07228-170.09055"/>
<use data-text="0" xlink:href="#font_2_2" transform="matrix(9.9626,0,0,-9.962799,355.80903,238.88245)"/>
<path transform="matrix(1,0,0,-1.00002,-19.782998,65.57799)" d="M330.67155-95.67792C330.67155-95.05893 330.16975-94.55714 329.55079-94.55714 328.9318-94.55714 328.43003-95.05893 328.43003-95.67792 328.43003-96.29689 328.9318-96.79868 329.55079-96.79868 330.16975-96.79868 330.67155-96.29689 330.67155-95.67792ZM329.55079-95.67792"/>
<path transform="matrix(1,0,0,-1.00002,-19.782998,65.57799)" stroke-width=".3985" stroke-linecap="butt" stroke-miterlimit="10" stroke-linejoin="miter" fill="none" stroke="#000000" d="M330.67155-95.67792C330.67155-95.05893 330.16975-94.55714 329.55079-94.55714 328.9318-94.55714 328.43003-95.05893 328.43003-95.67792 328.43003-96.29689 328.9318-96.79868 329.55079-96.79868 330.16975-96.79868 330.67155-96.29689 330.67155-95.67792ZM329.55079-95.67792"/>
<use data-text="&#x00af;" xlink:href="#font_2_1" transform="matrix(9.9626,0,0,-9.962799,301.69,163.11795)"/>
<use data-text="y" xlink:href="#font_1_2" transform="matrix(9.9626,0,0,-9.962799,301.006,163.11795)"/>
<path transform="matrix(1,0,0,-1.00002,-19.782998,65.57799)" d="M330.67155-148.82979C330.67155-148.21082 330.16975-147.70903 329.55079-147.70903 328.9318-147.70903 328.43003-148.21082 328.43003-148.82979 328.43003-149.44878 328.9318-149.95056 329.55079-149.95056 330.16975-149.95056 330.67155-149.44878 330.67155-148.82979ZM329.55079-148.82979"/>
<path transform="matrix(1,0,0,-1.00002,-19.782998,65.57799)" stroke-width=".3985" stroke-linecap="butt" stroke-miterlimit="10" stroke-linejoin="miter" fill="none" stroke="#000000" d="M330.67155-148.82979C330.67155-148.21082 330.16975-147.70903 329.55079-147.70903 328.9318-147.70903 328.43003-148.21082 328.43003-148.82979 328.43003-149.44878 328.9318-149.95056 329.55079-149.95056 330.16975-149.95056 330.67155-149.44878 330.67155-148.82979ZM329.55079-148.82979"/>
<use data-text="y" xlink:href="#font_1_2" transform="matrix(9.9626,0,0,-9.962799,301.006,215.587)"/>
<path transform="matrix(1,0,0,-1.00002,-19.782998,65.57799)" d="M330.67155-201.98169C330.67155-201.3627 330.16975-200.86092 329.55079-200.86092 328.9318-200.86092 328.43003-201.3627 328.43003-201.98169 328.43003-202.60066 328.9318-203.10245 329.55079-203.10245 330.16975-203.10245 330.67155-202.60066 330.67155-201.98169ZM329.55079-201.98169"/>
<path transform="matrix(1,0,0,-1.00002,-19.782998,65.57799)" stroke-width=".3985" stroke-linecap="butt" stroke-miterlimit="10" stroke-linejoin="miter" fill="none" stroke="#000000" d="M330.67155-201.98169C330.67155-201.3627 330.16975-200.86092 329.55079-200.86092 328.9318-200.86092 328.43003-201.3627 328.43003-201.98169 328.43003-202.60066 328.9318-203.10245 329.55079-203.10245 330.16975-203.10245 330.67155-202.60066 330.67155-201.98169ZM329.55079-201.98169"/>
<use data-text="0" xlink:href="#font_2_2" transform="matrix(9.9626,0,0,-9.962799,301.267,270.7741)"/>
<path transform="matrix(1,0,0,-1.00002,-19.782998,65.57799)" stroke-width=".3985" stroke-linecap="butt" stroke-miterlimit="10" stroke-linejoin="miter" fill="none" stroke="#000000" d="M372.07228-170.09055C379.58888-177.60712 365.97514-178.79819 369.74354-173.4164"/>
<path transform="matrix(.57356,-.8191564,-.81914,-.5735715,348.975,240.4053)" d="M4.21463 0 .64343 1.34572 1.8178 0 .64343-1.34572Z"/>
<path transform="matrix(.57356,-.8191564,-.81914,-.5735715,348.975,240.4053)" stroke-width=".3985" stroke-linecap="butt" stroke-miterlimit="10" stroke-linejoin="miter" fill="none" stroke="#000000" d="M4.21463 0 .64343 1.34572 1.8178 0 .64343-1.34572Z"/>
<path transform="matrix(1,0,0,-1.00002,-19.782998,65.57799)" stroke-width=".3985" stroke-linecap="butt" stroke-miterlimit="10" stroke-linejoin="miter" fill="none" stroke="#000000" d="M329.55079-201.98169C337.06736-209.49826 323.4536-210.68932 327.22203-205.30753"/>
<path transform="matrix(.57356,-.8191564,-.81914,-.5735715,306.45353,272.2971)" d="M4.21463 0 .64343 1.34572 1.8178 0 .64343-1.34572Z"/>
<path transform="matrix(.57356,-.8191564,-.81914,-.5735715,306.45353,272.2971)" stroke-width=".3985" stroke-linecap="butt" stroke-miterlimit="10" stroke-linejoin="miter" fill="none" stroke="#000000" d="M4.21463 0 .64343 1.34572 1.8178 0 .64343-1.34572Z"/>
<path transform="matrix(1,0,0,-1.00002,-19.782998,65.57799)" stroke-width=".3985" stroke-linecap="butt" stroke-miterlimit="10" stroke-linejoin="miter" fill="none" stroke="#000000" d="M372.07228-127.56905V-167.02664"/>
<path transform="matrix(0,1.00002,1,0,352.28929,230.88976)" d="M4.21463 0 .64343 1.34572 1.8178 0 .64343-1.34572Z"/>
<path transform="matrix(0,1.00002,1,0,352.28929,230.88976)" stroke-width=".3985" stroke-linecap="butt" stroke-miterlimit="10" stroke-linejoin="miter" fill="none" stroke="#000000" d="M4.21463 0 .64343 1.34572 1.8178 0 .64343-1.34572Z"/>
<path transform="matrix(1,0,0,-1.00002,-19.782998,65.57799)" stroke-width=".3985" stroke-linecap="butt" stroke-miterlimit="10" stroke-linejoin="miter" fill="none" stroke="#000000" d="M329.55079-148.82979V-198.91777"/>
<path transform="matrix(0,1.00002,1,0,309.7678,262.78153)" d="M4.21463 0 .64343 1.34572 1.8178 0 .64343-1.34572Z"/>
<path transform="matrix(0,1.00002,1,0,309.7678,262.78153)" stroke-width=".3985" stroke-linecap="butt" stroke-miterlimit="10" stroke-linejoin="miter" fill="none" stroke="#000000" d="M4.21463 0 .64343 1.34572 1.8178 0 .64343-1.34572Z"/>
<path transform="matrix(1,0,0,-1.00002,-19.782998,65.57799)" stroke-width=".3985" stroke-linecap="butt" stroke-miterlimit="10" stroke-linejoin="miter" fill="none" stroke="#000000" d="M329.55079-95.67792V-145.76589"/>
<path transform="matrix(0,1.00002,1,0,309.7678,209.62857)" d="M4.21463 0 .64343 1.34572 1.8178 0 .64343-1.34572Z"/>
<path transform="matrix(0,1.00002,1,0,309.7678,209.62857)" stroke-width=".3985" stroke-linecap="butt" stroke-miterlimit="10" stroke-linejoin="miter" fill="none" stroke="#000000" d="M4.21463 0 .64343 1.34572 1.8178 0 .64343-1.34572Z"/>
<path transform="matrix(1,0,0,-1.00002,-19.782998,65.57799)" stroke-width=".3985" stroke-linecap="butt" stroke-miterlimit="10" stroke-linejoin="miter" fill="none" stroke="#000000" d="M331.6769-201.98169 368.5449-130.29492"/>
<path transform="matrix(.45734,-.8892678,-.88925,-.45734916,347.97615,197.40345)" d="M4.21463 0 .64343 1.34572 1.8178 0 .64343-1.34572Z"/>
<path transform="matrix(.45734,-.8892678,-.88925,-.45734916,347.97615,197.40345)" stroke-width=".3985" stroke-linecap="butt" stroke-miterlimit="10" stroke-linejoin="miter" fill="none" stroke="#000000" d="M4.21463 0 .64343 1.34572 1.8178 0 .64343-1.34572Z"/>
<path transform="matrix(1,0,0,-1.00002,-19.782998,65.57799)" stroke-width=".3985" stroke-linecap="butt" stroke-miterlimit="10" stroke-linejoin="miter" fill="none" stroke="#000000" d="M331.6769-148.82979 367.26786-168.6026"/>
<path transform="matrix(.87415,.4856497,.48564,-.8741675,345.9829,233.34952)" d="M4.21463 0 .64343 1.34572 1.8178 0 .64343-1.34572Z"/>
<path transform="matrix(.87415,.4856497,.48564,-.8741675,345.9829,233.34952)" stroke-width=".3985" stroke-linecap="butt" stroke-miterlimit="10" stroke-linejoin="miter" fill="none" stroke="#000000" d="M4.21463 0 .64343 1.34572 1.8178 0 .64343-1.34572Z"/>
<path transform="matrix(1,0,0,-1.00002,-19.782998,65.57799)" stroke-width=".3985" stroke-linecap="butt" stroke-miterlimit="10" stroke-linejoin="miter" fill="none" stroke="#000000" d="M331.6769-95.67792 367.59254-125.60892"/>
<path transform="matrix(.76817,.6401828,.64017,-.7681854,346.4897,190.08948)" d="M4.21463 0 .64343 1.34572 1.8178 0 .64343-1.34572Z"/>
<path transform="matrix(.76817,.6401828,.64017,-.7681854,346.4897,190.08948)" stroke-width=".3985" stroke-linecap="butt" stroke-miterlimit="10" stroke-linejoin="miter" fill="none" stroke="#000000" d="M4.21463 0 .64343 1.34572 1.8178 0 .64343-1.34572Z"/>
<path transform="matrix(1,0,0,-1.00002,-19.782998,65.57799)" stroke-width=".3985" stroke-linecap="butt" stroke-miterlimit="10" stroke-linejoin="miter" fill="none" stroke="#000000" d="M63.7803-191.34549V-106.30505H85.04042V-191.34549ZM85.04042-106.30505"/>
<path transform="matrix(1,0,0,-1.00002,-19.782998,65.57799)" stroke-width=".3985" stroke-linecap="butt" stroke-miterlimit="10" stroke-linejoin="miter" fill="none" stroke="#000000" d="M21.2601-212.60559V-85.04494H42.5202V-212.60559ZM42.5202-85.04494"/>
<path transform="matrix(1,0,0,-1.00002,-19.782998,65.57799)" d="M75.53339-127.56905C75.53339-126.95007 75.0316-126.44829 74.41263-126.44829 73.79366-126.44829 73.29185-126.95007 73.29185-127.56905 73.29185-128.18804 73.79366-128.68982 74.41263-128.68982 75.0316-128.68982 75.53339-128.18804 75.53339-127.56905ZM74.41263-127.56905"/>
<path transform="matrix(1,0,0,-1.00002,-19.782998,65.57799)" stroke-width=".3985" stroke-linecap="butt" stroke-miterlimit="10" stroke-linejoin="miter" fill="none" stroke="#000000" d="M75.53339-127.56905C75.53339-126.95007 75.0316-126.44829 74.41263-126.44829 73.79366-126.44829 73.29185-126.95007 73.29185-127.56905 73.29185-128.18804 73.79366-128.68982 74.41263-128.68982 75.0316-128.68982 75.53339-128.18804 75.53339-127.56905ZM74.41263-127.56905"/>
<use data-text="x" xlink:href="#font_1_1" transform="matrix(9.9626,0,0,-9.962799,58.149003,195.29459)"/>
<path transform="matrix(1,0,0,-1.00002,-19.782998,65.57799)" d="M75.53339-170.09055C75.53339-169.47158 75.0316-168.96979 74.41263-168.96979 73.79366-168.96979 73.29185-169.47158 73.29185-170.09055 73.29185-170.70954 73.79366-171.21132 74.41263-171.21132 75.0316-171.21132 75.53339-170.70954 75.53339-170.09055ZM74.41263-170.09055"/>
<path transform="matrix(1,0,0,-1.00002,-19.782998,65.57799)" stroke-width=".3985" stroke-linecap="butt" stroke-miterlimit="10" stroke-linejoin="miter" fill="none" stroke="#000000" d="M75.53339-170.09055C75.53339-169.47158 75.0316-168.96979 74.41263-168.96979 73.79366-168.96979 73.29185-169.47158 73.29185-170.09055 73.29185-170.70954 73.79366-171.21132 74.41263-171.21132 75.0316-171.21132 75.53339-170.70954 75.53339-170.09055ZM74.41263-170.09055"/>
<use data-text="0" xlink:href="#font_2_2" transform="matrix(9.9626,0,0,-9.962799,58.149003,238.88245)"/>
<path transform="matrix(1,0,0,-1.00002,-19.782998,65.57799)" d="M33.01187-95.67792C33.01187-95.05893 32.51007-94.55714 31.8911-94.55714 31.27213-94.55714 30.77032-95.05893 30.77032-95.67792 30.77032-96.29689 31.27213-96.79868 31.8911-96.79868 32.51007-96.79868 33.01187-96.29689 33.01187-95.67792ZM31.8911-95.67792"/>
<path transform="matrix(1,0,0,-1.00002,-19.782998,65.57799)" stroke-width=".3985" stroke-linecap="butt" stroke-miterlimit="10" stroke-linejoin="miter" fill="none" stroke="#000000" d="M33.01187-95.67792C33.01187-95.05893 32.51007-94.55714 31.8911-94.55714 31.27213-94.55714 30.77032-95.05893 30.77032-95.67792 30.77032-96.29689 31.27213-96.79868 31.8911-96.79868 32.51007-96.79868 33.01187-96.29689 33.01187-95.67792ZM31.8911-95.67792"/>
<use data-text="&#x00af;" xlink:href="#font_2_1" transform="matrix(9.9626,0,0,-9.962799,4.029999,163.11795)"/>
<use data-text="y" xlink:href="#font_1_2" transform="matrix(9.9626,0,0,-9.962799,3.3460007,163.11795)"/>
<path transform="matrix(1,0,0,-1.00002,-19.782998,65.57799)" d="M33.01187-148.82979C33.01187-148.21082 32.51007-147.70903 31.8911-147.70903 31.27213-147.70903 30.77032-148.21082 30.77032-148.82979 30.77032-149.44878 31.27213-149.95056 31.8911-149.95056 32.51007-149.95056 33.01187-149.44878 33.01187-148.82979ZM31.8911-148.82979"/>
<path transform="matrix(1,0,0,-1.00002,-19.782998,65.57799)" stroke-width=".3985" stroke-linecap="butt" stroke-miterlimit="10" stroke-linejoin="miter" fill="none" stroke="#000000" d="M33.01187-148.82979C33.01187-148.21082 32.51007-147.70903 31.8911-147.70903 31.27213-147.70903 30.77032-148.21082 30.77032-148.82979 30.77032-149.44878 31.27213-149.95056 31.8911-149.95056 32.51007-149.95056 33.01187-149.44878 33.01187-148.82979ZM31.8911-148.82979"/>
<use data-text="y" xlink:href="#font_1_2" transform="matrix(9.9626,0,0,-9.962799,3.3460007,215.587)"/>
<path transform="matrix(1,0,0,-1.00002,-19.782998,65.57799)" d="M33.01187-201.98169C33.01187-201.3627 32.51007-200.86092 31.8911-200.86092 31.27213-200.86092 30.77032-201.3627 30.77032-201.98169 30.77032-202.60066 31.27213-203.10245 31.8911-203.10245 32.51007-203.10245 33.01187-202.60066 33.01187-201.98169ZM31.8911-201.98169"/>
<path transform="matrix(1,0,0,-1.00002,-19.782998,65.57799)" stroke-width=".3985" stroke-linecap="butt" stroke-miterlimit="10" stroke-linejoin="miter" fill="none" stroke="#000000" d="M33.01187-201.98169C33.01187-201.3627 32.51007-200.86092 31.8911-200.86092 31.27213-200.86092 30.77032-201.3627 30.77032-201.98169 30.77032-202.60066 31.27213-203.10245 31.8911-203.10245 32.51007-203.10245 33.01187-202.60066 33.01187-201.98169ZM31.8911-201.98169"/>
<use data-text="0" xlink:href="#font_2_2" transform="matrix(9.9626,0,0,-9.962799,3.6070023,270.7741)"/>
<path transform="matrix(1,0,0,-1.00002,-19.782998,65.57799)" stroke-width=".3985" stroke-linecap="butt" stroke-miterlimit="10" stroke-linejoin="miter" fill="none" stroke="#000000" d="M74.41263-170.09055C81.9292-177.60712 68.31546-178.79819 72.08386-173.4164"/>
<path transform="matrix(.57356,-.8191564,-.81914,-.5735715,51.315378,240.4053)" d="M4.21463 0 .64343 1.34572 1.8178 0 .64343-1.34572Z"/>
<path transform="matrix(.57356,-.8191564,-.81914,-.5735715,51.315378,240.4053)" stroke-width=".3985" stroke-linecap="butt" stroke-miterlimit="10" stroke-linejoin="miter" fill="none" stroke="#000000" d="M4.21463 0 .64343 1.34572 1.8178 0 .64343-1.34572Z"/>
<path transform="matrix(1,0,0,-1.00002,-19.782998,65.57799)" stroke-width=".3985" stroke-linecap="butt" stroke-miterlimit="10" stroke-linejoin="miter" fill="none" stroke="#000000" d="M31.8911-201.98169C39.40767-209.49826 25.79393-210.68932 29.56233-205.30753"/>
<path transform="matrix(.57356,-.8191564,-.81914,-.5735715,8.793842,272.2971)" d="M4.21463 0 .64343 1.34572 1.8178 0 .64343-1.34572Z"/>
<path transform="matrix(.57356,-.8191564,-.81914,-.5735715,8.793842,272.2971)" stroke-width=".3985" stroke-linecap="butt" stroke-miterlimit="10" stroke-linejoin="miter" fill="none" stroke="#000000" d="M4.21463 0 .64343 1.34572 1.8178 0 .64343-1.34572Z"/>
<path transform="matrix(1,0,0,-1.00002,-19.782998,65.57799)" stroke-width=".3985" stroke-linecap="butt" stroke-miterlimit="10" stroke-linejoin="miter" fill="none" stroke="#000000" d="M74.41263-127.56905V-167.02664"/>
<path transform="matrix(0,1.00002,1,0,54.62963,230.88976)" d="M4.21463 0 .64343 1.34572 1.8178 0 .64343-1.34572Z"/>
<path transform="matrix(0,1.00002,1,0,54.62963,230.88976)" stroke-width=".3985" stroke-linecap="butt" stroke-miterlimit="10" stroke-linejoin="miter" fill="none" stroke="#000000" d="M4.21463 0 .64343 1.34572 1.8178 0 .64343-1.34572Z"/>
<path transform="matrix(1,0,0,-1.00002,-19.782998,65.57799)" stroke-width=".3985" stroke-linecap="butt" stroke-miterlimit="10" stroke-linejoin="miter" fill="none" stroke="#000000" d="M31.8911-148.82979V-198.91777"/>
<path transform="matrix(0,1.00002,1,0,12.108103,262.78153)" d="M4.21463 0 .64343 1.34572 1.8178 0 .64343-1.34572Z"/>
<path transform="matrix(0,1.00002,1,0,12.108103,262.78153)" stroke-width=".3985" stroke-linecap="butt" stroke-miterlimit="10" stroke-linejoin="miter" fill="none" stroke="#000000" d="M4.21463 0 .64343 1.34572 1.8178 0 .64343-1.34572Z"/>
<path transform="matrix(1,0,0,-1.00002,-19.782998,65.57799)" stroke-width=".3985" stroke-linecap="butt" stroke-miterlimit="10" stroke-linejoin="miter" fill="none" stroke="#000000" d="M31.8911-95.67792V-145.76589"/>
<path transform="matrix(0,1.00002,1,0,12.108103,209.62857)" d="M4.21463 0 .64343 1.34572 1.8178 0 .64343-1.34572Z"/>
<path transform="matrix(0,1.00002,1,0,12.108103,209.62857)" stroke-width=".3985" stroke-linecap="butt" stroke-miterlimit="10" stroke-linejoin="miter" fill="none" stroke="#000000" d="M4.21463 0 .64343 1.34572 1.8178 0 .64343-1.34572Z"/>
<path transform="matrix(1,0,0,-1.00002,-19.782998,65.57799)" stroke-width=".3985" stroke-linecap="butt" stroke-miterlimit="10" stroke-linejoin="miter" fill="none" stroke="#000000" d="M34.01723-201.98169 70.88527-130.29492"/>
<path transform="matrix(.45734,-.8892678,-.88925,-.45734916,50.316476,197.40345)" d="M4.21463 0 .64343 1.34572 1.8178 0 .64343-1.34572Z"/>
<path transform="matrix(.45734,-.8892678,-.88925,-.45734916,50.316476,197.40345)" stroke-width=".3985" stroke-linecap="butt" stroke-miterlimit="10" stroke-linejoin="miter" fill="none" stroke="#000000" d="M4.21463 0 .64343 1.34572 1.8178 0 .64343-1.34572Z"/>
<path transform="matrix(1,0,0,-1.00002,-19.782998,65.57799)" stroke-width=".3985" stroke-linecap="butt" stroke-miterlimit="10" stroke-linejoin="miter" fill="none" stroke="#000000" d="M34.01723-148.82979 69.6082-129.05825"/>
<path transform="matrix(.87415,-.48563973,-.48563,-.8741675,48.32325,195.4732)" d="M4.21463 0 .64343 1.34572 1.8178 0 .64343-1.34572Z"/>
<path transform="matrix(.87415,-.48563973,-.48563,-.8741675,48.32325,195.4732)" stroke-width=".3985" stroke-linecap="butt" stroke-miterlimit="10" stroke-linejoin="miter" fill="none" stroke="#000000" d="M4.21463 0 .64343 1.34572 1.8178 0 .64343-1.34572Z"/>
<path transform="matrix(1,0,0,-1.00002,-19.782998,65.57799)" stroke-width=".3985" stroke-linecap="butt" stroke-miterlimit="10" stroke-linejoin="miter" fill="none" stroke="#000000" d="M34.01723-95.67792 70.88531-167.36597"/>
<path transform="matrix(.45732,.8892678,.88925,-.45732916,50.31655,231.41939)" d="M4.21463 0 .64343 1.34572 1.8178 0 .64343-1.34572Z"/>
<path transform="matrix(.45732,.8892678,.88925,-.45732916,50.31655,231.41939)" stroke-width=".3985" stroke-linecap="butt" stroke-miterlimit="10" stroke-linejoin="miter" fill="none" stroke="#000000" d="M4.21463 0 .64343 1.34572 1.8178 0 .64343-1.34572Z"/>
<path transform="matrix(1,0,0,-1.00002,-19.782998,65.57799)" stroke-width=".3985" stroke-linecap="butt" stroke-miterlimit="10" stroke-linejoin="miter" fill="none" stroke="#000000" d="M212.60559-340.17079V-255.13036H233.86569V-340.17079ZM233.86569-255.13036"/>
<path transform="matrix(1,0,0,-1.00002,-19.782998,65.57799)" stroke-width=".3985" stroke-linecap="butt" stroke-miterlimit="10" stroke-linejoin="miter" fill="none" stroke="#000000" d="M170.08538-361.4309V-233.87024H191.34549V-361.4309ZM191.34549-233.87024"/>
<path transform="matrix(1,0,0,-1.00002,-19.782998,65.57799)" d="M224.36319-276.39888C224.36319-275.7799 223.8614-275.2781 223.24243-275.2781 222.62345-275.2781 222.12166-275.7799 222.12166-276.39888 222.12166-277.01789 222.62345-277.51966 223.24243-277.51966 223.8614-277.51966 224.36319-277.01789 224.36319-276.39888ZM223.24243-276.39888"/>
<path transform="matrix(1,0,0,-1.00002,-19.782998,65.57799)" stroke-width=".3985" stroke-linecap="butt" stroke-miterlimit="10" stroke-linejoin="miter" fill="none" stroke="#000000" d="M224.36319-276.39888C224.36319-275.7799 223.8614-275.2781 223.24243-275.2781 222.62345-275.2781 222.12166-275.7799 222.12166-276.39888 222.12166-277.01789 222.62345-277.51966 223.24243-277.51966 223.8614-277.51966 224.36319-277.01789 224.36319-276.39888ZM223.24243-276.39888"/>
<use data-text="x" xlink:href="#font_1_1" transform="matrix(9.9626,0,0,-9.962799,206.979,344.1276)"/>
<path transform="matrix(1,0,0,-1.00002,-19.782998,65.57799)" d="M224.36319-318.92039C224.36319-318.3014 223.8614-317.79963 223.24243-317.79963 222.62345-317.79963 222.12166-318.3014 222.12166-318.92039 222.12166-319.53938 222.62345-320.04115 223.24243-320.04115 223.8614-320.04115 224.36319-319.53938 224.36319-318.92039ZM223.24243-318.92039"/>
<path transform="matrix(1,0,0,-1.00002,-19.782998,65.57799)" stroke-width=".3985" stroke-linecap="butt" stroke-miterlimit="10" stroke-linejoin="miter" fill="none" stroke="#000000" d="M224.36319-318.92039C224.36319-318.3014 223.8614-317.79963 223.24243-317.79963 222.62345-317.79963 222.12166-318.3014 222.12166-318.92039 222.12166-319.53938 222.62345-320.04115 223.24243-320.04115 223.8614-320.04115 224.36319-319.53938 224.36319-318.92039ZM223.24243-318.92039"/>
<use data-text="0" xlink:href="#font_2_2" transform="matrix(9.9626,0,0,-9.962799,206.979,387.71546)"/>
<path transform="matrix(1,0,0,-1.00002,-19.782998,65.57799)" d="M181.84169-244.50775C181.84169-243.88877 181.3399-243.38698 180.72093-243.38698 180.10195-243.38698 179.60016-243.88877 179.60016-244.50775 179.60016-245.12673 180.10195-245.62851 180.72093-245.62851 181.3399-245.62851 181.84169-245.12673 181.84169-244.50775ZM180.72093-244.50775"/>
<path transform="matrix(1,0,0,-1.00002,-19.782998,65.57799)" stroke-width=".3985" stroke-linecap="butt" stroke-miterlimit="10" stroke-linejoin="miter" fill="none" stroke="#000000" d="M181.84169-244.50775C181.84169-243.88877 181.3399-243.38698 180.72093-243.38698 180.10195-243.38698 179.60016-243.88877 179.60016-244.50775 179.60016-245.12673 180.10195-245.62851 180.72093-245.62851 181.3399-245.62851 181.84169-245.12673 181.84169-244.50775ZM180.72093-244.50775"/>
<use data-text="&#x00af;" xlink:href="#font_2_1" transform="matrix(9.9626,0,0,-9.962799,152.86,311.94993)"/>
<use data-text="y" xlink:href="#font_1_2" transform="matrix(9.9626,0,0,-9.962799,152.176,311.94993)"/>
<path transform="matrix(1,0,0,-1.00002,-19.782998,65.57799)" d="M181.84169-297.65965C181.84169-297.04066 181.3399-296.53889 180.72093-296.53889 180.10195-296.53889 179.60016-297.04066 179.60016-297.65965 179.60016-298.27864 180.10195-298.7804 180.72093-298.7804 181.3399-298.7804 181.84169-298.27864 181.84169-297.65965ZM180.72093-297.65965"/>
<path transform="matrix(1,0,0,-1.00002,-19.782998,65.57799)" stroke-width=".3985" stroke-linecap="butt" stroke-miterlimit="10" stroke-linejoin="miter" fill="none" stroke="#000000" d="M181.84169-297.65965C181.84169-297.04066 181.3399-296.53889 180.72093-296.53889 180.10195-296.53889 179.60016-297.04066 179.60016-297.65965 179.60016-298.27864 180.10195-298.7804 180.72093-298.7804 181.3399-298.7804 181.84169-298.27864 181.84169-297.65965ZM180.72093-297.65965"/>
<use data-text="y" xlink:href="#font_1_2" transform="matrix(9.9626,0,0,-9.962799,152.176,364.41999)"/>
<path transform="matrix(1,0,0,-1.00002,-19.782998,65.57799)" d="M181.84169-350.81153C181.84169-350.19255 181.3399-349.69075 180.72093-349.69075 180.10195-349.69075 179.60016-350.19255 179.60016-350.81153 179.60016-351.4305 180.10195-351.93229 180.72093-351.93229 181.3399-351.93229 181.84169-351.4305 181.84169-350.81153ZM180.72093-350.81153"/>
<path transform="matrix(1,0,0,-1.00002,-19.782998,65.57799)" stroke-width=".3985" stroke-linecap="butt" stroke-miterlimit="10" stroke-linejoin="miter" fill="none" stroke="#000000" d="M181.84169-350.81153C181.84169-350.19255 181.3399-349.69075 180.72093-349.69075 180.10195-349.69075 179.60016-350.19255 179.60016-350.81153 179.60016-351.4305 180.10195-351.93229 180.72093-351.93229 181.3399-351.93229 181.84169-351.4305 181.84169-350.81153ZM180.72093-350.81153"/>
<use data-text="0" xlink:href="#font_2_2" transform="matrix(9.9626,0,0,-9.962799,152.43701,419.6071)"/>
<path transform="matrix(1,0,0,-1.00002,-19.782998,65.57799)" stroke-width=".3985" stroke-linecap="butt" stroke-miterlimit="10" stroke-linejoin="miter" fill="none" stroke="#000000" d="M223.24243-318.92039C230.759-326.43699 217.14527-327.62803 220.91367-322.24623"/>
<path transform="matrix(.57356,-.8191564,-.81914,-.5735715,200.14517,389.2381)" d="M4.21463 0 .64343 1.34572 1.8178 0 .64343-1.34572Z"/>
<path transform="matrix(.57356,-.8191564,-.81914,-.5735715,200.14517,389.2381)" stroke-width=".3985" stroke-linecap="butt" stroke-miterlimit="10" stroke-linejoin="miter" fill="none" stroke="#000000" d="M4.21463 0 .64343 1.34572 1.8178 0 .64343-1.34572Z"/>
<path transform="matrix(1,0,0,-1.00002,-19.782998,65.57799)" stroke-width=".3985" stroke-linecap="butt" stroke-miterlimit="10" stroke-linejoin="miter" fill="none" stroke="#000000" d="M180.72093-350.81153C188.2375-358.32814 174.62377-359.51918 178.39217-354.13737"/>
<path transform="matrix(.57356,-.8191564,-.81914,-.5735715,157.62369,421.12989)" d="M4.21463 0 .64343 1.34572 1.8178 0 .64343-1.34572Z"/>
<path transform="matrix(.57356,-.8191564,-.81914,-.5735715,157.62369,421.12989)" stroke-width=".3985" stroke-linecap="butt" stroke-miterlimit="10" stroke-linejoin="miter" fill="none" stroke="#000000" d="M4.21463 0 .64343 1.34572 1.8178 0 .64343-1.34572Z"/>
<path transform="matrix(1,0,0,-1.00002,-19.782998,65.57799)" stroke-width=".3985" stroke-linecap="butt" stroke-miterlimit="10" stroke-linejoin="miter" fill="none" stroke="#000000" d="M223.24243-276.39888V-315.85649"/>
<path transform="matrix(0,1.00002,1,0,203.45944,379.72254)" d="M4.21463 0 .64343 1.34572 1.8178 0 .64343-1.34572Z"/>
<path transform="matrix(0,1.00002,1,0,203.45944,379.72254)" stroke-width=".3985" stroke-linecap="butt" stroke-miterlimit="10" stroke-linejoin="miter" fill="none" stroke="#000000" d="M4.21463 0 .64343 1.34572 1.8178 0 .64343-1.34572Z"/>
<path transform="matrix(1,0,0,-1.00002,-19.782998,65.57799)" stroke-width=".3985" stroke-linecap="butt" stroke-miterlimit="10" stroke-linejoin="miter" fill="none" stroke="#000000" d="M180.72093-297.65965V-347.7476"/>
<path transform="matrix(0,1.00002,1,0,160.93793,411.61433)" d="M4.21463 0 .64343 1.34572 1.8178 0 .64343-1.34572Z"/>
<path transform="matrix(0,1.00002,1,0,160.93793,411.61433)" stroke-width=".3985" stroke-linecap="butt" stroke-miterlimit="10" stroke-linejoin="miter" fill="none" stroke="#000000" d="M4.21463 0 .64343 1.34572 1.8178 0 .64343-1.34572Z"/>
<path transform="matrix(1,0,0,-1.00002,-19.782998,65.57799)" stroke-width=".3985" stroke-linecap="butt" stroke-miterlimit="10" stroke-linejoin="miter" fill="none" stroke="#000000" d="M180.72093-244.50775V-294.59574"/>
<path transform="matrix(0,1.00002,1,0,160.93793,358.46138)" d="M4.21463 0 .64343 1.34572 1.8178 0 .64343-1.34572Z"/>
<path transform="matrix(0,1.00002,1,0,160.93793,358.46138)" stroke-width=".3985" stroke-linecap="butt" stroke-miterlimit="10" stroke-linejoin="miter" fill="none" stroke="#000000" d="M4.21463 0 .64343 1.34572 1.8178 0 .64343-1.34572Z"/>
<path transform="matrix(1,0,0,-1.00002,-19.782998,65.57799)" stroke-width=".3985" stroke-linecap="butt" stroke-miterlimit="10" stroke-linejoin="miter" fill="none" stroke="#000000" d="M182.84706-350.81153 219.71508-279.12477"/>
<path transform="matrix(.45734,-.8892678,-.88925,-.45734916,199.14627,346.23628)" d="M4.21463 0 .64343 1.34572 1.8178 0 .64343-1.34572Z"/>
<path transform="matrix(.45734,-.8892678,-.88925,-.45734916,199.14627,346.23628)" stroke-width=".3985" stroke-linecap="butt" stroke-miterlimit="10" stroke-linejoin="miter" fill="none" stroke="#000000" d="M4.21463 0 .64343 1.34572 1.8178 0 .64343-1.34572Z"/>
<path transform="matrix(1,0,0,-1.00002,-19.782998,65.57799)" stroke-width=".3985" stroke-linecap="butt" stroke-miterlimit="10" stroke-linejoin="miter" fill="none" stroke="#000000" d="M182.84706-297.65965 218.43799-277.8881"/>
<path transform="matrix(.87415,-.48563973,-.48563,-.8741675,197.15305,344.30604)" d="M4.21463 0 .64343 1.34572 1.8178 0 .64343-1.34572Z"/>
<path transform="matrix(.87415,-.48563973,-.48563,-.8741675,197.15305,344.30604)" stroke-width=".3985" stroke-linecap="butt" stroke-miterlimit="10" stroke-linejoin="miter" fill="none" stroke="#000000" d="M4.21463 0 .64343 1.34572 1.8178 0 .64343-1.34572Z"/>
<path transform="matrix(1,0,0,-1.00002,-19.782998,65.57799)" stroke-width=".3985" stroke-linecap="butt" stroke-miterlimit="10" stroke-linejoin="miter" fill="none" stroke="#000000" d="M182.84706-244.50775 218.76268-274.43879"/>
<path transform="matrix(.76817,.6401828,.64017,-.7681854,197.65982,338.9223)" d="M4.21463 0 .64343 1.34572 1.8178 0 .64343-1.34572Z"/>
<path transform="matrix(.76817,.6401828,.64017,-.7681854,197.65982,338.9223)" stroke-width=".3985" stroke-linecap="butt" stroke-miterlimit="10" stroke-linejoin="miter" fill="none" stroke="#000000" d="M4.21463 0 .64343 1.34572 1.8178 0 .64343-1.34572Z"/>
</svg>
