<svg xmlns="http://www.w3.org/2000/svg" xmlns:xlink="http://www.w3.org/1999/xlink" xmlns:inkscape="http://www.inkscape.org/namespaces/inkscape" version="1.1" width="209" height="95" viewBox="0 0 209 95">
<defs>
<path id="font_1_1" d="M.1789856 .114868167C.13899231 .047973634 .099990848 .033981325 .055999757 .0309906 .04399109 .02999878 .034988405 .02999878 .034988405 .010986328 .034988405 .004989624 .039993287 0 .04798889 0 .07499695 0 .10598755 .0029907227 .13398743 .0029907227 .16699219 .0029907227 .20199585 0 .23399353 0 .23999024 0 .25299073 0 .25299073 .018997193 .25299073 .02999878 .24398804 .0309906 .23699951 .0309906 .21398926 .032989503 .18998719 .04096985 .18998719 .06593323 .18998719 .077926639 .19599915 .088897708 .20399475 .102890018L.27999879 .23068238H.5309906C.5329895 .2097168 .5469971 .07392883 .5469971 .063949588 .5469971 .033981325 .49499513 .0309906 .47499085 .0309906 .46099855 .0309906 .45098878 .0309906 .45098878 .010986328 .45098878 0 .46299745 0 .46499635 0 .5059967 0 .548996 .0029907227 .58999636 .0029907227 .61499026 .0029907227 .6779938 0 .7029877 0 .70899966 0 .72099307 0 .72099307 .019989014 .72099307 .0309906 .71099856 .0309906 .69799807 .0309906 .6359863 .0309906 .6359863 .037979127 .6329956 .06694031L.57199099 .691803C.56999209 .71180728 .56999209 .7158203 .5529938 .7158203 .5369873 .7158203 .5329895 .7088165 .5269928 .69880679L.1789856 .114868167M.29899598 .26168824 .49598695 .5917816 .5279999 .26168824H.29899598Z"/>
<path id="font_1_2" d="M.1599884 .07795715C.1499939 .038986207 .147995 .0309906 .068984989 .0309906 .051986696 .0309906 .041992189 .0309906 .041992189 .010986328 .041992189 0 .050994874 0 .068984989 0H.42599488C.58399966 0 .70199587 .11791992 .70199587 .21585083 .70199587 .28778077 .6439972 .3457489 .5469971 .35673524 .651001 .37573243 .7559967 .44970704 .7559967 .5446625 .7559967 .6186218 .6899872 .6826172 .56999209 .6826172H.23399353C.21499634 .6826172 .20498657 .6826172 .20498657 .6626129 .20498657 .6516113 .21398926 .6516113 .23298645 .6516113 .23498535 .6516113 .2539978 .6516113 .2709961 .6496124 .2889862 .6476135 .2979889 .64660647 .2979889 .6336212 .2979889 .6296234 .29699708 .62661746 .2939911 .614624L.1599884 .07795715M.31098939 .36573792 .37298585 .6136322C.38198854 .64860537 .38398744 .6516113 .4269867 .6516113H.55599978C.6439972 .6516113 .6649933 .5926361 .6649933 .5486603 .6649933 .46069337 .57899478 .36573792 .45700074 .36573792H.31098939M.2659912 .0309906C.2519989 .0309906 .25 .0309906 .24398804 .03199768 .23399353 .032989503 .23098755 .033996583 .23098755 .04197693 .23098755 .04498291 .23098755 .04698181 .23599243 .064971927L.30499269 .34375H.49398805C.58999636 .34375 .60899356 .2698059 .60899356 .22683716 .60899356 .12791443 .519989 .0309906 .4019928 .0309906H.2659912Z"/>
<path id="font_1_3" d="M.7599945 .69506838C.7599945 .69807437 .7579956 .7050781 .7489929 .7050781 .74598696 .7050781 .7449951 .70407107 .73399356 .69306948L.6639862 .61602786C.6549988 .6300354 .60899356 .7050781 .49798585 .7050781 .2749939 .7050781 .049987794 .48391725 .049987794 .25172425 .049987794 .08659363 .16799927-.022460938 .32099916-.022460938 .4079895-.022460938 .48399354 .017532349 .5369873 .063583377 .6299896 .14564514 .6469879 .2367096 .6469879 .23971558 .6469879 .24972534 .6369934 .24972534 .6349945 .24972534 .6289978 .24972534 .6239929 .24772644 .621994 .23971558 .61299136 .21069336 .58999636 .13963318 .5209961 .081588748 .45199586 .025543213 .3889923 .008529663 .33699037 .008529663 .24699402 .008529663 .14099121 .060577394 .14099121 .21670532 .14099121 .27374269 .1619873 .43588258 .2619934 .55296328 .32299806 .62402346 .4169922 .67407229 .5059967 .67407229 .60798647 .67407229 .6669922 .5970001 .6669922 .48091126 .6669922 .44088746 .6639862 .43988038 .6639862 .4298706 .6639862 .41986085 .6749878 .41986085 .67900088 .41986085 .69200137 .41986085 .69200137 .42185975 .69699099 .43988038L.7599945 .69506838Z"/>
<path id="font_2_1" d="M.40699769 .39465333H.5049896C.5249939 .39465333 .5379944 .39465333 .5379944 .4166565 .5379944 .43066407 .5249939 .43066407 .5069885 .43066407H.4139862C.43699647 .5580139 .44499208 .6040497 .45298768 .63305667 .45799256 .6550598 .47999574 .6760864 .5039978 .6760864 .5049896 .6760864 .5319977 .6760864 .5509949 .6640625 .5099945 .651062 .5069885 .61505129 .5069885 .60905459 .5069885 .5870514 .5239868 .572052 .5469971 .572052 .57398989 .572052 .60398867 .59506228 .60398867 .63305667 .60398867 .6790924 .5549927 .70410159 .5039978 .70410159 .45999146 .70410159 .41099549 .6790924 .38398744 .62905886 .3639984 .5920563 .35598756 .5469818 .33499146 .43066407H.2559967C.23599243 .43066407 .22299195 .43066407 .22299195 .4086609 .22299195 .39465333 .23599243 .39465333 .2539978 .39465333H.32798768C.32699586 .38865663 .2639923 .028869629 .23999024-.078063968 .23498535-.10006714 .21798706-.17610169 .16999817-.17610169 .16899109-.17610169 .14498902-.17610169 .12599182-.1640625 .16699219-.15107727 .16999817-.11506653 .16999817-.109069827 .16999817-.08706665 .15299988-.07206726 .12998963-.07206726 .102996829-.07206726 .07299805-.095077518 .07299805-.1330719 .07299805-.17811585 .11999512-.20410156 .16999817-.20410156 .23399353-.20410156 .27799989-.13807678 .2899933-.11607361 .32598878-.049087526 .34899903 .07385254 .35099793 .08584595L.40699769 .39465333Z"/>
<path id="font_2_2" d="M.5319977 .36935426C.5359955 .3843689 .5359955 .38937379 .5359955 .39038087 .5359955 .4123993 .5179901 .4223938 .5019989 .4223938 .47898866 .4223938 .45999146 .4033966 .45599366 .3843689 .43899537 .4113922 .40499879 .44140626 .35299684 .44140626 .22799683 .44140626 .09700012 .3072815 .09700012 .1641388 .09700012 .061019899 .16699219 0 .24899292 0 .29499818 0 .33898927 .022994996 .37399293 .054016115L.35198976-.036026C.34098817-.07803345 .33399964-.105041507 .29599-.13903809 .2519989-.17610169 .20899964-.17610169 .18399048-.17610169 .13798523-.17610169 .125-.17308045 .10699463-.16903687 .13198853-.15704346 .13899231-.13304138 .13899231-.11903381 .13899231-.09503174 .11999512-.08203125 .099990848-.08203125 .07199097-.08203125 .042999269-.105041507 .042999269-.14303589 .042999269-.20310974 .1289978-.20410156 .18499756-.20410156 .34199525-.20410156 .40899659-.1240387 .4229889-.06703186L.5319977 .36935426M.3939972 .13310242C.3899994 .11808777 .3899994 .11608887 .37298585 .096069339 .33799745 .054016115 .2899933 .027999878 .2519989 .027999878 .20098877 .027999878 .1769867 .07104492 .1769867 .12309265 .1769867 .16714478 .20399475 .2792511 .22999573 .32330323 .27198792 .39338685 .31900025 .4133911 .35299684 .4133911 .4229889 .4133911 .44198609 .33831788 .44198609 .3283081 .44198609 .3263092 .44198609 .3243103 .43899537 .31329347L.3939972 .13310242Z"/>
<path id="font_3_1" d="M.8799896 .2223053C.8959961 .2223053 .9229889 .2223053 .9229889 .25030519 .9229889 .2783203 .8959961 .2783203 .8799896 .2783203H.20298767C.18699646 .2783203 .1599884 .2783203 .1599884 .25030519 .1599884 .2223053 .18699646 .2223053 .20298767 .2223053H.8799896Z"/>
<path id="font_4_1" d="M.397995 .63591006C.397995 .6660156 .394989 .6660156 .3619995 .6660156 .29100038 .6016083 .17999268 .6016083 .1599884 .6016083H.14299011V.5576172H.1599884C.18299866 .5576172 .24798584 .5606079 .30599977 .58561709V.08596802C.30599977 .054977418 .30599977 .04399109 .19999695 .04399109H.1499939V0C.20498657 .0039978029 .2939911 .0039978029 .35198976 .0039978029 .4099884 .0039978029 .49899293 .0039978029 .55400088 0V.04399109H.5039978C.397995 .04399109 .397995 .054977418 .397995 .08596802V.63591006Z"/>
<path id="font_5_1" d="M.5069885 .24998474C.5069885 .3710022 .4099884 .4650116 .2919922 .4650116 .17199707 .4650116 .07699585 .36799623 .07699585 .25097657 .07699585 .1299591 .17399597 .035949708 .2919922 .035949708 .4119873 .035949708 .5069885 .13296509 .5069885 .24998474M.2919922 .08496094C.19799805 .08496094 .12599182 .16096497 .12599182 .24998474 .12599182 .34300233 .19999695 .41601563 .2919922 .41601563 .38598634 .41601563 .45799256 .33999635 .45799256 .25097657 .45799256 .15795899 .38398744 .08496094 .2919922 .08496094Z"/>
</defs>
<use data-text="A" xlink:href="#font_1_1" transform="matrix(9.962799,0,0,-9.962899,1.2167282,49.992139)"/>
<use data-text="B" xlink:href="#font_1_2" transform="matrix(9.962799,0,0,-9.962899,100.13971,49.992139)"/>
<use data-text="C" xlink:href="#font_1_3" transform="matrix(9.962799,0,0,-9.962899,199.4677,49.992139)"/>
<path transform="matrix(1.00002,0,0,-1.00003,4.9528048,46.588037)" stroke-width=".3985" stroke-linecap="butt" stroke-miterlimit="10" stroke-linejoin="miter" fill="none" stroke="#000000" d="M7.25717 1.96432H88.61853"/>
<path transform="matrix(1.00002,0,0,-1.00003,91.85488,44.623659)" d="M4.21463 0 .64343 1.34572 1.8178 0 .64343-1.34572Z"/>
<path transform="matrix(1.00002,0,0,-1.00003,91.85488,44.623659)" stroke-width=".3985" stroke-linecap="butt" stroke-miterlimit="10" stroke-linejoin="miter" fill="none" stroke="#000000" d="M4.21463 0 .64343 1.34572 1.8178 0 .64343-1.34572Z"/>
<use data-text="f" xlink:href="#font_2_1" transform="matrix(6.97394,0,0,-6.9740097,52.08975,39.74783)"/>
<path transform="matrix(1.00002,0,0,-1.00003,4.9528048,46.588037)" stroke-width=".3985" stroke-linecap="butt" stroke-miterlimit="10" stroke-linejoin="miter" fill="none" stroke="#000000" d="M106.78151 1.96432H187.96225"/>
<path transform="matrix(1.00002,0,0,-1.00003,191.20059,44.623659)" d="M4.21463 0 .64343 1.34572 1.8178 0 .64343-1.34572Z"/>
<path transform="matrix(1.00002,0,0,-1.00003,191.20059,44.623659)" stroke-width=".3985" stroke-linecap="butt" stroke-miterlimit="10" stroke-linejoin="miter" fill="none" stroke="#000000" d="M4.21463 0 .64343 1.34572 1.8178 0 .64343-1.34572Z"/>
<use data-text="g" xlink:href="#font_2_2" transform="matrix(6.97394,0,0,-6.9740097,151.79076,39.74783)"/>
<path transform="matrix(1.00002,0,0,-1.00003,4.9528048,46.588037)" stroke-width=".3985" stroke-linecap="butt" stroke-miterlimit="10" stroke-linejoin="miter" fill="none" stroke="#000000" d="M91.68243-1.96432H10.32109"/>
<path transform="matrix(-1.00002,-0,0,1.00003,16.992325,48.552415)" d="M4.21463 0 .64343 1.34572 1.8178 0 .64343-1.34572Z"/>
<path transform="matrix(-1.00002,-0,0,1.00003,16.992325,48.552415)" stroke-width=".3985" stroke-linecap="butt" stroke-miterlimit="10" stroke-linejoin="miter" fill="none" stroke="#000000" d="M4.21463 0 .64343 1.34572 1.8178 0 .64343-1.34572Z"/>
<use data-text="f" xlink:href="#font_2_1" transform="matrix(6.97394,0,0,-6.9740097,47.447656,58.40039)"/>
<use data-text="&#x2212;" xlink:href="#font_3_1" transform="matrix(4.9813997,0,0,-4.9814498,52.114748,55.393304)"/>
<use data-text="1" xlink:href="#font_4_1" transform="matrix(4.9813997,0,0,-4.9814498,57.510866,55.393304)"/>
<path transform="matrix(1.00002,0,0,-1.00003,4.9528048,46.588037)" stroke-width=".3985" stroke-linecap="butt" stroke-miterlimit="10" stroke-linejoin="miter" fill="none" stroke="#000000" d="M191.02617-1.96432H109.84543"/>
<path transform="matrix(-1.00002,-0,0,1.00003,116.51865,48.552415)" d="M4.21463 0 .64343 1.34572 1.8178 0 .64343-1.34572Z"/>
<path transform="matrix(-1.00002,-0,0,1.00003,116.51865,48.552415)" stroke-width=".3985" stroke-linecap="butt" stroke-miterlimit="10" stroke-linejoin="miter" fill="none" stroke="#000000" d="M4.21463 0 .64343 1.34572 1.8178 0 .64343-1.34572Z"/>
<use data-text="g" xlink:href="#font_2_2" transform="matrix(6.97394,0,0,-6.9740097,147.14865,58.40039)"/>
<use data-text="&#x2212;" xlink:href="#font_3_1" transform="matrix(4.9813997,0,0,-4.9814498,151.28574,55.393304)"/>
<use data-text="1" xlink:href="#font_4_1" transform="matrix(4.9813997,0,0,-4.9814498,156.68285,55.393304)"/>
<path transform="matrix(1.00002,0,0,-1.00003,4.9528048,46.588037)" stroke-width=".3985" stroke-linecap="butt" stroke-miterlimit="10" stroke-linejoin="miter" fill="none" stroke="#000000" d="M0 6.92499C67.02632 45.62256 131.43764 45.62256 195.81058 8.4569"/>
<path transform="matrix(.86602738,.49999503,.49999003,-.866036,199.27931,37.271799)" d="M4.21463 0 .64343 1.34572 1.8178 0 .64343-1.34572Z"/>
<path transform="matrix(.86602738,.49999503,.49999003,-.866036,199.27931,37.271799)" stroke-width=".3985" stroke-linecap="butt" stroke-miterlimit="10" stroke-linejoin="miter" fill="none" stroke="#000000" d="M4.21463 0 .64343 1.34572 1.8178 0 .64343-1.34572Z"/>
<use data-text="g" xlink:href="#font_2_2" transform="matrix(6.97394,0,0,-6.9740097,95.92963,5.7628099)"/>
<use data-text="&#x25e6;" xlink:href="#font_5_1" transform="matrix(6.97394,0,0,-6.9740097,101.88075,5.7628099)"/>
<use data-text="f" xlink:href="#font_2_1" transform="matrix(6.97394,0,0,-6.9740097,107.77686,5.7628099)"/>
<path transform="matrix(1.00002,0,0,-1.00003,4.9528048,46.588037)" stroke-width=".3985" stroke-linecap="butt" stroke-miterlimit="10" stroke-linejoin="miter" fill="none" stroke="#000000" d="M198.46396-6.92499C131.43764-45.62256 67.02632-45.62256 2.65338-8.4569"/>
<path transform="matrix(-.86602738,-.49999503,-.49999003,.866036,9.094227,55.904275)" d="M4.21463 0 .64343 1.34572 1.8178 0 .64343-1.34572Z"/>
<path transform="matrix(-.86602738,-.49999503,-.49999003,.866036,9.094227,55.904275)" stroke-width=".3985" stroke-linecap="butt" stroke-miterlimit="10" stroke-linejoin="miter" fill="none" stroke="#000000" d="M4.21463 0 .64343 1.34572 1.8178 0 .64343-1.34572Z"/>
<use data-text="f" xlink:href="#font_2_1" transform="matrix(6.97394,0,0,-6.9740097,86.64444,92.384418)"/>
<use data-text="&#x2212;" xlink:href="#font_3_1" transform="matrix(4.9813997,0,0,-4.9814498,91.31153,89.37732)"/>
<use data-text="1" xlink:href="#font_4_1" transform="matrix(4.9813997,0,0,-4.9814498,96.70765,89.37732)"/>
<use data-text="&#x25e6;" xlink:href="#font_5_1" transform="matrix(6.97394,0,0,-6.9740097,102.41077,92.384418)"/>
<use data-text="g" xlink:href="#font_2_2" transform="matrix(6.97394,0,0,-6.9740097,108.30688,92.384418)"/>
<use data-text="&#x2212;" xlink:href="#font_3_1" transform="matrix(4.9813997,0,0,-4.9814498,112.44396,89.37732)"/>
<use data-text="1" xlink:href="#font_4_1" transform="matrix(4.9813997,0,0,-4.9814498,117.84007,89.37732)"/>
</svg>
