<svg xmlns="http://www.w3.org/2000/svg" xmlns:xlink="http://www.w3.org/1999/xlink" xmlns:inkscape="http://www.inkscape.org/namespaces/inkscape" version="1.1" width="75" height="94" viewBox="0 0 75 94">
<defs>
<path id="font_1_1" d="M.4850006 .41075135 .40098573 .6096344C.397995 .61763 .3959961 .6216278 .3959961 .6226196 .3959961 .62861636 .41299439 .6476135 .45498658 .6516113 .46499635 .65260317 .47499085 .6536102 .47499085 .6706085 .47499085 .6826172 .46299745 .6826172 .45999146 .6826172 .4189911 .6826172 .37599183 .6796112 .33399964 .6796112 .30899049 .6796112 .24699402 .6826172 .22200012 .6826172 .21598816 .6826172 .20399475 .6826172 .20399475 .6626129 .20399475 .6516113 .21398926 .6516113 .22698975 .6516113 .2869873 .6516113 .29299928 .6416168 .3019867 .6196289L.41999818 .34080506 .20899964 .11393738 .19599915 .10295105C.14698792 .049987794 .099990848 .033996583 .04899597 .0309906 .035995485 .02999878 .026992798 .02999878 .026992798 .010986328 .026992798 .009994507 .026992798 0 .039993287 0 .069992069 0 .102996829 .0029907227 .13398743 .0029907227 .17098999 .0029907227 .20999146 0 .24598694 0 .2519989 0 .2639923 0 .2639923 .019989014 .2639923 .02999878 .2539978 .0309906 .2519989 .0309906 .24299622 .03199768 .21199036 .033996583 .21199036 .061965944 .21199036 .07795715 .22698975 .093948367 .23899842 .10694885L.34098817 .21487427 .43099977 .31282044 .5319977 .07395935C.5359955 .06297302 .5369873 .061965944 .5369873 .05996704 .5369873 .051986696 .5179901 .034988405 .47898866 .0309906 .46798707 .02999878 .45899964 .0289917 .45899964 .011993408 .45899964 0 .46998597 0 .47399903 0 .5019989 0 .57199099 .0029907227 .59999087 .0029907227 .625 .0029907227 .6859894 0 .71099856 0 .71798709 0 .7299957 0 .7299957 .018997193 .7299957 .0309906 .7200012 .0309906 .71199038 .0309906 .644989 .03199768 .6429901 .034988405 .6259918 .07496643 .58699038 .16790772 .519989 .32380677 .49699403 .3837738 .5649872 .45373536 .66999819 .5726471 .70199587 .6006317 .73098757 .62461856 .7689972 .64860537 .82899478 .6516113 .84199526 .65260317 .8509979 .65260317 .8509979 .6716156 .8509979 .6726074 .8509979 .6826172 .83799746 .6826172 .80799868 .6826172 .7749939 .6796112 .74398806 .6796112 .70700076 .6796112 .6689911 .6826172 .6329956 .6826172 .6269989 .6826172 .6139984 .6826172 .6139984 .6626129 .6139984 .65560916 .61898806 .65260317 .6259918 .6516113 .6349945 .65060427 .66600039 .64860537 .66600039 .6206207 .66600039 .6066284 .6549988 .5936432 .6469879 .5846405L.4850006 .41075135Z"/>
<path id="font_2_1" d="M.36099244 .5739441C.29299928 .5139618 .27398683 .43096925 .27398683 .41996766 .27398683 .41096498 .2809906 .40596009 .28799439 .40596009 .29699708 .40596009 .30599977 .4099579 .30899049 .42095948 .34498597 .552948 .43899537 .58496096 .44198609 .58496096 .44898988 .58595278 .46299745 .58695986 .46299745 .6019592 .46299745 .6189575 .44499208 .6189575 .43699647 .6189575 .4229889 .6189575 .4019928 .6169586 .3880005 .61395266 .3849945 .61395266 .3809967 .6129608 .37799073 .6129608 .375 .6129608 .33999635 .61595156 .2979889 .63694766 .2669983 .6529541 .25099183 .6679535 .23498535 .68196108 .23098755 .68595889 .22799683 .6889496 .22299195 .6889496 .21899414 .6889496 .20098877 .6869507 .20098877 .6729584 .20098877 .6589508 .25 .6189575 .31098939 .59295657 .18598938 .5459595 .07798767 .41596986 .07798767 .25097657 .07798767 .04399109 .24398804-.117996219 .44599916-.117996219 .6499939-.117996219 .81399539 .04699707 .81399539 .24998474 .81399539 .48095704 .6179962 .58395388 .598999 .58395388 .59098818 .58395388 .58200076 .575943 .58200076 .56695559 .58200076 .5569458 .58699038 .5539551 .60398867 .5459595 .71798709 .48495484 .7799988 .3659668 .7799988 .25097657 .7799988 .06500244 .6299896-.083984378 .44599916-.083984378 .2599945-.083984378 .11199951 .06700134 .11199951 .24998474 .11199951 .3829651 .19299317 .526947 .36099244 .5739441Z"/>
<path id="font_3_1" d="M.5469971 .14128113C.6389923 .23632813 .6759949 .36938478 .6759949 .38038636 .6759949 .39338685 .6639862 .39338685 .6589966 .39338685 .644989 .39338685 .644989 .39038087 .6380005 .3683777 .6199951 .3023529 .58699038 .24131775 .54499819 .18730164 .5439911 .20230103 .5419922 .2693329 .5399933 .27833558 .5249939 .37738038 .44999696 .44140626 .34999085 .44140626 .20298767 .44140626 .06199646 .3043518 .06199646 .16429138 .06199646 .072250369 .1289978-.009765625 .24499512-.009765625 .33699037-.009765625 .41999818 .032226564 .47599793 .07525635 .49899293 .0022277833 .5499878-.009765625 .5799866-.009765625 .6380005-.009765625 .673996 .039230348 .673996 .0602417 .673996 .072250369 .6619873 .072250369 .6569977 .072250369 .6439972 .072250369 .6419983 .06825256 .6399994 .0622406 .6259918 .024230957 .59498599 .018234253 .58299258 .018234253 .56900027 .018234253 .5519867 .018234253 .5469971 .14128113M.46899415 .10726929C.37098695 .027236939 .28599549 .018234253 .24798584 .018234253 .18199158 .018234253 .14498902 .0622406 .14498902 .12927246 .14498902 .15829468 .15899658 .26733399 .21099854 .33636476 .25698854 .39639283 .31399537 .4133911 .34899903 .4133911 .42900086 .4133911 .45199586 .33636476 .45999146 .27433778 .46598817 .23132324 .46398927 .16029358 .46899415 .10726929Z"/>
<path id="font_4_1" d="M.68699648 .32714845C.70199587 .32714845 .72099307 .32714845 .72099307 .34713746 .72099307 .36714173 .70199587 .36714173 .6879883 .36714173H.08898926C.07499695 .36714173 .055999757 .36714173 .055999757 .34713746 .055999757 .32714845 .07499695 .32714845 .08999634 .32714845H.68699648M.6879883 .13284302C.70199587 .13284302 .72099307 .13284302 .72099307 .15284729 .72099307 .17285156 .70199587 .17285156 .68699648 .17285156H.08999634C.07499695 .17285156 .055999757 .17285156 .055999757 .15284729 .055999757 .13284302 .07499695 .13284302 .08898926 .13284302H.6879883Z"/>
</defs>
<use data-text="X" xlink:href="#font_1_1" transform="matrix(9.962899,0,0,-9.962899,1.2175903,51.094057)"/>
<use data-text="&#x27f3;" xlink:href="#font_2_1" transform="matrix(6.9740097,0,0,-6.9740097,10.252869,47.478948)"/>
<use data-text="&#x03b1;" xlink:href="#font_3_1" transform="matrix(6.9740097,0,0,-6.9740097,16.480057,47.478948)"/>
<use data-text="=" xlink:href="#font_4_1" transform="matrix(9.962899,0,0,-9.962899,24.925309,51.094057)"/>
<path transform="matrix(1.00003,0,0,-1.00003,28.2854,47.154939)" stroke-width=".3985" stroke-linecap="butt" stroke-miterlimit="10" stroke-linejoin="miter" fill="none" stroke="#000000" d="M22.67752-45.35506V45.35506H45.35506V-45.35506ZM45.35506 45.35506"/>
<path transform="matrix(1.00003,0,0,-1.00003,28.2854,47.154939)" d="M35.21353 22.6787C35.21353 23.33896 34.6783 23.87418 34.01805 23.87418 33.3578 23.87418 32.82257 23.33896 32.82257 22.6787 32.82257 22.01845 33.3578 21.48322 34.01805 21.48322 34.6783 21.48322 35.21353 22.01845 35.21353 22.6787ZM34.01805 22.6787"/>
<path transform="matrix(1.00003,0,0,-1.00003,28.2854,47.154939)" stroke-width=".3985" stroke-linecap="butt" stroke-miterlimit="10" stroke-linejoin="miter" fill="none" stroke="#000000" d="M35.21353 22.6787C35.21353 23.33896 34.6783 23.87418 34.01805 23.87418 33.3578 23.87418 32.82257 23.33896 32.82257 22.6787 32.82257 22.01845 33.3578 21.48322 34.01805 21.48322 34.6783 21.48322 35.21353 22.01845 35.21353 22.6787ZM34.01805 22.6787"/>
<path transform="matrix(1.00003,0,0,-1.00003,28.2854,47.154939)" d="M35.21353-22.6787C35.21353-22.01845 34.6783-21.48322 34.01805-21.48322 33.3578-21.48322 32.82257-22.01845 32.82257-22.6787 32.82257-23.33896 33.3578-23.87418 34.01805-23.87418 34.6783-23.87418 35.21353-23.33896 35.21353-22.6787ZM34.01805-22.6787"/>
<path transform="matrix(1.00003,0,0,-1.00003,28.2854,47.154939)" stroke-width=".3985" stroke-linecap="butt" stroke-miterlimit="10" stroke-linejoin="miter" fill="none" stroke="#000000" d="M35.21353-22.6787C35.21353-22.01845 34.6783-21.48322 34.01805-21.48322 33.3578-21.48322 32.82257-22.01845 32.82257-22.6787 32.82257-23.33896 33.3578-23.87418 34.01805-23.87418 34.6783-23.87418 35.21353-23.33896 35.21353-22.6787ZM34.01805-22.6787"/>
<path transform="matrix(1.00003,0,0,-1.00003,28.2854,47.154939)" stroke-width=".3985" stroke-linecap="butt" stroke-miterlimit="10" stroke-linejoin="miter" fill="none" stroke="#000000" d="M34.01805-22.6787C42.03577-30.69641 26.00035-30.69641 31.14706-25.54968"/>
<path transform="matrix(.7071212,-.7071212,-.7071212,-.7071212,58.21843,73.92037)" d="M4.21463 0 .64343 1.34572 1.8178 0 .64343-1.34572Z"/>
<path transform="matrix(.7071212,-.7071212,-.7071212,-.7071212,58.21843,73.92037)" stroke-width=".3985" stroke-linecap="butt" stroke-miterlimit="10" stroke-linejoin="miter" fill="none" stroke="#000000" d="M4.21463 0 .64343 1.34572 1.8178 0 .64343-1.34572Z"/>
<path transform="matrix(1.00003,0,0,-1.00003,28.2854,47.154939)" stroke-width=".3985" stroke-linecap="butt" stroke-miterlimit="10" stroke-linejoin="miter" fill="none" stroke="#000000" d="M34.01805 22.6787V-19.61479"/>
<path transform="matrix(0,1.00003,1.00003,0,62.304475,65.05206)" d="M4.21463 0 .64343 1.34572 1.8178 0 .64343-1.34572Z"/>
<path transform="matrix(0,1.00003,1.00003,0,62.304475,65.05206)" stroke-width=".3985" stroke-linecap="butt" stroke-miterlimit="10" stroke-linejoin="miter" fill="none" stroke="#000000" d="M4.21463 0 .64343 1.34572 1.8178 0 .64343-1.34572Z"/>
</svg>
