<svg xmlns="http://www.w3.org/2000/svg" xmlns:xlink="http://www.w3.org/1999/xlink" xmlns:inkscape="http://www.inkscape.org/namespaces/inkscape" version="1.1" width="94" height="76" viewBox="0 0 94 76">
<defs>
<path id="font_1_1" d="M.5970001 .5686493 .61099246 .5826416C.6409912 .6126251 .673996 .64660647 .74198916 .6516113 .7529907 .65260317 .7619934 .65260317 .7619934 .6706085 .7619934 .6786041 .7569885 .6826172 .7489929 .6826172 .72299197 .6826172 .69400027 .6796112 .6669922 .6796112 .6339874 .6796112 .598999 .6826172 .5669861 .6826172 .5609894 .6826172 .5479889 .6826172 .5479889 .66360476 .5479889 .65260317 .55799868 .6516113 .5629883 .6516113 .56999209 .6516113 .598999 .6496124 .598999 .62861636 .598999 .6116333 .57598879 .5856476 .57199099 .5806427L.33999635 .31381227 .22999573 .6106262C.22399903 .62461856 .22399903 .62661746 .22399903 .6276245 .22399903 .6516113 .272995 .6516113 .2829895 .6516113 .29699708 .6516113 .30699159 .6516113 .30699159 .6716156 .30699159 .6826172 .29499818 .6826172 .2919922 .6826172 .2639923 .6826172 .19400025 .6796112 .1659851 .6796112 .14099121 .6796112 .07899475 .6826172 .053985597 .6826172 .04798889 .6826172 .034988405 .6826172 .034988405 .6626129 .034988405 .6516113 .04499817 .6516113 .057998659 .6516113 .117996219 .6516113 .12199402 .64260867 .1309967 .61763L.2539978 .28883363C.25498963 .28582765 .2579956 .2748413 .2579956 .27183534 .2579956 .2688446 .21798706 .107940677 .21299744 .08995056 .19999695 .034988405 .19898987 .03199768 .11898804 .0309906 .099990848 .0309906 .09199524 .0309906 .09199524 .010986328 .09199524 0 .10398865 0 .10598755 0 .13398743 0 .20399475 .0029907227 .23199463 .0029907227 .2599945 .0029907227 .33198548 0 .3600006 0 .36698915 0 .3789978 0 .3789978 .019989014 .3789978 .0309906 .36999513 .0309906 .35099793 .0309906 .34899903 .0309906 .32998658 .0309906 .31298829 .032989503 .2919922 .034988405 .28599549 .036987306 .28599549 .048980714 .28599549 .05596924 .29499818 .09095764 .2999878 .11193848L.33499146 .2528534C.33999635 .27183534 .34098817 .2748413 .34899903 .28382875L.5970001 .5686493Z"/>
<path id="font_1_2" d="M.7200012 .6586151C.72099307 .6626129 .72299197 .66760256 .72299197 .6736145 .72299197 .6826172 .71798709 .6826172 .69799807 .6826172H.27598573C.2519989 .6826172 .25099183 .6816101 .24499512 .6626129L.18998719 .4827118C.18798828 .47772218 .18699646 .47071839 .18699646 .46871949 .18699646 .46772767 .18699646 .45773316 .19898987 .45773316 .20799256 .45773316 .20999146 .46472169 .21199036 .46772767 .25 .5856476 .3019867 .6516113 .45799256 .6516113H.62098696L.06199646 .026992798C.06199646 .025985718 .057998659 .011993408 .057998659 .008987427 .057998659 0 .06498718 0 .08299255 0H.5179901C.5419922 0 .54299929 .0009918213 .548996 .019989014L.6199951 .24085999C.62098696 .24485779 .6239929 .25186158 .6239929 .25585938 .6239929 .260849 .6199951 .2668457 .61099246 .2668457 .60198977 .2668457 .6009979 .2628479 .59399417 .24186707 .5499878 .10594177 .5019989 .033996583 .33198548 .033996583H.16099549L.7200012 .6586151Z"/>
<path id="font_2_1" d="M.33499146 .63612368C.33499146 .6630554 .33299256 .6640625 .30499269 .6640625 .24099732 .6014404 .1499939 .6004486 .10899353 .6004486V.5644531C.1329956 .5644531 .19898987 .5644531 .2539978 .592453V.08203125C.2539978 .04899597 .2539978 .035995485 .1539917 .035995485H.115997318V0C.13398743 .0009918213 .25698854 .0039978029 .2939911 .0039978029 .32499696 .0039978029 .45098878 .0009918213 .47299195 0V.035995485H.43499757C.33499146 .035995485 .33499146 .04899597 .33499146 .08203125V.63612368Z"/>
<path id="font_3_1" d="M.7969971 .55766299 .82499697 .5806427C.85198977 .6026306 .8909912 .6336212 .96099856 .637619 .97499087 .63861086 .9889984 .63861086 .9889984 .66560366 .9889984 .6796112 .97698977 .6826172 .97299197 .6826172 .95899966 .6826172 .94299319 .6796112 .9279938 .6796112 .9129944 .6796112 .8969879 .6786041 .8809967 .6786041L.82199099 .6796112C.8049927 .6796112 .7849884 .6826172 .7679901 .6826172 .7549896 .6826172 .74398806 .6756134 .74398806 .65460208 .74398806 .64060977 .7559967 .637619 .7630005 .637619 .7879944 .63661196 .7939911 .63061526 .7939911 .6236267 .7939911 .6096344 .769989 .5876465 .7619934 .5796509L.49798585 .32681275 .34298707 .6116333C.33699037 .6216278 .33699037 .6236267 .33699037 .62461856 .33699037 .637619 .37998963 .637619 .3880005 .637619 .40299989 .637619 .4189911 .637619 .4189911 .66560366 .4189911 .6776123 .40899659 .6826172 .40098573 .6826172 .37799073 .6826172 .35198976 .6796112 .32899476 .6796112 .30499269 .6796112 .2809906 .6786041 .25698854 .6786041 .23599243 .6786041 .21398926 .6796112 .19299317 .6796112 .17999268 .6796112 .12998963 .6826172 .1289978 .6826172 .114990238 .6826172 .10499573 .6756134 .10499573 .65460208 .10499573 .637619 .11898804 .637619 .13699341 .637619 .20098877 .637619 .20498657 .63061526 .21699524 .6086273L.3999939 .2738495 .35499574 .09095764C.34298707 .04598999 .33799745 .04499817 .2639923 .04499817 .24099732 .04499817 .22499085 .04499817 .22499085 .016998291 .22499085 .008987427 .23199463 0 .24299622 0 .2639923 0 .28799439 .0029907227 .30999757 .0029907227 .33399964 .0029907227 .35798646 .0039978029 .38198854 .0039978029 .40699769 .0039978029 .43099977 .0029907227 .45599366 .0029907227 .47799684 .0029907227 .5029907 0 .5239868 0 .5309906 0 .548996 0 .548996 .027999878 .548996 .04499817 .5349884 .04499817 .5159912 .04499817 .5139923 .04499817 .48999024 .04499817 .47299195 .04699707 .44799806 .04899597 .44699098 .049987794 .44699098 .0579834 .44699098 .064971927 .44699098 .066970828 .45899964 .111953739L.49899293 .2728424 .7969971 .55766299Z"/>
<path id="font_4_1" d="M.6329956 .5659027C.6329956 .65405276 .5569916 .7050934 .46899415 .7050934 .33198548 .7050934 .23098755 .5488739 .20599365 .44769288L.04899597-.18234253C.04699707-.18934632 .056991579-.19433594 .06298828-.19433594 .07199097-.19433594 .07998657-.19334412 .08198547-.18734741L.14898682 .08015442C.16999817 .034240724 .21798706-.008728027 .29899598-.008728027 .43899537-.008728027 .5970001 .09213257 .5970001 .24482727 .5970001 .30371095 .56999209 .36358644 .5189972 .3966217 .56799319 .42765809 .6329956 .48475648 .6329956 .5659027M.43499757 .39762879C.41999818 .39460755 .41299439 .39059449 .38398744 .39059449 .36799623 .39059449 .34399415 .39160157 .33699037 .39561463 .34700013 .4016571 .375 .40264894 .38398744 .40264894 .39898683 .40264894 .42099 .4016571 .43499757 .39762879M.5669861 .58392336C.5669861 .530838 .54100039 .45269776 .47898866 .41766358 .45999146 .42366029 .44099427 .43066407 .3849945 .43066407 .34999085 .43066407 .2999878 .4286499 .2999878 .39259339 .2999878 .3675995 .33099366 .36358644 .38198854 .36358644 .41600038 .36358644 .44599916 .3685913 .47698976 .377594 .5069885 .35661317 .522995 .3156891 .522995 .2717743 .522995 .12705994 .42399598 .01927185 .3019867 .01927185 .22499085 .01927185 .16999817 .06617737 .16999817 .14501953 .16999817 .15499878 .17098999 .16497803 .17298889 .17396546L.23899842 .43966676C.2630005 .5348358 .35099793 .6770935 .46699525 .6770935 .526001 .6770935 .5669861 .6450348 .5669861 .58392336Z"/>
<path id="font_3_2" d="M.8989868 .63560488C.9089966 .64460757 .9169922 .65260317 .9169922 .6696167 .9169922 .6826172 .9069977 .6826172 .8880005 .6826172H.35499574C.32998658 .6826172 .32699586 .6826172 .31999208 .660614L.2630005 .478714C.2619934 .4747162 .2579956 .4637146 .2579956 .46072389 .2579956 .45472718 .2619934 .4437256 .2789917 .4437256 .2889862 .4437256 .29599 .44473268 .2999878 .45872499 .35198976 .6066284 .44299317 .63760378 .57299807 .63760378H.7779999L.14498902 .04798889C.1349945 .038986207 .1289978 .026992798 .1289978 .01399231 .1289978 0 .13699341 0 .1579895 0H.70899966C.7350006 0 .73599246 .0009918213 .74398806 .023986817 .7539978 .051986696 .82299807 .2548523 .82299807 .26385499 .82299807 .280838 .80599978 .280838 .8019867 .280838 .7859955 .280838 .7839966 .2748413 .7779999 .2588501 .72499087 .10694885 .6649933 .04798889 .48599244 .04798889H.269989L.8989868 .63560488Z"/>
<path id="font_4_2" d="M.44699098 .1402893C.44198609 .19831848 .4079895 .44140626 .24499512 .44140626 .18598938 .44140626 .1349945 .4093933 .10699463 .38339234 .04598999 .3283844 .033996583 .26435853 .033996583 .26135255 .033996583 .24934387 .04699707 .24934387 .049987794 .24934387 .06298828 .24934387 .06399536 .25134278 .068984989 .26635743 .08999634 .32537843 .1639862 .36140443 .23098755 .36140443 .3919983 .36140443 .41299439 .20031739 .41299439 .0982666 .41299439 .04824829 .4099884 .037231447 .4059906 .026229859 .3829956-.048797609 .35299684-.15985108 .35299684-.18988037 .35299684-.20088196 .35699464-.21386719 .36999513-.21386719 .3769989-.21386719 .3880005-.21386719 .4039917-.16186524 .41600038-.12283325 .43499757-.048797609 .44299317 .023239136 .44699098 .058242799 .5029907 .1933136 .5239868 .24133301 .5379944 .27235414 .5589905 .3193817 .60598757 .4064026 .60899356 .4113922 .61099246 .41540528 .61099246 .41940309 .61099246 .43139649 .59799197 .43139649 .59498599 .43139649 .59199526 .43139649 .58299258 .43139649 .5799866 .4263916 .56799319 .4053955 .49198915 .26234437 .44699098 .1402893Z"/>
<path id="font_4_3" d="M.5319977 .36935426C.5359955 .3843689 .5359955 .38937379 .5359955 .39038087 .5359955 .4123993 .5179901 .4223938 .5019989 .4223938 .47898866 .4223938 .45999146 .4033966 .45599366 .3843689 .43899537 .4113922 .40499879 .44140626 .35299684 .44140626 .22799683 .44140626 .09700012 .3072815 .09700012 .1641388 .09700012 .061019899 .16699219 0 .24899292 0 .29499818 0 .33898927 .022994996 .37399293 .054016115L.35198976-.036026C.34098817-.07803345 .33399964-.105041507 .29599-.13903809 .2519989-.17610169 .20899964-.17610169 .18399048-.17610169 .13798523-.17610169 .125-.17308045 .10699463-.16903687 .13198853-.15704346 .13899231-.13304138 .13899231-.11903381 .13899231-.09503174 .11999512-.08203125 .099990848-.08203125 .07199097-.08203125 .042999269-.105041507 .042999269-.14303589 .042999269-.20310974 .1289978-.20410156 .18499756-.20410156 .34199525-.20410156 .40899659-.1240387 .4229889-.06703186L.5319977 .36935426M.3939972 .13310242C.3899994 .11808777 .3899994 .11608887 .37298585 .096069339 .33799745 .054016115 .2899933 .027999878 .2519989 .027999878 .20098877 .027999878 .1769867 .07104492 .1769867 .12309265 .1769867 .16714478 .20399475 .2792511 .22999573 .32330323 .27198792 .39338685 .31900025 .4133911 .35299684 .4133911 .4229889 .4133911 .44198609 .33831788 .44198609 .3283081 .44198609 .3263092 .44198609 .3243103 .43899537 .31329347L.3939972 .13310242Z"/>
</defs>
<use data-text="Y" xlink:href="#font_1_1" transform="matrix(9.962799,0,0,-9.963098,17.215073,13.203009)"/>
<use data-text="Y" xlink:href="#font_1_1" transform="matrix(9.962799,0,0,-9.963098,17.215073,69.89984)"/>
<use data-text="Z" xlink:href="#font_1_2" transform="matrix(9.962799,0,0,-9.963098,74.152217,13.203009)"/>
<use data-text="Z" xlink:href="#font_1_2" transform="matrix(9.962799,0,0,-9.963098,74.152217,69.89984)"/>
<path transform="matrix(1.00002,0,0,-1.00005,77.90929,38.147256)" stroke-width=".3985" stroke-linecap="butt" stroke-miterlimit="10" stroke-linejoin="miter" fill="none" stroke="#000000" d="M-64.21237 21.42305V-18.35913"/>
<path transform="matrix(0,1.00005,1.00002,0,13.695625,54.789037)" d="M4.21463 0 .64343 1.34572 1.8178 0 .64343-1.34572Z"/>
<path transform="matrix(0,1.00005,1.00002,0,13.695625,54.789037)" stroke-width=".3985" stroke-linecap="butt" stroke-miterlimit="10" stroke-linejoin="miter" fill="none" stroke="#000000" d="M4.21463 0 .64343 1.34572 1.8178 0 .64343-1.34572Z"/>
<use data-text="1" xlink:href="#font_2_1" transform="matrix(6.97394,0,0,-6.9741489,.21572876,39.89334)"/>
<use data-text="Y" xlink:href="#font_3_1" transform="matrix(4.9813997,0,0,-4.981549,4.186798,40.895395)"/>
<path transform="matrix(1.00002,0,0,-1.00005,77.90929,38.147256)" stroke-width=".3985" stroke-linecap="butt" stroke-miterlimit="10" stroke-linejoin="miter" fill="none" stroke="#000000" d="M-49.17485 21.42305V-18.35913"/>
<path transform="matrix(0,1.00005,1.00002,0,28.733452,54.789037)" d="M4.21463 0 .64343 1.34572 1.8178 0 .64343-1.34572Z"/>
<path transform="matrix(0,1.00005,1.00002,0,28.733452,54.789037)" stroke-width=".3985" stroke-linecap="butt" stroke-miterlimit="10" stroke-linejoin="miter" fill="none" stroke="#000000" d="M4.21463 0 .64343 1.34572 1.8178 0 .64343-1.34572Z"/>
<use data-text="&#x03b2;" xlink:href="#font_4_1" transform="matrix(6.97394,0,0,-6.9741489,32.253374,39.890344)"/>
<path transform="matrix(1.00002,0,0,-1.00005,77.90929,38.147256)" stroke-width=".3985" stroke-linecap="butt" stroke-miterlimit="10" stroke-linejoin="miter" fill="none" stroke="#000000" d="M-7.2766 21.42305V-18.35913"/>
<path transform="matrix(0,1.00005,1.00002,0,70.63254,54.789037)" d="M4.21463 0 .64343 1.34572 1.8178 0 .64343-1.34572Z"/>
<path transform="matrix(0,1.00005,1.00002,0,70.63254,54.789037)" stroke-width=".3985" stroke-linecap="butt" stroke-miterlimit="10" stroke-linejoin="miter" fill="none" stroke="#000000" d="M4.21463 0 .64343 1.34572 1.8178 0 .64343-1.34572Z"/>
<use data-text="1" xlink:href="#font_2_1" transform="matrix(6.97394,0,0,-6.9741489,57.60588,39.89334)"/>
<use data-text="Z" xlink:href="#font_3_2" transform="matrix(4.9813997,0,0,-4.981549,61.57695,40.895395)"/>
<path transform="matrix(1.00002,0,0,-1.00005,77.90929,38.147256)" stroke-width=".3985" stroke-linecap="butt" stroke-miterlimit="10" stroke-linejoin="miter" fill="none" stroke="#000000" d="M7.2766 21.42305V-18.35913"/>
<path transform="matrix(0,1.00005,1.00002,0,85.186038,54.789037)" d="M4.21463 0 .64343 1.34572 1.8178 0 .64343-1.34572Z"/>
<path transform="matrix(0,1.00005,1.00002,0,85.186038,54.789037)" stroke-width=".3985" stroke-linecap="butt" stroke-miterlimit="10" stroke-linejoin="miter" fill="none" stroke="#000000" d="M4.21463 0 .64343 1.34572 1.8178 0 .64343-1.34572Z"/>
<use data-text="&#x03b3;" xlink:href="#font_4_2" transform="matrix(6.97394,0,0,-6.9741489,88.705509,38.970296)"/>
<path transform="matrix(1.00002,0,0,-1.00005,77.90929,38.147256)" stroke-width=".3985" stroke-linecap="butt" stroke-miterlimit="10" stroke-linejoin="miter" fill="none" stroke="#000000" d="M-49.17485 28.3468H-10.34052"/>
<path transform="matrix(1.00002,0,0,-1.00005,65.85034,9.79904)" d="M4.21463 0 .64343 1.34572 1.8178 0 .64343-1.34572Z"/>
<path transform="matrix(1.00002,0,0,-1.00005,65.85034,9.79904)" stroke-width=".3985" stroke-linecap="butt" stroke-miterlimit="10" stroke-linejoin="miter" fill="none" stroke="#000000" d="M4.21463 0 .64343 1.34572 1.8178 0 .64343-1.34572Z"/>
<use data-text="g" xlink:href="#font_4_3" transform="matrix(6.97394,0,0,-6.9741489,47.614679,4.922596)"/>
<path transform="matrix(1.00002,0,0,-1.00005,77.90929,38.147256)" stroke-width=".3985" stroke-linecap="butt" stroke-miterlimit="10" stroke-linejoin="miter" fill="none" stroke="#000000" d="M-49.17485-28.3468H-10.34052"/>
<path transform="matrix(1.00002,0,0,-1.00005,65.85034,66.49547)" d="M4.21463 0 .64343 1.34572 1.8178 0 .64343-1.34572Z"/>
<path transform="matrix(1.00002,0,0,-1.00005,65.85034,66.49547)" stroke-width=".3985" stroke-linecap="butt" stroke-miterlimit="10" stroke-linejoin="miter" fill="none" stroke="#000000" d="M4.21463 0 .64343 1.34572 1.8178 0 .64343-1.34572Z"/>
<use data-text="g" xlink:href="#font_4_3" transform="matrix(6.97394,0,0,-6.9741489,47.614679,73.018)"/>
</svg>
