<svg xmlns="http://www.w3.org/2000/svg" xmlns:xlink="http://www.w3.org/1999/xlink" xmlns:inkscape="http://www.inkscape.org/namespaces/inkscape" version="1.1" width="215" height="178" viewBox="0 0 215 178">
<defs>
<path id="font_1_1" d="M.45999146 .31976319C.45999146 .39982606 .45498658 .47988893 .41999818 .5539398 .37399293 .65000918 .2919922 .6660156 .25 .6660156 .18998719 .6660156 .116989139 .64001467 .07598877 .54693606 .04399109 .47789 .038986207 .39982606 .038986207 .31976319 .038986207 .24472046 .042999269 .15464783 .083999637 .07859802 .1269989-.0024719239 .19999695-.022460938 .24899292-.022460938 .30299378-.022460938 .3789978-.0014648438 .4229889 .09359741 .45498658 .16265869 .45999146 .2407074 .45999146 .31976319M.24899292-.00047302247C.20999146-.00047302247 .15098572 .024551392 .1329956 .12062073 .12199402 .18066406 .12199402 .2727356 .12199402 .3317871 .12199402 .39582826 .12199402 .46188355 .12998963 .5159149 .14898682 .63500979 .22399903 .64401248 .24899292 .64401248 .28199769 .64401248 .34799195 .6259918 .36698915 .52693179 .3769989 .47088624 .3769989 .39482118 .3769989 .3317871 .3769989 .25672914 .3769989 .18867493 .3659973 .12461853 .35099793 .029556275 .2939911-.00047302247 .24899292-.00047302247Z"/>
<path id="font_2_1" d="M.19198609 .052993776C.19198609 .08198547 .16799927 .10598755 .13899231 .10598755 .10998535 .10598755 .085998538 .08198547 .085998538 .052993776 .085998538 .023986817 .10998535 0 .13899231 0 .16799927 0 .19198609 .023986817 .19198609 .052993776Z"/>
<path id="font_1_4" d="M.44898988 .20022583C.44898988 .3193512 .36698915 .41944886 .25898744 .41944886 .21099854 .41944886 .16799927 .40345765 .13198853 .36842347V.5637665C.1519928 .5577698 .18499756 .55078127 .21699524 .55078127 .33999635 .55078127 .4099884 .6417694 .4099884 .6547699 .4099884 .6607666 .40699769 .6657715 .3999939 .6657715 .39898683 .6657715 .39698792 .6657715 .3919983 .66278079 .37199403 .6537781 .32299806 .6337738 .2559967 .6337738 .21598816 .6337738 .16999817 .6407776 .12298584 .6617737 .114990238 .66477969 .11299133 .66477969 .11099243 .66477969 .100997928 .66477969 .100997928 .6567688 .100997928 .6407776V.34439088C.100997928 .32637025 .100997928 .31835938 .114990238 .31835938 .12199402 .31835938 .12399292 .32136537 .12799073 .32736207 .13899231 .3433838 .17599488 .39746095 .25698854 .39746095 .30899049 .39746095 .33399964 .35139466 .34199525 .33337403 .35798646 .29632569 .3600006 .25727845 .3600006 .20722962 .3600006 .17222595 .3600006 .11222839 .33599855 .07035828 .31199647 .031463624 .2749939 .0055389406 .22898865 .0055389406 .1559906 .0055389406 .09899902 .058380128 .08198547 .11723328 .084991458 .1162262 .08799744 .115234378 .09899902 .115234378 .13198853 .115234378 .14898682 .14022827 .14898682 .16423035 .14898682 .18823242 .13198853 .21322632 .09899902 .21322632 .084991458 .21322632 .049987794 .20622254 .049987794 .16023255 .049987794 .07434082 .11898804-.022460938 .23098755-.022460938 .34700013-.022460938 .44898988 .073349 .44898988 .20022583Z"/>
<path id="font_1_2" d="M.2939911 .64004519C.2939911 .66400149 .2939911 .6660156 .2709961 .6660156 .20899964 .60227969 .12098694 .60227969 .08898926 .60227969V.57128909C.10899353 .57128909 .16799927 .57128909 .21998596 .5972748V.07902527C.21998596 .042999269 .21699524 .0309906 .1269989 .0309906H.09498596V0C.12998963 .0029907227 .21699524 .0029907227 .25698854 .0029907227 .29699708 .0029907227 .38398744 .0029907227 .4189911 0V.0309906H.3869934C.29699708 .0309906 .2939911 .041992189 .2939911 .07902527V.64004519Z"/>
<path id="font_1_3" d="M.1269989 .07699585 .23298645 .18003845C.3889923 .31811524 .44898988 .3721466 .44898988 .47216798 .44898988 .5860901 .35899354 .6660156 .23699951 .6660156 .12399292 .6660156 .049987794 .57411196 .049987794 .48516847 .049987794 .4291687 .099990848 .4291687 .102996829 .4291687 .11999512 .4291687 .15499878 .44117738 .15499878 .48217774 .15499878 .5081787 .13699341 .5341797 .101989749 .5341797 .09399414 .5341797 .09199524 .5341797 .08898926 .5331726 .11199951 .59806826 .1659851 .63500979 .22399903 .63500979 .31498719 .63500979 .35798646 .5541382 .35798646 .47216798 .35798646 .39215089 .30799867 .31311036 .25299073 .25108338L.06098938 .036987306C.049987794 .025985718 .049987794 .023986817 .049987794 0H.42099L.44898988 .17404175H.42399598C.4189911 .14402771 .4119873 .1000061 .4019928 .084991458 .394989 .07699585 .32899476 .07699585 .30699159 .07699585H.1269989Z"/>
<clipPath id="clip_3">
<path transform="matrix(1.00003,0,0,-1.00003,17.467087,166.53061)" d="M0 0H194.27216V161.39636H0Z"/>
</clipPath>
<path id="font_4_2" d="M.33499146 .63612368C.33499146 .6630554 .33299256 .6640625 .30499269 .6640625 .24099732 .6014404 .1499939 .6004486 .10899353 .6004486V.5644531C.1329956 .5644531 .19898987 .5644531 .2539978 .592453V.08203125C.2539978 .04899597 .2539978 .035995485 .1539917 .035995485H.115997318V0C.13398743 .0009918213 .25698854 .0039978029 .2939911 .0039978029 .32499696 .0039978029 .45098878 .0009918213 .47299195 0V.035995485H.43499757C.33499146 .035995485 .33499146 .04899597 .33499146 .08203125V.63612368Z"/>
<path id="font_5_1" d="M.24899292 .10601807C.23899842 .072021488 .20599365 .018234253 .15499878 .018234253 .1519928 .018234253 .12199402 .018234253 .100997928 .03215027 .14199829 .04508972 .14498902 .08100891 .14498902 .087020877 .14498902 .10900879 .12799073 .12402344 .10499573 .12402344 .07699585 .12402344 .04798889 .10002136 .04798889 .0630188 .04798889 .01322937 .10398865-.009765625 .15299988-.009765625 .19898987-.009765625 .23999024 .019226075 .2649994 .061019899 .2889862 .008224487 .34399415-.009765625 .38398744-.009765625 .49899293-.009765625 .55999758 .11502075 .55999758 .14305115 .55999758 .15608216 .5469971 .15608216 .5439911 .15608216 .5299988 .15608216 .5289917 .15107727 .5249939 .13905335 .5039978 .07002258 .44400025 .018234253 .3880005 .018234253 .34799195 .018234253 .32699586 .04508972 .32699586 .08302307 .32699586 .10900879 .35099793 .20018006 .3789978 .31140138 .39898683 .38841249 .44400025 .4133911 .47698976 .4133911 .47898866 .4133911 .5099945 .4133911 .5309906 .39941407 .49899293 .39041139 .4869995 .3624115 .4869995 .34440614 .4869995 .32240296 .5039978 .30740357 .5269928 .30740357 .5499878 .30740357 .58299258 .32640077 .58299258 .3684082 .58299258 .4243927 .5189972 .44140626 .47898866 .44140626 .42900086 .44140626 .3889923 .4084015 .36698915 .3704071 .34899903 .4113922 .30299378 .44140626 .24699402 .44140626 .1349945 .44140626 .070999149 .31840516 .070999149 .2883606 .070999149 .27534486 .084991458 .27534486 .08799744 .27534486 .100997928 .27534486 .101989749 .27934266 .10699463 .29237367 .13198853 .3704071 .19499207 .4133911 .24398804 .4133911 .2769928 .4133911 .3039856 .395401 .3039856 .3474121 .3039856 .32740785 .2919922 .27734376 .2829895 .24327088L.24899292 .10601807Z"/>
<path id="font_4_1" d="M.46299745 .2263794H.7689972C.7819977 .2263794 .80599978 .2263794 .80599978 .25038148 .80599978 .27539063 .7829895 .27539063 .7689972 .27539063H.46299745V.5821533C.46299745 .59513857 .46299745 .6191406 .43899537 .6191406 .4139862 .6191406 .4139862 .5961304 .4139862 .5821533V.27539063H.10699463C.09399414 .27539063 .069992069 .27539063 .069992069 .25138856 .069992069 .2263794 .09298706 .2263794 .10699463 .2263794H.4139862V-.08114624C.4139862-.09416199 .4139862-.11816406 .43798829-.11816406 .46299745-.11816406 .46299745-.09516907 .46299745-.08114624V.2263794Z"/>
<path id="font_6_1" d="M.6589966 .23046875C.6759949 .23046875 .69400027 .23046875 .69400027 .25045777 .69400027 .27046205 .6759949 .27046205 .6589966 .27046205H.117996219C.100997928 .27046205 .08299255 .27046205 .08299255 .25045777 .08299255 .23046875 .100997928 .23046875 .117996219 .23046875H.6589966Z"/>
<path id="font_7_1" d="M.2679901 .31362916H.3039856L.45399476 .08192444C.46398927 .06594849 .48799134 .026992798 .49899293 .011993408 .5059967 0 .5089874 0 .5319977 0H.66999819C.6879883 0 .7029877 0 .7029877 .017990113 .7029877 .025985718 .69699099 .032989503 .6879883 .034988405 .651001 .04298401 .60198977 .10890198 .5779877 .14085388 .57099917 .15083313 .5209961 .2167511 .45399476 .32463075 .54299929 .34062196 .6289978 .37861634 .6289978 .4975891 .6289978 .63656619 .48199464 .6845703 .3639984 .6845703H.049987794C.03199768 .6845703 .015991211 .6845703 .015991211 .66656497 .015991211 .64956668 .034988405 .64956668 .042999269 .64956668 .099990848 .64956668 .10499573 .64256289 .10499573 .5925751V.091918949C.10499573 .04197693 .099990848 .034988405 .042999269 .034988405 .034988405 .034988405 .015991211 .034988405 .015991211 .017990113 .015991211 0 .03199768 0 .049987794 0H.32398988C.34199525 0 .35699464 0 .35699464 .017990113 .35699464 .034988405 .33999635 .034988405 .32899476 .034988405 .27198792 .034988405 .2679901 .04298401 .2679901 .091918949V.31362916M.46099855 .36262513C.4889984 .39961244 .49198915 .4526062 .49198915 .4965973 .49198915 .5445862 .48599244 .59757998 .45399476 .63856509 .49499513 .6295624 .59399417 .5985718 .59399417 .4975891 .59399417 .43260194 .56399539 .3816223 .46099855 .36262513M.2679901 .59558108C.2679901 .61657717 .2679901 .64956668 .32998658 .64956668 .4149933 .64956668 .45700074 .614563 .45700074 .4965973 .45700074 .36761476 .42599488 .3486328 .2679901 .3486328V.59558108M.13198853 .034988405C.13999939 .052963258 .13999939 .08093262 .13999939 .089920047V.594574C.13999939 .6045685 .13999939 .6315613 .13198853 .64956668H.24598694C.23298645 .6335602 .23298645 .61357119 .23298645 .5985718V.089920047C.23298645 .079940799 .23298645 .052963258 .24099732 .034988405H.13198853M.34498597 .31362916C.35198976 .31462098 .35598756 .31562806 .3639984 .31562806 .3789978 .31562806 .40098573 .31762696 .41600038 .31962586 .43099977 .2956543 .5389862 .117889408 .621994 .034988405H.5249939L.34498597 .31362916Z"/>
</defs>
<path transform="matrix(1.00003,0,0,-1.00003,17.467087,166.53061)" stroke-width=".19925" stroke-linecap="butt" stroke-miterlimit="10" stroke-linejoin="miter" fill="none" stroke="#929292" d="M0 0V4.25172M48.56804 0V4.25172M97.13608 0V4.25172M145.70412 0V4.25172M194.27216 0V4.25172M0 161.39636V157.1446M48.56804 161.39636V157.1446M97.13608 161.39636V157.1446M145.70412 161.39636V157.1446M194.27216 161.39636V157.1446"/>
<path transform="matrix(1.00003,0,0,-1.00003,17.467087,166.53061)" stroke-width=".19925" stroke-linecap="butt" stroke-miterlimit="10" stroke-linejoin="miter" fill="none" stroke="#929292" d="M0 0H4.25163M0 40.34909H4.25163M0 80.69818H4.25163M0 121.04727H4.25163M0 161.39636H4.25163M194.27216 0H190.0205M194.27216 40.34909H190.0205M194.27216 80.69818H190.0205M194.27216 121.04727H190.0205M194.27216 161.39636H190.0205"/>
<path transform="matrix(1.00003,0,0,-1.00003,17.467087,166.53061)" stroke-width=".3985" stroke-linecap="butt" stroke-miterlimit="10" stroke-linejoin="miter" fill="none" stroke="#000000" d="M0 0V161.39636H194.27216V0H0Z"/>
<use data-text="0" xlink:href="#font_1_1" transform="matrix(9.962899,0,0,-9.962899,14.976013,176.47092)"/>
<use data-text="0" xlink:href="#font_1_1" transform="matrix(9.962899,0,0,-9.962899,59.671354,176.47092)"/>
<use data-text="." xlink:href="#font_2_1" transform="matrix(9.962899,0,0,-9.962899,64.6535,176.47092)"/>
<use data-text="5" xlink:href="#font_1_4" transform="matrix(9.962899,0,0,-9.962899,67.42059,176.47092)"/>
<use data-text="1" xlink:href="#font_1_2" transform="matrix(9.962899,0,0,-9.962899,112.11493,176.47092)"/>
<use data-text="1" xlink:href="#font_1_2" transform="matrix(9.962899,0,0,-9.962899,156.81027,176.47092)"/>
<use data-text="." xlink:href="#font_2_1" transform="matrix(9.962899,0,0,-9.962899,161.79242,176.47092)"/>
<use data-text="5" xlink:href="#font_1_4" transform="matrix(9.962899,0,0,-9.962899,164.55951,176.47092)"/>
<use data-text="2" xlink:href="#font_1_3" transform="matrix(9.962899,0,0,-9.962899,209.25386,176.47092)"/>
<use data-text="0" xlink:href="#font_1_1" transform="matrix(9.962899,0,0,-9.962899,8.965828,169.7407)"/>
<use data-text="0" xlink:href="#font_1_1" transform="matrix(9.962899,0,0,-9.962899,1.2165985,129.3905)"/>
<use data-text="." xlink:href="#font_2_1" transform="matrix(9.962899,0,0,-9.962899,6.1987459,129.3905)"/>
<use data-text="5" xlink:href="#font_1_4" transform="matrix(9.962899,0,0,-9.962899,8.965843,129.3905)"/>
<use data-text="1" xlink:href="#font_1_2" transform="matrix(9.962899,0,0,-9.962899,8.965828,89.04028)"/>
<use data-text="1" xlink:href="#font_1_2" transform="matrix(9.962899,0,0,-9.962899,1.2165985,48.69007)"/>
<use data-text="." xlink:href="#font_2_1" transform="matrix(9.962899,0,0,-9.962899,6.1987459,48.69007)"/>
<use data-text="5" xlink:href="#font_1_4" transform="matrix(9.962899,0,0,-9.962899,8.965843,48.69007)"/>
<use data-text="2" xlink:href="#font_1_3" transform="matrix(9.962899,0,0,-9.962899,8.965828,8.339859)"/>
<g clip-path="url(#clip_3)">
<path transform="matrix(1.00003,0,0,-1.00003,17.467087,166.53061)" stroke-width=".79701" stroke-linecap="butt" stroke-miterlimit="10" stroke-linejoin="miter" fill="none" stroke="#0000ff" d="M0 80.69818C0 80.69818 1.41772 79.5351 1.96223 79.10034 2.50674 78.66557 3.37999 77.98276 3.92448 77.56467 4.469 77.14658 5.34222 76.48947 5.88673 76.08707 6.43123 75.68465 7.30447 75.05186 7.84897 74.66435 8.39348 74.27684 9.26671 73.66739 9.81122 73.29411 10.35571 72.92082 11.22896 72.33374 11.77347 71.97388 12.31798 71.61401 13.19121 71.04778 13.7357 70.70045 14.28021 70.35313 15.15344 69.80608 15.69795 69.47063 16.24246 69.13518 17.1157 68.60689 17.6602 68.28275 18.20471 67.95862 19.07794 67.44759 19.62245 67.13441 20.16695 66.82126 21.04019 66.32826 21.58469 66.02562 22.1292 65.72298 23.00244 65.24626 23.54695 64.95314 24.09145 64.66 24.96468 64.19678 25.50919 63.91293 26.0537 63.6291 26.92693 63.18219 27.47142 62.90744 28.01593 62.63268 28.88916 62.19908 29.43367 61.9326 29.97816 61.66614 30.85143 61.24536 31.39592 60.98683 31.94043 60.7283 32.81366 60.32008 33.35817 60.06929 33.90266 59.81848 34.77591 59.4226 35.32042 59.1792 35.86493 58.93578 36.73817 58.55128 37.28268 58.31491 37.82718 58.07855 38.70041 57.70518 39.24492 57.47566 39.78943 57.24614 40.66266 56.88374 41.20715 56.6606 41.75166 56.43744 42.62491 56.0841 43.16942 55.86734 43.71391 55.65057 44.58716 55.30899 45.13165 55.09827 45.67616 54.88756 46.5494 54.55383 47.0939 54.3486 47.6384 54.14337 48.51163 53.81906 49.05614 53.6191 49.60065 53.41913 50.47389 53.10193 51.01839 52.90733 51.5629 52.71274 52.43613 52.40599 52.98064 52.21654 53.52515 52.02708 54.39838 51.72641 54.94287 51.5419 55.48738 51.35739 56.36063 51.06635 56.90514 50.88664 57.44963 50.70694 58.32288 50.42216 58.86737 50.2467 59.41188 50.07126 60.28511 49.79308 60.82962 49.6221 61.37411 49.45114 62.24736 49.18138 62.79187 49.01445 63.33638 48.84752 64.20961 48.58191 64.7541 48.4189 65.29861 48.25589 66.17184 47.99825 66.71635 47.83948 67.26086 47.68071 68.1341 47.42976 68.67859 47.27458 69.2231 47.1194 70.09634 46.87271 70.64085 46.72101 71.18535 46.5693 72.0586 46.32938 72.6031 46.18114 73.14761 46.0329 74.02084 45.79744 74.56535 45.65257 75.10985 45.50769 75.9831 45.2783 76.5276 45.1369 77.07211 44.9955 77.94534 44.77173 78.48984 44.63335 79.03435 44.49496 79.90758 44.27483 80.45209 44.13947 80.99658 44.0041 81.86984 43.78993 82.41434 43.6577 82.95885 43.52548 83.83208 43.31607 84.37659 43.18643 84.92108 43.05678 85.79431 42.85019 86.33882 42.72322 86.88333 42.59625 87.75656 42.39536 88.30107 42.27132 88.84557 42.14726 89.71881 41.95079 90.26332 41.82909 90.80783 41.70738 91.68106 41.51323 92.22556 41.39412 92.77007 41.275 93.6433 41.08688 94.1878 40.97044 94.7323 40.85402 95.60556 40.66905 96.15005 40.55486 96.69456 40.44066 97.5678 40.25931 98.1123 40.14734 98.6568 40.03537 99.53003 39.8576 100.07454 39.74788 100.61905 39.63815 101.4923 39.46419 102.03679 39.35649 102.5813 39.24878 103.45453 39.07713 103.99904 38.97156 104.54355 38.86598 105.41678 38.69885 105.96127 38.5955 106.50578 38.49216 107.37903 38.32825 107.92354 38.2267 108.46803 38.12515 109.3413 37.96323 109.88579 37.86357 110.4303 37.76393 111.30353 37.60612 111.84804 37.5085 112.39253 37.41087 113.26576 37.25595 113.81027 37.1599 114.35478 37.06383 115.22803 36.91037 115.77252 36.8161 116.31703 36.72183 117.19026 36.57275 117.73477 36.4804 118.27928 36.38803 119.15251 36.24115 119.697 36.15034 120.24152 36.05954 121.11476 35.91496 121.65927 35.82594 122.20377 35.73694 123.077 35.59636 123.6215 35.5088 124.16602 35.42125 125.03925 35.28098 125.58376 35.19489 126.12825 35.1088 127.00148 34.97264 127.54599 34.88823 128.0905 34.80382 128.96375 34.6695 129.50824 34.58641 130.05275 34.50333 130.92598 34.37129 131.47049 34.28946 132.01499 34.20763 132.88823 34.07703 133.43273 33.99652 133.97724 33.91603 134.85048 33.78816 135.39499 33.70924 135.93949 33.63031 136.81272 33.50507 137.35723 33.4276 137.90174 33.35013 138.77497 33.22716 139.31948 33.15079 139.86397 33.07443 140.73722 32.95224 141.28173 32.87723 141.82624 32.80223 142.69948 32.6839 143.24398 32.61012 143.78849 32.53635 144.66172 32.4182 145.20623 32.34543 145.75072 32.27266 146.62397 32.157 147.16846 32.08557 147.71297 32.01416 148.58621 31.901 149.13072 31.83058 149.67522 31.76016 150.54845 31.6474 151.09296 31.57799 151.63747 31.50858 152.5107 31.39844 153.05519 31.33025 153.5997 31.26207 154.47295 31.15361 155.01746 31.08655 155.56197 31.01949 156.4352 30.91293 156.97969 30.84688 157.5242 30.78082 158.39743 30.67558 158.94194 30.61043 159.48644 30.54527 160.3597 30.44113 160.90419 30.37721 161.4487 30.31328 162.32193 30.21277 162.86644 30.14961 163.41094 30.08647 164.28417 29.98442 164.82868 29.92206 165.37319 29.85971 166.24642 29.76128 166.79091 29.70015 167.33542 29.63902 168.20867 29.54192 168.75318 29.48146 169.29767 29.421 170.17092 29.32384 170.71541 29.26437 171.25992 29.20493 172.13315 29.11162 172.67766 29.05295 173.22216 28.99428 174.0954 28.89952 174.63991 28.84152 175.18442 28.78352 176.05765 28.6917 176.60216 28.63492 177.14665 28.57816 178.0199 28.48834 178.5644 28.43237 179.10892 28.3764 179.98217 28.28685 180.52666 28.23143 181.07117 28.17603 181.9444 28.08757 182.4889 28.03293 183.0334 27.97829 183.90665 27.89137 184.45114 27.83763 184.99565 27.78389 185.86888 27.69875 186.41339 27.64557 186.95789 27.59239 187.83113 27.50682 188.37564 27.45432 188.92015 27.4018 189.79338 27.31871 190.33788 27.26709 190.88239 27.21548 191.75562 27.13322 192.30013 27.08229 192.84464 27.03134 194.26238 26.89992 194.26238 26.89992"/>
<path transform="matrix(1.00003,0,0,-1.00003,17.467087,166.53061)" stroke-width=".79701" stroke-linecap="butt" stroke-miterlimit="10" stroke-linejoin="miter" fill="none" stroke="#ff0000" d="M33.35817 154.2949C33.35817 154.2949 34.77591 144.66278 35.32042 141.22988 35.86493 137.79695 36.73817 132.63193 37.28268 129.55284 37.82718 126.47377 38.70041 121.81577 39.24492 119.03787 39.78943 116.25996 40.66266 112.052 41.20715 109.53163 41.75166 107.01126 42.62491 103.16803 43.16942 100.87273 43.71391 98.57741 44.58716 95.08788 45.13165 92.98851 45.67616 90.88913 46.5494 87.66988 47.0939 85.7418 47.6384 83.81375 48.51163 80.86694 49.05614 79.09227 49.60065 77.3176 50.47389 74.59258 51.01839 72.95114 51.5629 71.30971 52.43613 68.78578 52.98064 67.26192 53.52515 65.73805 54.39838 63.3845 54.94287 61.96812 55.48738 60.55174 56.36063 58.37256 56.90514 57.05359 57.44963 55.73462 58.32288 53.69574 58.86737 52.46187 59.41188 51.228 60.28511 49.31503 60.82962 48.16064 61.37411 47.00627 62.24736 45.2246 62.79187 44.14189 63.33638 43.05917 64.20961 41.37604 64.7541 40.35715 65.29861 39.33824 66.17184 37.75903 66.71635 36.79836 67.26086 35.83768 68.1341 34.33904 68.67859 33.43323 69.2231 32.52742 70.09634 31.12529 70.64085 30.26987 71.18535 29.41446 72.0586 28.07965 72.6031 27.2679 73.14761 26.45615 74.02084 25.18846 74.56535 24.41925 75.10985 23.65004 75.9831 22.45285 76.5276 21.72394 77.07211 20.99504 77.94534 19.85776 78.48984 19.16582 79.03435 18.47386 79.90758 17.39627 80.45209 16.73679 80.99658 16.07732 81.86984 15.04082 82.41434 14.41269 82.95885 13.78455 83.83208 12.80977 84.37659 12.20963 84.92108 11.60948 85.79431 10.66165 86.33882 10.08727 86.88333 9.51288 87.75656 8.6162 88.30107 8.06981 88.84557 7.52342 89.71881 6.67206 90.26332 6.14917 90.80783 5.6263 91.68106 4.80392 92.22556 4.3012 92.77007 3.79846 93.6433 3.0073 94.1878 2.52585 94.7323 2.0444 96.15005 .83118 96.15005 .83118"/>
<path transform="matrix(1.00003,0,0,-1.00003,17.467087,166.53061)" stroke-width=".3985" stroke-linecap="butt" stroke-dasharray="2.98883,2.98883" stroke-miterlimit="10" stroke-linejoin="miter" fill="none" stroke="#000000" d="M0 0 8.09462 6.72481 16.18927 13.44963 24.2839 20.17445 32.37854 26.89928 40.47319 33.6241 48.56784 40.34892 56.66248 47.07375 64.75711 53.79857 72.85175 60.52338 80.9464 67.2482 89.04102 73.97302 97.13567 80.69785 105.2303 87.42265 113.32495 94.14748 121.41959 100.87231 129.51424 107.59714 137.60887 114.32195 145.70352 121.04677 153.79816 127.77159 161.89279 134.49642 169.98744 141.22122 178.08206 147.94605 186.17671 154.67087 194.27135 161.39569"/>
</g>
<path transform="matrix(1.00003,0,0,-1.00003,17.467087,166.53061)" d="M138.35169 114.2906H190.18663V157.96846H138.35169Z" fill="#ffffff"/>
<path transform="matrix(1.00003,0,0,-1.00003,17.467087,166.53061)" stroke-width=".3985" stroke-linecap="butt" stroke-miterlimit="10" stroke-linejoin="miter" fill="none" stroke="#000000" d="M138.35169 114.2906H190.18663V157.96846H138.35169Z"/>
<path transform="matrix(1.00003,0,0,-1.00003,159.21134,17.49913)" stroke-width=".79701" stroke-linecap="butt" stroke-miterlimit="10" stroke-linejoin="miter" fill="none" stroke="#0000ff" d="M0 0C0 0 6.14426 0 8.50412 0 10.86398 0 17.00826 0 17.00826 0"/>
<use data-text="1" xlink:href="#font_4_2" transform="matrix(6.9740097,0,0,-6.9740097,188.65923,17.037117)"/>
<path transform="matrix(1.00003,0,0,-1.00003,28.27341,-92.51917)" stroke-width=".3985" stroke-linecap="butt" stroke-miterlimit="10" stroke-linejoin="miter" fill="none" stroke="#000000" d="M155.064-110.985H169.669"/>
<use data-text="x" xlink:href="#font_5_1" transform="matrix(6.9740097,0,0,-6.9740097,183.34206,24.39534)"/>
<use data-text="+" xlink:href="#font_4_1" transform="matrix(6.9740097,0,0,-6.9740097,187.8602,24.39534)"/>
<use data-text="1" xlink:href="#font_4_2" transform="matrix(6.9740097,0,0,-6.9740097,193.97641,24.39534)"/>
<path transform="matrix(1.00003,0,0,-1.00003,159.21134,31.395554)" stroke-width=".79701" stroke-linecap="butt" stroke-miterlimit="10" stroke-linejoin="miter" fill="none" stroke="#ff0000" d="M0 0C0 0 6.14426 0 8.50412 0 10.86398 0 17.00826 0 17.00826 0"/>
<use data-text="1" xlink:href="#font_4_2" transform="matrix(6.9740097,0,0,-6.9740097,180.07999,30.933533)"/>
<path transform="matrix(1.00003,0,0,-1.00003,24.738306,-92.51917)" stroke-width=".3985" stroke-linecap="butt" stroke-miterlimit="10" stroke-linejoin="miter" fill="none" stroke="#000000" d="M155.064-124.881H159.582"/>
<use data-text="x" xlink:href="#font_5_1" transform="matrix(6.9740097,0,0,-6.9740097,179.80696,38.29177)"/>
<use data-text="&#x2212;" xlink:href="#font_6_1" transform="matrix(9.962899,0,0,-9.962899,187.7342,34.856668)"/>
<use data-text="1" xlink:href="#font_1_2" transform="matrix(9.962899,0,0,-9.962899,197.69751,34.856668)"/>
<path transform="matrix(1.00003,0,0,-1.00003,159.21134,44.293939)" stroke-width=".3985" stroke-linecap="butt" stroke-dasharray="2.98883,2.98883" stroke-miterlimit="10" stroke-linejoin="miter" fill="none" stroke="#000000" d="M0 0H8.50412 17.00826"/>
<use data-text="1" xlink:href="#font_1_2" transform="matrix(9.962899,0,0,-9.962899,185.38613,46.75701)"/>
<use data-text="R" xlink:href="#font_7_1" transform="matrix(6.9740097,0,0,-6.9740097,190.36827,48.25106)"/>
</svg>
