<svg xmlns="http://www.w3.org/2000/svg" xmlns:xlink="http://www.w3.org/1999/xlink" xmlns:inkscape="http://www.inkscape.org/namespaces/inkscape" version="1.1" width="202" height="145" viewBox="0 0 202 145">
<defs>
<path id="font_1_2" d="M.37298585 .37835694C.35499574 .41537477 .32598878 .4423828 .2809906 .4423828 .1639862 .4423828 .039993287 .29533387 .039993287 .14929199 .039993287 .055267335 .09498596-.0107421879 .17298889-.0107421879 .19299317-.0107421879 .24299622-.0067443849 .30299378 .06427002 .31098939 .022247315 .34599305-.0107421879 .3939972-.0107421879 .42900086-.0107421879 .45199586 .012252808 .46798707 .044265748 .4850006 .08027649 .49798585 .14129639 .49798585 .14329529 .49798585 .1532898 .4889984 .1532898 .48599244 .1532898 .47599793 .1532898 .47499085 .14929199 .47200013 .13528443 .45498658 .07026672 .43699647 .011245728 .3959961 .011245728 .36898805 .011245728 .3659973 .037261964 .3659973 .057266237 .3659973 .07926941 .36799623 .08728027 .3789978 .13128662 .3899994 .17329407 .3919983 .18330384 .40098573 .22131348L.43699647 .36135865C.44400025 .38935853 .44400025 .39135743 .44400025 .39537049 .44400025 .41236878 .43199159 .42237855 .4149933 .42237855 .3909912 .42237855 .37599183 .4003601 .37298585 .37835694M.30799867 .119277957C.30299378 .10127258 .30299378 .09927368 .28799439 .08227539 .24398804 .027252198 .20298767 .011245728 .1749878 .011245728 .125 .011245728 .11099243 .06626892 .11099243 .105285648 .11099243 .1552887 .14299011 .27833558 .1659851 .32434083 .19699097 .38336183 .24198914 .42037965 .28199769 .42037965 .34700013 .42037965 .36099244 .3383484 .36099244 .33235169 .36099244 .32633973 .35899354 .32034303 .35798646 .31533814L.30799867 .119277957Z"/>
<path id="font_1_3" d="M.23899842 .68333438C.23899842 .6843262 .23899842 .69433596 .22599793 .69433596 .20298767 .69433596 .12998963 .6863251 .10398865 .6843262 .09599304 .68333438 .084991458 .6823273 .084991458 .6643219 .084991458 .6523285 .09399414 .6523285 .10899353 .6523285 .15699768 .6523285 .15899658 .6453247 .15899658 .6353302 .15899658 .6283264 .1499939 .5943451 .14498902 .573349L.06298828 .24731446C.050994874 .1973114 .04699707 .18130493 .04699707 .14628601 .04699707 .05126953 .099990848-.0107421879 .17399597-.0107421879 .2919922-.0107421879 .4149933 .1382904 .4149933 .28233338 .4149933 .37335206 .3619995 .4423828 .28199769 .4423828 .23599243 .4423828 .19499207 .41337586 .16499329 .38235475L.23899842 .68333438M.14498902 .30534364C.15098572 .3273468 .15098572 .3293457 .1599884 .3403473 .20899964 .405365 .2539978 .42037965 .27999879 .42037965 .31599427 .42037965 .34298707 .3903656 .34298707 .32633973 .34298707 .26733399 .30999757 .15229798 .2919922 .11428833 .25898744 .04725647 .21299744 .011245728 .17399597 .011245728 .13999939 .011245728 .10699463 .038253786 .10699463 .11227417 .10699463 .13128662 .10699463 .15029907 .12298584 .21331787L.14498902 .30534364Z"/>
<path id="font_1_1" d="M.47698976 .23631287C.47698976 .39337159 .38398744 .4423828 .30999757 .4423828 .17298889 .4423828 .040985109 .29933167 .040985109 .15829468 .040985109 .06526184 .100997928-.0107421879 .20298767-.0107421879 .2659912-.0107421879 .33799745 .012252808 .4139862 .073272708 .4269867 .020248414 .45999146-.0107421879 .5049896-.0107421879 .55799868-.0107421879 .58898928 .044265748 .58898928 .060272218 .58898928 .06726074 .58299258 .07026672 .57699587 .07026672 .56999209 .07026672 .5669861 .06726074 .56399539 .060272218 .54599 .011245728 .5099945 .011245728 .5079956 .011245728 .47698976 .011245728 .47698976 .089279178 .47698976 .11328125 .47698976 .1342926 .47698976 .1362915 .4869995 .14828491 .58099368 .2663269 .60198977 .38235475 .60198977 .38336183 .60198977 .38536073 .6009979 .39337159 .58999636 .39337159 .5799866 .39337159 .5799866 .3903656 .57499697 .37236024 .5569916 .30934144 .5239868 .23332215 .47698976 .17430115V.23631287M.4099884 .09927368C.32199098 .022247315 .24499512 .011245728 .20498657 .011245728 .14498902 .011245728 .114990238 .056259157 .114990238 .120285037 .114990238 .16929627 .14099121 .2773285 .17298889 .32833863 .21998596 .4013672 .27398683 .42037965 .30899049 .42037965 .4079895 .42037965 .4079895 .28933717 .4079895 .21130371 .4079895 .17430115 .4079895 .11628723 .4099884 .09927368Z"/>
<path id="font_2_1" d="M.68699648 .32714845C.70199587 .32714845 .72099307 .32714845 .72099307 .34713746 .72099307 .36714173 .70199587 .36714173 .6879883 .36714173H.08898926C.07499695 .36714173 .055999757 .36714173 .055999757 .34713746 .055999757 .32714845 .07499695 .32714845 .08999634 .32714845H.68699648M.6879883 .13284302C.70199587 .13284302 .72099307 .13284302 .72099307 .15284729 .72099307 .17285156 .70199587 .17285156 .68699648 .17285156H.08999634C.07499695 .17285156 .055999757 .17285156 .055999757 .15284729 .055999757 .13284302 .07499695 .13284302 .08898926 .13284302H.6879883Z"/>
<path id="font_1_4" d="M.3959961 .37998963C.37998963 .37998963 .3659973 .37998963 .35198976 .36598207 .33599855 .35098268 .33399964 .33398438 .33399964 .3269806 .33399964 .30297853 .35198976 .2919922 .37098695 .2919922 .3999939 .2919922 .4269867 .315979 .4269867 .35598756 .4269867 .40522767 .37998963 .4423828 .30899049 .4423828 .17399597 .4423828 .040985109 .2989807 .040985109 .15811157 .040985109 .06819153 .09899902-.0107421879 .20298767-.0107421879 .34599305-.0107421879 .42999269 .09516907 .42999269 .107162479 .42999269 .11315918 .42399598 .120147708 .41799928 .120147708 .41299439 .120147708 .41099549 .1181488 .40499879 .1101532 .32598878 .011245728 .21699524 .011245728 .20498657 .011245728 .14199829 .011245728 .114990238 .06021118 .114990238 .120147708 .114990238 .1611023 .1349945 .25801087 .16899109 .31999208 .19999695 .37698365 .25498963 .42037965 .30999757 .42037965 .34399415 .42037965 .38198854 .40724183 .3959961 .37998963Z"/>
<path id="font_3_1" d="M.5049896 .18203736H.47099305C.46798707 .16001892 .45799256 .100997928 .44499208 .09098816 .43699647 .084991458 .3600006 .084991458 .34599305 .084991458H.1619873C.2669983 .17803955 .3019867 .20603943 .3619995 .25306703 .43598939 .312088 .5049896 .374115 .5049896 .46914674 .5049896 .5900879 .39898683 .6640625 .2709961 .6640625 .14698792 .6640625 .06298828 .57710269 .06298828 .4851532 .06298828 .43414308 .10598755 .42915345 .115997318 .42915345 .13999939 .42915345 .16899109 .44615174 .16899109 .48214723 .16899109 .5001526 .1619873 .53515627 .10998535 .53515627 .14099121 .6060791 .20899964 .62805178 .2559967 .62805178 .35598756 .62805178 .4079895 .5501404 .4079895 .46914674 .4079895 .38212586 .34599305 .3130951 .31399537 .27708436L.07299805 .038986207C.06298828 .02999878 .06298828 .027999878 .06298828 0H.47499085L.5049896 .18203736Z"/>
<path id="font_4_1" d="M.44400025 .24998474C.44400025 .35688783 .35499574 .44381715 .25 .44381715 .14199829 .44381715 .054992677 .35488893 .054992677 .24998474 .054992677 .14407349 .14199829 .056137086 .25 .056137086 .35499574 .056137086 .44400025 .14308167 .44400025 .24998474Z"/>
<path id="font_5_88" d="M.19198609 .052993776C.19198609 .08198547 .16799927 .10598755 .13899231 .10598755 .10998535 .10598755 .085998538 .08198547 .085998538 .052993776 .085998538 .023986817 .10998535 0 .13899231 0 .16799927 0 .19198609 .023986817 .19198609 .052993776Z"/>
</defs>
<use data-text="a" xlink:href="#font_1_2" transform="matrix(9.963098,0,0,-9.963098,34.89679,32.291814)"/>
<use data-text="b" xlink:href="#font_1_3" transform="matrix(9.963098,0,0,-9.963098,28.304474,76.128009)"/>
<use data-text="&#x03b1;" xlink:href="#font_1_1" transform="matrix(9.963098,0,0,-9.963098,40.967103,54.866945)"/>
<use data-text="a" xlink:href="#font_1_2" transform="matrix(9.963098,0,0,-9.963098,47.36342,54.866945)"/>
<use data-text="=" xlink:href="#font_2_1" transform="matrix(9.963098,0,0,-9.963098,55.41182,54.866945)"/>
<use data-text="&#x03b1;" xlink:href="#font_1_1" transform="matrix(9.963098,0,0,-9.963098,65.928348,54.866945)"/>
<use data-text="b" xlink:href="#font_1_3" transform="matrix(9.963098,0,0,-9.963098,72.32466,54.866945)"/>
<use data-text="c" xlink:href="#font_1_4" transform="matrix(9.963098,0,0,-9.963098,56.63488,117.33606)"/>
<use data-text="&#x03b1;" xlink:href="#font_1_1" transform="matrix(9.963098,0,0,-9.963098,64.828289,76.72403)"/>
<use data-text="2" xlink:href="#font_3_1" transform="matrix(6.9741489,0,0,-6.9741489,71.23861,73.10785)"/>
<use data-text="c" xlink:href="#font_1_4" transform="matrix(9.963098,0,0,-9.963098,75.708827,76.72403)"/>
<use data-text="=" xlink:href="#font_2_1" transform="matrix(9.963098,0,0,-9.963098,82.788188,76.72403)"/>
<use data-text="&#x03b1;" xlink:href="#font_1_1" transform="matrix(9.963098,0,0,-9.963098,93.30471,76.72403)"/>
<use data-text="2" xlink:href="#font_3_1" transform="matrix(6.9741489,0,0,-6.9741489,99.715038,73.10785)"/>
<use data-text="a" xlink:href="#font_1_2" transform="matrix(9.963098,0,0,-9.963098,104.18426,76.72403)"/>
<use data-text="&#x2022;" xlink:href="#font_4_1" transform="matrix(9.963098,0,0,-9.963098,121.50112,86.22151)"/>
<use data-text="&#x2022;" xlink:href="#font_4_1" transform="matrix(9.963098,0,0,-9.963098,144.17925,97.56108)"/>
<use data-text="&#x2022;" xlink:href="#font_4_1" transform="matrix(9.963098,0,0,-9.963098,162.70319,108.900638)"/>
<use data-text="." xlink:href="#font_5_88" transform="matrix(9.963098,0,0,-9.963098,167.68543,108.900638)"/>
<use data-text="." xlink:href="#font_5_88" transform="matrix(9.963098,0,0,-9.963098,170.45517,108.900638)"/>
<use data-text="." xlink:href="#font_5_88" transform="matrix(9.963098,0,0,-9.963098,173.22492,108.900638)"/>
<use data-text="&#x03b1;" xlink:href="#font_1_1" transform="matrix(9.963098,0,0,-9.963098,67.603427,96.075)"/>
<use data-text="c" xlink:href="#font_1_4" transform="matrix(9.963098,0,0,-9.963098,73.99974,96.075)"/>
<path transform="matrix(1.00005,0,0,-1.00005,101.31311,72.66883)" stroke-width=".3985" stroke-linecap="butt" stroke-miterlimit="10" stroke-linejoin="miter" fill="none" stroke="#000000" d="M99.21382 0C99.21382 39.13927 54.79498 70.867 0 70.867-54.79498 70.867-99.21382 39.13927-99.21382 0-99.21382-39.13927-54.79498-70.867 0-70.867 54.79498-70.867 99.21382-39.13927 99.21382 0ZM0 0"/>
<path transform="matrix(1.00005,0,0,-1.00005,101.31311,72.66883)" stroke-width=".3985" stroke-linecap="butt" stroke-miterlimit="10" stroke-linejoin="miter" fill="none" stroke="#000000" d="M-58.11685 36.85562-50.90799 29.64796"/>
<path transform="matrix(.7071853,.7070653,.7070653,-.7071853,50.402566,43.01939)" d="M1.99252 0-1.19551 1.59401 0 0-1.19551-1.59401"/>
<path transform="matrix(1.00005,0,0,-1.00005,101.31311,72.66883)" stroke-width=".3985" stroke-linecap="butt" stroke-miterlimit="10" stroke-linejoin="miter" fill="none" stroke="#000000" d="M-65.20935 4.24202-53.41924 13.08545"/>
<path transform="matrix(.79999998,-.60005,-.60005,-.79999998,47.891206,59.58275)" d="M1.99252 0-1.19551 1.59401 0 0-1.19551-1.59401"/>
<path transform="matrix(1.00005,0,0,-1.00005,101.31311,72.66883)" stroke-width=".3985" stroke-linecap="butt" stroke-miterlimit="10" stroke-linejoin="miter" fill="none" stroke="#000000" d="M-33.21635 14.28099-25.86667 8.76997"/>
<path transform="matrix(.80008998,.59993,.59993,-.80008998,75.445148,63.898405)" d="M1.99252 0-1.19551 1.59401 0 0-1.19551-1.59401"/>
<path transform="matrix(1.00005,0,0,-1.00005,101.31311,72.66883)" stroke-width=".3985" stroke-linecap="butt" stroke-miterlimit="10" stroke-linejoin="miter" fill="none" stroke="#000000" d="M-38.74432-36.85562-33.22827-28.58241"/>
<path transform="matrix(.55472776,-.83203157,-.83203157,-.55472776,68.08316,101.25267)" d="M1.99252 0-1.19551 1.59401 0 0-1.19551-1.59401"/>
<path transform="matrix(1.00005,0,0,-1.00005,101.31311,72.66883)" stroke-width=".3985" stroke-linecap="butt" stroke-miterlimit="10" stroke-linejoin="miter" fill="none" stroke="#000000" d="M10.4422-7.57466 14.76268-8.90411"/>
<path transform="matrix(.95577779,.29409469,.29409469,-.95577779,116.07653,81.57339)" d="M1.99252 0-1.19551 1.59401 0 0-1.19551-1.59401"/>
<path transform="matrix(1.00005,0,0,-1.00005,101.31311,72.66883)" stroke-width=".3985" stroke-linecap="butt" stroke-miterlimit="10" stroke-linejoin="miter" fill="none" stroke="#000000" d="M28.68802-14.34352 37.5625-18.78136"/>
<path transform="matrix(.89440467,.44724236,.44724236,-.89440467,138.87749,91.451129)" d="M1.99252 0-1.19551 1.59401 0 0-1.19551-1.59401"/>
<path transform="matrix(1.00005,0,0,-1.00005,101.31311,72.66883)" stroke-width=".3985" stroke-linecap="butt" stroke-miterlimit="10" stroke-linejoin="miter" fill="none" stroke="#000000" d="M51.36555-25.68275 56.08517-28.04292"/>
<path transform="matrix(.89439466,.44726236,.44726236,-.89439466,157.40108,100.71315)" d="M1.99252 0-1.19551 1.59401 0 0-1.19551-1.59401"/>
<path transform="matrix(1.00005,0,0,-1.00005,101.31311,72.66883)" stroke-width=".3985" stroke-linecap="butt" stroke-miterlimit="10" stroke-linejoin="miter" fill="none" stroke="#000000" d="M-24.57109-15.59552-20.32825-9.23238"/>
<path transform="matrix(.5547477,-.8320115,-.8320115,-.5547477,80.98383,81.90168)" d="M1.99252 0-1.19551 1.59401 0 0-1.19551-1.59401"/>
</svg>
