<svg xmlns="http://www.w3.org/2000/svg" xmlns:xlink="http://www.w3.org/1999/xlink" xmlns:inkscape="http://www.inkscape.org/namespaces/inkscape" version="1.1" width="35" height="136" viewBox="0 0 35 136">
<defs>
<path id="font_1_2" d="M.9259949 .6056366C.93499758 .6416168 .93699648 .6516113 1.0119934 .6516113 1.0349884 .6516113 1.0439911 .6516113 1.0439911 .6716156 1.0439911 .6826172 1.0339966 .6826172 1.0169983 .6826172H.8849945C.85899356 .6826172 .8580017 .6826172 .84599307 .66360476L.48098756 .093948367 .40299989 .65960696C.3999939 .6826172 .397995 .6826172 .37199403 .6826172H.23498535C.21598816 .6826172 .20498657 .6826172 .20498657 .66360476 .20498657 .6516113 .21398926 .6516113 .23399353 .6516113 .24699402 .6516113 .2649994 .65060427 .2769928 .6496124 .29299928 .6476135 .29899598 .64460757 .29899598 .6336212 .29899598 .6296234 .2979889 .62661746 .29499818 .614624L.16799927 .10594177C.1579895 .065963748 .14099121 .033996583 .05999756 .0309906 .054992677 .0309906 .041992189 .02999878 .041992189 .011993408 .041992189 .0029907227 .04798889 0 .055999757 0 .08799744 0 .12298584 .0029907227 .1559906 .0029907227 .18998719 .0029907227 .22599793 0 .25898744 0 .2639923 0 .2769928 0 .2769928 .019989014 .2769928 .0309906 .2659912 .0309906 .25898744 .0309906 .20199585 .03199768 .19099427 .051986696 .19099427 .07496643 .19099427 .081954959 .19198609 .08695984 .19499207 .09794617L.33099366 .64260867H.33198548L.41799928 .022994996C.41999818 .010986328 .42099 0 .43299867 0 .44400025 0 .44999696 .010986328 .45498658 .017990113L.85899356 .65060427H.8600006L.71699526 .07795715C.70700076 .038986207 .7049866 .0309906 .6259918 .0309906 .60899356 .0309906 .59799197 .0309906 .59799197 .011993408 .59799197 0 .6100006 0 .61299136 0 .6409912 0 .70899966 .0029907227 .7369995 .0029907227 .7779999 .0029907227 .82099917 0 .8619995 0 .8679962 0 .8809967 0 .8809967 .019989014 .8809967 .0309906 .871994 .0309906 .8529968 .0309906 .81599429 .0309906 .7879944 .0309906 .7879944 .048980714 .7879944 .052978517 .7879944 .054977418 .79299929 .07296753L.9259949 .6056366Z"/>
<path id="font_1_1" d="M.30299378 .3244629H.3999939C.47499085 .3244629 .48298646 .30848695 .48298646 .27954103 .48298646 .2725525 .48298646 .26057435 .47599793 .2306366 .47399903 .22564698 .47299195 .22164917 .47299195 .21965027 .47299195 .21166992 .47898866 .20767212 .4850006 .20767212 .49499513 .20767212 .49499513 .21066284 .5 .2286377L.5549927 .44551087C.55799868 .45651246 .55799868 .45851136 .55799868 .46151734 .55799868 .46351625 .55599978 .47251893 .54599 .47251893 .5359955 .47251893 .5349884 .46751405 .5309906 .45150758 .5099945 .37347413 .4869995 .35546876 .4019928 .35546876H.31098939L.375 .6095886C.38398744 .64460757 .3849945 .64860537 .42900086 .64860537H.5609894C.6839905 .64860537 .70700076 .6156006 .70700076 .53855898 .70700076 .5155487 .70700076 .51153567 .70399478 .4845276 .70199587 .4715271 .70199587 .46951295 .70199587 .46652223 .70199587 .46151734 .7049866 .45451356 .71398928 .45451356 .72499087 .45451356 .7259979 .46051026 .7279968 .4795227L.7480011 .65260317C.7509918 .6796112 .74598696 .6796112 .72099307 .6796112H.23098755C.21099854 .6796112 .20098877 .6796112 .20098877 .65960696 .20098877 .64860537 .20999146 .64860537 .22898865 .64860537 .2659912 .64860537 .2939911 .64860537 .2939911 .6306 .2939911 .6266022 .2939911 .6246033 .2889862 .60658267L.15699768 .07791138C.14698792 .038970949 .14498902 .0309906 .06599426 .0309906 .04899597 .0309906 .037994386 .0309906 .037994386 .011993408 .037994386 0 .049987794 0 .052993776 0 .08198547 0 .1559906 .0029907227 .18499756 .0029907227 .21798706 .0029907227 .30099488 0 .33399964 0 .34298707 0 .35499574 0 .35499574 .018997193 .35499574 .026992798 .34899903 .0289917 .34899903 .02999878 .34599305 .0309906 .34399415 .0309906 .32099916 .0309906 .29899598 .0309906 .2939911 .0309906 .2689972 .032989503 .23999024 .035980226 .23699951 .039978029 .23699951 .052947999 .23699951 .0549469 .23699951 .060943605 .24099732 .075912479L.30299378 .3244629Z"/>
<path id="font_2_2" d="M.49198915 .68133547C.49198915 .69433596 .47999574 .69433596 .47499085 .69433596 .45999146 .69433596 .45899964 .68933108 .45498658 .67233279L.397995 .44335938C.22099304 .4353485 .069992069 .30833436 .069992069 .17430115 .069992069 .061279298 .17298889-.006729126 .28399659-.010726929 .27598573-.041793825 .2689972-.0738678 .26098634-.10493469 .24899292-.15203858 .23999024-.18910218 .23999024-.19210816 .23999024-.20410156 .25299073-.20410156 .2559967-.20410156 .2709961-.20410156 .27198792-.20111084 .2769928-.18009949L.31900025-.01171875C.48999024-.0047302248 .6469879 .121292117 .6469879 .25732423 .6469879 .3623352 .5549927 .4373474 .43299867 .4423523L.49198915 .68133547M.29100038 .01727295C.21398926 .021270752 .14299011 .0632782 .14299011 .15730286 .14299011 .25732423 .21899414 .39834596 .3899994 .41435243L.29100038 .01727295M.4249878 .41435243C.5019989 .41134645 .57398989 .369339 .57398989 .2743225 .57398989 .16529846 .48799134 .031280519 .32598878 .01727295L.4249878 .41435243Z"/>
<path id="font_2_1" d="M.053985597-.16085816C.049987794-.1758728 .049987794-.18086243 .049987794-.1818695 .049987794-.20387268 .067993167-.21386719 .083999637-.21386719 .11999512-.21386719 .12799073-.18086243 .13198853-.16386414 .13398743-.15885926 .1539917-.078811649 .17799378 .019226075 .20899964-.0017700195 .24899292-.009765625 .2849884-.009765625 .37098695-.009765625 .4269867 .0602417 .42900086 .0622406 .44799806-.0067749025 .5169983-.009765625 .5319977-.009765625 .56799319-.009765625 .59298709 .01222229 .61099246 .04324341 .6329956 .08226013 .6459961 .13928223 .6459961 .14328003 .6459961 .15628052 .6329956 .15628052 .6299896 .15628052 .6159973 .15628052 .61499026 .15228272 .60798647 .12527466 .59599307 .07725525 .57699587 .018234253 .5349884 .018234253 .5089874 .018234253 .5019989 .040237428 .5019989 .06724548 .5019989 .08425903 .5099945 .120269779 .5169983 .14628601 .5239868 .17329407 .5339966 .21430969 .5389862 .23631287L.56199648 .3253479C.56799319 .3503723 .57899478 .39437867 .57899478 .39938355 .57899478 .41938783 .5629883 .43139649 .54599 .43139649 .5349884 .43139649 .5159912 .4263916 .5049896 .4073944 .5019989 .40138246 .49398805 .3693695 .4889984 .34936524L.46798707 .2663269 .43699647 .14128113C.42999269 .11627197 .42999269 .11427307 .42099 .101257327 .3899994 .057235719 .34599305 .018234253 .2889862 .018234253 .20698548 .018234253 .20698548 .089263919 .20698548 .10726929 .20698548 .13327027 .20999146 .14628601 .22399903 .20030213 .23399353 .24432373 .23599243 .2513275 .24598694 .29034425L.2599945 .34635926C.2649994 .3673706 .2749939 .4053955 .2749939 .4093933 .2749939 .42739869 .26098634 .44140626 .24099732 .44140626 .20498657 .44140626 .19599915 .40638734 .19299317 .39437867L.053985597-.16085816Z"/>
<path id="font_3_1" d="M.3600006 .46505738C.36099244 .46606446 .36999513 .48506166 .36999513 .50006106 .36999513 .5360565 .33799745 .5590515 .30799867 .5590515 .2669983 .5590515 .2559967 .5280609 .25099183 .5130615L.09700012 .080078128C.09298706 .06808472 .09298706 .065078739 .09298706 .064071658 .09298706 .048080446 .1349945 .038085939 .13598633 .038085939 .14498902 .038085939 .14698792 .04307556 .15299988 .05508423L.3600006 .46505738Z"/>
</defs>
<use data-text="M" xlink:href="#font_1_2" transform="matrix(9.9626,0,0,-9.962899,12.194,43.878953)"/>
<use data-text="F" xlink:href="#font_1_1" transform="matrix(9.9626,0,0,-9.962899,13.673996,100.57466)"/>
<path transform="matrix(1,0,0,-1.00003,31.742997,97.170558)" stroke-width=".3985" stroke-linecap="butt" stroke-miterlimit="10" stroke-linejoin="miter" fill="none" stroke="#000000" d="M-7.25092 63.61737C23.30125 94.16765-51.64804 94.16765-23.96692 66.48824"/>
<path transform="matrix(.70712,.7071012,.70708,-.7071412,6.5611155,29.465409)" d="M4.21463 0 .64343 1.34572 1.8178 0 .64343-1.34572Z"/>
<path transform="matrix(.70712,.7071012,.70708,-.7071412,6.5611155,29.465409)" stroke-width=".3985" stroke-linecap="butt" stroke-miterlimit="10" stroke-linejoin="miter" fill="none" stroke="#000000" d="M4.21463 0 .64343 1.34572 1.8178 0 .64343-1.34572Z"/>
<use data-text="&#x03d5;" xlink:href="#font_2_2" transform="matrix(6.9738,0,0,-6.9740097,15.173996,5.7618105)"/>
<path transform="matrix(1,0,0,-1.00003,31.742997,97.170558)" stroke-width=".3985" stroke-linecap="butt" stroke-miterlimit="10" stroke-linejoin="miter" fill="none" stroke="#000000" d="M-21.09587-6.92375C-51.64804-37.47403 23.30125-37.47403-4.37987-9.79462"/>
<path transform="matrix(-.70712,-.7071012,-.70708,.7071412,28.578106,108.180377)" d="M4.21463 0 .64343 1.34572 1.8178 0 .64343-1.34572Z"/>
<path transform="matrix(-.70712,-.7071012,-.70708,.7071412,28.578106,108.180377)" stroke-width=".3985" stroke-linecap="butt" stroke-miterlimit="10" stroke-linejoin="miter" fill="none" stroke="#000000" d="M4.21463 0 .64343 1.34572 1.8178 0 .64343-1.34572Z"/>
<use data-text="&#x00b5;" xlink:href="#font_2_1" transform="matrix(6.9738,0,0,-6.9740097,15.147995,133.53064)"/>
<path transform="matrix(1,0,0,-1.00003,31.742997,97.170558)" stroke-width=".3985" stroke-linecap="butt" stroke-miterlimit="10" stroke-linejoin="miter" fill="none" stroke="#000000" d="M-17.00803 49.76985V9.98766"/>
<path transform="matrix(0,1.00003,1,0,14.734966,85.46434)" d="M4.21463 0 .64343 1.34572 1.8178 0 .64343-1.34572Z"/>
<path transform="matrix(0,1.00003,1,0,14.734966,85.46434)" stroke-width=".3985" stroke-linecap="butt" stroke-miterlimit="10" stroke-linejoin="miter" fill="none" stroke="#000000" d="M4.21463 0 .64343 1.34572 1.8178 0 .64343-1.34572Z"/>
<use data-text="&#x00b5;" xlink:href="#font_2_1" transform="matrix(6.9738,0,0,-6.9740097,3.6759949,71.03177)"/>
<use data-text="&#x2032;" xlink:href="#font_3_1" transform="matrix(4.9813,0,0,-4.9814498,8.519989,68.02569)"/>
<path transform="matrix(1,0,0,-1.00003,31.742997,97.170558)" stroke-width=".3985" stroke-linecap="butt" stroke-miterlimit="10" stroke-linejoin="miter" fill="none" stroke="#000000" d="M-11.33876 6.92375V46.70595"/>
<path transform="matrix(0,-1.00003,-1,-0,20.404236,52.181455)" d="M4.21463 0 .64343 1.34572 1.8178 0 .64343-1.34572Z"/>
<path transform="matrix(0,-1.00003,-1,-0,20.404236,52.181455)" stroke-width=".3985" stroke-linecap="butt" stroke-miterlimit="10" stroke-linejoin="miter" fill="none" stroke="#000000" d="M4.21463 0 .64343 1.34572 1.8178 0 .64343-1.34572Z"/>
<use data-text="&#x03d5;" xlink:href="#font_2_2" transform="matrix(6.9738,0,0,-6.9740097,23.923996,71.03177)"/>
<use data-text="&#x2032;" xlink:href="#font_3_1" transform="matrix(4.9813,0,0,-4.9814498,28.714997,68.02569)"/>
</svg>
