<svg xmlns="http://www.w3.org/2000/svg" xmlns:xlink="http://www.w3.org/1999/xlink" xmlns:inkscape="http://www.inkscape.org/namespaces/inkscape" version="1.1" width="401" height="287" viewBox="0 0 401 287">
<defs>
<path id="font_1_1" d="M.45999146 .31976319C.45999146 .39982606 .45498658 .47988893 .41999818 .5539398 .37399293 .65000918 .2919922 .6660156 .25 .6660156 .18998719 .6660156 .116989139 .64001467 .07598877 .54693606 .04399109 .47789 .038986207 .39982606 .038986207 .31976319 .038986207 .24472046 .042999269 .15464783 .083999637 .07859802 .1269989-.0024719239 .19999695-.022460938 .24899292-.022460938 .30299378-.022460938 .3789978-.0014648438 .4229889 .09359741 .45498658 .16265869 .45999146 .2407074 .45999146 .31976319M.24899292-.00047302247C.20999146-.00047302247 .15098572 .024551392 .1329956 .12062073 .12199402 .18066406 .12199402 .2727356 .12199402 .3317871 .12199402 .39582826 .12199402 .46188355 .12998963 .5159149 .14898682 .63500979 .22399903 .64401248 .24899292 .64401248 .28199769 .64401248 .34799195 .6259918 .36698915 .52693179 .3769989 .47088624 .3769989 .39482118 .3769989 .3317871 .3769989 .25672914 .3769989 .18867493 .3659973 .12461853 .35099793 .029556275 .2939911-.00047302247 .24899292-.00047302247Z"/>
<path id="font_1_2" d="M.2939911 .64004519C.2939911 .66400149 .2939911 .6660156 .2709961 .6660156 .20899964 .60227969 .12098694 .60227969 .08898926 .60227969V.57128909C.10899353 .57128909 .16799927 .57128909 .21998596 .5972748V.07902527C.21998596 .042999269 .21699524 .0309906 .1269989 .0309906H.09498596V0C.12998963 .0029907227 .21699524 .0029907227 .25698854 .0029907227 .29699708 .0029907227 .38398744 .0029907227 .4189911 0V.0309906H.3869934C.29699708 .0309906 .2939911 .041992189 .2939911 .07902527V.64004519Z"/>
<path id="font_1_3" d="M.1269989 .07699585 .23298645 .18003845C.3889923 .31811524 .44898988 .3721466 .44898988 .47216798 .44898988 .5860901 .35899354 .6660156 .23699951 .6660156 .12399292 .6660156 .049987794 .57411196 .049987794 .48516847 .049987794 .4291687 .099990848 .4291687 .102996829 .4291687 .11999512 .4291687 .15499878 .44117738 .15499878 .48217774 .15499878 .5081787 .13699341 .5341797 .101989749 .5341797 .09399414 .5341797 .09199524 .5341797 .08898926 .5331726 .11199951 .59806826 .1659851 .63500979 .22399903 .63500979 .31498719 .63500979 .35798646 .5541382 .35798646 .47216798 .35798646 .39215089 .30799867 .31311036 .25299073 .25108338L.06098938 .036987306C.049987794 .025985718 .049987794 .023986817 .049987794 0H.42099L.44898988 .17404175H.42399598C.4189911 .14402771 .4119873 .1000061 .4019928 .084991458 .394989 .07699585 .32899476 .07699585 .30699159 .07699585H.1269989Z"/>
<path id="font_1_4" d="M.2899933 .35191346C.37199403 .37893678 .42999269 .4490509 .42999269 .52809146 .42999269 .6100464 .34199525 .6660156 .24598694 .6660156 .14498902 .6660156 .068984989 .60606387 .068984989 .53009036 .068984989 .49710084 .09098816 .47808839 .11999512 .47808839 .15098572 .47808839 .17098999 .50009158 .17098999 .5290985 .17098999 .57910159 .12399292 .57910159 .10899353 .57910159 .13999939 .62802127 .20599365 .64100649 .24198914 .64100649 .2829895 .64100649 .33799745 .6190338 .33799745 .5290985 .33799745 .51708987 .33599855 .45906068 .30999757 .4149933 .27999879 .36691285 .24598694 .36390687 .22099304 .36291505 .21299744 .36190797 .18899536 .35990907 .18199158 .35990907 .17399597 .35890199 .16699219 .35791017 .16699219 .3479004 .16699219 .33691407 .17399597 .33691407 .19099427 .33691407H.23498535C.31698609 .33691407 .35398866 .2686615 .35398866 .17037964 .35398866 .034469606 .2849884 .0055389406 .24099732 .0055389406 .19799805 .0055389406 .12298584 .022491456 .08799744 .08137512 .12298584 .07637024 .1539917 .09837341 .1539917 .1363678 .1539917 .17237854 .1269989 .19238281 .09799194 .19238281 .07398987 .19238281 .041992189 .17837525 .041992189 .1343689 .041992189 .043441774 .1349945-.022460938 .24398804-.022460938 .3659973-.022460938 .45700074 .06838989 .45700074 .17037964 .45700074 .252594 .3939972 .33088685 .2899933 .35191346Z"/>
<path id="font_1_5" d="M.2939911 .16503906V.07800293C.2939911 .041992189 .2919922 .0309906 .21798706 .0309906H.19699097V0C.23799134 .0029907227 .2899933 .0029907227 .33198548 .0029907227 .37399293 .0029907227 .4269867 .0029907227 .46798707 0V.0309906H.44699098C.37298585 .0309906 .37098695 .041992189 .37098695 .07800293V.16503906H.47099305V.19602967H.37098695V.65075686C.37098695 .67074587 .37098695 .6767578 .35499574 .6767578 .34599305 .6767578 .34298707 .6767578 .33499146 .66474917L.027999878 .19602967V.16503906H.2939911M.2999878 .19602967H.055999757L.2999878 .5688019V.19602967Z"/>
<path id="font_1_6" d="M.44898988 .20022583C.44898988 .3193512 .36698915 .41944886 .25898744 .41944886 .21099854 .41944886 .16799927 .40345765 .13198853 .36842347V.5637665C.1519928 .5577698 .18499756 .55078127 .21699524 .55078127 .33999635 .55078127 .4099884 .6417694 .4099884 .6547699 .4099884 .6607666 .40699769 .6657715 .3999939 .6657715 .39898683 .6657715 .39698792 .6657715 .3919983 .66278079 .37199403 .6537781 .32299806 .6337738 .2559967 .6337738 .21598816 .6337738 .16999817 .6407776 .12298584 .6617737 .114990238 .66477969 .11299133 .66477969 .11099243 .66477969 .100997928 .66477969 .100997928 .6567688 .100997928 .6407776V.34439088C.100997928 .32637025 .100997928 .31835938 .114990238 .31835938 .12199402 .31835938 .12399292 .32136537 .12799073 .32736207 .13899231 .3433838 .17599488 .39746095 .25698854 .39746095 .30899049 .39746095 .33399964 .35139466 .34199525 .33337403 .35798646 .29632569 .3600006 .25727845 .3600006 .20722962 .3600006 .17222595 .3600006 .11222839 .33599855 .07035828 .31199647 .031463624 .2749939 .0055389406 .22898865 .0055389406 .1559906 .0055389406 .09899902 .058380128 .08198547 .11723328 .084991458 .1162262 .08799744 .115234378 .09899902 .115234378 .13198853 .115234378 .14898682 .14022827 .14898682 .16423035 .14898682 .18823242 .13198853 .21322632 .09899902 .21322632 .084991458 .21322632 .049987794 .20622254 .049987794 .16023255 .049987794 .07434082 .11898804-.022460938 .23098755-.022460938 .34700013-.022460938 .44898988 .073349 .44898988 .20022583Z"/>
<path id="font_1_7" d="M.13198853 .327713V.35173036C.13198853 .6047821 .2559967 .64100649 .30699159 .64100649 .33099366 .64100649 .37298585 .634964 .394989 .6007538 .37998963 .6007538 .33999635 .6007538 .33999635 .5557556 .33999635 .524765 .3639984 .5097656 .38598634 .5097656 .4019928 .5097656 .43199159 .51875308 .43199159 .5577545 .43199159 .6178589 .3880005 .6660156 .30499269 .6660156 .1769867 .6660156 .041992189 .5367584 .041992189 .31570436 .041992189 .048553468 .1579895-.022460938 .25099183-.022460938 .3619995-.022460938 .45700074 .07156372 .45700074 .2036438 .45700074 .33070375 .36799623 .4267578 .25698854 .4267578 .18899536 .4267578 .1519928 .37573243 .13198853 .327713M.25099183 .0055389406C.18798828 .0055389406 .1579895 .06556702 .1519928 .080566409 .13398743 .127594 .13398743 .2076416 .13398743 .22564698 .13398743 .30369569 .1659851 .40374757 .2559967 .40374757 .27198792 .40374757 .31799317 .40374757 .34899903 .34172059 .36698915 .30470277 .36698915 .2536621 .36698915 .20463562 .36698915 .15661621 .36698915 .10658264 .34999085 .0705719 .31999208 .010528564 .27398683 .0055389406 .25099183 .0055389406Z"/>
<path id="font_1_8" d="M.47599793 .609375C.4850006 .6213684 .4850006 .62338259 .4850006 .64437869H.24198914C.11999512 .64437869 .117996219 .65737918 .11399841 .67637637H.08898926L.055999757 .4702301H.08099365C.083999637 .48625184 .09298706 .5493469 .10598755 .56137087 .11299133 .5673828 .19099427 .5673828 .20399475 .5673828H.41099549C.3999939 .5513611 .32099916 .4421997 .29899598 .40914918 .20899964 .27394105 .17599488 .1347351 .17599488 .032577516 .17599488 .022567749 .17599488-.022460938 .22200012-.022460938 .2679901-.022460938 .2679901 .022567749 .2679901 .032577516V.08366394C.2679901 .13873291 .2709961 .19381714 .2789917 .24790955 .2829895 .27093507 .29699708 .35707093 .34098817 .41915895L.47599793 .609375Z"/>
<path id="font_2_3" d="M.08799744 .059265138C.084991458 .044265748 .07899475 .021255494 .07899475 .01625061 .07899475-.0017547608 .09298706-.0107421879 .10798645-.0107421879 .11999512-.0107421879 .13798523-.002746582 .14498902 .01725769 .1459961 .019256592 .1579895 .06626892 .1639862 .091278079L.18598938 .18130493C.19198609 .2033081 .19799805 .22531128 .20298767 .24832154 .20698548 .26531983 .21499634 .29434205 .21598816 .29833985 .23098755 .3293457 .28399659 .42037965 .3789978 .42037965 .42399598 .42037965 .43299867 .38336183 .43299867 .35035707 .43299867 .28833009 .38398744 .16029358 .36799623 .11727905 .35899354 .0942688 .35798646 .08227539 .35798646 .0712738 .35798646 .024261475 .3929901-.0107421879 .43998719-.0107421879 .5339966-.0107421879 .57099917 .13528443 .57099917 .14329529 .57099917 .1532898 .56199648 .1532898 .5589905 .1532898 .548996 .1532898 .548996 .15029907 .5439911 .13528443 .5239868 .06726074 .4909973 .011245728 .44198609 .011245728 .4249878 .011245728 .41799928 .021255494 .41799928 .044265748 .41799928 .0692749 .4269867 .09327698 .43598939 .11528015 .45498658 .16830445 .49699403 .27833558 .49699403 .3353424 .49699403 .40237428 .45399476 .4423828 .38198854 .4423828 .2919922 .4423828 .24299622 .37835694 .22599793 .35534669 .22099304 .41137696 .17999268 .4423828 .13398743 .4423828 .08799744 .4423828 .068984989 .4033661 .05899048 .38536073 .042999269 .35134889 .0289917 .29232789 .0289917 .28833009 .0289917 .27833558 .038986207 .27833558 .040985109 .27833558 .050994874 .27833558 .051986696 .2793274 .057998659 .30133058 .07499695 .37236024 .09498596 .42037965 .1309967 .42037965 .15098572 .42037965 .1619873 .4073639 .1619873 .37435914 .1619873 .35334779 .15899658 .3423462 .1459961 .29032899L.08799744 .059265138Z"/>
<path id="font_2_1" d="M.5159912 .68333438C.5159912 .6843262 .5159912 .69433596 .5029907 .69433596 .48799134 .69433596 .3929901 .68533328 .37599183 .68333438 .36799623 .6823273 .3619995 .6773224 .3619995 .6643219 .3619995 .6523285 .37098695 .6523285 .38598634 .6523285 .43399049 .6523285 .43598939 .6453247 .43598939 .6353302L.43299867 .6153412 .37298585 .37835694C.35499574 .41537477 .32598878 .4423828 .2809906 .4423828 .1639862 .4423828 .039993287 .29533387 .039993287 .14929199 .039993287 .055267335 .09498596-.0107421879 .17298889-.0107421879 .19299317-.0107421879 .24299622-.0067443849 .30299378 .06427002 .31098939 .022247315 .34599305-.0107421879 .3939972-.0107421879 .42900086-.0107421879 .45199586 .012252808 .46798707 .044265748 .4850006 .08027649 .49798585 .14129639 .49798585 .14329529 .49798585 .1532898 .4889984 .1532898 .48599244 .1532898 .47599793 .1532898 .47499085 .14929199 .47200013 .13528443 .45498658 .07026672 .43699647 .011245728 .3959961 .011245728 .36898805 .011245728 .3659973 .037261964 .3659973 .057266237 .3659973 .08126831 .36799623 .088272098 .37199403 .105285648L.5159912 .68333438M.30799867 .119277957C.30299378 .10127258 .30299378 .09927368 .28799439 .08227539 .24398804 .027252198 .20298767 .011245728 .1749878 .011245728 .125 .011245728 .11099243 .06626892 .11099243 .105285648 .11099243 .1552887 .14299011 .27833558 .1659851 .32434083 .19699097 .38336183 .24198914 .42037965 .28199769 .42037965 .34700013 .42037965 .36099244 .3383484 .36099244 .33235169 .36099244 .32633973 .35899354 .32034303 .35798646 .31533814L.30799867 .119277957Z"/>
<path id="font_2_2" d="M.18699646 .23144531C.21598816 .23144531 .2899933 .23344422 .33999635 .2544403 .4099884 .28442384 .4149933 .34339906 .4149933 .35740663 .4149933 .40138246 .3769989 .4423828 .30799867 .4423828 .19699097 .4423828 .04598999 .34539796 .04598999 .17037964 .04598999 .06829834 .10499573-.0107421879 .20298767-.0107421879 .34599305-.0107421879 .42999269 .095321658 .42999269 .10733032 .42999269 .113342288 .42399598 .12034607 .41799928 .12034607 .41299439 .12034607 .41099549 .11834717 .40499879 .1103363 .32598878 .011245728 .21699524 .011245728 .20498657 .011245728 .1269989 .011245728 .117996219 .095321658 .117996219 .12734986 .117996219 .13935852 .11898804 .17037964 .13398743 .23144531H.18699646M.13999939 .25343324C.1789856 .40538026 .28199769 .42037965 .30799867 .42037965 .35499574 .42037965 .38198854 .39138795 .38198854 .35740663 .38198854 .25343324 .22200012 .25343324 .18099976 .25343324H.13999939Z"/>
<path id="font_3_1" d="M.5159912 .31925965C.5159912 .42918397 .5029907 .50813296 .45700074 .5780945 .42599488 .62405398 .3639984 .6640625 .28399659 .6640625 .051986696 .6640625 .051986696 .39120484 .051986696 .31925965 .051986696 .2472992 .051986696-.01953125 .28399659-.01953125 .5159912-.01953125 .5159912 .2472992 .5159912 .31925965M.28399659 .008468628C.23799134 .008468628 .1769867 .035446168 .15699768 .117385867 .14299011 .17634583 .14299011 .25830079 .14299011 .33224488 .14299011 .40519715 .14299011 .4811554 .1579895 .53611758 .1789856 .6150665 .24299622 .63604739 .28399659 .63604739 .33799745 .63604739 .3899994 .6030731 .4079895 .545105 .42399598 .4911499 .4249878 .41918946 .4249878 .33224488 .4249878 .25830079 .4249878 .18434143 .4119873 .12138367 .3919983 .030441285 .32398988 .008468628 .28399659 .008468628Z"/>
<path id="font_3_2" d="M.33499146 .63612368C.33499146 .6630554 .33299256 .6640625 .30499269 .6640625 .24099732 .6014404 .1499939 .6004486 .10899353 .6004486V.5644531C.1329956 .5644531 .19898987 .5644531 .2539978 .592453V.08203125C.2539978 .04899597 .2539978 .035995485 .1539917 .035995485H.115997318V0C.13398743 .0009918213 .25698854 .0039978029 .2939911 .0039978029 .32499696 .0039978029 .45098878 .0009918213 .47299195 0V.035995485H.43499757C.33499146 .035995485 .33499146 .04899597 .33499146 .08203125V.63612368Z"/>
<path id="font_3_3" d="M.5049896 .18203736H.47099305C.46798707 .16001892 .45799256 .100997928 .44499208 .09098816 .43699647 .084991458 .3600006 .084991458 .34599305 .084991458H.1619873C.2669983 .17803955 .3019867 .20603943 .3619995 .25306703 .43598939 .312088 .5049896 .374115 .5049896 .46914674 .5049896 .5900879 .39898683 .6640625 .2709961 .6640625 .14698792 .6640625 .06298828 .57710269 .06298828 .4851532 .06298828 .43414308 .10598755 .42915345 .115997318 .42915345 .13999939 .42915345 .16899109 .44615174 .16899109 .48214723 .16899109 .5001526 .1619873 .53515627 .10998535 .53515627 .14099121 .6060791 .20899964 .62805178 .2559967 .62805178 .35598756 .62805178 .4079895 .5501404 .4079895 .46914674 .4079895 .38212586 .34599305 .3130951 .31399537 .27708436L.07299805 .038986207C.06298828 .02999878 .06298828 .027999878 .06298828 0H.47499085L.5049896 .18203736Z"/>
<path id="font_3_4" d="M.272995 .33428956C.35099793 .33428956 .40699769 .2803192 .40699769 .1733551 .40699769 .04940796 .33499146 .012466431 .2769928 .012466431 .23699951 .012466431 .14898682 .0234375 .10699463 .082351688 .1539917 .084350589 .16499329 .11735535 .16499329 .13835144 .16499329 .17034912 .14099121 .19335938 .10998535 .19335938 .08198547 .19335938 .053985597 .17634583 .053985597 .13534546 .053985597 .041412355 .1579895-.01953125 .2789917-.01953125 .41799928-.01953125 .5139923 .07336426 .5139923 .1733551 .5139923 .2513275 .44999696 .32929994 .33999635 .35229493 .44499208 .39024354 .48298646 .4650879 .48298646 .5260773 .48298646 .60505679 .3919983 .6640625 .2809906 .6640625 .16999817 .6640625 .084991458 .61006167 .084991458 .5300751 .084991458 .49606324 .10699463 .47706605 .13699341 .47706605 .16799927 .47706605 .18798828 .5000763 .18798828 .5280762 .18798828 .5570679 .16799927 .57806399 .13699341 .5800781 .17199707 .62405398 .24099732 .63505557 .27799989 .63505557 .32299806 .63505557 .38598634 .6130676 .38598634 .5260773 .38598634 .48406983 .37199403 .43814088 .34599305 .4072113 .31298829 .36927796 .2849884 .3672943 .23498535 .36428834 .20999146 .3623047 .20799256 .3623047 .20298767 .3612976 .20098877 .3612976 .19299317 .3592987 .19299317 .34829713 .19299317 .33428956 .20199585 .33428956 .21899414 .33428956H.272995Z"/>
<path id="font_3_5" d="M.5289917 .1640625V.20005799H.41799928V.64582827C.41799928 .66682437 .41799928 .6738281 .3959961 .6738281 .38398744 .6738281 .37998963 .6738281 .36999513 .65982058L.038986207 .20005799V.1640625H.33299256V.08201599C.33299256 .04800415 .33299256 .035995485 .2519989 .035995485H.22499085V0C.2749939 .0019989014 .33898927 .0039978029 .375 .0039978029 .4119873 .0039978029 .47599793 .0019989014 .526001 0V.035995485H.49899293C.41799928 .035995485 .41799928 .04800415 .41799928 .08201599V.1640625H.5289917M.33999635 .5658722V.20005799H.07598877L.33999635 .5658722Z"/>
<path id="font_3_6" d="M.15499878 .5588074C.20599365 .5458069 .23599243 .5458069 .2519989 .5458069 .38398744 .5458069 .46199037 .6358032 .46199037 .6508026 .46199037 .6618042 .45498658 .6648102 .44999696 .6648102 .44799806 .6648102 .44599916 .6648102 .44198609 .6618042 .41799928 .6528015 .36499024 .6328125 .29100038 .6328125 .2630005 .6328125 .20999146 .6348114 .14498902 .6598053 .1349945 .6648102 .1329956 .6648102 .13198853 .6648102 .11898804 .6648102 .11898804 .6538086 .11898804 .6378021V.34251405C.11898804 .32548524 .11898804 .3134613 .1349945 .3134613 .14399719 .3134613 .14498902 .3154602 .15499878 .32748414 .19799805 .38259889 .25898744 .390625 .2939911 .390625 .35398866 .390625 .3809967 .34251405 .38598634 .33450318 .4039917 .30143739 .4099884 .26335145 .4099884 .20524597 .4099884 .17524719 .4099884 .116256717 .37998963 .07234192 .35499574 .03640747 .31199647 .012466431 .2630005 .012466431 .19799805 .012466431 .1309967 .04838562 .10598755 .11425781 .14399719 .11125183 .16299439 .13624573 .16299439 .16325379 .16299439 .20625305 .12599182 .21424866 .11299133 .21424866 .11099243 .21424866 .06298828 .21424866 .06298828 .1602478 .06298828 .07034302 .14498902-.01953125 .2649994-.01953125 .3929901-.01953125 .5049896 .07533264 .5049896 .20124817 .5049896 .31445313 .4189911 .41862489 .29499818 .41862489 .25099183 .41862489 .19898987 .4076233 .15499878 .36956788V.5588074Z"/>
<path id="font_3_7" d="M.1499939 .3274536C.1499939 .40945436 .15699768 .48303224 .19499207 .543869 .22898865 .5978699 .2829895 .63505557 .34700013 .63505557 .3769989 .63505557 .4169922 .62701418 .43699647 .5998688 .4119873 .5978699 .3909912 .5808716 .3909912 .5518799 .3909912 .5268707 .4079895 .5048828 .43798829 .5048828 .46798707 .5048828 .48599244 .5248718 .48599244 .5538788 .48599244 .6119385 .44400025 .6640625 .34498597 .6640625 .20098877 .6640625 .053985597 .5318756 .053985597 .3174591 .053985597 .05845642 .17599488-.01953125 .28599549-.01953125 .4079895-.01953125 .5139923 .07345581 .5139923 .20445252 .5139923 .33145143 .41299439 .42546083 .29599 .42546083 .21598816 .42546083 .17199707 .37245179 .1499939 .3274536M.28599549 .012466431C.23599243 .012466431 .19699097 .04145813 .17599488 .08546448 .16099549 .11546326 .15299988 .16545105 .15299988 .22544861 .15299988 .32244874 .21099854 .39746095 .29100038 .39746095 .33699037 .39746095 .36799623 .37945558 .3929901 .342453 .4169922 .30445863 .41799928 .26245118 .41799928 .20445252 .41799928 .14746094 .41799928 .10545349 .3909912 .066467288 .36698915 .031463624 .33499146 .012466431 .28599549 .012466431Z"/>
<path id="font_3_8" d="M.5349884 .6045227C.54499819 .6165161 .54499819 .6185303 .54499819 .64453127H.2829895C.24299622 .64453127 .23199463 .6455078 .19599915 .6484375 .14399719 .65234377 .14199829 .6592407 .13899231 .676239H.10499573L.069992069 .46250917H.10398865C.10598755 .47750855 .115997318 .54351809 .13198853 .5535126 .13999939 .55952456 .22099304 .55952456 .23599243 .55952456H.45399476C.42199708 .5175171 .37098695 .45550538 .34999085 .4275055 .21899414 .25549317 .20698548 .096466068 .20698548 .037460329 .20698548 .02645874 .20698548-.01953125 .2539978-.01953125 .3019867-.01953125 .3019867 .025466919 .3019867 .038467409V.07847595C.3019867 .27249146 .34199525 .36149598 .3849945 .41551209L.5349884 .6045227Z"/>
<path id="font_1_9" d="M.16299439 .4569702C.116989139 .486969 .11299133 .52098086 .11299133 .5379791 .11299133 .598999 .17799378 .64100649 .24899292 .64100649 .32199098 .64100649 .38598634 .58898928 .38598634 .51698306 .38598634 .45996095 .34700013 .4119568 .2869873 .37695313L.16299439 .4569702M.30899049 .36193849C.3809967 .3989563 .42999269 .45095826 .42999269 .51698306 .42999269 .6090088 .34098817 .6660156 .25 .6660156 .1499939 .6660156 .068984989 .59199526 .068984989 .49897767 .068984989 .4809723 .070999149 .43595887 .11299133 .38894654 .12399292 .37695313 .16099549 .35194398 .18598938 .33494569 .12799073 .30592347 .041992189 .24984741 .041992189 .15072632 .041992189 .04458618 .14399719-.022460938 .24899292-.022460938 .3619995-.022460938 .45700074 .06060791 .45700074 .16773987 .45700074 .20379639 .44599916 .24885559 .4079895 .2909088 .3889923 .31193543 .37298585 .3219452 .30899049 .36193849M.20899964 .3199463 .33198548 .24183655C.3600006 .2228241 .40699769 .19277954 .40699769 .13169861 .40699769 .05760193 .33198548 .0055389406 .25 .0055389406 .1639862 .0055389406 .09199524 .067611698 .09199524 .15072632 .09199524 .20880127 .12399292 .27288819 .20899964 .3199463Z"/>
<path id="font_1_10" d="M.36698915 .31781007V.28579713C.36698915 .05178833 .2630005 .0055389406 .20498657 .0055389406 .18798828 .0055389406 .13398743 .007537842 .10699463 .041778566 .15098572 .041778566 .15899658 .07078552 .15899658 .08778381 .15899658 .118774417 .1349945 .13378906 .11299133 .13378906 .09700012 .13378906 .066986087 .12478638 .066986087 .08578491 .066986087 .018615723 .12098694-.022460938 .20599365-.022460938 .33499146-.022460938 .45700074 .11378479 .45700074 .32881166 .45700074 .5979767 .34199525 .6660156 .25299073 .6660156 .19799805 .6660156 .14898682 .64801028 .10598755 .60298159 .06498718 .5579529 .041992189 .5159302 .041992189 .44088746 .041992189 .31581117 .12998963 .21777344 .24198914 .21777344 .30299378 .21777344 .34399415 .25978089 .36698915 .31781007M.24299622 .24076844C.22698975 .24076844 .18099976 .24076844 .1499939 .3038025 .13198853 .3408203 .13198853 .39085389 .13198853 .43988038 .13198853 .49391175 .13198853 .54093936 .15299988 .5779724 .17999268 .6279907 .21798706 .64100649 .25299073 .64100649 .29899598 .64100649 .33198548 .60697939 .34899903 .5619507 .36099244 .52993777 .36499024 .4669037 .36499024 .42086793 .36499024 .3378296 .33099366 .24076844 .24299622 .24076844Z"/>
</defs>
<path transform="matrix(1.00002,0,0,-1.00006,115.499958,143.54065)" stroke-width=".3985" stroke-linecap="butt" stroke-miterlimit="10" stroke-linejoin="miter" fill="none" stroke="#000000" d="M0 0C0 31.31142-25.38219 56.69363-56.69362 56.69363-88.00504 56.69363-113.38725 31.31142-113.38725 0-113.38725-31.31142-88.00504-56.69363-56.69362-56.69363-25.38219-56.69363 0-31.31142 0 0ZM-56.69362 0"/>
<path transform="matrix(1.00002,0,0,-1.00006,115.499958,143.54065)" stroke-width=".3985" stroke-linecap="butt" stroke-miterlimit="10" stroke-linejoin="miter" fill="none" stroke="#000000" d="M170.08087 0C170.08087 31.31142 144.69866 56.69363 113.38724 56.69363 82.0758 56.69363 56.6936 31.31142 56.6936 0 56.6936-31.31142 82.0758-56.69363 113.38724-56.69363 144.69866-56.69363 170.08087-31.31142 170.08087 0ZM113.38724 0"/>
<path transform="matrix(1.00002,0,0,-1.00006,115.499958,143.54065)" stroke-width=".3985" stroke-linecap="butt" stroke-miterlimit="10" stroke-linejoin="miter" fill="none" stroke="#000000" d="M283.4681 85.04042C283.4681 116.35185 258.08589 141.73406 226.77448 141.73406 195.46305 141.73406 170.08084 116.35185 170.08084 85.04042 170.08084 53.729 195.46305 28.34679 226.77448 28.34679 258.08589 28.34679 283.4681 53.729 283.4681 85.04042ZM226.77448 85.04042"/>
<path transform="matrix(1.00002,0,0,-1.00006,115.499958,143.54065)" stroke-width=".3985" stroke-linecap="butt" stroke-miterlimit="10" stroke-linejoin="miter" fill="none" stroke="#000000" d="M283.4681-85.04042C283.4681-53.729 258.08589-28.34679 226.77448-28.34679 195.46305-28.34679 170.08084-53.729 170.08084-85.04042 170.08084-116.35185 195.46305-141.73406 226.77448-141.73406 258.08589-141.73406 283.4681-116.35185 283.4681-85.04042ZM226.77448-85.04042"/>
<use data-text="0" xlink:href="#font_1_1" transform="matrix(9.962799,0,0,-9.963197,339.78846,12.095764)"/>
<path transform="matrix(1.00002,0,0,-1.00006,115.499958,143.54065)" stroke-width=".3985" stroke-linecap="butt" stroke-miterlimit="10" stroke-linejoin="miter" fill="none" stroke="#000000" d="M226.77448 120.47394C237.2786 121.85684 245.38004 118.50108 250.61688 111.67642"/>
<path transform="matrix(.6087322,.79336759,.7933359,-.6087565,366.12184,31.857529)" d="M1.99252 0-1.19551 1.59401 0 0-1.19551-1.59401"/>
<use data-text="1" xlink:href="#font_1_2" transform="matrix(9.962799,0,0,-9.963197,374.86616,26.62564)"/>
<path transform="matrix(1.00002,0,0,-1.00006,115.499958,143.54065)" stroke-width=".3985" stroke-linecap="butt" stroke-miterlimit="10" stroke-linejoin="miter" fill="none" stroke="#000000" d="M251.82976 110.09572C260.23515 103.64598 263.5909 95.54456 262.46803 87.0158"/>
<path transform="matrix(-.13051261,.9914594,.99141988,.13051783,377.9732,56.51963)" d="M1.99252 0-1.19551 1.59401 0 0-1.19551-1.59401"/>
<use data-text="2" xlink:href="#font_1_3" transform="matrix(9.962799,0,0,-9.963197,389.39643,61.70574)"/>
<path transform="matrix(1.00002,0,0,-1.00006,115.499958,143.54065)" stroke-width=".3985" stroke-linecap="butt" stroke-miterlimit="10" stroke-linejoin="miter" fill="none" stroke="#000000" d="M262.208 85.04042C263.5909 74.5363 260.23515 66.43486 253.41046 61.198"/>
<path transform="matrix(-.7933359,.6087565,.6087322,.79336759,368.9155,82.338977)" d="M1.99252 0-1.19551 1.59401 0 0-1.19551-1.59401"/>
<use data-text="3" xlink:href="#font_1_4" transform="matrix(9.962799,0,0,-9.963197,374.86616,96.78485)"/>
<path transform="matrix(1.00002,0,0,-1.00006,115.499958,143.54065)" stroke-width=".3985" stroke-linecap="butt" stroke-miterlimit="10" stroke-linejoin="miter" fill="none" stroke="#000000" d="M251.82976 59.98512C245.38004 51.57976 237.2786 48.224 228.74985 49.34688"/>
<path transform="matrix(-.99141988,-.13051783,-.13051261,.9914594,344.2544,94.19083)" d="M1.99252 0-1.19551 1.59401 0 0-1.19551-1.59401"/>
<use data-text="4" xlink:href="#font_1_5" transform="matrix(9.962799,0,0,-9.963197,339.78846,111.31572)"/>
<path transform="matrix(1.00002,0,0,-1.00006,115.499958,143.54065)" stroke-width=".3985" stroke-linecap="butt" stroke-miterlimit="10" stroke-linejoin="miter" fill="none" stroke="#000000" d="M226.77448 49.6069C216.27034 48.224 208.1689 51.57976 202.93206 58.40443"/>
<path transform="matrix(-.6087322,-.79336759,-.7933359,.6087565,318.4361,85.13272)" d="M1.99252 0-1.19551 1.59401 0 0-1.19551-1.59401"/>
<use data-text="5" xlink:href="#font_1_6" transform="matrix(9.962799,0,0,-9.963197,304.70973,96.78485)"/>
<path transform="matrix(1.00002,0,0,-1.00006,115.499958,143.54065)" stroke-width=".3985" stroke-linecap="butt" stroke-miterlimit="10" stroke-linejoin="miter" fill="none" stroke="#000000" d="M201.71918 59.98512C193.31381 66.43486 189.95806 74.5363 191.08094 83.06505"/>
<path transform="matrix(.13051261,-.9914594,-.99141988,-.13051783,306.58473,60.47062)" d="M1.99252 0-1.19551 1.59401 0 0-1.19551-1.59401"/>
<use data-text="6" xlink:href="#font_1_7" transform="matrix(9.962799,0,0,-9.963197,290.18046,61.70574)"/>
<path transform="matrix(1.00002,0,0,-1.00006,115.499958,143.54065)" stroke-width=".3985" stroke-linecap="butt" stroke-miterlimit="10" stroke-linejoin="miter" fill="none" stroke="#000000" d="M191.34096 85.04042C189.95806 95.54456 193.31381 103.64598 200.13848 108.88284"/>
<path transform="matrix(.7933359,-.6087565,-.6087322,-.79336759,315.64247,34.65129)" d="M1.99252 0-1.19551 1.59401 0 0-1.19551-1.59401"/>
<use data-text="7" xlink:href="#font_1_8" transform="matrix(9.962799,0,0,-9.963197,304.70973,26.62564)"/>
<path transform="matrix(1.00002,0,0,-1.00006,115.499958,143.54065)" stroke-width=".3985" stroke-linecap="butt" stroke-miterlimit="10" stroke-linejoin="miter" fill="none" stroke="#000000" d="M201.71918 110.09572C208.1689 118.50108 216.27034 121.85684 224.7991 120.73396"/>
<path transform="matrix(.99141988,.13051783,.13051261,-.9914594,340.30357,22.79943)" d="M1.99252 0-1.19551 1.59401 0 0-1.19551-1.59401"/>
<use data-text="n" xlink:href="#font_2_3" transform="matrix(9.962799,0,0,-9.963197,339.28846,181.12091)"/>
<use data-text="d" xlink:href="#font_2_1" transform="matrix(9.962799,0,0,-9.963197,382.64833,256.85044)"/>
<use data-text="e" xlink:href="#font_2_2" transform="matrix(9.962799,0,0,-9.963197,296.9976,255.53636)"/>
<path transform="matrix(1.00002,0,0,-1.00006,115.499958,143.54065)" stroke-width=".3985" stroke-linecap="butt" stroke-miterlimit="10" stroke-linejoin="miter" fill="none" stroke="#000000" d="M226.77448-49.6069C247.55414-61.60428 257.461-78.7628 257.46089-100.76465"/>
<path transform="matrix(0,1.00006,1.00002,0,372.966,244.31134)" d="M1.99252 0-1.19551 1.59401 0 0-1.19551-1.59401"/>
<path transform="matrix(1.00002,0,0,-1.00006,115.499958,143.54065)" stroke-width=".3985" stroke-linecap="butt" stroke-miterlimit="10" stroke-linejoin="miter" fill="none" stroke="#000000" d="M257.46089-102.75717C236.73377-114.72395 216.81519-114.72395 197.81362-103.7534"/>
<path transform="matrix(-.86602738,-.50000998,-.49999003,.8660619,313.31758,247.30027)" d="M1.99252 0-1.19551 1.59401 0 0-1.19551-1.59401"/>
<path transform="matrix(1.00002,0,0,-1.00006,115.499958,143.54065)" stroke-width=".3985" stroke-linecap="butt" stroke-miterlimit="10" stroke-linejoin="miter" fill="none" stroke="#000000" d="M196.08806-102.75717C196.08792-78.7628 205.99481-61.60428 225.04892-50.60313"/>
<path transform="matrix(.86602738,-.50000998,-.49999003,-.8660619,340.55335,194.14682)" d="M1.99252 0-1.19551 1.59401 0 0-1.19551-1.59401"/>
<use data-text="0" xlink:href="#font_1_1" transform="matrix(9.962799,0,0,-9.963197,56.314775,97.14087)"/>
<use data-text="n" xlink:href="#font_2_3" transform="matrix(9.962799,0,0,-9.963197,223.66513,95.32876)"/>
<use data-text="0" xlink:href="#font_3_1" transform="matrix(6.97394,0,0,-6.9742186,229.64524,96.822849)"/>
<path transform="matrix(1.00002,0,0,-1.00006,115.499958,143.54065)" stroke-width=".3985" stroke-linecap="butt" stroke-miterlimit="10" stroke-linejoin="miter" fill="none" stroke="#000000" d="M-56.69362 35.4335-49.49811 34.4862"/>
<path transform="matrix(.99141988,.13051783,.13051261,-.9914594,66.000858,109.05236)" d="M1.99252 0-1.19551 1.59401 0 0-1.19551-1.59401"/>
<path transform="matrix(1.00002,0,0,-1.00006,115.499958,143.54065)" stroke-width=".3985" stroke-linecap="butt" stroke-miterlimit="10" stroke-linejoin="miter" fill="none" stroke="#000000" d="M113.38724 35.4335 120.58273 34.4862"/>
<path transform="matrix(.99141988,.13051783,.13051261,-.9914594,236.08512,109.05236)" d="M1.99252 0-1.19551 1.59401 0 0-1.19551-1.59401"/>
<path transform="matrix(1.00002,0,0,-1.00006,115.499958,143.54065)" stroke-width=".3985" stroke-linecap="butt" stroke-miterlimit="10" stroke-linejoin="miter" fill="none" stroke="#ff0000" d="M-50.6831 53.07486C1.666 84.01103 51.67656 84.51979 102.90721 55.631"/>
<path transform="matrix(.87101748,.49119944,.49117983,-.8710522,218.40923,87.90631)" d="M1.99252 0-1.19551 1.59401 0 0-1.19551-1.59401" fill="#ff0000"/>
<path transform="matrix(1.00002,0,0,-1.00006,115.499958,143.54065)" stroke-width=".3985" stroke-linecap="butt" stroke-dasharray="2.98883,2.98883" stroke-miterlimit="10" stroke-linejoin="miter" fill="none" stroke="#0000ff" d="M117.59671 56.01869C151.13121 104.3041 195.10536 125.01671 251.7035 120.28387"/>
<path transform="matrix(.99649998,.083335,.08333167,-.9965397,367.2085,23.249573)" d="M1.99252 0-1.19551 1.59401 0 0-1.19551-1.59401" fill="#0000ff"/>
<path transform="matrix(1.00002,0,0,-1.00006,115.499958,143.54065)" stroke-width=".3985" stroke-linecap="butt" stroke-dasharray=".3985,1.99255" stroke-miterlimit="10" stroke-linejoin="miter" fill="none" stroke="#0000ff" d="M115.87206 43.19514C135.4496-3.59122 168.80394-28.99483 217.13459-35.18057"/>
<path transform="matrix(.99188986,.12694761,.12694255,-.9919295,332.6389,178.72333)" d="M1.99252 0-1.19551 1.59401 0 0-1.19551-1.59401" fill="#0000ff"/>
<use data-text="1" xlink:href="#font_1_2" transform="matrix(9.962799,0,0,-9.963197,69.15402,98.83197)"/>
<use data-text="n" xlink:href="#font_2_3" transform="matrix(9.962799,0,0,-9.963197,236.50438,97.01886)"/>
<use data-text="1" xlink:href="#font_3_2" transform="matrix(6.97394,0,0,-6.9742186,242.4845,98.51295)"/>
<path transform="matrix(1.00002,0,0,-1.00006,115.499958,143.54065)" stroke-width=".3985" stroke-linecap="butt" stroke-miterlimit="10" stroke-linejoin="miter" fill="none" stroke="#000000" d="M-47.52274 34.22618-40.81761 31.44885"/>
<path transform="matrix(.92384847,.38268296,.38266767,-.92388537,74.681529,112.08991)" d="M1.99252 0-1.19551 1.59401 0 0-1.19551-1.59401"/>
<path transform="matrix(1.00002,0,0,-1.00006,115.499958,143.54065)" stroke-width=".3985" stroke-linecap="butt" stroke-miterlimit="10" stroke-linejoin="miter" fill="none" stroke="#000000" d="M122.55812 34.22618 129.26323 31.44885"/>
<path transform="matrix(.92384847,.38268296,.38266767,-.92388537,244.76578,112.08991)" d="M1.99252 0-1.19551 1.59401 0 0-1.19551-1.59401"/>
<path transform="matrix(1.00002,0,0,-1.00006,115.499958,143.54065)" stroke-width=".3985" stroke-linecap="butt" stroke-miterlimit="10" stroke-linejoin="miter" fill="none" stroke="#ff0000" d="M-37.84386 51.3846C14.50525 82.32077 64.51581 82.82953 115.74646 53.94073"/>
<path transform="matrix(.87101748,.49119944,.49117983,-.8710522,231.24874,89.59668)" d="M1.99252 0-1.19551 1.59401 0 0-1.19551-1.59401" fill="#ff0000"/>
<path transform="matrix(1.00002,0,0,-1.00006,115.499958,143.54065)" stroke-width=".3985" stroke-linecap="butt" stroke-dasharray="2.98883,2.98883" stroke-miterlimit="10" stroke-linejoin="miter" fill="none" stroke="#0000ff" d="M132.7165 54.32843C172.59188 91.21315 216.33769 101.131 266.3155 85.63062"/>
<path transform="matrix(.9550991,.29621778,.29620595,-.95513728,381.8208,57.904893)" d="M1.99252 0-1.19551 1.59401 0 0-1.19551-1.59401" fill="#0000ff"/>
<path transform="matrix(1.00002,0,0,-1.00006,115.499958,143.54065)" stroke-width=".3985" stroke-linecap="butt" stroke-dasharray=".3985,1.99255" stroke-miterlimit="10" stroke-linejoin="miter" fill="none" stroke="#0000ff" d="M128.32015 41.50488C143.98477-2.19507 173.43332-27.14935 217.15045-35.07796"/>
<path transform="matrix(.98391976,.1784507,.17844358,-.983959,332.65476,178.6207)" d="M1.99252 0-1.19551 1.59401 0 0-1.19551-1.59401" fill="#0000ff"/>
<use data-text="2" xlink:href="#font_1_3" transform="matrix(9.962799,0,0,-9.963197,81.11826,103.78726)"/>
<use data-text="n" xlink:href="#font_2_3" transform="matrix(9.962799,0,0,-9.963197,248.46863,101.97516)"/>
<use data-text="2" xlink:href="#font_3_3" transform="matrix(6.97394,0,0,-6.9742186,254.44875,103.469249)"/>
<path transform="matrix(1.00002,0,0,-1.00006,115.499958,143.54065)" stroke-width=".3985" stroke-linecap="butt" stroke-miterlimit="10" stroke-linejoin="miter" fill="none" stroke="#000000" d="M-38.97687 30.6864-33.21902 26.26816"/>
<path transform="matrix(.7933359,.6087565,.6087322,-.79336759,82.28027,117.270908)" d="M1.99252 0-1.19551 1.59401 0 0-1.19551-1.59401"/>
<path transform="matrix(1.00002,0,0,-1.00006,115.499958,143.54065)" stroke-width=".3985" stroke-linecap="butt" stroke-miterlimit="10" stroke-linejoin="miter" fill="none" stroke="#000000" d="M131.10399 30.6864 136.86182 26.26816"/>
<path transform="matrix(.7933359,.6087565,.6087322,-.79336759,252.36452,117.270908)" d="M1.99252 0-1.19551 1.59401 0 0-1.19551-1.59401"/>
<path transform="matrix(1.00002,0,0,-1.00006,115.499958,143.54065)" stroke-width=".3985" stroke-linecap="butt" stroke-miterlimit="10" stroke-linejoin="miter" fill="none" stroke="#ff0000" d="M-25.87964 46.42891C26.46947 77.36508 76.48003 77.87383 127.71068 48.98503"/>
<path transform="matrix(.87101748,.49119944,.49117983,-.8710522,243.2132,94.55268)" d="M1.99252 0-1.19551 1.59401 0 0-1.19551-1.59401" fill="#ff0000"/>
<path transform="matrix(1.00002,0,0,-1.00006,115.499958,143.54065)" stroke-width=".3985" stroke-linecap="butt" stroke-dasharray="2.98883,2.98883" stroke-miterlimit="10" stroke-linejoin="miter" fill="none" stroke="#0000ff" d="M146.93521 48.73825C182.88619 70.0475 217.25913 70.44273 251.95221 50.9394"/>
<path transform="matrix(.87167748,.4900694,.4900498,-.87171229,367.4572,92.59819)" d="M1.99252 0-1.19551 1.59401 0 0-1.19551-1.59401" fill="#0000ff"/>
<path transform="matrix(1.00002,0,0,-1.00006,115.499958,143.54065)" stroke-width=".3985" stroke-linecap="butt" stroke-dasharray=".3985,1.99255" stroke-miterlimit="10" stroke-linejoin="miter" fill="none" stroke="#0000ff" d="M140.0163 36.5492C152.69702-3.19597 178.35022-26.54265 217.16422-35.00891"/>
<path transform="matrix(.97700956,.21310278,.21309427,-.9770486,332.66853,178.55165)" d="M1.99252 0-1.19551 1.59401 0 0-1.19551-1.59401" fill="#0000ff"/>
<use data-text="3" xlink:href="#font_1_4" transform="matrix(9.962799,0,0,-9.963197,91.39247,111.67174)"/>
<use data-text="n" xlink:href="#font_2_3" transform="matrix(9.962799,0,0,-9.963197,258.74284,109.85863)"/>
<use data-text="3" xlink:href="#font_3_4" transform="matrix(6.97394,0,0,-6.9742186,264.72297,111.35272)"/>
<path transform="matrix(1.00002,0,0,-1.00006,115.499958,143.54065)" stroke-width=".3985" stroke-linecap="butt" stroke-miterlimit="10" stroke-linejoin="miter" fill="none" stroke="#000000" d="M-31.63832 25.05528-27.22008 19.29744"/>
<path transform="matrix(.6087322,.79336759,.7933359,-.6087565,88.27931,124.24205)" d="M1.99252 0-1.19551 1.59401 0 0-1.19551-1.59401"/>
<path transform="matrix(1.00002,0,0,-1.00006,115.499958,143.54065)" stroke-width=".3985" stroke-linecap="butt" stroke-miterlimit="10" stroke-linejoin="miter" fill="none" stroke="#000000" d="M138.44252 25.05528 142.86077 19.29744"/>
<path transform="matrix(.6087322,.79336759,.7933359,-.6087565,258.3636,124.24205)" d="M1.99252 0-1.19551 1.59401 0 0-1.19551-1.59401"/>
<path transform="matrix(1.00002,0,0,-1.00006,115.499958,143.54065)" stroke-width=".3985" stroke-linecap="butt" stroke-miterlimit="10" stroke-linejoin="miter" fill="none" stroke="#ff0000" d="M-15.60567 38.54535C36.74344 69.48154 86.75398 69.99028 137.98464 41.10149"/>
<path transform="matrix(.87101748,.49119944,.49117983,-.8710522,253.48735,102.43669)" d="M1.99252 0-1.19551 1.59401 0 0-1.19551-1.59401" fill="#ff0000"/>
<path transform="matrix(1.00002,0,0,-1.00006,115.499958,143.54065)" stroke-width=".3985" stroke-linecap="butt" stroke-dasharray="2.98883,2.98883" stroke-miterlimit="10" stroke-linejoin="miter" fill="none" stroke="#0000ff" d="M157.20919 40.18088C178.89049 50.55923 198.78298 49.02084 216.968 36.55972"/>
<path transform="matrix(.8248865,.5652639,.56524136,-.82491949,332.4723,106.978717)" d="M1.99252 0-1.19551 1.59401 0 0-1.19551-1.59401" fill="#0000ff"/>
<path transform="matrix(1.00002,0,0,-1.00006,115.499958,143.54065)" stroke-width=".3985" stroke-linecap="butt" stroke-dasharray=".3985,1.99255" stroke-miterlimit="10" stroke-linejoin="miter" fill="none" stroke="#0000ff" d="M150.18824 28.66565C160.977-6.45639 183.29993-27.21571 217.16893-34.98788"/>
<path transform="matrix(.9746395,.2236634,.22365448,-.9746784,332.67323,178.53063)" d="M1.99252 0-1.19551 1.59401 0 0-1.19551-1.59401" fill="#0000ff"/>
<use data-text="4" xlink:href="#font_1_5" transform="matrix(9.962799,0,0,-9.963197,99.27663,121.94635)"/>
<use data-text="n" xlink:href="#font_2_3" transform="matrix(9.962799,0,0,-9.963197,266.62696,120.13325)"/>
<use data-text="4" xlink:href="#font_3_5" transform="matrix(6.97394,0,0,-6.9742186,272.6071,121.627338)"/>
<path transform="matrix(1.00002,0,0,-1.00006,115.499958,143.54065)" stroke-width=".3985" stroke-linecap="butt" stroke-miterlimit="10" stroke-linejoin="miter" fill="none" stroke="#000000" d="M-26.0072 17.71674-23.22987 11.01163"/>
<path transform="matrix(.38266767,.92388537,.92384847,-.38268296,92.26962,132.52837)" d="M1.99252 0-1.19551 1.59401 0 0-1.19551-1.59401"/>
<path transform="matrix(1.00002,0,0,-1.00006,115.499958,143.54065)" stroke-width=".3985" stroke-linecap="butt" stroke-miterlimit="10" stroke-linejoin="miter" fill="none" stroke="#000000" d="M144.07364 17.71674 146.85097 11.01163"/>
<path transform="matrix(.38266767,.92388537,.92384847,-.38268296,262.35389,132.52837)" d="M1.99252 0-1.19551 1.59401 0 0-1.19551-1.59401"/>
<path transform="matrix(1.00002,0,0,-1.00006,115.499958,143.54065)" stroke-width=".3985" stroke-linecap="butt" stroke-miterlimit="10" stroke-linejoin="miter" fill="none" stroke="#ff0000" d="M-7.72212 28.2714C44.62698 59.20757 94.63754 59.71631 145.8682 30.82751"/>
<path transform="matrix(.87101748,.49119944,.49117983,-.8710522,261.37107,112.71129)" d="M1.99252 0-1.19551 1.59401 0 0-1.19551-1.59401" fill="#ff0000"/>
<path transform="matrix(1.00002,0,0,-1.00006,115.499958,143.54065)" stroke-width=".3985" stroke-linecap="butt" stroke-dasharray="2.98883,2.98883" stroke-miterlimit="10" stroke-linejoin="miter" fill="none" stroke="#0000ff" d="M158.33466 31.21523C163.19422 42.47041 171.3571 48.54385 181.55513 49.73236"/>
<path transform="matrix(.9932499,-.115756947,-.11575232,-.99328956,297.05873,93.805309)" d="M1.99252 0-1.19551 1.59401 0 0-1.19551-1.59401" fill="#0000ff"/>
<path transform="matrix(1.00002,0,0,-1.00006,115.499958,143.54065)" stroke-width=".3985" stroke-linecap="butt" stroke-dasharray=".3985,1.99255" stroke-miterlimit="10" stroke-linejoin="miter" fill="none" stroke="#0000ff" d="M158.20688 18.39168C168.31-11.74992 187.95595-29.11217 217.15827-35.03734"/>
<path transform="matrix(.9799996,.19883192,.19882398,-.98003879,332.66258,178.58008)" d="M1.99252 0-1.19551 1.59401 0 0-1.19551-1.59401" fill="#0000ff"/>
<use data-text="5" xlink:href="#font_1_6" transform="matrix(9.962799,0,0,-9.963197,104.23173,133.91107)"/>
<use data-text="n" xlink:href="#font_2_3" transform="matrix(9.962799,0,0,-9.963197,271.5821,132.09796)"/>
<use data-text="5" xlink:href="#font_3_6" transform="matrix(6.97394,0,0,-6.9742186,277.5622,133.59206)"/>
<path transform="matrix(1.00002,0,0,-1.00006,115.499958,143.54065)" stroke-width=".3985" stroke-linecap="butt" stroke-miterlimit="10" stroke-linejoin="miter" fill="none" stroke="#000000" d="M-22.46742 9.17087-21.52013 1.97537"/>
<path transform="matrix(.13051261,.9914594,.99141988,-.13051783,93.979389,141.56516)" d="M1.99252 0-1.19551 1.59401 0 0-1.19551-1.59401"/>
<path transform="matrix(1.00002,0,0,-1.00006,115.499958,143.54065)" stroke-width=".3985" stroke-linecap="butt" stroke-miterlimit="10" stroke-linejoin="miter" fill="none" stroke="#000000" d="M147.61342 9.17087 148.56072 1.97537"/>
<path transform="matrix(.13051261,.9914594,.99141988,-.13051783,264.06364,141.56516)" d="M1.99252 0-1.19551 1.59401 0 0-1.19551-1.59401"/>
<path transform="matrix(1.00002,0,0,-1.00006,115.499958,143.54065)" stroke-width=".3985" stroke-linecap="butt" stroke-miterlimit="10" stroke-linejoin="miter" fill="none" stroke="#ff0000" d="M-2.76643 16.30717C49.58267 47.24335 99.59323 47.75209 150.82389 18.86331"/>
<path transform="matrix(.87101748,.49119944,.49117983,-.8710522,266.32685,124.67621)" d="M1.99252 0-1.19551 1.59401 0 0-1.19551-1.59401" fill="#ff0000"/>
<path transform="matrix(1.00002,0,0,-1.00006,115.499958,143.54065)" stroke-width=".3985" stroke-linecap="butt" stroke-dasharray="2.98883,2.98883" stroke-miterlimit="10" stroke-linejoin="miter" fill="none" stroke="#0000ff" d="M158.46285 19.251C149.16681 43.59749 152.56804 64.81653 167.74803 83.49423"/>
<path transform="matrix(.63069269,-.7760466,-.7760156,-.6307178,283.25135,60.041414)" d="M1.99252 0-1.19551 1.59401 0 0-1.19551-1.59401" fill="#0000ff"/>
<path transform="matrix(1.00002,0,0,-1.00006,115.499958,143.54065)" stroke-width=".3985" stroke-linecap="butt" stroke-dasharray=".3985,1.99255" stroke-miterlimit="10" stroke-linejoin="miter" fill="none" stroke="#0000ff" d="M163.65381 6.42746C174.22678-18.53796 192.2037-32.10718 217.13346-35.18903"/>
<path transform="matrix(.9924498,.12270735,.12270246,-.99248948,332.63777,178.73178)" d="M1.99252 0-1.19551 1.59401 0 0-1.19551-1.59401" fill="#0000ff"/>
<use data-text="6" xlink:href="#font_1_7" transform="matrix(9.962799,0,0,-9.963197,105.92276,146.75084)"/>
<use data-text="n" xlink:href="#font_2_3" transform="matrix(9.962799,0,0,-9.963197,273.2721,144.93874)"/>
<use data-text="6" xlink:href="#font_3_7" transform="matrix(6.97394,0,0,-6.9742186,279.25224,146.43282)"/>
<path transform="matrix(1.00002,0,0,-1.00006,115.499958,143.54065)" stroke-width=".3985" stroke-linecap="butt" stroke-miterlimit="10" stroke-linejoin="miter" fill="none" stroke="#000000" d="M-21.2601 0-22.2074-7.1955"/>
<path transform="matrix(-.13051261,.9914594,.99141988,.13051783,93.29213,150.73659)" d="M1.99252 0-1.19551 1.59401 0 0-1.19551-1.59401"/>
<path transform="matrix(1.00002,0,0,-1.00006,115.499958,143.54065)" stroke-width=".3985" stroke-linecap="butt" stroke-miterlimit="10" stroke-linejoin="miter" fill="none" stroke="#000000" d="M148.82076 0 147.87346-7.1955"/>
<path transform="matrix(-.13051261,.9914594,.99141988,.13051783,263.3764,150.73659)" d="M1.99252 0-1.19551 1.59401 0 0-1.19551-1.59401"/>
<path transform="matrix(1.00002,0,0,-1.00006,115.499958,143.54065)" stroke-width=".3985" stroke-linecap="butt" stroke-miterlimit="10" stroke-linejoin="miter" fill="none" stroke="#ff0000" d="M-1.07617 3.46793C51.27293 34.40411 101.2835 34.91286 152.51415 6.02406"/>
<path transform="matrix(.87101748,.49119944,.49117983,-.8710522,268.01716,137.51624)" d="M1.99252 0-1.19551 1.59401 0 0-1.19551-1.59401" fill="#ff0000"/>
<path transform="matrix(1.00002,0,0,-1.00006,115.499958,143.54065)" stroke-width=".3985" stroke-linecap="butt" stroke-dasharray="2.98883,2.98883" stroke-miterlimit="10" stroke-linejoin="miter" fill="none" stroke="#0000ff" d="M160.62401 6.41176C146.13756 49.43785 153.5158 86.05908 182.21675 118.62312"/>
<path transform="matrix(.66119328,-.750215,-.750185,-.66121968,297.72035,24.91043)" d="M1.99252 0-1.19551 1.59401 0 0-1.19551-1.59401" fill="#0000ff"/>
<path transform="matrix(1.00002,0,0,-1.00006,115.499958,143.54065)" stroke-width=".3985" stroke-linecap="butt" stroke-dasharray=".3985,1.99255" stroke-miterlimit="10" stroke-linejoin="miter" fill="none" stroke="#0000ff" d="M166.36333-6.41176C178.52729-26.51208 195.62152-35.91756 217.1189-35.47452"/>
<path transform="matrix(.99976006,-.020601236,-.020600412,-.99979999,332.6232,179.0173)" d="M1.99252 0-1.19551 1.59401 0 0-1.19551-1.59401" fill="#0000ff"/>
<use data-text="7" xlink:href="#font_1_8" transform="matrix(9.962799,0,0,-9.963197,104.23173,159.5906)"/>
<use data-text="n" xlink:href="#font_2_3" transform="matrix(9.962799,0,0,-9.963197,271.5821,157.7785)"/>
<use data-text="7" xlink:href="#font_3_8" transform="matrix(6.97394,0,0,-6.9742186,277.5622,159.27259)"/>
<path transform="matrix(1.00002,0,0,-1.00006,115.499958,143.54065)" stroke-width=".3985" stroke-linecap="butt" stroke-miterlimit="10" stroke-linejoin="miter" fill="none" stroke="#000000" d="M-22.46742-9.17087-25.24475-15.87599"/>
<path transform="matrix(-.38266767,.92388537,.92384847,.38268296,90.2547,159.41759)" d="M1.99252 0-1.19551 1.59401 0 0-1.19551-1.59401"/>
<path transform="matrix(1.00002,0,0,-1.00006,115.499958,143.54065)" stroke-width=".3985" stroke-linecap="butt" stroke-miterlimit="10" stroke-linejoin="miter" fill="none" stroke="#000000" d="M147.61342-9.17087 144.83609-15.87599"/>
<path transform="matrix(-.38266767,.92388537,.92384847,.38268296,260.33894,159.41759)" d="M1.99252 0-1.19551 1.59401 0 0-1.19551-1.59401"/>
<path transform="matrix(1.00002,0,0,-1.00006,115.499958,143.54065)" stroke-width=".3985" stroke-linecap="butt" stroke-miterlimit="10" stroke-linejoin="miter" fill="none" stroke="#ff0000" d="M-2.76643-9.37129C49.58267 21.56487 99.59323 22.07361 150.82389-6.81516"/>
<path transform="matrix(.87101748,.49119944,.49117983,-.8710522,266.32685,150.35622)" d="M1.99252 0-1.19551 1.59401 0 0-1.19551-1.59401" fill="#ff0000"/>
<path transform="matrix(1.00002,0,0,-1.00006,115.499958,143.54065)" stroke-width=".3985" stroke-linecap="butt" stroke-dasharray="2.98883,2.98883" stroke-miterlimit="10" stroke-linejoin="miter" fill="none" stroke="#0000ff" d="M160.31655-6.42746C152.47948 52.70947 171.31612 98.29166 217.03192 133.4331"/>
<path transform="matrix(.79281589,-.6094365,-.6094122,-.7928476,332.53623,10.099564)" d="M1.99252 0-1.19551 1.59401 0 0-1.19551-1.59401" fill="#0000ff"/>
<path transform="matrix(1.00002,0,0,-1.00006,115.499958,143.54065)" stroke-width=".3985" stroke-linecap="butt" stroke-dasharray=".3985,1.99255" stroke-miterlimit="10" stroke-linejoin="miter" fill="none" stroke="#0000ff" d="M166.43166-19.251C181.10688-35.03004 198.10822-40.253 217.1689-35.87907"/>
<path transform="matrix(.9746595,-.2236434,-.22363448,-.9746984,332.67323,179.42189)" d="M1.99252 0-1.19551 1.59401 0 0-1.19551-1.59401" fill="#0000ff"/>
<use data-text="8" xlink:href="#font_1_9" transform="matrix(9.962799,0,0,-9.963197,99.27663,171.55634)"/>
<use data-text="d" xlink:href="#font_2_1" transform="matrix(9.962799,0,0,-9.963197,267.024,171.0583)"/>
<use data-text="0" xlink:href="#font_3_1" transform="matrix(6.97394,0,0,-6.9742186,272.2091,172.55239)"/>
<path transform="matrix(1.00002,0,0,-1.00006,115.499958,143.54065)" stroke-width=".3985" stroke-linecap="butt" stroke-miterlimit="10" stroke-linejoin="miter" fill="none" stroke="#000000" d="M-26.0072-17.71674-30.42545-23.47458"/>
<path transform="matrix(-.6087322,.79336759,.7933359,.6087565,85.07391,167.01663)" d="M1.99252 0-1.19551 1.59401 0 0-1.19551-1.59401"/>
<path transform="matrix(1.00002,0,0,-1.00006,115.499958,143.54065)" stroke-width=".3985" stroke-linecap="butt" stroke-miterlimit="10" stroke-linejoin="miter" fill="none" stroke="#000000" d="M144.07364-17.71674 139.6554-23.47458"/>
<path transform="matrix(-.6087322,.79336759,.7933359,.6087565,255.15816,167.01663)" d="M1.99252 0-1.19551 1.59401 0 0-1.19551-1.59401"/>
<path transform="matrix(1.00002,0,0,-1.00006,115.499958,143.54065)" stroke-width=".3985" stroke-linecap="butt" stroke-miterlimit="10" stroke-linejoin="miter" fill="none" stroke="#ff0000" d="M-7.72212-21.33551C44.80772 9.60046 94.94456 10.03679 146.26694-19.00598"/>
<path transform="matrix(.8702674,.49250955,.49248988,-.87030217,261.76985,162.54778)" d="M1.99252 0-1.19551 1.59401 0 0-1.19551-1.59401" fill="#ff0000"/>
<path transform="matrix(1.00002,0,0,-1.00006,115.499958,143.54065)" stroke-width=".3985" stroke-linecap="butt" stroke-dasharray="2.98883,2.98883" stroke-miterlimit="10" stroke-linejoin="miter" fill="none" stroke="#0000ff" d="M156.87213-17.07713C162.84566 48.4371 193.9653 92.53378 251.88019 119.28242"/>
<path transform="matrix(.9078182,-.41930516,-.4192884,-.90785446,367.3852,24.251084)" d="M1.99252 0-1.19551 1.59401 0 0-1.19551-1.59401" fill="#0000ff"/>
<path transform="matrix(1.00002,0,0,-1.00006,115.499958,143.54065)" stroke-width=".3985" stroke-linecap="butt" stroke-dasharray=".3985,1.99255" stroke-miterlimit="10" stroke-linejoin="miter" fill="none" stroke="#0000ff" d="M159.32149-32.52977C178.8202-78.61302 212.01598-103.68852 259.69725-109.59883"/>
<path transform="matrix(.99241986,.12299737,.12299246,-.9924595,375.2024,253.14604)" d="M1.99252 0-1.19551 1.59401 0 0-1.19551-1.59401" fill="#0000ff"/>
<use data-text="9" xlink:href="#font_1_10" transform="matrix(9.962799,0,0,-9.963197,91.39247,181.83095)"/>
<use data-text="d" xlink:href="#font_2_1" transform="matrix(9.962799,0,0,-9.963197,259.13984,181.33191)"/>
<use data-text="1" xlink:href="#font_3_2" transform="matrix(6.97394,0,0,-6.9742186,264.32496,182.826)"/>
<path transform="matrix(1.00002,0,0,-1.00006,115.499958,143.54065)" stroke-width=".3985" stroke-linecap="butt" stroke-miterlimit="10" stroke-linejoin="miter" fill="none" stroke="#000000" d="M-31.63832-25.05528-37.39616-29.47353"/>
<path transform="matrix(-.7933359,.6087565,.6087322,.79336759,78.10304,173.01593)" d="M1.99252 0-1.19551 1.59401 0 0-1.19551-1.59401"/>
<path transform="matrix(1.00002,0,0,-1.00006,115.499958,143.54065)" stroke-width=".3985" stroke-linecap="butt" stroke-miterlimit="10" stroke-linejoin="miter" fill="none" stroke="#000000" d="M138.44252-25.05528 132.68468-29.47353"/>
<path transform="matrix(-.7933359,.6087565,.6087322,.79336759,248.18729,173.01593)" d="M1.99252 0-1.19551 1.59401 0 0-1.19551-1.59401"/>
<path transform="matrix(1.00002,0,0,-1.00006,115.499958,143.54065)" stroke-width=".3985" stroke-linecap="butt" stroke-miterlimit="10" stroke-linejoin="miter" fill="none" stroke="#ff0000" d="M-15.60567-31.60948C36.92416-.6735 87.06102-.23715 138.38339-29.27994"/>
<path transform="matrix(.8702674,.49250955,.49248988,-.87030217,253.88613,172.82234)" d="M1.99252 0-1.19551 1.59401 0 0-1.19551-1.59401" fill="#ff0000"/>
<path transform="matrix(1.00002,0,0,-1.00006,115.499958,143.54065)" stroke-width=".3985" stroke-linecap="butt" stroke-dasharray="2.98883,2.98883" stroke-miterlimit="10" stroke-linejoin="miter" fill="none" stroke="#0000ff" d="M150.52048-27.3511C168.43839 33.83873 206.26766 69.9627 266.2826 84.56929"/>
<path transform="matrix(.9716194,-.23646418,-.23645474,-.97165825,381.7879,58.96631)" d="M1.99252 0-1.19551 1.59401 0 0-1.19551-1.59401" fill="#0000ff"/>
<path transform="matrix(1.00002,0,0,-1.00006,115.499958,143.54065)" stroke-width=".3985" stroke-linecap="butt" stroke-dasharray=".3985,1.99255" stroke-miterlimit="10" stroke-linejoin="miter" fill="none" stroke="#0000ff" d="M152.32639-42.80373C176.19435-86.78398 211.6526-108.52391 259.6829-109.79138"/>
<path transform="matrix(.99962,.02635158,.026350528,-.99965998,375.18806,253.3386)" d="M1.99252 0-1.19551 1.59401 0 0-1.19551-1.59401" fill="#0000ff"/>
<use data-text="1" xlink:href="#font_1_2" transform="matrix(9.962799,0,0,-9.963197,78.62721,189.71442)"/>
<use data-text="0" xlink:href="#font_1_1" transform="matrix(9.962799,0,0,-9.963197,83.60861,189.71442)"/>
<use data-text="d" xlink:href="#font_2_1" transform="matrix(9.962799,0,0,-9.963197,248.86563,189.21639)"/>
<use data-text="2" xlink:href="#font_3_3" transform="matrix(6.97394,0,0,-6.9742186,254.05074,190.71048)"/>
<path transform="matrix(1.00002,0,0,-1.00006,115.499958,143.54065)" stroke-width=".3985" stroke-linecap="butt" stroke-miterlimit="10" stroke-linejoin="miter" fill="none" stroke="#000000" d="M-38.97687-30.6864-45.68198-33.46373"/>
<path transform="matrix(-.92384847,.38268296,.38266767,.92388537,69.81706,177.00638)" d="M1.99252 0-1.19551 1.59401 0 0-1.19551-1.59401"/>
<path transform="matrix(1.00002,0,0,-1.00006,115.499958,143.54065)" stroke-width=".3985" stroke-linecap="butt" stroke-miterlimit="10" stroke-linejoin="miter" fill="none" stroke="#000000" d="M131.10399-30.6864 124.39886-33.46373"/>
<path transform="matrix(-.92384847,.38268296,.38266767,.92388537,239.9013,177.00638)" d="M1.99252 0-1.19551 1.59401 0 0-1.19551-1.59401"/>
<path transform="matrix(1.00002,0,0,-1.00006,115.499958,143.54065)" stroke-width=".3985" stroke-linecap="butt" stroke-miterlimit="10" stroke-linejoin="miter" fill="none" stroke="#ff0000" d="M-23.38893-38.05594C28.37813-8.20827 78.11096-8.2371 128.11849-37.14752"/>
<path transform="matrix(.86571738,.50053009,.50051006,-.8657519,243.62099,180.69037)" d="M1.99252 0-1.19551 1.59401 0 0-1.19551-1.59401" fill="#ff0000"/>
<path transform="matrix(1.00002,0,0,-1.00006,115.499958,143.54065)" stroke-width=".3985" stroke-linecap="butt" stroke-dasharray="2.98883,2.98883" stroke-miterlimit="10" stroke-linejoin="miter" fill="none" stroke="#0000ff" d="M141.18236-35.23465C162.6581 15.69377 198.84586 43.09715 251.71199 49.71556"/>
<path transform="matrix(.99223986,-.124197449,-.12419249,-.99227949,367.21699,93.82212)" d="M1.99252 0-1.19551 1.59401 0 0-1.19551-1.59401" fill="#0000ff"/>
<path transform="matrix(1.00002,0,0,-1.00006,115.499958,143.54065)" stroke-width=".3985" stroke-linecap="butt" stroke-dasharray=".3985,1.99255" stroke-miterlimit="10" stroke-linejoin="miter" fill="none" stroke="#0000ff" d="M142.93074-50.68729C171.50235-93.82303 210.03215-113.01962 259.68598-109.96614"/>
<path transform="matrix(.99806997,-.06137368,-.06137123,-.9981098,375.1911,253.5134)" d="M1.99252 0-1.19551 1.59401 0 0-1.19551-1.59401" fill="#0000ff"/>
<use data-text="1" xlink:href="#font_1_2" transform="matrix(9.962799,0,0,-9.963197,66.66298,194.67072)"/>
<use data-text="1" xlink:href="#font_1_2" transform="matrix(9.962799,0,0,-9.963197,71.64438,194.67072)"/>
<use data-text="d" xlink:href="#font_2_1" transform="matrix(9.962799,0,0,-9.963197,236.9014,194.1727)"/>
<use data-text="3" xlink:href="#font_3_4" transform="matrix(6.97394,0,0,-6.9742186,242.08649,195.66678)"/>
<path transform="matrix(1.00002,0,0,-1.00006,115.499958,143.54065)" stroke-width=".3985" stroke-linecap="butt" stroke-miterlimit="10" stroke-linejoin="miter" fill="none" stroke="#000000" d="M-47.52274-34.22618-54.71823-35.17348"/>
<path transform="matrix(-.99141988,.13051783,.13051261,.9914594,60.78063,178.71622)" d="M1.99252 0-1.19551 1.59401 0 0-1.19551-1.59401"/>
<path transform="matrix(1.00002,0,0,-1.00006,115.499958,143.54065)" stroke-width=".3985" stroke-linecap="butt" stroke-miterlimit="10" stroke-linejoin="miter" fill="none" stroke="#000000" d="M122.55812-34.22618 115.36261-35.17348"/>
<path transform="matrix(-.99141988,.13051783,.13051261,.9914594,230.86487,178.71622)" d="M1.99252 0-1.19551 1.59401 0 0-1.19551-1.59401"/>
<path transform="matrix(1.00002,0,0,-1.00006,115.499958,143.54065)" stroke-width=".3985" stroke-linecap="butt" stroke-miterlimit="10" stroke-linejoin="miter" fill="none" stroke="#ff0000" d="M-35.35315-43.01163C16.41393-13.16396 66.14674-13.1928 116.15427-42.10321"/>
<path transform="matrix(.86571738,.50053009,.50051006,-.8657519,231.65653,185.64638)" d="M1.99252 0-1.19551 1.59401 0 0-1.19551-1.59401" fill="#ff0000"/>
<path transform="matrix(1.00002,0,0,-1.00006,115.499958,143.54065)" stroke-width=".3985" stroke-linecap="butt" stroke-dasharray="2.98883,2.98883" stroke-miterlimit="10" stroke-linejoin="miter" fill="none" stroke="#0000ff" d="M128.72582-40.19034C144.38806 3.01942 173.35973 27.3924 216.64983 35.08496"/>
<path transform="matrix(.98457977,-.1749405,-.17493351,-.984619,332.1541,108.4536)" d="M1.99252 0-1.19551 1.59401 0 0-1.19551-1.59401" fill="#0000ff"/>
<path transform="matrix(1.00002,0,0,-1.00006,115.499958,143.54065)" stroke-width=".3985" stroke-linecap="butt" stroke-dasharray=".3985,1.99255" stroke-miterlimit="10" stroke-linejoin="miter" fill="none" stroke="#0000ff" d="M131.72306-55.64297C165.06925-99.31952 207.17652-116.88414 259.6986-110.0991"/>
<path transform="matrix(.99172988,-.12810767,-.12810256,-.9917695,375.20375,253.64636)" d="M1.99252 0-1.19551 1.59401 0 0-1.19551-1.59401" fill="#0000ff"/>
<use data-text="1" xlink:href="#font_1_2" transform="matrix(9.962799,0,0,-9.963197,53.823717,196.36081)"/>
<use data-text="2" xlink:href="#font_1_3" transform="matrix(9.962799,0,0,-9.963197,58.805116,196.36081)"/>
<use data-text="d" xlink:href="#font_2_1" transform="matrix(9.962799,0,0,-9.963197,224.06214,195.8628)"/>
<use data-text="4" xlink:href="#font_3_5" transform="matrix(6.97394,0,0,-6.9742186,229.24723,197.35688)"/>
<path transform="matrix(1.00002,0,0,-1.00006,115.499958,143.54065)" stroke-width=".3985" stroke-linecap="butt" stroke-miterlimit="10" stroke-linejoin="miter" fill="none" stroke="#000000" d="M-56.69362-35.4335-63.88911-34.4862"/>
<path transform="matrix(-.99141988,-.13051783,-.13051261,.9914594,51.609567,178.02893)" d="M1.99252 0-1.19551 1.59401 0 0-1.19551-1.59401"/>
<path transform="matrix(1.00002,0,0,-1.00006,115.499958,143.54065)" stroke-width=".3985" stroke-linecap="butt" stroke-miterlimit="10" stroke-linejoin="miter" fill="none" stroke="#000000" d="M113.38724-35.4335 106.19173-34.4862"/>
<path transform="matrix(-.99141988,-.13051783,-.13051261,.9914594,221.69382,178.02893)" d="M1.99252 0-1.19551 1.59401 0 0-1.19551-1.59401"/>
<path transform="matrix(1.00002,0,0,-1.00006,115.499958,143.54065)" stroke-width=".3985" stroke-linecap="butt" stroke-miterlimit="10" stroke-linejoin="miter" fill="none" stroke="#ff0000" d="M-48.1924-44.70189C3.57468-14.85423 53.30751-14.88306 103.31502-43.79347"/>
<path transform="matrix(.86571738,.50053009,.50051006,-.8657519,218.81702,187.33673)" d="M1.99252 0-1.19551 1.59401 0 0-1.19551-1.59401" fill="#ff0000"/>
<path transform="matrix(1.00002,0,0,-1.00006,115.499958,143.54065)" stroke-width=".3985" stroke-linecap="butt" stroke-dasharray="2.98883,2.98883" stroke-miterlimit="10" stroke-linejoin="miter" fill="none" stroke="#0000ff" d="M114.08516-41.8806C119.65796 2.89452 141.9714 32.4015 181.69879 49.18753"/>
<path transform="matrix(.9211484,-.38921333,-.3891978,-.92118528,297.2024,94.350177)" d="M1.99252 0-1.19551 1.59401 0 0-1.19551-1.59401" fill="#0000ff"/>
<path transform="matrix(1.00002,0,0,-1.00006,115.499958,143.54065)" stroke-width=".3985" stroke-linecap="butt" stroke-dasharray=".3985,1.99255" stroke-miterlimit="10" stroke-linejoin="miter" fill="none" stroke="#0000ff" d="M119.38957-57.33324C157.21947-102.82767 203.36032-119.85817 259.7109-110.18105"/>
<path transform="matrix(.98554977,-.16923015,-.16922339,-.9855891,375.21607,253.72832)" d="M1.99252 0-1.19551 1.59401 0 0-1.19551-1.59401" fill="#0000ff"/>
<use data-text="1" xlink:href="#font_1_2" transform="matrix(9.962799,0,0,-9.963197,40.984468,194.67072)"/>
<use data-text="3" xlink:href="#font_1_4" transform="matrix(9.962799,0,0,-9.963197,45.965867,194.67072)"/>
<use data-text="d" xlink:href="#font_2_1" transform="matrix(9.962799,0,0,-9.963197,211.22287,194.1727)"/>
<use data-text="5" xlink:href="#font_3_6" transform="matrix(6.97394,0,0,-6.9742186,216.40798,195.66678)"/>
<path transform="matrix(1.00002,0,0,-1.00006,115.499958,143.54065)" stroke-width=".3985" stroke-linecap="butt" stroke-miterlimit="10" stroke-linejoin="miter" fill="none" stroke="#000000" d="M-65.8645-34.22618-72.56961-31.44885"/>
<path transform="matrix(-.92384847,-.38268296,-.38266767,.92388537,42.928895,174.9914)" d="M1.99252 0-1.19551 1.59401 0 0-1.19551-1.59401"/>
<path transform="matrix(1.00002,0,0,-1.00006,115.499958,143.54065)" stroke-width=".3985" stroke-linecap="butt" stroke-miterlimit="10" stroke-linejoin="miter" fill="none" stroke="#000000" d="M104.21635-34.22618 97.51123-31.44885"/>
<path transform="matrix(-.92384847,-.38268296,-.38266767,.92388537,213.01314,174.9914)" d="M1.99252 0-1.19551 1.59401 0 0-1.19551-1.59401"/>
<path transform="matrix(1.00002,0,0,-1.00006,115.499958,143.54065)" stroke-width=".3985" stroke-linecap="butt" stroke-miterlimit="10" stroke-linejoin="miter" fill="none" stroke="#ff0000" d="M-61.03163-43.01163C-9.26456-13.16396 40.46826-13.1928 90.47578-42.10321"/>
<path transform="matrix(.86571738,.50053009,.50051006,-.8657519,205.97754,185.64638)" d="M1.99252 0-1.19551 1.59401 0 0-1.19551-1.59401" fill="#ff0000"/>
<path transform="matrix(1.00002,0,0,-1.00006,115.499958,143.54065)" stroke-width=".3985" stroke-linecap="butt" stroke-dasharray="2.98883,2.98883" stroke-miterlimit="10" stroke-linejoin="miter" fill="none" stroke="#0000ff" d="M100.17604-40.19034C99.00128 15.577 121.29619 56.13922 167.30052 84.00809"/>
<path transform="matrix(.85528716,-.51814106,-.51812037,-.8553213,282.80384,59.527544)" d="M1.99252 0-1.19551 1.59401 0 0-1.19551-1.59401" fill="#0000ff"/>
<path transform="matrix(1.00002,0,0,-1.00006,115.499958,143.54065)" stroke-width=".3985" stroke-linecap="butt" stroke-dasharray=".3985,1.99255" stroke-miterlimit="10" stroke-linejoin="miter" fill="none" stroke="#0000ff" d="M106.79225-55.64297C148.62908-104.26094 198.65175-121.76648 259.71687-110.21422"/>
<path transform="matrix(.9825597,-.18588116,-.18587373,-.9825989,375.222,253.76149)" d="M1.99252 0-1.19551 1.59401 0 0-1.19551-1.59401" fill="#0000ff"/>
<use data-text="1" xlink:href="#font_1_2" transform="matrix(9.962799,0,0,-9.963197,29.020234,189.71442)"/>
<use data-text="4" xlink:href="#font_1_5" transform="matrix(9.962799,0,0,-9.963197,34.001634,189.71442)"/>
<use data-text="d" xlink:href="#font_2_1" transform="matrix(9.962799,0,0,-9.963197,199.25763,189.21639)"/>
<use data-text="6" xlink:href="#font_3_7" transform="matrix(6.97394,0,0,-6.9742186,204.44274,190.71048)"/>
<path transform="matrix(1.00002,0,0,-1.00006,115.499958,143.54065)" stroke-width=".3985" stroke-linecap="butt" stroke-miterlimit="10" stroke-linejoin="miter" fill="none" stroke="#000000" d="M-74.41037-30.6864-80.1682-26.26816"/>
<path transform="matrix(-.7933359,-.6087565,-.6087322,.79336759,35.330156,169.8104)" d="M1.99252 0-1.19551 1.59401 0 0-1.19551-1.59401"/>
<path transform="matrix(1.00002,0,0,-1.00006,115.499958,143.54065)" stroke-width=".3985" stroke-linecap="butt" stroke-miterlimit="10" stroke-linejoin="miter" fill="none" stroke="#000000" d="M95.67049-30.6864 89.91264-26.26816"/>
<path transform="matrix(-.7933359,-.6087565,-.6087322,.79336759,205.4144,169.8104)" d="M1.99252 0-1.19551 1.59401 0 0-1.19551-1.59401"/>
<path transform="matrix(1.00002,0,0,-1.00006,115.499958,143.54065)" stroke-width=".3985" stroke-linecap="butt" stroke-miterlimit="10" stroke-linejoin="miter" fill="none" stroke="#ff0000" d="M-72.99585-38.05594C-21.22876-8.20827 28.50406-8.2371 78.51157-37.14752"/>
<path transform="matrix(.86571738,.50053009,.50051006,-.8657519,194.01308,180.69037)" d="M1.99252 0-1.19551 1.59401 0 0-1.19551-1.59401" fill="#ff0000"/>
<path transform="matrix(1.00002,0,0,-1.00006,115.499958,143.54065)" stroke-width=".3985" stroke-linecap="butt" stroke-dasharray="2.98883,2.98883" stroke-miterlimit="10" stroke-linejoin="miter" fill="none" stroke="#0000ff" d="M88.61194-35.23465C90.38068 35.8347 121.10199 86.11479 181.78441 119.16489"/>
<path transform="matrix(.8781776,-.47829867,-.47827957,-.87821266,297.28804,24.368615)" d="M1.99252 0-1.19551 1.59401 0 0-1.19551-1.59401" fill="#0000ff"/>
<path transform="matrix(1.00002,0,0,-1.00006,115.499958,143.54065)" stroke-width=".3985" stroke-linecap="butt" stroke-dasharray=".3985,1.99255" stroke-miterlimit="10" stroke-linejoin="miter" fill="none" stroke="#0000ff" d="M94.79903-50.68729C139.66387-103.251 193.72064-122.41591 259.71546-110.20631"/>
<path transform="matrix(.98327967,-.1819109,-.18190363,-.9833189,375.22059,253.75359)" d="M1.99252 0-1.19551 1.59401 0 0-1.19551-1.59401" fill="#0000ff"/>
<use data-text="1" xlink:href="#font_1_2" transform="matrix(9.962799,0,0,-9.963197,18.746018,181.83095)"/>
<use data-text="5" xlink:href="#font_1_6" transform="matrix(9.962799,0,0,-9.963197,23.727417,181.83095)"/>
<use data-text="d" xlink:href="#font_2_1" transform="matrix(9.962799,0,0,-9.963197,188.98343,181.33191)"/>
<use data-text="7" xlink:href="#font_3_8" transform="matrix(6.97394,0,0,-6.9742186,194.16854,182.826)"/>
<path transform="matrix(1.00002,0,0,-1.00006,115.499958,143.54065)" stroke-width=".3985" stroke-linecap="butt" stroke-miterlimit="10" stroke-linejoin="miter" fill="none" stroke="#000000" d="M-81.7489-25.05528-86.16714-19.29744"/>
<path transform="matrix(-.6087322,-.79336759,-.7933359,.6087565,29.3311,162.83925)" d="M1.99252 0-1.19551 1.59401 0 0-1.19551-1.59401"/>
<path transform="matrix(1.00002,0,0,-1.00006,115.499958,143.54065)" stroke-width=".3985" stroke-linecap="butt" stroke-miterlimit="10" stroke-linejoin="miter" fill="none" stroke="#000000" d="M88.33194-25.05528 83.9137-19.29744"/>
<path transform="matrix(-.6087322,-.79336759,-.7933359,.6087565,199.41535,162.83925)" d="M1.99252 0-1.19551 1.59401 0 0-1.19551-1.59401"/>
<path transform="matrix(1.00002,0,0,-1.00006,115.499958,143.54065)" stroke-width=".3985" stroke-linecap="butt" stroke-miterlimit="10" stroke-linejoin="miter" fill="none" stroke="#ff0000" d="M-83.26982-30.1724C-31.50273-.32472 18.23009-.35356 68.2376-29.26396"/>
<path transform="matrix(.86571738,.50053009,.50051006,-.8657519,183.73889,172.80635)" d="M1.99252 0-1.19551 1.59401 0 0-1.19551-1.59401" fill="#ff0000"/>
<path transform="matrix(1.00002,0,0,-1.00006,115.499958,143.54065)" stroke-width=".3985" stroke-linecap="butt" stroke-dasharray="2.98883,2.98883" stroke-miterlimit="10" stroke-linejoin="miter" fill="none" stroke="#0000ff" d="M79.61052-27.3511C94.96913 54.47621 140.0678 107.03444 216.73192 133.98657"/>
<path transform="matrix(.94337889,-.33164988,-.33163665,-.94341656,332.2362,9.546036)" d="M1.99252 0-1.19551 1.59401 0 0-1.19551-1.59401" fill="#0000ff"/>
<path transform="matrix(1.00002,0,0,-1.00006,115.499958,143.54065)" stroke-width=".3985" stroke-linecap="butt" stroke-dasharray=".3985,1.99255" stroke-miterlimit="10" stroke-linejoin="miter" fill="none" stroke="#0000ff" d="M84.30106-42.80373C131.20915-100.12184 188.5816-121.80823 259.70838-110.1657"/>
<path transform="matrix(.9868398,-.16151969,-.16151324,-.98687919,375.2135,253.71297)" d="M1.99252 0-1.19551 1.59401 0 0-1.19551-1.59401" fill="#0000ff"/>
<use data-text="1" xlink:href="#font_1_2" transform="matrix(9.962799,0,0,-9.963197,10.861847,171.55634)"/>
<use data-text="6" xlink:href="#font_1_7" transform="matrix(9.962799,0,0,-9.963197,15.843246,171.55634)"/>
<use data-text="e" xlink:href="#font_2_2" transform="matrix(9.962799,0,0,-9.963197,181.37328,169.74323)"/>
<use data-text="0" xlink:href="#font_3_1" transform="matrix(6.97394,0,0,-6.9742186,186.01236,171.2373)"/>
<path transform="matrix(1.00002,0,0,-1.00006,115.499958,143.54065)" stroke-width=".3985" stroke-linecap="butt" stroke-miterlimit="10" stroke-linejoin="miter" fill="none" stroke="#000000" d="M-87.38002-17.71674-90.15735-11.01163"/>
<path transform="matrix(-.38266767,-.92388537,-.92384847,.38268296,25.340798,154.55294)" d="M1.99252 0-1.19551 1.59401 0 0-1.19551-1.59401"/>
<path transform="matrix(1.00002,0,0,-1.00006,115.499958,143.54065)" stroke-width=".3985" stroke-linecap="butt" stroke-miterlimit="10" stroke-linejoin="miter" fill="none" stroke="#000000" d="M82.70082-17.71674 79.9235-11.01163"/>
<path transform="matrix(-.38266767,-.92388537,-.92384847,.38268296,195.42505,154.55294)" d="M1.99252 0-1.19551 1.59401 0 0-1.19551-1.59401"/>
<path transform="matrix(1.00002,0,0,-1.00006,115.499958,143.54065)" stroke-width=".3985" stroke-linecap="butt" stroke-miterlimit="10" stroke-linejoin="miter" fill="none" stroke="#ff0000" d="M-91.15337-19.89842C-39.26384 9.95023 10.55772 9.86826 60.62833-19.14595"/>
<path transform="matrix(.8652173,.50139006,.50137,-.86525186,176.1295,162.68775)" d="M1.99252 0-1.19551 1.59401 0 0-1.19551-1.59401" fill="#ff0000"/>
<path transform="matrix(1.00002,0,0,-1.00006,115.499958,143.54065)" stroke-width=".3985" stroke-linecap="butt" stroke-dasharray="2.98883,2.98883" stroke-miterlimit="10" stroke-linejoin="miter" fill="none" stroke="#0000ff" d="M72.96715-18.39168C107.15675 64.01642 165.22675 108.52264 251.71352 119.85895"/>
<path transform="matrix(.9914799,-.1299478,-.12994261,-.99151948,367.2185,23.674515)" d="M1.99252 0-1.19551 1.59401 0 0-1.19551-1.59401" fill="#0000ff"/>
<path transform="matrix(1.00002,0,0,-1.00006,115.499958,143.54065)" stroke-width=".3985" stroke-linecap="butt" stroke-dasharray=".3985,1.99255" stroke-miterlimit="10" stroke-linejoin="miter" fill="none" stroke="#0000ff" d="M72.88643-31.21523C92.29527-77.9969 125.26083-103.26149 173.50388-109.58498"/>
<path transform="matrix(.9914799,.1299478,.12994261,-.99151948,289.00733,253.1322)" d="M1.99252 0-1.19551 1.59401 0 0-1.19551-1.59401" fill="#0000ff"/>
<use data-text="1" xlink:href="#font_1_2" transform="matrix(9.962799,0,0,-9.963197,5.9057619,159.5906)"/>
<use data-text="7" xlink:href="#font_1_8" transform="matrix(9.962799,0,0,-9.963197,10.887161,159.5906)"/>
<use data-text="e" xlink:href="#font_2_2" transform="matrix(9.962799,0,0,-9.963197,176.41718,157.7785)"/>
<use data-text="1" xlink:href="#font_3_2" transform="matrix(6.97394,0,0,-6.9742186,181.05626,159.27259)"/>
<path transform="matrix(1.00002,0,0,-1.00006,115.499958,143.54065)" stroke-width=".3985" stroke-linecap="butt" stroke-miterlimit="10" stroke-linejoin="miter" fill="none" stroke="#000000" d="M-90.9198-9.17087-91.8671-1.97537"/>
<path transform="matrix(-.13051261,-.9914594,-.99141988,.13051783,23.631035,145.51615)" d="M1.99252 0-1.19551 1.59401 0 0-1.19551-1.59401"/>
<path transform="matrix(1.00002,0,0,-1.00006,115.499958,143.54065)" stroke-width=".3985" stroke-linecap="butt" stroke-miterlimit="10" stroke-linejoin="miter" fill="none" stroke="#000000" d="M79.16104-9.17087 78.21375-1.97537"/>
<path transform="matrix(-.13051261,-.9914594,-.99141988,.13051783,193.71527,145.51615)" d="M1.99252 0-1.19551 1.59401 0 0-1.19551-1.59401"/>
<path transform="matrix(1.00002,0,0,-1.00006,115.499958,143.54065)" stroke-width=".3985" stroke-linecap="butt" stroke-miterlimit="10" stroke-linejoin="miter" fill="none" stroke="#ff0000" d="M-96.10905-7.9342C-44.21954 21.91443 5.60202 21.83246 55.67264-7.18175"/>
<path transform="matrix(.8652173,.50139006,.50137,-.86525186,171.1737,150.72281)" d="M1.99252 0-1.19551 1.59401 0 0-1.19551-1.59401" fill="#ff0000"/>
<path transform="matrix(1.00002,0,0,-1.00006,115.499958,143.54065)" stroke-width=".3985" stroke-linecap="butt" stroke-dasharray="2.98883,2.98883" stroke-miterlimit="10" stroke-linejoin="miter" fill="none" stroke="#0000ff" d="M69.82338-6.42746C119.07185 63.26167 183.24167 92.84605 266.23445 85.22261"/>
<path transform="matrix(.99578,.09145548,.09145183,-.99581977,381.73976,58.312906)" d="M1.99252 0-1.19551 1.59401 0 0-1.19551-1.59401" fill="#0000ff"/>
<path transform="matrix(1.00002,0,0,-1.00006,115.499958,143.54065)" stroke-width=".3985" stroke-linecap="butt" stroke-dasharray=".3985,1.99255" stroke-miterlimit="10" stroke-linejoin="miter" fill="none" stroke="#0000ff" d="M67.62451-19.251C86.46057-71.08376 121.17288-100.23988 173.51732-109.49692"/>
<path transform="matrix(.9847297,.17414044,.17413348,-.98476907,289.02076,253.04413)" d="M1.99252 0-1.19551 1.59401 0 0-1.19551-1.59401" fill="#0000ff"/>
<use data-text="1" xlink:href="#font_1_2" transform="matrix(9.962799,0,0,-9.963197,4.2157289,146.75084)"/>
<use data-text="8" xlink:href="#font_1_9" transform="matrix(9.962799,0,0,-9.963197,9.197128,146.75084)"/>
<use data-text="e" xlink:href="#font_2_2" transform="matrix(9.962799,0,0,-9.963197,174.72714,144.93874)"/>
<use data-text="2" xlink:href="#font_3_3" transform="matrix(6.97394,0,0,-6.9742186,179.36623,146.43282)"/>
<path transform="matrix(1.00002,0,0,-1.00006,115.499958,143.54065)" stroke-width=".3985" stroke-linecap="butt" stroke-miterlimit="10" stroke-linejoin="miter" fill="none" stroke="#000000" d="M-92.12712 0-91.17982 7.1955"/>
<path transform="matrix(.13051261,-.9914594,-.99141988,-.13051783,24.31829,136.34471)" d="M1.99252 0-1.19551 1.59401 0 0-1.19551-1.59401"/>
<path transform="matrix(1.00002,0,0,-1.00006,115.499958,143.54065)" stroke-width=".3985" stroke-linecap="butt" stroke-miterlimit="10" stroke-linejoin="miter" fill="none" stroke="#000000" d="M77.95372 0 78.90102 7.1955"/>
<path transform="matrix(.13051261,-.9914594,-.99141988,-.13051783,194.40253,136.34471)" d="M1.99252 0-1.19551 1.59401 0 0-1.19551-1.59401"/>
<path transform="matrix(1.00002,0,0,-1.00006,115.499958,143.54065)" stroke-width=".3985" stroke-linecap="butt" stroke-miterlimit="10" stroke-linejoin="miter" fill="none" stroke="#ff0000" d="M-97.79932 4.90501C-45.9098 34.75368 3.91176 34.6717 53.98238 5.65749"/>
<path transform="matrix(.8652173,.50139006,.50137,-.86525186,169.48342,137.88282)" d="M1.99252 0-1.19551 1.59401 0 0-1.19551-1.59401" fill="#ff0000"/>
<path transform="matrix(1.00002,0,0,-1.00006,115.499958,143.54065)" stroke-width=".3985" stroke-linecap="butt" stroke-dasharray="2.98883,2.98883" stroke-miterlimit="10" stroke-linejoin="miter" fill="none" stroke="#0000ff" d="M70.24548 6.41176C123.7155 56.89493 183.23424 71.02763 251.7801 50.53369"/>
<path transform="matrix(.9580592,.28643716,.2864257,-.95809748,367.2851,93.00392)" d="M1.99252 0-1.19551 1.59401 0 0-1.19551-1.59401" fill="#0000ff"/>
<path transform="matrix(1.00002,0,0,-1.00006,115.499958,143.54065)" stroke-width=".3985" stroke-linecap="butt" stroke-dasharray=".3985,1.99255" stroke-miterlimit="10" stroke-linejoin="miter" fill="none" stroke="#0000ff" d="M65.55406-6.41176C82.5255-62.82625 118.13731-96.33418 173.54006-109.38701"/>
<path transform="matrix(.9733195,.22931376,.2293046,-.97335836,289.0435,252.93422)" d="M1.99252 0-1.19551 1.59401 0 0-1.19551-1.59401" fill="#0000ff"/>
<use data-text="1" xlink:href="#font_1_2" transform="matrix(9.962799,0,0,-9.963197,5.9057619,133.91107)"/>
<use data-text="9" xlink:href="#font_1_10" transform="matrix(9.962799,0,0,-9.963197,10.887161,133.91107)"/>
<use data-text="e" xlink:href="#font_2_2" transform="matrix(9.962799,0,0,-9.963197,176.41718,132.09796)"/>
<use data-text="3" xlink:href="#font_3_4" transform="matrix(6.97394,0,0,-6.9742186,181.05626,133.59206)"/>
<path transform="matrix(1.00002,0,0,-1.00006,115.499958,143.54065)" stroke-width=".3985" stroke-linecap="butt" stroke-miterlimit="10" stroke-linejoin="miter" fill="none" stroke="#000000" d="M-90.9198 9.17087-88.14247 15.87599"/>
<path transform="matrix(.38266767,-.92388537,-.92384847,-.38268296,27.35572,127.66371)" d="M1.99252 0-1.19551 1.59401 0 0-1.19551-1.59401"/>
<path transform="matrix(1.00002,0,0,-1.00006,115.499958,143.54065)" stroke-width=".3985" stroke-linecap="butt" stroke-miterlimit="10" stroke-linejoin="miter" fill="none" stroke="#000000" d="M79.16104 9.17087 81.93837 15.87599"/>
<path transform="matrix(.38266767,-.92388537,-.92384847,-.38268296,197.43997,127.66371)" d="M1.99252 0-1.19551 1.59401 0 0-1.19551-1.59401"/>
<path transform="matrix(1.00002,0,0,-1.00006,115.499958,143.54065)" stroke-width=".3985" stroke-linecap="butt" stroke-miterlimit="10" stroke-linejoin="miter" fill="none" stroke="#ff0000" d="M-96.10905 17.74426C-44.21954 47.59291 5.60202 47.51096 55.67264 18.49672"/>
<path transform="matrix(.8652173,.50139006,.50137,-.86525186,171.1737,125.04281)" d="M1.99252 0-1.19551 1.59401 0 0-1.19551-1.59401" fill="#ff0000"/>
<path transform="matrix(1.00002,0,0,-1.00006,115.499958,143.54065)" stroke-width=".3985" stroke-linecap="butt" stroke-dasharray="2.98883,2.98883" stroke-miterlimit="10" stroke-linejoin="miter" fill="none" stroke="#0000ff" d="M73.54457 19.23514C119.45097 53.04442 166.37863 58.28484 216.78626 36.2321"/>
<path transform="matrix(.91610839,.400824,.400808,-.91614499,332.29057,107.30635)" d="M1.99252 0-1.19551 1.59401 0 0-1.19551-1.59401" fill="#0000ff"/>
<path transform="matrix(1.00002,0,0,-1.00006,115.499958,143.54065)" stroke-width=".3985" stroke-linecap="butt" stroke-dasharray=".3985,1.99255" stroke-miterlimit="10" stroke-linejoin="miter" fill="none" stroke="#0000ff" d="M66.81657 6.42746C80.90134-54.27354 115.86841-91.69096 173.57335-109.26349"/>
<path transform="matrix(.95660915,.29130746,.29129584,-.95664736,289.07679,252.81067)" d="M1.99252 0-1.19551 1.59401 0 0-1.19551-1.59401" fill="#0000ff"/>
<use data-text="2" xlink:href="#font_1_3" transform="matrix(9.962799,0,0,-9.963197,10.861847,121.94635)"/>
<use data-text="0" xlink:href="#font_1_1" transform="matrix(9.962799,0,0,-9.963197,15.843246,121.94635)"/>
<use data-text="e" xlink:href="#font_2_2" transform="matrix(9.962799,0,0,-9.963197,181.37328,120.13325)"/>
<use data-text="4" xlink:href="#font_3_5" transform="matrix(6.97394,0,0,-6.9742186,186.01236,121.627338)"/>
<path transform="matrix(1.00002,0,0,-1.00006,115.499958,143.54065)" stroke-width=".3985" stroke-linecap="butt" stroke-miterlimit="10" stroke-linejoin="miter" fill="none" stroke="#000000" d="M-87.38002 17.71674-82.96178 23.47458"/>
<path transform="matrix(.6087322,-.79336759,-.7933359,-.6087565,32.5365,120.06466)" d="M1.99252 0-1.19551 1.59401 0 0-1.19551-1.59401"/>
<path transform="matrix(1.00002,0,0,-1.00006,115.499958,143.54065)" stroke-width=".3985" stroke-linecap="butt" stroke-miterlimit="10" stroke-linejoin="miter" fill="none" stroke="#000000" d="M82.70082 17.71674 87.11906 23.47458"/>
<path transform="matrix(.6087322,-.79336759,-.7933359,-.6087565,202.62076,120.06466)" d="M1.99252 0-1.19551 1.59401 0 0-1.19551-1.59401"/>
<path transform="matrix(1.00002,0,0,-1.00006,115.499958,143.54065)" stroke-width=".3985" stroke-linecap="butt" stroke-miterlimit="10" stroke-linejoin="miter" fill="none" stroke="#ff0000" d="M-91.15337 29.70848C-39.26384 59.55713 10.55772 59.47516 60.62833 30.46094"/>
<path transform="matrix(.8652173,.50139006,.50137,-.86525186,176.1295,113.07787)" d="M1.99252 0-1.19551 1.59401 0 0-1.19551-1.59401" fill="#ff0000"/>
<path transform="matrix(1.00002,0,0,-1.00006,115.499958,143.54065)" stroke-width=".3985" stroke-linecap="butt" stroke-dasharray="2.98883,2.98883" stroke-miterlimit="10" stroke-linejoin="miter" fill="none" stroke="#0000ff" d="M77.40997 31.21523C109.60521 58.24792 144.0255 64.32845 181.66158 50.64384"/>
<path transform="matrix(.93981888,.3417205,.34170685,-.93985638,297.16517,92.89377)" d="M1.99252 0-1.19551 1.59401 0 0-1.19551-1.59401" fill="#0000ff"/>
<path transform="matrix(1.00002,0,0,-1.00006,115.499958,143.54065)" stroke-width=".3985" stroke-linecap="butt" stroke-dasharray=".3985,1.99255" stroke-miterlimit="10" stroke-linejoin="miter" fill="none" stroke="#0000ff" d="M71.32292 18.39168C81.51968-45.38013 115.15302-86.78848 173.6182-109.13263"/>
<path transform="matrix(.9340987,.3569814,.35696716,-.93413606,289.12165,252.67983)" d="M1.99252 0-1.19551 1.59401 0 0-1.19551-1.59401" fill="#0000ff"/>
<use data-text="2" xlink:href="#font_1_3" transform="matrix(9.962799,0,0,-9.963197,18.746018,111.67174)"/>
<use data-text="1" xlink:href="#font_1_2" transform="matrix(9.962799,0,0,-9.963197,23.727417,111.67174)"/>
<use data-text="e" xlink:href="#font_2_2" transform="matrix(9.962799,0,0,-9.963197,189.25743,109.85863)"/>
<use data-text="5" xlink:href="#font_3_6" transform="matrix(6.97394,0,0,-6.9742186,193.89652,111.35272)"/>
<path transform="matrix(1.00002,0,0,-1.00006,115.499958,143.54065)" stroke-width=".3985" stroke-linecap="butt" stroke-miterlimit="10" stroke-linejoin="miter" fill="none" stroke="#000000" d="M-81.7489 25.05528-75.99106 29.47353"/>
<path transform="matrix(.7933359,-.6087565,-.6087322,-.79336759,39.507379,114.06537)" d="M1.99252 0-1.19551 1.59401 0 0-1.19551-1.59401"/>
<path transform="matrix(1.00002,0,0,-1.00006,115.499958,143.54065)" stroke-width=".3985" stroke-linecap="butt" stroke-miterlimit="10" stroke-linejoin="miter" fill="none" stroke="#000000" d="M88.33194 25.05528 94.08978 29.47353"/>
<path transform="matrix(.7933359,-.6087565,-.6087322,-.79336759,209.59162,114.06537)" d="M1.99252 0-1.19551 1.59401 0 0-1.19551-1.59401"/>
<path transform="matrix(1.00002,0,0,-1.00006,115.499958,143.54065)" stroke-width=".3985" stroke-linecap="butt" stroke-miterlimit="10" stroke-linejoin="miter" fill="none" stroke="#ff0000" d="M-83.26982 39.98244C-31.3803 69.8311 18.44127 69.74913 68.51187 40.73491"/>
<path transform="matrix(.8652173,.50139006,.50137,-.86525186,184.0132,102.80328)" d="M1.99252 0-1.19551 1.59401 0 0-1.19551-1.59401" fill="#ff0000"/>
<path transform="matrix(1.00002,0,0,-1.00006,115.499958,143.54065)" stroke-width=".3985" stroke-linecap="butt" stroke-dasharray="2.98883,2.98883" stroke-miterlimit="10" stroke-linejoin="miter" fill="none" stroke="#0000ff" d="M82.18106 41.48918C103.07634 73.22394 131.07393 87.26877 167.01566 85.15724"/>
<path transform="matrix(.99824997,.058643518,.058641174,-.9982898,282.51896,58.37829)" d="M1.99252 0-1.19551 1.59401 0 0-1.19551-1.59401" fill="#0000ff"/>
<path transform="matrix(1.00002,0,0,-1.00006,115.499958,143.54065)" stroke-width=".3985" stroke-linecap="butt" stroke-dasharray=".3985,1.99255" stroke-miterlimit="10" stroke-linejoin="miter" fill="none" stroke="#0000ff" d="M78.74028 28.66565C84.42328-37.19153 115.60394-81.83676 173.6746-108.99966"/>
<path transform="matrix(.90579816,.42371539,.42369849,-.9058343,289.17805,252.54685)" d="M1.99252 0-1.19551 1.59401 0 0-1.19551-1.59401" fill="#0000ff"/>
<use data-text="2" xlink:href="#font_1_3" transform="matrix(9.962799,0,0,-9.963197,29.020234,103.78726)"/>
<use data-text="2" xlink:href="#font_1_3" transform="matrix(9.962799,0,0,-9.963197,34.001634,103.78726)"/>
<use data-text="e" xlink:href="#font_2_2" transform="matrix(9.962799,0,0,-9.963197,199.53165,101.97516)"/>
<use data-text="6" xlink:href="#font_3_7" transform="matrix(6.97394,0,0,-6.9742186,204.17072,103.469249)"/>
<path transform="matrix(1.00002,0,0,-1.00006,115.499958,143.54065)" stroke-width=".3985" stroke-linecap="butt" stroke-miterlimit="10" stroke-linejoin="miter" fill="none" stroke="#000000" d="M-74.41037 30.6864-67.70525 33.46373"/>
<path transform="matrix(.92384847,-.38268296,-.38266767,-.92388537,47.793344,110.07491)" d="M1.99252 0-1.19551 1.59401 0 0-1.19551-1.59401"/>
<path transform="matrix(1.00002,0,0,-1.00006,115.499958,143.54065)" stroke-width=".3985" stroke-linecap="butt" stroke-miterlimit="10" stroke-linejoin="miter" fill="none" stroke="#000000" d="M95.67049 30.6864 102.37561 33.46373"/>
<path transform="matrix(.92384847,-.38268296,-.38266767,-.92388537,217.87763,110.07491)" d="M1.99252 0-1.19551 1.59401 0 0-1.19551-1.59401"/>
<path transform="matrix(1.00002,0,0,-1.00006,115.499958,143.54065)" stroke-width=".3985" stroke-linecap="butt" stroke-miterlimit="10" stroke-linejoin="miter" fill="none" stroke="#ff0000" d="M-72.99585 47.866C-21.10632 77.71465 28.71524 77.63268 78.78584 48.61845"/>
<path transform="matrix(.8652173,.50139006,.50137,-.86525186,194.28739,94.919269)" d="M1.99252 0-1.19551 1.59401 0 0-1.19551-1.59401" fill="#ff0000"/>
<path transform="matrix(1.00002,0,0,-1.00006,115.499958,143.54065)" stroke-width=".3985" stroke-linecap="butt" stroke-dasharray="2.98883,2.98883" stroke-miterlimit="10" stroke-linejoin="miter" fill="none" stroke="#0000ff" d="M91.03143 49.37274C108.48958 91.32878 138.47011 114.2589 181.55837 119.86098"/>
<path transform="matrix(.99162986,-.12892774,-.12892258,-.9916695,297.06196,23.6725)" d="M1.99252 0-1.19551 1.59401 0 0-1.19551-1.59401" fill="#0000ff"/>
<path transform="matrix(1.00002,0,0,-1.00006,115.499958,143.54065)" stroke-width=".3985" stroke-linecap="butt" stroke-dasharray=".3985,1.99255" stroke-miterlimit="10" stroke-linejoin="miter" fill="none" stroke="#0000ff" d="M88.542 36.5492C89.36221-30.13327 117.32062-77.21283 173.74179-108.86896"/>
<path transform="matrix(.87207749,.48931933,.4892998,-.8721123,289.24525,252.41614)" d="M1.99252 0-1.19551 1.59401 0 0-1.19551-1.59401" fill="#0000ff"/>
<use data-text="2" xlink:href="#font_1_3" transform="matrix(9.962799,0,0,-9.963197,40.984468,98.83197)"/>
<use data-text="3" xlink:href="#font_1_4" transform="matrix(9.962799,0,0,-9.963197,45.965867,98.83197)"/>
<use data-text="e" xlink:href="#font_2_2" transform="matrix(9.962799,0,0,-9.963197,211.49588,97.01886)"/>
<use data-text="7" xlink:href="#font_3_8" transform="matrix(6.97394,0,0,-6.9742186,216.13497,98.51295)"/>
<path transform="matrix(1.00002,0,0,-1.00006,115.499958,143.54065)" stroke-width=".3985" stroke-linecap="butt" stroke-miterlimit="10" stroke-linejoin="miter" fill="none" stroke="#000000" d="M-65.8645 34.22618-58.66899 35.17348"/>
<path transform="matrix(.99141988,-.13051783,-.13051261,-.9914594,56.82979,108.36508)" d="M1.99252 0-1.19551 1.59401 0 0-1.19551-1.59401"/>
<path transform="matrix(1.00002,0,0,-1.00006,115.499958,143.54065)" stroke-width=".3985" stroke-linecap="butt" stroke-miterlimit="10" stroke-linejoin="miter" fill="none" stroke="#000000" d="M104.21635 34.22618 111.41185 35.17348"/>
<path transform="matrix(.99141988,-.13051783,-.13051261,-.9914594,226.91403,108.36508)" d="M1.99252 0-1.19551 1.59401 0 0-1.19551-1.59401"/>
<path transform="matrix(1.00002,0,0,-1.00006,115.499958,143.54065)" stroke-width=".3985" stroke-linecap="butt" stroke-miterlimit="10" stroke-linejoin="miter" fill="none" stroke="#ff0000" d="M-61.03163 52.82169C-9.1421 82.67035 40.67946 82.58838 90.75006 53.57416"/>
<path transform="matrix(.8652173,.50139006,.50137,-.86525186,206.25183,89.96327)" d="M1.99252 0-1.19551 1.59401 0 0-1.19551-1.59401" fill="#ff0000"/>
<path transform="matrix(1.00002,0,0,-1.00006,115.499958,143.54065)" stroke-width=".3985" stroke-linecap="butt" stroke-dasharray="2.98883,2.98883" stroke-miterlimit="10" stroke-linejoin="miter" fill="none" stroke="#0000ff" d="M103.35812 54.32843C126.71463 104.12628 163.80715 129.9756 216.62636 134.47817"/>
<path transform="matrix(.99635997,-.084925089,-.084921699,-.9963997,332.13066,9.054443)" d="M1.99252 0-1.19551 1.59401 0 0-1.19551-1.59401" fill="#0000ff"/>
<path transform="matrix(1.00002,0,0,-1.00006,115.499958,143.54065)" stroke-width=".3985" stroke-linecap="butt" stroke-dasharray=".3985,1.99255" stroke-miterlimit="10" stroke-linejoin="miter" fill="none" stroke="#0000ff" d="M100.03299 41.50488C95.98389-24.6052 120.25099-73.28204 173.81804-108.74405"/>
<path transform="matrix(.8338067,.55202308,.552001,-.83384,289.32148,252.2912)" d="M1.99252 0-1.19551 1.59401 0 0-1.19551-1.59401" fill="#0000ff"/>
</svg>
