<svg xmlns="http://www.w3.org/2000/svg" xmlns:xlink="http://www.w3.org/1999/xlink" xmlns:inkscape="http://www.inkscape.org/namespaces/inkscape" version="1.1" width="174" height="103" viewBox="0 0 174 103">
<defs>
<path id="font_1_92" d="M.46798707 .5692291C.46798707 .62220767 .42900086 .70410159 .25898744 .70410159 .13598633 .70410159 .069992069 .6391754 .069992069 .571228 .069992069 .53022769 .102996829 .521225 .117996219 .521225 .13699341 .521225 .16499329 .53523257 .16499329 .5692291 .16499329 .57522585 .16499329 .6122284 .117996219 .6162262 .13598633 .64408877 .18199158 .6760864 .2559967 .6760864 .36999513 .6760864 .3769989 .61909487 .3769989 .5730896 .3769989 .5200958 .35699464 .50009158 .34098817 .48609925 .27398683 .42567445 .23699951 .337677 .23699951 .2606659V.2186737C.23699951 .19866944 .23699951 .19366455 .2539978 .19366455 .2709961 .19366455 .2709961 .20066834 .2709961 .22167969V.25567628C.2709961 .3436737 .32998658 .41767884 .40499879 .4646759 .42399598 .4766693 .46798707 .5076752 .46798707 .5686798V.5692291M.31098939 .056991579C.31098939 .09199524 .2829895 .114990238 .2539978 .114990238 .21899414 .114990238 .19599915 .08699036 .19599915 .057998659 .19599915 .022994996 .22399903 0 .25299073 0 .28799439 0 .31098939 .027999878 .31098939 .056991579Z"/>
</defs>
<path transform="matrix(1.00005,0,0,-1,23.357216,86.839)" stroke-width=".3985" stroke-linecap="butt" stroke-miterlimit="10" stroke-linejoin="miter" fill="none" stroke="#000000" d="M148.82074 35.43349C148.82074 62.83098 110.74744 85.0404 63.7803 85.0404 16.81317 85.0404-21.26012 62.83098-21.26012 35.43349-21.26012 8.036 16.81317-14.1734 63.7803-14.1734 110.74744-14.1734 148.82074 8.036 148.82074 35.43349ZM63.7803 35.43349"/>
<path transform="matrix(1.00005,0,0,-1,23.357216,86.839)" d="M15.16965 14.17339C15.16965 14.72362 14.72362 15.16965 14.17339 15.16965 13.62317 15.16965 13.17712 14.72362 13.17712 14.17339 13.17712 13.62317 13.62317 13.17712 14.17339 13.17712 14.72362 13.17712 15.16965 13.62317 15.16965 14.17339ZM14.17339 14.17339"/>
<path transform="matrix(1.00005,0,0,-1,23.357216,86.839)" stroke-width=".3985" stroke-linecap="butt" stroke-miterlimit="10" stroke-linejoin="miter" fill="none" stroke="#000000" d="M15.16965 14.17339C15.16965 14.72362 14.72362 15.16965 14.17339 15.16965 13.62317 15.16965 13.17712 14.72362 13.17712 14.17339 13.17712 13.62317 13.62317 13.17712 14.17339 13.17712 14.72362 13.17712 15.16965 13.62317 15.16965 14.17339ZM14.17339 14.17339"/>
<path transform="matrix(1.00005,0,0,-1,23.357216,86.839)" stroke-width=".3985" stroke-linecap="butt" stroke-miterlimit="10" stroke-linejoin="miter" fill="none" stroke="#000000" d="M14.17339 14.17339 110.35422 27.91356"/>
<path transform="matrix(.9899595,-.1414,-.14140706,-.98991,132.01602,59.16839)" d="M4.21463 0 .64343 1.34572 1.8178 0 .64343-1.34572Z"/>
<path transform="matrix(.9899595,-.1414,-.14140706,-.98991,132.01602,59.16839)" stroke-width=".3985" stroke-linecap="butt" stroke-miterlimit="10" stroke-linejoin="miter" fill="none" stroke="#000000" d="M4.21463 0 .64343 1.34572 1.8178 0 .64343-1.34572Z"/>
<path transform="matrix(1.00005,0,0,-1,23.357216,86.839)" d="M15.16965 28.3468C15.16965 28.89702 14.72362 29.34306 14.17339 29.34306 13.62317 29.34306 13.17712 28.89702 13.17712 28.3468 13.17712 27.79659 13.62317 27.35054 14.17339 27.35054 14.72362 27.35054 15.16965 27.79659 15.16965 28.3468ZM14.17339 28.3468"/>
<path transform="matrix(1.00005,0,0,-1,23.357216,86.839)" stroke-width=".3985" stroke-linecap="butt" stroke-miterlimit="10" stroke-linejoin="miter" fill="none" stroke="#000000" d="M15.16965 28.3468C15.16965 28.89702 14.72362 29.34306 14.17339 29.34306 13.62317 29.34306 13.17712 28.89702 13.17712 28.3468 13.17712 27.79659 13.62317 27.35054 14.17339 27.35054 14.72362 27.35054 15.16965 27.79659 15.16965 28.3468ZM14.17339 28.3468"/>
<path transform="matrix(1.00005,0,0,-1,23.357216,86.839)" stroke-width=".3985" stroke-linecap="butt" stroke-miterlimit="10" stroke-linejoin="miter" fill="none" stroke="#000000" d="M14.17339 28.3468 110.35422 42.08696"/>
<path transform="matrix(.9899595,-.1414,-.14140706,-.98991,132.01602,44.994997)" d="M4.21463 0 .64343 1.34572 1.8178 0 .64343-1.34572Z"/>
<path transform="matrix(.9899595,-.1414,-.14140706,-.98991,132.01602,44.994997)" stroke-width=".3985" stroke-linecap="butt" stroke-miterlimit="10" stroke-linejoin="miter" fill="none" stroke="#000000" d="M4.21463 0 .64343 1.34572 1.8178 0 .64343-1.34572Z"/>
<path transform="matrix(1.00005,0,0,-1,23.357216,86.839)" d="M15.16965 42.5202C15.16965 43.07042 14.72362 43.51646 14.17339 43.51646 13.62317 43.51646 13.17712 43.07042 13.17712 42.5202 13.17712 41.96999 13.62317 41.52394 14.17339 41.52394 14.72362 41.52394 15.16965 41.96999 15.16965 42.5202ZM14.17339 42.5202"/>
<path transform="matrix(1.00005,0,0,-1,23.357216,86.839)" stroke-width=".3985" stroke-linecap="butt" stroke-miterlimit="10" stroke-linejoin="miter" fill="none" stroke="#000000" d="M15.16965 42.5202C15.16965 43.07042 14.72362 43.51646 14.17339 43.51646 13.62317 43.51646 13.17712 43.07042 13.17712 42.5202 13.17712 41.96999 13.62317 41.52394 14.17339 41.52394 14.72362 41.52394 15.16965 41.96999 15.16965 42.5202ZM14.17339 42.5202"/>
<path transform="matrix(1.00005,0,0,-1,23.357216,86.839)" stroke-width=".3985" stroke-linecap="butt" stroke-miterlimit="10" stroke-linejoin="miter" fill="none" stroke="#000000" d="M14.17339 42.5202 110.35422 56.26038"/>
<path transform="matrix(.9899595,-.1414,-.14140706,-.98991,132.01602,30.821587)" d="M4.21463 0 .64343 1.34572 1.8178 0 .64343-1.34572Z"/>
<path transform="matrix(.9899595,-.1414,-.14140706,-.98991,132.01602,30.821587)" stroke-width=".3985" stroke-linecap="butt" stroke-miterlimit="10" stroke-linejoin="miter" fill="none" stroke="#000000" d="M4.21463 0 .64343 1.34572 1.8178 0 .64343-1.34572Z"/>
<path transform="matrix(1.00005,0,0,-1,23.357216,86.839)" d="M15.16965 56.69362C15.16965 57.24384 14.72362 57.68988 14.17339 57.68988 13.62317 57.68988 13.17712 57.24384 13.17712 56.69362 13.17712 56.14339 13.62317 55.69736 14.17339 55.69736 14.72362 55.69736 15.16965 56.14339 15.16965 56.69362ZM14.17339 56.69362"/>
<path transform="matrix(1.00005,0,0,-1,23.357216,86.839)" stroke-width=".3985" stroke-linecap="butt" stroke-miterlimit="10" stroke-linejoin="miter" fill="none" stroke="#000000" d="M15.16965 56.69362C15.16965 57.24384 14.72362 57.68988 14.17339 57.68988 13.62317 57.68988 13.17712 57.24384 13.17712 56.69362 13.17712 56.14339 13.62317 55.69736 14.17339 55.69736 14.72362 55.69736 15.16965 56.14339 15.16965 56.69362ZM14.17339 56.69362"/>
<path transform="matrix(1.00005,0,0,-1,23.357216,86.839)" stroke-width=".3985" stroke-linecap="butt" stroke-miterlimit="10" stroke-linejoin="miter" fill="none" stroke="#000000" d="M14.17339 56.69362 110.57115 15.38023"/>
<path transform="matrix(.9191559,.39389,.39390967,-.91911,132.35462,70.782)" d="M4.21463 0 .64343 1.34572 1.8178 0 .64343-1.34572Z"/>
<path transform="matrix(.9191559,.39389,.39390967,-.91911,132.35462,70.782)" stroke-width=".3985" stroke-linecap="butt" stroke-miterlimit="10" stroke-linejoin="miter" fill="none" stroke="#000000" d="M4.21463 0 .64343 1.34572 1.8178 0 .64343-1.34572Z"/>
<path transform="matrix(1.00005,0,0,-1,23.357216,86.839)" d="M114.3835 14.17339C114.3835 14.72362 113.93745 15.16965 113.38724 15.16965 112.837 15.16965 112.39098 14.72362 112.39098 14.17339 112.39098 13.62317 112.837 13.17712 113.38724 13.17712 113.93745 13.17712 114.3835 13.62317 114.3835 14.17339ZM113.38724 14.17339"/>
<path transform="matrix(1.00005,0,0,-1,23.357216,86.839)" stroke-width=".3985" stroke-linecap="butt" stroke-miterlimit="10" stroke-linejoin="miter" fill="none" stroke="#000000" d="M114.3835 14.17339C114.3835 14.72362 113.93745 15.16965 113.38724 15.16965 112.837 15.16965 112.39098 14.72362 112.39098 14.17339 112.39098 13.62317 112.837 13.17712 113.38724 13.17712 113.93745 13.17712 114.3835 13.62317 114.3835 14.17339ZM113.38724 14.17339"/>
<path transform="matrix(1.00005,0,0,-1,23.357216,86.839)" stroke-width=".3985" stroke-linecap="butt" stroke-miterlimit="10" stroke-linejoin="miter" fill="none" stroke="#000000" d="M113.38724 14.17339C118.39827 19.18445 118.39827 9.16235 116.25821 11.3024"/>
<path transform="matrix(-.7071353,-.7071,-.7071353,.7071,140.83625,76.75154)" d="M4.21463 0 .64343 1.34572 1.8178 0 .64343-1.34572Z"/>
<path transform="matrix(-.7071353,-.7071,-.7071353,.7071,140.83625,76.75154)" stroke-width=".3985" stroke-linecap="butt" stroke-miterlimit="10" stroke-linejoin="miter" fill="none" stroke="#000000" d="M4.21463 0 .64343 1.34572 1.8178 0 .64343-1.34572Z"/>
<use data-text="?" xlink:href="#font_1_92" transform="matrix(6.9741489,0,0,-6.9738,144.02825,75.119998)"/>
<path transform="matrix(1.00005,0,0,-1,23.357216,86.839)" d="M29.34306 14.17339C29.34306 14.72362 28.89702 15.16965 28.3468 15.16965 27.79659 15.16965 27.35054 14.72362 27.35054 14.17339 27.35054 13.62317 27.79659 13.17712 28.3468 13.17712 28.89702 13.17712 29.34306 13.62317 29.34306 14.17339ZM28.3468 14.17339"/>
<path transform="matrix(1.00005,0,0,-1,23.357216,86.839)" stroke-width=".3985" stroke-linecap="butt" stroke-miterlimit="10" stroke-linejoin="miter" fill="none" stroke="#000000" d="M29.34306 14.17339C29.34306 14.72362 28.89702 15.16965 28.3468 15.16965 27.79659 15.16965 27.35054 14.72362 27.35054 14.17339 27.35054 13.62317 27.79659 13.17712 28.3468 13.17712 28.89702 13.17712 29.34306 13.62317 29.34306 14.17339ZM28.3468 14.17339"/>
<path transform="matrix(1.00005,0,0,-1,23.357216,86.839)" stroke-width=".3985" stroke-linecap="butt" stroke-miterlimit="10" stroke-linejoin="miter" fill="none" stroke="#000000" d="M28.3468 14.17339 110.48068 41.55138"/>
<path transform="matrix(.9486874,-.31621,-.3162258,-.94864,132.21341,45.830926)" d="M4.21463 0 .64343 1.34572 1.8178 0 .64343-1.34572Z"/>
<path transform="matrix(.9486874,-.31621,-.3162258,-.94864,132.21341,45.830926)" stroke-width=".3985" stroke-linecap="butt" stroke-miterlimit="10" stroke-linejoin="miter" fill="none" stroke="#000000" d="M4.21463 0 .64343 1.34572 1.8178 0 .64343-1.34572Z"/>
<path transform="matrix(1.00005,0,0,-1,23.357216,86.839)" d="M29.34306 28.3468C29.34306 28.89702 28.89702 29.34306 28.3468 29.34306 27.79659 29.34306 27.35054 28.89702 27.35054 28.3468 27.35054 27.79659 27.79659 27.35054 28.3468 27.35054 28.89702 27.35054 29.34306 27.79659 29.34306 28.3468ZM28.3468 28.3468"/>
<path transform="matrix(1.00005,0,0,-1,23.357216,86.839)" stroke-width=".3985" stroke-linecap="butt" stroke-miterlimit="10" stroke-linejoin="miter" fill="none" stroke="#000000" d="M29.34306 28.3468C29.34306 28.89702 28.89702 29.34306 28.3468 29.34306 27.79659 29.34306 27.35054 28.89702 27.35054 28.3468 27.35054 27.79659 27.79659 27.35054 28.3468 27.35054 28.89702 27.35054 29.34306 27.79659 29.34306 28.3468ZM28.3468 28.3468"/>
<path transform="matrix(1.00005,0,0,-1,23.357216,86.839)" stroke-width=".3985" stroke-linecap="butt" stroke-miterlimit="10" stroke-linejoin="miter" fill="none" stroke="#000000" d="M28.3468 28.3468 110.36517 14.67703"/>
<path transform="matrix(.9863893,.16438,.16438821,-.98634,132.03308,71.87951)" d="M4.21463 0 .64343 1.34572 1.8178 0 .64343-1.34572Z"/>
<path transform="matrix(.9863893,.16438,.16438821,-.98634,132.03308,71.87951)" stroke-width=".3985" stroke-linecap="butt" stroke-miterlimit="10" stroke-linejoin="miter" fill="none" stroke="#000000" d="M4.21463 0 .64343 1.34572 1.8178 0 .64343-1.34572Z"/>
<path transform="matrix(1.00005,0,0,-1,23.357216,86.839)" d="M29.34306 42.5202C29.34306 43.07042 28.89702 43.51646 28.3468 43.51646 27.79659 43.51646 27.35054 43.07042 27.35054 42.5202 27.35054 41.96999 27.79659 41.52394 28.3468 41.52394 28.89702 41.52394 29.34306 41.96999 29.34306 42.5202ZM28.3468 42.5202"/>
<path transform="matrix(1.00005,0,0,-1,23.357216,86.839)" stroke-width=".3985" stroke-linecap="butt" stroke-miterlimit="10" stroke-linejoin="miter" fill="none" stroke="#000000" d="M29.34306 42.5202C29.34306 43.07042 28.89702 43.51646 28.3468 43.51646 27.79659 43.51646 27.35054 43.07042 27.35054 42.5202 27.35054 41.96999 27.79659 41.52394 28.3468 41.52394 28.89702 41.52394 29.34306 41.96999 29.34306 42.5202ZM28.3468 42.5202"/>
<path transform="matrix(1.00005,0,0,-1,23.357216,86.839)" stroke-width=".3985" stroke-linecap="butt" stroke-miterlimit="10" stroke-linejoin="miter" fill="none" stroke="#000000" d="M28.3468 42.5202H110.32332"/>
<path transform="matrix(1.00005,0,0,-1,131.96778,44.318799)" d="M4.21463 0 .64343 1.34572 1.8178 0 .64343-1.34572Z"/>
<path transform="matrix(1.00005,0,0,-1,131.96778,44.318799)" stroke-width=".3985" stroke-linecap="butt" stroke-miterlimit="10" stroke-linejoin="miter" fill="none" stroke="#000000" d="M4.21463 0 .64343 1.34572 1.8178 0 .64343-1.34572Z"/>
<path transform="matrix(1.00005,0,0,-1,23.357216,86.839)" d="M29.34306 56.69362C29.34306 57.24384 28.89702 57.68988 28.3468 57.68988 27.79659 57.68988 27.35054 57.24384 27.35054 56.69362 27.35054 56.14339 27.79659 55.69736 28.3468 55.69736 28.89702 55.69736 29.34306 56.14339 29.34306 56.69362ZM28.3468 56.69362"/>
<path transform="matrix(1.00005,0,0,-1,23.357216,86.839)" stroke-width=".3985" stroke-linecap="butt" stroke-miterlimit="10" stroke-linejoin="miter" fill="none" stroke="#000000" d="M29.34306 56.69362C29.34306 57.24384 28.89702 57.68988 28.3468 57.68988 27.79659 57.68988 27.35054 57.24384 27.35054 56.69362 27.35054 56.14339 27.79659 55.69736 28.3468 55.69736 28.89702 55.69736 29.34306 56.14339 29.34306 56.69362ZM28.3468 56.69362"/>
<path transform="matrix(1.00005,0,0,-1,23.357216,86.839)" stroke-width=".3985" stroke-linecap="butt" stroke-miterlimit="10" stroke-linejoin="miter" fill="none" stroke="#000000" d="M28.3468 56.69362 110.64699 15.54349"/>
<path transform="matrix(.89440467,.44717,.4471923,-.89436,132.47296,70.52719)" d="M4.21463 0 .64343 1.34572 1.8178 0 .64343-1.34572Z"/>
<path transform="matrix(.89440467,.44717,.4471923,-.89436,132.47296,70.52719)" stroke-width=".3985" stroke-linecap="butt" stroke-miterlimit="10" stroke-linejoin="miter" fill="none" stroke="#000000" d="M4.21463 0 .64343 1.34572 1.8178 0 .64343-1.34572Z"/>
<path transform="matrix(1.00005,0,0,-1,23.357216,86.839)" d="M114.3835 28.3468C114.3835 28.89702 113.93745 29.34306 113.38724 29.34306 112.837 29.34306 112.39098 28.89702 112.39098 28.3468 112.39098 27.79659 112.837 27.35054 113.38724 27.35054 113.93745 27.35054 114.3835 27.79659 114.3835 28.3468ZM113.38724 28.3468"/>
<path transform="matrix(1.00005,0,0,-1,23.357216,86.839)" stroke-width=".3985" stroke-linecap="butt" stroke-miterlimit="10" stroke-linejoin="miter" fill="none" stroke="#000000" d="M114.3835 28.3468C114.3835 28.89702 113.93745 29.34306 113.38724 29.34306 112.837 29.34306 112.39098 28.89702 112.39098 28.3468 112.39098 27.79659 112.837 27.35054 113.38724 27.35054 113.93745 27.35054 114.3835 27.79659 114.3835 28.3468ZM113.38724 28.3468"/>
<path transform="matrix(1.00005,0,0,-1,23.357216,86.839)" stroke-width=".3985" stroke-linecap="butt" stroke-miterlimit="10" stroke-linejoin="miter" fill="none" stroke="#000000" d="M113.38724 28.3468C118.39827 33.35785 118.39827 23.33574 116.25821 25.47581"/>
<path transform="matrix(-.7071353,-.7071,-.7071353,.7071,140.83625,62.578119)" d="M4.21463 0 .64343 1.34572 1.8178 0 .64343-1.34572Z"/>
<path transform="matrix(-.7071353,-.7071,-.7071353,.7071,140.83625,62.578119)" stroke-width=".3985" stroke-linecap="butt" stroke-miterlimit="10" stroke-linejoin="miter" fill="none" stroke="#000000" d="M4.21463 0 .64343 1.34572 1.8178 0 .64343-1.34572Z"/>
<use data-text="?" xlink:href="#font_1_92" transform="matrix(6.9741489,0,0,-6.9738,144.02825,60.947)"/>
<path transform="matrix(1.00005,0,0,-1,23.357216,86.839)" d="M43.51646 14.17339C43.51646 14.72362 43.07042 15.16965 42.5202 15.16965 41.96999 15.16965 41.52394 14.72362 41.52394 14.17339 41.52394 13.62317 41.96999 13.17712 42.5202 13.17712 43.07042 13.17712 43.51646 13.62317 43.51646 14.17339ZM42.5202 14.17339"/>
<path transform="matrix(1.00005,0,0,-1,23.357216,86.839)" stroke-width=".3985" stroke-linecap="butt" stroke-miterlimit="10" stroke-linejoin="miter" fill="none" stroke="#000000" d="M43.51646 14.17339C43.51646 14.72362 43.07042 15.16965 42.5202 15.16965 41.96999 15.16965 41.52394 14.72362 41.52394 14.17339 41.52394 13.62317 41.96999 13.17712 42.5202 13.17712 43.07042 13.17712 43.51646 13.62317 43.51646 14.17339ZM42.5202 14.17339"/>
<path transform="matrix(1.00005,0,0,-1,23.357216,86.839)" stroke-width=".3985" stroke-linecap="butt" stroke-miterlimit="10" stroke-linejoin="miter" fill="none" stroke="#000000" d="M42.5202 14.17339 110.76003 55.1173"/>
<path transform="matrix(.85751286,-.51448,-.5145057,-.85747,132.64942,32.60568)" d="M4.21463 0 .64343 1.34572 1.8178 0 .64343-1.34572Z"/>
<path transform="matrix(.85751286,-.51448,-.5145057,-.85747,132.64942,32.60568)" stroke-width=".3985" stroke-linecap="butt" stroke-miterlimit="10" stroke-linejoin="miter" fill="none" stroke="#000000" d="M4.21463 0 .64343 1.34572 1.8178 0 .64343-1.34572Z"/>
<path transform="matrix(1.00005,0,0,-1,23.357216,86.839)" d="M43.51646 28.3468C43.51646 28.89702 43.07042 29.34306 42.5202 29.34306 41.96999 29.34306 41.52394 28.89702 41.52394 28.3468 41.52394 27.79659 41.96999 27.35054 42.5202 27.35054 43.07042 27.35054 43.51646 27.79659 43.51646 28.3468ZM42.5202 28.3468"/>
<path transform="matrix(1.00005,0,0,-1,23.357216,86.839)" stroke-width=".3985" stroke-linecap="butt" stroke-miterlimit="10" stroke-linejoin="miter" fill="none" stroke="#000000" d="M43.51646 28.3468C43.51646 28.89702 43.07042 29.34306 42.5202 29.34306 41.96999 29.34306 41.52394 28.89702 41.52394 28.3468 41.52394 27.79659 41.96999 27.35054 42.5202 27.35054 43.07042 27.35054 43.51646 27.79659 43.51646 28.3468ZM42.5202 28.3468"/>
<path transform="matrix(1.00005,0,0,-1,23.357216,86.839)" stroke-width=".3985" stroke-linecap="butt" stroke-miterlimit="10" stroke-linejoin="miter" fill="none" stroke="#000000" d="M42.5202 28.3468 110.38293 41.91936"/>
<path transform="matrix(.980599,-.1961,-.19610979,-.98055,132.06082,45.256597)" d="M4.21463 0 .64343 1.34572 1.8178 0 .64343-1.34572Z"/>
<path transform="matrix(.980599,-.1961,-.19610979,-.98055,132.06082,45.256597)" stroke-width=".3985" stroke-linecap="butt" stroke-miterlimit="10" stroke-linejoin="miter" fill="none" stroke="#000000" d="M4.21463 0 .64343 1.34572 1.8178 0 .64343-1.34572Z"/>
<path transform="matrix(1.00005,0,0,-1,23.357216,86.839)" d="M43.51646 42.5202C43.51646 43.07042 43.07042 43.51646 42.5202 43.51646 41.96999 43.51646 41.52394 43.07042 41.52394 42.5202 41.52394 41.96999 41.96999 41.52394 42.5202 41.52394 43.07042 41.52394 43.51646 41.96999 43.51646 42.5202ZM42.5202 42.5202"/>
<path transform="matrix(1.00005,0,0,-1,23.357216,86.839)" stroke-width=".3985" stroke-linecap="butt" stroke-miterlimit="10" stroke-linejoin="miter" fill="none" stroke="#000000" d="M43.51646 42.5202C43.51646 43.07042 43.07042 43.51646 42.5202 43.51646 41.96999 43.51646 41.52394 43.07042 41.52394 42.5202 41.52394 41.96999 41.96999 41.52394 42.5202 41.52394 43.07042 41.52394 43.51646 41.96999 43.51646 42.5202ZM42.5202 42.5202"/>
<path transform="matrix(1.00005,0,0,-1,23.357216,86.839)" stroke-width=".3985" stroke-linecap="butt" stroke-miterlimit="10" stroke-linejoin="miter" fill="none" stroke="#000000" d="M42.5202 42.5202 110.38293 28.94765"/>
<path transform="matrix(.980599,.1961,.19610979,-.98055,132.06082,57.554407)" d="M4.21463 0 .64343 1.34572 1.8178 0 .64343-1.34572Z"/>
<path transform="matrix(.980599,.1961,.19610979,-.98055,132.06082,57.554407)" stroke-width=".3985" stroke-linecap="butt" stroke-miterlimit="10" stroke-linejoin="miter" fill="none" stroke="#000000" d="M4.21463 0 .64343 1.34572 1.8178 0 .64343-1.34572Z"/>
<path transform="matrix(1.00005,0,0,-1,23.357216,86.839)" d="M43.51646 56.69362C43.51646 57.24384 43.07042 57.68988 42.5202 57.68988 41.96999 57.68988 41.52394 57.24384 41.52394 56.69362 41.52394 56.14339 41.96999 55.69736 42.5202 55.69736 43.07042 55.69736 43.51646 56.14339 43.51646 56.69362ZM42.5202 56.69362"/>
<path transform="matrix(1.00005,0,0,-1,23.357216,86.839)" stroke-width=".3985" stroke-linecap="butt" stroke-miterlimit="10" stroke-linejoin="miter" fill="none" stroke="#000000" d="M43.51646 56.69362C43.51646 57.24384 43.07042 57.68988 42.5202 57.68988 41.96999 57.68988 41.52394 57.24384 41.52394 56.69362 41.52394 56.14339 41.96999 55.69736 42.5202 55.69736 43.07042 55.69736 43.51646 56.14339 43.51646 56.69362ZM42.5202 56.69362"/>
<path transform="matrix(1.00005,0,0,-1,23.357216,86.839)" stroke-width=".3985" stroke-linecap="butt" stroke-miterlimit="10" stroke-linejoin="miter" fill="none" stroke="#000000" d="M42.5202 56.69362 110.76003 15.74971"/>
<path transform="matrix(.85751286,.51448,.5145057,-.85747,132.64942,70.205318)" d="M4.21463 0 .64343 1.34572 1.8178 0 .64343-1.34572Z"/>
<path transform="matrix(.85751286,.51448,.5145057,-.85747,132.64942,70.205318)" stroke-width=".3985" stroke-linecap="butt" stroke-miterlimit="10" stroke-linejoin="miter" fill="none" stroke="#000000" d="M4.21463 0 .64343 1.34572 1.8178 0 .64343-1.34572Z"/>
<path transform="matrix(1.00005,0,0,-1,23.357216,86.839)" d="M114.3835 42.5202C114.3835 43.07042 113.93745 43.51646 113.38724 43.51646 112.837 43.51646 112.39098 43.07042 112.39098 42.5202 112.39098 41.96999 112.837 41.52394 113.38724 41.52394 113.93745 41.52394 114.3835 41.96999 114.3835 42.5202ZM113.38724 42.5202"/>
<path transform="matrix(1.00005,0,0,-1,23.357216,86.839)" stroke-width=".3985" stroke-linecap="butt" stroke-miterlimit="10" stroke-linejoin="miter" fill="none" stroke="#000000" d="M114.3835 42.5202C114.3835 43.07042 113.93745 43.51646 113.38724 43.51646 112.837 43.51646 112.39098 43.07042 112.39098 42.5202 112.39098 41.96999 112.837 41.52394 113.38724 41.52394 113.93745 41.52394 114.3835 41.96999 114.3835 42.5202ZM113.38724 42.5202"/>
<path transform="matrix(1.00005,0,0,-1,23.357216,86.839)" stroke-width=".3985" stroke-linecap="butt" stroke-miterlimit="10" stroke-linejoin="miter" fill="none" stroke="#000000" d="M113.38724 42.5202C118.39827 47.53127 118.39827 37.50916 116.25821 39.64922"/>
<path transform="matrix(-.7071353,-.7071,-.7071353,.7071,140.83625,48.404729)" d="M4.21463 0 .64343 1.34572 1.8178 0 .64343-1.34572Z"/>
<path transform="matrix(-.7071353,-.7071,-.7071353,.7071,140.83625,48.404729)" stroke-width=".3985" stroke-linecap="butt" stroke-miterlimit="10" stroke-linejoin="miter" fill="none" stroke="#000000" d="M4.21463 0 .64343 1.34572 1.8178 0 .64343-1.34572Z"/>
<use data-text="?" xlink:href="#font_1_92" transform="matrix(6.9741489,0,0,-6.9738,144.02825,46.774)"/>
<path transform="matrix(1.00005,0,0,-1,23.357216,86.839)" d="M57.68988 14.17339C57.68988 14.72362 57.24384 15.16965 56.69362 15.16965 56.14339 15.16965 55.69736 14.72362 55.69736 14.17339 55.69736 13.62317 56.14339 13.17712 56.69362 13.17712 57.24384 13.17712 57.68988 13.62317 57.68988 14.17339ZM56.69362 14.17339"/>
<path transform="matrix(1.00005,0,0,-1,23.357216,86.839)" stroke-width=".3985" stroke-linecap="butt" stroke-miterlimit="10" stroke-linejoin="miter" fill="none" stroke="#000000" d="M57.68988 14.17339C57.68988 14.72362 57.24384 15.16965 56.69362 15.16965 56.14339 15.16965 55.69736 14.72362 55.69736 14.17339 55.69736 13.62317 56.14339 13.17712 56.69362 13.17712 57.24384 13.17712 57.68988 13.62317 57.68988 14.17339ZM56.69362 14.17339"/>
<path transform="matrix(1.00005,0,0,-1,23.357216,86.839)" stroke-width=".3985" stroke-linecap="butt" stroke-miterlimit="10" stroke-linejoin="miter" fill="none" stroke="#000000" d="M56.69362 14.17339H110.32332"/>
<path transform="matrix(1.00005,0,0,-1,131.96778,72.6656)" d="M4.21463 0 .64343 1.34572 1.8178 0 .64343-1.34572Z"/>
<path transform="matrix(1.00005,0,0,-1,131.96778,72.6656)" stroke-width=".3985" stroke-linecap="butt" stroke-miterlimit="10" stroke-linejoin="miter" fill="none" stroke="#000000" d="M4.21463 0 .64343 1.34572 1.8178 0 .64343-1.34572Z"/>
<path transform="matrix(1.00005,0,0,-1,23.357216,86.839)" d="M57.68988 28.3468C57.68988 28.89702 57.24384 29.34306 56.69362 29.34306 56.14339 29.34306 55.69736 28.89702 55.69736 28.3468 55.69736 27.79659 56.14339 27.35054 56.69362 27.35054 57.24384 27.35054 57.68988 27.79659 57.68988 28.3468ZM56.69362 28.3468"/>
<path transform="matrix(1.00005,0,0,-1,23.357216,86.839)" stroke-width=".3985" stroke-linecap="butt" stroke-miterlimit="10" stroke-linejoin="miter" fill="none" stroke="#000000" d="M57.68988 28.3468C57.68988 28.89702 57.24384 29.34306 56.69362 29.34306 56.14339 29.34306 55.69736 28.89702 55.69736 28.3468 55.69736 27.79659 56.14339 27.35054 56.69362 27.35054 57.24384 27.35054 57.68988 27.79659 57.68988 28.3468ZM56.69362 28.3468"/>
<path transform="matrix(1.00005,0,0,-1,23.357216,86.839)" stroke-width=".3985" stroke-linecap="butt" stroke-miterlimit="10" stroke-linejoin="miter" fill="none" stroke="#000000" d="M56.69362 28.3468 110.41483 14.9164"/>
<path transform="matrix(.97018846,.24251,.24252212,-.97014,132.1106,71.50593)" d="M4.21463 0 .64343 1.34572 1.8178 0 .64343-1.34572Z"/>
<path transform="matrix(.97018846,.24251,.24252212,-.97014,132.1106,71.50593)" stroke-width=".3985" stroke-linecap="butt" stroke-miterlimit="10" stroke-linejoin="miter" fill="none" stroke="#000000" d="M4.21463 0 .64343 1.34572 1.8178 0 .64343-1.34572Z"/>
<path transform="matrix(1.00005,0,0,-1,23.357216,86.839)" d="M57.68988 42.5202C57.68988 43.07042 57.24384 43.51646 56.69362 43.51646 56.14339 43.51646 55.69736 43.07042 55.69736 42.5202 55.69736 41.96999 56.14339 41.52394 56.69362 41.52394 57.24384 41.52394 57.68988 41.96999 57.68988 42.5202ZM56.69362 42.5202"/>
<path transform="matrix(1.00005,0,0,-1,23.357216,86.839)" stroke-width=".3985" stroke-linecap="butt" stroke-miterlimit="10" stroke-linejoin="miter" fill="none" stroke="#000000" d="M57.68988 42.5202C57.68988 43.07042 57.24384 43.51646 56.69362 43.51646 56.14339 43.51646 55.69736 43.07042 55.69736 42.5202 55.69736 41.96999 56.14339 41.52394 56.69362 41.52394 57.24384 41.52394 57.68988 41.96999 57.68988 42.5202ZM56.69362 42.5202"/>
<path transform="matrix(1.00005,0,0,-1,23.357216,86.839)" stroke-width=".3985" stroke-linecap="butt" stroke-miterlimit="10" stroke-linejoin="miter" fill="none" stroke="#000000" d="M56.69362 42.5202 110.64699 15.54349"/>
<path transform="matrix(.89440467,.44717,.4471923,-.89436,132.47296,70.52719)" d="M4.21463 0 .64343 1.34572 1.8178 0 .64343-1.34572Z"/>
<path transform="matrix(.89440467,.44717,.4471923,-.89436,132.47296,70.52719)" stroke-width=".3985" stroke-linecap="butt" stroke-miterlimit="10" stroke-linejoin="miter" fill="none" stroke="#000000" d="M4.21463 0 .64343 1.34572 1.8178 0 .64343-1.34572Z"/>
<path transform="matrix(1.00005,0,0,-1,23.357216,86.839)" d="M57.68988 56.69362C57.68988 57.24384 57.24384 57.68988 56.69362 57.68988 56.14339 57.68988 55.69736 57.24384 55.69736 56.69362 55.69736 56.14339 56.14339 55.69736 56.69362 55.69736 57.24384 55.69736 57.68988 56.14339 57.68988 56.69362ZM56.69362 56.69362"/>
<path transform="matrix(1.00005,0,0,-1,23.357216,86.839)" stroke-width=".3985" stroke-linecap="butt" stroke-miterlimit="10" stroke-linejoin="miter" fill="none" stroke="#000000" d="M57.68988 56.69362C57.68988 57.24384 57.24384 57.68988 56.69362 57.68988 56.14339 57.68988 55.69736 57.24384 55.69736 56.69362 55.69736 56.14339 56.14339 55.69736 56.69362 55.69736 57.24384 55.69736 57.68988 56.14339 57.68988 56.69362ZM56.69362 56.69362"/>
<path transform="matrix(1.00005,0,0,-1,23.357216,86.839)" stroke-width=".3985" stroke-linecap="butt" stroke-miterlimit="10" stroke-linejoin="miter" fill="none" stroke="#000000" d="M56.69362 56.69362 110.93619 16.0117"/>
<path transform="matrix(.8000099,.59999,.60002,-.79997,132.92438,69.796398)" d="M4.21463 0 .64343 1.34572 1.8178 0 .64343-1.34572Z"/>
<path transform="matrix(.8000099,.59999,.60002,-.79997,132.92438,69.796398)" stroke-width=".3985" stroke-linecap="butt" stroke-miterlimit="10" stroke-linejoin="miter" fill="none" stroke="#000000" d="M4.21463 0 .64343 1.34572 1.8178 0 .64343-1.34572Z"/>
<path transform="matrix(1.00005,0,0,-1,23.357216,86.839)" d="M114.3835 56.69362C114.3835 57.24384 113.93745 57.68988 113.38724 57.68988 112.837 57.68988 112.39098 57.24384 112.39098 56.69362 112.39098 56.14339 112.837 55.69736 113.38724 55.69736 113.93745 55.69736 114.3835 56.14339 114.3835 56.69362ZM113.38724 56.69362"/>
<path transform="matrix(1.00005,0,0,-1,23.357216,86.839)" stroke-width=".3985" stroke-linecap="butt" stroke-miterlimit="10" stroke-linejoin="miter" fill="none" stroke="#000000" d="M114.3835 56.69362C114.3835 57.24384 113.93745 57.68988 113.38724 57.68988 112.837 57.68988 112.39098 57.24384 112.39098 56.69362 112.39098 56.14339 112.837 55.69736 113.38724 55.69736 113.93745 55.69736 114.3835 56.14339 114.3835 56.69362ZM113.38724 56.69362"/>
<path transform="matrix(1.00005,0,0,-1,23.357216,86.839)" stroke-width=".3985" stroke-linecap="butt" stroke-miterlimit="10" stroke-linejoin="miter" fill="none" stroke="#000000" d="M113.38724 56.69362C118.39827 61.70465 118.39827 51.68256 116.25821 53.82263"/>
<path transform="matrix(-.7071353,-.7071,-.7071353,.7071,140.83625,34.231317)" d="M4.21463 0 .64343 1.34572 1.8178 0 .64343-1.34572Z"/>
<path transform="matrix(-.7071353,-.7071,-.7071353,.7071,140.83625,34.231317)" stroke-width=".3985" stroke-linecap="butt" stroke-miterlimit="10" stroke-linejoin="miter" fill="none" stroke="#000000" d="M4.21463 0 .64343 1.34572 1.8178 0 .64343-1.34572Z"/>
<use data-text="?" xlink:href="#font_1_92" transform="matrix(6.9741489,0,0,-6.9738,144.02825,32.6)"/>
</svg>
