<svg xmlns="http://www.w3.org/2000/svg" xmlns:xlink="http://www.w3.org/1999/xlink" xmlns:inkscape="http://www.inkscape.org/namespaces/inkscape" version="1.1" width="136" height="69" viewBox="0 0 136 69">
<defs>
<path id="font_1_1" d="M.4850006 .41075135 .40098573 .6096344C.397995 .61763 .3959961 .6216278 .3959961 .6226196 .3959961 .62861636 .41299439 .6476135 .45498658 .6516113 .46499635 .65260317 .47499085 .6536102 .47499085 .6706085 .47499085 .6826172 .46299745 .6826172 .45999146 .6826172 .4189911 .6826172 .37599183 .6796112 .33399964 .6796112 .30899049 .6796112 .24699402 .6826172 .22200012 .6826172 .21598816 .6826172 .20399475 .6826172 .20399475 .6626129 .20399475 .6516113 .21398926 .6516113 .22698975 .6516113 .2869873 .6516113 .29299928 .6416168 .3019867 .6196289L.41999818 .34080506 .20899964 .11393738 .19599915 .10295105C.14698792 .049987794 .099990848 .033996583 .04899597 .0309906 .035995485 .02999878 .026992798 .02999878 .026992798 .010986328 .026992798 .009994507 .026992798 0 .039993287 0 .069992069 0 .102996829 .0029907227 .13398743 .0029907227 .17098999 .0029907227 .20999146 0 .24598694 0 .2519989 0 .2639923 0 .2639923 .019989014 .2639923 .02999878 .2539978 .0309906 .2519989 .0309906 .24299622 .03199768 .21199036 .033996583 .21199036 .061965944 .21199036 .07795715 .22698975 .093948367 .23899842 .10694885L.34098817 .21487427 .43099977 .31282044 .5319977 .07395935C.5359955 .06297302 .5369873 .061965944 .5369873 .05996704 .5369873 .051986696 .5179901 .034988405 .47898866 .0309906 .46798707 .02999878 .45899964 .0289917 .45899964 .011993408 .45899964 0 .46998597 0 .47399903 0 .5019989 0 .57199099 .0029907227 .59999087 .0029907227 .625 .0029907227 .6859894 0 .71099856 0 .71798709 0 .7299957 0 .7299957 .018997193 .7299957 .0309906 .7200012 .0309906 .71199038 .0309906 .644989 .03199768 .6429901 .034988405 .6259918 .07496643 .58699038 .16790772 .519989 .32380677 .49699403 .3837738 .5649872 .45373536 .66999819 .5726471 .70199587 .6006317 .73098757 .62461856 .7689972 .64860537 .82899478 .6516113 .84199526 .65260317 .8509979 .65260317 .8509979 .6716156 .8509979 .6726074 .8509979 .6826172 .83799746 .6826172 .80799868 .6826172 .7749939 .6796112 .74398806 .6796112 .70700076 .6796112 .6689911 .6826172 .6329956 .6826172 .6269989 .6826172 .6139984 .6826172 .6139984 .6626129 .6139984 .65560916 .61898806 .65260317 .6259918 .6516113 .6349945 .65060427 .66600039 .64860537 .66600039 .6206207 .66600039 .6066284 .6549988 .5936432 .6469879 .5846405L.4850006 .41075135Z"/>
<path id="font_2_1" d="M.20599365 .11984253C.17098999 .06594849 .13899231 .039978029 .07998657 .035995485 .069992069 .034988405 .056991579 .034988405 .056991579 .01499939 .056991579 .0039978029 .06599426 0 .070999149 0 .09700012 0 .12998963 .0039978029 .15699768 .0039978029 .18899536 .0039978029 .22999573 0 .2599945 0 .2649994 0 .27999879 0 .27999879 .021987915 .27999879 .034988405 .2669983 .035995485 .2630005 .035995485 .25498963 .036987306 .21899414 .038986207 .21899414 .06594849 .21899414 .077926639 .22898865 .09489441 .23399353 .103881839L.31399537 .22766114H.59999087L.6239929 .061950685C.6199951 .051971437 .6139984 .035995485 .5549927 .035995485 .54299929 .035995485 .5289917 .035995485 .5289917 .01399231 .5289917 .009994507 .5319977 0 .54499819 0 .57398989 0 .644989 .0039978029 .673996 .0039978029 .69200137 .0039978029 .71499636 .0029907227 .73298647 .0029907227 .7509918 .0019989014 .7719879 0 .7899933 0 .8029938 0 .80999758 .0079956059 .80999758 .020996094 .80999758 .035995485 .7979889 .035995485 .7819977 .035995485 .723999 .035995485 .7220001 .04397583 .71899417 .06793213L.6309967 .6848755C.6279907 .70588687 .6259918 .7128906 .6069946 .7128906 .58799746 .7128906 .58200076 .70388796 .57299807 .6898804L.20599365 .11984253M.33799745 .26367188 .5479889 .5908356 .59498599 .26367188H.33799745Z"/>
<path id="font_2_2" d="M.18899536 .07797241C.18099976 .04399109 .1789856 .035995485 .100997928 .035995485 .08299255 .035995485 .070999149 .035995485 .070999149 .01399231 .070999149 0 .08299255 0 .100997928 0H.45799256C.6799927 0 .8929901 .20388794 .8929901 .42175294 .8929901 .5676575 .7919922 .6826172 .6289978 .6826172H.2649994C.24499512 .6826172 .23298645 .6826172 .23298645 .660614 .23298645 .64660647 .24398804 .64660647 .2659912 .64660647 .28199769 .64660647 .28599549 .64660647 .3039856 .64460757 .32398988 .64260867 .32598878 .64060977 .32598878 .63061526 .32598878 .62861636 .32598878 .6236267 .32199098 .6086426L.18899536 .07797241M.41299439 .6126251C.42099 .6436157 .42199708 .64660647 .46398927 .64660647H.59199526C.70399478 .64660647 .7979889 .59065249 .7979889 .45472718 .7979889 .43174745 .7879944 .2588501 .6879883 .14492798 .6489868 .09994507 .5629883 .035995485 .43998719 .035995485H.3039856C.272995 .035995485 .27198792 .036987306 .27198792 .04598999 .27198792 .04698181 .27198792 .051986696 .27598573 .066970828L.41299439 .6126251Z"/>
<path id="font_3_1" d="M.5289917 .31925965C.5289917 .41625978 .5279999 .65527346 .2869873 .65527346 .04598999 .65527346 .04499817 .41726686 .04499817 .31925965 .04499817 .22026062 .04598999-.0107421879 .2869873-.0107421879 .5269928-.0107421879 .5289917 .21925354 .5289917 .31925965M.2869873 .025253296C.25099183 .025253296 .19499207 .04725647 .18199158 .12025452 .17298889 .17225647 .17298889 .27626039 .17298889 .33125306 .17298889 .40325929 .17298889 .46826173 .18099976 .5202637 .19299317 .6092682 .2630005 .6192627 .2869873 .6192627 .32398988 .6192627 .36499024 .6002655 .38398744 .5562744 .40098573 .51927188 .40098573 .41326905 .40098573 .33125306 .40098573 .2752533 .40098573 .18424988 .3939972 .13224793 .37998963 .039245607 .31698609 .025253296 .2869873 .025253296Z"/>
<path id="font_1_4" d="M.20599365 .3996582H.2999878C.31999208 .3996582 .32998658 .3996582 .32998658 .41966249 .32998658 .43066407 .31999208 .43066407 .3019867 .43066407H.21398926C.25 .5724945 .25498963 .59246829 .25498963 .59846499 .25498963 .61546328 .24299622 .62545779 .22599793 .62545779 .22299195 .62545779 .19499207 .62446597 .18598938 .58947756L.14698792 .43066407H.052993776C.032989503 .43066407 .022994996 .43066407 .022994996 .4116516 .022994996 .3996582 .0309906 .3996582 .050994874 .3996582H.13899231C.066986087 .11608887 .06298828 .099121097 .06298828 .08114624 .06298828 .02722168 .100997928-.0107421879 .15499878-.0107421879 .25698854-.0107421879 .31399537 .13505554 .31399537 .14305115 .31399537 .1530304 .30599977 .1530304 .3019867 .1530304 .29299928 .1530304 .2919922 .15003968 .2869873 .13905335 .24398804 .035217287 .19099427 .011245728 .15699768 .011245728 .13598633 .011245728 .12599182 .024230957 .12599182 .057174684 .12599182 .08114624 .12799073 .088134769 .13198853 .10510254L.20599365 .3996582Z"/>
<path id="font_2_3" d="M.55599978 .3817749 .651001 .4767151C.7789917 .6026459 .81799319 .6416168 .9079895 .64660647 .92099 .6476135 .93299868 .6476135 .93299868 .66760256 .93299868 .6796112 .9219971 .6826172 .9189911 .6826172 .8899994 .6826172 .8549957 .6786041 .82499697 .6786041 .798996 .6786041 .7350006 .6826172 .70899966 .6826172 .70098879 .6826172 .68899539 .6796112 .68899539 .660614 .68899539 .65960696 .68899539 .6476135 .70399478 .64660647 .71299746 .6456146 .73799136 .6436157 .73799136 .6216278 .73799136 .6066437 .72299197 .59065249 .71299746 .58065798 .7049866 .5736542 .5779877 .44973756 .54100039 .41175843L.43998719 .6076355C.43798829 .6106262 .43499757 .61763 .43499757 .6216278 .43499757 .62861636 .45399476 .64460757 .48799134 .64660647 .49499513 .64660647 .5089874 .6476135 .5089874 .6686096 .5089874 .6696167 .5079956 .6826172 .49198915 .6826172 .47099305 .6826172 .44599916 .6796112 .4249878 .6796112 .4039917 .6796112 .3809967 .6786041 .3600006 .6786041 .34298707 .6786041 .31900025 .6786041 .30099488 .6796112 .28399659 .680603 .2630005 .6826172 .24699402 .6826172 .24198914 .6826172 .22599793 .6826172 .22599793 .660614 .22599793 .64660647 .23899842 .64660647 .25498963 .64660647 .31298829 .64660647 .31799317 .63661196 .32798768 .6166229L.46798707 .34080506 .4119873 .28483583C.3929901 .2668457 .34599305 .22187805 .32798768 .20288086 .20599365 .081970218 .16499329 .039993287 .07499695 .035995485 .06098938 .034988405 .049987794 .034988405 .049987794 .01399231 .049987794 .009994507 .052993776 0 .06399536 0 .09298706 0 .1269989 .0039978029 .15699768 .0039978029 .17399597 .0039978029 .19898987 .0039978029 .21598816 .0029907227 .23399353 .0019989014 .2559967 0 .272995 0 .27799989 0 .2939911 0 .2939911 .020996094 .2939911 .034988405 .28199769 .035995485 .27598573 .035995485 .2659912 .036987306 .24499512 .039993287 .24499512 .06097412 .24499512 .07696533 .2579956 .08996582 .27999879 .11193848L.48298646 .31082154 .60398867 .07397461C.60899356 .0639801 .6100006 .0619812 .6100006 .06097412 .6100006 .054977418 .59199526 .038986207 .5569916 .035995485 .5479889 .034988405 .5349884 .034988405 .5349884 .01399231 .5349884 .0129852299 .5359955 0 .5519867 0 .57299807 0 .59799197 .0029907227 .61898806 .0029907227 .6399994 .0029907227 .6629944 .0039978029 .6839905 .0039978029 .70098879 .0039978029 .72499087 .0039978029 .7429962 .0029907227 .7599945 .0019989014 .7809906 0 .7969971 0 .8019867 0 .81799319 0 .81799319 .021987915 .81799319 .035995485 .8049927 .035995485 .78900149 .035995485 .73098757 .035995485 .7259979 .04698181 .71699526 .0639801L.55599978 .3817749Z"/>
<path id="font_4_1" d="M.59199526 .31825257C.59199526 .44125367 .57899478 .65625 .32299806 .65625 .066986087 .65625 .053985597 .44024659 .053985597 .31825257 .053985597 .19226074 .069992069-.01171875 .32299806-.01171875 .57598879-.01171875 .59199526 .19126892 .59199526 .31825257M.32299806 .03427124C.29100038 .03427124 .26098634 .045272829 .23699951 .06626892 .20999146 .089263919 .19299317 .104263309 .19299317 .33125306 .19299317 .4002533 .19299317 .47924806 .20399475 .5272522 .21998596 .5922394 .28199769 .61024478 .32299806 .61024478 .36099244 .61024478 .42599488 .5942383 .44198609 .52523806 .45298768 .47824098 .45298768 .3952484 .45298768 .33125306 .45298768 .261261 .45298768 .18826294 .44299317 .13226319 .42900086 .05126953 .3600006 .03427124 .32299806 .03427124Z"/>
<path id="font_1_3" d="M.3909912 .37405396C.36299134 .37304688 .34298707 .3510437 .34298707 .32904054 .34298707 .31503297 .35198976 .30003358 .37399293 .30003358 .3959961 .30003358 .41999818 .31703187 .41999818 .35603334 .41999818 .40124513 .3769989 .4423828 .30099488 .4423828 .16899109 .4423828 .13198853 .3400421 .13198853 .29605104 .13198853 .21820069 .20599365 .20323181 .23498535 .19725037 .2869873 .18727112 .33898927 .17628479 .33898927 .12133789 .33898927 .095336917 .31599427 .011245728 .19599915 .011245728 .18199158 .011245728 .10499573 .011245728 .08198547 .064331058 .11999512 .059326173 .14498902 .08934021 .14498902 .11734009 .14498902 .14033509 .1289978 .15234375 .10798645 .15234375 .08198547 .15234375 .051986696 .1313324 .051986696 .08633423 .051986696 .029281617 .10899353-.0107421879 .19499207-.0107421879 .35699464-.0107421879 .3959961 .1103363 .3959961 .15533448 .3959961 .19125366 .3769989 .21620178 .36499024 .22817993 .33799745 .25613404 .30899049 .26112367 .2649994 .27009584 .22898865 .27807618 .18899536 .2850647 .18899536 .33003236 .18899536 .3590393 .21299744 .42037965 .30099488 .42037965 .32598878 .42037965 .37599183 .41333009 .3909912 .37405396Z"/>
<path id="font_1_2" d="M.36698915 .3996582H.45298768C.47299195 .3996582 .48298646 .3996582 .48298646 .41966249 .48298646 .43066407 .47299195 .43066407 .45599366 .43066407H.37298585L.3939972 .5449524C.397995 .5660095 .4119873 .6370239 .41799928 .6490326 .4269867 .66804507 .44400025 .68307498 .46499635 .68307498 .46899415 .68307498 .49499513 .68307498 .5139923 .66503909 .46998597 .661026 .45999146 .6260376 .45999146 .6110382 .45999146 .58802798 .47799684 .57603457 .49699403 .57603457 .522995 .57603457 .5519867 .5980377 .5519867 .6360321 .5519867 .6820679 .5059967 .7050781 .46499635 .7050781 .43099977 .7050781 .36799623 .68707278 .33799745 .58802798 .33198548 .56700137 .32899476 .5569763 .30499269 .43066407H.23599243C.21699524 .43066407 .20599365 .43066407 .20599365 .4116516 .20599365 .3996582 .21499634 .3996582 .23399353 .3996582H.2999878L.22499085 .0048828127C.20698548-.09207153 .18998719-.18309021 .13798523-.18309021 .13398743-.18309021 .10899353-.18309021 .08999634-.16506958 .13598633-.1620636 .14498902-.12606812 .14498902-.111068729 .14498902-.08807373 .1269989-.07606506 .10798645-.07606506 .08198547-.07606506 .052993776-.09806824 .052993776-.13606262 .052993776-.18109131 .09700012-.20507813 .13798523-.20507813 .19299317-.20507813 .23298645-.14607239 .25099183-.108062747 .2829895-.04508972 .30599977 .07583618 .30699159 .082839969L.36698915 .3996582Z"/>
</defs>
<use data-text="X" xlink:href="#font_1_1" transform="matrix(9.962899,0,0,-9.963496,20.678175,15.960354)"/>
<use data-text="A" xlink:href="#font_2_1" transform="matrix(6.9740097,0,0,-6.9744279,28.932427,17.454487)"/>
<use data-text="X" xlink:href="#font_1_1" transform="matrix(9.962899,0,0,-9.963496,20.309165,58.48418)"/>
<use data-text="D" xlink:href="#font_2_2" transform="matrix(6.9740097,0,0,-6.9744279,28.563416,59.978315)"/>
<use data-text="0" xlink:href="#font_3_1" transform="matrix(9.962899,0,0,-9.963496,106.98377,15.766338)"/>
<use data-text="A" xlink:href="#font_2_1" transform="matrix(6.9740097,0,0,-6.9744279,112.712947,17.260472)"/>
<use data-text="0" xlink:href="#font_3_1" transform="matrix(9.962899,0,0,-9.963496,106.61475,58.290166)"/>
<use data-text="D" xlink:href="#font_2_2" transform="matrix(6.9740097,0,0,-6.9744279,112.343929,59.784299)"/>
<path transform="matrix(1.00003,0,0,-1.00009,-56.993158,55.826944)" stroke-width=".3985" stroke-linecap="butt" stroke-miterlimit="10" stroke-linejoin="miter" fill="none" stroke="#000000" d="M95.94371 34.85347 96.28528 9.66415"/>
<path transform="matrix(.013570408,.99997,.99991008,-.013571221,39.295,46.161924)" d="M1.99252 0-1.19551 1.59401 0 0-1.19551-1.59401"/>
<use data-text="t" xlink:href="#font_1_4" transform="matrix(9.962899,0,0,-9.963496,42.657838,36.87924)"/>
<use data-text="X" xlink:href="#font_2_3" transform="matrix(6.9740097,0,0,-6.9744279,46.255945,38.37337)"/>
<path transform="matrix(1.00003,0,0,-1.00009,-56.993158,55.826944)" stroke-width=".3985" stroke-linecap="butt" stroke-miterlimit="10" stroke-linejoin="miter" fill="none" stroke="#000000" d="M179.7317 35.04721 180.07367 9.47041"/>
<path transform="matrix(.013370401,.99997,.99991008,-.013371203,123.085918,46.35568)" d="M1.99252 0-1.19551 1.59401 0 0-1.19551-1.59401"/>
<use data-text="t" xlink:href="#font_1_4" transform="matrix(9.962899,0,0,-9.963496,126.44836,36.87924)"/>
<use data-text="0" xlink:href="#font_4_1" transform="matrix(6.9740097,0,0,-6.9744279,130.04647,38.37337)"/>
<path transform="matrix(1.00003,0,0,-1.00009,-56.993158,55.826944)" stroke-width=".3985" stroke-linecap="butt" stroke-miterlimit="10" stroke-linejoin="miter" fill="none" stroke="#000000" d="M74.15785 34.85347 73.81628 9.66415"/>
<path transform="matrix(-.013570408,.99997,.99991008,.013571221,16.825364,46.161924)" d="M1.99252 0-1.19551 1.59401 0 0-1.19551-1.59401"/>
<use data-text="s" xlink:href="#font_1_3" transform="matrix(9.962899,0,0,-9.963496,1.2185879,35.960157)"/>
<use data-text="X" xlink:href="#font_2_3" transform="matrix(6.9740097,0,0,-6.9744279,5.888729,37.45429)"/>
<path transform="matrix(1.00003,0,0,-1.00009,-56.993158,55.826944)" stroke-width=".3985" stroke-linecap="butt" stroke-miterlimit="10" stroke-linejoin="miter" fill="none" stroke="#000000" d="M160.4715 35.04721 160.12953 9.47041"/>
<path transform="matrix(-.013370401,.99997,.99991008,.013371203,103.1412,46.35568)" d="M1.99252 0-1.19551 1.59401 0 0-1.19551-1.59401"/>
<use data-text="s" xlink:href="#font_1_3" transform="matrix(9.962899,0,0,-9.963496,90.09727,35.960157)"/>
<use data-text="0" xlink:href="#font_4_1" transform="matrix(6.9740097,0,0,-6.9744279,94.76741,37.45429)"/>
<path transform="matrix(1.00003,0,0,-1.00009,-56.993158,55.826944)" stroke-width=".3985" stroke-linecap="butt" stroke-miterlimit="10" stroke-linejoin="miter" fill="none" stroke="#000000" d="M95.94371 42.52602 158.47898 42.52579"/>
<path transform="matrix(1.00003,0,0,-1.00009,101.49058,13.297325)" d="M1.99252 0-1.19551 1.59401 0 0-1.19551-1.59401"/>
<use data-text="f" xlink:href="#font_1_2" transform="matrix(9.962899,0,0,-9.963496,65.53452,7.8396227)"/>
<use data-text="A" xlink:href="#font_2_1" transform="matrix(6.9740097,0,0,-6.9744279,70.41267,9.3337559)"/>
<path transform="matrix(1.00003,0,0,-1.00009,-56.993158,55.826944)" stroke-width=".3985" stroke-linecap="butt" stroke-miterlimit="10" stroke-linejoin="miter" fill="none" stroke="#000000" d="M96.31229 0H158.11038"/>
<path transform="matrix(1.00003,0,0,-1.00009,101.12197,55.826944)" d="M1.99252 0-1.19551 1.59401 0 0-1.19551-1.59401"/>
<use data-text="f" xlink:href="#font_1_2" transform="matrix(9.962899,0,0,-9.963496,65.16551,66.265888)"/>
<use data-text="D" xlink:href="#font_2_2" transform="matrix(6.9740097,0,0,-6.9744279,70.043659,67.76001)"/>
</svg>
