<svg xmlns="http://www.w3.org/2000/svg" xmlns:xlink="http://www.w3.org/1999/xlink" xmlns:inkscape="http://www.inkscape.org/namespaces/inkscape" version="1.1" width="139" height="66" viewBox="0 0 139 66">
<defs>
<path id="font_1_1" d="M.15899658 .07795715C.14898682 .038986207 .14698792 .0309906 .067993167 .0309906 .050994874 .0309906 .039993287 .0309906 .039993287 .011993408 .039993287 0 .04899597 0 .067993167 0H.39898683C.6069946 0 .80400088 .21087647 .80400088 .42974855 .80400088 .5706482 .71899417 .6826172 .56900027 .6826172H.23298645C.21398926 .6826172 .20298767 .6826172 .20298767 .66360476 .20298767 .6516113 .21199036 .6516113 .23199463 .6516113 .24499512 .6516113 .2630005 .65060427 .2749939 .6496124 .29100038 .6476135 .29699708 .64460757 .29699708 .6336212 .29699708 .6296234 .29599 .62661746 .29299928 .614624L.15899658 .07795715M.375 .6136322C.38398744 .64860537 .38598634 .6516113 .42900086 .6516113H.5359955C.6339874 .6516113 .71699526 .5986328 .71699526 .46672059 .71699526 .41775514 .69699099 .25386048 .6119995 .1439209 .58299258 .10694885 .5039978 .0309906 .3809967 .0309906H.2679901C.2539978 .0309906 .2519989 .0309906 .24598694 .03199768 .23599243 .032989503 .23298645 .033996583 .23298645 .041992189 .23298645 .04498291 .23298645 .04698181 .23799134 .064971927L.375 .6136322Z"/>
<path id="font_2_1" d="M.20599365 .11984253C.17098999 .06594849 .13899231 .039978029 .07998657 .035995485 .069992069 .034988405 .056991579 .034988405 .056991579 .01499939 .056991579 .0039978029 .06599426 0 .070999149 0 .09700012 0 .12998963 .0039978029 .15699768 .0039978029 .18899536 .0039978029 .22999573 0 .2599945 0 .2649994 0 .27999879 0 .27999879 .021987915 .27999879 .034988405 .2669983 .035995485 .2630005 .035995485 .25498963 .036987306 .21899414 .038986207 .21899414 .06594849 .21899414 .077926639 .22898865 .09489441 .23399353 .103881839L.31399537 .22766114H.59999087L.6239929 .061950685C.6199951 .051971437 .6139984 .035995485 .5549927 .035995485 .54299929 .035995485 .5289917 .035995485 .5289917 .01399231 .5289917 .009994507 .5319977 0 .54499819 0 .57398989 0 .644989 .0039978029 .673996 .0039978029 .69200137 .0039978029 .71499636 .0029907227 .73298647 .0029907227 .7509918 .0019989014 .7719879 0 .7899933 0 .8029938 0 .80999758 .0079956059 .80999758 .020996094 .80999758 .035995485 .7979889 .035995485 .7819977 .035995485 .723999 .035995485 .7220001 .04397583 .71899417 .06793213L.6309967 .6848755C.6279907 .70588687 .6259918 .7128906 .6069946 .7128906 .58799746 .7128906 .58200076 .70388796 .57299807 .6898804L.20599365 .11984253M.33799745 .26367188 .5479889 .5908356 .59498599 .26367188H.33799745Z"/>
<path id="font_2_2" d="M.18899536 .07797241C.18099976 .04399109 .1789856 .035995485 .100997928 .035995485 .08299255 .035995485 .070999149 .035995485 .070999149 .01399231 .070999149 0 .08299255 0 .100997928 0H.45799256C.6799927 0 .8929901 .20388794 .8929901 .42175294 .8929901 .5676575 .7919922 .6826172 .6289978 .6826172H.2649994C.24499512 .6826172 .23298645 .6826172 .23298645 .660614 .23298645 .64660647 .24398804 .64660647 .2659912 .64660647 .28199769 .64660647 .28599549 .64660647 .3039856 .64460757 .32398988 .64260867 .32598878 .64060977 .32598878 .63061526 .32598878 .62861636 .32598878 .6236267 .32199098 .6086426L.18899536 .07797241M.41299439 .6126251C.42099 .6436157 .42199708 .64660647 .46398927 .64660647H.59199526C.70399478 .64660647 .7979889 .59065249 .7979889 .45472718 .7979889 .43174745 .7879944 .2588501 .6879883 .14492798 .6489868 .09994507 .5629883 .035995485 .43998719 .035995485H.3039856C.272995 .035995485 .27198792 .036987306 .27198792 .04598999 .27198792 .04698181 .27198792 .051986696 .27598573 .066970828L.41299439 .6126251Z"/>
<path id="font_1_2" d="M.4850006 .41075135 .40098573 .6096344C.397995 .61763 .3959961 .6216278 .3959961 .6226196 .3959961 .62861636 .41299439 .6476135 .45498658 .6516113 .46499635 .65260317 .47499085 .6536102 .47499085 .6706085 .47499085 .6826172 .46299745 .6826172 .45999146 .6826172 .4189911 .6826172 .37599183 .6796112 .33399964 .6796112 .30899049 .6796112 .24699402 .6826172 .22200012 .6826172 .21598816 .6826172 .20399475 .6826172 .20399475 .6626129 .20399475 .6516113 .21398926 .6516113 .22698975 .6516113 .2869873 .6516113 .29299928 .6416168 .3019867 .6196289L.41999818 .34080506 .20899964 .11393738 .19599915 .10295105C.14698792 .049987794 .099990848 .033996583 .04899597 .0309906 .035995485 .02999878 .026992798 .02999878 .026992798 .010986328 .026992798 .009994507 .026992798 0 .039993287 0 .069992069 0 .102996829 .0029907227 .13398743 .0029907227 .17098999 .0029907227 .20999146 0 .24598694 0 .2519989 0 .2639923 0 .2639923 .019989014 .2639923 .02999878 .2539978 .0309906 .2519989 .0309906 .24299622 .03199768 .21199036 .033996583 .21199036 .061965944 .21199036 .07795715 .22698975 .093948367 .23899842 .10694885L.34098817 .21487427 .43099977 .31282044 .5319977 .07395935C.5359955 .06297302 .5369873 .061965944 .5369873 .05996704 .5369873 .051986696 .5179901 .034988405 .47898866 .0309906 .46798707 .02999878 .45899964 .0289917 .45899964 .011993408 .45899964 0 .46998597 0 .47399903 0 .5019989 0 .57199099 .0029907227 .59999087 .0029907227 .625 .0029907227 .6859894 0 .71099856 0 .71798709 0 .7299957 0 .7299957 .018997193 .7299957 .0309906 .7200012 .0309906 .71199038 .0309906 .644989 .03199768 .6429901 .034988405 .6259918 .07496643 .58699038 .16790772 .519989 .32380677 .49699403 .3837738 .5649872 .45373536 .66999819 .5726471 .70199587 .6006317 .73098757 .62461856 .7689972 .64860537 .82899478 .6516113 .84199526 .65260317 .8509979 .65260317 .8509979 .6716156 .8509979 .6726074 .8509979 .6826172 .83799746 .6826172 .80799868 .6826172 .7749939 .6796112 .74398806 .6796112 .70700076 .6796112 .6689911 .6826172 .6329956 .6826172 .6269989 .6826172 .6139984 .6826172 .6139984 .6626129 .6139984 .65560916 .61898806 .65260317 .6259918 .6516113 .6349945 .65060427 .66600039 .64860537 .66600039 .6206207 .66600039 .6066284 .6549988 .5936432 .6469879 .5846405L.4850006 .41075135Z"/>
<path id="font_1_5" d="M.20599365 .3996582H.2999878C.31999208 .3996582 .32998658 .3996582 .32998658 .41966249 .32998658 .43066407 .31999208 .43066407 .3019867 .43066407H.21398926C.25 .5724945 .25498963 .59246829 .25498963 .59846499 .25498963 .61546328 .24299622 .62545779 .22599793 .62545779 .22299195 .62545779 .19499207 .62446597 .18598938 .58947756L.14698792 .43066407H.052993776C.032989503 .43066407 .022994996 .43066407 .022994996 .4116516 .022994996 .3996582 .0309906 .3996582 .050994874 .3996582H.13899231C.066986087 .11608887 .06298828 .099121097 .06298828 .08114624 .06298828 .02722168 .100997928-.0107421879 .15499878-.0107421879 .25698854-.0107421879 .31399537 .13505554 .31399537 .14305115 .31399537 .1530304 .30599977 .1530304 .3019867 .1530304 .29299928 .1530304 .2919922 .15003968 .2869873 .13905335 .24398804 .035217287 .19099427 .011245728 .15699768 .011245728 .13598633 .011245728 .12599182 .024230957 .12599182 .057174684 .12599182 .08114624 .12799073 .088134769 .13198853 .10510254L.20599365 .3996582Z"/>
<path id="font_2_3" d="M.55599978 .3817749 .651001 .4767151C.7789917 .6026459 .81799319 .6416168 .9079895 .64660647 .92099 .6476135 .93299868 .6476135 .93299868 .66760256 .93299868 .6796112 .9219971 .6826172 .9189911 .6826172 .8899994 .6826172 .8549957 .6786041 .82499697 .6786041 .798996 .6786041 .7350006 .6826172 .70899966 .6826172 .70098879 .6826172 .68899539 .6796112 .68899539 .660614 .68899539 .65960696 .68899539 .6476135 .70399478 .64660647 .71299746 .6456146 .73799136 .6436157 .73799136 .6216278 .73799136 .6066437 .72299197 .59065249 .71299746 .58065798 .7049866 .5736542 .5779877 .44973756 .54100039 .41175843L.43998719 .6076355C.43798829 .6106262 .43499757 .61763 .43499757 .6216278 .43499757 .62861636 .45399476 .64460757 .48799134 .64660647 .49499513 .64660647 .5089874 .6476135 .5089874 .6686096 .5089874 .6696167 .5079956 .6826172 .49198915 .6826172 .47099305 .6826172 .44599916 .6796112 .4249878 .6796112 .4039917 .6796112 .3809967 .6786041 .3600006 .6786041 .34298707 .6786041 .31900025 .6786041 .30099488 .6796112 .28399659 .680603 .2630005 .6826172 .24699402 .6826172 .24198914 .6826172 .22599793 .6826172 .22599793 .660614 .22599793 .64660647 .23899842 .64660647 .25498963 .64660647 .31298829 .64660647 .31799317 .63661196 .32798768 .6166229L.46798707 .34080506 .4119873 .28483583C.3929901 .2668457 .34599305 .22187805 .32798768 .20288086 .20599365 .081970218 .16499329 .039993287 .07499695 .035995485 .06098938 .034988405 .049987794 .034988405 .049987794 .01399231 .049987794 .009994507 .052993776 0 .06399536 0 .09298706 0 .1269989 .0039978029 .15699768 .0039978029 .17399597 .0039978029 .19898987 .0039978029 .21598816 .0029907227 .23399353 .0019989014 .2559967 0 .272995 0 .27799989 0 .2939911 0 .2939911 .020996094 .2939911 .034988405 .28199769 .035995485 .27598573 .035995485 .2659912 .036987306 .24499512 .039993287 .24499512 .06097412 .24499512 .07696533 .2579956 .08996582 .27999879 .11193848L.48298646 .31082154 .60398867 .07397461C.60899356 .0639801 .6100006 .0619812 .6100006 .06097412 .6100006 .054977418 .59199526 .038986207 .5569916 .035995485 .5479889 .034988405 .5349884 .034988405 .5349884 .01399231 .5349884 .0129852299 .5359955 0 .5519867 0 .57299807 0 .59799197 .0029907227 .61898806 .0029907227 .6399994 .0029907227 .6629944 .0039978029 .6839905 .0039978029 .70098879 .0039978029 .72499087 .0039978029 .7429962 .0029907227 .7599945 .0019989014 .7809906 0 .7969971 0 .8019867 0 .81799319 0 .81799319 .021987915 .81799319 .035995485 .8049927 .035995485 .78900149 .035995485 .73098757 .035995485 .7259979 .04698181 .71699526 .0639801L.55599978 .3817749Z"/>
<path id="font_1_4" d="M.3909912 .37405396C.36299134 .37304688 .34298707 .3510437 .34298707 .32904054 .34298707 .31503297 .35198976 .30003358 .37399293 .30003358 .3959961 .30003358 .41999818 .31703187 .41999818 .35603334 .41999818 .40124513 .3769989 .4423828 .30099488 .4423828 .16899109 .4423828 .13198853 .3400421 .13198853 .29605104 .13198853 .21820069 .20599365 .20323181 .23498535 .19725037 .2869873 .18727112 .33898927 .17628479 .33898927 .12133789 .33898927 .095336917 .31599427 .011245728 .19599915 .011245728 .18199158 .011245728 .10499573 .011245728 .08198547 .064331058 .11999512 .059326173 .14498902 .08934021 .14498902 .11734009 .14498902 .14033509 .1289978 .15234375 .10798645 .15234375 .08198547 .15234375 .051986696 .1313324 .051986696 .08633423 .051986696 .029281617 .10899353-.0107421879 .19499207-.0107421879 .35699464-.0107421879 .3959961 .1103363 .3959961 .15533448 .3959961 .19125366 .3769989 .21620178 .36499024 .22817993 .33799745 .25613404 .30899049 .26112367 .2649994 .27009584 .22898865 .27807618 .18899536 .2850647 .18899536 .33003236 .18899536 .3590393 .21299744 .42037965 .30099488 .42037965 .32598878 .42037965 .37599183 .41333009 .3909912 .37405396Z"/>
<path id="font_1_3" d="M.47099305 .3773346C.47200013 .3833313 .47399903 .38833619 .47399903 .39535523 .47399903 .41236878 .46199037 .42237855 .44499208 .42237855 .43499757 .42237855 .4079895 .41537477 .4039917 .3793335 .38598634 .41636659 .35099793 .4423828 .31098939 .4423828 .19699097 .4423828 .07299805 .30226136 .07299805 .15812683 .07299805 .059020997 .13398743 0 .20599365 0 .2649994 0 .31199647 .04701233 .32199098 .058029176L.32299806 .057022096C.3019867-.031982423 .2899933-.07295227 .2899933-.07495117 .28599549-.08395386 .2519989-.18309021 .1459961-.18309021 .1269989-.18309021 .09399414-.18206787 .06599426-.17297364 .09599304-.16394043 .10699463-.13793946 .10699463-.12094116 .10699463-.10494995 .09599304-.0859375 .068984989-.0859375 .04699707-.0859375 .01499939-.10394287 .01499939-.14395142 .01499939-.18508911 .051986696-.20507813 .147995-.20507813 .272995-.20507813 .34498597-.12693787 .3600006-.06695557L.47099305 .3773346M.34098817 .12809754C.33499146 .10206604 .31199647 .077041629 .2899933 .058029176 .2689972 .040008546 .23799134 .021987915 .20899964 .021987915 .15899658 .021987915 .14399719 .074035648 .14399719 .11407471 .14399719 .16212464 .17298889 .28024293 .19999695 .33128358 .22698975 .38034059 .269989 .42037965 .31199647 .42037965 .37799073 .42037965 .3919983 .33929444 .3919983 .33428956 .3919983 .32928468 .3899994 .3232727 .3889923 .3192749L.34098817 .12809754Z"/>
</defs>
<use data-text="D" xlink:href="#font_1_1" transform="matrix(9.963098,0,0,-9.962899,20.340264,14.329041)"/>
<use data-text="A" xlink:href="#font_2_1" transform="matrix(6.9741489,0,0,-6.9740097,28.588677,15.824085)"/>
<use data-text="D" xlink:href="#font_1_1" transform="matrix(9.963098,0,0,-9.962899,19.971245,56.85032)"/>
<use data-text="D" xlink:href="#font_2_2" transform="matrix(6.9741489,0,0,-6.9740097,28.219658,58.34536)"/>
<use data-text="X" xlink:href="#font_1_2" transform="matrix(9.963098,0,0,-9.962899,105.38251,14.329041)"/>
<use data-text="A" xlink:href="#font_2_1" transform="matrix(6.9741489,0,0,-6.9740097,113.63692,15.824085)"/>
<use data-text="X" xlink:href="#font_1_2" transform="matrix(9.963098,0,0,-9.962899,105.0135,56.85032)"/>
<use data-text="D" xlink:href="#font_2_2" transform="matrix(6.9741489,0,0,-6.9740097,113.26791,58.34536)"/>
<path transform="matrix(1.00005,0,0,-1.00003,27.709633,54.193239)" stroke-width=".3985" stroke-linecap="butt" stroke-miterlimit="10" stroke-linejoin="miter" fill="none" stroke="#000000" d="M10.8901 34.85347 11.23172 9.66415"/>
<path transform="matrix(.013570678,.99991008,.99992999,-.013570408,38.941896,44.528799)" d="M1.99252 0-1.19551 1.59401 0 0-1.19551-1.59401"/>
<use data-text="t" xlink:href="#font_1_5" transform="matrix(9.963098,0,0,-9.962899,42.30436,35.24667)"/>
<use data-text="D" xlink:href="#font_2_2" transform="matrix(6.9741489,0,0,-6.9740097,45.901536,36.741716)"/>
<path transform="matrix(1.00005,0,0,-1.00003,27.709633,54.193239)" stroke-width=".3985" stroke-linecap="butt" stroke-miterlimit="10" stroke-linejoin="miter" fill="none" stroke="#000000" d="M95.94371 34.85347 96.28528 9.66415"/>
<path transform="matrix(.013570678,.99991008,.99992999,-.013570408,123.9997,44.528799)" d="M1.99252 0-1.19551 1.59401 0 0-1.19551-1.59401"/>
<use data-text="t" xlink:href="#font_1_5" transform="matrix(9.963098,0,0,-9.962899,127.36261,35.24667)"/>
<use data-text="X" xlink:href="#font_2_3" transform="matrix(6.9741489,0,0,-6.9740097,130.95978,36.741716)"/>
<path transform="matrix(1.00005,0,0,-1.00003,27.709633,54.193239)" stroke-width=".3985" stroke-linecap="butt" stroke-miterlimit="10" stroke-linejoin="miter" fill="none" stroke="#000000" d="M-10.8901 34.85347-11.23172 9.66415"/>
<path transform="matrix(-.013570678,.99991008,.99992999,.013570408,16.477372,44.528799)" d="M1.99252 0-1.19551 1.59401 0 0-1.19551-1.59401"/>
<use data-text="s" xlink:href="#font_1_4" transform="matrix(9.963098,0,0,-9.962899,1.217308,34.32764)"/>
<use data-text="D" xlink:href="#font_2_2" transform="matrix(6.9741489,0,0,-6.9740097,5.887535,35.822687)"/>
<path transform="matrix(1.00005,0,0,-1.00003,27.709633,54.193239)" stroke-width=".3985" stroke-linecap="butt" stroke-miterlimit="10" stroke-linejoin="miter" fill="none" stroke="#000000" d="M74.15785 34.85347 73.81628 9.66415"/>
<path transform="matrix(-.013570678,.99991008,.99992999,.013570408,101.52962,44.528799)" d="M1.99252 0-1.19551 1.59401 0 0-1.19551-1.59401"/>
<use data-text="s" xlink:href="#font_1_4" transform="matrix(9.963098,0,0,-9.962899,85.92254,34.32764)"/>
<use data-text="X" xlink:href="#font_2_3" transform="matrix(6.9741489,0,0,-6.9740097,90.592769,35.822687)"/>
<path transform="matrix(1.00005,0,0,-1.00003,27.709633,54.193239)" stroke-width=".3985" stroke-linecap="butt" stroke-miterlimit="10" stroke-linejoin="miter" fill="none" stroke="#000000" d="M10.8901 42.52602 72.16533 42.52585"/>
<path transform="matrix(1.00005,0,0,-1.00003,99.87856,11.666111)" d="M1.99252 0-1.19551 1.59401 0 0-1.19551-1.59401"/>
<use data-text="g" xlink:href="#font_1_3" transform="matrix(9.963098,0,0,-9.962899,64.61447,6.2087938)"/>
<use data-text="A" xlink:href="#font_2_1" transform="matrix(6.9741489,0,0,-6.9740097,69.366718,7.7038385)"/>
<path transform="matrix(1.00005,0,0,-1.00003,27.709633,54.193239)" stroke-width=".3985" stroke-linecap="butt" stroke-miterlimit="10" stroke-linejoin="miter" fill="none" stroke="#000000" d="M11.25873 0H71.79675"/>
<path transform="matrix(1.00005,0,0,-1.00003,99.50997,54.193239)" d="M1.99252 0-1.19551 1.59401 0 0-1.19551-1.59401"/>
<use data-text="g" xlink:href="#font_1_3" transform="matrix(9.963098,0,0,-9.962899,64.24646,62.002473)"/>
<use data-text="D" xlink:href="#font_2_2" transform="matrix(6.9741489,0,0,-6.9740097,68.99869,63.497518)"/>
</svg>
