<svg xmlns="http://www.w3.org/2000/svg" xmlns:xlink="http://www.w3.org/1999/xlink" xmlns:inkscape="http://www.inkscape.org/namespaces/inkscape" version="1.1" width="358" height="178" viewBox="0 0 358 178">
<defs>
<path id="font_1_5" d="M.33399964 .30233766C.33999635 .32835389 .36299134 .42037965 .43299867 .42037965 .43798829 .42037965 .46199037 .42037965 .48298646 .40734864 .45498658 .402359 .43499757 .37734986 .43499757 .35334779 .43499757 .33735658 .44599916 .31835938 .47299195 .31835938 .49499513 .31835938 .5269928 .3363495 .5269928 .37635804 .5269928 .42837525 .46798707 .4423828 .43399049 .4423828 .37599183 .4423828 .34098817 .38935853 .32899476 .36634828 .3039856 .43237306 .25 .4423828 .22099304 .4423828 .116989139 .4423828 .05999756 .3133545 .05999756 .28834535 .05999756 .27833558 .069992069 .27833558 .07199097 .27833558 .07998657 .27833558 .08299255 .28033448 .084991458 .28933717 .11898804 .39535523 .18499756 .42037965 .21899414 .42037965 .23799134 .42037965 .272995 .4113617 .272995 .35334779 .272995 .32235719 .2559967 .25532533 .21899414 .11528015 .20298767 .053268434 .16799927 .011245728 .12399292 .011245728 .117996219 .011245728 .09498596 .011245728 .07398987 .024276734 .09899902 .029266358 .12098694 .05027771 .12098694 .07827759 .12098694 .105270389 .09899902 .11328125 .083999637 .11328125 .053985597 .11328125 .0289917 .08728027 .0289917 .055267335 .0289917 .009246826 .07899475-.0107421879 .12298584-.0107421879 .18899536-.0107421879 .22499085 .059280397 .22799683 .0652771 .23999024 .028274537 .27598573-.0107421879 .33599855-.0107421879 .43899537-.0107421879 .49598695 .118270877 .49598695 .14328003 .49598695 .1532898 .4869995 .1532898 .48399354 .1532898 .47499085 .1532898 .47299195 .14929199 .47099305 .14228821 .43798829 .03527832 .36999513 .011245728 .33799745 .011245728 .29899598 .011245728 .2829895 .043273927 .2829895 .07727051 .2829895 .09927368 .2889862 .121276859 .2999878 .16529846L.33399964 .30233766Z"/>
<path id="font_2_1" d="M.33499146 .63612368C.33499146 .6630554 .33299256 .6640625 .30499269 .6640625 .24099732 .6014404 .1499939 .6004486 .10899353 .6004486V.5644531C.1329956 .5644531 .19898987 .5644531 .2539978 .592453V.08203125C.2539978 .04899597 .2539978 .035995485 .1539917 .035995485H.115997318V0C.13398743 .0009918213 .25698854 .0039978029 .2939911 .0039978029 .32499696 .0039978029 .45098878 .0009918213 .47299195 0V.035995485H.43499757C.33499146 .035995485 .33499146 .04899597 .33499146 .08203125V.63612368Z"/>
<path id="font_2_2" d="M.5049896 .18203736H.47099305C.46798707 .16001892 .45799256 .100997928 .44499208 .09098816 .43699647 .084991458 .3600006 .084991458 .34599305 .084991458H.1619873C.2669983 .17803955 .3019867 .20603943 .3619995 .25306703 .43598939 .312088 .5049896 .374115 .5049896 .46914674 .5049896 .5900879 .39898683 .6640625 .2709961 .6640625 .14698792 .6640625 .06298828 .57710269 .06298828 .4851532 .06298828 .43414308 .10598755 .42915345 .115997318 .42915345 .13999939 .42915345 .16899109 .44615174 .16899109 .48214723 .16899109 .5001526 .1619873 .53515627 .10998535 .53515627 .14099121 .6060791 .20899964 .62805178 .2559967 .62805178 .35598756 .62805178 .4079895 .5501404 .4079895 .46914674 .4079895 .38212586 .34599305 .3130951 .31399537 .27708436L.07299805 .038986207C.06298828 .02999878 .06298828 .027999878 .06298828 0H.47499085L.5049896 .18203736Z"/>
<path id="font_2_3" d="M.272995 .33428956C.35099793 .33428956 .40699769 .2803192 .40699769 .1733551 .40699769 .04940796 .33499146 .012466431 .2769928 .012466431 .23699951 .012466431 .14898682 .0234375 .10699463 .082351688 .1539917 .084350589 .16499329 .11735535 .16499329 .13835144 .16499329 .17034912 .14099121 .19335938 .10998535 .19335938 .08198547 .19335938 .053985597 .17634583 .053985597 .13534546 .053985597 .041412355 .1579895-.01953125 .2789917-.01953125 .41799928-.01953125 .5139923 .07336426 .5139923 .1733551 .5139923 .2513275 .44999696 .32929994 .33999635 .35229493 .44499208 .39024354 .48298646 .4650879 .48298646 .5260773 .48298646 .60505679 .3919983 .6640625 .2809906 .6640625 .16999817 .6640625 .084991458 .61006167 .084991458 .5300751 .084991458 .49606324 .10699463 .47706605 .13699341 .47706605 .16799927 .47706605 .18798828 .5000763 .18798828 .5280762 .18798828 .5570679 .16799927 .57806399 .13699341 .5800781 .17199707 .62405398 .24099732 .63505557 .27799989 .63505557 .32299806 .63505557 .38598634 .6130676 .38598634 .5260773 .38598634 .48406983 .37199403 .43814088 .34599305 .4072113 .31298829 .36927796 .2849884 .3672943 .23498535 .36428834 .20999146 .3623047 .20799256 .3623047 .20298767 .3612976 .20098877 .3612976 .19299317 .3592987 .19299317 .34829713 .19299317 .33428956 .20199585 .33428956 .21899414 .33428956H.272995Z"/>
<path id="font_2_4" d="M.5289917 .1640625V.20005799H.41799928V.64582827C.41799928 .66682437 .41799928 .6738281 .3959961 .6738281 .38398744 .6738281 .37998963 .6738281 .36999513 .65982058L.038986207 .20005799V.1640625H.33299256V.08201599C.33299256 .04800415 .33299256 .035995485 .2519989 .035995485H.22499085V0C.2749939 .0019989014 .33898927 .0039978029 .375 .0039978029 .4119873 .0039978029 .47599793 .0019989014 .526001 0V.035995485H.49899293C.41799928 .035995485 .41799928 .04800415 .41799928 .08201599V.1640625H.5289917M.33999635 .5658722V.20005799H.07598877L.33999635 .5658722Z"/>
<path id="font_2_5" d="M.15499878 .5588074C.20599365 .5458069 .23599243 .5458069 .2519989 .5458069 .38398744 .5458069 .46199037 .6358032 .46199037 .6508026 .46199037 .6618042 .45498658 .6648102 .44999696 .6648102 .44799806 .6648102 .44599916 .6648102 .44198609 .6618042 .41799928 .6528015 .36499024 .6328125 .29100038 .6328125 .2630005 .6328125 .20999146 .6348114 .14498902 .6598053 .1349945 .6648102 .1329956 .6648102 .13198853 .6648102 .11898804 .6648102 .11898804 .6538086 .11898804 .6378021V.34251405C.11898804 .32548524 .11898804 .3134613 .1349945 .3134613 .14399719 .3134613 .14498902 .3154602 .15499878 .32748414 .19799805 .38259889 .25898744 .390625 .2939911 .390625 .35398866 .390625 .3809967 .34251405 .38598634 .33450318 .4039917 .30143739 .4099884 .26335145 .4099884 .20524597 .4099884 .17524719 .4099884 .116256717 .37998963 .07234192 .35499574 .03640747 .31199647 .012466431 .2630005 .012466431 .19799805 .012466431 .1309967 .04838562 .10598755 .11425781 .14399719 .11125183 .16299439 .13624573 .16299439 .16325379 .16299439 .20625305 .12599182 .21424866 .11299133 .21424866 .11099243 .21424866 .06298828 .21424866 .06298828 .1602478 .06298828 .07034302 .14498902-.01953125 .2649994-.01953125 .3929901-.01953125 .5049896 .07533264 .5049896 .20124817 .5049896 .31445313 .4189911 .41862489 .29499818 .41862489 .25099183 .41862489 .19898987 .4076233 .15499878 .36956788V.5588074Z"/>
<path id="font_2_6" d="M.1499939 .3274536C.1499939 .40945436 .15699768 .48303224 .19499207 .543869 .22898865 .5978699 .2829895 .63505557 .34700013 .63505557 .3769989 .63505557 .4169922 .62701418 .43699647 .5998688 .4119873 .5978699 .3909912 .5808716 .3909912 .5518799 .3909912 .5268707 .4079895 .5048828 .43798829 .5048828 .46798707 .5048828 .48599244 .5248718 .48599244 .5538788 .48599244 .6119385 .44400025 .6640625 .34498597 .6640625 .20098877 .6640625 .053985597 .5318756 .053985597 .3174591 .053985597 .05845642 .17599488-.01953125 .28599549-.01953125 .4079895-.01953125 .5139923 .07345581 .5139923 .20445252 .5139923 .33145143 .41299439 .42546083 .29599 .42546083 .21598816 .42546083 .17199707 .37245179 .1499939 .3274536M.28599549 .012466431C.23599243 .012466431 .19699097 .04145813 .17599488 .08546448 .16099549 .11546326 .15299988 .16545105 .15299988 .22544861 .15299988 .32244874 .21099854 .39746095 .29100038 .39746095 .33699037 .39746095 .36799623 .37945558 .3929901 .342453 .4169922 .30445863 .41799928 .26245118 .41799928 .20445252 .41799928 .14746094 .41799928 .10545349 .3909912 .066467288 .36698915 .031463624 .33499146 .012466431 .28599549 .012466431Z"/>
<path id="font_2_7" d="M.5349884 .6045227C.54499819 .6165161 .54499819 .6185303 .54499819 .64453127H.2829895C.24299622 .64453127 .23199463 .6455078 .19599915 .6484375 .14399719 .65234377 .14199829 .6592407 .13899231 .676239H.10499573L.069992069 .46250917H.10398865C.10598755 .47750855 .115997318 .54351809 .13198853 .5535126 .13999939 .55952456 .22099304 .55952456 .23599243 .55952456H.45399476C.42199708 .5175171 .37098695 .45550538 .34999085 .4275055 .21899414 .25549317 .20698548 .096466068 .20698548 .037460329 .20698548 .02645874 .20698548-.01953125 .2539978-.01953125 .3019867-.01953125 .3019867 .025466919 .3019867 .038467409V.07847595C.3019867 .27249146 .34199525 .36149598 .3849945 .41551209L.5349884 .6045227Z"/>
<path id="font_2_8" d="M.35499574 .36123658C.43299867 .3992157 .48298646 .44618226 .48298646 .5151367 .48298646 .6120758 .38198854 .6640625 .2849884 .6640625 .1749878 .6640625 .084991458 .5920868 .084991458 .4971466 .084991458 .45018006 .10699463 .41619874 .125 .39620973 .14299011 .37522889 .1499939 .37123109 .20899964 .33624269 .15299988 .31227113 .053985597 .25830079 .053985597 .15336609 .053985597 .042434694 .16899109-.01953125 .2829895-.01953125 .4099884-.01953125 .5139923 .061431886 .5139923 .1693573 .5139923 .23532105 .47499085 .29127503 .4169922 .32525636 .4039917 .33325196 .36898805 .35324098 .35499574 .36123658M.19198609 .45617677C.1659851 .4711609 .13798523 .49813844 .13798523 .53512576 .13798523 .5980835 .21099854 .63505557 .2829895 .63505557 .36099244 .63505557 .42999269 .5860901 .42999269 .5151367 .42999269 .42619325 .32598878 .3812256 .32398988 .3812256 .32199098 .3812256 .31999208 .3822174 .31298829 .3862152L.19198609 .45617677M.24099732 .31726075 .37799073 .23831177C.4039917 .22332764 .45399476 .19334412 .45399476 .13438416 .45399476 .059432985 .37098695 .012466431 .2849884 .012466431 .19299317 .012466431 .11399841 .07142639 .11399841 .15336609 .11399841 .22732544 .16899109 .2842865 .24099732 .31726075Z"/>
<path id="font_2_9" d="M.41799928 .29803468C.41799928 .05064392 .29499818 .012466431 .23498535 .012466431 .21299744 .012466431 .1599884 .014465332 .1329956 .045639039 .17399597 .04963684 .1769867 .08363342 .1769867 .09263611 .1769867 .11764526 .1599884 .13964844 .12998963 .13964844 .099990848 .13964844 .08198547 .119644168 .08198547 .09063721 .08198547 .022521973 .13899231-.01953125 .23599243-.01953125 .3789978-.01953125 .5139923 .11564636 .5139923 .32904054 .5139923 .5770569 .4039917 .6640625 .2869873 .6640625 .2539978 .6640625 .18499756 .6590576 .12799073 .60305789 .09399414 .5700531 .053985597 .53105166 .053985597 .4410553 .053985597 .31404115 .15499878 .22003174 .27198792 .22003174 .35198976 .22003174 .394989 .27304078 .41799928 .31803895V.29803468M.2769928 .24804688C.23799134 .24804688 .20098877 .26104737 .17298889 .30703736 .1499939 .34403993 .1499939 .38604737 .1499939 .4410553 .1499939 .49905396 .1499939 .53904727 .1789856 .5790558 .20298767 .61405947 .23599243 .63505557 .28799439 .63505557 .33898927 .63505557 .36898805 .60305789 .3849945 .5770569 .4119873 .53504946 .4149933 .4650421 .4149933 .4300537 .4149933 .30004884 .33999635 .24804688 .2769928 .24804688Z"/>
<path id="font_1_1" d="M.4850006 .41075135 .40098573 .6096344C.397995 .61763 .3959961 .6216278 .3959961 .6226196 .3959961 .62861636 .41299439 .6476135 .45498658 .6516113 .46499635 .65260317 .47499085 .6536102 .47499085 .6706085 .47499085 .6826172 .46299745 .6826172 .45999146 .6826172 .4189911 .6826172 .37599183 .6796112 .33399964 .6796112 .30899049 .6796112 .24699402 .6826172 .22200012 .6826172 .21598816 .6826172 .20399475 .6826172 .20399475 .6626129 .20399475 .6516113 .21398926 .6516113 .22698975 .6516113 .2869873 .6516113 .29299928 .6416168 .3019867 .6196289L.41999818 .34080506 .20899964 .11393738 .19599915 .10295105C.14698792 .049987794 .099990848 .033996583 .04899597 .0309906 .035995485 .02999878 .026992798 .02999878 .026992798 .010986328 .026992798 .009994507 .026992798 0 .039993287 0 .069992069 0 .102996829 .0029907227 .13398743 .0029907227 .17098999 .0029907227 .20999146 0 .24598694 0 .2519989 0 .2639923 0 .2639923 .019989014 .2639923 .02999878 .2539978 .0309906 .2519989 .0309906 .24299622 .03199768 .21199036 .033996583 .21199036 .061965944 .21199036 .07795715 .22698975 .093948367 .23899842 .10694885L.34098817 .21487427 .43099977 .31282044 .5319977 .07395935C.5359955 .06297302 .5369873 .061965944 .5369873 .05996704 .5369873 .051986696 .5179901 .034988405 .47898866 .0309906 .46798707 .02999878 .45899964 .0289917 .45899964 .011993408 .45899964 0 .46998597 0 .47399903 0 .5019989 0 .57199099 .0029907227 .59999087 .0029907227 .625 .0029907227 .6859894 0 .71099856 0 .71798709 0 .7299957 0 .7299957 .018997193 .7299957 .0309906 .7200012 .0309906 .71199038 .0309906 .644989 .03199768 .6429901 .034988405 .6259918 .07496643 .58699038 .16790772 .519989 .32380677 .49699403 .3837738 .5649872 .45373536 .66999819 .5726471 .70199587 .6006317 .73098757 .62461856 .7689972 .64860537 .82899478 .6516113 .84199526 .65260317 .8509979 .65260317 .8509979 .6716156 .8509979 .6726074 .8509979 .6826172 .83799746 .6826172 .80799868 .6826172 .7749939 .6796112 .74398806 .6796112 .70700076 .6796112 .6689911 .6826172 .6329956 .6826172 .6269989 .6826172 .6139984 .6826172 .6139984 .6626129 .6139984 .65560916 .61898806 .65260317 .6259918 .6516113 .6349945 .65060427 .66600039 .64860537 .66600039 .6206207 .66600039 .6066284 .6549988 .5936432 .6469879 .5846405L.4850006 .41075135Z"/>
<path id="font_3_1" d="M.36099244 .5739441C.29299928 .5139618 .27398683 .43096925 .27398683 .41996766 .27398683 .41096498 .2809906 .40596009 .28799439 .40596009 .29699708 .40596009 .30599977 .4099579 .30899049 .42095948 .34498597 .552948 .43899537 .58496096 .44198609 .58496096 .44898988 .58595278 .46299745 .58695986 .46299745 .6019592 .46299745 .6189575 .44499208 .6189575 .43699647 .6189575 .4229889 .6189575 .4019928 .6169586 .3880005 .61395266 .3849945 .61395266 .3809967 .6129608 .37799073 .6129608 .375 .6129608 .33999635 .61595156 .2979889 .63694766 .2669983 .6529541 .25099183 .6679535 .23498535 .68196108 .23098755 .68595889 .22799683 .6889496 .22299195 .6889496 .21899414 .6889496 .20098877 .6869507 .20098877 .6729584 .20098877 .6589508 .25 .6189575 .31098939 .59295657 .18598938 .5459595 .07798767 .41596986 .07798767 .25097657 .07798767 .04399109 .24398804-.117996219 .44599916-.117996219 .6499939-.117996219 .81399539 .04699707 .81399539 .24998474 .81399539 .48095704 .6179962 .58395388 .598999 .58395388 .59098818 .58395388 .58200076 .575943 .58200076 .56695559 .58200076 .5569458 .58699038 .5539551 .60398867 .5459595 .71798709 .48495484 .7799988 .3659668 .7799988 .25097657 .7799988 .06500244 .6299896-.083984378 .44599916-.083984378 .2599945-.083984378 .11199951 .06700134 .11199951 .24998474 .11199951 .3829651 .19299317 .526947 .36099244 .5739441Z"/>
<path id="font_4_1" d="M.5469971 .14128113C.6389923 .23632813 .6759949 .36938478 .6759949 .38038636 .6759949 .39338685 .6639862 .39338685 .6589966 .39338685 .644989 .39338685 .644989 .39038087 .6380005 .3683777 .6199951 .3023529 .58699038 .24131775 .54499819 .18730164 .5439911 .20230103 .5419922 .2693329 .5399933 .27833558 .5249939 .37738038 .44999696 .44140626 .34999085 .44140626 .20298767 .44140626 .06199646 .3043518 .06199646 .16429138 .06199646 .072250369 .1289978-.009765625 .24499512-.009765625 .33699037-.009765625 .41999818 .032226564 .47599793 .07525635 .49899293 .0022277833 .5499878-.009765625 .5799866-.009765625 .6380005-.009765625 .673996 .039230348 .673996 .0602417 .673996 .072250369 .6619873 .072250369 .6569977 .072250369 .6439972 .072250369 .6419983 .06825256 .6399994 .0622406 .6259918 .024230957 .59498599 .018234253 .58299258 .018234253 .56900027 .018234253 .5519867 .018234253 .5469971 .14128113M.46899415 .10726929C.37098695 .027236939 .28599549 .018234253 .24798584 .018234253 .18199158 .018234253 .14498902 .0622406 .14498902 .12927246 .14498902 .15829468 .15899658 .26733399 .21099854 .33636476 .25698854 .39639283 .31399537 .4133911 .34899903 .4133911 .42900086 .4133911 .45199586 .33636476 .45999146 .27433778 .46598817 .23132324 .46398927 .16029358 .46899415 .10726929Z"/>
<path id="font_1_2" d="M.37298585 .37835694C.35499574 .41537477 .32598878 .4423828 .2809906 .4423828 .1639862 .4423828 .039993287 .29533387 .039993287 .14929199 .039993287 .055267335 .09498596-.0107421879 .17298889-.0107421879 .19299317-.0107421879 .24299622-.0067443849 .30299378 .06427002 .31098939 .022247315 .34599305-.0107421879 .3939972-.0107421879 .42900086-.0107421879 .45199586 .012252808 .46798707 .044265748 .4850006 .08027649 .49798585 .14129639 .49798585 .14329529 .49798585 .1532898 .4889984 .1532898 .48599244 .1532898 .47599793 .1532898 .47499085 .14929199 .47200013 .13528443 .45498658 .07026672 .43699647 .011245728 .3959961 .011245728 .36898805 .011245728 .3659973 .037261964 .3659973 .057266237 .3659973 .07926941 .36799623 .08728027 .3789978 .13128662 .3899994 .17329407 .3919983 .18330384 .40098573 .22131348L.43699647 .36135865C.44400025 .38935853 .44400025 .39135743 .44400025 .39537049 .44400025 .41236878 .43199159 .42237855 .4149933 .42237855 .3909912 .42237855 .37599183 .4003601 .37298585 .37835694M.30799867 .119277957C.30299378 .10127258 .30299378 .09927368 .28799439 .08227539 .24398804 .027252198 .20298767 .011245728 .1749878 .011245728 .125 .011245728 .11099243 .06626892 .11099243 .105285648 .11099243 .1552887 .14299011 .27833558 .1659851 .32434083 .19699097 .38336183 .24198914 .42037965 .28199769 .42037965 .34700013 .42037965 .36099244 .3383484 .36099244 .33235169 .36099244 .32633973 .35899354 .32034303 .35798646 .31533814L.30799867 .119277957Z"/>
<path id="font_1_3" d="M.23899842 .68333438C.23899842 .6843262 .23899842 .69433596 .22599793 .69433596 .20298767 .69433596 .12998963 .6863251 .10398865 .6843262 .09599304 .68333438 .084991458 .6823273 .084991458 .6643219 .084991458 .6523285 .09399414 .6523285 .10899353 .6523285 .15699768 .6523285 .15899658 .6453247 .15899658 .6353302 .15899658 .6283264 .1499939 .5943451 .14498902 .573349L.06298828 .24731446C.050994874 .1973114 .04699707 .18130493 .04699707 .14628601 .04699707 .05126953 .099990848-.0107421879 .17399597-.0107421879 .2919922-.0107421879 .4149933 .1382904 .4149933 .28233338 .4149933 .37335206 .3619995 .4423828 .28199769 .4423828 .23599243 .4423828 .19499207 .41337586 .16499329 .38235475L.23899842 .68333438M.14498902 .30534364C.15098572 .3273468 .15098572 .3293457 .1599884 .3403473 .20899964 .405365 .2539978 .42037965 .27999879 .42037965 .31599427 .42037965 .34298707 .3903656 .34298707 .32633973 .34298707 .26733399 .30999757 .15229798 .2919922 .11428833 .25898744 .04725647 .21299744 .011245728 .17399597 .011245728 .13999939 .011245728 .10699463 .038253786 .10699463 .11227417 .10699463 .13128662 .10699463 .15029907 .12298584 .21331787L.14498902 .30534364Z"/>
<path id="font_1_4" d="M.3959961 .37998963C.37998963 .37998963 .3659973 .37998963 .35198976 .36598207 .33599855 .35098268 .33399964 .33398438 .33399964 .3269806 .33399964 .30297853 .35198976 .2919922 .37098695 .2919922 .3999939 .2919922 .4269867 .315979 .4269867 .35598756 .4269867 .40522767 .37998963 .4423828 .30899049 .4423828 .17399597 .4423828 .040985109 .2989807 .040985109 .15811157 .040985109 .06819153 .09899902-.0107421879 .20298767-.0107421879 .34599305-.0107421879 .42999269 .09516907 .42999269 .107162479 .42999269 .11315918 .42399598 .120147708 .41799928 .120147708 .41299439 .120147708 .41099549 .1181488 .40499879 .1101532 .32598878 .011245728 .21699524 .011245728 .20498657 .011245728 .14199829 .011245728 .114990238 .06021118 .114990238 .120147708 .114990238 .1611023 .1349945 .25801087 .16899109 .31999208 .19999695 .37698365 .25498963 .42037965 .30999757 .42037965 .34399415 .42037965 .38198854 .40724183 .3959961 .37998963Z"/>
</defs>
<use data-text="x" xlink:href="#font_1_5" transform="matrix(9.9626,0,0,-9.9626,60.791017,56.863)"/>
<use data-text="1" xlink:href="#font_2_1" transform="matrix(6.9738,0,0,-6.9738,66.48401,58.358)"/>
<use data-text="x" xlink:href="#font_1_5" transform="matrix(9.9626,0,0,-9.9626,89.138,85.209)"/>
<use data-text="2" xlink:href="#font_2_2" transform="matrix(6.9738,0,0,-6.9738,94.83099,86.704)"/>
<use data-text="x" xlink:href="#font_1_5" transform="matrix(9.9626,0,0,-9.9626,110.39801,106.47)"/>
<use data-text="3" xlink:href="#font_2_3" transform="matrix(6.9738,0,0,-6.9738,116.091,107.965007)"/>
<use data-text="x" xlink:href="#font_1_5" transform="matrix(9.9626,0,0,-9.9626,152.91802,78.123)"/>
<use data-text="4" xlink:href="#font_2_4" transform="matrix(6.9738,0,0,-6.9738,158.61101,79.618007)"/>
<use data-text="x" xlink:href="#font_1_5" transform="matrix(9.9626,0,0,-9.9626,25.358002,78.123)"/>
<use data-text="5" xlink:href="#font_2_5" transform="matrix(6.9738,0,0,-6.9738,31.050995,79.618007)"/>
<use data-text="x" xlink:href="#font_1_5" transform="matrix(9.9626,0,0,-9.9626,53.70401,106.47)"/>
<use data-text="6" xlink:href="#font_2_6" transform="matrix(6.9738,0,0,-6.9738,59.397005,107.965007)"/>
<use data-text="x" xlink:href="#font_1_5" transform="matrix(9.9626,0,0,-9.9626,82.051029,148.98999)"/>
<use data-text="7" xlink:href="#font_2_7" transform="matrix(6.9738,0,0,-6.9738,87.74402,150.485)"/>
<use data-text="x" xlink:href="#font_1_5" transform="matrix(9.9626,0,0,-9.9626,25.358002,134.816)"/>
<use data-text="8" xlink:href="#font_2_8" transform="matrix(6.9738,0,0,-6.9738,31.050995,136.311)"/>
<use data-text="x" xlink:href="#font_1_5" transform="matrix(9.9626,0,0,-9.9626,152.91802,134.816)"/>
<use data-text="9" xlink:href="#font_2_9" transform="matrix(6.9738,0,0,-6.9738,158.61101,136.311)"/>
<use data-text="X" xlink:href="#font_1_1" transform="matrix(9.9626,0,0,-9.9626,90.836,9.7979969)"/>
<use data-text="&#x27f3;" xlink:href="#font_3_1" transform="matrix(6.9738,0,0,-6.9738,99.871,6.1829988)"/>
<use data-text="&#x03b1;" xlink:href="#font_4_1" transform="matrix(6.9738,0,0,-6.9738,106.09799,6.1829988)"/>
<path transform="matrix(1,0,0,-1,299.734,105.072)" stroke-width=".3985" stroke-linecap="butt" stroke-miterlimit="10" stroke-linejoin="miter" fill="none" stroke="#000000" d="M-99.21384 0C-99.21384 39.13927-143.63268 70.867-198.42766 70.867-253.22264 70.867-297.6415 39.13927-297.6415 0-297.6415-39.13927-253.22264-70.867-198.42766-70.867-143.63268-70.867-99.21384-39.13927-99.21384 0ZM-198.42766 0"/>
<path transform="matrix(1,0,0,-1,299.734,105.072)" stroke-width=".3985" stroke-linecap="butt" stroke-miterlimit="10" stroke-linejoin="miter" fill="none" stroke="#000000" d="M-242.46269 44.44621-258.9847 34.53104"/>
<path transform="matrix(-.85744,.51456,.51456,.85744,40.7493,70.54095)" d="M1.99252 0-1.19551 1.59401 0 0-1.19551-1.59401"/>
<path transform="matrix(1,0,0,-1,299.734,105.072)" stroke-width=".3985" stroke-linecap="butt" stroke-miterlimit="10" stroke-linejoin="miter" fill="none" stroke="#000000" d="M-262.884 21.93503-248.76763 7.82056"/>
<path transform="matrix(.70714,.70705,.70705,-.70714,50.96637,97.25143)" d="M1.99252 0-1.19551 1.59401 0 0-1.19551-1.59401"/>
<path transform="matrix(1,0,0,-1,299.734,105.072)" stroke-width=".3985" stroke-linecap="butt" stroke-miterlimit="10" stroke-linejoin="miter" fill="none" stroke="#000000" d="M-236.67362-6.41176-217.97919-34.45068"/>
<path transform="matrix(.5547,.83199,.83199,-.5547,81.75481,139.52268)" d="M1.99252 0-1.19551 1.59401 0 0-1.19551-1.59401"/>
<path transform="matrix(1,0,0,-1,299.734,105.072)" stroke-width=".3985" stroke-linecap="butt" stroke-miterlimit="10" stroke-linejoin="miter" fill="none" stroke="#000000" d="M-221.20258-40.3706-258.76017-30.97914"/>
<path transform="matrix(-.97012,-.24255,-.24255,.97012,40.973848,136.05117)" d="M1.99252 0-1.19551 1.59401 0 0-1.19551-1.59401"/>
<path transform="matrix(1,0,0,-1,299.734,105.072)" stroke-width=".3985" stroke-linecap="butt" stroke-miterlimit="10" stroke-linejoin="miter" fill="none" stroke="#000000" d="M-262.884-21.93503-248.76763-7.82056"/>
<path transform="matrix(.70714,-.70705,-.70705,-.70714,50.96637,112.89257)" d="M1.99252 0-1.19551 1.59401 0 0-1.19551-1.59401"/>
<path transform="matrix(1,0,0,-1,299.734,105.072)" stroke-width=".3985" stroke-linecap="butt" stroke-miterlimit="10" stroke-linejoin="miter" fill="none" stroke="#000000" d="M-214.11588 16.09941-230.6379 6.18423"/>
<path transform="matrix(-.85744,.51456,.51456,.85744,69.096118,98.88775)" d="M1.99252 0-1.19551 1.59401 0 0-1.19551-1.59401"/>
<path transform="matrix(1,0,0,-1,299.734,105.072)" stroke-width=".3985" stroke-linecap="butt" stroke-miterlimit="10" stroke-linejoin="miter" fill="none" stroke="#000000" d="M-188.52852-6.41176-207.22293-34.45068"/>
<path transform="matrix(-.5547,.83199,.83199,.5547,92.51109,139.52268)" d="M1.99252 0-1.19551 1.59401 0 0-1.19551-1.59401"/>
<path transform="matrix(1,0,0,-1,299.734,105.072)" stroke-width=".3985" stroke-linecap="butt" stroke-miterlimit="10" stroke-linejoin="miter" fill="none" stroke="#000000" d="M-145.4335 21.93503C-153.9875 7.11902-153.9875-7.11902-146.42974-20.20949"/>
<path transform="matrix(.49998,.86601,.86601,-.49998,153.30428,125.28147)" d="M1.99252 0-1.19551 1.59401 0 0-1.19551-1.59401"/>
<path transform="matrix(1,0,0,-1,299.734,105.072)" stroke-width=".3985" stroke-linecap="butt" stroke-miterlimit="10" stroke-linejoin="miter" fill="none" stroke="#000000" d="M-138.03458-21.93503C-129.48058-7.11902-129.48058 7.11902-137.03835 20.20949"/>
<path transform="matrix(-.49998,-.86601,-.86601,.49998,162.69567,84.862529)" d="M1.99252 0-1.19551 1.59401 0 0-1.19551-1.59401"/>
<path transform="matrix(1,0,0,-1,299.734,105.072)" stroke-width=".3985" stroke-linecap="butt" stroke-miterlimit="10" stroke-linejoin="miter" fill="none" stroke="#000000" d="M56.69362 0C56.69362 31.31142 31.31142 56.69362 0 56.69362-31.31142 56.69362-56.69362 31.31142-56.69362 0-56.69362-31.31142-31.31142-56.69362 0-56.69362 31.31142-56.69362 56.69362-31.31142 56.69362 0ZM0 0"/>
<use data-text="a" xlink:href="#font_1_2" transform="matrix(9.9626,0,0,-9.9626,325.448,107.216999)"/>
<use data-text="b" xlink:href="#font_1_3" transform="matrix(9.9626,0,0,-9.9626,283.423,83.981998)"/>
<use data-text="c" xlink:href="#font_1_4" transform="matrix(9.9626,0,0,-9.9626,283.405,131.76599)"/>
<path transform="matrix(1,0,0,-1,299.734,105.072)" stroke-width=".3985" stroke-linecap="butt" stroke-miterlimit="10" stroke-linejoin="miter" fill="none" stroke="#000000" d="M22.19388 3.55208-6.7902 20.28758"/>
<path transform="matrix(-.866,-.50003,-.50003,.866,292.94383,84.784427)" d="M1.99252 0-1.19551 1.59401 0 0-1.19551-1.59401"/>
<path transform="matrix(1,0,0,-1,299.734,105.072)" stroke-width=".3985" stroke-linecap="butt" stroke-miterlimit="10" stroke-linejoin="miter" fill="none" stroke="#000000" d="M-14.17339 17.56999V-16.892"/>
<path transform="matrix(0,1,1,0,285.5606,121.964)" d="M1.99252 0-1.19551 1.59401 0 0-1.19551-1.59401"/>
<path transform="matrix(1,0,0,-1,299.734,105.072)" stroke-width=".3985" stroke-linecap="butt" stroke-miterlimit="10" stroke-linejoin="miter" fill="none" stroke="#000000" d="M-8.49785-21.2728 20.46837-4.54735"/>
<path transform="matrix(.866,-.50003,-.50003,-.866,320.20237,109.61936)" d="M1.99252 0-1.19551 1.59401 0 0-1.19551-1.59401"/>
<path transform="matrix(1,0,0,-1,299.734,105.072)" stroke-width=".3985" stroke-linecap="butt" stroke-miterlimit="10" stroke-linejoin="miter" fill="none" stroke="#000000" d="M34.49973 1.64844C48.19019 5.31715 48.19019-5.31715 35.84695-2.00941"/>
<path transform="matrix(-.96591,-.25882,-.25882,.96591,335.38853,107.02986)" stroke-width=".3985" stroke-linecap="round" stroke-linejoin="round" fill="none" stroke="#000000" d="M-2.07224 2.39104C-1.69365 .95639-.84999 .27895 0 0-.84999-.27895-1.69365-.95639-2.07224-2.39104"/>
<path transform="matrix(1,0,0,-1,299.734,105.072)" stroke-width=".3985" stroke-linecap="butt" stroke-miterlimit="10" stroke-linejoin="miter" fill="none" stroke="#000000" d="M-8.51573 24.5491C6.5128 24.72151 17.41399 18.59344 24.06169 7.3785"/>
<path transform="matrix(.50987,.86018,.86018,-.50987,323.7957,97.6935)" d="M1.99252 0-1.19551 1.59401 0 0-1.19551-1.59401"/>
<path transform="matrix(1,0,0,-1,299.734,105.072)" stroke-width=".3985" stroke-linecap="butt" stroke-dasharray="2.98883,2.98883" stroke-miterlimit="10" stroke-linejoin="miter" fill="none" stroke="#ff0000" d="M-225.25965 53.33423C-151.03597 85.10387-84.45631 77.12694-21.42589 29.92664"/>
<path transform="matrix(.80042,.5994,.5994,-.80042,278.3081,75.14535)" d="M1.99252 0-1.19551 1.59401 0 0-1.19551-1.59401" fill="#ff0000"/>
<path transform="matrix(1,0,0,-1,299.734,105.072)" stroke-width=".3985" stroke-linecap="butt" stroke-dasharray="2.98883,2.98883" stroke-miterlimit="10" stroke-linejoin="miter" fill="none" stroke="#ff0000" d="M-260.69316 31.17914C-169.29695 61.08228-91.44408 44.69902-21.3323-18.17049"/>
<path transform="matrix(.74448,.66759,.66759,-.74448,278.4017,123.24247)" d="M1.99252 0-1.19551 1.59401 0 0-1.19551-1.59401" fill="#ff0000"/>
<path transform="matrix(1,0,0,-1,299.734,105.072)" stroke-width=".3985" stroke-linecap="butt" stroke-dasharray="2.98883,2.98883" stroke-miterlimit="10" stroke-linejoin="miter" fill="none" stroke="#ff0000" d="M-232.34635 4.94885C-145.77497 54.29337-63.82553 53.84059 20.47395 4.54579"/>
<path transform="matrix(.86319,.50476,.50476,-.86319,320.20796,100.5262)" d="M1.99252 0-1.19551 1.59401 0 0-1.19551-1.59401" fill="#ff0000"/>
<path transform="matrix(1,0,0,-1,299.734,105.072)" stroke-width=".3985" stroke-linecap="butt" stroke-dasharray="2.98883,2.98883" stroke-miterlimit="10" stroke-linejoin="miter" fill="none" stroke="#ff0000" d="M-206.96454-36.10843C-155.80437 21.25438-95.08885 41.30319-21.78189 26.08379"/>
<path transform="matrix(.97908,.20326,.20326,-.97908,277.95213,78.9882)" d="M1.99252 0-1.19551 1.59401 0 0-1.19551-1.59401" fill="#ff0000"/>
<path transform="matrix(1,0,0,-1,299.734,105.072)" stroke-width=".3985" stroke-linecap="butt" stroke-dasharray="2.98883,2.98883" stroke-miterlimit="10" stroke-linejoin="miter" fill="none" stroke="#ff0000" d="M-260.69316-23.20999C-179.39769 24.5465-101.85512 25.13055-21.58186-20.41174"/>
<path transform="matrix(.86972,.49342,.49342,-.86972,278.15217,125.483737)" d="M1.99252 0-1.19551 1.59401 0 0-1.19551-1.59401" fill="#ff0000"/>
<path transform="matrix(1,0,0,-1,299.734,105.072)" stroke-width=".3985" stroke-linecap="butt" stroke-dasharray="2.98883,2.98883" stroke-miterlimit="10" stroke-linejoin="miter" fill="none" stroke="#ff0000" d="M-196.91283 23.81248C-128.5321 43.88014-71.4185 30.01279-21.29071-17.79759"/>
<path transform="matrix(.7236,.69014,.69014,-.7236,278.44328,122.86958)" d="M1.99252 0-1.19551 1.59401 0 0-1.19551-1.59401" fill="#ff0000"/>
<path transform="matrix(1,0,0,-1,299.734,105.072)" stroke-width=".3985" stroke-linecap="butt" stroke-dasharray="2.98883,2.98883" stroke-miterlimit="10" stroke-linejoin="miter" fill="none" stroke="#ff0000" d="M-175.65274 4.95738C-108.30296 43.20438-44.60396 42.74911 20.47554 4.55463"/>
<path transform="matrix(.8624,.50613,.50613,-.8624,320.20954,100.51736)" d="M1.99252 0-1.19551 1.59401 0 0-1.19551-1.59401" fill="#ff0000"/>
<path transform="matrix(1,0,0,-1,299.734,105.072)" stroke-width=".3985" stroke-linecap="butt" stroke-dasharray="2.98883,2.98883" stroke-miterlimit="10" stroke-linejoin="miter" fill="none" stroke="#ff0000" d="M-133.13253 31.56621C-75.4327 52.9288-25.15666 44.34845 20.66057 6.33261"/>
<path transform="matrix(.76953,.63852,.63852,-.76953,320.3946,98.739368)" d="M1.99252 0-1.19551 1.59401 0 0-1.19551-1.59401" fill="#ff0000"/>
<path transform="matrix(1,0,0,-1,299.734,105.072)" stroke-width=".3985" stroke-linecap="butt" stroke-dasharray="2.98883,2.98883" stroke-miterlimit="10" stroke-linejoin="miter" fill="none" stroke="#ff0000" d="M-136.82466-21.93503C-106.48056 16.87625-68.61469 32.1633-21.80405 25.56827"/>
<path transform="matrix(.9902,.1395,.1395,-.9902,277.92997,79.50373)" d="M1.99252 0-1.19551 1.59401 0 0-1.19551-1.59401" fill="#ff0000"/>
</svg>
