<svg xmlns="http://www.w3.org/2000/svg" xmlns:xlink="http://www.w3.org/1999/xlink" xmlns:inkscape="http://www.inkscape.org/namespaces/inkscape" version="1.1" width="138" height="72" viewBox="0 0 138 72">
<defs>
<path id="font_1_1" d="M.1789856 .114868167C.13899231 .047973634 .099990848 .033981325 .055999757 .0309906 .04399109 .02999878 .034988405 .02999878 .034988405 .010986328 .034988405 .004989624 .039993287 0 .04798889 0 .07499695 0 .10598755 .0029907227 .13398743 .0029907227 .16699219 .0029907227 .20199585 0 .23399353 0 .23999024 0 .25299073 0 .25299073 .018997193 .25299073 .02999878 .24398804 .0309906 .23699951 .0309906 .21398926 .032989503 .18998719 .04096985 .18998719 .06593323 .18998719 .077926639 .19599915 .088897708 .20399475 .102890018L.27999879 .23068238H.5309906C.5329895 .2097168 .5469971 .07392883 .5469971 .063949588 .5469971 .033981325 .49499513 .0309906 .47499085 .0309906 .46099855 .0309906 .45098878 .0309906 .45098878 .010986328 .45098878 0 .46299745 0 .46499635 0 .5059967 0 .548996 .0029907227 .58999636 .0029907227 .61499026 .0029907227 .6779938 0 .7029877 0 .70899966 0 .72099307 0 .72099307 .019989014 .72099307 .0309906 .71099856 .0309906 .69799807 .0309906 .6359863 .0309906 .6359863 .037979127 .6329956 .06694031L.57199099 .691803C.56999209 .71180728 .56999209 .7158203 .5529938 .7158203 .5369873 .7158203 .5329895 .7088165 .5269928 .69880679L.1789856 .114868167M.29899598 .26168824 .49598695 .5917816 .5279999 .26168824H.29899598Z"/>
<path id="font_2_1" d="M.20599365 .11984253C.17098999 .06594849 .13899231 .039978029 .07998657 .035995485 .069992069 .034988405 .056991579 .034988405 .056991579 .01499939 .056991579 .0039978029 .06599426 0 .070999149 0 .09700012 0 .12998963 .0039978029 .15699768 .0039978029 .18899536 .0039978029 .22999573 0 .2599945 0 .2649994 0 .27999879 0 .27999879 .021987915 .27999879 .034988405 .2669983 .035995485 .2630005 .035995485 .25498963 .036987306 .21899414 .038986207 .21899414 .06594849 .21899414 .077926639 .22898865 .09489441 .23399353 .103881839L.31399537 .22766114H.59999087L.6239929 .061950685C.6199951 .051971437 .6139984 .035995485 .5549927 .035995485 .54299929 .035995485 .5289917 .035995485 .5289917 .01399231 .5289917 .009994507 .5319977 0 .54499819 0 .57398989 0 .644989 .0039978029 .673996 .0039978029 .69200137 .0039978029 .71499636 .0029907227 .73298647 .0029907227 .7509918 .0019989014 .7719879 0 .7899933 0 .8029938 0 .80999758 .0079956059 .80999758 .020996094 .80999758 .035995485 .7979889 .035995485 .7819977 .035995485 .723999 .035995485 .7220001 .04397583 .71899417 .06793213L.6309967 .6848755C.6279907 .70588687 .6259918 .7128906 .6069946 .7128906 .58799746 .7128906 .58200076 .70388796 .57299807 .6898804L.20599365 .11984253M.33799745 .26367188 .5479889 .5908356 .59498599 .26367188H.33799745Z"/>
<path id="font_2_2" d="M.18899536 .07797241C.18099976 .04399109 .1789856 .035995485 .100997928 .035995485 .08299255 .035995485 .070999149 .035995485 .070999149 .01399231 .070999149 0 .08299255 0 .100997928 0H.45799256C.6799927 0 .8929901 .20388794 .8929901 .42175294 .8929901 .5676575 .7919922 .6826172 .6289978 .6826172H.2649994C.24499512 .6826172 .23298645 .6826172 .23298645 .660614 .23298645 .64660647 .24398804 .64660647 .2659912 .64660647 .28199769 .64660647 .28599549 .64660647 .3039856 .64460757 .32398988 .64260867 .32598878 .64060977 .32598878 .63061526 .32598878 .62861636 .32598878 .6236267 .32199098 .6086426L.18899536 .07797241M.41299439 .6126251C.42099 .6436157 .42199708 .64660647 .46398927 .64660647H.59199526C.70399478 .64660647 .7979889 .59065249 .7979889 .45472718 .7979889 .43174745 .7879944 .2588501 .6879883 .14492798 .6489868 .09994507 .5629883 .035995485 .43998719 .035995485H.3039856C.272995 .035995485 .27198792 .036987306 .27198792 .04598999 .27198792 .04698181 .27198792 .051986696 .27598573 .066970828L.41299439 .6126251Z"/>
<path id="font_1_2" d="M.4850006 .41075135 .40098573 .6096344C.397995 .61763 .3959961 .6216278 .3959961 .6226196 .3959961 .62861636 .41299439 .6476135 .45498658 .6516113 .46499635 .65260317 .47499085 .6536102 .47499085 .6706085 .47499085 .6826172 .46299745 .6826172 .45999146 .6826172 .4189911 .6826172 .37599183 .6796112 .33399964 .6796112 .30899049 .6796112 .24699402 .6826172 .22200012 .6826172 .21598816 .6826172 .20399475 .6826172 .20399475 .6626129 .20399475 .6516113 .21398926 .6516113 .22698975 .6516113 .2869873 .6516113 .29299928 .6416168 .3019867 .6196289L.41999818 .34080506 .20899964 .11393738 .19599915 .10295105C.14698792 .049987794 .099990848 .033996583 .04899597 .0309906 .035995485 .02999878 .026992798 .02999878 .026992798 .010986328 .026992798 .009994507 .026992798 0 .039993287 0 .069992069 0 .102996829 .0029907227 .13398743 .0029907227 .17098999 .0029907227 .20999146 0 .24598694 0 .2519989 0 .2639923 0 .2639923 .019989014 .2639923 .02999878 .2539978 .0309906 .2519989 .0309906 .24299622 .03199768 .21199036 .033996583 .21199036 .061965944 .21199036 .07795715 .22698975 .093948367 .23899842 .10694885L.34098817 .21487427 .43099977 .31282044 .5319977 .07395935C.5359955 .06297302 .5369873 .061965944 .5369873 .05996704 .5369873 .051986696 .5179901 .034988405 .47898866 .0309906 .46798707 .02999878 .45899964 .0289917 .45899964 .011993408 .45899964 0 .46998597 0 .47399903 0 .5019989 0 .57199099 .0029907227 .59999087 .0029907227 .625 .0029907227 .6859894 0 .71099856 0 .71798709 0 .7299957 0 .7299957 .018997193 .7299957 .0309906 .7200012 .0309906 .71199038 .0309906 .644989 .03199768 .6429901 .034988405 .6259918 .07496643 .58699038 .16790772 .519989 .32380677 .49699403 .3837738 .5649872 .45373536 .66999819 .5726471 .70199587 .6006317 .73098757 .62461856 .7689972 .64860537 .82899478 .6516113 .84199526 .65260317 .8509979 .65260317 .8509979 .6716156 .8509979 .6726074 .8509979 .6826172 .83799746 .6826172 .80799868 .6826172 .7749939 .6796112 .74398806 .6796112 .70700076 .6796112 .6689911 .6826172 .6329956 .6826172 .6269989 .6826172 .6139984 .6826172 .6139984 .6626129 .6139984 .65560916 .61898806 .65260317 .6259918 .6516113 .6349945 .65060427 .66600039 .64860537 .66600039 .6206207 .66600039 .6066284 .6549988 .5936432 .6469879 .5846405L.4850006 .41075135Z"/>
<path id="font_1_5" d="M.20599365 .3996582H.2999878C.31999208 .3996582 .32998658 .3996582 .32998658 .41966249 .32998658 .43066407 .31999208 .43066407 .3019867 .43066407H.21398926C.25 .5724945 .25498963 .59246829 .25498963 .59846499 .25498963 .61546328 .24299622 .62545779 .22599793 .62545779 .22299195 .62545779 .19499207 .62446597 .18598938 .58947756L.14698792 .43066407H.052993776C.032989503 .43066407 .022994996 .43066407 .022994996 .4116516 .022994996 .3996582 .0309906 .3996582 .050994874 .3996582H.13899231C.066986087 .11608887 .06298828 .099121097 .06298828 .08114624 .06298828 .02722168 .100997928-.0107421879 .15499878-.0107421879 .25698854-.0107421879 .31399537 .13505554 .31399537 .14305115 .31399537 .1530304 .30599977 .1530304 .3019867 .1530304 .29299928 .1530304 .2919922 .15003968 .2869873 .13905335 .24398804 .035217287 .19099427 .011245728 .15699768 .011245728 .13598633 .011245728 .12599182 .024230957 .12599182 .057174684 .12599182 .08114624 .12799073 .088134769 .13198853 .10510254L.20599365 .3996582Z"/>
<path id="font_2_3" d="M.55599978 .3817749 .651001 .4767151C.7789917 .6026459 .81799319 .6416168 .9079895 .64660647 .92099 .6476135 .93299868 .6476135 .93299868 .66760256 .93299868 .6796112 .9219971 .6826172 .9189911 .6826172 .8899994 .6826172 .8549957 .6786041 .82499697 .6786041 .798996 .6786041 .7350006 .6826172 .70899966 .6826172 .70098879 .6826172 .68899539 .6796112 .68899539 .660614 .68899539 .65960696 .68899539 .6476135 .70399478 .64660647 .71299746 .6456146 .73799136 .6436157 .73799136 .6216278 .73799136 .6066437 .72299197 .59065249 .71299746 .58065798 .7049866 .5736542 .5779877 .44973756 .54100039 .41175843L.43998719 .6076355C.43798829 .6106262 .43499757 .61763 .43499757 .6216278 .43499757 .62861636 .45399476 .64460757 .48799134 .64660647 .49499513 .64660647 .5089874 .6476135 .5089874 .6686096 .5089874 .6696167 .5079956 .6826172 .49198915 .6826172 .47099305 .6826172 .44599916 .6796112 .4249878 .6796112 .4039917 .6796112 .3809967 .6786041 .3600006 .6786041 .34298707 .6786041 .31900025 .6786041 .30099488 .6796112 .28399659 .680603 .2630005 .6826172 .24699402 .6826172 .24198914 .6826172 .22599793 .6826172 .22599793 .660614 .22599793 .64660647 .23899842 .64660647 .25498963 .64660647 .31298829 .64660647 .31799317 .63661196 .32798768 .6166229L.46798707 .34080506 .4119873 .28483583C.3929901 .2668457 .34599305 .22187805 .32798768 .20288086 .20599365 .081970218 .16499329 .039993287 .07499695 .035995485 .06098938 .034988405 .049987794 .034988405 .049987794 .01399231 .049987794 .009994507 .052993776 0 .06399536 0 .09298706 0 .1269989 .0039978029 .15699768 .0039978029 .17399597 .0039978029 .19898987 .0039978029 .21598816 .0029907227 .23399353 .0019989014 .2559967 0 .272995 0 .27799989 0 .2939911 0 .2939911 .020996094 .2939911 .034988405 .28199769 .035995485 .27598573 .035995485 .2659912 .036987306 .24499512 .039993287 .24499512 .06097412 .24499512 .07696533 .2579956 .08996582 .27999879 .11193848L.48298646 .31082154 .60398867 .07397461C.60899356 .0639801 .6100006 .0619812 .6100006 .06097412 .6100006 .054977418 .59199526 .038986207 .5569916 .035995485 .5479889 .034988405 .5349884 .034988405 .5349884 .01399231 .5349884 .0129852299 .5359955 0 .5519867 0 .57299807 0 .59799197 .0029907227 .61898806 .0029907227 .6399994 .0029907227 .6629944 .0039978029 .6839905 .0039978029 .70098879 .0039978029 .72499087 .0039978029 .7429962 .0029907227 .7599945 .0019989014 .7809906 0 .7969971 0 .8019867 0 .81799319 0 .81799319 .021987915 .81799319 .035995485 .8049927 .035995485 .78900149 .035995485 .73098757 .035995485 .7259979 .04698181 .71699526 .0639801L.55599978 .3817749Z"/>
<path id="font_1_4" d="M.3909912 .37405396C.36299134 .37304688 .34298707 .3510437 .34298707 .32904054 .34298707 .31503297 .35198976 .30003358 .37399293 .30003358 .3959961 .30003358 .41999818 .31703187 .41999818 .35603334 .41999818 .40124513 .3769989 .4423828 .30099488 .4423828 .16899109 .4423828 .13198853 .3400421 .13198853 .29605104 .13198853 .21820069 .20599365 .20323181 .23498535 .19725037 .2869873 .18727112 .33898927 .17628479 .33898927 .12133789 .33898927 .095336917 .31599427 .011245728 .19599915 .011245728 .18199158 .011245728 .10499573 .011245728 .08198547 .064331058 .11999512 .059326173 .14498902 .08934021 .14498902 .11734009 .14498902 .14033509 .1289978 .15234375 .10798645 .15234375 .08198547 .15234375 .051986696 .1313324 .051986696 .08633423 .051986696 .029281617 .10899353-.0107421879 .19499207-.0107421879 .35699464-.0107421879 .3959961 .1103363 .3959961 .15533448 .3959961 .19125366 .3769989 .21620178 .36499024 .22817993 .33799745 .25613404 .30899049 .26112367 .2649994 .27009584 .22898865 .27807618 .18899536 .2850647 .18899536 .33003236 .18899536 .3590393 .21299744 .42037965 .30099488 .42037965 .32598878 .42037965 .37599183 .41333009 .3909912 .37405396Z"/>
<path id="font_1_3" d="M.47099305 .3773346C.47200013 .3833313 .47399903 .38833619 .47399903 .39535523 .47399903 .41236878 .46199037 .42237855 .44499208 .42237855 .43499757 .42237855 .4079895 .41537477 .4039917 .3793335 .38598634 .41636659 .35099793 .4423828 .31098939 .4423828 .19699097 .4423828 .07299805 .30226136 .07299805 .15812683 .07299805 .059020997 .13398743 0 .20599365 0 .2649994 0 .31199647 .04701233 .32199098 .058029176L.32299806 .057022096C.3019867-.031982423 .2899933-.07295227 .2899933-.07495117 .28599549-.08395386 .2519989-.18309021 .1459961-.18309021 .1269989-.18309021 .09399414-.18206787 .06599426-.17297364 .09599304-.16394043 .10699463-.13793946 .10699463-.12094116 .10699463-.10494995 .09599304-.0859375 .068984989-.0859375 .04699707-.0859375 .01499939-.10394287 .01499939-.14395142 .01499939-.18508911 .051986696-.20507813 .147995-.20507813 .272995-.20507813 .34498597-.12693787 .3600006-.06695557L.47099305 .3773346M.34098817 .12809754C.33499146 .10206604 .31199647 .077041629 .2899933 .058029176 .2689972 .040008546 .23799134 .021987915 .20899964 .021987915 .15899658 .021987915 .14399719 .074035648 .14399719 .11407471 .14399719 .16212464 .17298889 .28024293 .19999695 .33128358 .22698975 .38034059 .269989 .42037965 .31199647 .42037965 .37799073 .42037965 .3919983 .33929444 .3919983 .33428956 .3919983 .32928468 .3899994 .3232727 .3889923 .3192749L.34098817 .12809754Z"/>
<path id="font_3_1" d="M.2899933 .4720459C.2979889 .4890442 .29899598 .49705506 .29899598 .5040436 .29899598 .53504946 .2709961 .5590515 .23999024 .5590515 .20199585 .5590515 .18998719 .52804568 .18499756 .51205447L.052993776 .07901001C.051986696 .07701111 .04798889 .06401062 .04798889 .06300354 .04798889 .05101013 .07899475 .041015626 .08699036 .041015626 .09399414 .041015626 .09498596 .043014528 .101989749 .058013917L.2899933 .4720459Z"/>
</defs>
<use data-text="A" xlink:href="#font_1_1" transform="matrix(9.962799,0,0,-9.9626,19.602097,17.336003)"/>
<use data-text="A" xlink:href="#font_2_1" transform="matrix(6.97394,0,0,-6.9738,27.07425,18.831002)"/>
<use data-text="A" xlink:href="#font_1_1" transform="matrix(9.962799,0,0,-9.9626,19.234093,59.856004)"/>
<use data-text="D" xlink:href="#font_2_2" transform="matrix(6.97394,0,0,-6.9738,26.706246,61.350999)"/>
<use data-text="X" xlink:href="#font_1_2" transform="matrix(9.962799,0,0,-9.9626,104.25379,17.336003)"/>
<use data-text="A" xlink:href="#font_2_1" transform="matrix(6.97394,0,0,-6.9738,112.50696,18.831002)"/>
<use data-text="X" xlink:href="#font_1_2" transform="matrix(9.962799,0,0,-9.9626,103.88479,59.856004)"/>
<use data-text="D" xlink:href="#font_2_2" transform="matrix(6.97394,0,0,-6.9738,112.137958,61.350999)"/>
<path transform="matrix(1.00002,0,0,-1,26.583237,57.199)" stroke-width=".3985" stroke-linecap="butt" stroke-miterlimit="10" stroke-linejoin="miter" fill="none" stroke="#000000" d="M10.50194 34.85347 10.84354 9.66415"/>
<path transform="matrix(.013570272,.99988,.99990007,-.01357,37.426977,47.53485)" d="M1.99252 0-1.19551 1.59401 0 0-1.19551-1.59401"/>
<use data-text="t" xlink:href="#font_1_5" transform="matrix(9.962799,0,0,-9.9626,40.78952,38.253004)"/>
<use data-text="A" xlink:href="#font_2_1" transform="matrix(6.97394,0,0,-6.9738,44.38659,39.748)"/>
<path transform="matrix(1.00002,0,0,-1,26.583237,57.199)" stroke-width=".3985" stroke-linecap="butt" stroke-miterlimit="10" stroke-linejoin="miter" fill="none" stroke="#000000" d="M95.94371 34.85347 96.28528 9.66415"/>
<path transform="matrix(.013570272,.99988,.99990007,-.01357,122.87043,47.53485)" d="M1.99252 0-1.19551 1.59401 0 0-1.19551-1.59401"/>
<use data-text="t" xlink:href="#font_1_5" transform="matrix(9.962799,0,0,-9.9626,126.23324,38.253004)"/>
<use data-text="X" xlink:href="#font_2_3" transform="matrix(6.97394,0,0,-6.9738,129.8303,39.748)"/>
<path transform="matrix(1.00002,0,0,-1,26.583237,57.199)" stroke-width=".3985" stroke-linecap="butt" stroke-miterlimit="10" stroke-linejoin="miter" fill="none" stroke="#000000" d="M-10.50194 34.85347-10.84354 9.66415"/>
<path transform="matrix(-.013570272,.99988,.99990007,.01357,15.739499,47.53485)" d="M1.99252 0-1.19551 1.59401 0 0-1.19551-1.59401"/>
<use data-text="s" xlink:href="#font_1_4" transform="matrix(9.962799,0,0,-9.9626,1.2167282,37.334)"/>
<use data-text="A" xlink:href="#font_2_1" transform="matrix(6.97394,0,0,-6.9738,5.886818,38.829004)"/>
<path transform="matrix(1.00002,0,0,-1,26.583237,57.199)" stroke-width=".3985" stroke-linecap="butt" stroke-miterlimit="10" stroke-linejoin="miter" fill="none" stroke="#000000" d="M74.15785 34.85347 73.81628 9.66415"/>
<path transform="matrix(-.013570272,.99988,.99990007,.01357,100.40102,47.53485)" d="M1.99252 0-1.19551 1.59401 0 0-1.19551-1.59401"/>
<use data-text="s" xlink:href="#font_1_4" transform="matrix(9.962799,0,0,-9.9626,84.7944,37.334)"/>
<use data-text="X" xlink:href="#font_2_3" transform="matrix(6.97394,0,0,-6.9738,89.46449,38.829004)"/>
<path transform="matrix(1.00002,0,0,-1,26.583237,57.199)" stroke-width=".3985" stroke-linecap="butt" stroke-miterlimit="10" stroke-linejoin="miter" fill="none" stroke="#000000" d="M10.50194 42.52602 72.16533 42.52585"/>
<path transform="matrix(1.00002,0,0,-1,98.75001,14.673153)" d="M1.99252 0-1.19551 1.59401 0 0-1.19551-1.59401"/>
<use data-text="g" xlink:href="#font_1_3" transform="matrix(9.962799,0,0,-9.9626,63.292974,8.409)"/>
<use data-text="&#x2032;" xlink:href="#font_3_1" transform="matrix(6.97394,0,0,-6.9738,68.40207,4.7939989)"/>
<use data-text="A" xlink:href="#font_2_1" transform="matrix(6.97394,0,0,-6.9738,68.04407,11.153999)"/>
<path transform="matrix(1.00002,0,0,-1,26.583237,57.199)" stroke-width=".3985" stroke-linecap="butt" stroke-miterlimit="10" stroke-linejoin="miter" fill="none" stroke="#000000" d="M10.87054 0H71.79675"/>
<path transform="matrix(1.00002,0,0,-1,98.381427,57.199)" d="M1.99252 0-1.19551 1.59401 0 0-1.19551-1.59401"/>
<use data-text="g" xlink:href="#font_1_3" transform="matrix(9.962799,0,0,-9.9626,62.924966,68.209)"/>
<use data-text="&#x2032;" xlink:href="#font_3_1" transform="matrix(6.97394,0,0,-6.9738,68.034069,64.594)"/>
<use data-text="D" xlink:href="#font_2_2" transform="matrix(6.97394,0,0,-6.9738,67.676059,70.954)"/>
</svg>
