<svg xmlns="http://www.w3.org/2000/svg" xmlns:xlink="http://www.w3.org/1999/xlink" version="1.1" width="287" height="149" viewBox="0 0 287 149">
<defs>
<path id="font_1_1" d="M.44400025 .24998474C.44400025 .35688783 .35499574 .44381715 .25 .44381715 .14199829 .44381715 .054992677 .35488893 .054992677 .24998474 .054992677 .14407349 .14199829 .056137086 .25 .056137086 .35499574 .056137086 .44400025 .14308167 .44400025 .24998474Z"/>
</defs>
<path transform="matrix(1.00008,0,0,-1.00002,30.444916,30.086403)" stroke-width=".3985" stroke-linecap="butt" stroke-miterlimit="10" stroke-linejoin="miter" fill="none" stroke="#000000" d="M-28.3468-28.3468V28.3468H85.04042V-28.3468ZM85.04042 28.3468"/>
<path transform="matrix(1.00008,0,0,-1.00002,30.444916,30.086403)" stroke-width=".3985" stroke-linecap="butt" stroke-miterlimit="10" stroke-linejoin="miter" fill="none" stroke="#000000" d="M141.73404-28.3468V28.3468H255.12128V-28.3468ZM255.12128 28.3468"/>
<use data-text="&#x2022;" xlink:href="#font_1_1" transform="matrix(9.963397,0,0,-9.962799,27.95372,32.300447)"/>
<use data-text="&#x2022;" xlink:href="#font_1_1" transform="matrix(9.963397,0,0,-9.962799,56.302988,32.300447)"/>
<use data-text="&#x2022;" xlink:href="#font_1_1" transform="matrix(9.963397,0,0,-9.962799,84.65225,32.300447)"/>
<use data-text="&#x2022;" xlink:href="#font_1_1" transform="matrix(9.963397,0,0,-9.962799,198.04833,32.300447)"/>
<use data-text="&#x2022;" xlink:href="#font_1_1" transform="matrix(9.963397,0,0,-9.962799,226.39759,32.300447)"/>
<use data-text="&#x2022;" xlink:href="#font_1_1" transform="matrix(9.963397,0,0,-9.962799,254.74686,32.300447)"/>
<path transform="matrix(1.00008,0,0,-1.00002,30.444916,30.086403)" stroke-width=".3985" stroke-linecap="butt" stroke-miterlimit="10" stroke-linejoin="miter" fill="none" stroke="#000000" d="M-28.3468-113.38724V-56.69362H85.04042V-113.38724ZM85.04042-56.69362"/>
<path transform="matrix(1.00008,0,0,-1.00002,30.444916,30.086403)" stroke-width=".3985" stroke-linecap="butt" stroke-miterlimit="10" stroke-linejoin="miter" fill="none" stroke="#000000" d="M141.73404-113.38724V-56.69362H255.12128V-113.38724ZM255.12128-56.69362"/>
<use data-text="&#x2022;" xlink:href="#font_1_1" transform="matrix(9.963397,0,0,-9.962799,27.95372,117.34215)"/>
<use data-text="&#x2022;" xlink:href="#font_1_1" transform="matrix(9.963397,0,0,-9.962799,56.302988,117.34215)"/>
<use data-text="&#x2022;" xlink:href="#font_1_1" transform="matrix(9.963397,0,0,-9.962799,84.65225,117.34215)"/>
<use data-text="&#x2022;" xlink:href="#font_1_1" transform="matrix(9.963397,0,0,-9.962799,198.04833,117.34215)"/>
<use data-text="&#x2022;" xlink:href="#font_1_1" transform="matrix(9.963397,0,0,-9.962799,226.39759,117.34215)"/>
<use data-text="&#x2022;" xlink:href="#font_1_1" transform="matrix(9.963397,0,0,-9.962799,254.74686,117.34215)"/>
<path transform="matrix(1.00008,0,0,-1.00002,30.444916,30.086403)" stroke-width=".3985" stroke-linecap="butt" stroke-miterlimit="10" stroke-linejoin="miter" fill="none" stroke="#000000" d="M6.0105 0H20.34377"/>
<path transform="matrix(1.00008,0,0,-1.00002,50.790315,30.086403)" d="M1.99252 0-1.19551 1.59401 0 0-1.19551-1.59401"/>
<path transform="matrix(1.00008,0,0,-1.00002,30.444916,30.086403)" stroke-width=".3985" stroke-linecap="butt" stroke-miterlimit="10" stroke-linejoin="miter" fill="none" stroke="#000000" d="M34.35732 0H48.69058"/>
<path transform="matrix(1.00008,0,0,-1.00002,79.13939,30.086403)" d="M1.99252 0-1.19551 1.59401 0 0-1.19551-1.59401"/>
<path transform="matrix(1.00008,0,0,-1.00002,30.444916,30.086403)" stroke-width=".3985" stroke-linecap="butt" stroke-miterlimit="10" stroke-linejoin="miter" fill="none" stroke="#000000" d="M176.09137 3.46922C181.60498 6.6525 186.90354 6.6525 190.6916 4.46545"/>
<path transform="matrix(.8660793,.49999003,.50001999,-.86602738,221.15177,25.620863)" d="M1.99252 0-1.19551 1.59401 0 0-1.19551-1.59401"/>
<path transform="matrix(1.00008,0,0,-1.00002,30.444916,30.086403)" stroke-width=".3985" stroke-linecap="butt" stroke-miterlimit="10" stroke-linejoin="miter" fill="none" stroke="#000000" d="M192.41715-3.46922C186.90354-6.6525 181.60498-6.6525 177.81691-4.46545"/>
<path transform="matrix(-.8660793,-.49999003,-.50001999,.86602738,208.27606,34.55194)" d="M1.99252 0-1.19551 1.59401 0 0-1.19551-1.59401"/>
<path transform="matrix(1.00008,0,0,-1.00002,30.444916,30.086403)" stroke-width=".3985" stroke-linecap="butt" stroke-miterlimit="10" stroke-linejoin="miter" fill="none" stroke="#000000" d="M6.0105-85.04042H20.34377"/>
<path transform="matrix(1.00008,0,0,-1.00002,50.790315,115.128528)" d="M1.99252 0-1.19551 1.59401 0 0-1.19551-1.59401"/>
<path transform="matrix(1.00008,0,0,-1.00002,30.444916,30.086403)" stroke-width=".3985" stroke-linecap="butt" stroke-miterlimit="10" stroke-linejoin="miter" fill="none" stroke="#000000" d="M34.35732-85.04042H48.69058"/>
<path transform="matrix(1.00008,0,0,-1.00002,79.13939,115.128528)" d="M1.99252 0-1.19551 1.59401 0 0-1.19551-1.59401"/>
<path transform="matrix(1.00008,0,0,-1.00002,30.444916,30.086403)" stroke-width=".3985" stroke-linecap="butt" stroke-miterlimit="10" stroke-linejoin="miter" fill="none" stroke="#000000" d="M176.09137-81.5712C181.60498-78.38791 186.90354-78.38791 190.6916-80.57497"/>
<path transform="matrix(.8660793,.49999003,.50001999,-.86602738,221.15177,110.66299)" d="M1.99252 0-1.19551 1.59401 0 0-1.19551-1.59401"/>
<path transform="matrix(1.00008,0,0,-1.00002,30.444916,30.086403)" stroke-width=".3985" stroke-linecap="butt" stroke-miterlimit="10" stroke-linejoin="miter" fill="none" stroke="#000000" d="M192.41715-88.50964C186.90354-91.69293 181.60498-91.69293 177.81691-89.50587"/>
<path transform="matrix(-.8660793,-.49999003,-.50001999,.86602738,208.27606,119.59406)" d="M1.99252 0-1.19551 1.59401 0 0-1.19551-1.59401"/>
<path transform="matrix(1.00008,0,0,-1.00002,30.444916,30.086403)" stroke-width=".3985" stroke-linecap="butt" stroke-miterlimit="10" stroke-linejoin="miter" fill="none" stroke="#ff0000" d="M6.0105 3.46793C59.39134 34.28728 110.6895 34.28728 162.34479 4.46416"/>
<path transform="matrix(.8660793,.49999003,.50001999,-.86602738,192.80268,25.622155)" d="M1.99252 0-1.19551 1.59401 0 0-1.19551-1.59401" fill="#ff0000"/>
<path transform="matrix(1.00008,0,0,-1.00002,30.444916,30.086403)" stroke-width=".3985" stroke-linecap="butt" stroke-miterlimit="10" stroke-linejoin="miter" fill="none" stroke="#ff0000" d="M34.35732 3.46793C87.73814 34.28728 139.03632 34.28728 190.6916 4.46416"/>
<path transform="matrix(.8660793,.49999003,.50001999,-.86602738,221.15177,25.622155)" d="M1.99252 0-1.19551 1.59401 0 0-1.19551-1.59401" fill="#ff0000"/>
<path transform="matrix(1.00008,0,0,-1.00002,30.444916,30.086403)" stroke-width=".3985" stroke-linecap="butt" stroke-miterlimit="10" stroke-linejoin="miter" fill="none" stroke="#ff0000" d="M62.70413 3.46536C96.93813 23.23032 129.83634 23.23032 162.34479 4.4616"/>
<path transform="matrix(.8660793,.49999003,.50001999,-.86602738,192.80268,25.624714)" d="M1.99252 0-1.19551 1.59401 0 0-1.19551-1.59401" fill="#ff0000"/>
<path transform="matrix(1.00008,0,0,-1.00002,30.444916,30.086403)" stroke-width=".3985" stroke-linecap="butt" stroke-miterlimit="10" stroke-linejoin="miter" fill="none" stroke="#ff0000" d="M6.0105-81.579C68.9648-45.23242 129.46286-45.23242 190.6916-80.58276"/>
<path transform="matrix(.8660793,.49999003,.50001999,-.86602738,221.15177,110.670787)" d="M1.99252 0-1.19551 1.59401 0 0-1.19551-1.59401" fill="#ff0000"/>
<path transform="matrix(1.00008,0,0,-1.00002,30.444916,30.086403)" stroke-width=".3985" stroke-linecap="butt" stroke-miterlimit="10" stroke-linejoin="miter" fill="none" stroke="#ff0000" d="M34.35732-81.57632C78.16478-56.28415 120.26288-56.28415 162.34479-80.5801"/>
<path transform="matrix(.8660793,.49999003,.50001999,-.86602738,192.80268,110.66812)" d="M1.99252 0-1.19551 1.59401 0 0-1.19551-1.59401" fill="#ff0000"/>
<path transform="matrix(1.00008,0,0,-1.00002,30.444916,30.086403)" stroke-width=".3985" stroke-linecap="butt" stroke-miterlimit="10" stroke-linejoin="miter" fill="none" stroke="#ff0000" d="M62.70413-81.57632C106.5116-56.28415 148.60968-56.28415 190.6916-80.5801"/>
<path transform="matrix(.8660793,.49999003,.50001999,-.86602738,221.15177,110.66812)" d="M1.99252 0-1.19551 1.59401 0 0-1.19551-1.59401" fill="#ff0000"/>
<path transform="matrix(1.00008,0,0,-1.00002,30.444916,30.086403)" stroke-width=".3985" stroke-linecap="butt" stroke-dasharray=".3985,1.99255" stroke-miterlimit="10" stroke-linejoin="miter" fill="none" stroke="#ff0000" d="M17.6932-5.39073C74.02069-35.4124 126.57106-33.62894 179.04366-.91301"/>
<path transform="matrix(.84862789,-.5290606,-.5290923,-.84857699,209.5029,30.999442)" d="M1.99252 0-1.19551 1.59401 0 0-1.19551-1.59401" fill="#ff0000"/>
<path transform="matrix(1.00008,0,0,-1.00002,30.444916,30.086403)" stroke-width=".3985" stroke-linecap="butt" stroke-dasharray=".3985,1.99255" stroke-miterlimit="10" stroke-linejoin="miter" fill="none" stroke="#ff0000" d="M46.04002-5.74681C90.59804-33.94281 134.0369-35.7076 178.96993-12.14267"/>
<path transform="matrix(.8856308,-.4644093,-.46443714,-.88557776,209.42916,42.229318)" d="M1.99252 0-1.19551 1.59401 0 0-1.19551-1.59401" fill="#ff0000"/>
<path transform="matrix(1.00008,0,0,-1.00002,30.444916,30.086403)" stroke-width=".3985" stroke-linecap="butt" stroke-dasharray=".3985,1.99255" stroke-miterlimit="10" stroke-linejoin="miter" fill="none" stroke="#ff0000" d="M17.6932-90.75598C71.85657-124.52606 124.40694-126.3095 178.97609-97.22499"/>
<path transform="matrix(.88253059,-.47034944,-.47037763,-.8824777,209.43532,127.31334)" d="M1.99252 0-1.19551 1.59401 0 0-1.19551-1.59401" fill="#ff0000"/>
<path transform="matrix(1.00008,0,0,-1.00002,30.444916,30.086403)" stroke-width=".3985" stroke-linecap="butt" stroke-dasharray=".3985,1.99255" stroke-miterlimit="10" stroke-linejoin="miter" fill="none" stroke="#ff0000" d="M46.04002-90.40108C92.73753-114.89134 136.17639-113.12653 179.05077-85.99593"/>
<path transform="matrix(.8450576,-.5347107,-.5347428,-.84500697,209.51001,116.08407)" d="M1.99252 0-1.19551 1.59401 0 0-1.19551-1.59401" fill="#ff0000"/>
</svg>
