<svg xmlns="http://www.w3.org/2000/svg" xmlns:xlink="http://www.w3.org/1999/xlink" xmlns:inkscape="http://www.inkscape.org/namespaces/inkscape" version="1.1" width="123" height="91" viewBox="0 0 123 91">
<defs>
<path id="font_1_2" d="M.5970001 .5686493 .61099246 .5826416C.6409912 .6126251 .673996 .64660647 .74198916 .6516113 .7529907 .65260317 .7619934 .65260317 .7619934 .6706085 .7619934 .6786041 .7569885 .6826172 .7489929 .6826172 .72299197 .6826172 .69400027 .6796112 .6669922 .6796112 .6339874 .6796112 .598999 .6826172 .5669861 .6826172 .5609894 .6826172 .5479889 .6826172 .5479889 .66360476 .5479889 .65260317 .55799868 .6516113 .5629883 .6516113 .56999209 .6516113 .598999 .6496124 .598999 .62861636 .598999 .6116333 .57598879 .5856476 .57199099 .5806427L.33999635 .31381227 .22999573 .6106262C.22399903 .62461856 .22399903 .62661746 .22399903 .6276245 .22399903 .6516113 .272995 .6516113 .2829895 .6516113 .29699708 .6516113 .30699159 .6516113 .30699159 .6716156 .30699159 .6826172 .29499818 .6826172 .2919922 .6826172 .2639923 .6826172 .19400025 .6796112 .1659851 .6796112 .14099121 .6796112 .07899475 .6826172 .053985597 .6826172 .04798889 .6826172 .034988405 .6826172 .034988405 .6626129 .034988405 .6516113 .04499817 .6516113 .057998659 .6516113 .117996219 .6516113 .12199402 .64260867 .1309967 .61763L.2539978 .28883363C.25498963 .28582765 .2579956 .2748413 .2579956 .27183534 .2579956 .2688446 .21798706 .107940677 .21299744 .08995056 .19999695 .034988405 .19898987 .03199768 .11898804 .0309906 .099990848 .0309906 .09199524 .0309906 .09199524 .010986328 .09199524 0 .10398865 0 .10598755 0 .13398743 0 .20399475 .0029907227 .23199463 .0029907227 .2599945 .0029907227 .33198548 0 .3600006 0 .36698915 0 .3789978 0 .3789978 .019989014 .3789978 .0309906 .36999513 .0309906 .35099793 .0309906 .34899903 .0309906 .32998658 .0309906 .31298829 .032989503 .2919922 .034988405 .28599549 .036987306 .28599549 .048980714 .28599549 .05596924 .29499818 .09095764 .2999878 .11193848L.33499146 .2528534C.33999635 .27183534 .34098817 .2748413 .34899903 .28382875L.5970001 .5686493Z"/>
<path id="font_1_1" d="M.4269867 .6066284C.43399049 .63461306 .43798829 .64060977 .44999696 .6436157 .45899964 .6456146 .49198915 .6456146 .5130005 .6456146 .6139984 .6456146 .6589966 .6416168 .6589966 .56365969 .6589966 .54867556 .6549988 .50968936 .651001 .4837036 .6499939 .4797058 .647995 .4677124 .647995 .46472169 .647995 .45872499 .651001 .45173646 .6599884 .45173646 .67099 .45173646 .6729889 .45973207 .6749878 .4747162L.70199587 .64860537C.7029877 .65260317 .70399478 .6626129 .70399478 .66560366 .70399478 .6766052 .69400027 .6766052 .6769867 .6766052H.12199402C.09799194 .6766052 .09700012 .6756134 .08999634 .6566162L.02999878 .4807129C.0289917 .478714 .023986817 .46472169 .023986817 .46272279 .023986817 .45672608 .0289917 .45173646 .035995485 .45173646 .04598999 .45173646 .04699707 .45672608 .052993776 .4727173 .10699463 .6276245 .1329956 .6456146 .2809906 .6456146H.31999208C.34799195 .6456146 .34799195 .6416168 .34799195 .6336212 .34799195 .6276245 .34498597 .6156311 .34399415 .6126251L.20999146 .07896423C.20098877 .041992189 .19799805 .0309906 .09098816 .0309906 .054992677 .0309906 .04899597 .0309906 .04899597 .011993408 .04899597 0 .05999756 0 .06599426 0 .09298706 0 .12098694 .0019989014 .147995 .0019989014 .17599488 .0019989014 .20498657 .0029907227 .23298645 .0029907227 .26098634 .0029907227 .2889862 .0019989014 .31599427 .0019989014 .34498597 .0019989014 .375 0 .40299989 0 .41299439 0 .4249878 0 .4249878 .019989014 .4249878 .0309906 .4169922 .0309906 .3909912 .0309906 .3659973 .0309906 .35299684 .0309906 .32699586 .032989503 .2979889 .035995485 .2899933 .038986207 .2899933 .054977418 .2899933 .05596924 .2899933 .06097412 .2939911 .07595825L.4269867 .6066284Z"/>
<path id="font_2_1" d="M.3889923 .27801515 .18899536 .47720338C.1769867 .48919679 .1749878 .49121095 .16699219 .49121095 .15699768 .49121095 .14698792 .48220826 .14698792 .47120667 .14698792 .46420289 .14898682 .46218873 .1599884 .45118714L.3600006 .24998474 .1599884 .048797609C.14898682 .03779602 .14698792 .03578186 .14698792 .028778077 .14698792 .01777649 .15699768 .0087890629 .16699219 .0087890629 .1749878 .0087890629 .1769867 .010787964 .18899536 .022781373L.3880005 .2219696 .59498599 .014785767C.5970001 .0137786869 .60398867 .0087890629 .6100006 .0087890629 .621994 .0087890629 .6299896 .01777649 .6299896 .028778077 .6299896 .030776978 .6299896 .03479004 .6269989 .039794923 .6259918 .041793825 .46699525 .19894409 .4169922 .24998474L.59999087 .4331665C.6049957 .43917848 .6199951 .45217896 .625 .45819093 .6259918 .46018983 .6299896 .46420289 .6299896 .47120667 .6299896 .48220826 .621994 .49121095 .6100006 .49121095 .60198977 .49121095 .59799197 .48719789 .58699038 .4761963L.3889923 .27801515Z"/>
<path id="font_1_3" d="M.04499817-.122177127C.036987306-.15631104 .034988405-.16334534-.009002686-.16334534-.021011353-.16334534-.03201294-.16334534-.03201294-.18234253-.03201294-.19033814-.027008057-.19433594-.019012452-.19433594 .0079956059-.19433594 .036987306-.19134522 .06498718-.19134522 .09799194-.19134522 .13198853-.19433594 .1639862-.19433594 .16899109-.19433594 .18199158-.19433594 .18199158-.17434693 .18199158-.16334534 .17199707-.16334534 .1579895-.16334534 .10798645-.16334534 .10798645-.15631104 .10798645-.14727783 .10798645-.13523865 .1499939 .028259278 .15699768 .053268434 .16999817 .024261475 .19799805-.0107421879 .24899292-.0107421879 .36499024-.0107421879 .48999024 .13528443 .48999024 .28233338 .48999024 .37635804 .43299867 .4423828 .35699464 .4423828 .30699159 .4423828 .25898744 .40637208 .22599793 .36735536 .21598816 .42137147 .17298889 .4423828 .13598633 .4423828 .08999634 .4423828 .070999149 .4033661 .06199646 .38536073 .04399109 .35134889 .0309906 .29133607 .0309906 .28833009 .0309906 .27833558 .040985109 .27833558 .042999269 .27833558 .052993776 .27833558 .053985597 .2793274 .05999756 .30133058 .07699585 .37236024 .09700012 .42037965 .1329956 .42037965 .1499939 .42037965 .1639862 .41236878 .1639862 .37435914 .1639862 .35134889 .16099549 .3403473 .15699768 .323349L.04499817-.122177127M.22099304 .3123474C.22799683 .33935548 .25498963 .36735536 .272995 .38235475 .30799867 .41337586 .33699037 .42037965 .35398866 .42037965 .3939972 .42037965 .41799928 .38536073 .41799928 .32633973 .41799928 .26733399 .3849945 .15229798 .36698915 .11428833 .33299256 .044265748 .2849884 .011245728 .24798584 .011245728 .18199158 .011245728 .16899109 .0942688 .16899109 .10028076 .16899109 .10227966 .16899109 .104278568 .17199707 .11628723L.22099304 .3123474Z"/>
<path id="font_3_1" d="M.33499146 .63612368C.33499146 .6630554 .33299256 .6640625 .30499269 .6640625 .24099732 .6014404 .1499939 .6004486 .10899353 .6004486V.5644531C.1329956 .5644531 .19898987 .5644531 .2539978 .592453V.08203125C.2539978 .04899597 .2539978 .035995485 .1539917 .035995485H.115997318V0C.13398743 .0009918213 .25698854 .0039978029 .2939911 .0039978029 .32499696 .0039978029 .45098878 .0009918213 .47299195 0V.035995485H.43499757C.33499146 .035995485 .33499146 .04899597 .33499146 .08203125V.63612368Z"/>
<path id="font_3_2" d="M.5049896 .18203736H.47099305C.46798707 .16001892 .45799256 .100997928 .44499208 .09098816 .43699647 .084991458 .3600006 .084991458 .34599305 .084991458H.1619873C.2669983 .17803955 .3019867 .20603943 .3619995 .25306703 .43598939 .312088 .5049896 .374115 .5049896 .46914674 .5049896 .5900879 .39898683 .6640625 .2709961 .6640625 .14698792 .6640625 .06298828 .57710269 .06298828 .4851532 .06298828 .43414308 .10598755 .42915345 .115997318 .42915345 .13999939 .42915345 .16899109 .44615174 .16899109 .48214723 .16899109 .5001526 .1619873 .53515627 .10998535 .53515627 .14099121 .6060791 .20899964 .62805178 .2559967 .62805178 .35598756 .62805178 .4079895 .5501404 .4079895 .46914674 .4079895 .38212586 .34599305 .3130951 .31399537 .27708436L.07299805 .038986207C.06298828 .02999878 .06298828 .027999878 .06298828 0H.47499085L.5049896 .18203736Z"/>
<path id="font_4_1" d="M.2939911 .64004519C.2939911 .66400149 .2939911 .6660156 .2709961 .6660156 .20899964 .60227969 .12098694 .60227969 .08898926 .60227969V.57128909C.10899353 .57128909 .16799927 .57128909 .21998596 .5972748V.07902527C.21998596 .042999269 .21699524 .0309906 .1269989 .0309906H.09498596V0C.12998963 .0029907227 .21699524 .0029907227 .25698854 .0029907227 .29699708 .0029907227 .38398744 .0029907227 .4189911 0V.0309906H.3869934C.29699708 .0309906 .2939911 .041992189 .2939911 .07902527V.64004519Z"/>
<path id="font_5_1" d="M.6779938 .56266787C.69699099 .58265689 .71699526 .600647 .7389984 .6156311 .7799988 .6436157 .81700137 .6456146 .8299866 .64660647 .84098818 .6476135 .8529968 .6476135 .8529968 .6686096 .8529968 .6756134 .8470001 .6826172 .83898928 .6826172 .81399539 .6826172 .7839966 .6786041 .7579956 .6786041 .7259979 .6786041 .6839905 .6826172 .6539917 .6826172 .6489868 .6826172 .6339874 .6826172 .6339874 .660614 .6339874 .6476135 .6469879 .64660647 .6519928 .64660647 .68099978 .64460757 .68099978 .6336212 .68099978 .6276245 .68099978 .6186218 .6749878 .6106262 .66799929 .6016388 .6619873 .59265139 .6569977 .5856476 .651001 .5796509L.40098573 .31881715 .2689972 .6116333C.2619934 .6256256 .2619934 .6276245 .2619934 .62861636 .2619934 .64660647 .30999757 .64660647 .31599427 .64660647 .32899476 .64660647 .34199525 .64660647 .34199525 .6686096 .34199525 .6696167 .34199525 .6826172 .32598878 .6826172 .29599 .6826172 .22200012 .6786041 .19198609 .6786041 .16699219 .6786041 .102996829 .6826172 .07798767 .6826172 .069992069 .6826172 .057998659 .6796112 .057998659 .660614 .057998659 .64660647 .070999149 .64660647 .084991458 .64660647 .14299011 .64660647 .14698792 .637619 .15699768 .6156311L.31199647 .2738495 .2669983 .09095764C.2539978 .039993287 .25299073 .036987306 .1749878 .035995485 .1579895 .035995485 .14498902 .035995485 .14498902 .01499939 .14498902 .004989624 .1519928 0 .16099549 0 .17999268 0 .20298767 .0029907227 .22299195 .0029907227 .24198914 .0029907227 .2709961 .0039978029 .2889862 .0039978029 .30899049 .0039978029 .33198548 .0029907227 .35299684 .0029907227 .37399293 .0029907227 .39898683 0 .41999818 0 .42599488 0 .44198609 0 .44198609 .021987915 .44198609 .035995485 .42999269 .035995485 .4079895 .035995485 .3919983 .035995485 .3880005 .035995485 .36999513 .037994386 .35099793 .039993287 .34799195 .041992189 .34799195 .051986696 .34799195 .0579834 .3600006 .10594177 .36698915 .13293457 .375 .16491699 .3959961 .25186158 .397995 .25585938 .4019928 .2708435 .4019928 .2728424 .4119873 .2828369L.6779938 .56266787Z"/>
<path id="font_2_2" d="M.44400025 .24998474C.44400025 .357193 .35499574 .44429017 .25 .44429017 .14199829 .44429017 .054992677 .3551941 .054992677 .24998474 .054992677 .14378357 .14199829 .05569458 .25 .05569458 .35499574 .05569458 .44400025 .14279175 .44400025 .24998474M.25 .095703128C.16299439 .095703128 .09498596 .16583252 .09498596 .24998474 .09498596 .33415223 .1639862 .40429688 .25 .40429688 .33299256 .40429688 .4039917 .33615113 .4039917 .24998474 .4039917 .16383362 .33299256 .095703128 .25 .095703128Z"/>
</defs>
<use data-text="Y" xlink:href="#font_1_2" transform="matrix(9.963197,0,0,-9.962899,114.61197,21.614256)"/>
<use data-text="T" xlink:href="#font_1_1" transform="matrix(9.963197,0,0,-9.962899,115.007999,78.30996)"/>
<use data-text="Y" xlink:href="#font_1_2" transform="matrix(9.963197,0,0,-9.962899,48.222993,49.547098)"/>
<use data-text="&#x00d7;" xlink:href="#font_2_1" transform="matrix(9.963197,0,0,-9.962899,58.43461,49.547098)"/>
<use data-text="T" xlink:href="#font_1_1" transform="matrix(9.963197,0,0,-9.962899,68.3982,49.547098)"/>
<use data-text="Y" xlink:href="#font_1_2" transform="matrix(9.963197,0,0,-9.962899,1.2181702,49.96211)"/>
<path transform="matrix(1.00006,0,0,-1.00003,-23.131287,46.558008)" stroke-width=".3985" stroke-linecap="butt" stroke-miterlimit="10" stroke-linejoin="miter" fill="none" stroke="#000000" d="M89.88454 7.33885C100.68694 23.25102 115.03372 30.1967 132.2281 28.9426"/>
<path transform="matrix(.99736979,.07274219,.07274436,-.99733999,109.10475,17.614527)" d="M1.99252 0-1.19551 1.59401 0 0-1.19551-1.59401"/>
<use data-text="p" xlink:href="#font_1_3" transform="matrix(9.963197,0,0,-9.962899,89.30346,29.806504)"/>
<use data-text="1" xlink:href="#font_3_1" transform="matrix(6.9742186,0,0,-6.9740097,94.31576,31.301548)"/>
<path transform="matrix(1.00006,0,0,-1.00003,-23.131287,46.558008)" stroke-width=".3985" stroke-linecap="butt" stroke-miterlimit="10" stroke-linejoin="miter" fill="none" stroke="#000000" d="M89.88454-7.33885C100.84569-23.35045 115.26434-30.26071 132.6248-28.92653"/>
<path transform="matrix(.9970698,-.0766023,-.07660459,-.9970399,109.501468,75.48541)" d="M1.99252 0-1.19551 1.59401 0 0-1.19551-1.59401"/>
<use data-text="p" xlink:href="#font_1_3" transform="matrix(9.963197,0,0,-9.962899,89.49847,65.71958)"/>
<use data-text="2" xlink:href="#font_3_2" transform="matrix(6.9742186,0,0,-6.9740097,94.510768,67.21463)"/>
<path transform="matrix(1.00006,0,0,-1.00003,-23.131287,46.558008)" stroke-width=".3985" stroke-linecap="butt" stroke-miterlimit="10" stroke-linejoin="miter" fill="none" stroke="#000000" d="M35.5015 6.92375C64.35376 34.23712 96.13504 41.82736 132.3056 31.06552"/>
<path transform="matrix(.95847746,.28516857,.2851771,-.95844879,109.18225,15.491554)" d="M1.99252 0-1.19551 1.59401 0 0-1.19551-1.59401"/>
<use data-text="1" xlink:href="#font_4_1" transform="matrix(9.963197,0,0,-9.962899,42.871675,8.340858)"/>
<use data-text="Y" xlink:href="#font_5_1" transform="matrix(6.9742186,0,0,-6.9740097,47.852968,9.835903)"/>
<path transform="matrix(1.00006,0,0,-1.00003,-23.131287,46.558008)" stroke-width=".3985" stroke-linecap="butt" stroke-miterlimit="10" stroke-linejoin="miter" fill="none" stroke="#000000" d="M35.5015-6.92375C64.40845-34.17976 96.55345-41.79015 132.70282-30.95604"/>
<path transform="matrix(.95791748,-.2870686,-.28707723,-.9578888,109.57948,77.51498)" d="M1.99252 0-1.19551 1.59401 0 0-1.19551-1.59401"/>
<use data-text="p" xlink:href="#font_1_3" transform="matrix(9.963197,0,0,-9.962899,31.072964,87.65924)"/>
<use data-text="1" xlink:href="#font_3_1" transform="matrix(6.9742186,0,0,-6.9740097,36.085264,89.15428)"/>
<use data-text="&#x25e6;" xlink:href="#font_2_2" transform="matrix(9.963197,0,0,-9.962899,42.768659,87.65924)"/>
<use data-text="p" xlink:href="#font_1_3" transform="matrix(9.963197,0,0,-9.962899,49.96509,87.65924)"/>
<path transform="matrix(1.00006,0,0,-1.00003,-23.131287,46.558008)" stroke-width=".3985" stroke-linecap="butt" stroke-miterlimit="10" stroke-linejoin="miter" fill="none" stroke="#000000" d="M35.86557 0H65.83795"/>
<path transform="matrix(1.00006,0,0,-1.00003,42.71061,46.558008)" d="M1.99252 0-1.19551 1.59401 0 0-1.19551-1.59401"/>
<use data-text="p" xlink:href="#font_1_3" transform="matrix(9.963197,0,0,-9.962899,26.213673,41.10084)"/>
</svg>
