<svg xmlns="http://www.w3.org/2000/svg" xmlns:xlink="http://www.w3.org/1999/xlink" version="1.1" width="182" height="124" viewBox="0 0 182 124">
<defs>
<path id="font_1_3" d="M.4850006 .41075135 .40098573 .6096344C.397995 .61763 .3959961 .6216278 .3959961 .6226196 .3959961 .62861636 .41299439 .6476135 .45498658 .6516113 .46499635 .65260317 .47499085 .6536102 .47499085 .6706085 .47499085 .6826172 .46299745 .6826172 .45999146 .6826172 .4189911 .6826172 .37599183 .6796112 .33399964 .6796112 .30899049 .6796112 .24699402 .6826172 .22200012 .6826172 .21598816 .6826172 .20399475 .6826172 .20399475 .6626129 .20399475 .6516113 .21398926 .6516113 .22698975 .6516113 .2869873 .6516113 .29299928 .6416168 .3019867 .6196289L.41999818 .34080506 .20899964 .11393738 .19599915 .10295105C.14698792 .049987794 .099990848 .033996583 .04899597 .0309906 .035995485 .02999878 .026992798 .02999878 .026992798 .010986328 .026992798 .009994507 .026992798 0 .039993287 0 .069992069 0 .102996829 .0029907227 .13398743 .0029907227 .17098999 .0029907227 .20999146 0 .24598694 0 .2519989 0 .2639923 0 .2639923 .019989014 .2639923 .02999878 .2539978 .0309906 .2519989 .0309906 .24299622 .03199768 .21199036 .033996583 .21199036 .061965944 .21199036 .07795715 .22698975 .093948367 .23899842 .10694885L.34098817 .21487427 .43099977 .31282044 .5319977 .07395935C.5359955 .06297302 .5369873 .061965944 .5369873 .05996704 .5369873 .051986696 .5179901 .034988405 .47898866 .0309906 .46798707 .02999878 .45899964 .0289917 .45899964 .011993408 .45899964 0 .46998597 0 .47399903 0 .5019989 0 .57199099 .0029907227 .59999087 .0029907227 .625 .0029907227 .6859894 0 .71099856 0 .71798709 0 .7299957 0 .7299957 .018997193 .7299957 .0309906 .7200012 .0309906 .71199038 .0309906 .644989 .03199768 .6429901 .034988405 .6259918 .07496643 .58699038 .16790772 .519989 .32380677 .49699403 .3837738 .5649872 .45373536 .66999819 .5726471 .70199587 .6006317 .73098757 .62461856 .7689972 .64860537 .82899478 .6516113 .84199526 .65260317 .8509979 .65260317 .8509979 .6716156 .8509979 .6726074 .8509979 .6826172 .83799746 .6826172 .80799868 .6826172 .7749939 .6796112 .74398806 .6796112 .70700076 .6796112 .6689911 .6826172 .6329956 .6826172 .6269989 .6826172 .6139984 .6826172 .6139984 .6626129 .6139984 .65560916 .61898806 .65260317 .6259918 .6516113 .6349945 .65060427 .66600039 .64860537 .66600039 .6206207 .66600039 .6066284 .6549988 .5936432 .6469879 .5846405L.4850006 .41075135Z"/>
<path id="font_2_1" d="M.3889923 .27801515 .18899536 .47720338C.1769867 .48919679 .1749878 .49121095 .16699219 .49121095 .15699768 .49121095 .14698792 .48220826 .14698792 .47120667 .14698792 .46420289 .14898682 .46218873 .1599884 .45118714L.3600006 .24998474 .1599884 .048797609C.14898682 .03779602 .14698792 .03578186 .14698792 .028778077 .14698792 .01777649 .15699768 .0087890629 .16699219 .0087890629 .1749878 .0087890629 .1769867 .010787964 .18899536 .022781373L.3880005 .2219696 .59498599 .014785767C.5970001 .0137786869 .60398867 .0087890629 .6100006 .0087890629 .621994 .0087890629 .6299896 .01777649 .6299896 .028778077 .6299896 .030776978 .6299896 .03479004 .6269989 .039794923 .6259918 .041793825 .46699525 .19894409 .4169922 .24998474L.59999087 .4331665C.6049957 .43917848 .6199951 .45217896 .625 .45819093 .6259918 .46018983 .6299896 .46420289 .6299896 .47120667 .6299896 .48220826 .621994 .49121095 .6100006 .49121095 .60198977 .49121095 .59799197 .48719789 .58699038 .4761963L.3889923 .27801515Z"/>
<path id="font_1_2" d="M.1599884 .07795715C.1499939 .038986207 .147995 .0309906 .068984989 .0309906 .051986696 .0309906 .041992189 .0309906 .041992189 .010986328 .041992189 0 .050994874 0 .068984989 0H.42599488C.58399966 0 .70199587 .11791992 .70199587 .21585083 .70199587 .28778077 .6439972 .3457489 .5469971 .35673524 .651001 .37573243 .7559967 .44970704 .7559967 .5446625 .7559967 .6186218 .6899872 .6826172 .56999209 .6826172H.23399353C.21499634 .6826172 .20498657 .6826172 .20498657 .6626129 .20498657 .6516113 .21398926 .6516113 .23298645 .6516113 .23498535 .6516113 .2539978 .6516113 .2709961 .6496124 .2889862 .6476135 .2979889 .64660647 .2979889 .6336212 .2979889 .6296234 .29699708 .62661746 .2939911 .614624L.1599884 .07795715M.31098939 .36573792 .37298585 .6136322C.38198854 .64860537 .38398744 .6516113 .4269867 .6516113H.55599978C.6439972 .6516113 .6649933 .5926361 .6649933 .5486603 .6649933 .46069337 .57899478 .36573792 .45700074 .36573792H.31098939M.2659912 .0309906C.2519989 .0309906 .25 .0309906 .24398804 .03199768 .23399353 .032989503 .23098755 .033996583 .23098755 .04197693 .23098755 .04498291 .23098755 .04698181 .23599243 .064971927L.30499269 .34375H.49398805C.58999636 .34375 .60899356 .2698059 .60899356 .22683716 .60899356 .12791443 .519989 .0309906 .4019928 .0309906H.2659912Z"/>
<path id="font_3_1" d="M.33499146 .63612368C.33499146 .6630554 .33299256 .6640625 .30499269 .6640625 .24099732 .6014404 .1499939 .6004486 .10899353 .6004486V.5644531C.1329956 .5644531 .19898987 .5644531 .2539978 .592453V.08203125C.2539978 .04899597 .2539978 .035995485 .1539917 .035995485H.115997318V0C.13398743 .0009918213 .25698854 .0039978029 .2939911 .0039978029 .32499696 .0039978029 .45098878 .0009918213 .47299195 0V.035995485H.43499757C.33499146 .035995485 .33499146 .04899597 .33499146 .08203125V.63612368Z"/>
<path id="font_2_2" d="M.32798768 .71199038C.33299256 .72299197 .33299256 .72499087 .33299256 .7299957 .33299256 .7409973 .32398988 .75 .31298829 .75 .3039856 .75 .29699708 .7449951 .2899933 .72698977L.114990238 .2679901C.11299133 .2619934 .10998535 .2559967 .10998535 .25 .10998535 .24699402 .10998535 .24499512 .114990238 .23298645L.2899933-.22601319C.2939911-.23701477 .29899598-.25 .31298829-.25 .32398988-.25 .33299256-.24101258 .33299256-.23001099 .33299256-.227005 .33299256-.2250061 .32798768-.21400452L.15098572 .25 .32798768 .71199038Z"/>
<path id="font_4_1" d="M.2939911 .64004519C.2939911 .66400149 .2939911 .6660156 .2709961 .6660156 .20899964 .60227969 .12098694 .60227969 .08898926 .60227969V.57128909C.10899353 .57128909 .16799927 .57128909 .21998596 .5972748V.07902527C.21998596 .042999269 .21699524 .0309906 .1269989 .0309906H.09498596V0C.12998963 .0029907227 .21699524 .0029907227 .25698854 .0029907227 .29699708 .0029907227 .38398744 .0029907227 .4189911 0V.0309906H.3869934C.29699708 .0309906 .2939911 .041992189 .2939911 .07902527V.64004519Z"/>
<path id="font_5_2" d="M.55599978 .3817749 .651001 .4767151C.7789917 .6026459 .81799319 .6416168 .9079895 .64660647 .92099 .6476135 .93299868 .6476135 .93299868 .66760256 .93299868 .6796112 .9219971 .6826172 .9189911 .6826172 .8899994 .6826172 .8549957 .6786041 .82499697 .6786041 .798996 .6786041 .7350006 .6826172 .70899966 .6826172 .70098879 .6826172 .68899539 .6796112 .68899539 .660614 .68899539 .65960696 .68899539 .6476135 .70399478 .64660647 .71299746 .6456146 .73799136 .6436157 .73799136 .6216278 .73799136 .6066437 .72299197 .59065249 .71299746 .58065798 .7049866 .5736542 .5779877 .44973756 .54100039 .41175843L.43998719 .6076355C.43798829 .6106262 .43499757 .61763 .43499757 .6216278 .43499757 .62861636 .45399476 .64460757 .48799134 .64660647 .49499513 .64660647 .5089874 .6476135 .5089874 .6686096 .5089874 .6696167 .5079956 .6826172 .49198915 .6826172 .47099305 .6826172 .44599916 .6796112 .4249878 .6796112 .4039917 .6796112 .3809967 .6786041 .3600006 .6786041 .34298707 .6786041 .31900025 .6786041 .30099488 .6796112 .28399659 .680603 .2630005 .6826172 .24699402 .6826172 .24198914 .6826172 .22599793 .6826172 .22599793 .660614 .22599793 .64660647 .23899842 .64660647 .25498963 .64660647 .31298829 .64660647 .31799317 .63661196 .32798768 .6166229L.46798707 .34080506 .4119873 .28483583C.3929901 .2668457 .34599305 .22187805 .32798768 .20288086 .20599365 .081970218 .16499329 .039993287 .07499695 .035995485 .06098938 .034988405 .049987794 .034988405 .049987794 .01399231 .049987794 .009994507 .052993776 0 .06399536 0 .09298706 0 .1269989 .0039978029 .15699768 .0039978029 .17399597 .0039978029 .19898987 .0039978029 .21598816 .0029907227 .23399353 .0019989014 .2559967 0 .272995 0 .27799989 0 .2939911 0 .2939911 .020996094 .2939911 .034988405 .28199769 .035995485 .27598573 .035995485 .2659912 .036987306 .24499512 .039993287 .24499512 .06097412 .24499512 .07696533 .2579956 .08996582 .27999879 .11193848L.48298646 .31082154 .60398867 .07397461C.60899356 .0639801 .6100006 .0619812 .6100006 .06097412 .6100006 .054977418 .59199526 .038986207 .5569916 .035995485 .5479889 .034988405 .5349884 .034988405 .5349884 .01399231 .5349884 .0129852299 .5359955 0 .5519867 0 .57299807 0 .59799197 .0029907227 .61898806 .0029907227 .6399994 .0029907227 .6629944 .0039978029 .6839905 .0039978029 .70098879 .0039978029 .72499087 .0039978029 .7429962 .0029907227 .7599945 .0019989014 .7809906 0 .7969971 0 .8019867 0 .81799319 0 .81799319 .021987915 .81799319 .035995485 .8049927 .035995485 .78900149 .035995485 .73098757 .035995485 .7259979 .04698181 .71699526 .0639801L.55599978 .3817749Z"/>
<path id="font_1_1" d="M.20298767 .0009918213C.20298767 .066986087 .17799378 .10598755 .13899231 .10598755 .10598755 .10598755 .085998538 .08099365 .085998538 .052993776 .085998538 .025985718 .10598755 0 .13899231 0 .15098572 0 .1639862 .0039978029 .17399597 .0129852299 .1769867 .01499939 .17799378 .015991211 .1789856 .015991211 .17999268 .015991211 .18099976 .01499939 .18099976 .0009918213 .18099976-.07316589 .1459961-.13328552 .11299133-.16635132 .101989749-.17736817 .101989749-.17936707 .101989749-.18237305 .101989749-.18936157 .10699463-.19335938 .11199951-.19335938 .12298584-.19335938 .20298767-.116256717 .20298767 .0009918213Z"/>
<path id="font_1_4" d="M.36698915 .3996582H.45298768C.47299195 .3996582 .48298646 .3996582 .48298646 .41966249 .48298646 .43066407 .47299195 .43066407 .45599366 .43066407H.37298585L.3939972 .5449524C.397995 .5660095 .4119873 .6370239 .41799928 .6490326 .4269867 .66804507 .44400025 .68307498 .46499635 .68307498 .46899415 .68307498 .49499513 .68307498 .5139923 .66503909 .46998597 .661026 .45999146 .6260376 .45999146 .6110382 .45999146 .58802798 .47799684 .57603457 .49699403 .57603457 .522995 .57603457 .5519867 .5980377 .5519867 .6360321 .5519867 .6820679 .5059967 .7050781 .46499635 .7050781 .43099977 .7050781 .36799623 .68707278 .33799745 .58802798 .33198548 .56700137 .32899476 .5569763 .30499269 .43066407H.23599243C.21699524 .43066407 .20599365 .43066407 .20599365 .4116516 .20599365 .3996582 .21499634 .3996582 .23399353 .3996582H.2999878L.22499085 .0048828127C.20698548-.09207153 .18998719-.18309021 .13798523-.18309021 .13398743-.18309021 .10899353-.18309021 .08999634-.16506958 .13598633-.1620636 .14498902-.12606812 .14498902-.111068729 .14498902-.08807373 .1269989-.07606506 .10798645-.07606506 .08198547-.07606506 .052993776-.09806824 .052993776-.13606262 .052993776-.18109131 .09700012-.20507813 .13798523-.20507813 .19299317-.20507813 .23298645-.14607239 .25099183-.108062747 .2829895-.04508972 .30599977 .07583618 .30699159 .082839969L.36698915 .3996582Z"/>
<path id="font_2_3" d="M.272995 .23298645C.27799989 .24499512 .27799989 .24699402 .27799989 .25 .27799989 .25299073 .27799989 .25498963 .272995 .2669983L.09799194 .72698977C.09199524 .74398806 .085998538 .75 .07499695 .75 .06399536 .75 .054992677 .7409973 .054992677 .7299957 .054992677 .72698977 .054992677 .72499087 .05999756 .71398928L.23699951 .25 .05999756-.21200562C.054992677-.2230072 .054992677-.2250061 .054992677-.23001099 .054992677-.24101258 .06399536-.25 .07499695-.25 .08799744-.25 .09199524-.2400055 .09599304-.23001099L.272995 .23298645Z"/>
<path id="font_1_5" d="M.04499817-.122177127C.036987306-.15631104 .034988405-.16334534-.009002686-.16334534-.021011353-.16334534-.03201294-.16334534-.03201294-.18234253-.03201294-.19033814-.027008057-.19433594-.019012452-.19433594 .0079956059-.19433594 .036987306-.19134522 .06498718-.19134522 .09799194-.19134522 .13198853-.19433594 .1639862-.19433594 .16899109-.19433594 .18199158-.19433594 .18199158-.17434693 .18199158-.16334534 .17199707-.16334534 .1579895-.16334534 .10798645-.16334534 .10798645-.15631104 .10798645-.14727783 .10798645-.13523865 .1499939 .028259278 .15699768 .053268434 .16999817 .024261475 .19799805-.0107421879 .24899292-.0107421879 .36499024-.0107421879 .48999024 .13528443 .48999024 .28233338 .48999024 .37635804 .43299867 .4423828 .35699464 .4423828 .30699159 .4423828 .25898744 .40637208 .22599793 .36735536 .21598816 .42137147 .17298889 .4423828 .13598633 .4423828 .08999634 .4423828 .070999149 .4033661 .06199646 .38536073 .04399109 .35134889 .0309906 .29133607 .0309906 .28833009 .0309906 .27833558 .040985109 .27833558 .042999269 .27833558 .052993776 .27833558 .053985597 .2793274 .05999756 .30133058 .07699585 .37236024 .09700012 .42037965 .1329956 .42037965 .1499939 .42037965 .1639862 .41236878 .1639862 .37435914 .1639862 .35134889 .16099549 .3403473 .15699768 .323349L.04499817-.122177127M.22099304 .3123474C.22799683 .33935548 .25498963 .36735536 .272995 .38235475 .30799867 .41337586 .33699037 .42037965 .35398866 .42037965 .3939972 .42037965 .41799928 .38536073 .41799928 .32633973 .41799928 .26733399 .3849945 .15229798 .36698915 .11428833 .33299256 .044265748 .2849884 .011245728 .24798584 .011245728 .18199158 .011245728 .16899109 .0942688 .16899109 .10028076 .16899109 .10227966 .16899109 .104278568 .17199707 .11628723L.22099304 .3123474Z"/>
<path id="font_5_1" d="M.21099854 .015991211C.21099854-.03907776 .20098877-.10321045 .1329956-.16732788 .1289978-.17134094 .12599182-.17434693 .12599182-.17933655 .12599182-.18634033 .13398743-.19334412 .13999939-.19334412 .1539917-.19334412 .23899842-.113220218 .23899842 .005996704 .23899842 .067993167 .21499634 .114990238 .16899109 .114990238 .13598633 .114990238 .11199951 .08898926 .11199951 .057998659 .11199951 .025985718 .1349945 0 .16999817 0 .19400025 0 .20999146 .015991211 .21099854 .015991211Z"/>
<path id="font_3_2" d="M.5049896 .18203736H.47099305C.46798707 .16001892 .45799256 .100997928 .44499208 .09098816 .43699647 .084991458 .3600006 .084991458 .34599305 .084991458H.1619873C.2669983 .17803955 .3019867 .20603943 .3619995 .25306703 .43598939 .312088 .5049896 .374115 .5049896 .46914674 .5049896 .5900879 .39898683 .6640625 .2709961 .6640625 .14698792 .6640625 .06298828 .57710269 .06298828 .4851532 .06298828 .43414308 .10598755 .42915345 .115997318 .42915345 .13999939 .42915345 .16899109 .44615174 .16899109 .48214723 .16899109 .5001526 .1619873 .53515627 .10998535 .53515627 .14099121 .6060791 .20899964 .62805178 .2559967 .62805178 .35598756 .62805178 .4079895 .5501404 .4079895 .46914674 .4079895 .38212586 .34599305 .3130951 .31399537 .27708436L.07299805 .038986207C.06298828 .02999878 .06298828 .027999878 .06298828 0H.47499085L.5049896 .18203736Z"/>
</defs>
<use data-text="X" xlink:href="#font_1_3" transform="matrix(9.962799,0,0,-9.962799,1.2167282,65.344058)"/>
<use data-text="X" xlink:href="#font_1_3" transform="matrix(9.962799,0,0,-9.962799,74.15719,64.59704)"/>
<use data-text="&#x00d7;" xlink:href="#font_2_1" transform="matrix(9.962799,0,0,-9.962799,85.40642,64.59704)"/>
<use data-text="B" xlink:href="#font_1_2" transform="matrix(9.962799,0,0,-9.962799,95.36961,64.59704)"/>
<use data-text="1" xlink:href="#font_3_1" transform="matrix(6.97394,0,0,-6.97394,102.926769,66.092067)"/>
<use data-text="X" xlink:href="#font_1_3" transform="matrix(9.962799,0,0,-9.962799,171.30113,22.8232)"/>
<use data-text="B" xlink:href="#font_1_2" transform="matrix(9.962799,0,0,-9.962799,169.80609,107.11789)"/>
<use data-text="1" xlink:href="#font_3_1" transform="matrix(6.97394,0,0,-6.97394,177.36325,108.612918)"/>
<path transform="matrix(1.00002,0,0,-1.00002,5.7348177,61.939985)" stroke-width=".3985" stroke-linecap="butt" stroke-miterlimit="10" stroke-linejoin="miter" fill="none" stroke="#000000" d="M8.0386 0H62.9167"/>
<path transform="matrix(1.00002,0,0,-1.00002,68.65277,61.939985)" d="M1.99252 0-1.19551 1.59401 0 0-1.19551-1.59401"/>
<use data-text="&#x27e8;" xlink:href="#font_2_2" transform="matrix(9.962799,0,0,-9.962799,25.169205,55.928865)"/>
<use data-text="1" xlink:href="#font_4_1" transform="matrix(9.962799,0,0,-9.962799,29.043282,55.928865)"/>
<use data-text="X" xlink:href="#font_5_2" transform="matrix(6.97394,0,0,-6.97394,34.025384,57.423894)"/>
<use data-text="," xlink:href="#font_1_1" transform="matrix(9.962799,0,0,-9.962799,41.598535,55.928865)"/>
<use data-text="f" xlink:href="#font_1_4" transform="matrix(9.962799,0,0,-9.962799,46.02202,55.928865)"/>
<use data-text="1" xlink:href="#font_3_1" transform="matrix(6.97394,0,0,-6.97394,50.904726,57.423894)"/>
<use data-text="&#x27e9;" xlink:href="#font_2_3" transform="matrix(9.962799,0,0,-9.962799,55.37381,55.928865)"/>
<path transform="matrix(1.00002,0,0,-1.00002,5.7348177,61.939985)" stroke-width=".3985" stroke-linecap="butt" stroke-miterlimit="10" stroke-linejoin="miter" fill="none" stroke="#000000" d="M90.11227 7.67188C107.5727 33.71062 130.78253 45.10999 160.075 43.1418"/>
<path transform="matrix(.99772998,.06702134,.06702134,-.99772998,165.81302,18.797303)" d="M1.99252 0-1.19551 1.59401 0 0-1.19551-1.59401"/>
<use data-text="p" xlink:href="#font_1_5" transform="matrix(9.962799,0,0,-9.962799,118.732089,33.856424)"/>
<use data-text="1" xlink:href="#font_3_1" transform="matrix(6.97394,0,0,-6.97394,123.74419,35.351449)"/>
<use data-text="," xlink:href="#font_5_1" transform="matrix(6.97394,0,0,-6.97394,127.71627,35.351449)"/>
<use data-text="1" xlink:href="#font_3_1" transform="matrix(6.97394,0,0,-6.97394,130.0823,35.351449)"/>
<path transform="matrix(1.00002,0,0,-1.00002,5.7348177,61.939985)" stroke-width=".3985" stroke-linecap="butt" stroke-miterlimit="10" stroke-linejoin="miter" fill="none" stroke="#000000" d="M90.11227-7.67188C107.04314-33.44077 129.78556-44.87616 158.57839-43.21297"/>
<path transform="matrix(.99830999,-.057651156,-.057651156,-.99830999,164.31638,105.153827)" d="M1.99252 0-1.19551 1.59401 0 0-1.19551-1.59401"/>
<use data-text="p" xlink:href="#font_1_5" transform="matrix(9.962799,0,0,-9.962799,117.97307,91.28557)"/>
<use data-text="2" xlink:href="#font_3_2" transform="matrix(6.97394,0,0,-6.97394,122.98517,92.7806)"/>
<use data-text="," xlink:href="#font_5_1" transform="matrix(6.97394,0,0,-6.97394,126.95725,92.7806)"/>
<use data-text="1" xlink:href="#font_3_1" transform="matrix(6.97394,0,0,-6.97394,129.3233,92.7806)"/>
<path transform="matrix(1.00002,0,0,-1.00002,5.7348177,61.939985)" stroke-width=".3985" stroke-linecap="butt" stroke-miterlimit="10" stroke-linejoin="miter" fill="none" stroke="#000000" d="M7.15196 6.92459C52.19354 50.03664 102.20601 62.27414 160.15019 45.3808"/>
<path transform="matrix(.95999929,.2798856,.2798856,-.95999929,165.88822,16.558278)" d="M1.99252 0-1.19551 1.59401 0 0-1.19551-1.59401"/>
<use data-text="1" xlink:href="#font_4_1" transform="matrix(9.962799,0,0,-9.962799,78.51028,8.339912)"/>
<use data-text="X" xlink:href="#font_5_2" transform="matrix(6.97394,0,0,-6.97394,83.49138,9.834942)"/>
<path transform="matrix(1.00002,0,0,-1.00002,5.7348177,61.939985)" stroke-width=".3985" stroke-linecap="butt" stroke-miterlimit="10" stroke-linejoin="miter" fill="none" stroke="#000000" d="M7.15196-6.92459C51.5515-49.83807 101.2035-62.24489 158.652-45.79895"/>
<path transform="matrix(.9613693,-.2751955,-.2751955,-.9613693,164.38999,107.73987)" d="M1.99252 0-1.19551 1.59401 0 0-1.19551-1.59401"/>
<use data-text="f" xlink:href="#font_1_4" transform="matrix(9.962799,0,0,-9.962799,79.31029,120.932178)"/>
<use data-text="2" xlink:href="#font_3_2" transform="matrix(6.97394,0,0,-6.97394,84.188388,122.4272)"/>
</svg>
