<svg xmlns="http://www.w3.org/2000/svg" xmlns:xlink="http://www.w3.org/1999/xlink" xmlns:inkscape="http://www.inkscape.org/namespaces/inkscape" version="1.1" width="64" height="147" viewBox="0 0 64 147">
<defs>
<path id="font_1_1" d="M.44400025 .24998474C.44400025 .35688783 .35499574 .44381715 .25 .44381715 .14199829 .44381715 .054992677 .35488893 .054992677 .24998474 .054992677 .14407349 .14199829 .056137086 .25 .056137086 .35499574 .056137086 .44400025 .14308167 .44400025 .24998474Z"/>
<path id="font_2_88" d="M.19198609 .052993776C.19198609 .08198547 .16799927 .10598755 .13899231 .10598755 .10998535 .10598755 .085998538 .08198547 .085998538 .052993776 .085998538 .023986817 .10998535 0 .13899231 0 .16799927 0 .19198609 .023986817 .19198609 .052993776Z"/>
</defs>
<use data-text="&#x2022;" xlink:href="#font_1_1" transform="matrix(9.963197,0,0,-9.963197,29.564873,6.3486025)"/>
<use data-text="&#x2022;" xlink:href="#font_1_1" transform="matrix(9.963197,0,0,-9.963197,29.564873,34.6963)"/>
<use data-text="." xlink:href="#font_2_88" transform="matrix(9.963197,0,0,-9.963197,27.901772,61.358896)"/>
<use data-text="." xlink:href="#font_2_88" transform="matrix(9.963197,0,0,-9.963197,30.67154,61.358896)"/>
<use data-text="." xlink:href="#font_2_88" transform="matrix(9.963197,0,0,-9.963197,33.441308,61.358896)"/>
<use data-text="&#x2022;" xlink:href="#font_1_1" transform="matrix(9.963197,0,0,-9.963197,29.564873,91.3937)"/>
<use data-text="&#x2022;" xlink:href="#font_1_1" transform="matrix(9.963197,0,0,-9.963197,57.913576,119.7424)"/>
<use data-text="." xlink:href="#font_2_88" transform="matrix(9.963197,0,0,-9.963197,27.901772,146.405)"/>
<use data-text="." xlink:href="#font_2_88" transform="matrix(9.963197,0,0,-9.963197,30.67154,146.405)"/>
<use data-text="." xlink:href="#font_2_88" transform="matrix(9.963197,0,0,-9.963197,33.441308,146.405)"/>
<use data-text="&#x2022;" xlink:href="#font_1_1" transform="matrix(9.963197,0,0,-9.963197,1.2171784,119.7424)"/>
<path transform="matrix(1.00006,0,0,-1.00006,32.056024,89.179569)" stroke-width=".3985" stroke-linecap="butt" stroke-miterlimit="10" stroke-linejoin="miter" fill="none" stroke="#000000" d="M0 79.30666V64.41989"/>
<path transform="matrix(0,1.00006,1.00006,0,32.056024,24.755814)" d="M1.99252 0-1.19551 1.59401 0 0-1.19551-1.59401"/>
<path transform="matrix(1.00006,0,0,-1.00006,32.056024,89.179569)" stroke-width=".3985" stroke-linecap="butt" stroke-miterlimit="10" stroke-linejoin="miter" fill="none" stroke="#000000" d="M0 50.95985V34.38718"/>
<path transform="matrix(0,1.00006,1.00006,0,32.056024,54.79032)" d="M1.99252 0-1.19551 1.59401 0 0-1.19551-1.59401"/>
<path transform="matrix(1.00006,0,0,-1.00006,32.056024,89.179569)" stroke-width=".3985" stroke-linecap="butt" stroke-miterlimit="10" stroke-linejoin="miter" fill="none" stroke="#000000" d="M0 24.29895V7.72627"/>
<path transform="matrix(0,1.00006,1.00006,0,32.056024,81.452838)" d="M1.99252 0-1.19551 1.59401 0 0-1.19551-1.59401"/>
<path transform="matrix(1.00006,0,0,-1.00006,32.056024,89.179569)" stroke-width=".3985" stroke-linecap="butt" stroke-miterlimit="10" stroke-linejoin="miter" fill="none" stroke="#000000" d="M6.0105-1.61028C17.16669-4.6576 23.8716-11.42787 26.30435-20.686"/>
<path transform="matrix(.25411523,.967188,.967188,-.25411523,58.36195,109.866809)" d="M1.99252 0-1.19551 1.59401 0 0-1.19551-1.59401"/>
<path transform="matrix(1.00006,0,0,-1.00006,32.056024,89.179569)" stroke-width=".3985" stroke-linecap="butt" stroke-miterlimit="10" stroke-linejoin="miter" fill="none" stroke="#000000" d="M26.81065-34.08057C24.35477-44.76047 18.15129-51.42445 9.57915-54.05338"/>
<path transform="matrix(-.9560673,.29321758,.29321758,.9560673,41.635747,143.23618)" d="M1.99252 0-1.19551 1.59401 0 0-1.19551-1.59401"/>
<path transform="matrix(1.00006,0,0,-1.00006,32.056024,89.179569)" stroke-width=".3985" stroke-linecap="butt" stroke-miterlimit="10" stroke-linejoin="miter" fill="none" stroke="#000000" d="M-7.67429-54.63757C-18.15129-51.42445-24.35477-44.76047-26.3642-36.02234"/>
<path transform="matrix(-.22409344,-.9745884,-.9745884,.22409344,5.690262,125.20406)" d="M1.99252 0-1.19551 1.59401 0 0-1.19551-1.59401"/>
<path transform="matrix(1.00006,0,0,-1.00006,32.056024,89.179569)" stroke-width=".3985" stroke-linecap="butt" stroke-miterlimit="10" stroke-linejoin="miter" fill="none" stroke="#000000" d="M-26.81065-22.61304C-23.8716-11.42787-17.16669-4.6576-7.93253-2.13525"/>
<path transform="matrix(.9646678,-.2634858,-.2634858,-.9646678,24.123017,91.31494)" d="M1.99252 0-1.19551 1.59401 0 0-1.19551-1.59401"/>
</svg>
