<svg xmlns="http://www.w3.org/2000/svg" xmlns:xlink="http://www.w3.org/1999/xlink" version="1.1" width="183" height="120" viewBox="0 0 183 120">
<defs>
<path id="font_1_2" d="M.4850006 .41075135 .40098573 .6096344C.397995 .61763 .3959961 .6216278 .3959961 .6226196 .3959961 .62861636 .41299439 .6476135 .45498658 .6516113 .46499635 .65260317 .47499085 .6536102 .47499085 .6706085 .47499085 .6826172 .46299745 .6826172 .45999146 .6826172 .4189911 .6826172 .37599183 .6796112 .33399964 .6796112 .30899049 .6796112 .24699402 .6826172 .22200012 .6826172 .21598816 .6826172 .20399475 .6826172 .20399475 .6626129 .20399475 .6516113 .21398926 .6516113 .22698975 .6516113 .2869873 .6516113 .29299928 .6416168 .3019867 .6196289L.41999818 .34080506 .20899964 .11393738 .19599915 .10295105C.14698792 .049987794 .099990848 .033996583 .04899597 .0309906 .035995485 .02999878 .026992798 .02999878 .026992798 .010986328 .026992798 .009994507 .026992798 0 .039993287 0 .069992069 0 .102996829 .0029907227 .13398743 .0029907227 .17098999 .0029907227 .20999146 0 .24598694 0 .2519989 0 .2639923 0 .2639923 .019989014 .2639923 .02999878 .2539978 .0309906 .2519989 .0309906 .24299622 .03199768 .21199036 .033996583 .21199036 .061965944 .21199036 .07795715 .22698975 .093948367 .23899842 .10694885L.34098817 .21487427 .43099977 .31282044 .5319977 .07395935C.5359955 .06297302 .5369873 .061965944 .5369873 .05996704 .5369873 .051986696 .5179901 .034988405 .47898866 .0309906 .46798707 .02999878 .45899964 .0289917 .45899964 .011993408 .45899964 0 .46998597 0 .47399903 0 .5019989 0 .57199099 .0029907227 .59999087 .0029907227 .625 .0029907227 .6859894 0 .71099856 0 .71798709 0 .7299957 0 .7299957 .018997193 .7299957 .0309906 .7200012 .0309906 .71199038 .0309906 .644989 .03199768 .6429901 .034988405 .6259918 .07496643 .58699038 .16790772 .519989 .32380677 .49699403 .3837738 .5649872 .45373536 .66999819 .5726471 .70199587 .6006317 .73098757 .62461856 .7689972 .64860537 .82899478 .6516113 .84199526 .65260317 .8509979 .65260317 .8509979 .6716156 .8509979 .6726074 .8509979 .6826172 .83799746 .6826172 .80799868 .6826172 .7749939 .6796112 .74398806 .6796112 .70700076 .6796112 .6689911 .6826172 .6329956 .6826172 .6269989 .6826172 .6139984 .6826172 .6139984 .6626129 .6139984 .65560916 .61898806 .65260317 .6259918 .6516113 .6349945 .65060427 .66600039 .64860537 .66600039 .6206207 .66600039 .6066284 .6549988 .5936432 .6469879 .5846405L.4850006 .41075135Z"/>
<path id="font_1_1" d="M.1599884 .07795715C.1499939 .038986207 .147995 .0309906 .068984989 .0309906 .051986696 .0309906 .041992189 .0309906 .041992189 .010986328 .041992189 0 .050994874 0 .068984989 0H.42599488C.58399966 0 .70199587 .11791992 .70199587 .21585083 .70199587 .28778077 .6439972 .3457489 .5469971 .35673524 .651001 .37573243 .7559967 .44970704 .7559967 .5446625 .7559967 .6186218 .6899872 .6826172 .56999209 .6826172H.23399353C.21499634 .6826172 .20498657 .6826172 .20498657 .6626129 .20498657 .6516113 .21398926 .6516113 .23298645 .6516113 .23498535 .6516113 .2539978 .6516113 .2709961 .6496124 .2889862 .6476135 .2979889 .64660647 .2979889 .6336212 .2979889 .6296234 .29699708 .62661746 .2939911 .614624L.1599884 .07795715M.31098939 .36573792 .37298585 .6136322C.38198854 .64860537 .38398744 .6516113 .4269867 .6516113H.55599978C.6439972 .6516113 .6649933 .5926361 .6649933 .5486603 .6649933 .46069337 .57899478 .36573792 .45700074 .36573792H.31098939M.2659912 .0309906C.2519989 .0309906 .25 .0309906 .24398804 .03199768 .23399353 .032989503 .23098755 .033996583 .23098755 .04197693 .23098755 .04498291 .23098755 .04698181 .23599243 .064971927L.30499269 .34375H.49398805C.58999636 .34375 .60899356 .2698059 .60899356 .22683716 .60899356 .12791443 .519989 .0309906 .4019928 .0309906H.2659912Z"/>
<path id="font_2_1" d="M.33499146 .63612368C.33499146 .6630554 .33299256 .6640625 .30499269 .6640625 .24099732 .6014404 .1499939 .6004486 .10899353 .6004486V.5644531C.1329956 .5644531 .19898987 .5644531 .2539978 .592453V.08203125C.2539978 .04899597 .2539978 .035995485 .1539917 .035995485H.115997318V0C.13398743 .0009918213 .25698854 .0039978029 .2939911 .0039978029 .32499696 .0039978029 .45098878 .0009918213 .47299195 0V.035995485H.43499757C.33499146 .035995485 .33499146 .04899597 .33499146 .08203125V.63612368Z"/>
<path id="font_3_1" d="M.40899659 .23046875H.6879883C.70199587 .23046875 .72099307 .23046875 .72099307 .25045777 .72099307 .27046205 .70199587 .27046205 .6879883 .27046205H.40899659V.5500183C.40899659 .56399539 .40899659 .5830078 .3889923 .5830078 .36898805 .5830078 .36898805 .56399539 .36898805 .5500183V.27046205H.08898926C.07499695 .27046205 .055999757 .27046205 .055999757 .25045777 .055999757 .23046875 .07499695 .23046875 .08898926 .23046875H.36898805V-.05000305C.36898805-.06401062 .36898805-.08300781 .3889923-.08300781 .40899659-.08300781 .40899659-.06401062 .40899659-.05000305V.23046875Z"/>
<path id="font_2_2" d="M.5049896 .18203736H.47099305C.46798707 .16001892 .45799256 .100997928 .44499208 .09098816 .43699647 .084991458 .3600006 .084991458 .34599305 .084991458H.1619873C.2669983 .17803955 .3019867 .20603943 .3619995 .25306703 .43598939 .312088 .5049896 .374115 .5049896 .46914674 .5049896 .5900879 .39898683 .6640625 .2709961 .6640625 .14698792 .6640625 .06298828 .57710269 .06298828 .4851532 .06298828 .43414308 .10598755 .42915345 .115997318 .42915345 .13999939 .42915345 .16899109 .44615174 .16899109 .48214723 .16899109 .5001526 .1619873 .53515627 .10998535 .53515627 .14099121 .6060791 .20899964 .62805178 .2559967 .62805178 .35598756 .62805178 .4079895 .5501404 .4079895 .46914674 .4079895 .38212586 .34599305 .3130951 .31399537 .27708436L.07299805 .038986207C.06298828 .02999878 .06298828 .027999878 .06298828 0H.47499085L.5049896 .18203736Z"/>
<path id="font_1_3" d="M.47099305 .3773346C.47200013 .3833313 .47399903 .38833619 .47399903 .39535523 .47399903 .41236878 .46199037 .42237855 .44499208 .42237855 .43499757 .42237855 .4079895 .41537477 .4039917 .3793335 .38598634 .41636659 .35099793 .4423828 .31098939 .4423828 .19699097 .4423828 .07299805 .30226136 .07299805 .15812683 .07299805 .059020997 .13398743 0 .20599365 0 .2649994 0 .31199647 .04701233 .32199098 .058029176L.32299806 .057022096C.3019867-.031982423 .2899933-.07295227 .2899933-.07495117 .28599549-.08395386 .2519989-.18309021 .1459961-.18309021 .1269989-.18309021 .09399414-.18206787 .06599426-.17297364 .09599304-.16394043 .10699463-.13793946 .10699463-.12094116 .10699463-.10494995 .09599304-.0859375 .068984989-.0859375 .04699707-.0859375 .01499939-.10394287 .01499939-.14395142 .01499939-.18508911 .051986696-.20507813 .147995-.20507813 .272995-.20507813 .34498597-.12693787 .3600006-.06695557L.47099305 .3773346M.34098817 .12809754C.33499146 .10206604 .31199647 .077041629 .2899933 .058029176 .2689972 .040008546 .23799134 .021987915 .20899964 .021987915 .15899658 .021987915 .14399719 .074035648 .14399719 .11407471 .14399719 .16212464 .17298889 .28024293 .19999695 .33128358 .22698975 .38034059 .269989 .42037965 .31199647 .42037965 .37799073 .42037965 .3919983 .33929444 .3919983 .33428956 .3919983 .32928468 .3899994 .3232727 .3889923 .3192749L.34098817 .12809754Z"/>
<path id="font_1_4" d="M.39698792 .6252594C.39698792 .6442566 .3829956 .6612549 .35899354 .6612549 .33599855 .6612549 .30599977 .6382599 .30599977 .6082611 .30599977 .58825686 .31999208 .5722656 .34298707 .5722656 .36999513 .5722656 .39698792 .59825137 .39698792 .6252594M.19599915-.049926759C.1769867-.12594605 .1289978-.18309021 .07299805-.18309021 .066986087-.18309021 .051986696-.18309021 .033996583-.17396546 .06399536-.16694641 .07899475-.14094544 .07899475-.12094116 .07899475-.10494995 .067993167-.0859375 .040985109-.0859375 .015991211-.0859375-.013000488-.10694885-.013000488-.14294434-.013000488-.18309021 .026992798-.20507813 .07499695-.20507813 .14498902-.20507813 .23799134-.15194702 .2630005-.05291748L.35499574 .31330873C.3600006 .333313 .3600006 .34732057 .3600006 .35032655 .3600006 .4073639 .31799317 .4423828 .2679901 .4423828 .1659851 .4423828 .10899353 .29730226 .10899353 .2882843 .10899353 .2782898 .11898804 .2782898 .12098694 .2782898 .12998963 .2782898 .1309967 .27928163 .13899231 .29829408 .1639862 .35932923 .20999146 .42037965 .2649994 .42037965 .2789917 .42037965 .29699708 .41636659 .29699708 .37434388 .29699708 .35133363 .2939911 .34031678 .2899933 .32331849L.19599915-.049926759Z"/>
<path id="font_4_1" d="M.21099854 .015991211C.21099854-.03907776 .20098877-.10321045 .1329956-.16732788 .1289978-.17134094 .12599182-.17434693 .12599182-.17933655 .12599182-.18634033 .13398743-.19334412 .13999939-.19334412 .1539917-.19334412 .23899842-.113220218 .23899842 .005996704 .23899842 .067993167 .21499634 .114990238 .16899109 .114990238 .13598633 .114990238 .11199951 .08898926 .11199951 .057998659 .11199951 .025985718 .1349945 0 .16999817 0 .19400025 0 .20999146 .015991211 .21099854 .015991211Z"/>
</defs>
<use data-text="X" xlink:href="#font_1_2" transform="matrix(9.962799,0,0,-9.962799,172.79618,63.44803)"/>
<use data-text="B" xlink:href="#font_1_1" transform="matrix(9.962799,0,0,-9.962799,74.157199,62.70101)"/>
<use data-text="1" xlink:href="#font_2_1" transform="matrix(6.97394,0,0,-6.97394,81.71435,64.196048)"/>
<use data-text="+" xlink:href="#font_3_1" transform="matrix(9.962799,0,0,-9.962799,88.39748,62.70101)"/>
<use data-text="B" xlink:href="#font_1_1" transform="matrix(9.962799,0,0,-9.962799,98.36068,62.70101)"/>
<use data-text="2" xlink:href="#font_2_2" transform="matrix(6.97394,0,0,-6.97394,105.91782,64.196048)"/>
<use data-text="B" xlink:href="#font_1_1" transform="matrix(9.962799,0,0,-9.962799,1.2167282,20.180165)"/>
<use data-text="1" xlink:href="#font_2_1" transform="matrix(6.97394,0,0,-6.97394,8.77388,21.675194)"/>
<use data-text="B" xlink:href="#font_1_1" transform="matrix(9.962799,0,0,-9.962799,1.2167282,105.22186)"/>
<use data-text="2" xlink:href="#font_2_2" transform="matrix(6.97394,0,0,-6.97394,8.77388,106.71689)"/>
<path transform="matrix(1.00002,0,0,-1.00002,7.229851,60.04396)" stroke-width=".3985" stroke-linecap="butt" stroke-miterlimit="10" stroke-linejoin="miter" fill="none" stroke="#000000" d="M106.68784 0H160.07044"/>
<path transform="matrix(1.00002,0,0,-1.00002,167.3035,60.04396)" d="M1.99252 0-1.19551 1.59401 0 0-1.19551-1.59401"/>
<use data-text="g" xlink:href="#font_1_3" transform="matrix(9.962799,0,0,-9.962799,139.0535,54.586854)"/>
<path transform="matrix(1.00002,0,0,-1.00002,7.229851,60.04396)" stroke-width=".3985" stroke-linecap="butt" stroke-miterlimit="10" stroke-linejoin="miter" fill="none" stroke="#000000" d="M9.53409 43.09738C40.3172 44.87614 63.05939 33.44142 78.89735 9.337"/>
<path transform="matrix(.54911097,.8357167,.8357167,-.54911097,86.12877,50.70677)" d="M1.99252 0-1.19551 1.59401 0 0-1.19551-1.59401"/>
<use data-text="j" xlink:href="#font_1_4" transform="matrix(9.962799,0,0,-9.962799,49.7327,34.41845)"/>
<use data-text="1" xlink:href="#font_2_1" transform="matrix(6.97394,0,0,-6.97394,53.83578,35.913476)"/>
<use data-text="," xlink:href="#font_4_1" transform="matrix(6.97394,0,0,-6.97394,57.806859,35.913476)"/>
<use data-text="1" xlink:href="#font_2_1" transform="matrix(6.97394,0,0,-6.97394,60.17291,35.913476)"/>
<path transform="matrix(1.00002,0,0,-1.00002,7.229851,60.04396)" stroke-width=".3985" stroke-linecap="butt" stroke-miterlimit="10" stroke-linejoin="miter" fill="none" stroke="#000000" d="M9.53409-43.09738C40.3172-44.87614 63.05939-33.44142 78.89735-9.337"/>
<path transform="matrix(.54911097,-.8357167,-.8357167,-.54911097,86.12877,69.38115)" d="M1.99252 0-1.19551 1.59401 0 0-1.19551-1.59401"/>
<use data-text="j" xlink:href="#font_1_4" transform="matrix(9.962799,0,0,-9.962799,49.7327,89.38955)"/>
<use data-text="2" xlink:href="#font_2_2" transform="matrix(6.97394,0,0,-6.97394,53.83578,90.88458)"/>
<use data-text="," xlink:href="#font_4_1" transform="matrix(6.97394,0,0,-6.97394,57.806859,90.88458)"/>
<use data-text="1" xlink:href="#font_2_1" transform="matrix(6.97394,0,0,-6.97394,60.17291,90.88458)"/>
<path transform="matrix(1.00002,0,0,-1.00002,7.229851,60.04396)" stroke-width=".3985" stroke-linecap="butt" stroke-miterlimit="10" stroke-linejoin="miter" fill="none" stroke="#000000" d="M9.53409 45.25063C68.89847 62.245 118.55093 49.83835 161.51811 8.30927"/>
<path transform="matrix(.71903446,.69496396,.69496396,-.71903446,168.75119,51.734514)" d="M1.99252 0-1.19551 1.59401 0 0-1.19551-1.59401"/>
<use data-text="g" xlink:href="#font_1_3" transform="matrix(9.962799,0,0,-9.962799,94.474597,6.032879)"/>
<use data-text="1" xlink:href="#font_2_1" transform="matrix(6.97394,0,0,-6.97394,99.22669,7.5279085)"/>
<path transform="matrix(1.00002,0,0,-1.00002,7.229851,60.04396)" stroke-width=".3985" stroke-linecap="butt" stroke-miterlimit="10" stroke-linejoin="miter" fill="none" stroke="#000000" d="M9.53409-45.25063C68.89847-62.245 118.55093-49.83835 161.51811-8.30927"/>
<path transform="matrix(.71903446,-.69496396,-.69496396,-.71903446,168.75119,68.35341)" d="M1.99252 0-1.19551 1.59401 0 0-1.19551-1.59401"/>
<use data-text="g" xlink:href="#font_1_3" transform="matrix(9.962799,0,0,-9.962799,94.474597,116.40709)"/>
<use data-text="2" xlink:href="#font_2_2" transform="matrix(6.97394,0,0,-6.97394,99.22669,117.902118)"/>
</svg>
