<svg xmlns="http://www.w3.org/2000/svg" xmlns:xlink="http://www.w3.org/1999/xlink" version="1.1" width="293" height="170" viewBox="0 0 293 170">
<defs>
<path id="font_1_1" d="M.644989 .69506838C.644989 .69807437 .6429901 .7050781 .6339874 .7050781 .6289978 .7050781 .6279907 .70407107 .6159973 .6900635L.56799319 .6330414C.5419922 .68006899 .48999024 .7050781 .4249878 .7050781 .2979889 .7050781 .17799378 .58999636 .17799378 .4689026 .17799378 .38783265 .23098755 .34179688 .28199769 .32678224L.3889923 .2987671C.42599488 .2897644 .48098756 .27474977 .48098756 .19267273 .48098756 .1026001 .39898683 .008529663 .30099488 .008529663 .23699951 .008529663 .12599182 .030548096 .12599182 .15464783 .12599182 .17866516 .1309967 .2026825 .13198853 .20869446 .1329956 .21269226 .13398743 .21369934 .13398743 .21569824 .13398743 .22570801 .1269989 .22669983 .12199402 .22669983 .116989139 .22669983 .114990238 .22570801 .11199951 .22270203 .10798645 .21870423 .051986696-.009475708 .051986696-.012466431 .051986696-.018463135 .056991579-.022460938 .06298828-.022460938 .067993167-.022460938 .068984989-.021469117 .08099365-.007461548L.12998963 .049560548C.17298889-.008468628 .24099732-.022460938 .29899598-.022460938 .43499757-.022460938 .5529938 .11061096 .5529938 .2347107 .5529938 .30377198 .5189972 .33779908 .5039978 .35180665 .48098756 .37483216 .46598817 .37882997 .3769989 .40185548 .35499574 .40785218 .31900025 .41786195 .30999757 .41986085 .2829895 .42886354 .24899292 .457901 .24899292 .51094058 .24899292 .59199526 .32899476 .677063 .42399598 .677063 .5069885 .677063 .56799319 .6340332 .56799319 .52194216 .56799319 .48991395 .56399539 .47190858 .56399539 .4658966 .56399539 .4649048 .56399539 .45588685 .57598879 .45588685 .58599856 .45588685 .58699038 .45889283 .59098818 .47590638L.644989 .69506838Z"/>
<path id="font_1_2" d="M.4269867 .6066284C.43399049 .63461306 .43798829 .64060977 .44999696 .6436157 .45899964 .6456146 .49198915 .6456146 .5130005 .6456146 .6139984 .6456146 .6589966 .6416168 .6589966 .56365969 .6589966 .54867556 .6549988 .50968936 .651001 .4837036 .6499939 .4797058 .647995 .4677124 .647995 .46472169 .647995 .45872499 .651001 .45173646 .6599884 .45173646 .67099 .45173646 .6729889 .45973207 .6749878 .4747162L.70199587 .64860537C.7029877 .65260317 .70399478 .6626129 .70399478 .66560366 .70399478 .6766052 .69400027 .6766052 .6769867 .6766052H.12199402C.09799194 .6766052 .09700012 .6756134 .08999634 .6566162L.02999878 .4807129C.0289917 .478714 .023986817 .46472169 .023986817 .46272279 .023986817 .45672608 .0289917 .45173646 .035995485 .45173646 .04598999 .45173646 .04699707 .45672608 .052993776 .4727173 .10699463 .6276245 .1329956 .6456146 .2809906 .6456146H.31999208C.34799195 .6456146 .34799195 .6416168 .34799195 .6336212 .34799195 .6276245 .34498597 .6156311 .34399415 .6126251L.20999146 .07896423C.20098877 .041992189 .19799805 .0309906 .09098816 .0309906 .054992677 .0309906 .04899597 .0309906 .04899597 .011993408 .04899597 0 .05999756 0 .06599426 0 .09298706 0 .12098694 .0019989014 .147995 .0019989014 .17599488 .0019989014 .20498657 .0029907227 .23298645 .0029907227 .26098634 .0029907227 .2889862 .0019989014 .31599427 .0019989014 .34498597 .0019989014 .375 0 .40299989 0 .41299439 0 .4249878 0 .4249878 .019989014 .4249878 .0309906 .4169922 .0309906 .3909912 .0309906 .3659973 .0309906 .35299684 .0309906 .32699586 .032989503 .2979889 .035995485 .2899933 .038986207 .2899933 .054977418 .2899933 .05596924 .2899933 .06097412 .2939911 .07595825L.4269867 .6066284Z"/>
<path id="font_2_1" d="M.40899659 .23046875H.6879883C.70199587 .23046875 .72099307 .23046875 .72099307 .25045777 .72099307 .27046205 .70199587 .27046205 .6879883 .27046205H.40899659V.5500183C.40899659 .56399539 .40899659 .5830078 .3889923 .5830078 .36898805 .5830078 .36898805 .56399539 .36898805 .5500183V.27046205H.08898926C.07499695 .27046205 .055999757 .27046205 .055999757 .25045777 .055999757 .23046875 .07499695 .23046875 .08898926 .23046875H.36898805V-.05000305C.36898805-.06401062 .36898805-.08300781 .3889923-.08300781 .40899659-.08300781 .40899659-.06401062 .40899659-.05000305V.23046875Z"/>
<path id="font_1_3" d="M.39698792 .6252594C.39698792 .6442566 .3829956 .6612549 .35899354 .6612549 .33599855 .6612549 .30599977 .6382599 .30599977 .6082611 .30599977 .58825686 .31999208 .5722656 .34298707 .5722656 .36999513 .5722656 .39698792 .59825137 .39698792 .6252594M.19599915-.049926759C.1769867-.12594605 .1289978-.18309021 .07299805-.18309021 .066986087-.18309021 .051986696-.18309021 .033996583-.17396546 .06399536-.16694641 .07899475-.14094544 .07899475-.12094116 .07899475-.10494995 .067993167-.0859375 .040985109-.0859375 .015991211-.0859375-.013000488-.10694885-.013000488-.14294434-.013000488-.18309021 .026992798-.20507813 .07499695-.20507813 .14498902-.20507813 .23799134-.15194702 .2630005-.05291748L.35499574 .31330873C.3600006 .333313 .3600006 .34732057 .3600006 .35032655 .3600006 .4073639 .31799317 .4423828 .2679901 .4423828 .1659851 .4423828 .10899353 .29730226 .10899353 .2882843 .10899353 .2782898 .11898804 .2782898 .12098694 .2782898 .12998963 .2782898 .1309967 .27928163 .13899231 .29829408 .1639862 .35932923 .20999146 .42037965 .2649994 .42037965 .2789917 .42037965 .29699708 .41636659 .29699708 .37434388 .29699708 .35133363 .2939911 .34031678 .2899933 .32331849L.19599915-.049926759Z"/>
<path id="font_3_4" d="M.33499146 .63612368C.33499146 .6630554 .33299256 .6640625 .30499269 .6640625 .24099732 .6014404 .1499939 .6004486 .10899353 .6004486V.5644531C.1329956 .5644531 .19898987 .5644531 .2539978 .592453V.08203125C.2539978 .04899597 .2539978 .035995485 .1539917 .035995485H.115997318V0C.13398743 .0009918213 .25698854 .0039978029 .2939911 .0039978029 .32499696 .0039978029 .45098878 .0009918213 .47299195 0V.035995485H.43499757C.33499146 .035995485 .33499146 .04899597 .33499146 .08203125V.63612368Z"/>
<path id="font_3_5" d="M.5049896 .18203736H.47099305C.46798707 .16001892 .45799256 .100997928 .44499208 .09098816 .43699647 .084991458 .3600006 .084991458 .34599305 .084991458H.1619873C.2669983 .17803955 .3019867 .20603943 .3619995 .25306703 .43598939 .312088 .5049896 .374115 .5049896 .46914674 .5049896 .5900879 .39898683 .6640625 .2709961 .6640625 .14698792 .6640625 .06298828 .57710269 .06298828 .4851532 .06298828 .43414308 .10598755 .42915345 .115997318 .42915345 .13999939 .42915345 .16899109 .44615174 .16899109 .48214723 .16899109 .5001526 .1619873 .53515627 .10998535 .53515627 .14099121 .6060791 .20899964 .62805178 .2559967 .62805178 .35598756 .62805178 .4079895 .5501404 .4079895 .46914674 .4079895 .38212586 .34599305 .3130951 .31399537 .27708436L.07299805 .038986207C.06298828 .02999878 .06298828 .027999878 .06298828 0H.47499085L.5049896 .18203736Z"/>
<path id="font_4_2" d="M.44400025 .24998474C.44400025 .357193 .35499574 .44429017 .25 .44429017 .14199829 .44429017 .054992677 .3551941 .054992677 .24998474 .054992677 .14378357 .14199829 .05569458 .25 .05569458 .35499574 .05569458 .44400025 .14279175 .44400025 .24998474M.25 .095703128C.16299439 .095703128 .09498596 .16583252 .09498596 .24998474 .09498596 .33415223 .1639862 .40429688 .25 .40429688 .33299256 .40429688 .4039917 .33615113 .4039917 .24998474 .4039917 .16383362 .33299256 .095703128 .25 .095703128Z"/>
<path id="font_2_4" d="M.68699648 .32714845C.70199587 .32714845 .72099307 .32714845 .72099307 .34713746 .72099307 .36714173 .70199587 .36714173 .6879883 .36714173H.08898926C.07499695 .36714173 .055999757 .36714173 .055999757 .34713746 .055999757 .32714845 .07499695 .32714845 .08999634 .32714845H.68699648M.6879883 .13284302C.70199587 .13284302 .72099307 .13284302 .72099307 .15284729 .72099307 .17285156 .70199587 .17285156 .68699648 .17285156H.08999634C.07499695 .17285156 .055999757 .17285156 .055999757 .15284729 .055999757 .13284302 .07499695 .13284302 .08898926 .13284302H.6879883Z"/>
<path id="font_2_2" d="M.45999146 .31976319C.45999146 .39982606 .45498658 .47988893 .41999818 .5539398 .37399293 .65000918 .2919922 .6660156 .25 .6660156 .18998719 .6660156 .116989139 .64001467 .07598877 .54693606 .04399109 .47789 .038986207 .39982606 .038986207 .31976319 .038986207 .24472046 .042999269 .15464783 .083999637 .07859802 .1269989-.0024719239 .19999695-.022460938 .24899292-.022460938 .30299378-.022460938 .3789978-.0014648438 .4229889 .09359741 .45498658 .16265869 .45999146 .2407074 .45999146 .31976319M.24899292-.00047302247C.20999146-.00047302247 .15098572 .024551392 .1329956 .12062073 .12199402 .18066406 .12199402 .2727356 .12199402 .3317871 .12199402 .39582826 .12199402 .46188355 .12998963 .5159149 .14898682 .63500979 .22399903 .64401248 .24899292 .64401248 .28199769 .64401248 .34799195 .6259918 .36698915 .52693179 .3769989 .47088624 .3769989 .39482118 .3769989 .3317871 .3769989 .25672914 .3769989 .18867493 .3659973 .12461853 .35099793 .029556275 .2939911-.00047302247 .24899292-.00047302247Z"/>
<path id="font_5_1" d="M.70999148 .6901245C.70999148 .69511416 .70700076 .703125 .69699099 .703125 .69099429 .703125 .6899872 .7021179 .6769867 .68911746L.6279907 .6321411C.58999636 .6851196 .5269928 .703125 .46598817 .703125 .32499696 .703125 .19999695 .5891571 .19999695 .4742279 .19999695 .45922853 .20298767 .4192505 .23298645 .38227845 .2669983 .34228517 .3039856 .33329774 .37199403 .31730653 .3919983 .31230165 .44198609 .3013153 .45700074 .2973175 .4889984 .2893219 .5499878 .26733399 .5499878 .19236756 .5499878 .11140442 .46499635 .016464234 .35099793 .016464234 .2630005 .016464234 .15699768 .047439577 .15699768 .15838623 .15699768 .16838074 .15899658 .19036865 .16299439 .20835877 .1639862 .21235657 .1639862 .21336365 .1639862 .21435547 .1639862 .22735596 .1519928 .22735596 .147995 .22735596 .13398743 .22735596 .1329956 .22535706 .1289978 .20736695L.07798767 .007461548C.07699585 .0034637452 .07499695-.002532959 .07499695-.007537842 .07499695-.013534546 .07899475-.01953125 .08898926-.01953125 .09498596-.01953125 .09599304-.018539429 .10899353-.0055389406 .11999512 .006454468 .1459961 .03845215 .15699768 .050445558 .20999146-.007537842 .28799439-.01953125 .34799195-.01953125 .49899293-.01953125 .62098696 .1104126 .62098696 .22834778 .62098696 .2723236 .6029968 .31230165 .58099368 .33529664 .54599 .37127687 .5309906 .37527467 .4019928 .40525819 .3809967 .41026307 .34799195 .41825868 .33898927 .4212494 .31399537 .43025209 .27198792 .4552307 .27198792 .51220706 .27198792 .591156 .36099244 .67111209 .46499635 .67111209 .57299807 .67111209 .625 .6101532 .625 .51519778 .625 .5022125 .62098696 .47921754 .62098696 .4702301 .62098696 .4562378 .6329956 .4562378 .6380005 .4562378 .6529999 .4562378 .6539917 .46122743 .6579895 .4782257L.70999148 .6901245Z"/>
<path id="font_5_2" d="M.48599244 .6046295C.49299623 .63360598 .49499513 .63661196 .5169983 .63861086 .5219879 .63960269 .5569916 .63960269 .57699587 .63960269 .6380005 .63960269 .6639862 .63960269 .68899539 .63160708 .73399356 .61761477 .73599246 .5886383 .73599246 .5526581 .73599246 .53666689 .73599246 .52368167 .72898867 .4717102L.72698977 .46072389C.72698977 .45072938 .73399356 .4457245 .74398806 .4457245 .7589874 .4457245 .7609863 .45472718 .7630005 .47071839L.7899933 .66160586C.7899933 .6756134 .7779999 .6756134 .7599945 .6756134H.14498902C.11999512 .6756134 .117996219 .6756134 .11099243 .65460208L.04798889 .4777069C.04699707 .4737091 .042999269 .46472169 .042999269 .4597168 .042999269 .455719 .04499817 .4457245 .05999756 .4457245 .07299805 .4457245 .07499695 .45072938 .08099365 .4697113 .13899231 .62960818 .17199707 .63960269 .32398988 .63960269H.3659973C.3959961 .63960269 .39698792 .63861086 .39698792 .62960818 .39698792 .62861636 .39698792 .62361147 .3929901 .6086273L.26098634 .082962039C.2519989 .04598999 .24899292 .035995485 .14399719 .035995485 .10798645 .035995485 .09899902 .035995485 .09899902 .01399231 .09899902 .010986328 .100997928 0 .115997318 0 .14399719 0 .17399597 .0029907227 .20199585 .0029907227 .22999573 .0029907227 .2599945 .0039978029 .28799439 .0039978029 .31599427 .0039978029 .34999085 .0039978029 .37799073 .0029907227 .40499879 .0019989014 .43499757 0 .46199037 0 .46998597 0 .4850006 0 .4850006 .021987915 .4850006 .035995485 .47499085 .035995485 .44400025 .035995485 .4249878 .035995485 .40499879 .036987306 .38598634 .037994386 .35198976 .040985109 .34999085 .04498291 .34999085 .05697632 .34999085 .0639801 .34999085 .065979007 .35398866 .07997131L.48599244 .6046295Z"/>
<path id="font_2_3" d="M.2939911 .64004519C.2939911 .66400149 .2939911 .6660156 .2709961 .6660156 .20899964 .60227969 .12098694 .60227969 .08898926 .60227969V.57128909C.10899353 .57128909 .16799927 .57128909 .21998596 .5972748V.07902527C.21998596 .042999269 .21699524 .0309906 .1269989 .0309906H.09498596V0C.12998963 .0029907227 .21699524 .0029907227 .25698854 .0029907227 .29699708 .0029907227 .38398744 .0029907227 .4189911 0V.0309906H.3869934C.29699708 .0309906 .2939911 .041992189 .2939911 .07902527V.64004519Z"/>
<path id="font_4_1" d="M.3889923 .27801515 .18899536 .47720338C.1769867 .48919679 .1749878 .49121095 .16699219 .49121095 .15699768 .49121095 .14698792 .48220826 .14698792 .47120667 .14698792 .46420289 .14898682 .46218873 .1599884 .45118714L.3600006 .24998474 .1599884 .048797609C.14898682 .03779602 .14698792 .03578186 .14698792 .028778077 .14698792 .01777649 .15699768 .0087890629 .16699219 .0087890629 .1749878 .0087890629 .1769867 .010787964 .18899536 .022781373L.3880005 .2219696 .59498599 .014785767C.5970001 .0137786869 .60398867 .0087890629 .6100006 .0087890629 .621994 .0087890629 .6299896 .01777649 .6299896 .028778077 .6299896 .030776978 .6299896 .03479004 .6269989 .039794923 .6259918 .041793825 .46699525 .19894409 .4169922 .24998474L.59999087 .4331665C.6049957 .43917848 .6199951 .45217896 .625 .45819093 .6259918 .46018983 .6299896 .46420289 .6299896 .47120667 .6299896 .48220826 .621994 .49121095 .6100006 .49121095 .60198977 .49121095 .59799197 .48719789 .58699038 .4761963L.3889923 .27801515Z"/>
<path id="font_1_4" d="M.04499817-.122177127C.036987306-.15631104 .034988405-.16334534-.009002686-.16334534-.021011353-.16334534-.03201294-.16334534-.03201294-.18234253-.03201294-.19033814-.027008057-.19433594-.019012452-.19433594 .0079956059-.19433594 .036987306-.19134522 .06498718-.19134522 .09799194-.19134522 .13198853-.19433594 .1639862-.19433594 .16899109-.19433594 .18199158-.19433594 .18199158-.17434693 .18199158-.16334534 .17199707-.16334534 .1579895-.16334534 .10798645-.16334534 .10798645-.15631104 .10798645-.14727783 .10798645-.13523865 .1499939 .028259278 .15699768 .053268434 .16999817 .024261475 .19799805-.0107421879 .24899292-.0107421879 .36499024-.0107421879 .48999024 .13528443 .48999024 .28233338 .48999024 .37635804 .43299867 .4423828 .35699464 .4423828 .30699159 .4423828 .25898744 .40637208 .22599793 .36735536 .21598816 .42137147 .17298889 .4423828 .13598633 .4423828 .08999634 .4423828 .070999149 .4033661 .06199646 .38536073 .04399109 .35134889 .0309906 .29133607 .0309906 .28833009 .0309906 .27833558 .040985109 .27833558 .042999269 .27833558 .052993776 .27833558 .053985597 .2793274 .05999756 .30133058 .07699585 .37236024 .09700012 .42037965 .1329956 .42037965 .1499939 .42037965 .1639862 .41236878 .1639862 .37435914 .1639862 .35134889 .16099549 .3403473 .15699768 .323349L.04499817-.122177127M.22099304 .3123474C.22799683 .33935548 .25498963 .36735536 .272995 .38235475 .30799867 .41337586 .33699037 .42037965 .35398866 .42037965 .3939972 .42037965 .41799928 .38536073 .41799928 .32633973 .41799928 .26733399 .3849945 .15229798 .36698915 .11428833 .33299256 .044265748 .2849884 .011245728 .24798584 .011245728 .18199158 .011245728 .16899109 .0942688 .16899109 .10028076 .16899109 .10227966 .16899109 .104278568 .17199707 .11628723L.22099304 .3123474Z"/>
<path id="font_3_1" d="M.35499574 .75C.16499329 .61598208 .114990238 .40397645 .114990238 .25097657 .114990238 .10997009 .15699768-.10902405 .35499574-.24902344 .36299134-.24902344 .375-.24902344 .375-.23703003 .375-.23103333 .37199403-.22903443 .36499024-.22203064 .23199463-.10203552 .18299866 .067977908 .18299866 .24996948 .18299866 .519989 .28599549 .65197756 .36799623 .72598269 .37199403 .7299957 .375 .73298647 .375 .73799136 .375 .75 .36299134 .75 .35499574 .75Z"/>
<path id="font_3_3" d="M.46299745 .2263794H.7689972C.7819977 .2263794 .80599978 .2263794 .80599978 .25038148 .80599978 .27539063 .7829895 .27539063 .7689972 .27539063H.46299745V.5821533C.46299745 .59513857 .46299745 .6191406 .43899537 .6191406 .4139862 .6191406 .4139862 .5961304 .4139862 .5821533V.27539063H.10699463C.09399414 .27539063 .069992069 .27539063 .069992069 .25138856 .069992069 .2263794 .09298706 .2263794 .10699463 .2263794H.4139862V-.08114624C.4139862-.09416199 .4139862-.11816406 .43798829-.11816406 .46299745-.11816406 .46299745-.09516907 .46299745-.08114624V.2263794Z"/>
<path id="font_3_2" d="M.08999634 .75C.08299255 .75 .070999149 .75 .070999149 .73799136 .070999149 .73298647 .07398987 .7299957 .07998657 .72299197 .1659851 .64398196 .2619934 .5089874 .2619934 .25097657 .2619934 .04197693 .19699097-.11602783 .08898926-.21403504 .07199097-.23103333 .070999149-.23202515 .070999149-.23703003 .070999149-.24203491 .07398987-.24902344 .083999637-.24902344 .09599304-.24902344 .19099427-.18302918 .25698854-.058029176 .30099488 .024978638 .32998658 .13298035 .32998658 .24996948 .32998658 .39097596 .28799439 .60998538 .08999634 .75Z"/>
<path id="font_6_1" d="M.69999697 .46954347C.71099856 .48054505 .71398928 .48654176 .71398928 .49354554 .71398928 .509552 .70098879 .5185547 .6899872 .5185547 .6799927 .5185547 .6769867 .5155487 .6649933 .50354006L.44599916 .28547669 .22599793 .5045471C.21598816 .5145416 .21199036 .5185547 .20298767 .5185547 .18899536 .5185547 .17799378 .5075531 .17799378 .49354554 .17799378 .48454286 .18099976 .48153688 .19299317 .46954347L.41099549 .25146485 .19299317 .03340149C.1789856 .01939392 .17799378 .014389038 .17799378 .008392334 .17799378-.0056152346 .18899536-.016601563 .20298767-.016601563 .21199036-.016601563 .21499634-.01361084 .22599793-.002609253L.44599916 .21646118 .673996-.0116119389C.67900088-.014602661 .6839905-.016601563 .6899872-.016601563 .70098879-.016601563 .71398928-.0076141359 .71398928 .008392334 .71398928 .01638794 .71199038 .0184021 .70899966 .021392823 .70700076 .025390625 .5130005 .2194519 .48098756 .25047303L.69999697 .46954347Z"/>
</defs>
<use data-text="S" xlink:href="#font_1_1" transform="matrix(9.963397,0,0,-9.963098,1.4769135,60.15435)"/>
<use data-text="T" xlink:href="#font_1_2" transform="matrix(9.963397,0,0,-9.963098,1.2158966,116.85118)"/>
<use data-text="S" xlink:href="#font_1_1" transform="matrix(9.963397,0,0,-9.963098,48.48369,88.087749)"/>
<use data-text="+" xlink:href="#font_2_1" transform="matrix(9.963397,0,0,-9.963098,57.381395,88.087749)"/>
<use data-text="T" xlink:href="#font_1_2" transform="matrix(9.963397,0,0,-9.963098,67.3452,88.087749)"/>
<use data-text="T" xlink:href="#font_1_2" transform="matrix(9.963397,0,0,-9.963098,114.61197,88.50276)"/>
<path transform="matrix(1.00008,0,0,-1.00005,146.56453,85.098598)" stroke-width=".3985" stroke-linecap="butt" stroke-miterlimit="10" stroke-linejoin="miter" fill="none" stroke="#000000" d="M-134.87256 28.75826C-115.50014 30.2965-100.90294 23.34673-91.01416 8.98006"/>
<path transform="matrix(.56698539,.8237211,.82374587,-.5669683,55.543069,76.11809)" d="M1.99252 0-1.19551 1.59401 0 0-1.19551-1.59401"/>
<use data-text="j" xlink:href="#font_1_3" transform="matrix(9.963397,0,0,-9.963098,25.216828,70.55987)"/>
<use data-text="1" xlink:href="#font_3_4" transform="matrix(6.974358,0,0,-6.9741489,29.320145,72.05495)"/>
<path transform="matrix(1.00008,0,0,-1.00005,146.56453,85.098598)" stroke-width=".3985" stroke-linecap="butt" stroke-miterlimit="10" stroke-linejoin="miter" fill="none" stroke="#000000" d="M-134.61138-28.77391C-115.26434-30.26071-100.84569-23.35045-91.01-8.98294"/>
<path transform="matrix(.56489518,-.8251712,-.82519599,-.56487819,55.54724,94.081989)" d="M1.99252 0-1.19551 1.59401 0 0-1.19551-1.59401"/>
<use data-text="j" xlink:href="#font_1_3" transform="matrix(9.963397,0,0,-9.963098,25.359833,104.26055)"/>
<use data-text="2" xlink:href="#font_3_5" transform="matrix(6.974358,0,0,-6.9741489,29.46315,105.75563)"/>
<path transform="matrix(1.00008,0,0,-1.00005,146.56453,85.098598)" stroke-width=".3985" stroke-linecap="butt" stroke-miterlimit="10" stroke-linejoin="miter" fill="none" stroke="#000000" d="M-134.87256 30.30936C-96.71393 41.78796-64.48961 34.19324-36.92053 8.25166"/>
<path transform="matrix(.7283182,.6852942,.68531486,-.72829636,109.64102,76.846508)" d="M1.99252 0-1.19551 1.59401 0 0-1.19551-1.59401"/>
<use data-text="j" xlink:href="#font_1_3" transform="matrix(9.963397,0,0,-9.963098,68.334278,46.49767)"/>
<use data-text="&#x25e6;" xlink:href="#font_4_2" transform="matrix(9.963397,0,0,-9.963098,75.22182,46.49767)"/>
<use data-text="j" xlink:href="#font_1_3" transform="matrix(9.963397,0,0,-9.963098,82.417407,46.49767)"/>
<use data-text="1" xlink:href="#font_3_4" transform="matrix(6.974358,0,0,-6.9741489,86.52072,47.99275)"/>
<use data-text="=" xlink:href="#font_2_4" transform="matrix(9.963397,0,0,-9.963098,93.758319,46.49767)"/>
<use data-text="0" xlink:href="#font_2_2" transform="matrix(9.963397,0,0,-9.963098,104.2697,46.49767)"/>
<use data-text="S" xlink:href="#font_5_1" transform="matrix(6.974358,0,0,-6.9741489,109.256549,47.99275)"/>
<use data-text="T" xlink:href="#font_5_2" transform="matrix(6.974358,0,0,-6.9741489,114.52916,47.99275)"/>
<path transform="matrix(1.00008,0,0,-1.00005,146.56453,85.098598)" stroke-width=".3985" stroke-linecap="butt" stroke-miterlimit="10" stroke-linejoin="miter" fill="none" stroke="#000000" d="M-134.61138-30.38406C-96.5383-41.78285-64.37773-34.15907-36.91872-8.25354"/>
<path transform="matrix(.72739818,-.6862343,-.6862549,-.72737637,109.642848,93.35257)" d="M1.99252 0-1.19551 1.59401 0 0-1.19551-1.59401"/>
<use data-text="j" xlink:href="#font_1_3" transform="matrix(9.963397,0,0,-9.963098,68.47427,128.32875)"/>
<use data-text="&#x25e6;" xlink:href="#font_4_2" transform="matrix(9.963397,0,0,-9.963098,75.36182,128.32875)"/>
<use data-text="j" xlink:href="#font_1_3" transform="matrix(9.963397,0,0,-9.963098,82.5574,128.32875)"/>
<use data-text="2" xlink:href="#font_3_5" transform="matrix(6.974358,0,0,-6.9741489,86.66072,129.82384)"/>
<use data-text="=" xlink:href="#font_2_4" transform="matrix(9.963397,0,0,-9.963098,93.898319,128.32875)"/>
<use data-text="1" xlink:href="#font_2_3" transform="matrix(9.963397,0,0,-9.963098,104.4097,128.32875)"/>
<use data-text="T" xlink:href="#font_5_2" transform="matrix(6.974358,0,0,-6.9741489,109.396549,129.82384)"/>
<path transform="matrix(1.00008,0,0,-1.00005,146.56453,85.098598)" stroke-width=".3985" stroke-linecap="butt" stroke-miterlimit="10" stroke-linejoin="miter" fill="none" stroke="#000000" d="M-68.48776 0H-37.462"/>
<path transform="matrix(1.00008,0,0,-1.00005,109.09953,85.098598)" d="M1.99252 0-1.19551 1.59401 0 0-1.19551-1.59401"/>
<use data-text="j" xlink:href="#font_1_3" transform="matrix(9.963397,0,0,-9.963098,92.24518,79.64132)"/>
<use data-text="S" xlink:href="#font_1_1" transform="matrix(9.963397,0,0,-9.963098,284.9676,60.15435)"/>
<use data-text="T" xlink:href="#font_1_2" transform="matrix(9.963397,0,0,-9.963098,284.70658,116.85118)"/>
<use data-text="S" xlink:href="#font_1_1" transform="matrix(9.963397,0,0,-9.963098,218.5783,88.087749)"/>
<use data-text="&#x00d7;" xlink:href="#font_4_1" transform="matrix(9.963397,0,0,-9.963098,227.476,88.087749)"/>
<use data-text="T" xlink:href="#font_1_2" transform="matrix(9.963397,0,0,-9.963098,237.4398,88.087749)"/>
<use data-text="T" xlink:href="#font_1_2" transform="matrix(9.963397,0,0,-9.963098,171.31052,88.50276)"/>
<path transform="matrix(1.00008,0,0,-1.00005,146.56453,85.098598)" stroke-width=".3985" stroke-linecap="butt" stroke-miterlimit="10" stroke-linejoin="miter" fill="none" stroke="#000000" d="M89.88454 7.33885C100.90294 23.34673 115.50014 30.2965 132.88639 28.91595"/>
<path transform="matrix(.99688979,.079153958,.07915633,-.9968598,279.46156,56.181184)" d="M1.99252 0-1.19551 1.59401 0 0-1.19551-1.59401"/>
<use data-text="p" xlink:href="#font_1_4" transform="matrix(9.963397,0,0,-9.963098,259.33955,68.278759)"/>
<use data-text="1" xlink:href="#font_3_4" transform="matrix(6.974358,0,0,-6.9741489,264.35295,69.773838)"/>
<path transform="matrix(1.00008,0,0,-1.00005,146.56453,85.098598)" stroke-width=".3985" stroke-linecap="butt" stroke-miterlimit="10" stroke-linejoin="miter" fill="none" stroke="#000000" d="M89.88454-7.33885C100.84569-23.35045 115.26434-30.26071 132.6248-28.92653"/>
<path transform="matrix(.99708977,-.07660383,-.076606128,-.99705979,279.19996,114.02658)" d="M1.99252 0-1.19551 1.59401 0 0-1.19551-1.59401"/>
<use data-text="p" xlink:href="#font_1_4" transform="matrix(9.963397,0,0,-9.963098,259.19654,104.26055)"/>
<use data-text="2" xlink:href="#font_3_5" transform="matrix(6.974358,0,0,-6.9741489,264.20994,105.75563)"/>
<path transform="matrix(1.00008,0,0,-1.00005,146.56453,85.098598)" stroke-width=".3985" stroke-linecap="butt" stroke-miterlimit="10" stroke-linejoin="miter" fill="none" stroke="#000000" d="M35.46948 6.88628C64.48961 34.19324 96.71393 41.78796 132.96459 30.88329"/>
<path transform="matrix(.9576466,.2880544,.28806306,-.9576178,279.53974,54.21376)" d="M1.99252 0-1.19551 1.59401 0 0-1.19551-1.59401"/>
<use data-text="p" xlink:href="#font_1_4" transform="matrix(9.963397,0,0,-9.963098,200.88988,46.49767)"/>
<use data-text="1" xlink:href="#font_3_4" transform="matrix(6.974358,0,0,-6.9741489,205.90328,47.99275)"/>
<use data-text="&#x25e6;" xlink:href="#font_4_2" transform="matrix(9.963397,0,0,-9.963098,212.5868,46.49767)"/>
<use data-text="p" xlink:href="#font_1_4" transform="matrix(9.963397,0,0,-9.963098,219.7824,46.49767)"/>
<path transform="matrix(1.00008,0,0,-1.00005,146.56453,85.098598)" stroke-width=".3985" stroke-linecap="butt" stroke-miterlimit="10" stroke-linejoin="miter" fill="none" stroke="#000000" d="M35.46948-6.88628C64.37773-34.15907 96.5383-41.78285 132.70267-30.95552"/>
<path transform="matrix(.9580067,-.28681434,-.28682295,-.9579779,279.27784,116.05568)" d="M1.99252 0-1.19551 1.59401 0 0-1.19551-1.59401"/>
<use data-text="p" xlink:href="#font_1_4" transform="matrix(9.963397,0,0,-9.963098,176.2059,128.17775)"/>
<use data-text="2" xlink:href="#font_3_5" transform="matrix(6.974358,0,0,-6.9741489,181.2193,129.67282)"/>
<use data-text="&#x25e6;" xlink:href="#font_4_2" transform="matrix(9.963397,0,0,-9.963098,187.90283,128.17775)"/>
<use data-text="p" xlink:href="#font_1_4" transform="matrix(9.963397,0,0,-9.963098,195.09842,128.17775)"/>
<use data-text="=" xlink:href="#font_2_4" transform="matrix(9.963397,0,0,-9.963098,202.87906,128.17775)"/>
<use data-text="1" xlink:href="#font_2_3" transform="matrix(9.963397,0,0,-9.963098,213.39044,128.17775)"/>
<use data-text="T" xlink:href="#font_5_2" transform="matrix(6.974358,0,0,-6.9741489,218.37729,129.67282)"/>
<path transform="matrix(1.00008,0,0,-1.00005,146.56453,85.098598)" stroke-width=".3985" stroke-linecap="butt" stroke-miterlimit="10" stroke-linejoin="miter" fill="none" stroke="#000000" d="M35.46948 0H66.49524"/>
<path transform="matrix(1.00008,0,0,-1.00005,213.0651,85.098598)" d="M1.99252 0-1.19551 1.59401 0 0-1.19551-1.59401"/>
<use data-text="p" xlink:href="#font_1_4" transform="matrix(9.963397,0,0,-9.963098,196.04048,79.64132)"/>
<path transform="matrix(1.00008,0,0,-1.00005,146.56453,85.098598)" stroke-width=".3985" stroke-linecap="butt" stroke-miterlimit="10" stroke-linejoin="miter" fill="none" stroke="#000000" d="M-21.22412 0H19.2316"/>
<path transform="matrix(1.00008,0,0,-1.00005,165.79767,85.098598)" d="M1.99252 0-1.19551 1.59401 0 0-1.19551-1.59401"/>
<use data-text="1" xlink:href="#font_2_3" transform="matrix(9.963397,0,0,-9.963098,140.93509,80.08434)"/>
<use data-text="T" xlink:href="#font_5_2" transform="matrix(6.974358,0,0,-6.9741489,145.91748,81.57942)"/>
<path transform="matrix(1.00008,0,0,-1.00005,146.56453,85.098598)" stroke-width=".3985" stroke-linecap="butt" stroke-miterlimit="10" stroke-linejoin="miter" fill="none" stroke="#000000" d="M-134.87256 32.2938C-43.77266 84.8902 43.77266 84.8902 133.147 33.29002"/>
<path transform="matrix(.8660793,.50000497,.50001999,-.8660533,279.72218,51.80691)" d="M1.99252 0-1.19551 1.59401 0 0-1.19551-1.59401"/>
<use data-text="1" xlink:href="#font_2_3" transform="matrix(9.963397,0,0,-9.963098,141.18811,8.33976)"/>
<use data-text="S" xlink:href="#font_5_1" transform="matrix(6.974358,0,0,-6.9741489,146.1705,9.834839)"/>
<path transform="matrix(1.00008,0,0,-1.00005,146.56453,85.098598)" stroke-width=".3985" stroke-linecap="butt" stroke-miterlimit="10" stroke-linejoin="miter" fill="none" stroke="#000000" d="M-134.61138-32.44406C-43.68788-84.93861 43.68788-84.93861 132.88582-33.44029"/>
<path transform="matrix(.8660793,-.50000497,-.50001999,-.8660533,279.46098,118.54056)" d="M1.99252 0-1.19551 1.59401 0 0-1.19551-1.59401"/>
<use data-text="1" xlink:href="#font_2_3" transform="matrix(9.963397,0,0,-9.963098,140.93509,166.85767)"/>
<use data-text="T" xlink:href="#font_5_2" transform="matrix(6.974358,0,0,-6.9741489,145.91748,168.35276)"/>
<path transform="matrix(1.00008,0,0,-1.00005,146.56453,85.098598)" stroke-width=".3985" stroke-linecap="butt" stroke-miterlimit="10" stroke-linejoin="miter" fill="none" stroke="#000000" d="M-72.342-7.33885C-23.47852-35.55013 23.47852-35.55013 70.61646-8.33508"/>
<path transform="matrix(.8660793,-.50000497,-.50001999,-.8660533,217.18662,93.43409)" d="M1.99252 0-1.19551 1.59401 0 0-1.19551-1.59401"/>
<use data-text="0" xlink:href="#font_2_2" transform="matrix(9.963397,0,0,-9.963098,120.373439,106.53467)"/>
<use data-text="(" xlink:href="#font_3_1" transform="matrix(6.974358,0,0,-6.9741489,125.35583,108.333759)"/>
<use data-text="S" xlink:href="#font_5_1" transform="matrix(6.974358,0,0,-6.9741489,128.46909,108.333759)"/>
<use data-text="+" xlink:href="#font_3_3" transform="matrix(6.974358,0,0,-6.9741489,133.7425,108.333759)"/>
<use data-text="T" xlink:href="#font_5_2" transform="matrix(6.974358,0,0,-6.9741489,139.85898,108.333759)"/>
<use data-text=")" xlink:href="#font_3_2" transform="matrix(6.974358,0,0,-6.9741489,145.63745,108.333759)"/>
<use data-text="(" xlink:href="#font_3_1" transform="matrix(6.974358,0,0,-6.9741489,148.74802,108.333759)"/>
<use data-text="S" xlink:href="#font_5_1" transform="matrix(6.974358,0,0,-6.9741489,151.86493,108.333759)"/>
<use data-text="&#x00d7;" xlink:href="#font_6_1" transform="matrix(6.974358,0,0,-6.9741489,157.13837,108.333759)"/>
<use data-text="T" xlink:href="#font_5_2" transform="matrix(6.974358,0,0,-6.9741489,163.36588,108.333759)"/>
<use data-text=")" xlink:href="#font_3_2" transform="matrix(6.974358,0,0,-6.9741489,169.14432,108.333759)"/>
</svg>
