<svg xmlns="http://www.w3.org/2000/svg" xmlns:xlink="http://www.w3.org/1999/xlink" version="1.1" width="117" height="202" viewBox="0 0 117 202">
<defs>
<path id="font_1_1" d="M.44400025 .24998474C.44400025 .35688783 .35499574 .44381715 .25 .44381715 .14199829 .44381715 .054992677 .35488893 .054992677 .24998474 .054992677 .14407349 .14199829 .056137086 .25 .056137086 .35499574 .056137086 .44400025 .14308167 .44400025 .24998474Z"/>
</defs>
<path transform="matrix(1.00003,0,0,-1.00003,-26.251355,86.84113)" stroke-width=".3985" stroke-linecap="butt" stroke-miterlimit="10" stroke-linejoin="miter" fill="none" stroke="#000000" d="M28.3468 0V85.04042H141.73404V0ZM141.73404 85.04042"/>
<use data-text="&#x2022;" xlink:href="#font_1_1" transform="matrix(9.962899,0,0,-9.962899,27.953274,60.707349)"/>
<use data-text="&#x2022;" xlink:href="#font_1_1" transform="matrix(9.962899,0,0,-9.962899,27.953274,32.359498)"/>
<use data-text="&#x2022;" xlink:href="#font_1_1" transform="matrix(9.962899,0,0,-9.962899,56.30113,60.707349)"/>
<use data-text="&#x2022;" xlink:href="#font_1_1" transform="matrix(9.962899,0,0,-9.962899,56.30113,32.359498)"/>
<use data-text="&#x2022;" xlink:href="#font_1_1" transform="matrix(9.962899,0,0,-9.962899,84.64899,60.707349)"/>
<use data-text="&#x2022;" xlink:href="#font_1_1" transform="matrix(9.962899,0,0,-9.962899,84.64899,32.359498)"/>
<path transform="matrix(1.00003,0,0,-1.00003,-26.251355,86.84113)" stroke-width=".3985" stroke-linecap="butt" stroke-miterlimit="10" stroke-linejoin="miter" fill="none" stroke="#000000" d="M28.3468-113.38724V-28.3468H141.73404V-113.38724ZM141.73404-28.3468"/>
<use data-text="&#x2022;" xlink:href="#font_1_1" transform="matrix(9.962899,0,0,-9.962899,27.953274,145.75092)"/>
<use data-text="&#x2022;" xlink:href="#font_1_1" transform="matrix(9.962899,0,0,-9.962899,27.953274,174.09775)"/>
<use data-text="&#x2022;" xlink:href="#font_1_1" transform="matrix(9.962899,0,0,-9.962899,56.30113,145.75092)"/>
<use data-text="&#x2022;" xlink:href="#font_1_1" transform="matrix(9.962899,0,0,-9.962899,56.30113,174.09775)"/>
<use data-text="&#x2022;" xlink:href="#font_1_1" transform="matrix(9.962899,0,0,-9.962899,84.64899,145.75092)"/>
<use data-text="&#x2022;" xlink:href="#font_1_1" transform="matrix(9.962899,0,0,-9.962899,84.64899,174.09775)"/>
<path transform="matrix(1.00003,0,0,-1.00003,-26.251355,86.84113)" stroke-width=".3985" stroke-linecap="butt" stroke-miterlimit="10" stroke-linejoin="miter" fill="none" stroke="#000000" d="M62.42683 34.08057 77.89859 49.55103"/>
<path transform="matrix(.7071412,-.7070812,-.7070812,-.7071412,51.649557,37.288637)" d="M1.99252 0-1.19551 1.59401 0 0-1.19551-1.59401"/>
<path transform="matrix(1.00003,0,0,-1.00003,-26.251355,86.84113)" stroke-width=".3985" stroke-linecap="butt" stroke-miterlimit="10" stroke-linejoin="miter" fill="none" stroke="#000000" d="M90.77365 34.08057 106.2454 49.55103"/>
<path transform="matrix(.7071412,-.7070812,-.7070812,-.7071412,79.99722,37.288637)" d="M1.99252 0-1.19551 1.59401 0 0-1.19551-1.59401"/>
<path transform="matrix(1.00003,0,0,-1.00003,-26.251355,86.84113)" stroke-width=".3985" stroke-linecap="butt" stroke-miterlimit="10" stroke-linejoin="miter" fill="none" stroke="#000000" d="M62.42683-62.42737 77.89859-77.89783"/>
<path transform="matrix(.7071412,.7070812,.7070812,-.7071412,51.649557,164.74129)" d="M1.99252 0-1.19551 1.59401 0 0-1.19551-1.59401"/>
<path transform="matrix(1.00003,0,0,-1.00003,-26.251355,86.84113)" stroke-width=".3985" stroke-linecap="butt" stroke-miterlimit="10" stroke-linejoin="miter" fill="none" stroke="#000000" d="M79.30719-62.42737 63.83543-77.89783"/>
<path transform="matrix(-.7071412,.7070812,.7070812,.7071412,37.586015,164.74129)" d="M1.99252 0-1.19551 1.59401 0 0-1.19551-1.59401"/>
<path transform="matrix(1.00003,0,0,-1.00003,-26.251355,86.84113)" stroke-width=".3985" stroke-linecap="butt" stroke-dasharray="2.98883,2.98883" stroke-miterlimit="10" stroke-linejoin="miter" fill="none" stroke="#ff0000" d="M70.75462 35.48056 67.52379-65.35576"/>
<path transform="matrix(-.032000964,.99948009,.99948009,.032000964,41.27448,152.19886)" d="M1.99252 0-1.19551 1.59401 0 0-1.19551-1.59401" fill="#ff0000"/>
<path transform="matrix(1.00003,0,0,-1.00003,-26.251355,86.84113)" stroke-width=".3985" stroke-linecap="butt" stroke-dasharray="2.98883,2.98883" stroke-miterlimit="10" stroke-linejoin="miter" fill="none" stroke="#ff0000" d="M98.41988 35.48056 75.62082-65.40376"/>
<path transform="matrix(-.22041662,.9753893,.9753893,.22041662,49.371747,152.24686)" d="M1.99252 0-1.19551 1.59401 0 0-1.19551-1.59401" fill="#ff0000"/>
<path transform="matrix(1.00003,0,0,-1.00003,-26.251355,86.84113)" stroke-width=".3985" stroke-linecap="butt" stroke-dasharray=".3985,1.99255" stroke-miterlimit="10" stroke-linejoin="miter" fill="none" stroke="#ff0000" d="M60.00186 22.61304C74.34749-2.23434 74.34749-26.11244 60.9981-49.2343"/>
<path transform="matrix(-.49999503,.866036,.866036,.49999503,34.748579,136.07689)" d="M1.99252 0-1.19551 1.59401 0 0-1.19551-1.59401" fill="#ff0000"/>
<path transform="matrix(1.00003,0,0,-1.00003,-26.251355,86.84113)" stroke-width=".3985" stroke-linecap="butt" stroke-dasharray=".3985,1.99255" stroke-miterlimit="10" stroke-linejoin="miter" fill="none" stroke="#ff0000" d="M88.34868 22.61304C102.69429-2.23434 102.69429-26.11244 89.34491-49.2343"/>
<path transform="matrix(-.49999503,.866036,.866036,.49999503,63.09624,136.07689)" d="M1.99252 0-1.19551 1.59401 0 0-1.19551-1.59401" fill="#ff0000"/>
<path transform="matrix(1.00003,0,0,-1.00003,-26.251355,86.84113)" stroke-width=".3985" stroke-linecap="butt" stroke-dasharray=".3985,1.99255" stroke-miterlimit="10" stroke-linejoin="miter" fill="none" stroke="#ff0000" d="M88.34502 50.95985C113.74509 6.96553 113.74509-35.31233 89.34125-77.58112"/>
<path transform="matrix(-.49999503,.866036,.866036,.49999503,63.09258,164.42456)" d="M1.99252 0-1.19551 1.59401 0 0-1.19551-1.59401" fill="#ff0000"/>
<path transform="matrix(1.00003,0,0,-1.00003,-26.251355,86.84113)" stroke-width=".3985" stroke-linecap="butt" stroke-dasharray=".3985,1.99255" stroke-miterlimit="10" stroke-linejoin="miter" fill="none" stroke="#ff0000" d="M114.21304 50.95985C122.42186-3.46936 105.73671-45.98941 64.26172-79.0708"/>
<path transform="matrix(-.78174349,.62353876,.62353876,.78174349,38.012296,165.9143)" d="M1.99252 0-1.19551 1.59401 0 0-1.19551-1.59401" fill="#ff0000"/>
<path transform="matrix(1.00003,0,0,-1.00003,-26.251355,86.84113)" stroke-width=".3985" stroke-linecap="butt" stroke-dasharray=".3985,1.99255" stroke-miterlimit="10" stroke-linejoin="miter" fill="none" stroke="#ff0000" d="M116.69548 22.61304C131.0411-2.23434 131.0411-26.11244 117.69171-49.2343"/>
<path transform="matrix(-.49999503,.866036,.866036,.49999503,91.44389,136.07689)" d="M1.99252 0-1.19551 1.59401 0 0-1.19551-1.59401" fill="#ff0000"/>
<path transform="matrix(1.00003,0,0,-1.00003,-26.251355,86.84113)" stroke-width=".3985" stroke-linecap="butt" stroke-dasharray=".3985,1.99255" stroke-miterlimit="10" stroke-linejoin="miter" fill="none" stroke="#ff0000" d="M62.70413 51.96635C105.73671 17.64261 122.42186-24.87744 114.51015-77.33655"/>
<path transform="matrix(-.14911449,.98877969,.98877969,.14911449,88.26224,164.18001)" d="M1.99252 0-1.19551 1.59401 0 0-1.19551-1.59401" fill="#ff0000"/>
</svg>
