<svg xmlns="http://www.w3.org/2000/svg" xmlns:xlink="http://www.w3.org/1999/xlink" xmlns:inkscape="http://www.inkscape.org/namespaces/inkscape" version="1.1" width="412" height="140" viewBox="0 0 412 140">
<defs>
<path id="font_1_1" d="M.44400025 .24998474C.44400025 .35688783 .35499574 .44381715 .25 .44381715 .14199829 .44381715 .054992677 .35488893 .054992677 .24998474 .054992677 .14407349 .14199829 .056137086 .25 .056137086 .35499574 .056137086 .44400025 .14308167 .44400025 .24998474Z"/>
<path id="font_2_1" d="M.39698792 .6252594C.39698792 .6442566 .3829956 .6612549 .35899354 .6612549 .33599855 .6612549 .30599977 .6382599 .30599977 .6082611 .30599977 .58825686 .31999208 .5722656 .34298707 .5722656 .36999513 .5722656 .39698792 .59825137 .39698792 .6252594M.19599915-.049926759C.1769867-.12594605 .1289978-.18309021 .07299805-.18309021 .066986087-.18309021 .051986696-.18309021 .033996583-.17396546 .06399536-.16694641 .07899475-.14094544 .07899475-.12094116 .07899475-.10494995 .067993167-.0859375 .040985109-.0859375 .015991211-.0859375-.013000488-.10694885-.013000488-.14294434-.013000488-.18309021 .026992798-.20507813 .07499695-.20507813 .14498902-.20507813 .23799134-.15194702 .2630005-.05291748L.35499574 .31330873C.3600006 .333313 .3600006 .34732057 .3600006 .35032655 .3600006 .4073639 .31799317 .4423828 .2679901 .4423828 .1659851 .4423828 .10899353 .29730226 .10899353 .2882843 .10899353 .2782898 .11898804 .2782898 .12098694 .2782898 .12998963 .2782898 .1309967 .27928163 .13899231 .29829408 .1639862 .35932923 .20999146 .42037965 .2649994 .42037965 .2789917 .42037965 .29699708 .41636659 .29699708 .37434388 .29699708 .35133363 .2939911 .34031678 .2899933 .32331849L.19599915-.049926759Z"/>
<path id="font_3_1" d="M.33499146 .63612368C.33499146 .6630554 .33299256 .6640625 .30499269 .6640625 .24099732 .6014404 .1499939 .6004486 .10899353 .6004486V.5644531C.1329956 .5644531 .19898987 .5644531 .2539978 .592453V.08203125C.2539978 .04899597 .2539978 .035995485 .1539917 .035995485H.115997318V0C.13398743 .0009918213 .25698854 .0039978029 .2939911 .0039978029 .32499696 .0039978029 .45098878 .0009918213 .47299195 0V.035995485H.43499757C.33499146 .035995485 .33499146 .04899597 .33499146 .08203125V.63612368Z"/>
<path id="font_3_2" d="M.5049896 .18203736H.47099305C.46798707 .16001892 .45799256 .100997928 .44499208 .09098816 .43699647 .084991458 .3600006 .084991458 .34599305 .084991458H.1619873C.2669983 .17803955 .3019867 .20603943 .3619995 .25306703 .43598939 .312088 .5049896 .374115 .5049896 .46914674 .5049896 .5900879 .39898683 .6640625 .2709961 .6640625 .14698792 .6640625 .06298828 .57710269 .06298828 .4851532 .06298828 .43414308 .10598755 .42915345 .115997318 .42915345 .13999939 .42915345 .16899109 .44615174 .16899109 .48214723 .16899109 .5001526 .1619873 .53515627 .10998535 .53515627 .14099121 .6060791 .20899964 .62805178 .2559967 .62805178 .35598756 .62805178 .4079895 .5501404 .4079895 .46914674 .4079895 .38212586 .34599305 .3130951 .31399537 .27708436L.07299805 .038986207C.06298828 .02999878 .06298828 .027999878 .06298828 0H.47499085L.5049896 .18203736Z"/>
<path id="font_2_2" d="M.04499817-.122177127C.036987306-.15631104 .034988405-.16334534-.009002686-.16334534-.021011353-.16334534-.03201294-.16334534-.03201294-.18234253-.03201294-.19033814-.027008057-.19433594-.019012452-.19433594 .0079956059-.19433594 .036987306-.19134522 .06498718-.19134522 .09799194-.19134522 .13198853-.19433594 .1639862-.19433594 .16899109-.19433594 .18199158-.19433594 .18199158-.17434693 .18199158-.16334534 .17199707-.16334534 .1579895-.16334534 .10798645-.16334534 .10798645-.15631104 .10798645-.14727783 .10798645-.13523865 .1499939 .028259278 .15699768 .053268434 .16999817 .024261475 .19799805-.0107421879 .24899292-.0107421879 .36499024-.0107421879 .48999024 .13528443 .48999024 .28233338 .48999024 .37635804 .43299867 .4423828 .35699464 .4423828 .30699159 .4423828 .25898744 .40637208 .22599793 .36735536 .21598816 .42137147 .17298889 .4423828 .13598633 .4423828 .08999634 .4423828 .070999149 .4033661 .06199646 .38536073 .04399109 .35134889 .0309906 .29133607 .0309906 .28833009 .0309906 .27833558 .040985109 .27833558 .042999269 .27833558 .052993776 .27833558 .053985597 .2793274 .05999756 .30133058 .07699585 .37236024 .09700012 .42037965 .1329956 .42037965 .1499939 .42037965 .1639862 .41236878 .1639862 .37435914 .1639862 .35134889 .16099549 .3403473 .15699768 .323349L.04499817-.122177127M.22099304 .3123474C.22799683 .33935548 .25498963 .36735536 .272995 .38235475 .30799867 .41337586 .33699037 .42037965 .35398866 .42037965 .3939972 .42037965 .41799928 .38536073 .41799928 .32633973 .41799928 .26733399 .3849945 .15229798 .36698915 .11428833 .33299256 .044265748 .2849884 .011245728 .24798584 .011245728 .18199158 .011245728 .16899109 .0942688 .16899109 .10028076 .16899109 .10227966 .16899109 .104278568 .17199707 .11628723L.22099304 .3123474Z"/>
</defs>
<path transform="matrix(1.00006,0,0,-1.00005,183.52487,69.81694)" stroke-width=".3985" stroke-linecap="butt" stroke-miterlimit="10" stroke-linejoin="miter" fill="none" stroke="#000000" d="M-158.74274 22.67752V68.0326H-68.0326V22.67752ZM-68.0326 68.0326"/>
<use data-text="&#x2022;" xlink:href="#font_1_1" transform="matrix(9.963197,0,0,-9.963098,44.96057,26.673787)"/>
<use data-text="&#x2022;" xlink:href="#font_1_1" transform="matrix(9.963197,0,0,-9.963098,90.31828,26.673787)"/>
<path transform="matrix(1.00006,0,0,-1.00005,183.52487,69.81694)" stroke-width=".3985" stroke-linecap="butt" stroke-miterlimit="10" stroke-linejoin="miter" fill="none" stroke="#000000" d="M-181.42028-68.0326V-22.67752H-136.0652V-68.0326ZM-136.0652-22.67752"/>
<use data-text="&#x2022;" xlink:href="#font_1_1" transform="matrix(9.963197,0,0,-9.963098,22.282196,117.38832)"/>
<path transform="matrix(1.00006,0,0,-1.00005,183.52487,69.81694)" stroke-width=".3985" stroke-linecap="butt" stroke-miterlimit="10" stroke-linejoin="miter" fill="none" stroke="#000000" d="M-90.71013-68.0326V-22.67752H-45.35506V-68.0326ZM-45.35506-22.67752"/>
<use data-text="&#x2022;" xlink:href="#font_1_1" transform="matrix(9.963197,0,0,-9.963098,112.99765,117.38832)"/>
<path transform="matrix(1.00006,0,0,-1.00005,183.52487,69.81694)" stroke-width=".3985" stroke-linecap="butt" stroke-miterlimit="10" stroke-linejoin="miter" fill="none" stroke="#000000" d="M-157.3187-39.62335-137.98807 37.69037"/>
<path transform="matrix(.24255455,-.9701685,-.9701782,-.24255212,45.52852,32.124689)" d="M1.99252 0-1.19551 1.59401 0 0-1.19551-1.59401"/>
<use data-text="j" xlink:href="#font_2_1" transform="matrix(9.963197,0,0,-9.963098,24.011307,72.134059)"/>
<use data-text="1" xlink:href="#font_3_1" transform="matrix(6.9742186,0,0,-6.9741489,28.114548,73.629138)"/>
<path transform="matrix(1.00006,0,0,-1.00005,183.52487,69.81694)" stroke-width=".3985" stroke-linecap="butt" stroke-miterlimit="10" stroke-linejoin="miter" fill="none" stroke="#000000" d="M-69.4694-39.62335-88.79996 37.69037"/>
<path transform="matrix(-.24255455,-.9701685,-.9701782,.24255212,94.719608,32.124689)" d="M1.99252 0-1.19551 1.59401 0 0-1.19551-1.59401"/>
<use data-text="j" xlink:href="#font_2_1" transform="matrix(9.963197,0,0,-9.963098,107.66432,72.134059)"/>
<use data-text="2" xlink:href="#font_3_2" transform="matrix(6.9742186,0,0,-6.9741489,111.76756,73.629138)"/>
<path transform="matrix(1.00006,0,0,-1.00005,183.52487,69.81694)" stroke-width=".3985" stroke-linecap="butt" stroke-miterlimit="10" stroke-linejoin="miter" fill="none" stroke="#000000" d="M45.35506 22.67752V68.0326H90.71013V22.67752ZM90.71013 68.0326"/>
<use data-text="&#x2022;" xlink:href="#font_1_1" transform="matrix(9.963197,0,0,-9.963098,249.0708,26.673787)"/>
<path transform="matrix(1.00006,0,0,-1.00005,183.52487,69.81694)" stroke-width=".3985" stroke-linecap="butt" stroke-miterlimit="10" stroke-linejoin="miter" fill="none" stroke="#000000" d="M136.0652-68.0326V-22.67752H226.77533V-68.0326ZM226.77533-22.67752"/>
<use data-text="&#x2022;" xlink:href="#font_1_1" transform="matrix(9.963197,0,0,-9.963098,339.78627,117.38832)"/>
<use data-text="&#x2022;" xlink:href="#font_1_1" transform="matrix(9.963197,0,0,-9.963098,385.14396,117.38832)"/>
<path transform="matrix(1.00006,0,0,-1.00005,183.52487,69.81694)" stroke-width=".3985" stroke-linecap="butt" stroke-miterlimit="10" stroke-linejoin="miter" fill="none" stroke="#000000" d="M136.0652 22.67752V68.0326H226.77533V22.67752ZM226.77533 68.0326"/>
<use data-text="&#x2022;" xlink:href="#font_1_1" transform="matrix(9.963197,0,0,-9.963098,339.78627,26.673787)"/>
<use data-text="&#x2022;" xlink:href="#font_1_1" transform="matrix(9.963197,0,0,-9.963098,385.14396,26.673787)"/>
<path transform="matrix(1.00006,0,0,-1.00005,183.52487,69.81694)" stroke-width=".3985" stroke-linecap="butt" stroke-dasharray="2.98883,2.98883" stroke-miterlimit="10" stroke-linejoin="miter" fill="none" stroke="#000000" d="M158.75159 39.62335V-37.63083"/>
<path transform="matrix(0,1.00005,1.00006,0,342.28599,107.449649)" d="M1.99252 0-1.19551 1.59401 0 0-1.19551-1.59401"/>
<path transform="matrix(1.00006,0,0,-1.00005,183.52487,69.81694)" stroke-width=".3985" stroke-linecap="butt" stroke-dasharray="2.98883,2.98883" stroke-miterlimit="10" stroke-linejoin="miter" fill="none" stroke="#000000" d="M204.10924 39.62335 204.10915-37.63083"/>
<path transform="matrix(0,1.00005,1.00006,0,387.64625,107.449649)" d="M1.99252 0-1.19551 1.59401 0 0-1.19551-1.59401"/>
<path transform="matrix(1.00006,0,0,-1.00005,183.52487,69.81694)" stroke-width=".3985" stroke-linecap="butt" stroke-dasharray="2.98883,2.98883" stroke-miterlimit="10" stroke-linejoin="miter" fill="none" stroke="#000000" d="M152.74025 48.82748C126.1635 64.17152 100.62375 64.17152 75.77254 49.82372"/>
<path transform="matrix(-.8660619,.50000497,.50000998,.8660533,259.30198,19.990735)" d="M1.99252 0-1.19551 1.59401 0 0-1.19551-1.59401"/>
<path transform="matrix(1.00006,0,0,-1.00005,183.52487,69.81694)" stroke-width=".3985" stroke-linecap="butt" stroke-dasharray="2.98883,2.98883" stroke-miterlimit="10" stroke-linejoin="miter" fill="none" stroke="#000000" d="M198.0977 48.82748C156.20258 73.01558 115.94212 73.01558 75.77254 49.82372"/>
<path transform="matrix(-.8660619,.50000497,.50000998,.8660533,259.30198,19.990735)" d="M1.99252 0-1.19551 1.59401 0 0-1.19551-1.59401"/>
<path transform="matrix(1.00006,0,0,-1.00005,183.52487,69.81694)" stroke-width=".3985" stroke-linecap="butt" stroke-miterlimit="10" stroke-linejoin="miter" fill="none" stroke="#000000" d="M164.7619-43.74852C175.71431-40.812 175.71431-49.90286 167.64887-47.74146"/>
<path transform="matrix(-.9659879,-.25880293,-.2588055,.9659782,351.18379,117.56079)" d="M1.99252 0-1.19551 1.59401 0 0-1.19551-1.59401"/>
<path transform="matrix(1.00006,0,0,-1.00005,183.52487,69.81694)" stroke-width=".3985" stroke-linecap="butt" stroke-miterlimit="10" stroke-linejoin="miter" fill="none" stroke="#000000" d="M210.11936-43.74896C221.07176-40.812 221.07176-49.90286 213.00623-47.74126"/>
<path transform="matrix(-.96595796,-.25886295,-.25886555,.9659482,396.54389,117.560588)" d="M1.99252 0-1.19551 1.59401 0 0-1.19551-1.59401"/>
<path transform="matrix(1.00006,0,0,-1.00005,183.52487,69.81694)" stroke-width=".3985" stroke-linecap="butt" stroke-miterlimit="10" stroke-linejoin="miter" fill="none" stroke="#000000" d="M164.7619 46.96799C175.71431 49.90286 175.71431 40.812 167.64868 42.97461"/>
<path transform="matrix(-.96592798,-.25895296,-.25895555,.96591827,351.1836,26.84019)" d="M1.99252 0-1.19551 1.59401 0 0-1.19551-1.59401"/>
<path transform="matrix(1.00006,0,0,-1.00005,183.52487,69.81694)" stroke-width=".3985" stroke-linecap="butt" stroke-miterlimit="10" stroke-linejoin="miter" fill="none" stroke="#000000" d="M210.11936 46.96762C221.07176 49.90286 221.07176 40.812 213.00614 42.9749"/>
<path transform="matrix(-.96592798,-.25900293,-.25900553,.96591827,396.54377,26.839894)" d="M1.99252 0-1.19551 1.59401 0 0-1.19551-1.59401"/>
<path transform="matrix(1.00006,0,0,-1.00005,183.52487,69.81694)" stroke-width=".3985" stroke-linecap="butt" stroke-miterlimit="10" stroke-linejoin="miter" fill="none" stroke="#000000" d="M136.07234 45.35742H92.7074"/>
<path transform="matrix(-1.00006,-0,0,1.00005,276.23783,24.457253)" d="M1.99252 0-1.19551 1.59401 0 0-1.19551-1.59401"/>
<use data-text="p" xlink:href="#font_2_2" transform="matrix(9.963197,0,0,-9.963098,292.1844,32.267065)"/>
<use data-text="1" xlink:href="#font_3_1" transform="matrix(6.9742186,0,0,-6.9741489,297.1967,33.76214)"/>
<path transform="matrix(1.00006,0,0,-1.00005,183.52487,69.81694)" stroke-width=".3985" stroke-linecap="butt" stroke-miterlimit="10" stroke-linejoin="miter" fill="none" stroke="#000000" d="M181.42981 22.6787V-20.68617"/>
<path transform="matrix(0,1.00005,1.00006,0,364.96559,90.50414)" d="M1.99252 0-1.19551 1.59401 0 0-1.19551-1.59401"/>
<use data-text="p" xlink:href="#font_2_2" transform="matrix(9.963197,0,0,-9.963098,368.48597,70.993)"/>
<use data-text="2" xlink:href="#font_3_2" transform="matrix(6.9742186,0,0,-6.9741489,373.49827,72.488079)"/>
<path transform="matrix(1.00006,0,0,-1.00005,183.52487,69.81694)" stroke-width=".3985" stroke-linecap="butt" stroke-miterlimit="10" stroke-linejoin="miter" fill="none" stroke="#000000" d="M22.67752 0C22.67752 12.5246 12.5246 22.67752 0 22.67752-12.5246 22.67752-22.67752 12.5246-22.67752 0-22.67752-12.5246-12.5246-22.67752 0-22.67752 12.5246-22.67752 22.67752-12.5246 22.67752 0ZM0 0"/>
<use data-text="&#x2022;" xlink:href="#font_1_1" transform="matrix(9.963197,0,0,-9.963098,181.03372,72.03105)"/>
<path transform="matrix(1.00006,0,0,-1.00005,183.52487,69.81694)" stroke-width=".3985" stroke-linecap="butt" stroke-miterlimit="10" stroke-linejoin="miter" fill="none" stroke="#ff0000" d="M-128.17134 42.72377-7.90099 2.63014"/>
<path transform="matrix(-.94869688,-.31623579,-.31623895,.9486874,55.34584,27.091038)" d="M1.99252 0-1.19551 1.59401 0 0-1.19551-1.59401" fill="#ff0000"/>
<path transform="matrix(.94869688,.31623579,.31623895,-.9486874,175.62342,67.18667)" d="M1.99252 0-1.19551 1.59401 0 0-1.19551-1.59401" fill="#ff0000"/>
<path transform="matrix(1.00006,0,0,-1.00005,183.52487,69.81694)" stroke-width=".3985" stroke-linecap="butt" stroke-miterlimit="10" stroke-linejoin="miter" fill="none" stroke="#ff0000" d="M-82.92204 41.4641-7.79282 3.89331"/>
<path transform="matrix(-.89440366,-.44726236,-.44726683,.89439466,100.597858,28.350769)" d="M1.99252 0-1.19551 1.59401 0 0-1.19551-1.59401" fill="#ff0000"/>
<path transform="matrix(.89440366,.44726236,.44726683,-.89439466,175.73159,65.92344)" d="M1.99252 0-1.19551 1.59401 0 0-1.19551-1.59401" fill="#ff0000"/>
<path transform="matrix(1.00006,0,0,-1.00005,183.52487,69.81694)" stroke-width=".3985" stroke-linecap="butt" stroke-miterlimit="10" stroke-linejoin="miter" fill="none" stroke="#ff0000" d="M-150.82444-43.09462-7.92662-2.2635"/>
<path transform="matrix(-.9615576,.2747437,.27474649,.96154806,32.69139,112.9137)" d="M1.99252 0-1.19551 1.59401 0 0-1.19551-1.59401" fill="#ff0000"/>
<path transform="matrix(.9615576,-.2747437,-.27474649,-.96154806,175.59778,72.080577)" d="M1.99252 0-1.19551 1.59401 0 0-1.19551-1.59401" fill="#ff0000"/>
<path transform="matrix(1.00006,0,0,-1.00005,183.52487,69.81694)" stroke-width=".3985" stroke-linecap="butt" stroke-miterlimit="10" stroke-linejoin="miter" fill="none" stroke="#ff0000" d="M-60.36761-40.24748-7.66852-5.10965"/>
<path transform="matrix(-.83201989,.5547477,.55475327,.8320115,123.153659,110.06642)" d="M1.99252 0-1.19551 1.59401 0 0-1.19551-1.59401" fill="#ff0000"/>
<path transform="matrix(.83201989,-.5547477,-.55475327,-.8320115,175.85588,74.92686)" d="M1.99252 0-1.19551 1.59401 0 0-1.19551-1.59401" fill="#ff0000"/>
<path transform="matrix(1.00006,0,0,-1.00005,183.52487,69.81694)" stroke-width=".3985" stroke-linecap="butt" stroke-dasharray="2.98883,2.98883" stroke-miterlimit="10" stroke-linejoin="miter" fill="none" stroke="#ff0000" d="M-145.68677 5.48395C-99.27693 31.82819-53.74876 31.49391-7.72894 4.47406"/>
<path transform="matrix(-.86966219,.49366466,.4936696,.86965349,37.82936,64.33272)" d="M1.99252 0-1.19551 1.59401 0 0-1.19551-1.59401" fill="#ff0000"/>
<path transform="matrix(.8623417,.50632527,.5063303,-.8623331,175.79547,65.342639)" d="M1.99252 0-1.19551 1.59401 0 0-1.19551-1.59401" fill="#ff0000"/>
<path transform="matrix(1.00006,0,0,-1.00005,183.52487,69.81694)" stroke-width=".3985" stroke-linecap="butt" stroke-dasharray="2.98883,2.98883" stroke-miterlimit="10" stroke-linejoin="miter" fill="none" stroke="#ff0000" d="M-62.02473 5.4705C-43.98651 15.458-25.38676 15.12389-7.7182 4.4961"/>
<path transform="matrix(-.87488248,.4844042,.48440907,.8748737,121.49642,64.34617)" d="M1.99252 0-1.19551 1.59401 0 0-1.19551-1.59401" fill="#ff0000"/>
<path transform="matrix(.85695138,.5154557,.5154609,-.8569428,175.80622,65.3206)" d="M1.99252 0-1.19551 1.59401 0 0-1.19551-1.59401" fill="#ff0000"/>
<path transform="matrix(1.00006,0,0,-1.00005,183.52487,69.81694)" stroke-width=".3985" stroke-linecap="butt" stroke-miterlimit="10" stroke-linejoin="miter" fill="none" stroke="#ff0000" d="M60.36761 40.24748 7.66852 5.10965"/>
<path transform="matrix(.83201989,-.5547477,-.55475327,-.8320115,243.89609,29.56746)" d="M1.99252 0-1.19551 1.59401 0 0-1.19551-1.59401" fill="#ff0000"/>
<path transform="matrix(-.83201989,.5547477,.55475327,.8320115,191.19387,64.70702)" d="M1.99252 0-1.19551 1.59401 0 0-1.19551-1.59401" fill="#ff0000"/>
<path transform="matrix(1.00006,0,0,-1.00005,183.52487,69.81694)" stroke-width=".3985" stroke-linecap="butt" stroke-miterlimit="10" stroke-linejoin="miter" fill="none" stroke="#ff0000" d="M150.82444 43.09462 7.92662 2.2635"/>
<path transform="matrix(.9615576,-.2747437,-.27474649,-.96154806,334.35835,26.720189)" d="M1.99252 0-1.19551 1.59401 0 0-1.19551-1.59401" fill="#ff0000"/>
<path transform="matrix(-.9615576,.2747437,.27474649,.96154806,191.45197,67.55331)" d="M1.99252 0-1.19551 1.59401 0 0-1.19551-1.59401" fill="#ff0000"/>
<path transform="matrix(1.00006,0,0,-1.00005,183.52487,69.81694)" stroke-width=".3985" stroke-linecap="butt" stroke-miterlimit="10" stroke-linejoin="miter" fill="none" stroke="#ff0000" d="M196.15273 43.59187 7.95578 1.76422"/>
<path transform="matrix(.97619858,-.21694084,-.21694301,-.9761888,379.68937,26.222893)" d="M1.99252 0-1.19551 1.59401 0 0-1.19551-1.59401" fill="#ff0000"/>
<path transform="matrix(-.97619858,.21694084,.21694301,.9761888,191.48113,68.052639)" d="M1.99252 0-1.19551 1.59401 0 0-1.19551-1.59401" fill="#ff0000"/>
<path transform="matrix(1.00006,0,0,-1.00005,183.52487,69.81694)" stroke-width=".3985" stroke-linecap="butt" stroke-miterlimit="10" stroke-linejoin="miter" fill="none" stroke="#ff0000" d="M150.82444-43.09462 7.92662-2.2635"/>
<path transform="matrix(.9615576,.2747437,.27474649,-.96154806,334.35835,112.9137)" d="M1.99252 0-1.19551 1.59401 0 0-1.19551-1.59401" fill="#ff0000"/>
<path transform="matrix(-.9615576,-.2747437,-.27474649,.96154806,191.45197,72.080577)" d="M1.99252 0-1.19551 1.59401 0 0-1.19551-1.59401" fill="#ff0000"/>
<path transform="matrix(1.00006,0,0,-1.00005,183.52487,69.81694)" stroke-width=".3985" stroke-linecap="butt" stroke-miterlimit="10" stroke-linejoin="miter" fill="none" stroke="#ff0000" d="M196.15273-43.59187 7.95578-1.76422"/>
<path transform="matrix(.97619858,.21694084,.21694301,-.9761888,379.68937,113.41099)" d="M1.99252 0-1.19551 1.59401 0 0-1.19551-1.59401" fill="#ff0000"/>
<path transform="matrix(-.97619858,-.21694084,-.21694301,.9761888,191.48113,71.581249)" d="M1.99252 0-1.19551 1.59401 0 0-1.19551-1.59401" fill="#ff0000"/>
<path transform="matrix(1.00006,0,0,-1.00005,183.52487,69.81694)" stroke-width=".3985" stroke-linecap="butt" stroke-dasharray="2.98883,2.98883" stroke-miterlimit="10" stroke-linejoin="miter" fill="none" stroke="#ff0000" d="M103.25282 35.26105 7.89635 2.69383"/>
<path transform="matrix(.9463568,-.32321615,-.32321937,-.9463473,286.78388,34.55415)" d="M1.99252 0-1.19551 1.59401 0 0-1.19551-1.59401" fill="#ff0000"/>
<path transform="matrix(-.9463568,.32321615,.32321937,.9463473,191.42169,67.122959)" d="M1.99252 0-1.19551 1.59401 0 0-1.19551-1.59401" fill="#ff0000"/>
<path transform="matrix(1.00006,0,0,-1.00005,183.52487,69.81694)" stroke-width=".3985" stroke-linecap="butt" stroke-dasharray="2.98883,2.98883" stroke-miterlimit="10" stroke-linejoin="miter" fill="none" stroke="#ff0000" d="M179.44684 0H8.00333"/>
<path transform="matrix(1.00006,0,0,-1.00005,362.98249,69.81694)" d="M1.99252 0-1.19551 1.59401 0 0-1.19551-1.59401" fill="#ff0000"/>
<path transform="matrix(-1.00006,-0,0,1.00005,191.52869,69.81694)" d="M1.99252 0-1.19551 1.59401 0 0-1.19551-1.59401" fill="#ff0000"/>
</svg>
